<svg xmlns="http://www.w3.org/2000/svg" viewBox="0 0 145.74 22.03"><defs><style>.cls-1{fill:#8a8e6d;}</style></defs><g id="Layer_2" data-name="Layer 2"><g id="Layer_1-2" data-name="Layer 1"><path class="cls-1" d="M1.07,19.2,1,18.1l1.41-.35c0-.07,0-.25,0-.56s0-.73,0-1.24,0-1.11,0-1.78l0-4c0-.65,0-1.22,0-1.72s0-.91,0-1.21a3.16,3.16,0,0,0,0-.52L.93,6.3,1,5.21H9.29l1.16,0,1-.06.59,3.41-1.29.17-.88-2a3.85,3.85,0,0,0-.49-.08l-.51,0H6.79L6,6.54a4.74,4.74,0,0,0-.67.08c0,.06,0,.16,0,.29s0,.32,0,.54V9.59l0,5.34c0,.47,0,.9,0,1.3s0,.75,0,1a3.86,3.86,0,0,0,0,.5l1.93.31L7.32,19.2Zm8-4.58-.26-1.69-.56-.07c-.21,0-.46,0-.72,0H5.91c-.25,0-.49,0-.7,0l-.63.05V11.36l.6.05.73,0H7.49l.81,0c.22,0,.38,0,.47-.05L9,9.76H10.3v4.86Z" transform="translate(-0.93 -2.61)"/><path class="cls-1" d="M16.4,19.39a3.62,3.62,0,0,1-1.85-.45,3.4,3.4,0,0,1-1.18-1.1A2.32,2.32,0,0,1,13,16.6a2,2,0,0,1,.52-1.39,3.79,3.79,0,0,1,1.67-.92l3.72-1.14v-1a1.63,1.63,0,0,0-.33-1,2.6,2.6,0,0,0-.89-.74,2.52,2.52,0,0,0-1.19-.28.8.8,0,0,0-.63.2,1.49,1.49,0,0,0-.23.8l-.09,1.29a3.07,3.07,0,0,1-1.78-.06,1,1,0,0,1-.7-1,1.32,1.32,0,0,1,.43-.89,5.42,5.42,0,0,1,1.08-.85A10.4,10.4,0,0,1,15.92,9a5.47,5.47,0,0,1,1.31-.35,5,5,0,0,1,3.19,1,3.22,3.22,0,0,1,1.2,2.55l-.07,3.53q0,.6,0,1a2.27,2.27,0,0,0,.14.63l1.55.29v.9l-1.41.6a6.47,6.47,0,0,1-.74.25,2.85,2.85,0,0,1-.62.08,1.2,1.2,0,0,1-1.19-.9l-.36-1,.45.09a6.48,6.48,0,0,1-1.5,1.37A2.75,2.75,0,0,1,16.4,19.39Zm1-1.9a1.89,1.89,0,0,0,.78-.17,2,2,0,0,0,.68-.53V14.41l-2,.43a1.47,1.47,0,0,0-.82.4,1.12,1.12,0,0,0-.25.77,1.38,1.38,0,0,0,.46,1A1.58,1.58,0,0,0,17.42,17.49Z" transform="translate(-0.93 -2.61)"/><path class="cls-1" d="M24,19.2l-.07-1.05,1.55-.36a6.68,6.68,0,0,0,.07-.83c0-.41,0-.92,0-1.51s0-1.22,0-1.87v-3c0-.55,0-1.12,0-1.7s0-1.13,0-1.66,0-1,0-1.39,0-.72-.05-.94l-1.76-.24,0-.93,4.17-1.1.6.38c0,.67,0,1.32-.06,2s0,1.36-.05,2.16,0,1.76,0,2.9l0,3.63c0,1,0,2,0,2.75a10.94,10.94,0,0,0,.09,1.39l1.54.36,0,1.05Z" transform="translate(-0.93 -2.61)"/><path class="cls-1" d="M30.82,19.2l-.07-1.05,1.55-.36a5.12,5.12,0,0,0,.07-.83c0-.41,0-.92.05-1.51s0-1.22,0-1.87v-3c0-.55,0-1.12,0-1.7s0-1.13,0-1.66,0-1,0-1.39,0-.72,0-.94l-1.76-.24,0-.93,4.17-1.1.6.38c0,.67,0,1.32-.06,2s0,1.36,0,2.16,0,1.76,0,2.9l0,3.63c0,1,0,2,0,2.75a10.94,10.94,0,0,0,.09,1.39l1.55.36-.05,1.05Z" transform="translate(-0.93 -2.61)"/><path class="cls-1" d="M37.64,19.2l-.07-1.05,1.6-.36a3.33,3.33,0,0,0,0-.4c0-.21,0-.48,0-.82s0-.75,0-1.21l0-1.81c0-.49,0-1-.05-1.37A8.37,8.37,0,0,0,39.09,11l-1.59-.33v-1l4.07-1,.55.4c0,.49-.08,1-.11,1.49s0,1.08,0,1.73v3c0,.59,0,1.12,0,1.6a4,4,0,0,0,.11.9l1.6.36-.07,1.05Zm3-12.75a1.8,1.8,0,0,1-1.34-.51,1.75,1.75,0,0,1,0-2.45A1.77,1.77,0,0,1,40.67,3,1.69,1.69,0,0,1,42,3.49a1.8,1.8,0,0,1,0,2.45A1.72,1.72,0,0,1,40.67,6.45Z" transform="translate(-0.93 -2.61)"/><path class="cls-1" d="M44.55,19.2l-.07-1L46,17.79c0-.06,0-.19,0-.39s0-.47,0-.81,0-.75,0-1.23l0-1.81c0-.51,0-1-.05-1.38A8.46,8.46,0,0,0,45.89,11l-1.53-.33v-1l3.89-1,.57.4-.14,1.34.07,0a5.5,5.5,0,0,1,1.63-1.36,4,4,0,0,1,1.85-.45A3.28,3.28,0,0,1,54,9.11a3.35,3.35,0,0,1,1.28,1.44,5.12,5.12,0,0,1,.48,2.33v2.48c0,.54,0,1.05,0,1.52a4,4,0,0,0,.1.91l1.47.39-.07,1h-5.6l-.07-1L53,17.79a2.74,2.74,0,0,0,.07-.54c0-.24,0-.52,0-.84s0-.64,0-1V13.24a3.3,3.3,0,0,0-.3-1.51,2,2,0,0,0-.77-.86,2.11,2.11,0,0,0-1-.27,2.73,2.73,0,0,0-1.24.29,2.94,2.94,0,0,0-1,.87v3.53c0,.61,0,1.14,0,1.61a3.93,3.93,0,0,0,.11.89l1.48.39-.07,1Z" transform="translate(-0.93 -2.61)"/><path class="cls-1" d="M63.34,24.64a8.34,8.34,0,0,1-3.78-.71A2.11,2.11,0,0,1,58.19,22,2,2,0,0,1,59,20.55a6.72,6.72,0,0,1,2.22-1.21l1,.15a3.48,3.48,0,0,0-1,1,2.05,2.05,0,0,0-.37,1.17,1.47,1.47,0,0,0,.71,1.31,3.63,3.63,0,0,0,2,.48,4,4,0,0,0,2.27-.6,1.74,1.74,0,0,0,.9-1.5,1.15,1.15,0,0,0-.49-1,3.8,3.8,0,0,0-1.68-.43l-2.81-.24-.27-.11a3,3,0,0,1-1.75-.46,1.37,1.37,0,0,1-.65-1.19,1.82,1.82,0,0,1,.71-1.36,5.41,5.41,0,0,1,2-1.05l.35.43a2.3,2.3,0,0,0-.51.43.67.67,0,0,0-.18.43.54.54,0,0,0,.22.46,1.14,1.14,0,0,0,.62.23l3.43.33a4.8,4.8,0,0,1,2.63.91,2.46,2.46,0,0,1,.87,2,3,3,0,0,1-.76,2,5.11,5.11,0,0,1-2.07,1.43A8,8,0,0,1,63.34,24.64Zm.14-8.3a5.79,5.79,0,0,1-2.43-.48,3.71,3.71,0,0,1-1.63-1.32,3.32,3.32,0,0,1-.59-1.94,3.53,3.53,0,0,1,.62-2.06,4.26,4.26,0,0,1,1.68-1.42,5.36,5.36,0,0,1,2.4-.53,5,5,0,0,1,2.33.53,4.19,4.19,0,0,1,1.62,1.4,3.5,3.5,0,0,1,.6,2,3.36,3.36,0,0,1-.6,2,3.91,3.91,0,0,1-1.63,1.36A5.43,5.43,0,0,1,63.48,16.34Zm.17-1.24a1.47,1.47,0,0,0,1.28-.67,3,3,0,0,0,.48-1.81,3.48,3.48,0,0,0-.52-2,1.61,1.61,0,0,0-1.39-.77,1.54,1.54,0,0,0-1.31.72,3.24,3.24,0,0,0-.5,1.88,3.18,3.18,0,0,0,.54,1.93A1.68,1.68,0,0,0,63.65,15.1Zm5.79-4.46-3.1-.28-.88-1,4-.45Z" transform="translate(-0.93 -2.61)"/><path class="cls-1" d="M74.9,19.2l-.07-1.05,1.59-.36a1.76,1.76,0,0,0,0-.4c0-.21,0-.48,0-.82s0-.75,0-1.21l0-1.81c0-.49,0-1,0-1.37A8.37,8.37,0,0,0,76.35,11l-1.6-.33v-1l4.08-1,.55.4c0,.49-.08,1-.11,1.49s0,1.08,0,1.73v3c0,.59,0,1.12,0,1.6a4,4,0,0,0,.11.9l1.6.36-.07,1.05Zm3-12.75a1.78,1.78,0,0,1-1.33-.51,1.75,1.75,0,0,1,1.33-3,1.7,1.7,0,0,1,1.32.52,1.83,1.83,0,0,1,0,2.45A1.73,1.73,0,0,1,77.92,6.45Z" transform="translate(-0.93 -2.61)"/><path class="cls-1" d="M81.81,19.2l-.07-1,1.48-.39a3.34,3.34,0,0,0,0-.39c0-.2,0-.47,0-.81s0-.75,0-1.23l0-1.81c0-.51,0-1,0-1.38A10.32,10.32,0,0,0,83.15,11l-1.53-.33v-1l3.88-1,.58.4-.15,1.34.08,0a5.38,5.38,0,0,1,1.63-1.36,4,4,0,0,1,1.85-.45,3.28,3.28,0,0,1,1.77.49,3.41,3.41,0,0,1,1.28,1.44A5.12,5.12,0,0,1,93,12.88v2.48c0,.54,0,1.05,0,1.52a4.17,4.17,0,0,0,.09.91l1.48.39-.07,1h-5.6l-.07-1,1.38-.39a3.8,3.8,0,0,0,.07-.54c0-.24,0-.52,0-.84s0-.64,0-1V13.24a3.3,3.3,0,0,0-.3-1.51,2,2,0,0,0-.77-.86,2.11,2.11,0,0,0-1-.27,2.73,2.73,0,0,0-1.24.29,2.94,2.94,0,0,0-1,.87v3.53c0,.61,0,1.14,0,1.61a3.93,3.93,0,0,0,.11.89l1.48.39-.07,1Z" transform="translate(-0.93 -2.61)"/><path class="cls-1" d="M111.23,19.34l-1.15-.07-1.18-.05-.94,0h-7.34l-.07-1.1,1.5-.35a3.12,3.12,0,0,0,.07-.62c0-.34,0-.77,0-1.29s0-1.1,0-1.72V10.31c0-.65,0-1.24,0-1.75s0-.94,0-1.28a2.51,2.51,0,0,0-.07-.59l-1.5-.39.07-1.09h6.43l.08,1.14-2,.34a2.69,2.69,0,0,0-.06.53c0,.31,0,.73-.06,1.25s0,1.14,0,1.84v3.81c0,.89,0,1.63,0,2.21s0,1,0,1.16c.25,0,.52.07.79.09s.62,0,1,0H108a8.73,8.73,0,0,0,1,0l.71-.1L111,15l1.33.33Z" transform="translate(-0.93 -2.61)"/><path class="cls-1" d="M118.69,19.39a5.72,5.72,0,0,1-2.85-.68,4.89,4.89,0,0,1-1.92-1.88,5.43,5.43,0,0,1-.69-2.75,5.39,5.39,0,0,1,.77-2.92,5.25,5.25,0,0,1,2-1.89,6,6,0,0,1,2.73-.65,5.33,5.33,0,0,1,2.72.67,4.63,4.63,0,0,1,1.82,1.85,5.59,5.59,0,0,1,.66,2.75,5.73,5.73,0,0,1-.7,2.8,5.42,5.42,0,0,1-1.91,2A5.13,5.13,0,0,1,118.69,19.39Zm.24-1.38a1.67,1.67,0,0,0,1.14-.42,2.74,2.74,0,0,0,.74-1.2,6,6,0,0,0,.26-1.84,6.88,6.88,0,0,0-.71-3.33,2.16,2.16,0,0,0-1.91-1.29,1.88,1.88,0,0,0-1.65,1,4.8,4.8,0,0,0-.62,2.59,7,7,0,0,0,.36,2.32,3.93,3.93,0,0,0,1,1.6A2,2,0,0,0,118.93,18Z" transform="translate(-0.93 -2.61)"/><path class="cls-1" d="M130.13,19.3l-4.34-9.09-1.12-.38,0-1h5.6l.07,1-1.48.38,2.89,6.3h-.69l2.69-6.3-1.48-.38.07-1h4.2l0,1-1.12.38-4.46,9.09Z" transform="translate(-0.93 -2.61)"/><path class="cls-1" d="M142.29,19.39a5.26,5.26,0,0,1-2.66-.67,4.81,4.81,0,0,1-1.85-1.84,5.47,5.47,0,0,1-.67-2.71,5.68,5.68,0,0,1,.74-2.92,5.47,5.47,0,0,1,1.93-1.95,4.74,4.74,0,0,1,2.55-.68,3.93,3.93,0,0,1,3.16,1.31,5.06,5.06,0,0,1,1.09,3.36v.52h-7.06V12.62h5l-.33.5v-.71a3,3,0,0,0-.54-1.89,1.77,1.77,0,0,0-1.49-.69,2,2,0,0,0-1.14.36,2.4,2.4,0,0,0-.83,1.07,4.48,4.48,0,0,0-.32,1.79v.43a4.12,4.12,0,0,0,.92,2.81,3.09,3.09,0,0,0,2.45,1.05,3.47,3.47,0,0,0,1.46-.3,3.82,3.82,0,0,0,1.3-1l.69.62a4.69,4.69,0,0,1-1.82,2.07A4.91,4.91,0,0,1,142.29,19.39Z" transform="translate(-0.93 -2.61)"/></g></g></svg>