<svg xmlns="http://www.w3.org/2000/svg" viewBox="0 0 81.19 16.88"><defs><style>.cls-1{fill:#8a8e6d;}</style></defs><g id="Layer_2" data-name="Layer 2"><g id="Layer_1-2" data-name="Layer 1"><path class="cls-1" d="M1.17,5.21H5.89l5,10.84h-.6L14.9,5.21h4.6l.07,1.09-1.5.34a8.07,8.07,0,0,0,0,1c0,.53,0,1.21.05,2.05L18.26,14c0,.7.06,1.31.08,1.84s.05,1,.07,1.29l.06.66L20,18.1l-.08,1.1h-6l-.07-1.1,1.5-.35a4.28,4.28,0,0,0,0-.54c0-.28,0-.67,0-1.19s0-1.16,0-1.92l-.07-8.2h.93l-5.7,13.37H9.25L3.05,5.9H4.22l0,8.15q0,1.89,0,2.7c0,.54,0,.87,0,1L6,18.1l-.07,1.1H.83L.76,18.1l1.65-.35c0-.11,0-.33,0-.66s0-.73,0-1.2,0-1,0-1.55L2.6,9.76c0-.89,0-1.58,0-2.06s0-.83,0-1L1.1,6.3Z" transform="translate(-0.76 -2.61)"/><path class="cls-1" d="M25.34,19.39a3.62,3.62,0,0,1-1.85-.45,3.31,3.31,0,0,1-1.18-1.1,2.32,2.32,0,0,1-.4-1.24,2,2,0,0,1,.52-1.39,3.79,3.79,0,0,1,1.67-.92l3.72-1.14v-1a1.58,1.58,0,0,0-.34-1,2.47,2.47,0,0,0-.88-.74,2.52,2.52,0,0,0-1.19-.28.8.8,0,0,0-.63.2,1.4,1.4,0,0,0-.23.8l-.09,1.29a3.07,3.07,0,0,1-1.78-.06,1,1,0,0,1-.7-1,1.32,1.32,0,0,1,.43-.89,5.14,5.14,0,0,1,1.08-.85A10.4,10.4,0,0,1,24.86,9a5.47,5.47,0,0,1,1.31-.35,5,5,0,0,1,3.19,1,3.22,3.22,0,0,1,1.2,2.55l-.07,3.53q0,.6,0,1a2.76,2.76,0,0,0,.13.63l1.55.29v.9l-1.4.6a6.47,6.47,0,0,1-.74.25,2.85,2.85,0,0,1-.62.08,1.2,1.2,0,0,1-1.19-.9l-.36-1,.45.09a6.48,6.48,0,0,1-1.5,1.37A2.75,2.75,0,0,1,25.34,19.39Zm1-1.9a1.92,1.92,0,0,0,.78-.17,2.07,2.07,0,0,0,.68-.53V14.41l-2,.43a1.44,1.44,0,0,0-.82.4,1.12,1.12,0,0,0-.25.77,1.38,1.38,0,0,0,.46,1A1.58,1.58,0,0,0,26.36,17.49Z" transform="translate(-0.76 -2.61)"/><path class="cls-1" d="M33,19.2l-.07-1,1.48-.39a2.69,2.69,0,0,0,0-.4c0-.21,0-.48.05-.82s0-.75,0-1.21l0-1.81c0-.49,0-1,0-1.37A10.14,10.14,0,0,0,34.35,11l-1.53-.33v-1l3.84-1,.53.38-.1,1.9.07,0a4.69,4.69,0,0,1,1.41-1.81A2.55,2.55,0,0,1,40,8.69,1.72,1.72,0,0,1,41.06,9a1.23,1.23,0,0,1,.44,1A1.28,1.28,0,0,1,41,11.12a1.71,1.71,0,0,1-1.14.38,2.24,2.24,0,0,1-1-.19,3.39,3.39,0,0,1-.91-.64l.57.07a4.23,4.23,0,0,0-.74.73,5.66,5.66,0,0,0-.64,1l0,2c0,.53,0,1,.05,1.47s0,.84,0,1.17,0,.55.05.67l2.07.34-.07,1.07Z" transform="translate(-0.76 -2.61)"/><path class="cls-1" d="M42.38,19.2l-.07-1,1.48-.39a2.69,2.69,0,0,0,.05-.4c0-.21,0-.48,0-.82s0-.75,0-1.21l0-1.81c0-.49,0-1,0-1.37A8.41,8.41,0,0,0,43.72,11l-1.53-.33v-1l3.84-1,.52.38L46.46,11l.07,0a4.69,4.69,0,0,1,1.41-1.81,2.53,2.53,0,0,1,1.43-.48A1.74,1.74,0,0,1,50.43,9a1.23,1.23,0,0,1,.44,1,1.28,1.28,0,0,1-.48,1.07,1.74,1.74,0,0,1-1.14.38,2.32,2.32,0,0,1-1-.19,3.52,3.52,0,0,1-.9-.64l.57.07a4.23,4.23,0,0,0-.74.73,5.16,5.16,0,0,0-.64,1l0,2c0,.53,0,1,0,1.47s0,.84.05,1.17a5.76,5.76,0,0,0,0,.67l2.07.34-.07,1.07Z" transform="translate(-0.76 -2.61)"/><path class="cls-1" d="M51.63,19.2l-.07-1.05,1.6-.36c0-.06,0-.19.05-.4s0-.48,0-.82,0-.75,0-1.21l0-1.81c0-.49,0-1,0-1.37A8.41,8.41,0,0,0,53.09,11l-1.6-.33v-1l4.08-1,.54.4c0,.49-.08,1-.1,1.49s0,1.08,0,1.73v3c0,.59,0,1.12,0,1.6a4.2,4.2,0,0,0,.1.9l1.6.36-.07,1.05Zm3-12.75a1.8,1.8,0,0,1-1.34-.51,1.75,1.75,0,0,1,0-2.45A1.77,1.77,0,0,1,54.66,3,1.67,1.67,0,0,1,56,3.49a1.8,1.8,0,0,1,0,2.45A1.7,1.7,0,0,1,54.66,6.45Z" transform="translate(-0.76 -2.61)"/><path class="cls-1" d="M64.08,19.39a5.23,5.23,0,0,1-2.66-.67,4.74,4.74,0,0,1-1.85-1.84,5.47,5.47,0,0,1-.67-2.71,5.68,5.68,0,0,1,.74-2.92A5.47,5.47,0,0,1,61.57,9.3a4.74,4.74,0,0,1,2.55-.68,3.93,3.93,0,0,1,3.16,1.31,5.06,5.06,0,0,1,1.09,3.36v.52H61.31V12.62h5l-.33.5v-.71a3,3,0,0,0-.54-1.89,1.78,1.78,0,0,0-1.49-.69,2,2,0,0,0-1.14.36A2.49,2.49,0,0,0,62,11.26a4.67,4.67,0,0,0-.31,1.79v.43a4.12,4.12,0,0,0,.92,2.81A3.08,3.08,0,0,0,65,17.34a3.51,3.51,0,0,0,1.47-.3,3.82,3.82,0,0,0,1.3-1l.69.62a4.69,4.69,0,0,1-1.82,2.07A4.91,4.91,0,0,1,64.08,19.39Z" transform="translate(-0.76 -2.61)"/><path class="cls-1" d="M78.21,19.49l-.55-.34,0-1.52-.08,0A4,4,0,0,1,76.22,19a3.2,3.2,0,0,1-1.54.41,4.51,4.51,0,0,1-2.36-.65A4.74,4.74,0,0,1,70.62,17,5.37,5.37,0,0,1,70,14.36,5.7,5.7,0,0,1,70.46,12a5.27,5.27,0,0,1,1.3-1.8A6,6,0,0,1,73.59,9a5.49,5.49,0,0,1,2-.39,5.63,5.63,0,0,1,1.07.11,2.85,2.85,0,0,1,.91.32c0-.29,0-.63,0-1l0-1.22c0-.42,0-.79,0-1.12s0-.58,0-.74l-1.82-.29,0-1,4.19-1.1L80.4,3c0,1-.08,1.91-.12,2.78s0,1.77,0,2.73l0,5.5c0,.82,0,1.48.07,2s.09.92.12,1.19l1.55.36v1Zm-2.57-2.12a2.21,2.21,0,0,0,1-.27,2.73,2.73,0,0,0,1-.88V11a2.16,2.16,0,0,0-.9-.81,2.51,2.51,0,0,0-1-.24,2.44,2.44,0,0,0-2,1,4.16,4.16,0,0,0-.78,2.67,4.26,4.26,0,0,0,.81,2.79A2.47,2.47,0,0,0,75.64,17.37Z" transform="translate(-0.76 -2.61)"/></g></g></svg>