<svg xmlns="http://www.w3.org/2000/svg" viewBox="0 0 191.2 94.91"><defs><style>.cls-1{fill:#f2f3eb;}</style></defs><g id="Layer_2" data-name="Layer 2"><g id="Layer_1-2" data-name="Layer 1"><path class="cls-1" d="M42.09,55.45a1.92,1.92,0,0,1,1.27.44,1.62,1.62,0,0,1,.44,1.42,1.81,1.81,0,0,1-.7,1.19,2.28,2.28,0,0,1-1.45.52c-.45,0-.61.14-.49.44a2.6,2.6,0,0,0,.56.82,5.14,5.14,0,0,0,3.79,1.34A8.31,8.31,0,0,0,48,61.21,7.74,7.74,0,0,0,50.34,60a6.4,6.4,0,0,0,1.71-2,5.47,5.47,0,0,0,.67-2.75A8.45,8.45,0,0,0,52,51.66a7.06,7.06,0,0,0-2.12-2.6,9.36,9.36,0,0,0-3.27-1.56A15.13,15.13,0,0,0,42.54,47a11.45,11.45,0,0,0-4.46.89,12.57,12.57,0,0,0-6.62,6.28,11.25,11.25,0,0,0-1,4.87,11.58,11.58,0,0,0,1.12,5.16A11.92,11.92,0,0,0,34.4,68a12.24,12.24,0,0,0,3.9,2.31,12.59,12.59,0,0,0,4.31.78,14.41,14.41,0,0,0,8.66-2.9A37.62,37.62,0,0,0,58.59,61a75.87,75.87,0,0,0,6.1-9q2.75-4.76,5-8.47A25.64,25.64,0,0,1,64.05,42a18,18,0,0,1-4.46-2.64,11,11,0,0,1-2.93-3.68,10.45,10.45,0,0,1-1-4.72,12.55,12.55,0,0,1,1.71-6.43,17.82,17.82,0,0,1,4.49-5.09A22.45,22.45,0,0,1,68.1,16a21.4,21.4,0,0,1,7.06-1.22,18.12,18.12,0,0,1,5.28.81.31.31,0,0,1,.26.45q-.11.38-.78.15a10.5,10.5,0,0,0-2.23-.49c-.74-.07-1.51-.11-2.3-.11A21.32,21.32,0,0,0,62.68,20a17.17,17.17,0,0,0-4.31,4.87A11.87,11.87,0,0,0,56.73,31a9.89,9.89,0,0,0,1,4.42A11.14,11.14,0,0,0,60.52,39a15.06,15.06,0,0,0,4.24,2.49,22.07,22.07,0,0,0,5.42,1.33c.75-1.18,1.58-2.51,2.49-4s1.85-3,2.79-4.54,1.9-3.09,2.86-4.6,1.9-2.86,2.79-4.05a32,32,0,0,1,7.77-8,12.51,12.51,0,0,1,6.72-2.34A5.68,5.68,0,0,1,100.13,17c1,1.14,1.37,2.82,1.12,5a18.06,18.06,0,0,1-2.6,7.51,28.14,28.14,0,0,1-5.76,6.76,32.63,32.63,0,0,1-8.1,5.09,29.89,29.89,0,0,1-9.55,2.49q-3.8,6.54-7.4,11.7a54.14,54.14,0,0,1-7.47,8.77,29,29,0,0,1-8.17,5.5,23.28,23.28,0,0,1-9.51,1.9A14.45,14.45,0,0,1,37.93,71a12.86,12.86,0,0,1-7.36-6.43,11.59,11.59,0,0,1-1.19-5.31,12.32,12.32,0,0,1,1.27-5.69,13.71,13.71,0,0,1,3.16-4.16A13.47,13.47,0,0,1,38,46.86,12.51,12.51,0,0,1,42.31,46a16.9,16.9,0,0,1,4.43.56,10.74,10.74,0,0,1,3.56,1.67,7.65,7.65,0,0,1,2.38,2.82,8.89,8.89,0,0,1,.86,4A7.11,7.11,0,0,1,51,60.69a7.87,7.87,0,0,1-2.49,1.41,8.2,8.2,0,0,1-2.71.48,7,7,0,0,1-3.42-.85,4.55,4.55,0,0,1-2.16-2.57,2.81,2.81,0,0,1,.08-2.6A2,2,0,0,1,42.09,55.45ZM87.5,24.61Q83.27,31,80.66,35.31T76,42.89a26,26,0,0,0,8.62-2.42,31.82,31.82,0,0,0,7.47-4.86,27.74,27.74,0,0,0,5.46-6.43,18.86,18.86,0,0,0,2.68-7.1A5.72,5.72,0,0,0,99.58,18a3.14,3.14,0,0,0-2.72-1.49,7.12,7.12,0,0,0-4,1.75A26.65,26.65,0,0,0,87.5,24.61Z"/><path class="cls-1" d="M77.62,71.13a3.64,3.64,0,0,1-2.6-1,4.68,4.68,0,0,1-1.38-2.63,8.92,8.92,0,0,1,.19-3.83,16.32,16.32,0,0,1,2-4.61l8.4-13.53H80.89l.59-1h1.26A3.64,3.64,0,0,0,86,42.67L90.77,35a16.06,16.06,0,0,0,5.28-1L89.58,44.6h5l-.59,1H89l-11.6,19c-1,1.68-1.33,3-1,4S77.19,70,78,70q1.71,0,3.94-2.11T88,61.62c.69-.79,1.35-1.53,2-2.2s1.15-1.27,1.6-1.82,1-1.16,1.48-1.71h1.42l-5.84,6.77a60.78,60.78,0,0,1-4.46,4.75,21,21,0,0,1-3.53,2.79A5.92,5.92,0,0,1,77.62,71.13Z"/><path class="cls-1" d="M105.78,47.05a6.07,6.07,0,0,1,3.12.78A5.82,5.82,0,0,1,111,50a8,8,0,0,1,1,3.16,10.28,10.28,0,0,1-.29,3.82,3.62,3.62,0,0,0,1.07.56,5.22,5.22,0,0,0,1.83.26,4.17,4.17,0,0,0,1.85-.52,4.3,4.3,0,0,0,1.64-1.34h1.48a7.35,7.35,0,0,1-2.93,2.42,7.64,7.64,0,0,1-2.71.56,7.87,7.87,0,0,1-1.45-.26,5.78,5.78,0,0,1-1.16-.49,19.82,19.82,0,0,1-2.15,4.35,25.92,25.92,0,0,1-3.42,4.31,21.15,21.15,0,0,1-4.12,3.31,8.47,8.47,0,0,1-4.42,1.34A6.72,6.72,0,0,1,93,70.05a7.59,7.59,0,0,1-2.56-3.6,10.62,10.62,0,0,1-.38-5.06,13.58,13.58,0,0,1,2.42-5.72,23.68,23.68,0,0,1,6.21-6.35A12.52,12.52,0,0,1,105.78,47.05Zm.74,1a7.32,7.32,0,0,0-4.75,2,24.07,24.07,0,0,0-4.68,5.83,18.42,18.42,0,0,0-2.2,5.28,12.45,12.45,0,0,0-.26,4.46,5.93,5.93,0,0,0,1.31,3.08,3,3,0,0,0,2.33,1.16,6.67,6.67,0,0,0,3.76-1.3,20,20,0,0,0,3.57-3.2,23.26,23.26,0,0,0,2.89-4.09,20.36,20.36,0,0,0,1.75-3.9.48.48,0,0,0-.15-.11.48.48,0,0,1-.15-.11,4.3,4.3,0,0,1-1.37-2,5,5,0,0,1-.22-2.08,3.15,3.15,0,0,1,.63-1.67,1.69,1.69,0,0,1,1.11-.75,5,5,0,0,0-1.56-2A3.34,3.34,0,0,0,106.52,48Z"/><path class="cls-1" d="M145,55.89c-2.68,2.68-4.83,4-6.47,4a4.05,4.05,0,0,1-2.26-.6,3.9,3.9,0,0,1-1.42-1.52,5,5,0,0,1-.55-2.08,5.34,5.34,0,0,1,.29-2.19,78.74,78.74,0,0,0-6.8,8.51q-3.22,4.64-6,9.1H117l10.63-17.46a14.08,14.08,0,0,0,1.78-4c.2-1,0-1.48-.74-1.48s-1.91.66-3.34,2S122,53.44,119.6,56h-1.41a79.24,79.24,0,0,1,6.54-6.73q2.53-2.19,4.54-2.19a2.68,2.68,0,0,1,2.75,2.3q.58,2.31-1.42,7c1.24-1.49,2.64-3.07,4.2-4.76a40.78,40.78,0,0,1,4.5-4.23h3.49A18.54,18.54,0,0,0,139,51.51a11.87,11.87,0,0,0-1.64,3.68,4.09,4.09,0,0,0,.15,2.6,1.65,1.65,0,0,0,1.6,1,3.09,3.09,0,0,0,1.9-.81c.66-.55,1.42-1.24,2.26-2.09Z"/><path class="cls-1" d="M130.6,94.91a5.73,5.73,0,0,1-4.31-1.6,5.18,5.18,0,0,1-1.56-3.75,7.14,7.14,0,0,1,1.34-4.2,15.44,15.44,0,0,1,3.75-3.6,36.32,36.32,0,0,1,5.8-3.27c2.25-1,4.77-2.08,7.54-3.12a32.48,32.48,0,0,0,4.61-2L154.61,62a72.75,72.75,0,0,1-6.69,6.91,7.74,7.74,0,0,1-4.9,2.23,3.67,3.67,0,0,1-2.61-1A4.73,4.73,0,0,1,139,67.53a9.06,9.06,0,0,1,.18-3.83,16.66,16.66,0,0,1,2-4.61l7.51-12h4.68L142.79,64.52c-1,1.68-1.34,3-1,4s.84,1.48,1.64,1.48q1.71,0,3.94-2.11t6.09-6.28c1-1.09,1.88-2.08,2.68-3l1.78-2,5.72-9.59h4.68l-13.45,22.3a57.7,57.7,0,0,0,6.84-5.65,56.07,56.07,0,0,0,6.69-7.81h1.41a55.62,55.62,0,0,1-8.18,9.59,53.34,53.34,0,0,1-8.17,6.24L150.22,77c-1.09,1.88-2.31,3.87-3.67,6a46.1,46.1,0,0,1-4.5,5.79,24.72,24.72,0,0,1-5.32,4.43A11.57,11.57,0,0,1,130.6,94.91Zm16.13-19.69A22.6,22.6,0,0,1,144,76.33c-2.72,1-5.19,2.06-7.39,3A36.76,36.76,0,0,0,131,82.43a14,14,0,0,0-3.57,3.3,6.33,6.33,0,0,0-1.27,3.76,4.08,4.08,0,0,0,.45,2,4.33,4.33,0,0,0,1.11,1.34,4.08,4.08,0,0,0,1.45.74,5.31,5.31,0,0,0,1.45.23,6,6,0,0,0,3.83-1.56,24.59,24.59,0,0,0,3.75-4q1.86-2.42,3.72-5.35l3.64-5.76Z"/><path class="cls-1" d="M13.08,27a13.39,13.39,0,0,1-6.79-1.69,12.09,12.09,0,0,1-4.62-4.76,14.32,14.32,0,0,1-1.67-7,14,14,0,0,1,1.72-7A12.75,12.75,0,0,1,6.43,1.76,13.13,13.13,0,0,1,13.21,0a12.4,12.4,0,0,1,6.52,1.7A11.66,11.66,0,0,1,24.1,6.4a14.91,14.91,0,0,1,1.56,6.94,14.64,14.64,0,0,1-1,5.34A13.92,13.92,0,0,1,22.05,23a12,12,0,0,1-4,2.92A11.81,11.81,0,0,1,13.08,27Zm.44-2.14a7.51,7.51,0,0,0,4.4-1.29,8.7,8.7,0,0,0,2.9-3.66,13.44,13.44,0,0,0,1.05-5.49,16.77,16.77,0,0,0-1.16-6.48A10.55,10.55,0,0,0,17.5,3.59,7.71,7.71,0,0,0,12.68,2a7.78,7.78,0,0,0-6.37,2.9Q4,7.81,4,12.85A15,15,0,0,0,5.2,19.06a10.35,10.35,0,0,0,3.39,4.26A8.27,8.27,0,0,0,13.52,24.86Z"/><path class="cls-1" d="M30.22.4H39L39.14,2l-2.72.63c0,.06,0,.27,0,.62s-.06,1-.07,1.88,0,2.21,0,4v7.5a10.15,10.15,0,0,0,1,4.6,5.48,5.48,0,0,0,2.49,2.5,8.34,8.34,0,0,0,3.6.75,7,7,0,0,0,3.43-.8A5.55,5.55,0,0,0,49.1,21a11.51,11.51,0,0,0,.84-4.8V9.86c0-1.25,0-2.38,0-3.39S49.84,4.62,49.81,4a9.68,9.68,0,0,0-.13-1.36L46.55,2,46.69.4H55L55.12,2l-2.68.63c0,.09,0,.33,0,.74s0,1.1-.07,2.12,0,2.48,0,4.41v6.39a13.45,13.45,0,0,1-1.23,6.2,7.75,7.75,0,0,1-3.35,3.46A10.09,10.09,0,0,1,43,27a10,10,0,0,1-7.34-2.63A9.86,9.86,0,0,1,33,17.05v-8c0-1.73,0-3-.05-3.93s0-1.51-.06-1.87a3.64,3.64,0,0,0-.07-.67L30.13,2Z"/><path class="cls-1" d="M59.72,26.6,59.63,25l2.72-.67c0-.21,0-.51,0-.92s0-.89,0-1.47,0-1.21,0-1.9,0-1.38,0-2.09V9.06c0-1.4,0-2.56,0-3.48s0-1.63-.05-2.12a2.82,2.82,0,0,0-.11-.92L59.58,2,59.67.4h9.24A10,10,0,0,1,75,2a5.59,5.59,0,0,1,2.14,4.71A6.75,6.75,0,0,1,76,10.64a8,8,0,0,1-3.28,2.7,11.19,11.19,0,0,1-4.82,1H65V12.45h2.77a6.61,6.61,0,0,0,4.51-1.38,4.92,4.92,0,0,0,1.56-3.88,4.78,4.78,0,0,0-1.36-3.71,5.73,5.73,0,0,0-4-1.25H65.65a.7.7,0,0,0-.06.25,4.45,4.45,0,0,0,0,.67V18q0,2.15,0,3.39t.06,1.92c0,.44.06.8.09,1.07l2.68.67-.09,1.56Zm20.57.4a7,7,0,0,1-3.19-.71,8.85,8.85,0,0,1-2.79-2.46,43.9,43.9,0,0,1-3.17-4.73l-3.21-5.53,2.9-.67,4.69,7A25.92,25.92,0,0,0,77.88,23a8.4,8.4,0,0,0,2,1.65,7.37,7.37,0,0,0,2.14.76l0,1.43a4.65,4.65,0,0,1-.83.11Z"/><path class="cls-1" d="M110.91,26.78l-1.12-.09-1.25-.07-1.2,0H92.79L92.7,25l2.72-.58a9.09,9.09,0,0,0,.09-1c0-.49,0-1.19.07-2.1s0-2,0-3.41V5.62c0-.89,0-1.59,0-2.09a3.16,3.16,0,0,0-.14-.94L92.7,2,92.79.4h9.86l.09,1.65L99,2.59a2.27,2.27,0,0,0-.14.82c0,.47-.05,1.15-.06,2.06s0,2.1,0,3.59V18c0,1.48,0,2.82,0,4s0,1.91.06,2.21l1.21.09c.41,0,.88,0,1.38,0h3.89c.65,0,1.21,0,1.69,0s1-.07,1.47-.13l2.28-4.24,1.83.4Z"/><path class="cls-1" d="M128,27a13.33,13.33,0,0,1-6.78-1.69,12.09,12.09,0,0,1-4.62-4.76,14.21,14.21,0,0,1-1.67-7,14,14,0,0,1,1.72-7,12.79,12.79,0,0,1,4.7-4.82A13.19,13.19,0,0,1,128.14,0a12.34,12.34,0,0,1,6.51,1.7A11.62,11.62,0,0,1,139,6.4a14.91,14.91,0,0,1,1.56,6.94,14.64,14.64,0,0,1-1,5.34A14.11,14.11,0,0,1,137,23,12.25,12.25,0,0,1,133,26,11.83,11.83,0,0,1,128,27Zm.45-2.14a7.51,7.51,0,0,0,4.4-1.29,8.7,8.7,0,0,0,2.9-3.66,13.44,13.44,0,0,0,1.05-5.49,16.77,16.77,0,0,0-1.16-6.48,10.57,10.57,0,0,0-3.22-4.35,8.31,8.31,0,0,0-11.18,1.32q-2.34,2.89-2.34,7.94a15,15,0,0,0,1.23,6.21,10.19,10.19,0,0,0,3.39,4.26A8.25,8.25,0,0,0,128.45,24.86Z"/><path class="cls-1" d="M154.29,26.73,144.7,2.54,142.46,2,142.55.4h8.57L151.21,2l-2.72.58,7.77,20h-.63l7.32-20L159.83,2,159.92.4h7.94L168,2l-2.23.58L156,26.73Z"/><path class="cls-1" d="M189.42,26.82c-.9-.12-1.6-.18-2.1-.2l-1.52,0H170.49L170.4,25l2.68-.58a3.42,3.42,0,0,0,.11-1c0-.51,0-1.22.05-2.15s0-2,0-3.34V9.06c0-1.34,0-2.48,0-3.41s0-1.66-.05-2.17a2.93,2.93,0,0,0-.11-.94L170.4,2,170.49.4h15.58c.36,0,.75,0,1.18,0l1.59-.14.8,5.72-1.87.26-1.43-3.66a3,3,0,0,0-.72-.11l-.93,0h-5.54l-1.45,0c-.4,0-.81,0-1.23.11,0,.12,0,.46,0,1s0,1.18,0,1.9,0,1.38,0,2V20.26c0,.51,0,1,0,1.61s0,1.08,0,1.54,0,.77,0,.91l1.21.09c.42,0,.86.05,1.34.05h4.86l1.59,0c.43,0,.77,0,1-.07a4.67,4.67,0,0,0,.56-.09l2.32-4.15,1.83.36Zm-4.73-9.41-.58-3.08a2.74,2.74,0,0,0-.72-.14c-.33,0-.73,0-1.2,0h-3.66c-.36,0-.77,0-1.23,0l-1.5.09V12l1.5.06,1.23,0h3.66c.47,0,.87,0,1.2,0s.57-.06.72-.09l.58-3.12h1.74v8.57Z"/></g></g></svg>