<svg xmlns="http://www.w3.org/2000/svg" viewBox="0 0 138.39 18.57"><defs><style>.cls-1{fill:#b69991;}</style></defs><g id="Layer_2" data-name="Layer 2"><g id="Layer_1-2" data-name="Layer 1"><path class="cls-1" d="M6.37,17.25a4.84,4.84,0,0,1-2.74-.8,5.2,5.2,0,0,1-1.85-2.22,7.82,7.82,0,0,1-.66-3.31,7.8,7.8,0,0,1,.69-3.37A5.64,5.64,0,0,1,3.7,5.26a4.65,4.65,0,0,1,2.72-.82A4.45,4.45,0,0,1,9,5.22a5.13,5.13,0,0,1,1.77,2.2,8.11,8.11,0,0,1,.63,3.31,8.1,8.1,0,0,1-.66,3.32,5.9,5.9,0,0,1-1.81,2.34A4.21,4.21,0,0,1,6.37,17.25ZM6.52,16a1.89,1.89,0,0,0,1.36-.55,3.67,3.67,0,0,0,.89-1.62,9.3,9.3,0,0,0,.31-2.6,9.14,9.14,0,0,0-.79-4.16A2.35,2.35,0,0,0,6.23,5.56a2.19,2.19,0,0,0-2,1.27,7.37,7.37,0,0,0-.73,3.64,9.8,9.8,0,0,0,.38,2.92A4.49,4.49,0,0,0,5,15.33,2.12,2.12,0,0,0,6.52,16Z" transform="translate(-1.12 -2.78)"/><path class="cls-1" d="M17.49,12.72c0,.63,0,1.18,0,1.63s0,.8.06,1.06a1.63,1.63,0,0,0,.07.46l1.71.32-.06.87H13.68l-.06-.87,1.71-.32a3.89,3.89,0,0,0,0-.56c0-.29,0-.66.05-1.1s0-.94,0-1.49V9.2c0-.44,0-.88,0-1.33s-.05-.82-.08-1.1l-1.88.4-.07-1,4.24-1.74q0,.72-.09,1.8c0,.72,0,1.59,0,2.61Z" transform="translate(-1.12 -2.78)"/><path class="cls-1" d="M28.63,5.81a1.56,1.56,0,0,0-.07.46c0,.26,0,.62,0,1.07s0,1,0,1.65l0,7.81a6.09,6.09,0,0,1-.44,2.45,3.59,3.59,0,0,1-1.24,1.57,3.34,3.34,0,0,1-1.92.54,3.45,3.45,0,0,1-1.82-.47,1.34,1.34,0,0,1-.76-1.12.86.86,0,0,1,.24-.64.94.94,0,0,1,.65-.23,1.42,1.42,0,0,1,.61.13,1.93,1.93,0,0,1,.62.44l1.21,1.23-.87-.32a1.25,1.25,0,0,0,.93-.15,1.35,1.35,0,0,0,.49-.86,8.19,8.19,0,0,0,.14-1.76V9c0-.59,0-1.11,0-1.55s0-.79,0-1.08a2,2,0,0,0-.06-.53L24.8,5.52l.06-.89h5l.06.89Z" transform="translate(-1.12 -2.78)"/><path class="cls-1" d="M34.73,17.23a3.31,3.31,0,0,1-1.57-.37,2.94,2.94,0,0,1-1-.92,2,2,0,0,1-.36-1.11,1.66,1.66,0,0,1,.47-1.2,3.39,3.39,0,0,1,1.5-.81L37,11.76v-1a1.52,1.52,0,0,0-.31-.92,2.26,2.26,0,0,0-.82-.67A2.46,2.46,0,0,0,34.75,9a.84.84,0,0,0-.66.2,1.51,1.51,0,0,0-.21.79l-.06,1a2.34,2.34,0,0,1-1.43-.05.85.85,0,0,1-.58-.82,1.08,1.08,0,0,1,.35-.74,4.49,4.49,0,0,1,.89-.72,6.52,6.52,0,0,1,1.15-.58,5.27,5.27,0,0,1,1.16-.33A4,4,0,0,1,38,8.56a2.81,2.81,0,0,1,1,2.21l0,3.37q0,.43,0,.81a2.71,2.71,0,0,0,.09.56l1.38.26v.74L39.35,17a4.68,4.68,0,0,1-.6.2,1.84,1.84,0,0,1-.48.08,1,1,0,0,1-1-.77L37,15.58l.36,0a5.94,5.94,0,0,1-1.34,1.19A2.42,2.42,0,0,1,34.73,17.23Zm.74-1.46a1.92,1.92,0,0,0,.81-.19A2.52,2.52,0,0,0,37,15V12.82l-2.08.51a1.44,1.44,0,0,0-.73.39,1,1,0,0,0-.22.69,1.26,1.26,0,0,0,.44.94A1.5,1.5,0,0,0,35.47,15.77Z" transform="translate(-1.12 -2.78)"/><path class="cls-1" d="M41.4,17.06l-.06-.83,1.31-.34a3.72,3.72,0,0,0,0-.37c0-.17,0-.41,0-.71s0-.67,0-1.12l0-1.63c0-.45,0-.89-.06-1.3s-.08-.78-.13-1.07l-1.36-.3V8.61l3.13-.85.43.36-.11,1.14.07,0A4.73,4.73,0,0,1,46.2,8.1a3.52,3.52,0,0,1,1.6-.38,3,3,0,0,1,1.52.41,3,3,0,0,1,1.13,1.24,4.38,4.38,0,0,1,.44,2.05v2.29c0,.5,0,.95,0,1.37a3.53,3.53,0,0,0,.08.81l1.32.34-.07.83H47.65l0-.83,1.23-.34c0-.11,0-.26.05-.45s0-.42,0-.69,0-.58,0-.93V11.7a3,3,0,0,0-.3-1.43,1.89,1.89,0,0,0-.75-.78,2.05,2.05,0,0,0-1-.25,2.54,2.54,0,0,0-1.22.31,2.84,2.84,0,0,0-1,.86v3.15c0,.61,0,1.12,0,1.53a3.85,3.85,0,0,0,.09.8l1.31.34-.06.83Z" transform="translate(-1.12 -2.78)"/><path class="cls-1" d="M62.66,15.43l1.36.34v.76l-3,.76L60.61,17l0-1.38-.07,0a3.71,3.71,0,0,1-1.28,1.26,3,3,0,0,1-1.4.35,3.39,3.39,0,0,1-2.42-.9,3.56,3.56,0,0,1-1-2.7V11.81c0-.34,0-.69,0-1s0-.71-.08-1.08L53,9.39V8.61l3.2-.85.44.36c0,.42-.05.9-.07,1.43s0,1.08,0,1.64l0,2.16a2.39,2.39,0,0,0,.57,1.78,2.06,2.06,0,0,0,1.5.55,2.3,2.3,0,0,0,1.06-.28,2.4,2.4,0,0,0,1-1V12.1c0-.31,0-.61,0-.9s0-.56,0-.82a6.34,6.34,0,0,0-.06-.69l-1.55-.3V8.61l3.26-.85.41.32c0,.35,0,.68,0,1s0,.64,0,1V12.7c0,.63,0,1.18,0,1.65S62.63,15.17,62.66,15.43Z" transform="translate(-1.12 -2.78)"/><path class="cls-1" d="M68.51,17.23a3.28,3.28,0,0,1-1.57-.37,2.94,2.94,0,0,1-1-.92,2,2,0,0,1-.36-1.11,1.66,1.66,0,0,1,.47-1.2,3.39,3.39,0,0,1,1.5-.81l3.26-1.06v-1a1.46,1.46,0,0,0-.31-.92,2.15,2.15,0,0,0-.81-.67A2.46,2.46,0,0,0,68.53,9a.81.81,0,0,0-.66.2,1.51,1.51,0,0,0-.21.79l-.06,1a2.34,2.34,0,0,1-1.43-.05.86.86,0,0,1-.59-.82,1.13,1.13,0,0,1,.35-.74,4.8,4.8,0,0,1,.89-.72A6.61,6.61,0,0,1,68,8.05a5.12,5.12,0,0,1,1.16-.33,4,4,0,0,1,2.66.84,2.81,2.81,0,0,1,1,2.21l0,3.37q0,.43,0,.81a3.41,3.41,0,0,0,.1.56l1.38.26v.74L73.12,17a4.57,4.57,0,0,1-.59.2,1.91,1.91,0,0,1-.49.08,1,1,0,0,1-1-.77l-.28-.88.36,0a5.91,5.91,0,0,1-1.33,1.19A2.45,2.45,0,0,1,68.51,17.23Zm.74-1.46a1.85,1.85,0,0,0,.8-.19,2.28,2.28,0,0,0,.72-.58V12.82l-2.07.51a1.4,1.4,0,0,0-.73.39,1,1,0,0,0-.23.69,1.24,1.24,0,0,0,.45.94A1.48,1.48,0,0,0,69.25,15.77Z" transform="translate(-1.12 -2.78)"/><path class="cls-1" d="M75.2,17.06l-.07-.83,1.32-.34a2.6,2.6,0,0,0,0-.36c0-.18,0-.43,0-.74s0-.68,0-1.1l0-1.63c0-.47,0-.9,0-1.31a8.34,8.34,0,0,0-.14-1.06L75,9.39V8.61l3.11-.85.38.32-.08,1.74.06,0a4.14,4.14,0,0,1,1.26-1.63A2.25,2.25,0,0,1,81,7.78a1.41,1.41,0,0,1,.87.27.94.94,0,0,1,.36.81,1,1,0,0,1-.38.85,1.5,1.5,0,0,1-1,.3,1.86,1.86,0,0,1-.79-.17,3.19,3.19,0,0,1-.72-.51l.43.1a3.43,3.43,0,0,0-.7.68,4.85,4.85,0,0,0-.62,1l0,1.86c0,.41,0,.81,0,1.2s0,.73,0,1,0,.51,0,.65l1.84.3-.06.87Z" transform="translate(-1.12 -2.78)"/><path class="cls-1" d="M83.1,17.06,83,16.21l1.42-.32a1.41,1.41,0,0,0,0-.33c0-.16,0-.39.05-.69s0-.7,0-1.18v-1.5c0-.51,0-1,0-1.41a10.93,10.93,0,0,0-.13-1.09L83,9.39V8.61l3.3-.85.41.34c-.05.44-.08.87-.1,1.3s0,.93,0,1.5v2.66q0,.9,0,1.53a7.3,7.3,0,0,0,.07.8l1.42.32,0,.85ZM85.57,5.58a1.42,1.42,0,0,1-1-.41,1.35,1.35,0,0,1-.42-1,1.32,1.32,0,0,1,.42-1,1.39,1.39,0,0,1,1-.42,1.33,1.33,0,0,1,1,.42,1.37,1.37,0,0,1,.39,1,1.41,1.41,0,0,1-.39,1A1.36,1.36,0,0,1,85.57,5.58Z" transform="translate(-1.12 -2.78)"/><path class="cls-1" d="M93.6,17.1l-.06-.87a32,32,0,0,0,3.12-3,10.18,10.18,0,0,0,1.69-2.44,5.16,5.16,0,0,0,.52-2.2,2.62,2.62,0,0,0-.62-1.81,2.22,2.22,0,0,0-1.73-.69,3.09,3.09,0,0,0-2.73,1.65l-.7-.49a4.63,4.63,0,0,1,1.64-2.1,4.3,4.3,0,0,1,2.49-.75,4.4,4.4,0,0,1,2.06.46,3.42,3.42,0,0,1,1.38,1.31,3.75,3.75,0,0,1,.5,2,6.06,6.06,0,0,1-1.43,3.62,17.68,17.68,0,0,1-4.18,3.77l0-.29h4.19l.51,0,.4-.07.68-1.67,1,.11-.57,3.53c-.23,0-.48,0-.76-.05l-.82,0H94.39Z" transform="translate(-1.12 -2.78)"/><path class="cls-1" d="M109.44,17.25a4.82,4.82,0,0,1-2.74-.8,5.13,5.13,0,0,1-1.85-2.22,7.82,7.82,0,0,1-.66-3.31,7.8,7.8,0,0,1,.69-3.37,5.62,5.62,0,0,1,1.88-2.29,4.69,4.69,0,0,1,2.72-.82,4.48,4.48,0,0,1,2.6.78,5.28,5.28,0,0,1,1.77,2.2,8.11,8.11,0,0,1,.63,3.31,7.94,7.94,0,0,1-.67,3.32A5.72,5.72,0,0,1,112,16.39,4.16,4.16,0,0,1,109.44,17.25Zm.15-1.23a1.87,1.87,0,0,0,1.35-.55,3.67,3.67,0,0,0,.89-1.62,9.27,9.27,0,0,0,.32-2.6,9.14,9.14,0,0,0-.79-4.16,2.36,2.36,0,0,0-2.07-1.53,2.21,2.21,0,0,0-2,1.27,7.37,7.37,0,0,0-.73,3.64,10.14,10.14,0,0,0,.38,2.92A4.7,4.7,0,0,0,108,15.33,2.14,2.14,0,0,0,109.59,16Z" transform="translate(-1.12 -2.78)"/><path class="cls-1" d="M122,17.25a4.88,4.88,0,0,1-2.75-.8,5.27,5.27,0,0,1-1.85-2.22,7.82,7.82,0,0,1-.66-3.31,7.8,7.8,0,0,1,.69-3.37,5.64,5.64,0,0,1,1.89-2.29A4.65,4.65,0,0,1,122,4.44a4.45,4.45,0,0,1,2.59.78,5.13,5.13,0,0,1,1.77,2.2,8.11,8.11,0,0,1,.64,3.31,8.1,8.1,0,0,1-.67,3.32,5.9,5.9,0,0,1-1.81,2.34A4.18,4.18,0,0,1,122,17.25ZM122.1,16a1.87,1.87,0,0,0,1.36-.55,3.67,3.67,0,0,0,.89-1.62,9.27,9.27,0,0,0,.32-2.6,9.13,9.13,0,0,0-.8-4.16,2.35,2.35,0,0,0-2.06-1.53,2.19,2.19,0,0,0-2,1.27,7.37,7.37,0,0,0-.73,3.64,9.8,9.8,0,0,0,.38,2.92,4.49,4.49,0,0,0,1.06,1.94A2.12,2.12,0,0,0,122.1,16Z" transform="translate(-1.12 -2.78)"/><path class="cls-1" d="M134.47,17.25a4.82,4.82,0,0,1-2.74-.8,5.13,5.13,0,0,1-1.85-2.22,7.82,7.82,0,0,1-.66-3.31,7.8,7.8,0,0,1,.69-3.37,5.62,5.62,0,0,1,1.88-2.29,4.69,4.69,0,0,1,2.72-.82,4.48,4.48,0,0,1,2.6.78,5.28,5.28,0,0,1,1.77,2.2,8.11,8.11,0,0,1,.63,3.31,7.94,7.94,0,0,1-.67,3.32A5.72,5.72,0,0,1,137,16.39,4.16,4.16,0,0,1,134.47,17.25Zm.15-1.23a1.87,1.87,0,0,0,1.35-.55,3.67,3.67,0,0,0,.89-1.62,9.27,9.27,0,0,0,.32-2.6,9.14,9.14,0,0,0-.79-4.16,2.36,2.36,0,0,0-2.07-1.53,2.21,2.21,0,0,0-2,1.27,7.37,7.37,0,0,0-.73,3.64,10.14,10.14,0,0,0,.38,2.92,4.7,4.7,0,0,0,1.06,1.94A2.14,2.14,0,0,0,134.62,16Z" transform="translate(-1.12 -2.78)"/></g></g></svg>