<svg xmlns="http://www.w3.org/2000/svg" viewBox="0 0 204.83 17.11"><defs><style>.cls-1{fill:#b69991;}</style></defs><g id="Layer_2" data-name="Layer 2"><g id="Layer_1-2" data-name="Layer 1"><path class="cls-1" d="M6.79,11.54c0,.79,0,1.33,0,1.63s0,.51,0,.63L7.92,14l0,.6H4.23L4.18,14l1.43-.23a4.92,4.92,0,0,0,0-.63V5.35l.42,0-4.2,5.52,0-.38H8.43v1H.89L.78,11,6.34,3.9h.49c0,.43,0,.86,0,1.29s0,.85,0,1.29Z" transform="translate(-0.78 -1.52)"/><path class="cls-1" d="M16.29,4.84s0,.15,0,.35,0,.47,0,.84,0,.86,0,1.48l0,6.78a6.47,6.47,0,0,1-.33,2.21,2.91,2.91,0,0,1-1,1.37,2.67,2.67,0,0,1-2.84.08,1,1,0,0,1-.58-.87.55.55,0,0,1,.17-.41.69.69,0,0,1,.48-.17,1,1,0,0,1,.43.11,1.71,1.71,0,0,1,.43.33l.85.87-.53-.18a1.12,1.12,0,0,0,.88-.16,1.39,1.39,0,0,0,.52-.81,5.53,5.53,0,0,0,.17-1.5V7.51c0-.54,0-1,0-1.37s0-.66,0-.87a1.4,1.4,0,0,0-.05-.41L13.62,4.6l0-.63h3.71l0,.63Z" transform="translate(-0.78 -1.52)"/><path class="cls-1" d="M18.29,14.63l0-.63.89-.24,3.74-9.54.92-.58L27.7,13.76l.91.24-.05.63H25.21l0-.63,1.11-.24L25.2,11l-.2-.54L23,5.31,23.34,5l-2,5.47-.2.54-1,2.78,1.1.24,0,.63Zm2.45-3.43v-.89l1,0c.42,0,.93,0,1.54,0s1.12,0,1.55,0l1,0v.89l-1.35,0H22.15Z" transform="translate(-0.78 -1.52)"/><path class="cls-1" d="M37.78,12.27V7.82c0-.75,0-1.34,0-1.75s0-.72,0-.91a1.51,1.51,0,0,0,0-.32L36.48,4.6l0-.63h3.34l.06.63-1.11.24s0,.13,0,.32,0,.49,0,.92,0,1,0,1.74v5.66c0,.39,0,.8,0,1.22H38L31.48,5.55h.24v5.23c0,.74,0,1.32,0,1.74s0,.73.06.91,0,.29,0,.33l1.23.24-.05.63H29.63L29.57,14l1.11-.24a1.79,1.79,0,0,0,0-.32q0-.26,0-.9c0-.42,0-1,0-1.76V7.47c0-.6,0-1.08,0-1.43s0-.62,0-.8a2.29,2.29,0,0,0-.06-.4L29.57,4.6,29.63,4H32l6,8.3Z" transform="translate(-0.78 -1.52)"/><path class="cls-1" d="M41.71,4h3.58l.05.63-1.11.26a1.76,1.76,0,0,1,0,.25c0,.15,0,.4,0,.77s0,.9,0,1.61v3a4.17,4.17,0,0,0,.39,1.88,2.21,2.21,0,0,0,1,1,3.26,3.26,0,0,0,1.46.31,3,3,0,0,0,1.4-.32,2.26,2.26,0,0,0,.94-1.07,4.63,4.63,0,0,0,.35-1.95V7.82c0-.51,0-1,0-1.38s0-.75,0-1a3.81,3.81,0,0,0,0-.55L48.36,4.6l0-.63h3.38l.05.63-1.09.26s0,.14,0,.3a8.2,8.2,0,0,0,0,.86c0,.41,0,1,0,1.8v2.6a5.51,5.51,0,0,1-.5,2.52,3.2,3.2,0,0,1-1.36,1.41,4.11,4.11,0,0,1-1.92.44,4,4,0,0,1-3-1.07,4,4,0,0,1-1.08-3V7.49c0-.7,0-1.23,0-1.6s0-.61,0-.76a2.06,2.06,0,0,0,0-.27L41.67,4.6Z" transform="translate(-0.78 -1.52)"/><path class="cls-1" d="M52.53,14.63l0-.63.89-.24,3.74-9.54.93-.58,3.88,10.12.91.24-.05.63H59.45l0-.63,1.11-.24L59.44,11l-.2-.54-2-5.11L57.58,5l-2,5.47-.2.54-1,2.78,1.1.24,0,.63ZM55,11.2v-.89l1,0c.42,0,.94,0,1.54,0s1.12,0,1.55,0l1,0v.89l-1.36,0H56.39Z" transform="translate(-0.78 -1.52)"/><path class="cls-1" d="M63.91,14.63l0-.63L65,13.72c0-.08,0-.21,0-.37s0-.36,0-.6V12c0-.28,0-.56,0-.85V7.49c0-.57,0-1,0-1.41s0-.67,0-.87a1.42,1.42,0,0,0,0-.37L63.85,4.6l0-.63h3.76a4.08,4.08,0,0,1,2.49.66A2.26,2.26,0,0,1,71,6.55a2.76,2.76,0,0,1-.48,1.59,3.33,3.33,0,0,1-1.34,1.1,4.67,4.67,0,0,1-2,.4H66.05V8.87h1.13A2.66,2.66,0,0,0,69,8.31a2,2,0,0,0,.64-1.58,2,2,0,0,0-.56-1.51,2.31,2.31,0,0,0-1.62-.51H66.32l0,.1v7.7q0,.51,0,.78c0,.18,0,.32,0,.43l1.09.28,0,.63Zm8.37.16A2.74,2.74,0,0,1,71,14.5a3.48,3.48,0,0,1-1.13-1,17.74,17.74,0,0,1-1.29-1.93L67.25,9.33l1.18-.28,1.91,2.86a10.32,10.32,0,0,0,1,1.27,3.18,3.18,0,0,0,.82.67,2.73,2.73,0,0,0,.87.31l0,.58-.34,0Z" transform="translate(-0.78 -1.52)"/><path class="cls-1" d="M73.9,14.63l0-.63L75,13.76a1.76,1.76,0,0,0,0-.4c0-.21,0-.49,0-.86s0-.83,0-1.37V7.49c0-.55,0-1,0-1.4s0-.66,0-.87a1.53,1.53,0,0,0,0-.38L73.86,4.6l0-.63h3.58l0,.63-1.11.24s0,.15,0,.33,0,.46,0,.82,0,.87,0,1.5v3.64c0,.6,0,1.09,0,1.47s0,.65,0,.82,0,.29,0,.34l1.11.24,0,.63Z" transform="translate(-0.78 -1.52)"/><path class="cls-1" d="M82.82,14.67l-.08-.55a32.37,32.37,0,0,0,2.81-2.77,9.36,9.36,0,0,0,1.5-2.17,4.66,4.66,0,0,0,.45-2,2.4,2.4,0,0,0-.57-1.67,2.07,2.07,0,0,0-1.61-.64,2.85,2.85,0,0,0-2.5,1.47l-.44-.3a3.71,3.71,0,0,1,1.31-1.67,3.36,3.36,0,0,1,2-.6,3.58,3.58,0,0,1,1.7.39A2.92,2.92,0,0,1,88.5,5.28a3,3,0,0,1,.42,1.61,5.59,5.59,0,0,1-1.24,3.22A17.63,17.63,0,0,1,84,13.72l.09-.29h4.32a.77.77,0,0,0,.22-.06l.62-1.58.62.07-.35,2.85-.51,0-.51,0h-5Z" transform="translate(-0.78 -1.52)"/><path class="cls-1" d="M95.82,14.79a3.69,3.69,0,0,1-2.21-.68,4.38,4.38,0,0,1-1.48-1.93,7.21,7.21,0,0,1-.52-2.85,6.87,6.87,0,0,1,.55-2.85,4.87,4.87,0,0,1,1.52-2,3.54,3.54,0,0,1,2.18-.71A3.37,3.37,0,0,1,98,4.5a4.54,4.54,0,0,1,1.41,1.9,7.31,7.31,0,0,1,.51,2.84,7.27,7.27,0,0,1-.52,2.82,5,5,0,0,1-1.46,2A3.25,3.25,0,0,1,95.82,14.79Zm.07-.78a1.87,1.87,0,0,0,1.33-.54,3.65,3.65,0,0,0,.89-1.53,7.1,7.1,0,0,0,.33-2.27A7.89,7.89,0,0,0,97.7,6a2.21,2.21,0,0,0-2-1.36A2.15,2.15,0,0,0,93.8,5.76,6.37,6.37,0,0,0,93.1,9a8.93,8.93,0,0,0,.34,2.61,4.08,4.08,0,0,0,1,1.75A2.07,2.07,0,0,0,95.89,14Z" transform="translate(-0.78 -1.52)"/><path class="cls-1" d="M101.65,14.67l-.07-.55a33.87,33.87,0,0,0,2.81-2.77,9.68,9.68,0,0,0,1.5-2.17,4.66,4.66,0,0,0,.45-2,2.4,2.4,0,0,0-.57-1.67,2.07,2.07,0,0,0-1.61-.64,2.87,2.87,0,0,0-2.51,1.47l-.43-.3a3.69,3.69,0,0,1,1.3-1.67,3.42,3.42,0,0,1,2-.6,3.61,3.61,0,0,1,1.7.39,2.92,2.92,0,0,1,1.15,1.08,3,3,0,0,1,.42,1.61,5.67,5.67,0,0,1-1.24,3.22,17.63,17.63,0,0,1-3.72,3.61l.09-.29h4.32l.22-.06.62-1.58.61.07-.34,2.85-.51,0-.51,0h-5Z" transform="translate(-0.78 -1.52)"/><path class="cls-1" d="M111.81,10.29A3.2,3.2,0,0,1,113,8.94a2.91,2.91,0,0,1,1.6-.48,3.22,3.22,0,0,1,1.59.38,3,3,0,0,1,1.11,1,2.87,2.87,0,0,1,.4,1.54,3.14,3.14,0,0,1-.47,1.68A3.59,3.59,0,0,1,116,14.33a3.27,3.27,0,0,1-1.71.46,3.65,3.65,0,0,1-1.9-.48A3.25,3.25,0,0,1,111.08,13a4.61,4.61,0,0,1-.45-2.12,7.07,7.07,0,0,1,1.69-4.7,7.12,7.12,0,0,1,1.94-1.58,8.43,8.43,0,0,1,2.51-.91l.25.73a7.45,7.45,0,0,0-2.72,1.28,5.61,5.61,0,0,0-1.69,2.14,7.17,7.17,0,0,0-.57,2.94,5.12,5.12,0,0,0,.28,1.74,2.58,2.58,0,0,0,.79,1.14,1.94,1.94,0,0,0,1.24.4,1.71,1.71,0,0,0,1.37-.62,2.41,2.41,0,0,0,.54-1.63,2.31,2.31,0,0,0-.59-1.63,2,2,0,0,0-1.56-.64,2.2,2.2,0,0,0-.84.16,2.31,2.31,0,0,0-.75.45,3.09,3.09,0,0,0-.64.77Z" transform="translate(-0.78 -1.52)"/><path class="cls-1" d="M124.12,18.63V1.52h1.06V18.63Z" transform="translate(-0.78 -1.52)"/><path class="cls-1" d="M134.33,11.18c0,.61,0,1.09,0,1.46s0,.65,0,.82a3.13,3.13,0,0,0,0,.34l1.44.23,0,.6h-4.09l0-.6,1.4-.23a4,4,0,0,0,0-.46c0-.23,0-.52,0-.89s0-.78,0-1.27V7.28q0-.47,0-.93t-.06-.93l-1.47.35-.06-.69,2.84-1.27c0,.31,0,.71,0,1.19s0,1.15,0,2Z" transform="translate(-0.78 -1.52)"/><path class="cls-1" d="M141.85,14.79a3.69,3.69,0,0,1-2.21-.68,4.47,4.47,0,0,1-1.49-1.93,7.4,7.4,0,0,1-.51-2.85,6.87,6.87,0,0,1,.55-2.85,4.87,4.87,0,0,1,1.52-2,3.54,3.54,0,0,1,2.18-.71A3.37,3.37,0,0,1,144,4.5a4.46,4.46,0,0,1,1.41,1.9,7.31,7.31,0,0,1,.51,2.84,7.27,7.27,0,0,1-.52,2.82,5,5,0,0,1-1.46,2A3.23,3.23,0,0,1,141.85,14.79Zm.07-.78a1.85,1.85,0,0,0,1.33-.54,3.65,3.65,0,0,0,.89-1.53,7.1,7.1,0,0,0,.33-2.27A7.89,7.89,0,0,0,143.73,6a2.21,2.21,0,0,0-2-1.36,2.15,2.15,0,0,0-1.93,1.17,6.37,6.37,0,0,0-.7,3.28,8.93,8.93,0,0,0,.34,2.61,4.08,4.08,0,0,0,1,1.75A2.07,2.07,0,0,0,141.92,14Z" transform="translate(-0.78 -1.52)"/><path class="cls-1" d="M148.46,14.81a1,1,0,0,1-.71-.27.9.9,0,0,1-.28-.69,1,1,0,0,1,.12-.48A1.07,1.07,0,0,1,148,13a1.06,1.06,0,0,1,.5-.12,1,1,0,0,1,.72.27.91.91,0,0,1,.28.67.94.94,0,0,1-1,1Z" transform="translate(-0.78 -1.52)"/><path class="cls-1" d="M155.24,14.79a3.72,3.72,0,0,1-2.22-.68,4.53,4.53,0,0,1-1.48-1.93A7.4,7.4,0,0,1,151,9.33a6.87,6.87,0,0,1,.55-2.85,4.78,4.78,0,0,1,1.52-2,3.54,3.54,0,0,1,2.18-.71,3.39,3.39,0,0,1,2.09.69,4.54,4.54,0,0,1,1.41,1.9,7.31,7.31,0,0,1,.51,2.84,7.09,7.09,0,0,1-.53,2.82,4.87,4.87,0,0,1-1.45,2A3.25,3.25,0,0,1,155.24,14.79Zm.07-.78a1.87,1.87,0,0,0,1.33-.54,3.75,3.75,0,0,0,.89-1.53,7.1,7.1,0,0,0,.33-2.27A7.89,7.89,0,0,0,157.12,6a2.21,2.21,0,0,0-2-1.36,2.15,2.15,0,0,0-1.93,1.17,6.37,6.37,0,0,0-.7,3.28,8.93,8.93,0,0,0,.34,2.61,4.08,4.08,0,0,0,1,1.75A2.07,2.07,0,0,0,155.31,14Z" transform="translate(-0.78 -1.52)"/><path class="cls-1" d="M165.56,14.79a3.7,3.7,0,0,1-2.22-.68,4.53,4.53,0,0,1-1.48-1.93,7.39,7.39,0,0,1-.52-2.85,6.87,6.87,0,0,1,.56-2.85,4.85,4.85,0,0,1,1.51-2,3.56,3.56,0,0,1,2.18-.71,3.35,3.35,0,0,1,2.09.69,4.48,4.48,0,0,1,1.42,1.9,7.31,7.31,0,0,1,.51,2.84,7.27,7.27,0,0,1-.53,2.82,4.87,4.87,0,0,1-1.45,2A3.25,3.25,0,0,1,165.56,14.79Zm.07-.78a1.87,1.87,0,0,0,1.33-.54,3.75,3.75,0,0,0,.89-1.53,7.4,7.4,0,0,0,.32-2.27A7.9,7.9,0,0,0,167.44,6a2.21,2.21,0,0,0-2-1.36,2.16,2.16,0,0,0-1.94,1.17,6.47,6.47,0,0,0-.7,3.28,8.91,8.91,0,0,0,.35,2.61,4,4,0,0,0,1,1.75A2,2,0,0,0,165.63,14Z" transform="translate(-0.78 -1.52)"/><path class="cls-1" d="M182.91,6.4l-3.29,8.29h-.73l-3.7-9.85-.91-.24,0-.63h3.25l0,.63-.91.22,3,8.18h-.22l3-8Zm2.48,8.29-3.63-9.85-.91-.24,0-.63h3.38l0,.63-1.09.22,3,8.18h-.26l2.93-8.16-1.29-.24.05-.63h3.25l0,.63-.91.24-3.87,9.85Z" transform="translate(-0.78 -1.52)"/><path class="cls-1" d="M192,14.63l0-.63,1.09-.24a1.31,1.31,0,0,0,.05-.4c0-.21,0-.49,0-.86V6.09c0-.37,0-.66,0-.87a1.15,1.15,0,0,0-.05-.38L192,4.6,192,4h3.58l0,.63-1.1.24a1.6,1.6,0,0,0-.05.33c0,.18,0,.46,0,.82s0,.87,0,1.5v3.64c0,.6,0,1.09,0,1.47s0,.65,0,.82a1.92,1.92,0,0,0,.05.34l1.1.24,0,.63Z" transform="translate(-0.78 -1.52)"/><path class="cls-1" d="M198.47,13.76a6.26,6.26,0,0,0,.08-.84c0-.47,0-1.07,0-1.79V7.49c0-.8,0-1.43,0-1.9a4.91,4.91,0,0,0-.08-.82l-1.1-.15,0-.65h4.11a4.47,4.47,0,0,1,2.64.66,2.21,2.21,0,0,1,.92,1.9,2.21,2.21,0,0,1-.76,1.69,3.29,3.29,0,0,1-2,.8l-.3-.13a4.56,4.56,0,0,1,2.67.74,2.3,2.3,0,0,1,.92,1.95,2.58,2.58,0,0,1-1.21,2.22,5.75,5.75,0,0,1-3.26.83H197.4l0-.63Zm1.38-2.34c0,.54,0,1,0,1.49s0,.72,0,.81l.65.09a6.31,6.31,0,0,0,.66,0,4,4,0,0,0,2.27-.52,1.8,1.8,0,0,0,.74-1.59,1.89,1.89,0,0,0-.78-1.64,4,4,0,0,0-2.32-.55h-1.08a2.81,2.81,0,0,0-.45,0V8.71l.71,0H201a3.14,3.14,0,0,0,2-.54,1.83,1.83,0,0,0,.69-1.53,1.77,1.77,0,0,0-.64-1.48,2.86,2.86,0,0,0-1.8-.5h-1.36q0,.13,0,.84c0,.47,0,1,0,1.56Z" transform="translate(-0.78 -1.52)"/></g></g></svg>