<svg xmlns="http://www.w3.org/2000/svg" viewBox="0 0 297.71 111.87"><defs><style>.cls-1{fill:#f2f3eb;}.cls-2{fill:#8a8e6d;}</style></defs><g id="Layer_2" data-name="Layer 2"><g id="Layer_1-2" data-name="Layer 1"><path class="cls-1" d="M297.38,56.85c-5.29,6.23-6.23,14-7.07,20.91-.88,7.35-1.72,14.32-8.85,14.66v2.46A1.43,1.43,0,0,1,280,96.3h-5.78a11.29,11.29,0,0,1-3.45,7.85,11.89,11.89,0,0,1-7.2,2.85v3.46a1.42,1.42,0,0,1-1.42,1.41H35.53a1.41,1.41,0,0,1-1.41-1.41V107a11.89,11.89,0,0,1-7.21-2.85,11.38,11.38,0,0,1-3.45-7.85H17.68a1.42,1.42,0,0,1-1.41-1.42V92.42c-7.14-.34-8-7.31-8.86-14.66C6.58,70.88,5.63,63.08.34,56.85A1.41,1.41,0,0,1,.34,55c5.29-6.23,6.24-14,7.07-20.91.88-7.35,1.73-14.32,8.86-14.66V17a1.41,1.41,0,0,1,1.41-1.41h5.78a11.38,11.38,0,0,1,3.45-7.86,11.83,11.83,0,0,1,7.21-2.85V1.41A1.41,1.41,0,0,1,35.53,0H262.19a1.42,1.42,0,0,1,1.42,1.41V4.87a11.83,11.83,0,0,1,7.2,2.85,11.3,11.3,0,0,1,3.45,7.86H280A1.42,1.42,0,0,1,281.46,17v2.46c7.13.34,8,7.31,8.85,14.66.84,6.88,1.78,14.68,7.07,20.91A1.41,1.41,0,0,1,297.38,56.85Z"/><path class="cls-2" d="M297.38,55c-5.29-6.23-6.23-14-7.07-20.91-.88-7.35-1.72-14.32-8.85-14.66V17A1.42,1.42,0,0,0,280,15.58h-5.78a11.3,11.3,0,0,0-3.45-7.86,11.83,11.83,0,0,0-7.2-2.85V1.41A1.42,1.42,0,0,0,262.19,0H35.53a1.41,1.41,0,0,0-1.41,1.41V4.87a11.83,11.83,0,0,0-7.21,2.85,11.38,11.38,0,0,0-3.45,7.86H17.68A1.41,1.41,0,0,0,16.27,17v2.46c-7.13.34-8,7.31-8.86,14.66C6.58,41,5.63,48.79.34,55a1.41,1.41,0,0,0,0,1.83c5.29,6.23,6.24,14,7.07,20.91.88,7.35,1.72,14.32,8.86,14.66v2.46a1.42,1.42,0,0,0,1.41,1.42h5.78a11.38,11.38,0,0,0,3.45,7.85A11.89,11.89,0,0,0,34.12,107v3.46a1.41,1.41,0,0,0,1.41,1.41H262.19a1.42,1.42,0,0,0,1.42-1.41V107a11.89,11.89,0,0,0,7.2-2.85,11.29,11.29,0,0,0,3.45-7.85H280a1.43,1.43,0,0,0,1.42-1.42V92.42c7.13-.34,8-7.31,8.85-14.66.84-6.88,1.78-14.68,7.07-20.91A1.41,1.41,0,0,0,297.38,55Zm-9.87,22.4c-1,8.49-1.76,12.54-7.37,12.15a1.44,1.44,0,0,0-1.06.38,1.41,1.41,0,0,0-.45,1v2.48H272.9a1.41,1.41,0,0,0-1.41,1.41c0,3.19-.87,5.6-2.57,7.17a9.69,9.69,0,0,1-6.6,2.13,1.41,1.41,0,0,0-1.54,1.41V109H37v-3.45a1.42,1.42,0,0,0-.46-1,1.39,1.39,0,0,0-1.08-.37s-4,.3-6.61-2.13c-1.7-1.57-2.57-4-2.57-7.17a1.41,1.41,0,0,0-1.41-1.41H19.1V91a1.44,1.44,0,0,0-1.52-1.42C12,90,11.24,85.91,10.22,77.42c-.8-6.61-1.79-14.77-7-21.49,5.19-6.71,6.18-14.87,7-21.48C11.24,26,12,21.9,17.58,22.3a1.37,1.37,0,0,0,1.06-.38,1.41,1.41,0,0,0,.46-1V18.4h5.72A1.41,1.41,0,0,0,26.23,17c0-3.19.87-5.6,2.57-7.17a9.63,9.63,0,0,1,6.6-2.13,1.41,1.41,0,0,0,1.08-.37,1.37,1.37,0,0,0,.47-1V2.83H260.78V6.28a1.43,1.43,0,0,0,.46,1,1.41,1.41,0,0,0,1.08.37,9.63,9.63,0,0,1,6.6,2.13c1.7,1.57,2.57,4,2.57,7.17a1.41,1.41,0,0,0,1.41,1.41h5.73v2.49a1.42,1.42,0,0,0,1.51,1.41c5.61-.41,6.34,3.66,7.37,12.15.79,6.61,1.78,14.77,7,21.48C289.29,62.65,288.3,70.81,287.51,77.42Z"/><path class="cls-2" d="M290.31,55.69c-4.36-6.86-5.3-14.62-6.05-20.85-1-8.58-1.68-9.3-3.39-9.3l-.5,0-5,.36V22.13a.47.47,0,0,0-.46-.46h-6.68V17c0-1.65,0-6-5.43-6l-5.28.47V6.56a.46.46,0,0,0-.46-.46H40.67a.46.46,0,0,0-.46.45l-.07,4.71-5-.31h-.2c-5.44,0-5.44,4.4-5.44,6v4.68H22.82a.46.46,0,0,0-.45.46v3.79l-5-.36-.49,0c-1.71,0-2.35.72-3.39,9.3-.75,6.23-1.69,14-6.05,20.85a.44.44,0,0,0,0,.49c4.37,6.87,5.3,14.62,6.05,20.85,1,8.58,1.68,9.3,3.39,9.3l.5,0,5-.36v3.79a.46.46,0,0,0,.45.46H29.5v4.68c0,3.86,1.54,4.84,2.05,5.17a6.8,6.8,0,0,0,3.38.87l5.28-.46v4.85a.46.46,0,0,0,.46.46H257.05a.46.46,0,0,0,.46-.45l.07-4.71,5,.31h.21c5.43,0,5.43-4.39,5.43-6V90.2h6.68a.47.47,0,0,0,.46-.46V86l5,.36.49,0c1.71,0,2.35-.72,3.39-9.3.75-6.23,1.69-14,6.05-20.85A.44.44,0,0,0,290.31,55.69Zm-7,21.23c-1,8.49-1.64,8.49-2.48,8.49h-.43l-5.51-.4a.5.5,0,0,0-.35.12.48.48,0,0,0-.14.34v3.82h-6.68a.45.45,0,0,0-.46.46v5.14c0,1.66,0,5.13-4.5,5.13l-5.64-.34a.39.39,0,0,0-.34.12.41.41,0,0,0-.15.33l-.07,4.73H41.13V100a.46.46,0,0,0-.5-.46l-5.56.51h-.13a5.88,5.88,0,0,1-2.9-.74c-.4-.25-1.62-1-1.62-4.39V89.74a.45.45,0,0,0-.46-.46H23.28V85.46a.48.48,0,0,0-.14-.34.5.5,0,0,0-.35-.12l-5.51.4h-.43c-.84,0-1.45,0-2.48-8.49-.75-6.25-1.69-14-6-21,4.34-7,5.28-14.73,6-21,1-8.49,1.64-8.49,2.48-8.49h.43l5.51.4a.5.5,0,0,0,.35-.12.48.48,0,0,0,.14-.34V22.59H30a.45.45,0,0,0,.46-.46V17c0-1.67,0-5.13,4.51-5.13l5.64.34a.45.45,0,0,0,.34-.12.44.44,0,0,0,.14-.33L41.12,7H256.59v4.89a.46.46,0,0,0,.5.46l5.56-.51h.14c4.51,0,4.51,3.46,4.51,5.13v5.14a.45.45,0,0,0,.46.46h6.68v3.82a.48.48,0,0,0,.14.34.48.48,0,0,0,.35.12l5.51-.4h.43c.84,0,1.45,0,2.48,8.5.75,6.24,1.69,14,6,21C285,62.91,284.1,70.67,283.35,76.92Z"/></g></g></svg>