<svg xmlns="http://www.w3.org/2000/svg" viewBox="0 0 25.43 25.29"><defs><style>.cls-1{fill:#f2f3eb;}</style></defs><g id="Layer_2" data-name="Layer 2"><g id="Layer_1-2" data-name="Layer 1"><path class="cls-1" d="M12.7,25.23A37.75,37.75,0,0,1,5.81,25,6.52,6.52,0,0,1,.25,18.93a77.53,77.53,0,0,1,0-12.38A6.57,6.57,0,0,1,6.43.25a77.86,77.86,0,0,1,12.5,0A6.36,6.36,0,0,1,25,5.94a57,57,0,0,1,0,13.19c-.43,3.77-3,5.89-6.77,6.08C16.44,25.3,14.57,25.23,12.7,25.23ZM23,12.72c0-1.83.09-3.66,0-5.48-.18-3.13-1.74-4.74-4.91-4.85-3.57-.14-7.16-.13-10.73,0C4.23,2.5,2.51,4.16,2.4,7.12c-.13,3.7-.12,7.4,0,11.1.08,2.87,1.64,4.47,4.52,4.71a67.28,67.28,0,0,0,11.79,0A4.39,4.39,0,0,0,23,18.56,34.51,34.51,0,0,0,23,12.72Z"/><path class="cls-1" d="M19.14,12.63a6.46,6.46,0,1,1-6.48-6.42A6.47,6.47,0,0,1,19.14,12.63Zm-6.43,4.31a4.24,4.24,0,1,0,0-8.47,4.24,4.24,0,1,0,0,8.47Z"/><path class="cls-1" d="M19.3,7.39A1.37,1.37,0,0,1,18,6a1.4,1.4,0,0,1,1.51-1.47,1.38,1.38,0,0,1,1.44,1.43A1.45,1.45,0,0,1,19.3,7.39Z"/></g></g></svg>