<svg xmlns="http://www.w3.org/2000/svg" viewBox="0 0 119.29 12.01"><defs><style>.cls-1{fill:#f2f3eb;}</style></defs><g id="Layer_2" data-name="Layer 2"><g id="Layer_1-2" data-name="Layer 1"><path class="cls-1" d="M2.89,10.57a5.23,5.23,0,0,1-1.15-.14,3.83,3.83,0,0,1-.95-.34L.73,8.48l.48-.05.33,1.1a2.92,2.92,0,0,0,.72.32A2.84,2.84,0,0,0,3.1,10a1.64,1.64,0,0,0,1.06-.33,1.07,1.07,0,0,0,.41-.89A1.07,1.07,0,0,0,4.29,8a2.45,2.45,0,0,0-.7-.54C3.3,7.28,3,7.13,2.67,7a6.91,6.91,0,0,1-.93-.51A2.56,2.56,0,0,1,1,5.79a1.82,1.82,0,0,1-.28-1A1.77,1.77,0,0,1,1.1,3.7,2.32,2.32,0,0,1,2,3,3.24,3.24,0,0,1,3.4,2.71c.23,0,.45,0,.65,0a4.27,4.27,0,0,1,.57.09A3.85,3.85,0,0,1,5.1,3l.09,1.54-.48.06-.35-1a2,2,0,0,0-1.1-.27,1.75,1.75,0,0,0-1.11.33,1.1,1.1,0,0,0-.41.87A1.19,1.19,0,0,0,2,5.29a2.55,2.55,0,0,0,.71.56c.29.16.6.32.92.47a8,8,0,0,1,.92.5,2.72,2.72,0,0,1,.72.67,1.65,1.65,0,0,1,.27,1,1.81,1.81,0,0,1-.34,1.09,2.24,2.24,0,0,1-1,.75A3.18,3.18,0,0,1,2.89,10.57Z" transform="translate(-0.73 -1.39)"/><path class="cls-1" d="M9.4,10.55A2.8,2.8,0,0,1,8,10.19a2.49,2.49,0,0,1-1-1,3.28,3.28,0,0,1-.33-1.5A2.93,2.93,0,0,1,7,6.17a2.67,2.67,0,0,1,1-1,2.81,2.81,0,0,1,1.4-.36,2.58,2.58,0,0,1,1.38.35,2.36,2.36,0,0,1,.91,1,3.32,3.32,0,0,1,.32,1.48,3.14,3.14,0,0,1-.35,1.48,2.91,2.91,0,0,1-.95,1.05A2.42,2.42,0,0,1,9.4,10.55ZM9.53,10a1.24,1.24,0,0,0,.82-.29,1.81,1.81,0,0,0,.55-.78,2.78,2.78,0,0,0,.2-1.11A3.1,3.1,0,0,0,10.62,6a1.52,1.52,0,0,0-1.29-.69,1.47,1.47,0,0,0-1.22.6,2.54,2.54,0,0,0-.47,1.6,3.11,3.11,0,0,0,.25,1.3,2.12,2.12,0,0,0,.67.87A1.67,1.67,0,0,0,9.53,10Z" transform="translate(-0.73 -1.39)"/><path class="cls-1" d="M13.06,10.45,13,10l.8-.19a1.84,1.84,0,0,0,0-.26c0-.1,0-.24,0-.42s0-.42,0-.72v-1q0-.44,0-.9c0-.3,0-.53-.06-.67L13,5.66V5.27l1.58-.44.19.2-.07.67h0a3.53,3.53,0,0,1,.91-.7,2.22,2.22,0,0,1,.93-.2,1.81,1.81,0,0,1,.87.22,1.72,1.72,0,0,1,.69.72A2.55,2.55,0,0,1,18.38,7V8.46c0,.32,0,.61,0,.86a3.25,3.25,0,0,0,.05.51l.8.19,0,.43H16.81l0-.43.75-.19a1.66,1.66,0,0,0,0-.24,3.47,3.47,0,0,0,0-.38c0-.16,0-.37,0-.63V7.09a1.75,1.75,0,0,0-.22-1,1.35,1.35,0,0,0-.54-.5,1.44,1.44,0,0,0-.61-.15,1.67,1.67,0,0,0-.85.23,2.11,2.11,0,0,0-.67.63v2c0,.42,0,.76,0,1s0,.41,0,.52l.8.19,0,.43Z" transform="translate(-0.73 -1.39)"/><path class="cls-1" d="M22.61,13.41a3.53,3.53,0,0,1-1.82-.4,1.17,1.17,0,0,1-.67-1,1.27,1.27,0,0,1,.32-.83,4.35,4.35,0,0,1,1.09-.82l.47.13a2.09,2.09,0,0,0-.7.6,1.24,1.24,0,0,0-.25.74,1,1,0,0,0,.43.83,2,2,0,0,0,1.17.3,2.42,2.42,0,0,0,1.41-.38,1.15,1.15,0,0,0,.54-1,.81.81,0,0,0-.34-.7,2.29,2.29,0,0,0-1.1-.28l-1.33-.1-.22-.06a1.14,1.14,0,0,1-.74-.25.73.73,0,0,1-.32-.6,1,1,0,0,1,.31-.67,2.94,2.94,0,0,1,.88-.6l.16.27a2.16,2.16,0,0,0-.4.34.41.41,0,0,0-.12.27.4.4,0,0,0,.18.33,1,1,0,0,0,.51.17l1.59.16a2.67,2.67,0,0,1,1.32.44,1.19,1.19,0,0,1,.47,1,1.67,1.67,0,0,1-.37,1.06,2.74,2.74,0,0,1-1,.75A3.71,3.71,0,0,1,22.61,13.41Zm.12-4.6a3,3,0,0,1-1.18-.23,1.93,1.93,0,0,1-.81-.67,1.65,1.65,0,0,1-.3-1,2,2,0,0,1,.3-1.09,2.12,2.12,0,0,1,.81-.76,2.36,2.36,0,0,1,1.15-.28,2.57,2.57,0,0,1,1.16.25,2,2,0,0,1,.79.7,1.86,1.86,0,0,1,.28,1,1.82,1.82,0,0,1-.29,1,2.06,2.06,0,0,1-.79.73A2.31,2.31,0,0,1,22.73,8.81Zm.06-.45a1.1,1.1,0,0,0,.9-.4,1.57,1.57,0,0,0,.33-1,1.87,1.87,0,0,0-.36-1.2,1.27,1.27,0,0,0-1.91,0,1.64,1.64,0,0,0-.36,1.1,1.69,1.69,0,0,0,.38,1.14A1.31,1.31,0,0,0,22.79,8.36Zm2.95-2.67L24.25,5.6l-.51-.5,2-.19Z" transform="translate(-0.73 -1.39)"/><path class="cls-1" d="M29.51,10.11c0-.3,0-.56,0-.76s0-.41,0-.59v-3c0-.27,0-.57,0-.91s0-.67,0-1,0-.62,0-.87,0-.4,0-.48l-1-.13,0-.37,1.66-.5.21.17c0,.36,0,.73,0,1.09s0,.8,0,1.28,0,1.07,0,1.78h0a2.68,2.68,0,0,1,.82-.72,2.21,2.21,0,0,1,1-.26A2.3,2.3,0,0,1,34.29,6a2.91,2.91,0,0,1,.33,1.45,2.94,2.94,0,0,1-.44,1.62A3,3,0,0,1,33,10.17a3.09,3.09,0,0,1-1.52.38,4.43,4.43,0,0,1-1.08-.13A4.29,4.29,0,0,1,29.51,10.11ZM31.78,10a1.7,1.7,0,0,0,1.34-.61,2.58,2.58,0,0,0,.54-1.7,2.08,2.08,0,0,0-.5-1.59,1.79,1.79,0,0,0-1.31-.52,1.87,1.87,0,0,0-.83.19,2,2,0,0,0-.69.6V9.55a2.31,2.31,0,0,0,.63.31A2.81,2.81,0,0,0,31.78,10Z" transform="translate(-0.73 -1.39)"/><path class="cls-1" d="M38,10.5l-2.26-5-.61-.18,0-.43h2.3l0,.43-.8.18,1.86,4.16ZM41.2,4.91l0,.43-.61.18L38.45,10.2,37.4,12.36a2.28,2.28,0,0,1-.57.81,1.11,1.11,0,0,1-.71.24.81.81,0,0,1-.49-.14.42.42,0,0,1-.19-.37.49.49,0,0,1,.14-.32.86.86,0,0,1,.42-.25L37.11,12l-.51.66L38,9.92l.14-.22L39.9,5.52l-.8-.18,0-.43Z" transform="translate(-0.73 -1.39)"/><path class="cls-1" d="M43.73,10.45l0-.45.64-.17L47,3l.66-.42,2.78,7.23.65.17,0,.45H48.67l0-.45.79-.17-.78-2-.14-.39L47.06,3.79l.28-.24-1.43,3.9-.14.39-.72,2,.79.17,0,.45ZM45.48,8V7.36l.7,0h2.21l.7,0V8l-1,0H46.49Z" transform="translate(-0.73 -1.39)"/><path class="cls-1" d="M52.14,10.11c0-.3,0-.56,0-.76V4.82c0-.34,0-.67,0-1s0-.62,0-.87,0-.4,0-.48l-1-.13,0-.37,1.66-.5.21.17c0,.36,0,.73,0,1.09s0,.8,0,1.28,0,1.07,0,1.78h0a2.57,2.57,0,0,1,.82-.72,2.21,2.21,0,0,1,1.05-.26A2.32,2.32,0,0,1,56,5.12a2.38,2.38,0,0,1,.88.9,2.91,2.91,0,0,1,.33,1.45,3,3,0,0,1-.44,1.62,3.12,3.12,0,0,1-2.68,1.46,4.43,4.43,0,0,1-1.08-.13A4.19,4.19,0,0,1,52.14,10.11ZM54.41,10a1.68,1.68,0,0,0,1.33-.61,2.53,2.53,0,0,0,.55-1.7,2.08,2.08,0,0,0-.51-1.59,1.78,1.78,0,0,0-1.31-.52,1.83,1.83,0,0,0-.82.19,1.89,1.89,0,0,0-.7.6V9.55a2.31,2.31,0,0,0,.63.31A2.88,2.88,0,0,0,54.41,10Z" transform="translate(-0.73 -1.39)"/><path class="cls-1" d="M61,10.55a2.64,2.64,0,0,1-1.3-.32,2.35,2.35,0,0,1-.95-1,2.92,2.92,0,0,1-.36-1.5,3,3,0,0,1,.38-1.53,2.85,2.85,0,0,1,1-1,2.73,2.73,0,0,1,1.44-.39,2.8,2.8,0,0,1,.94.13,1.29,1.29,0,0,1,.56.36.74.74,0,0,1,.19.45.48.48,0,0,1-.11.32.45.45,0,0,1-.33.12.73.73,0,0,1-.35-.07,2.16,2.16,0,0,1-.36-.32l-.58-.62.4.13a1.72,1.72,0,0,0-1,.1,1.77,1.77,0,0,0-.85.76,2.68,2.68,0,0,0-.34,1.43,2.26,2.26,0,0,0,.54,1.62,1.81,1.81,0,0,0,1.35.57,2,2,0,0,0,.89-.18A2,2,0,0,0,62.77,9l.33.27a2.51,2.51,0,0,1-.9,1A2.38,2.38,0,0,1,61,10.55Z" transform="translate(-0.73 -1.39)"/><path class="cls-1" d="M68.09,10.58,68,10.42V9.57h0a2.79,2.79,0,0,1-.82.75,1.77,1.77,0,0,1-.88.22,2.5,2.5,0,0,1-1.32-.34A2.45,2.45,0,0,1,64,9.25a2.82,2.82,0,0,1-.33-1.38,3.3,3.3,0,0,1,.22-1.24,2.76,2.76,0,0,1,.61-1,2.8,2.8,0,0,1,.9-.64,2.51,2.51,0,0,1,1-.23,3.36,3.36,0,0,1,.82.11,1.85,1.85,0,0,1,.69.33c0-.15,0-.36,0-.63s0-.55,0-.84,0-.55,0-.77,0-.37,0-.44l-1-.2,0-.39,1.74-.5.21.17c0,.53,0,1.06,0,1.57V4.81l0,3c0,.44,0,.82,0,1.15s0,.55,0,.68l.82.21v.39Zm-1.63-.79a1.65,1.65,0,0,0,.77-.18A2.22,2.22,0,0,0,68,9V6.23a1.64,1.64,0,0,0-.68-.7,1.78,1.78,0,0,0-.83-.2A1.62,1.62,0,0,0,65.09,6a2.6,2.6,0,0,0-.49,1.62,2.27,2.27,0,0,0,.55,1.63A1.73,1.73,0,0,0,66.46,9.79Z" transform="translate(-0.73 -1.39)"/><path class="cls-1" d="M73.22,10.55a2.63,2.63,0,0,1-1.32-.32,2.39,2.39,0,0,1-.94-1,3,3,0,0,1-.35-1.49A3.32,3.32,0,0,1,71,6.19a2.59,2.59,0,0,1,1-1,2.28,2.28,0,0,1,1.29-.35,1.92,1.92,0,0,1,1.51.65,2.78,2.78,0,0,1,.56,1.88v.22h-4V7h3.3l-.12.13V6.91a1.79,1.79,0,0,0-.36-1.2,1.21,1.21,0,0,0-1-.42,1.33,1.33,0,0,0-.74.22,1.7,1.7,0,0,0-.58.68,2.62,2.62,0,0,0-.22,1.15v.13a2.55,2.55,0,0,0,.53,1.71,1.74,1.74,0,0,0,1.36.61,1.84,1.84,0,0,0,.83-.18A2.12,2.12,0,0,0,75,9l.31.27a2.52,2.52,0,0,1-.89,1A2.3,2.3,0,0,1,73.22,10.55Z" transform="translate(-0.73 -1.39)"/><path class="cls-1" d="M76.13,5.53V5.16l.94-.22h2.27v.59ZM79,10.45H76.29l0-.43.81-.19V9.58c0-.09,0-.21,0-.34V4a3.66,3.66,0,0,1,.24-1.4A2.06,2.06,0,0,1,78,1.7a1.82,1.82,0,0,1,1-.31,1.46,1.46,0,0,1,.82.23.62.62,0,0,1,.33.54.32.32,0,0,1-.1.25.34.34,0,0,1-.26.1.79.79,0,0,1-.58-.27l-.56-.53.25.07a.88.88,0,0,0-.79.5,3,3,0,0,0-.28,1.39V4.94l0,.59V8c0,.36,0,.72,0,1.07s0,.62,0,.81L79,10Z" transform="translate(-0.73 -1.39)"/><path class="cls-1" d="M82.52,13.41A3.53,3.53,0,0,1,80.7,13,1.17,1.17,0,0,1,80,12a1.26,1.26,0,0,1,.31-.83,4.44,4.44,0,0,1,1.1-.82l.47.13a2,2,0,0,0-.7.6,1.18,1.18,0,0,0-.25.74,1,1,0,0,0,.43.83,2,2,0,0,0,1.17.3,2.39,2.39,0,0,0,1.4-.38,1.15,1.15,0,0,0,.54-1,.79.79,0,0,0-.34-.7,2.26,2.26,0,0,0-1.1-.28l-1.32-.1-.22-.06a1.15,1.15,0,0,1-.75-.25.76.76,0,0,1-.32-.6,1,1,0,0,1,.32-.67,2.82,2.82,0,0,1,.88-.6l.15.27a2,2,0,0,0-.39.34.43.43,0,0,0-.13.27.39.39,0,0,0,.19.33,1,1,0,0,0,.5.17l1.6.16a2.67,2.67,0,0,1,1.32.44,1.22,1.22,0,0,1,.47,1A1.68,1.68,0,0,1,85,12.38a2.66,2.66,0,0,1-1,.75A3.7,3.7,0,0,1,82.52,13.41Zm.11-4.6a2.94,2.94,0,0,1-1.17-.23,2,2,0,0,1-.82-.67,1.72,1.72,0,0,1-.29-1,2,2,0,0,1,.3-1.09,2.12,2.12,0,0,1,.81-.76,2.3,2.3,0,0,1,1.15-.28,2.52,2.52,0,0,1,1.15.25,1.92,1.92,0,0,1,.79.7,1.87,1.87,0,0,1,.29,1,1.9,1.9,0,0,1-.29,1,2.13,2.13,0,0,1-.79.73A2.35,2.35,0,0,1,82.63,8.81Zm.07-.45a1.1,1.1,0,0,0,.9-.4,1.57,1.57,0,0,0,.33-1,1.81,1.81,0,0,0-.37-1.2,1.2,1.2,0,0,0-1-.45,1.17,1.17,0,0,0-.93.42,1.64,1.64,0,0,0-.36,1.1,1.64,1.64,0,0,0,.38,1.14A1.29,1.29,0,0,0,82.7,8.36Zm2.94-2.67L84.15,5.6l-.5-.5,2-.19Z" transform="translate(-0.73 -1.39)"/><path class="cls-1" d="M89.12,2.83h2.1L94,9.18h-.19L96.5,2.83h1.93l0,.46-.79.15c0,.14,0,.39,0,.74s0,.7,0,1.05l0,2.4c0,.45,0,.82,0,1.11s0,.52,0,.69,0,.31,0,.41l.79.16,0,.45H96L96,10l.78-.16c0-.13,0-.26,0-.39V8.89c0-.24,0-.58,0-1l0-4.67H97l-3.15,7.28h-.35L90.34,3.18h.21v6c0,.33,0,.54,0,.63l.89.17,0,.45H89l0-.45.88-.17a2.56,2.56,0,0,0,0-.34c0-.16,0-.37,0-.65s0-.62,0-1l0-2.6c0-.34,0-.67,0-1s0-.59,0-.75l-.78-.17Z" transform="translate(-0.73 -1.39)"/><path class="cls-1" d="M105,9.62l.82.21v.39l-1.54.36-.15-.16,0-.79h0a2.53,2.53,0,0,1-.77.72,1.86,1.86,0,0,1-.84.2A2.07,2.07,0,0,1,101,10a2,2,0,0,1-.59-1.57V7.32c0-.26,0-.51,0-.76s0-.48-.05-.72l-.88-.18V5.27l1.61-.44.18.2c0,.26,0,.54,0,.83s0,.59,0,.9V8.27a1.58,1.58,0,0,0,.39,1.21,1.5,1.5,0,0,0,1,.35,1.69,1.69,0,0,0,.75-.2,1.8,1.8,0,0,0,.69-.66V7.41c0-.19,0-.38,0-.57s0-.38,0-.55a2.68,2.68,0,0,0,0-.45l-.94-.18V5.27l1.67-.44.16.17c0,.26,0,.48,0,.67s0,.37,0,.54V7.7c0,.55,0,1,0,1.28S105,9.49,105,9.62Z" transform="translate(-0.73 -1.39)"/><path class="cls-1" d="M108.72,10.55a3.69,3.69,0,0,1-.93-.11,3.17,3.17,0,0,1-.79-.29l-.07-1.35h.59l.24.94a1.74,1.74,0,0,0,1,.32,1.19,1.19,0,0,0,.74-.23.72.72,0,0,0,.3-.61.88.88,0,0,0-.26-.63,3.49,3.49,0,0,0-1-.57,4.56,4.56,0,0,1-1.28-.77,1.21,1.21,0,0,1-.37-.93,1.29,1.29,0,0,1,.26-.79A1.71,1.71,0,0,1,108,5,2.76,2.76,0,0,1,109,4.81a4.43,4.43,0,0,1,.72.05,2.37,2.37,0,0,1,.61.15l.14,1.31H110l-.32-.86a1,1,0,0,0-.31-.13,1.7,1.7,0,0,0-.4,0,1.18,1.18,0,0,0-.76.22.68.68,0,0,0-.28.58.83.83,0,0,0,.3.66,5.84,5.84,0,0,0,1,.61,4,4,0,0,1,1.19.77,1.27,1.27,0,0,1,.34.89,1.34,1.34,0,0,1-.58,1.1A2.34,2.34,0,0,1,108.72,10.55Z" transform="translate(-0.73 -1.39)"/><path class="cls-1" d="M111.74,10.45l0-.44.87-.18s0-.09,0-.17,0-.2,0-.4,0-.47,0-.83V7.61c0-.39,0-.75,0-1.07s0-.56,0-.7l-.87-.18V5.27l1.68-.44.15.16c0,.27,0,.53-.05.78s0,.56,0,.9V8.31c0,.42,0,.76,0,1s0,.43,0,.5l.87.18,0,.44Zm1.3-7.2a.76.76,0,0,1-.51-.2.64.64,0,0,1,0-1,.73.73,0,0,1,.51-.21.65.65,0,0,1,.49.21.63.63,0,0,1,.21.48.64.64,0,0,1-.21.49A.68.68,0,0,1,113,3.25Z" transform="translate(-0.73 -1.39)"/><path class="cls-1" d="M117.88,10.55a2.64,2.64,0,0,1-1.3-.32,2.41,2.41,0,0,1-1-1,2.92,2.92,0,0,1-.36-1.5,3.1,3.1,0,0,1,.38-1.53,2.85,2.85,0,0,1,1-1,3.06,3.06,0,0,1,2.38-.26,1.24,1.24,0,0,1,.56.36.68.68,0,0,1,.19.45.48.48,0,0,1-.11.32.42.42,0,0,1-.33.12.69.69,0,0,1-.34-.07,1.82,1.82,0,0,1-.36-.32l-.59-.62.41.13a1.74,1.74,0,0,0-1.06.1,1.82,1.82,0,0,0-.85.76,2.68,2.68,0,0,0-.34,1.43,2.22,2.22,0,0,0,.55,1.62,1.78,1.78,0,0,0,1.35.57,2,2,0,0,0,.89-.18A2.26,2.26,0,0,0,119.7,9l.32.27a2.43,2.43,0,0,1-.9,1A2.38,2.38,0,0,1,117.88,10.55Z" transform="translate(-0.73 -1.39)"/></g></g></svg>