<svg xmlns="http://www.w3.org/2000/svg" viewBox="0 0 25.72 25.26"><defs><style>.cls-1{fill:#f2f3eb;}</style></defs><g id="Layer_2" data-name="Layer 2"><g id="Layer_1-2" data-name="Layer 1"><path class="cls-1" d="M13.47,0a12.19,12.19,0,0,1,11,7.58A11.69,11.69,0,0,1,22.34,21C18.66,25.05,14,26.17,8.77,24.53a7,7,0,0,0-4.24-.07A19.21,19.21,0,0,1,2.45,25C1.17,25.2.24,24.3.69,23.09c.93-2.49.6-4.72-.17-7.27C-1.89,7.9,4.4,0,13.47,0ZM23.86,12.61a18.59,18.59,0,0,0-.25-2.12,10.55,10.55,0,0,0-8.2-8.37A10.46,10.46,0,0,0,4.13,6,10.2,10.2,0,0,0,3,17.53a3.38,3.38,0,0,1,.28,2.74c-.2.56-.3,1.15-.49,1.71-.32,1-.1,1.22.9.87a8.82,8.82,0,0,1,6,.07A10.91,10.91,0,0,0,23.86,12.61Z"/><path class="cls-1" d="M5.77,9.64c0-1.93,1.15-3.4,2.61-3.32a1,1,0,0,1,1,.57c.38.87.75,1.75,1.09,2.64.24.63-.2,1.08-.59,1.46a.89.89,0,0,0-.09,1.34,9.71,9.71,0,0,0,3.62,3.2c.75.39,1.28.33,1.68-.41.6-1.1,1.39-1.11,2.35-.48a10.66,10.66,0,0,0,1,.47A1.67,1.67,0,0,1,18.82,18a3.59,3.59,0,0,1-3.5,1C11,18,8.11,15.23,6.11,11.38A3.79,3.79,0,0,1,5.77,9.64Z"/></g></g></svg>