<svg xmlns="http://www.w3.org/2000/svg" viewBox="0 0 176.79 83.32"><defs><style>.cls-1{fill:#b69991;}</style></defs><g id="Layer_2" data-name="Layer 2"><g id="Layer_1-2" data-name="Layer 1"><path class="cls-1" d="M20.89,22.84a7.62,7.62,0,0,1,3.12.6,6.41,6.41,0,0,1,2.24,1.61,6.54,6.54,0,0,1,1.32,2.35A9.37,9.37,0,0,1,28,30.3,12.44,12.44,0,0,1,27,35a13.26,13.26,0,0,1-2.9,4.36,15.44,15.44,0,0,1-4.73,3.22,15.76,15.76,0,0,1-6.49,1.26A13.27,13.27,0,0,1,8.44,43a11.94,11.94,0,0,1-6.92-6.37A13.19,13.19,0,0,1,.4,31a17.39,17.39,0,0,1,1.24-6.31,30,30,0,0,1,3.07-6,8.43,8.43,0,0,1-3.45-3.3A10.58,10.58,0,0,1,0,10,10.19,10.19,0,0,1,.8,6,9.77,9.77,0,0,1,3,2.81,9.85,9.85,0,0,1,6.23.75a10.55,10.55,0,0,1,4-.75,12.12,12.12,0,0,1,2.7.32,12.26,12.26,0,0,1,2.76,1,.33.33,0,0,1,.2.43c-.06.21-.26.22-.61,0A10.71,10.71,0,0,0,10.44.57a9.31,9.31,0,0,0-3.7.75,9.94,9.94,0,0,0-3,2,9.51,9.51,0,0,0-2.06,3A8.79,8.79,0,0,0,.86,10,9.55,9.55,0,0,0,2,15a8.6,8.6,0,0,0,3.18,3.13,55.54,55.54,0,0,1,5.57-7A46.78,46.78,0,0,1,17,5.48a32,32,0,0,1,6.43-3.76A15.43,15.43,0,0,1,29.55.34c2.22,0,3.82.61,4.79,1.81S35.5,5,34.89,7.06a12.92,12.92,0,0,1-3.24,5.22A25,25,0,0,1,26,16.5a31.75,31.75,0,0,1-7,2.84,26.82,26.82,0,0,1-7.17,1A19,19,0,0,1,8.15,20a30.07,30.07,0,0,0-2.53,5.71,22,22,0,0,0-1.14,6.05,13.74,13.74,0,0,0,.6,5A10.26,10.26,0,0,0,7,40.28a7.51,7.51,0,0,0,2.78,2,8.11,8.11,0,0,0,3.13.66,15,15,0,0,0,6-1.24A13.69,13.69,0,0,0,26,34.63,11,11,0,0,0,27,30.3a7.79,7.79,0,0,0-1.46-4.74,5.51,5.51,0,0,0-4.74-2,5.25,5.25,0,0,0-3.21,1.07,7.39,7.39,0,0,0-2.27,2.75,9.54,9.54,0,0,0-.92,3.81,10,10,0,0,0,.84,4.31c.07.19,0,.32-.09.4s-.32-.09-.55-.52a8.21,8.21,0,0,1-1-4.07,9.82,9.82,0,0,1,.92-4.07A8.27,8.27,0,0,1,17,24.1,6.2,6.2,0,0,1,20.89,22.84ZM8.55,19.28a18.38,18.38,0,0,0,3.62.34,26,26,0,0,0,6.77-.94A28.89,28.89,0,0,0,25.48,16a23.68,23.68,0,0,0,5.33-4,11.93,11.93,0,0,0,3.1-5.08,5.11,5.11,0,0,0-.23-4.33,3.41,3.41,0,0,0-3-1.58,8.38,8.38,0,0,0-3.21.78A23.46,23.46,0,0,0,23.58,3.9,49.85,49.85,0,0,0,19.45,7a51.83,51.83,0,0,0-4.1,3.79C14,12.12,12.79,13.52,11.62,15A43.74,43.74,0,0,0,8.55,19.28Z"/><path class="cls-1" d="M41.54,24.79a4.68,4.68,0,0,1,2.41.6A4.45,4.45,0,0,1,45.59,27a6.21,6.21,0,0,1,.77,2.43,7.76,7.76,0,0,1-.23,3,3.09,3.09,0,0,0,.84.43,4,4,0,0,0,1.4.2,3.28,3.28,0,0,0,1.44-.4,3.5,3.5,0,0,0,1.26-1h1.15a5.3,5.3,0,0,1-4.36,2.29,5.5,5.5,0,0,1-1.12-.2,3.78,3.78,0,0,1-.89-.37,15.83,15.83,0,0,1-1.67,3.36A19.65,19.65,0,0,1,41.54,40a16.17,16.17,0,0,1-3.18,2.56,6.59,6.59,0,0,1-3.42,1,5.19,5.19,0,0,1-3.27-1.06,6,6,0,0,1-2-2.79,8.17,8.17,0,0,1-.28-3.9,10.51,10.51,0,0,1,1.86-4.42,18.52,18.52,0,0,1,4.79-4.9A9.67,9.67,0,0,1,41.54,24.79Zm.58.74a5.69,5.69,0,0,0-3.68,1.58,19.16,19.16,0,0,0-3.61,4.51,13.68,13.68,0,0,0-1.69,4.07,9.21,9.21,0,0,0-.2,3.44,4.52,4.52,0,0,0,1,2.38,2.32,2.32,0,0,0,1.81.89,5.13,5.13,0,0,0,2.9-1,15,15,0,0,0,2.75-2.47,17.83,17.83,0,0,0,2.24-3.15,16,16,0,0,0,1.35-3l-.12-.08a.31.31,0,0,1-.11-.09,3.23,3.23,0,0,1-1.06-1.52,3.92,3.92,0,0,1-.18-1.61A2.55,2.55,0,0,1,44,28.17a1.34,1.34,0,0,1,.86-.57,4,4,0,0,0-1.2-1.52A2.64,2.64,0,0,0,42.12,25.53Z"/><path class="cls-1" d="M67,24.79h3.62L62.43,38.27a4.13,4.13,0,0,0-.8,3.1c.23.77.65,1.15,1.26,1.15a4.82,4.82,0,0,0,3-1.64q1.72-1.64,4.71-4.84c.53-.62,1-1.18,1.52-1.7s.89-1,1.23-1.4.8-.9,1.15-1.32h1.09l-4.51,5.22q-1.92,2.23-3.44,3.67A15.78,15.78,0,0,1,65,42.66a4.55,4.55,0,0,1-2.35.72,2.92,2.92,0,0,1-1.83-.57,3.29,3.29,0,0,1-1.09-1.58,5.67,5.67,0,0,1-.23-2.35,8.87,8.87,0,0,1,.8-2.9,64.64,64.64,0,0,1-5.39,5.59A6.1,6.1,0,0,1,51,43.38a2.81,2.81,0,0,1-2-.75,3.66,3.66,0,0,1-1.07-2,6.91,6.91,0,0,1,.15-3,12.47,12.47,0,0,1,1.55-3.56l5.79-9.29H59L50.78,38.27a4.18,4.18,0,0,0-.8,3.1c.23.77.65,1.15,1.26,1.15A3.38,3.38,0,0,0,53,41.83a19.89,19.89,0,0,0,2.24-1.78c.8-.72,1.61-1.53,2.44-2.41s1.6-1.77,2.35-2.67,1.41-1.74,2-2.52,1-1.43,1.35-1.92Z"/><path class="cls-1" d="M74.48,31.67a60.11,60.11,0,0,1,5-5.19A5.66,5.66,0,0,1,83,24.79a2,2,0,0,1,2.12,1.78c.31,1.18-.06,3-1.09,5.39q1.5-1.83,2.67-3.18a23.61,23.61,0,0,1,2.18-2.24,8.49,8.49,0,0,1,1.92-1.32,4.39,4.39,0,0,1,1.9-.43,3.47,3.47,0,0,1,1.89.54,3.21,3.21,0,0,1,1.26,1.61A5,5,0,0,1,96,29.58a11,11,0,0,1-1.55,3.64l-3.1,5.05a4.13,4.13,0,0,0-.8,3.1c.23.77.65,1.15,1.26,1.15a4.82,4.82,0,0,0,3-1.64q1.73-1.64,4.7-4.84c.54-.62,1-1.18,1.53-1.7s.88-1,1.23-1.4.8-.9,1.15-1.32h1.09L100,36.84q-1.92,2.23-3.44,3.67a15.78,15.78,0,0,1-2.73,2.15,4.55,4.55,0,0,1-2.35.72,2.9,2.9,0,0,1-1.86-.66,3.51,3.51,0,0,1-1.18-1.86,6.26,6.26,0,0,1,0-2.93,12,12,0,0,1,1.66-3.85l2.59-4.18c.8-1.3,1.09-2.34.86-3.1s-.61-1.15-1.15-1.15a4.08,4.08,0,0,0-2.3,1.09,23.34,23.34,0,0,0-2.89,2.81q-1.53,1.72-3.13,3.82c-1.07,1.39-2.07,2.74-3,4S79.4,39.91,78.7,41s-1.22,1.88-1.52,2.38H73.56L81.77,29.9a11,11,0,0,0,1.37-3.1c.16-.77,0-1.15-.57-1.15A4.68,4.68,0,0,0,80,27.2q-1.67,1.55-4.42,4.47Z"/><path class="cls-1" d="M103.17,43.38a2.85,2.85,0,0,1-2-.75,3.65,3.65,0,0,1-1.06-2,7.05,7.05,0,0,1,.14-3,13.06,13.06,0,0,1,1.55-3.56l6.49-10.44H105.7l.45-.75h1a2.77,2.77,0,0,0,2.52-1.49l3.68-5.91a12.41,12.41,0,0,0,4.07-.8l-5,8.2h3.84l-.46.75H112l-9,14.63a4.15,4.15,0,0,0-.81,3.1c.23.77.65,1.15,1.27,1.15a4.82,4.82,0,0,0,3-1.64c1.15-1.09,2.71-2.7,4.7-4.84.54-.62,1-1.18,1.52-1.7s.89-1,1.24-1.4.8-.9,1.15-1.32h1.09q-2.6,3-4.51,5.22t-3.44,3.67a16.17,16.17,0,0,1-2.73,2.15A4.57,4.57,0,0,1,103.17,43.38Z"/><path class="cls-1" d="M114.93,43.38a2.85,2.85,0,0,1-2-.75,3.65,3.65,0,0,1-1.06-2,6.91,6.91,0,0,1,.15-3,12.7,12.7,0,0,1,1.54-3.56l5.8-9.29H123l-8.2,13.48a4.13,4.13,0,0,0-.8,3.1c.23.77.65,1.15,1.26,1.15a4.82,4.82,0,0,0,3-1.64Q120,39.24,123,36c.54-.62,1.05-1.18,1.53-1.7s.89-1,1.23-1.4.8-.9,1.15-1.32H128l-4.51,5.22q-1.92,2.23-3.44,3.67a15.78,15.78,0,0,1-2.73,2.15A4.55,4.55,0,0,1,114.93,43.38Zm7.12-24.9a2,2,0,0,1,.57-1.41,1.9,1.9,0,0,1,1.44-.6,2.05,2.05,0,0,1,2,2,1.89,1.89,0,0,1-.6,1.43,2,2,0,0,1-1.4.58,2,2,0,0,1-2-2Z"/><path class="cls-1" d="M126.87,31.67a58.65,58.65,0,0,1,5-5.19,5.63,5.63,0,0,1,3.5-1.69,2.06,2.06,0,0,1,2.12,1.78c.31,1.18-.06,3-1.09,5.39q1.49-1.83,2.67-3.18a23.61,23.61,0,0,1,2.18-2.24,8.49,8.49,0,0,1,1.92-1.32,4.35,4.35,0,0,1,1.89-.43,3.53,3.53,0,0,1,1.9.54,3.21,3.21,0,0,1,1.26,1.61,4.86,4.86,0,0,1,.11,2.64,10.8,10.8,0,0,1-1.55,3.64l-3.09,5.05a4.15,4.15,0,0,0-.81,3.1c.23.77.65,1.15,1.27,1.15a4.82,4.82,0,0,0,3-1.64q1.71-1.64,4.7-4.84c.54-.62,1-1.18,1.52-1.7s.89-1,1.24-1.4.8-.9,1.14-1.32h1.09l-4.5,5.22q-1.92,2.23-3.44,3.67a16.58,16.58,0,0,1-2.73,2.15,4.57,4.57,0,0,1-2.35.72,3,3,0,0,1-1.87-.66,3.56,3.56,0,0,1-1.17-1.86,6.26,6.26,0,0,1,0-2.93,12,12,0,0,1,1.66-3.85l2.58-4.18c.81-1.3,1.09-2.34.86-3.1s-.61-1.15-1.14-1.15a4.05,4.05,0,0,0-2.3,1.09,23.36,23.36,0,0,0-2.9,2.81q-1.51,1.72-3.12,3.82t-3,4q-1.38,2-2.44,3.59c-.7,1.09-1.21,1.88-1.52,2.38H126l8.2-13.48a10.84,10.84,0,0,0,1.38-3.1c.15-.77,0-1.15-.57-1.15a4.62,4.62,0,0,0-2.58,1.55c-1.11,1-2.59,2.52-4.42,4.47Z"/><path class="cls-1" d="M146.55,61.74a4.44,4.44,0,0,1-3.33-1.23,4,4,0,0,1-1.21-2.9,5.47,5.47,0,0,1,1-3.24,11.77,11.77,0,0,1,2.9-2.79,28.59,28.59,0,0,1,4.47-2.52c1.74-.8,3.68-1.61,5.83-2.41q.85-.34,1.77-.75c.62-.26,1.25-.55,1.9-.86l2.75-4.3a17.28,17.28,0,0,1-2.87,2.15,5.46,5.46,0,0,1-2.75.72,4,4,0,0,1-2.44-.89A4.73,4.73,0,0,1,153,40.17a7.88,7.88,0,0,1,.08-4.05,15.82,15.82,0,0,1,2.81-5.42,14.88,14.88,0,0,1,2.1-2.32,16.89,16.89,0,0,1,2.47-1.87A12.49,12.49,0,0,1,163,25.25a7.57,7.57,0,0,1,2.52-.46,4.15,4.15,0,0,1,3.19,1.09,3.59,3.59,0,0,1,.94,2.64L172,24.79h3.61L165.25,42a43.15,43.15,0,0,0,5.28-4.36,44.05,44.05,0,0,0,5.17-6h1.09a43.68,43.68,0,0,1-6.31,7.4,42.11,42.11,0,0,1-6.32,4.82l-2.46,4.07c-.85,1.46-1.79,3-2.84,4.59A35,35,0,0,1,155.38,57a18.92,18.92,0,0,1-4.1,3.41A8.91,8.91,0,0,1,146.55,61.74Zm12.51-15.2-1.12.43a11.17,11.17,0,0,0-1.06.43q-3.16,1.2-5.71,2.35a28.64,28.64,0,0,0-4.34,2.35,11.05,11.05,0,0,0-2.75,2.56,4.81,4.81,0,0,0-1,2.89,3.2,3.2,0,0,0,.34,1.55,3.24,3.24,0,0,0,.86,1,3.33,3.33,0,0,0,1.12.58,4.24,4.24,0,0,0,1.12.17,4.64,4.64,0,0,0,2.95-1.2,19.19,19.19,0,0,0,2.9-3.07c1-1.25,1.91-2.62,2.87-4.14L158.08,48Zm7.46-20.83a6.13,6.13,0,0,0-3.7,1.46A16.84,16.84,0,0,0,159.23,31a21.43,21.43,0,0,0-2.9,5.31,9.49,9.49,0,0,0-.6,3.59,2.89,2.89,0,0,0,.86,2,2.26,2.26,0,0,0,1.49.66q1.6,0,4-2.66a54.51,54.51,0,0,0,5.22-7.32,9.18,9.18,0,0,0,1.32-2.9,4.79,4.79,0,0,0,.06-2.18,2.63,2.63,0,0,0-.8-1.38A2,2,0,0,0,166.52,25.71Z"/><path class="cls-1" d="M22.2,46.77l1,7L21.44,54l-1.92-5a4.59,4.59,0,0,0-.76-.11l-.8,0h-2.9c-.57,0-1.09,0-1.56.05,0,.23,0,.78,0,1.65s0,1.86,0,3v9.73c0,2,0,3.64.05,5s0,2.28,0,2.63l3.75.49-.09,1.66H6.54l-.09-1.66,3.7-.49c0-.35,0-1.23,0-2.63s0-3.08,0-5V50.61c0-.87,0-1.42,0-1.65-.45,0-.95-.05-1.5-.05H5.64l-.76,0a4.61,4.61,0,0,0-.71.11L2.25,54.09.51,53.82l1-7,1,.09.91.06.89,0H19.37l.87,0,.91-.06Z"/><path class="cls-1" d="M25.5,73.15l-.09-1.48L28.18,71a9.28,9.28,0,0,0,.11-1.45c0-.64,0-1.52.05-2.65s0-2.61,0-4.42V56.9c0-1,0-2.11,0-3.3s0-2.35-.05-3.48,0-2.11,0-2.93,0-1.33,0-1.54l-3.31-.44L24.83,44l5.72-1.74.71.58c0,.92-.05,1.85-.07,2.79s0,1.94,0,3,0,2.27,0,3.61,0,2.88,0,4.6l.14,0a11.21,11.21,0,0,1,3.08-2.41,7.33,7.33,0,0,1,3.21-.71,6.07,6.07,0,0,1,3,.8A6.31,6.31,0,0,1,42.87,57a9.18,9.18,0,0,1,.93,4.42v4.87c0,1.1,0,2.07.09,2.92s.12,1.44.18,1.76l2.77.67-.05,1.48H38.45l-.14-1.48L40.9,71c0-.23.06-.51.09-.82s0-.74.07-1.3,0-1.27,0-2.16V61.63a6.53,6.53,0,0,0-.69-3.23,4.34,4.34,0,0,0-1.76-1.79,4.93,4.93,0,0,0-2.28-.56,5.66,5.66,0,0,0-2.9.78A7.46,7.46,0,0,0,31.13,59v6.78q0,2.14.06,3.51c0,.9.09,1.48.12,1.71l2.76.67L34,73.15Z"/><path class="cls-1" d="M59,73.5a9.27,9.27,0,0,1-4.53-1.11,8.26,8.26,0,0,1-3.24-3.26A10.35,10.35,0,0,1,50,64a11.34,11.34,0,0,1,1.25-5.52,9.11,9.11,0,0,1,3.3-3.54A8,8,0,0,1,59,53.73,6.75,6.75,0,0,1,64.2,56q1.92,2.19,1.92,6.47v.76H52.24V61.32H63.62l-.45.45V61A6.28,6.28,0,0,0,62,56.83a4.16,4.16,0,0,0-3.33-1.45,4.74,4.74,0,0,0-2.57.78,5.6,5.6,0,0,0-2,2.35,8.89,8.89,0,0,0-.76,3.92v.45a8.67,8.67,0,0,0,1.83,5.89,5.94,5.94,0,0,0,4.69,2.1,6.23,6.23,0,0,0,2.85-.63,7.46,7.46,0,0,0,2.41-2l1.07.94a8.44,8.44,0,0,1-3.08,3.3A7.89,7.89,0,0,1,59,73.5Z"/><path class="cls-1" d="M78.75,47H89.1q7,0,10.94,3.37T104,59.76a13.2,13.2,0,0,1-1.83,7,12.66,12.66,0,0,1-5,4.73,15.62,15.62,0,0,1-7.4,1.7H78.75l-.09-1.57L81.34,71a19.56,19.56,0,0,0,.15-2.29c.05-1.24.07-2.63.07-4.18V55.61c0-1.73,0-3.2-.07-4.4a14.6,14.6,0,0,0-.15-2.12l-2.68-.58Zm6.07,2.27c0,.3,0,.67,0,1.1s0,1,0,1.87,0,2,0,3.42v8.92c0,.92,0,1.77,0,2.55s0,1.45.07,2,.06,1.1.09,1.52l2.72.29c.78.07,1.55.11,2.32.11,3.34,0,5.86-.87,7.59-2.61s2.59-4.21,2.59-7.39a17.1,17.1,0,0,0-.71-5.11,10.44,10.44,0,0,0-2.15-3.84,9.18,9.18,0,0,0-3.59-2.41,14.19,14.19,0,0,0-5.07-.82q-.89,0-1.83.06A14.52,14.52,0,0,0,84.82,49.22Z"/><path class="cls-1" d="M115.44,73.5a6.73,6.73,0,0,1-3-.67,5.86,5.86,0,0,1-2.16-1.74,3.75,3.75,0,0,1-.8-2.32,3.19,3.19,0,0,1,1-2.39,8.48,8.48,0,0,1,3.26-1.71l6.74-2.37V59.85a3.38,3.38,0,0,0-.7-2.1,4.63,4.63,0,0,0-1.85-1.48,6.3,6.3,0,0,0-2.63-.53,2.1,2.1,0,0,0-1.63.49,3.67,3.67,0,0,0-.51,2L113,59.85a4,4,0,0,1-2.46-.07,1.48,1.48,0,0,1-1-1.45,2.23,2.23,0,0,1,.6-1.43,7.45,7.45,0,0,1,1.6-1.38,11.35,11.35,0,0,1,2.19-1.14,10.85,10.85,0,0,1,2.44-.65,7.26,7.26,0,0,1,5,1.7,5.81,5.81,0,0,1,2,4.46l-.09,7.86c0,.47,0,1,.06,1.58a5.18,5.18,0,0,0,.21,1.23l2.81.53V72.3l-2,.71q-.58.22-1,.36a2.86,2.86,0,0,1-.78.13A1.58,1.58,0,0,1,120.88,72l-.4-1.7.58,0a11.94,11.94,0,0,1-2.83,2.43A5.56,5.56,0,0,1,115.44,73.5Zm.94-2.23a4.53,4.53,0,0,0,2.12-.53,6.91,6.91,0,0,0,1.94-1.66V64.31l-5.58,1.56a2.7,2.7,0,0,0-1.54.87,2.4,2.4,0,0,0-.47,1.54,2.72,2.72,0,0,0,1.07,2A3.59,3.59,0,0,0,116.38,71.27Z"/><path class="cls-1" d="M137,73.32l-7.77-17.13-2.1-.63.14-1.47h7.9l.08,1.47-2.76.63,6.38,14.32Zm11.11-19.23.13,1.47-2.1.63L138.65,72.3,135,79.71a7.94,7.94,0,0,1-2,2.79,3.82,3.82,0,0,1-2.46.82,2.73,2.73,0,0,1-1.67-.47,1.48,1.48,0,0,1-.65-1.27,1.66,1.66,0,0,1,.47-1.11,3.15,3.15,0,0,1,1.45-.85l3.84-1.16-1.79,2.27,4.82-9.41.5-.76,6.07-14.37-2.77-.63.09-1.47Z"/><path class="cls-1" d="M156.54,73.5a13.31,13.31,0,0,1-3.19-.38,11.11,11.11,0,0,1-2.74-1l-.23-4.64h2l.85,3.21a5.78,5.78,0,0,0,3.62,1.12A4.09,4.09,0,0,0,159.4,71a2.54,2.54,0,0,0,1-2.12,2.92,2.92,0,0,0-.9-2.15,11.5,11.5,0,0,0-3.34-2,16.27,16.27,0,0,1-4.4-2.66A4.21,4.21,0,0,1,150.52,59a4.35,4.35,0,0,1,.89-2.72,6.06,6.06,0,0,1,2.5-1.83,9.5,9.5,0,0,1,3.7-.67,17.18,17.18,0,0,1,2.46.18,9.16,9.16,0,0,1,2.1.53l.49,4.51h-1.88l-1.11-3a3.85,3.85,0,0,0-1.07-.42,6,6,0,0,0-1.39-.16,4.17,4.17,0,0,0-2.59.76,2.44,2.44,0,0,0-1,2,2.8,2.8,0,0,0,1,2.25,18.21,18.21,0,0,0,3.61,2.12,13.42,13.42,0,0,1,4.11,2.66,4.4,4.4,0,0,1,1.16,3.06,4.55,4.55,0,0,1-2,3.77A8.07,8.07,0,0,1,156.54,73.5Z"/></g></g></svg>