<svg xmlns="http://www.w3.org/2000/svg" viewBox="0 0 70.04 70.04"><defs><style>.cls-1{fill:#8a8e6d;}.cls-2{fill:#f2f3eb;}</style></defs><g id="Layer_2" data-name="Layer 2"><g id="Layer_1-2" data-name="Layer 1"><rect class="cls-1" width="70.04" height="70.04" rx="11.44"/><path class="cls-2" d="M23.13,49.11h2.92a4.61,4.61,0,0,1,3.08,1,3.33,3.33,0,0,1,1.1,2.66,3.77,3.77,0,0,1-.51,2A3.64,3.64,0,0,1,28.3,56a4.41,4.41,0,0,1-2.09.48H23.13l0-.44.76-.17c0-.08,0-.3,0-.64s0-.74,0-1.18V51.55c0-.49,0-.9,0-1.24a5.69,5.69,0,0,0,0-.6l-.76-.16Zm1.71.64c0,.08,0,.19,0,.31s0,.29,0,.53,0,.55,0,1v2.51c0,.26,0,.5,0,.72s0,.41,0,.58,0,.31,0,.42l.77.09.65,0a2.88,2.88,0,0,0,2.14-.74,2.81,2.81,0,0,0,.73-2.08,4.86,4.86,0,0,0-.2-1.44,3,3,0,0,0-.6-1.08,2.62,2.62,0,0,0-1-.68,4.06,4.06,0,0,0-1.42-.23l-.52,0A3.84,3.84,0,0,0,24.84,49.75Z"/><path class="cls-2" d="M33.46,56.59A1.83,1.83,0,0,1,32,55.91a1.06,1.06,0,0,1-.22-.65.93.93,0,0,1,.27-.68A2.43,2.43,0,0,1,33,54.1l1.9-.67v-.69a1,1,0,0,0-.19-.59,1.37,1.37,0,0,0-.53-.41,1.72,1.72,0,0,0-.74-.15.62.62,0,0,0-.46.13,1.08,1.08,0,0,0-.14.57l0,.45a1.07,1.07,0,0,1-.69,0,.42.42,0,0,1-.29-.41.66.66,0,0,1,.17-.4,2.67,2.67,0,0,1,.46-.39A3.51,3.51,0,0,1,33,51.2a2.7,2.7,0,0,1,.69-.18,2,2,0,0,1,1.4.48,1.63,1.63,0,0,1,.56,1.25l0,2.22c0,.13,0,.28,0,.44a1.11,1.11,0,0,0,.06.35l.79.15v.34l-.57.2a2.52,2.52,0,0,1-.29.1.69.69,0,0,1-.22,0,.44.44,0,0,1-.45-.42l-.12-.47.17,0a3.65,3.65,0,0,1-.8.69A1.55,1.55,0,0,1,33.46,56.59Zm.27-.63a1.2,1.2,0,0,0,.59-.15,1.94,1.94,0,0,0,.55-.47V54l-1.57.44a.74.74,0,0,0-.43.24.7.7,0,0,0-.14.44.76.76,0,0,0,.31.58A1,1,0,0,0,33.73,56Z"/><path class="cls-2" d="M39.53,56.54l-2.18-4.83-.59-.18,0-.41H39l0,.41-.78.18,1.8,4Zm3.13-5.42,0,.41-.59.18L40,56.25l-1,2.09a2.2,2.2,0,0,1-.55.78,1,1,0,0,1-.69.23.75.75,0,0,1-.47-.13.41.41,0,0,1-.19-.36.5.5,0,0,1,.13-.31,1,1,0,0,1,.41-.24L38.7,58l-.5.64L39.56,56l.14-.21,1.71-4-.78-.18,0-.41Z"/><path class="cls-2" d="M45,56.59a4,4,0,0,1-.9-.11,3,3,0,0,1-.77-.28l-.06-1.31h.56l.24.91a1.65,1.65,0,0,0,1,.31,1.16,1.16,0,0,0,.72-.22.71.71,0,0,0,.28-.6.82.82,0,0,0-.25-.6,3.19,3.19,0,0,0-.94-.55,4.66,4.66,0,0,1-1.24-.75,1.19,1.19,0,0,1-.36-.9,1.29,1.29,0,0,1,.25-.77,1.73,1.73,0,0,1,.71-.51,2.61,2.61,0,0,1,1-.19,5.34,5.34,0,0,1,.69,0,2,2,0,0,1,.59.15l.14,1.27h-.53l-.31-.84a1,1,0,0,0-.3-.12,1.6,1.6,0,0,0-.39-.05,1.17,1.17,0,0,0-.73.22.69.69,0,0,0-.28.56.82.82,0,0,0,.29.64,5.43,5.43,0,0,0,1,.6,4.07,4.07,0,0,1,1.16.74,1.23,1.23,0,0,1,.32.86,1.27,1.27,0,0,1-.56,1.07A2.27,2.27,0,0,1,45,56.59Z"/><path class="cls-2" d="M35.26,40.42a10.33,10.33,0,0,1-5.67-1.57,10.57,10.57,0,0,1-3.88-4.41,14.73,14.73,0,0,1-1.41-6.62A15.48,15.48,0,0,1,25.73,21a11.14,11.14,0,0,1,3.92-4.58,10.13,10.13,0,0,1,5.69-1.66,9.55,9.55,0,0,1,5.39,1.55,10.46,10.46,0,0,1,3.67,4.38,15.37,15.37,0,0,1,1.34,6.64A15.48,15.48,0,0,1,44.34,34a12.19,12.19,0,0,1-3.78,4.71A8.75,8.75,0,0,1,35.26,40.42Zm.33-2.8a3.48,3.48,0,0,0,2.53-1,6.67,6.67,0,0,0,1.59-3.07,20.31,20.31,0,0,0,.55-5.16,18.53,18.53,0,0,0-1.48-8.11q-1.48-3-3.86-3a4.11,4.11,0,0,0-3.63,2.42q-1.38,2.41-1.38,7.09a19.42,19.42,0,0,0,.74,5.7,9.19,9.19,0,0,0,2,3.8A3.91,3.91,0,0,0,35.59,37.62Z"/></g></g></svg>