<svg xmlns="http://www.w3.org/2000/svg" viewBox="0 0 70.04 70.04"><defs><style>.cls-1{fill:#8a8e6d;}.cls-2{fill:#f2f3eb;}</style></defs><g id="Layer_2" data-name="Layer 2"><g id="Layer_1-2" data-name="Layer 1"><rect class="cls-1" width="70.04" height="70.04" rx="11.44"/><path class="cls-2" d="M20.33,56.49l0-.44.76-.17a.94.94,0,0,0,0-.27c0-.14,0-.34,0-.6V50.58c0-.26,0-.46,0-.6a.88.88,0,0,0,0-.27l-.76-.16,0-.44h2.49l0,.44-.77.16a1.25,1.25,0,0,0,0,.23q0,.18,0,.57v4.57q0,.39,0,.57a1.41,1.41,0,0,0,0,.23l.77.17,0,.44ZM21.89,53v-.68l.75,0h2.44l.72,0V53l-.75,0h-2.4C22.34,53,22.08,53,21.89,53Zm3,3.46,0-.44.77-.17a1.41,1.41,0,0,0,0-.23c0-.12,0-.31,0-.57s0-.6,0-1V51.55c0-.44,0-.78,0-1s0-.45,0-.57a1.25,1.25,0,0,0,0-.23l-.77-.16,0-.44H27.4l0,.44-.76.16a.53.53,0,0,0-.05.22c0,.12,0,.31,0,.57s0,.6,0,1v2.51c0,.43,0,.77,0,1s0,.44,0,.56a.6.6,0,0,0,.05.23l.76.17,0,.44Z"/><path class="cls-2" d="M31.22,56.59a2.74,2.74,0,0,1-1.4-.35,2.46,2.46,0,0,1-.93-1,3.22,3.22,0,0,1-.32-1.45,2.91,2.91,0,0,1,.35-1.45,2.63,2.63,0,0,1,1-1A2.73,2.73,0,0,1,31.26,51a2.51,2.51,0,0,1,1.33.34,2.34,2.34,0,0,1,.88,1,3.15,3.15,0,0,1,.31,1.44,3,3,0,0,1-.34,1.43,2.64,2.64,0,0,1-.92,1A2.29,2.29,0,0,1,31.22,56.59Zm.12-.53a1.2,1.2,0,0,0,.8-.28,1.85,1.85,0,0,0,.53-.75,2.85,2.85,0,0,0,.2-1.08,3,3,0,0,0-.48-1.76,1.47,1.47,0,0,0-1.25-.67,1.43,1.43,0,0,0-1.18.59,2.46,2.46,0,0,0-.45,1.55,3.08,3.08,0,0,0,.24,1.26,2.06,2.06,0,0,0,.65.84A1.57,1.57,0,0,0,31.34,56.06Z"/><path class="cls-2" d="M39.87,55.68l.79.2v.38l-1.5.35L39,56.46V55.7l0,0a2.29,2.29,0,0,1-.75.7,1.68,1.68,0,0,1-.81.2,2,2,0,0,1-1.39-.51,1.91,1.91,0,0,1-.57-1.52V53.46c0-.25,0-.5,0-.74s0-.47,0-.7l-.86-.17v-.38L36.12,51l.18.19,0,.81c0,.27,0,.57,0,.88v1.46a1.54,1.54,0,0,0,.38,1.17,1.48,1.48,0,0,0,1,.33,1.7,1.7,0,0,0,.73-.18,1.74,1.74,0,0,0,.66-.64V53c0-.19,0-.37,0-.54A4.23,4.23,0,0,0,39,52L38,51.85v-.38L39.65,51l.16.17c0,.25,0,.47,0,.64s0,.36,0,.53v1.44c0,.54,0,1,0,1.24S39.86,55.56,39.87,55.68Z"/><path class="cls-2" d="M41.49,56.49l0-.42.78-.19a1,1,0,0,0,0-.22c0-.11,0-.26,0-.44V53.53q0-.44,0-.87c0-.29,0-.5-.06-.64l-.8-.17v-.38L42.92,51l.15.17L43,52.28h0a2.62,2.62,0,0,1,.78-1,1.35,1.35,0,0,1,.71-.26.74.74,0,0,1,.46.14.47.47,0,0,1,.19.39A.47.47,0,0,1,45,52a.91.91,0,0,1-.9,0,1.78,1.78,0,0,1-.36-.25l.19.09a2.19,2.19,0,0,0-.47.45,3,3,0,0,0-.41.72v1.22q0,.27,0,.6c0,.22,0,.42,0,.61s0,.34,0,.44l1.09.17,0,.44Z"/><path class="cls-2" d="M47.83,56.59a3.82,3.82,0,0,1-.9-.11,3.1,3.1,0,0,1-.78-.28l-.06-1.31h.57l.24.91a1.6,1.6,0,0,0,1,.31,1.12,1.12,0,0,0,.72-.22.72.72,0,0,0,.29-.6.82.82,0,0,0-.25-.6,3.14,3.14,0,0,0-1-.55,4.74,4.74,0,0,1-1.23-.75,1.19,1.19,0,0,1-.36-.9,1.23,1.23,0,0,1,.25-.77,1.7,1.7,0,0,1,.7-.51A2.66,2.66,0,0,1,48.13,51a5.6,5.6,0,0,1,.69,0,2.2,2.2,0,0,1,.59.15l.14,1.27H49l-.31-.84a1.25,1.25,0,0,0-.31-.12,1.48,1.48,0,0,0-.39-.05,1.2,1.2,0,0,0-.73.22.68.68,0,0,0-.27.56.79.79,0,0,0,.29.64,5.43,5.43,0,0,0,1,.6,4,4,0,0,1,1.15.74,1.23,1.23,0,0,1,.33.86,1.3,1.3,0,0,1-.56,1.07A2.27,2.27,0,0,1,47.83,56.59Z"/><path class="cls-2" d="M35.26,40.42a10.33,10.33,0,0,1-5.67-1.57,10.57,10.57,0,0,1-3.88-4.41,14.73,14.73,0,0,1-1.41-6.62A15.48,15.48,0,0,1,25.73,21a11.14,11.14,0,0,1,3.92-4.58,10.13,10.13,0,0,1,5.69-1.66,9.55,9.55,0,0,1,5.39,1.55,10.46,10.46,0,0,1,3.67,4.38,15.37,15.37,0,0,1,1.34,6.64A15.48,15.48,0,0,1,44.34,34a12.1,12.1,0,0,1-3.78,4.71A8.75,8.75,0,0,1,35.26,40.42Zm.33-2.8a3.46,3.46,0,0,0,2.53-1,6.67,6.67,0,0,0,1.59-3.07,20.31,20.31,0,0,0,.55-5.16,18.53,18.53,0,0,0-1.48-8.11q-1.48-3-3.86-3a4.11,4.11,0,0,0-3.63,2.42q-1.38,2.41-1.38,7.09a19.42,19.42,0,0,0,.74,5.7,9.3,9.3,0,0,0,2,3.8A3.91,3.91,0,0,0,35.59,37.62Z"/></g></g></svg>