<svg xmlns="http://www.w3.org/2000/svg" viewBox="0 0 70.04 70.04"><defs><style>.cls-1{fill:#8a8e6d;}.cls-2{fill:#f2f3eb;}</style></defs><g id="Layer_2" data-name="Layer 2"><g id="Layer_1-2" data-name="Layer 1"><rect class="cls-1" width="70.04" height="70.04" rx="11.44"/><path class="cls-2" d="M23,49.11h2l2.64,6.15h-.17l2.65-6.15H32l0,.44-.77.15c0,.13,0,.37,0,.71s0,.68,0,1l0,2.33c0,.44,0,.79,0,1.07s0,.51,0,.67,0,.3,0,.4l.77.15,0,.44H29.62l0-.44.76-.15c0-.13,0-.25,0-.38V55c0-.24,0-.56,0-1l0-4.53h.26l-3.06,7.06h-.34l-3-7.08h.2v4.26c0,.72,0,1.24,0,1.56s0,.53,0,.61l.86.17,0,.44H22.78l0-.44.85-.17a2.1,2.1,0,0,0,0-.32c0-.15,0-.36,0-.63s0-.6,0-1l0-2.52c0-.32,0-.65,0-1s0-.57,0-.73l-.76-.16Z"/><path class="cls-2" d="M33.15,56.49l0-.43.84-.18a.49.49,0,0,0,0-.15c0-.07,0-.2,0-.39s0-.46,0-.81v-.8c0-.37,0-.72,0-1a6.43,6.43,0,0,0,0-.68l-.84-.17v-.38L34.73,51l.13.16c0,.26,0,.51,0,.76s0,.53,0,.87v1.58c0,.41,0,.74,0,1s0,.41,0,.47l.84.18,0,.43Zm1.26-7a.7.7,0,0,1-.49-.19.6.6,0,0,1-.21-.48.62.62,0,0,1,.21-.47.7.7,0,0,1,.49-.19.66.66,0,0,1,.48.19.65.65,0,0,1,.2.47.63.63,0,0,1-.2.48A.66.66,0,0,1,34.41,49.51Z"/><path class="cls-2" d="M36.47,56.49l0-.42.78-.19c0-.06,0-.14,0-.24s0-.23,0-.41,0-.41,0-.7v-1c0-.29,0-.58,0-.88s0-.51-.06-.65l-.8-.17v-.38L37.92,51l.17.19-.06.66h0a3.12,3.12,0,0,1,.88-.68,2.13,2.13,0,0,1,.91-.2,1.67,1.67,0,0,1,1.5.91,2.41,2.41,0,0,1,.27,1.21v1.42c0,.31,0,.59,0,.83s0,.41.05.49l.78.19,0,.42H40.11l0-.42.73-.19c0-.06,0-.14,0-.23s0-.21,0-.36,0-.36,0-.61V53.23a1.78,1.78,0,0,0-.21-.93,1.27,1.27,0,0,0-.53-.48,1.32,1.32,0,0,0-.59-.15,1.65,1.65,0,0,0-.82.22,2.09,2.09,0,0,0-.65.61v1.91c0,.41,0,.74,0,1s0,.4,0,.5l.78.19,0,.42Z"/><path class="cls-2" d="M45.3,56.59a4,4,0,0,1-.9-.11,2.88,2.88,0,0,1-.77-.28l-.07-1.31h.57l.24.91a1.61,1.61,0,0,0,1,.31,1.11,1.11,0,0,0,.71-.22.69.69,0,0,0,.29-.6.82.82,0,0,0-.25-.6,3.19,3.19,0,0,0-.94-.55A4.66,4.66,0,0,1,44,53.39a1.19,1.19,0,0,1-.36-.9,1.29,1.29,0,0,1,.25-.77,1.67,1.67,0,0,1,.71-.51,2.61,2.61,0,0,1,1-.19,5.34,5.34,0,0,1,.69,0,2.11,2.11,0,0,1,.59.15L47,52.49h-.53l-.31-.84a1.34,1.34,0,0,0-.3-.12,1.6,1.6,0,0,0-.39-.05,1.17,1.17,0,0,0-.73.22.66.66,0,0,0-.28.56.82.82,0,0,0,.29.64,5.43,5.43,0,0,0,1,.6,4.07,4.07,0,0,1,1.16.74,1.31,1.31,0,0,1-.24,1.93A2.27,2.27,0,0,1,45.3,56.59Z"/><path class="cls-2" d="M35.26,40.42a10.33,10.33,0,0,1-5.67-1.57,10.57,10.57,0,0,1-3.88-4.41,14.73,14.73,0,0,1-1.41-6.62A15.48,15.48,0,0,1,25.73,21a11.14,11.14,0,0,1,3.92-4.58,10.13,10.13,0,0,1,5.69-1.66,9.55,9.55,0,0,1,5.39,1.55,10.46,10.46,0,0,1,3.67,4.38,15.37,15.37,0,0,1,1.34,6.64A15.48,15.48,0,0,1,44.34,34a12.1,12.1,0,0,1-3.78,4.71A8.75,8.75,0,0,1,35.26,40.42Zm.33-2.8a3.48,3.48,0,0,0,2.53-1,6.67,6.67,0,0,0,1.59-3.07,20.31,20.31,0,0,0,.55-5.16,18.53,18.53,0,0,0-1.48-8.11q-1.48-3-3.86-3a4.11,4.11,0,0,0-3.63,2.42q-1.38,2.41-1.38,7.09a19.76,19.76,0,0,0,.74,5.7,9.3,9.3,0,0,0,2,3.8A3.91,3.91,0,0,0,35.59,37.62Z"/></g></g></svg>