<svg xmlns="http://www.w3.org/2000/svg" viewBox="0 0 177 34.14"><defs><style>.cls-1{fill:#f2f3eb;stroke:#b69991;stroke-miterlimit:10;}.cls-2{fill:#b69991;}</style></defs><g id="Layer_2" data-name="Layer 2"><g id="Layer_1-2" data-name="Layer 1"><rect class="cls-1" x="0.5" y="0.5" width="176" height="33.14" rx="16.57"/><path class="cls-2" d="M55.88,20.94a4.88,4.88,0,0,1-2.53-.64,4.55,4.55,0,0,1-1.72-1.76,5.4,5.4,0,0,1-.62-2.6,5.17,5.17,0,0,1,.64-2.6,4.7,4.7,0,0,1,1.75-1.79,4.85,4.85,0,0,1,2.53-.66,4.62,4.62,0,0,1,2.42.63A4.37,4.37,0,0,1,60,13.27a5.65,5.65,0,0,1,.58,2.59,5.33,5.33,0,0,1-1.35,3.6,4.7,4.7,0,0,1-1.48,1.09A4.42,4.42,0,0,1,55.88,20.94Zm.16-.8a2.81,2.81,0,0,0,1.64-.48,3.21,3.21,0,0,0,1.08-1.36,5,5,0,0,0,.39-2.05,6.08,6.08,0,0,0-.44-2.4,3.77,3.77,0,0,0-1.19-1.62,2.81,2.81,0,0,0-1.79-.59,2.88,2.88,0,0,0-2.37,1.08,4.57,4.57,0,0,0-.87,2.95A5.44,5.44,0,0,0,53,18a3.79,3.79,0,0,0,1.26,1.59A3.08,3.08,0,0,0,56,20.14Z"/><path class="cls-2" d="M62,24.44l0-.55,1-.25c0-.05,0-.14,0-.26s0-.29,0-.49,0-.46,0-.75,0-.64,0-1l0-4.33c0-.33,0-.69,0-1.06s-.05-.64-.07-.82l-1.06-.23v-.5l2-.56.23.25-.06.89h0a3.38,3.38,0,0,1,1-.89,2.47,2.47,0,0,1,1.17-.29A2.94,2.94,0,0,1,68,14a3.18,3.18,0,0,1,1.12,1.26,4,4,0,0,1,.4,1.79,3.94,3.94,0,0,1-.5,2A3.64,3.64,0,0,1,65.8,20.9a4.53,4.53,0,0,1-.88-.09,5.54,5.54,0,0,1-.83-.22V21.9q0,.64,0,1.08c0,.29,0,.51,0,.66l1.36.2,0,.6Zm3.89-4.25a2.35,2.35,0,0,0,1.24-.34,2.28,2.28,0,0,0,.84-1,3.53,3.53,0,0,0,.33-1.53A3.3,3.3,0,0,0,68,15.93a2.5,2.5,0,0,0-.8-1A1.91,1.91,0,0,0,66,14.51a2.11,2.11,0,0,0-1,.27,3,3,0,0,0-.88.76v4.08a2.52,2.52,0,0,0,.83.43A3.41,3.41,0,0,0,65.87,20.19Z"/><path class="cls-2" d="M74.29,20.92a3.44,3.44,0,0,1-1.69-.42,3,3,0,0,1-1.2-1.21A3.83,3.83,0,0,1,71,17.38a4.25,4.25,0,0,1,.46-2A3.41,3.41,0,0,1,72.64,14a3,3,0,0,1,1.65-.45,2.5,2.5,0,0,1,1.94.83,3.61,3.61,0,0,1,.71,2.41v.28H71.78v-.69H76l-.16.16v-.3a2.33,2.33,0,0,0-.46-1.53,1.54,1.54,0,0,0-1.24-.54,1.76,1.76,0,0,0-1,.29,2,2,0,0,0-.74.87,3.31,3.31,0,0,0-.28,1.46V17a3.19,3.19,0,0,0,.68,2.19,2.2,2.2,0,0,0,1.74.78,2.39,2.39,0,0,0,1.06-.23,2.85,2.85,0,0,0,.9-.77l.4.35a3.12,3.12,0,0,1-1.15,1.23A2.9,2.9,0,0,1,74.29,20.92Z"/><path class="cls-2" d="M78.17,20.79l0-.55,1-.25a2.92,2.92,0,0,0,0-.33c0-.12,0-.3,0-.53s0-.55,0-.93V16.9c0-.37,0-.76,0-1.15s0-.68-.07-.86l-1.06-.23v-.5l2-.56.23.25-.08.86,0,0a4.51,4.51,0,0,1,1.16-.9,2.71,2.71,0,0,1,1.2-.27,2.33,2.33,0,0,1,1.11.29,2.3,2.3,0,0,1,.88.92,3.27,3.27,0,0,1,.35,1.6v1.88c0,.41,0,.77,0,1.09a6,6,0,0,0,.07.65l1,.25,0,.55H83l0-.55,1-.25c0-.09,0-.19,0-.31s0-.27,0-.48,0-.47,0-.8V16.49a2.28,2.28,0,0,0-.29-1.23,1.62,1.62,0,0,0-.69-.64,1.79,1.79,0,0,0-.78-.19,2,2,0,0,0-1.08.29,2.75,2.75,0,0,0-.87.8v2.53c0,.54,0,1,0,1.27s0,.54,0,.67l1,.25,0,.55Z"/><path class="cls-2" d="M90.71,11H93.4l3.48,8.12h-.23l3.5-8.12h2.48l0,.58-1,.2c0,.18,0,.49,0,.94s0,.9,0,1.35l0,3.07c0,.58,0,1.05,0,1.42s0,.67,0,.88,0,.39,0,.53l1,.19,0,.59H99.52l0-.59,1-.19c0-.17,0-.34,0-.5v-.72c0-.31,0-.74,0-1.29l0-6h.34l-4,9.32h-.45l-4-9.35h.26v5.63c0,.95,0,1.64,0,2.06s0,.7,0,.81l1.12.21,0,.59H90.49l0-.59L91.57,20a3.94,3.94,0,0,0,0-.43c0-.2,0-.48,0-.83s0-.79,0-1.31l0-3.32c0-.44,0-.87,0-1.3s0-.75,0-1l-1-.22Z"/><path class="cls-2" d="M107,20.92a2.43,2.43,0,0,1-1.12-.25,2.2,2.2,0,0,1-.81-.65,1.39,1.39,0,0,1-.3-.86,1.17,1.17,0,0,1,.37-.89,3.12,3.12,0,0,1,1.21-.64l2.5-.88v-.91a1.27,1.27,0,0,0-.25-.78,1.72,1.72,0,0,0-.69-.55,2.38,2.38,0,0,0-1-.2.81.81,0,0,0-.61.18,1.43,1.43,0,0,0-.19.75l0,.6a1.39,1.39,0,0,1-.91,0,.54.54,0,0,1-.39-.54.85.85,0,0,1,.23-.53,2.86,2.86,0,0,1,.6-.51,3.88,3.88,0,0,1,.81-.42,4,4,0,0,1,.9-.25,2.65,2.65,0,0,1,1.86.64,2.13,2.13,0,0,1,.73,1.66l0,2.92c0,.17,0,.37,0,.59a1.75,1.75,0,0,0,.07.45l1,.2v.45l-.75.27c-.14.05-.27.1-.39.13a1.26,1.26,0,0,1-.29.05c-.32,0-.52-.18-.6-.55l-.15-.63.22,0a4.65,4.65,0,0,1-1.06.91A2.06,2.06,0,0,1,107,20.92Zm.34-.83a1.68,1.68,0,0,0,.79-.2,2.49,2.49,0,0,0,.72-.61V17.5l-2.07.58a1,1,0,0,0-.57.32A.89.89,0,0,0,106,19a1,1,0,0,0,.4.76A1.37,1.37,0,0,0,107.32,20.09Z"/><path class="cls-2" d="M112,24.44l0-.55,1-.25c0-.05,0-.14,0-.26s0-.29,0-.49,0-.46,0-.75,0-.64,0-1l0-4.33c0-.33,0-.69,0-1.06s-.05-.64-.07-.82l-1.06-.23v-.5l2-.56.23.25-.06.89h.05a3.38,3.38,0,0,1,1-.89,2.48,2.48,0,0,1,1.18-.29A3,3,0,0,1,118,14a3.24,3.24,0,0,1,1.11,1.26,4,4,0,0,1,.4,1.79,3.94,3.94,0,0,1-.5,2,3.64,3.64,0,0,1-3.21,1.84,4.53,4.53,0,0,1-.88-.09,5.54,5.54,0,0,1-.83-.22V21.9q0,.64,0,1.08c0,.29,0,.51,0,.66l1.36.2,0,.6Zm3.88-4.25a2.33,2.33,0,0,0,1.24-.34,2.28,2.28,0,0,0,.84-1,3.53,3.53,0,0,0,.33-1.53,3.3,3.3,0,0,0-.27-1.42,2.5,2.5,0,0,0-.8-1,1.91,1.91,0,0,0-1.19-.39,2.13,2.13,0,0,0-1.05.27,3,3,0,0,0-.88.76v4.08a2.52,2.52,0,0,0,.83.43A3.41,3.41,0,0,0,115.89,20.19Z"/><path class="cls-2" d="M123.51,20.92a5.37,5.37,0,0,1-1.19-.14,4.34,4.34,0,0,1-1-.38l-.08-1.72H122l.31,1.19a2.17,2.17,0,0,0,1.35.42,1.52,1.52,0,0,0,.94-.29.94.94,0,0,0,.38-.79,1.09,1.09,0,0,0-.33-.8,4.33,4.33,0,0,0-1.24-.73,5.89,5.89,0,0,1-1.64-1,1.58,1.58,0,0,1-.47-1.18,1.64,1.64,0,0,1,.33-1,2.3,2.3,0,0,1,.93-.68,3.69,3.69,0,0,1,1.38-.25,7.11,7.11,0,0,1,.91.07,3,3,0,0,1,.78.2l.18,1.68h-.69l-.42-1.12a1.68,1.68,0,0,0-.4-.15,2,2,0,0,0-.51-.06,1.5,1.5,0,0,0-1,.28.89.89,0,0,0-.37.75,1.07,1.07,0,0,0,.38.84,7,7,0,0,0,1.35.78,5.29,5.29,0,0,1,1.53,1,1.71,1.71,0,0,1-.31,2.54A3,3,0,0,1,123.51,20.92Z"/></g></g></svg>