<svg xmlns="http://www.w3.org/2000/svg" viewBox="0 0 91.01 16.45"><defs><style>.cls-1{fill:#8a8e6d;}</style></defs><g id="Layer_2" data-name="Layer 2"><g id="Layer_1-2" data-name="Layer 1"><path class="cls-1" d="M1.07,19.2,1,18.1l1.41-.35c0-.07,0-.25,0-.56s0-.73,0-1.24,0-1.11,0-1.78l0-4c0-.65,0-1.22,0-1.72s0-.91,0-1.21a3.16,3.16,0,0,0,0-.52L.93,6.3,1,5.21H9.28l1.17,0,1-.06.59,3.41-1.29.17-.88-2a3.85,3.85,0,0,0-.49-.08l-.51,0H6.79L6,6.54a4.74,4.74,0,0,0-.67.08c0,.06,0,.16,0,.29s0,.32,0,.54V9.59l0,5.34c0,.47,0,.9,0,1.3s0,.75,0,1a3.86,3.86,0,0,0,0,.5l1.93.31L7.32,19.2Zm8-4.58-.26-1.69-.56-.07c-.21,0-.46,0-.72,0H5.91c-.25,0-.49,0-.7,0l-.63.05V11.36l.6.05.73,0H7.49l.81,0c.22,0,.38,0,.47-.05L9,9.76H10.3v4.86Z" transform="translate(-0.93 -2.97)"/><path class="cls-1" d="M12.75,19.2l-.07-1.05,1.6-.36c0-.06,0-.19.05-.4s0-.48,0-.82,0-.75,0-1.21l0-1.81c0-.49,0-1-.05-1.37A8.41,8.41,0,0,0,14.21,11l-1.6-.33v-1l4.08-1,.54.4c0,.49-.08,1-.1,1.49s0,1.08,0,1.73v3c0,.59,0,1.12,0,1.6a4.2,4.2,0,0,0,.1.9l1.6.36-.07,1.05Zm3-12.75a1.76,1.76,0,0,1-1.33-.51,1.75,1.75,0,0,1,0-2.45A1.73,1.73,0,0,1,15.78,3a1.67,1.67,0,0,1,1.31.52,1.8,1.8,0,0,1,0,2.45A1.7,1.7,0,0,1,15.78,6.45Z" transform="translate(-0.93 -2.97)"/><path class="cls-1" d="M19.69,19.2l-.07-1,1.48-.39a3.33,3.33,0,0,0,0-.4c0-.21,0-.48.05-.82s0-.75,0-1.21l0-1.81c0-.49,0-1,0-1.37A8.37,8.37,0,0,0,21,11l-1.52-.33v-1l3.84-1,.52.38L23.77,11l.07,0a4.78,4.78,0,0,1,1.4-1.81,2.58,2.58,0,0,1,1.43-.48A1.75,1.75,0,0,1,27.74,9a1.23,1.23,0,0,1,.44,1,1.28,1.28,0,0,1-.48,1.07,1.75,1.75,0,0,1-1.15.38,2.3,2.3,0,0,1-.95-.19,3.36,3.36,0,0,1-.9-.64l.57.07a3.91,3.91,0,0,0-.74.73,5.68,5.68,0,0,0-.65,1l0,2c0,.53,0,1,.05,1.47s0,.84,0,1.17,0,.55.05.67l2.08.34-.08,1.07Z" transform="translate(-0.93 -2.97)"/><path class="cls-1" d="M33,19.39a8.87,8.87,0,0,1-1.91-.21,6.58,6.58,0,0,1-1.6-.57l-.12-2.72h1.41l.5,1.71a3.39,3.39,0,0,0,1.88.55,1.94,1.94,0,0,0,1.2-.33,1.07,1.07,0,0,0,.42-.88,1.32,1.32,0,0,0-.42-1,6,6,0,0,0-1.74-.91,6.74,6.74,0,0,1-2.44-1.4,2.63,2.63,0,0,1-.69-1.86A2.54,2.54,0,0,1,30,10.14,3.77,3.77,0,0,1,31.62,9,6.32,6.32,0,0,1,34,8.62a8.41,8.41,0,0,1,1.49.13,4.9,4.9,0,0,1,1.25.37L37,11.79H35.59L35,10.12a2.12,2.12,0,0,0-.57-.23,3.07,3.07,0,0,0-.67-.08,2,2,0,0,0-1.23.35,1,1,0,0,0-.46.89,1.21,1.21,0,0,0,.54,1,10,10,0,0,0,1.91,1,6.6,6.6,0,0,1,2.23,1.38,2.52,2.52,0,0,1,.66,1.77,2.72,2.72,0,0,1-1.25,2.31A5.48,5.48,0,0,1,33,19.39Z" transform="translate(-0.93 -2.97)"/><path class="cls-1" d="M46.77,17.37a3.11,3.11,0,0,1-1.28,1.5,3.67,3.67,0,0,1-1.94.55,3.72,3.72,0,0,1-2.61-.93,3.63,3.63,0,0,1-1-2.82L40,10.24H38.33V9.55L42,6.5h.69l0,3.14-.05,5.72a2.1,2.1,0,0,0,.5,1.56,1.92,1.92,0,0,0,1.41.49,2.26,2.26,0,0,0,.92-.19,2.49,2.49,0,0,0,.77-.5Zm-5.34-7.13V8.83H46.1v1.41Z" transform="translate(-0.93 -2.97)"/><path class="cls-1" d="M52.47,5.21h4.72l5,10.84h-.6L66.2,5.21h4.6l.07,1.09-1.5.34a8.07,8.07,0,0,0,0,1c0,.53,0,1.21,0,2.05L69.56,14c0,.7.06,1.31.08,1.84s0,1,.07,1.29l.06.66,1.5.35-.07,1.1h-6l-.08-1.1,1.51-.35q0-.12,0-.54c0-.28,0-.67,0-1.19s0-1.16,0-1.92l-.07-8.2h.93l-5.7,13.37H60.55L54.35,5.9h1.17l0,8.15c0,1.26,0,2.16,0,2.7s0,.87,0,1l1.65.35-.07,1.1H52.13l-.07-1.1,1.65-.35c0-.11,0-.33,0-.66s0-.73,0-1.2,0-1,0-1.55l.08-4.58c0-.89,0-1.58,0-2.06s0-.83,0-1L52.4,6.3Z" transform="translate(-0.93 -2.97)"/><path class="cls-1" d="M78.21,19.39a5.28,5.28,0,0,1-2.66-.67,4.78,4.78,0,0,1-1.84-1.84A5.37,5.37,0,0,1,73,14.17a5.59,5.59,0,0,1,.74-2.92A5.39,5.39,0,0,1,75.71,9.3a4.7,4.7,0,0,1,2.55-.68,4,4,0,0,1,3.16,1.31,5.06,5.06,0,0,1,1.08,3.36v.52h-7V12.62h5l-.34.5v-.71a3.07,3.07,0,0,0-.53-1.89,1.79,1.79,0,0,0-1.49-.69,2,2,0,0,0-1.15.36,2.47,2.47,0,0,0-.83,1.07,4.49,4.49,0,0,0-.31,1.79v.43a4.07,4.07,0,0,0,.92,2.81,3.07,3.07,0,0,0,2.44,1.05,3.51,3.51,0,0,0,1.47-.3,3.79,3.79,0,0,0,1.29-1l.7.62a4.77,4.77,0,0,1-1.83,2.07A4.89,4.89,0,0,1,78.21,19.39Z" transform="translate(-0.93 -2.97)"/><path class="cls-1" d="M91.94,17.37a3.09,3.09,0,0,1-1.27,1.5,4,4,0,0,1-4.56-.38,3.66,3.66,0,0,1-1-2.82l.07-5.43H83.5V9.55L87.2,6.5h.69l0,3.14,0,5.72a2.1,2.1,0,0,0,.5,1.56,1.94,1.94,0,0,0,1.41.49,2.26,2.26,0,0,0,.92-.19,2.49,2.49,0,0,0,.77-.5ZM86.6,10.24V8.83h4.67v1.41Z" transform="translate(-0.93 -2.97)"/></g></g></svg>