<svg xmlns="http://www.w3.org/2000/svg" viewBox="0 0 11.64 2.23"><defs><style>.cls-1{opacity:0.53;}.cls-2{fill:#f2f3eb;}</style></defs><g id="Layer_2" data-name="Layer 2"><g id="Layer_1-2" data-name="Layer 1"><g class="cls-1"><path class="cls-2" d="M2.34,17.36A1.17,1.17,0,0,1,1.5,17a1.07,1.07,0,0,1-.33-.81,1,1,0,0,1,.15-.56,1.12,1.12,0,0,1,.41-.4,1.2,1.2,0,0,1,.59-.14,1.16,1.16,0,0,1,.85.31,1.16,1.16,0,0,1,0,1.6A1.13,1.13,0,0,1,2.34,17.36Z" transform="translate(-1.17 -15.13)"/><path class="cls-2" d="M7,17.36A1.17,1.17,0,0,1,6.16,17a1.07,1.07,0,0,1-.33-.81A1,1,0,0,1,6,15.67a1.08,1.08,0,0,1,.42-.4A1.13,1.13,0,0,1,7,15.13a1.14,1.14,0,0,1,.85.31,1.16,1.16,0,0,1,0,1.6A1.13,1.13,0,0,1,7,17.36Z" transform="translate(-1.17 -15.13)"/><path class="cls-2" d="M11.66,17.36a1.17,1.17,0,0,1-.84-.32,1.07,1.07,0,0,1-.33-.81,1,1,0,0,1,.15-.56,1.08,1.08,0,0,1,.42-.4,1.16,1.16,0,0,1,.58-.14,1.18,1.18,0,0,1,.86.31,1.19,1.19,0,0,1,0,1.6A1.15,1.15,0,0,1,11.66,17.36Z" transform="translate(-1.17 -15.13)"/></g></g></g></svg>