<svg xmlns="http://www.w3.org/2000/svg" viewBox="0 0 8.73 12.77"><defs><style>.cls-1{fill:#f2f3eb;}</style></defs><g id="Layer_2" data-name="Layer 2"><g id="Layer_1-2" data-name="Layer 1"><path class="cls-1" d="M1.11,17.19,1,16.55A39.23,39.23,0,0,0,4.31,13.3a10.84,10.84,0,0,0,1.76-2.54,5.51,5.51,0,0,0,.53-2.3,2.81,2.81,0,0,0-.67-2A2.44,2.44,0,0,0,4,5.76,3.33,3.33,0,0,0,1.11,7.48L.6,7.12A4.38,4.38,0,0,1,2.13,5.17a4,4,0,0,1,2.3-.71,4.14,4.14,0,0,1,2,.46A3.41,3.41,0,0,1,7.77,6.18a3.56,3.56,0,0,1,.49,1.9,6.59,6.59,0,0,1-1.45,3.77,20.79,20.79,0,0,1-4.36,4.23l.1-.34H7.24l.38,0a.82.82,0,0,0,.26-.06L8.6,13.8l.72.09-.4,3.34c-.21,0-.41,0-.6-.05l-.59,0H1.86Q1.47,17.16,1.11,17.19Z" transform="translate(-0.6 -4.46)"/></g></g></svg>