<svg xmlns="http://www.w3.org/2000/svg" viewBox="0 0 7.83 12.88"><defs><style>.cls-1{fill:#f2f3eb;}</style></defs><g id="Layer_2" data-name="Layer 2"><g id="Layer_1-2" data-name="Layer 1"><path class="cls-1" d="M5.39,10.44l-.07-.23a4.41,4.41,0,0,1,2.7.91,2.79,2.79,0,0,1,1,2.26,3.26,3.26,0,0,1-.68,2A4.78,4.78,0,0,1,6.6,16.81a5.34,5.34,0,0,1-2.36.53,5.79,5.79,0,0,1-1.52-.19,2.46,2.46,0,0,1-1-.54,1,1,0,0,1-.36-.78.69.69,0,0,1,.21-.51.7.7,0,0,1,.51-.22,1.43,1.43,0,0,1,.58.11,2.94,2.94,0,0,1,.64.45l1.28,1.06-1.11-.3a4.3,4.3,0,0,0,2.08-.14,3,3,0,0,0,1.45-1,2.51,2.51,0,0,0,.53-1.63,2.43,2.43,0,0,0-.76-1.88,2.93,2.93,0,0,0-2.07-.7l-.61,0-.66.07-.09-.86a4.76,4.76,0,0,0,2.5-.85A2.15,2.15,0,0,0,6.64,7.7,1.75,1.75,0,0,0,6,6.25a2.55,2.55,0,0,0-1.68-.51,3.2,3.2,0,0,0-1.42.32,3.27,3.27,0,0,0-1.22,1L1.19,6.7A3.72,3.72,0,0,1,2.68,5.07a4.07,4.07,0,0,1,2.17-.61,3.5,3.5,0,0,1,2.39.77,2.5,2.5,0,0,1,.89,2,2.87,2.87,0,0,1-.74,1.94A4.82,4.82,0,0,1,5.39,10.44Z" transform="translate(-1.19 -4.46)"/></g></g></svg>