<svg xmlns="http://www.w3.org/2000/svg" viewBox="0 0 136.07 40.19"><defs><style>.cls-1{fill:#f2f3eb;stroke:#f2f3eb;stroke-miterlimit:10;}.cls-2{fill:#b69991;}</style></defs><g id="Layer_2" data-name="Layer 2"><g id="Layer_1-2" data-name="Layer 1"><rect class="cls-1" x="0.5" y="0.5" width="135.07" height="39.19" rx="11.67"/><path class="cls-2" d="M12.9,24.26l0-.58.81-.21,3.42-8.72.85-.53,3.55,9.25.83.21,0,.58H19.23l0-.58,1-.21-1-2.56-.18-.5-1.86-4.66.35-.32-1.83,5-.18.5-.92,2.54,1,.21,0,.58Zm2.24-3.13v-.82l.9,0h2.83l.89,0v.82l-1.24,0H16.43Z"/><path class="cls-2" d="M22.91,24.26l0-.56L24,23.47a5.28,5.28,0,0,0,0-.53c0-.24,0-.57,0-1s0-1,0-1.65V18.22c0-.42,0-.86,0-1.32s0-.89,0-1.3,0-.76,0-1,0-.46,0-.52l-1.23-.17,0-.46,2.16-.65.27.21c0,.48,0,.95,0,1.42s0,1,0,1.55,0,1.25,0,2l0,2.74c0,.62,0,1.19,0,1.71s0,.86.05,1l1.07.23,0,.56Z"/><path class="cls-2" d="M27.24,24.26l0-.56,1.08-.23a3.37,3.37,0,0,0,0-.53c0-.24,0-.57,0-1s0-1,0-1.65V18.22c0-.42,0-.86,0-1.32s0-.89,0-1.3,0-.76,0-1V14l-1.23-.17,0-.46,2.16-.65.27.21,0,1.42c0,.46,0,1,0,1.55s0,1.25,0,2v2.74q0,.93,0,1.71c0,.52,0,.86,0,1l1.08.23,0,.56Z"/><path class="cls-2" d="M35.26,24.4a3.58,3.58,0,0,1-1.85-.47,3.19,3.19,0,0,1-1.22-1.3,4.11,4.11,0,0,1-.43-1.92,3.85,3.85,0,0,1,.47-1.92A3.54,3.54,0,0,1,35.31,17a3.34,3.34,0,0,1,1.76.45,3,3,0,0,1,1.16,1.27,4.12,4.12,0,0,1,.42,1.9,3.87,3.87,0,0,1-.45,1.88A3.61,3.61,0,0,1,37,23.89,3,3,0,0,1,35.26,24.4Zm.17-.7a1.54,1.54,0,0,0,1-.37,2.38,2.38,0,0,0,.71-1,3.8,3.8,0,0,0,.26-1.43,4,4,0,0,0-.63-2.32,1.91,1.91,0,0,0-1.65-.88,1.87,1.87,0,0,0-1.56.77,3.25,3.25,0,0,0-.6,2.05,4.1,4.1,0,0,0,.32,1.66,2.7,2.7,0,0,0,.86,1.11A2.05,2.05,0,0,0,35.43,23.7Z"/><path class="cls-2" d="M42.83,24.33,40.21,18l-.78-.24,0-.55h2.79l0,.55-.84.24,2.12,5.32-.48,0,2.26-5.53.4,1-2.46,5.56Zm4.72,0L45.07,18l-.84-.24,0-.55H47l0,.55L46.2,18l2,5.32-.4,0,2-5.34-.87-.24,0-.55h2.5l0,.55-.78.24L48,24.33Z"/><path class="cls-2" d="M55.65,24.26l0-.58.94-.21s0-.13,0-.26,0-.35,0-.68,0-.79,0-1.39l0-3.57c0-.58,0-1,0-1.34s0-.53,0-.65a.92.92,0,0,0,0-.23l-1-.25,0-.58H59a3.78,3.78,0,0,1,2.43.72,2.52,2.52,0,0,1,.89,2.07,2.68,2.68,0,0,1-.47,1.6,3.08,3.08,0,0,1-1.25,1,3.87,3.87,0,0,1-1.66.36,5.58,5.58,0,0,1-.73-.05,5.43,5.43,0,0,1-.62-.09v-.81a6.61,6.61,0,0,0,.72.16,3.86,3.86,0,0,0,.58,0,2.47,2.47,0,0,0,1.61-.48A1.93,1.93,0,0,0,61,17.52a2.27,2.27,0,0,0-.64-1.76,2.32,2.32,0,0,0-1.57-.56h-1v.46c0,.25,0,.54,0,.88s0,.68,0,1l0,3.57c0,.6,0,1.06,0,1.37s0,.54,0,.67,0,.21,0,.25l1.38.22,0,.61Z"/><path class="cls-2" d="M70.34,23.2l1,.27V24l-2,.47-.18-.2,0-1,0,0a3.3,3.3,0,0,1-1,.92,2.32,2.32,0,0,1-1.07.26,2.71,2.71,0,0,1-1.85-.66,2.6,2.6,0,0,1-.74-2V20.26c0-.33,0-.65,0-1s0-.62-.06-.92l-1.12-.23v-.5l2-.56.24.24c0,.35,0,.7,0,1.07s0,.75,0,1.16l0,1.92A2,2,0,0,0,66.07,23a1.87,1.87,0,0,0,1.3.45,2.21,2.21,0,0,0,1-.25,2.29,2.29,0,0,0,.88-.85v-2c0-.24,0-.49,0-.74s0-.48,0-.71,0-.4-.05-.56l-1.21-.23v-.5l2.14-.56.2.21c0,.33,0,.62,0,.86v2.59c0,.71,0,1.26,0,1.64S70.33,23,70.34,23.2Z"/><path class="cls-2" d="M73.23,23.83c0-.39,0-.71,0-1V17.06c0-.43,0-.86,0-1.29s0-.8,0-1.11,0-.52,0-.62L72,13.87l0-.46,2.13-.65.26.21c0,.47,0,.94,0,1.41s0,1,0,1.62,0,1.38,0,2.29h0a3.42,3.42,0,0,1,1-.92A2.75,2.75,0,0,1,76.7,17a3,3,0,0,1,2.65,1.55,3.79,3.79,0,0,1,.42,1.86,3.87,3.87,0,0,1-.56,2.07,4,4,0,0,1-1.47,1.39,4.15,4.15,0,0,1-1.95.49,5.94,5.94,0,0,1-1.39-.17A5.49,5.49,0,0,1,73.23,23.83Zm2.91-.18a2.19,2.19,0,0,0,1.71-.78,3.29,3.29,0,0,0,.69-2.18,2.67,2.67,0,0,0-.64-2,2.42,2.42,0,0,0-2.74-.42,2.42,2.42,0,0,0-.88.76v4.12a3.49,3.49,0,0,0,.8.39A3.63,3.63,0,0,0,76.14,23.65Z"/><path class="cls-2" d="M81,24.26l0-.56,1.08-.23a5.28,5.28,0,0,0,0-.53c0-.24,0-.57,0-1s0-1,0-1.65V18.22c0-.42,0-.86,0-1.32s0-.89,0-1.3,0-.76,0-1,0-.46,0-.52l-1.23-.17,0-.46L83,12.76l.26.21,0,1.42c0,.46,0,1,0,1.55s0,1.25,0,2l0,2.74q0,.93,0,1.71c0,.52,0,.86,0,1l1.08.23,0,.56Z"/><path class="cls-2" d="M85.32,24.26l0-.56,1.12-.23s0-.12,0-.21,0-.27,0-.52,0-.6,0-1.07v-1c0-.5,0-1,0-1.37s0-.71-.06-.89l-1.12-.23v-.5l2.16-.56.18.19c0,.35,0,.68,0,1s0,.71,0,1.15v2.09c0,.55,0,1,0,1.32s0,.54,0,.63l1.11.23,0,.56ZM87,15.05a.93.93,0,0,1-.65-.25.84.84,0,0,1,0-1.25.94.94,0,0,1,.65-.26.89.89,0,0,1,.63.26.88.88,0,0,1,0,1.25A.88.88,0,0,1,87,15.05Z"/><path class="cls-2" d="M93.17,24.4A3.38,3.38,0,0,1,91.51,24a3,3,0,0,1-1.22-1.21,3.75,3.75,0,0,1-.46-1.93,3.91,3.91,0,0,1,.48-1.95,3.61,3.61,0,0,1,1.31-1.35,3.56,3.56,0,0,1,1.85-.5,3.41,3.41,0,0,1,1.2.18,1.65,1.65,0,0,1,.72.45.89.89,0,0,1,.24.58.56.56,0,0,1-.15.41.51.51,0,0,1-.42.16.84.84,0,0,1-.44-.1,2.64,2.64,0,0,1-.46-.4l-.74-.8.51.17a2.23,2.23,0,0,0-1.35.12,2.38,2.38,0,0,0-1.09,1,3.43,3.43,0,0,0-.43,1.82,2.88,2.88,0,0,0,.7,2.08,2.3,2.3,0,0,0,1.72.73,2.41,2.41,0,0,0,1.14-.24,2.57,2.57,0,0,0,.87-.74l.42.35A3.2,3.2,0,0,1,94.76,24,3.13,3.13,0,0,1,93.17,24.4Z"/><path class="cls-2" d="M112.54,12.67A12,12,0,0,1,119.75,15a21.83,21.83,0,0,1,4,3.63,2.13,2.13,0,0,1,.07,2.85,19.35,19.35,0,0,1-6.17,5,10.48,10.48,0,0,1-10.8-.83,21.69,21.69,0,0,1-4.63-4.07,2.1,2.1,0,0,1-.1-2.79,18.6,18.6,0,0,1,6.79-5.26A9.67,9.67,0,0,1,112.54,12.67Zm.42,14a7.6,7.6,0,0,0,1.58-.12,10,10,0,0,0,1.7-.47,17.7,17.7,0,0,0,6.91-5.19,1.25,1.25,0,0,0-.08-1.71,21.22,21.22,0,0,0-4.51-3.94,9.61,9.61,0,0,0-9.68-.8,18.7,18.7,0,0,0-6,4.81,1.29,1.29,0,0,0,.08,1.77,21.46,21.46,0,0,0,4,3.63A10.62,10.62,0,0,0,113,26.7Z"/><path class="cls-2" d="M113,15.29a4.83,4.83,0,1,1-4.82,4.83A4.85,4.85,0,0,1,113,15.29Zm4,4.83a4,4,0,1,0-4,4A4,4,0,0,0,116.93,20.12Z"/></g></g></svg>