<svg xmlns="http://www.w3.org/2000/svg" viewBox="0 0 234.86 17.91"><defs><style>.cls-1{fill:#f2f3eb;}</style></defs><g id="Layer_2" data-name="Layer 2"><g id="Layer_1-2" data-name="Layer 1"><path class="cls-1" d="M9.46,7.34l-3.39,8.3H5.18L1,5.31.08,5l0-.81H4.24l0,.81-1,.27,3.13,8.16H5.86l3-7.72Zm2.76,8.3L8.1,5.31,7.12,5l.06-.81h4.25l.06.81-1.18.27,3.13,8.16H12.9l3-8.16L14.55,5l0-.81h3.68l.06.81-1,.27L13.11,15.64Z" transform="translate(-0.08 -2.08)"/><path class="cls-1" d="M18.51,15.58l-.06-.77,1.3-.29s0-.15,0-.3,0-.36,0-.64,0-.64,0-1.07V11.13c0-.46,0-.89,0-1.28a9.49,9.49,0,0,0-.12-1L18.4,8.58V7.86l3-.77.37.31c0,.4-.07.8-.09,1.19s0,.85,0,1.36v2.44c0,.54,0,1,0,1.39a4.68,4.68,0,0,0,.07.74l1.3.29,0,.77ZM20.77,5.1a1.3,1.3,0,0,1-.95-.38,1.26,1.26,0,0,1,0-1.8,1.3,1.3,0,0,1,.95-.38,1.26,1.26,0,0,1,1.3,1.28,1.26,1.26,0,0,1-1.3,1.28Z" transform="translate(-0.08 -2.08)"/><path class="cls-1" d="M23.87,15.58l-.06-.77,1.26-.29c0-.12,0-.33.06-.65s0-.72,0-1.21,0-1,0-1.66V8.56c0-.46,0-.94,0-1.44s0-1,0-1.4,0-.83,0-1.15,0-.57,0-.71l-1.43-.19,0-.7,3.05-.83.43.29c0,.54,0,1.08,0,1.61s0,1.13,0,1.78,0,1.44,0,2.37l0,3q0,1.21,0,2.16a10.22,10.22,0,0,0,.07,1.15l1.26.29,0,.77Z" transform="translate(-0.08 -2.08)"/><path class="cls-1" d="M29.23,15.58l-.06-.77,1.26-.29a5.31,5.31,0,0,0,.05-.65c0-.32,0-.72,0-1.21s0-1,0-1.66V8.56c0-.46,0-.94,0-1.44s0-1,0-1.4,0-.83,0-1.15,0-.57,0-.71L29,3.67,29,3,32,2.14l.43.29c0,.54,0,1.08,0,1.61s0,1.13,0,1.78,0,1.44,0,2.37l0,3q0,1.21,0,2.16a10.22,10.22,0,0,0,.07,1.15l1.25.29,0,.77Z" transform="translate(-0.08 -2.08)"/><path class="cls-1" d="M42.11,15.66,38.67,8.27,37.76,8l.06-.75h4.12L42,8l-1.2.31,2.5,5.51ZM47.2,7.21l0,.75-.9.31L43,15.1l-1.53,3.21a3.54,3.54,0,0,1-1,1.31,1.79,1.79,0,0,1-1.11.37,1.34,1.34,0,0,1-.86-.26.81.81,0,0,1-.32-.65.93.93,0,0,1,.26-.63,1.81,1.81,0,0,1,.82-.43l1.94-.58-1,.95,2.21-4.2.21-.39,2.38-5.53L43.87,8l.06-.75Z" transform="translate(-0.08 -2.08)"/><path class="cls-1" d="M52,15.74a4.41,4.41,0,0,1-2.25-.55,3.82,3.82,0,0,1-1.5-1.51,4.58,4.58,0,0,1-.54-2.24,4.37,4.37,0,0,1,.6-2.33,4.22,4.22,0,0,1,1.59-1.52,4.52,4.52,0,0,1,2.18-.54,4.21,4.21,0,0,1,2.15.54,3.69,3.69,0,0,1,1.43,1.5,4.8,4.8,0,0,1,.5,2.24,4.5,4.5,0,0,1-.55,2.23,4.4,4.4,0,0,1-1.5,1.59A3.92,3.92,0,0,1,52,15.74Zm.2-1a1.52,1.52,0,0,0,1-.37,2.33,2.33,0,0,0,.68-1,4.71,4.71,0,0,0,.24-1.57,5.14,5.14,0,0,0-.63-2.7,1.9,1.9,0,0,0-1.69-1,1.75,1.75,0,0,0-1.5.83,3.82,3.82,0,0,0-.57,2.2,5.33,5.33,0,0,0,.31,1.9A3,3,0,0,0,51,14.26,1.91,1.91,0,0,0,52.21,14.73Z" transform="translate(-0.08 -2.08)"/><path class="cls-1" d="M66,14.09l1.23.31v.7l-2.76.69-.35-.25,0-1.25-.06,0A3.43,3.43,0,0,1,63,15.42a2.76,2.76,0,0,1-1.28.32,3.09,3.09,0,0,1-2.21-.83,3.22,3.22,0,0,1-.87-2.46V10.78c0-.31,0-.62,0-.94s0-.65-.07-1l-1.31-.27V7.86l2.92-.77.4.33c0,.39,0,.82-.06,1.3s0,1,0,1.5l0,2a2.16,2.16,0,0,0,.52,1.62,1.88,1.88,0,0,0,1.37.5,2,2,0,0,0,1-.26,2.17,2.17,0,0,0,.87-.86V11.05c0-.28,0-.55,0-.82s0-.51,0-.75A5.2,5.2,0,0,0,64,8.85l-1.41-.27V7.86l3-.77.37.29c0,.32,0,.62,0,.91s0,.58,0,.88V11.6c0,.58,0,1.08,0,1.51S66,13.86,66,14.09Z" transform="translate(-0.08 -2.08)"/><path class="cls-1" d="M75.11,15.74a3,3,0,0,1-1.43-.34,2.62,2.62,0,0,1-1-.84,1.83,1.83,0,0,1-.33-1,1.49,1.49,0,0,1,.43-1.1,3.18,3.18,0,0,1,1.37-.74l3-1V9.86A1.47,1.47,0,0,0,76.9,9a2,2,0,0,0-.75-.6,2.19,2.19,0,0,0-1-.24.73.73,0,0,0-.6.19,1.29,1.29,0,0,0-.2.72l0,.93A2.11,2.11,0,0,1,73,10a.76.76,0,0,1-.53-.74,1,1,0,0,1,.32-.68,4,4,0,0,1,.81-.66,7,7,0,0,1,1.06-.53,4.6,4.6,0,0,1,1.06-.3,3.68,3.68,0,0,1,2.43.76,2.62,2.62,0,0,1,.92,2l0,3.07q0,.4,0,.75a1.94,1.94,0,0,0,.08.51l1.26.23v.68l-1,.4c-.2.08-.38.14-.55.19a1.9,1.9,0,0,1-.44.07.88.88,0,0,1-.87-.7l-.25-.81.33,0a5.91,5.91,0,0,1-1.22,1.09A2.29,2.29,0,0,1,75.11,15.74Zm.68-1.34a1.7,1.7,0,0,0,.73-.17,2.4,2.4,0,0,0,.66-.52v-2l-1.9.47a1.15,1.15,0,0,0-.66.35,1,1,0,0,0-.21.63,1.14,1.14,0,0,0,.41.86A1.33,1.33,0,0,0,75.79,14.4Z" transform="translate(-0.08 -2.08)"/><path class="cls-1" d="M87.53,14.25a2.64,2.64,0,0,1-1,1.09,2.85,2.85,0,0,1-1.45.4A2.89,2.89,0,0,1,83,15a2.84,2.84,0,0,1-.79-2.21l0-4.53H81V7.81l2.73-2.38h.46l0,2.38,0,4.71a2,2,0,0,0,.42,1.38,1.53,1.53,0,0,0,1.19.44,1.91,1.91,0,0,0,.78-.16,2.36,2.36,0,0,0,.67-.44Zm-4.26-6v-1H87v1Z" transform="translate(-0.08 -2.08)"/><path class="cls-1" d="M94.26,14.25a2.58,2.58,0,0,1-1,1.09,2.85,2.85,0,0,1-1.45.4,2.89,2.89,0,0,1-2-.73A2.84,2.84,0,0,1,89,12.8L89,8.27H87.68V7.81l2.73-2.38h.46l0,2.38,0,4.71a2,2,0,0,0,.42,1.38,1.53,1.53,0,0,0,1.19.44,1.91,1.91,0,0,0,.78-.16,2.36,2.36,0,0,0,.67-.44ZM90,8.27v-1h3.7v1Z" transform="translate(-0.08 -2.08)"/><path class="cls-1" d="M98.86,15.74a4.19,4.19,0,0,1-2.09-.53,3.69,3.69,0,0,1-1.46-1.47,4.45,4.45,0,0,1-.53-2.2,4.68,4.68,0,0,1,.58-2.37,4.33,4.33,0,0,1,1.51-1.58,3.75,3.75,0,0,1,2-.54,3.08,3.08,0,0,1,2.45,1,4.12,4.12,0,0,1,.86,2.75v.39H96.37v-.91h4.37l-.25.33v-.48A2.52,2.52,0,0,0,100,8.53a1.55,1.55,0,0,0-1.28-.59,1.78,1.78,0,0,0-1,.31,2.07,2.07,0,0,0-.75.93,3.7,3.7,0,0,0-.29,1.55V11a3.49,3.49,0,0,0,.77,2.38,2.54,2.54,0,0,0,2,.87,2.66,2.66,0,0,0,1.21-.27,3.35,3.35,0,0,0,1-.86l.53.49a3.69,3.69,0,0,1-3.39,2.11Z" transform="translate(-0.08 -2.08)"/><path class="cls-1" d="M103.39,15.58l-.06-.75,1.2-.31c0-.07,0-.18,0-.34s0-.38,0-.65,0-.61,0-1V11c0-.42,0-.81,0-1.19s-.08-.71-.13-1l-1.24-.27V7.86l2.87-.77.38.33-.09,1,0,0a4.46,4.46,0,0,1,1.33-1.08,3.21,3.21,0,0,1,1.46-.35,2.69,2.69,0,0,1,1.39.38,2.79,2.79,0,0,1,1,1.13,4.06,4.06,0,0,1,.39,1.88v2.08c0,.46,0,.87,0,1.25a3.1,3.1,0,0,0,.08.75l1.2.31-.06.75h-4.2l0-.75,1.12-.31c0-.11,0-.24,0-.42s0-.38,0-.63,0-.53,0-.85V10.69A2.74,2.74,0,0,0,110,9.38a1.67,1.67,0,0,0-.68-.71,1.83,1.83,0,0,0-.88-.23,2.41,2.41,0,0,0-1.12.28,2.75,2.75,0,0,0-.88.79v2.88c0,.55,0,1,0,1.39a3.39,3.39,0,0,0,.09.74l1.2.31-.06.75Z" transform="translate(-0.08 -2.08)"/><path class="cls-1" d="M121.11,15.79l-.37-.25,0-1.25-.06,0a3.44,3.44,0,0,1-1.15,1.14,2.64,2.64,0,0,1-1.27.33,3.64,3.64,0,0,1-1.94-.52A3.77,3.77,0,0,1,115,13.8a4.23,4.23,0,0,1-.51-2.11,4.68,4.68,0,0,1,.37-1.91,4.31,4.31,0,0,1,1-1.46,4.45,4.45,0,0,1,1.44-.93,4.33,4.33,0,0,1,1.62-.32,4.92,4.92,0,0,1,1,.11,2.52,2.52,0,0,1,.85.33c0-.23,0-.52,0-.87s0-.7,0-1.08,0-.71,0-1,0-.51,0-.62l-1.49-.25,0-.72,3.1-.83.4.29c0,.8,0,1.56-.06,2.29s0,1.49,0,2.27l0,4.47c0,.66,0,1.21,0,1.66s.06.77.08,1l1.24.31v.7Zm-2.21-1.5a2,2,0,0,0,.93-.24,2.67,2.67,0,0,0,.89-.79V9.06a2,2,0,0,0-.83-.8,2.32,2.32,0,0,0-1-.24,2.12,2.12,0,0,0-1.78.85,3.59,3.59,0,0,0-.66,2.26,3.46,3.46,0,0,0,.71,2.32A2.18,2.18,0,0,0,118.9,14.29Z" transform="translate(-0.08 -2.08)"/><path class="cls-1" d="M134.84,14.25a2.58,2.58,0,0,1-1,1.09,2.85,2.85,0,0,1-1.45.4,2.89,2.89,0,0,1-2-.73,2.84,2.84,0,0,1-.79-2.21l.06-4.53h-1.36V7.81L131,5.43h.46l0,2.38,0,4.71a2,2,0,0,0,.41,1.38,1.53,1.53,0,0,0,1.19.44,1.91,1.91,0,0,0,.78-.16,2.23,2.23,0,0,0,.67-.44Zm-4.26-6v-1h3.7v1Z" transform="translate(-0.08 -2.08)"/><path class="cls-1" d="M135.25,15.58l-.06-.75,1.2-.31a6,6,0,0,0,.05-.66c0-.31,0-.71,0-1.2s0-1,0-1.66V8.58c0-.44,0-.9,0-1.38s0-1,0-1.41,0-.85,0-1.2,0-.59,0-.73L135,3.67l0-.7,3-.83.43.29c0,.4,0,.79,0,1.19s0,.81,0,1.26,0,1,0,1.55,0,1.26,0,2l.06,0a4.43,4.43,0,0,1,1.32-1.08,3.14,3.14,0,0,1,1.45-.35,2.63,2.63,0,0,1,1.39.39,2.86,2.86,0,0,1,1,1.14,4,4,0,0,1,.4,1.89v2c0,.46,0,.87,0,1.24a5.56,5.56,0,0,0,.07.76l1.2.31,0,.75H141l-.06-.75,1.12-.31a3.53,3.53,0,0,0,0-.42,5.53,5.53,0,0,0,0-.63c0-.24,0-.53,0-.85V10.69a2.82,2.82,0,0,0-.26-1.29,1.64,1.64,0,0,0-.68-.72,1.73,1.73,0,0,0-.9-.24,2.4,2.4,0,0,0-1.1.28,2.68,2.68,0,0,0-.89.79v2.88q0,.86,0,1.41a3.05,3.05,0,0,0,.09.72l1.18.31-.06.75Z" transform="translate(-0.08 -2.08)"/><path class="cls-1" d="M150.43,15.74a4.19,4.19,0,0,1-2.09-.53,3.63,3.63,0,0,1-1.46-1.47,4.34,4.34,0,0,1-.53-2.2,4.68,4.68,0,0,1,.58-2.37,4.25,4.25,0,0,1,1.51-1.58,3.75,3.75,0,0,1,2-.54,3.08,3.08,0,0,1,2.45,1,4.12,4.12,0,0,1,.86,2.75v.39h-5.83v-.91h4.38l-.26.33v-.48a2.52,2.52,0,0,0-.47-1.64,1.59,1.59,0,0,0-1.29-.59,1.75,1.75,0,0,0-1,.31,2.15,2.15,0,0,0-.76.93,3.87,3.87,0,0,0-.28,1.55V11A3.49,3.49,0,0,0,149,13.4a2.53,2.53,0,0,0,2,.87,2.66,2.66,0,0,0,1.21-.27,3.46,3.46,0,0,0,1-.86l.52.49a3.67,3.67,0,0,1-1.42,1.58A3.74,3.74,0,0,1,150.43,15.74Z" transform="translate(-0.08 -2.08)"/><path class="cls-1" d="M162.34,15.66l-3.23-7.39-.9-.31,0-.75h3.93l0,.75-1,.31,2.3,5.51-.6,0,2.48-5.65L166,9.37l-3,6.29Zm5.79,0-3.08-7.39-1-.31,0-.75H168l0,.75-1,.31,2.17,5.51-.5,0L171,8.27,170,8l0-.75h3.1l0,.75-.91.31-3.43,7.39Z" transform="translate(-0.08 -2.08)"/><path class="cls-1" d="M177.78,15.74a4.19,4.19,0,0,1-2.09-.53,3.63,3.63,0,0,1-1.46-1.47,4.45,4.45,0,0,1-.53-2.2,4.68,4.68,0,0,1,.58-2.37,4.33,4.33,0,0,1,1.51-1.58,3.75,3.75,0,0,1,2-.54,3.08,3.08,0,0,1,2.45,1,4.12,4.12,0,0,1,.86,2.75v.39h-5.82v-.91h4.37l-.25.33v-.48a2.52,2.52,0,0,0-.48-1.64,1.56,1.56,0,0,0-1.29-.59,1.75,1.75,0,0,0-1,.31,2.15,2.15,0,0,0-.76.93,3.87,3.87,0,0,0-.28,1.55V11a3.49,3.49,0,0,0,.77,2.38,2.53,2.53,0,0,0,2,.87,2.66,2.66,0,0,0,1.21-.27,3.46,3.46,0,0,0,1-.86l.53.49a3.69,3.69,0,0,1-3.39,2.11Z" transform="translate(-0.08 -2.08)"/><path class="cls-1" d="M189.17,15.79l-.36-.25,0-1.25-.06,0a3.44,3.44,0,0,1-1.15,1.14,2.64,2.64,0,0,1-1.27.33,3.64,3.64,0,0,1-1.94-.52A3.69,3.69,0,0,1,183,13.8a4.23,4.23,0,0,1-.51-2.11,4.68,4.68,0,0,1,.37-1.91,4.31,4.31,0,0,1,1-1.46A4.43,4.43,0,0,1,187,7.07a4.75,4.75,0,0,1,1,.11,2.57,2.57,0,0,1,.86.33c0-.23,0-.52,0-.87s0-.7,0-1.08,0-.71,0-1,0-.51,0-.62l-1.49-.25,0-.72,3.1-.83.4.29c0,.8-.05,1.56-.07,2.29s0,1.49,0,2.27v4.47c0,.66,0,1.21,0,1.66s.06.77.09,1l1.24.31v.7Zm-2.2-1.5a2,2,0,0,0,.93-.24,2.67,2.67,0,0,0,.89-.79V9.06a2,2,0,0,0-.84-.8A2.24,2.24,0,0,0,187,8a2.12,2.12,0,0,0-1.78.85,3.59,3.59,0,0,0-.66,2.26,3.46,3.46,0,0,0,.71,2.32A2.17,2.17,0,0,0,187,14.29Z" transform="translate(-0.08 -2.08)"/><path class="cls-1" d="M199.71,15.79l-.36-.25,0-1.25-.06,0a3.44,3.44,0,0,1-1.15,1.14,2.64,2.64,0,0,1-1.27.33,3.64,3.64,0,0,1-1.94-.52,3.77,3.77,0,0,1-1.38-1.42,4.23,4.23,0,0,1-.51-2.11,4.68,4.68,0,0,1,.37-1.91,4.31,4.31,0,0,1,1-1.46,4.45,4.45,0,0,1,1.44-.93,4.33,4.33,0,0,1,1.62-.32,4.92,4.92,0,0,1,1,.11,2.52,2.52,0,0,1,.85.33c0-.23,0-.52,0-.87s0-.7,0-1.08,0-.71,0-1,0-.51,0-.62l-1.49-.25,0-.72,3.1-.83.4.29c0,.8-.05,1.56-.06,2.29s0,1.49,0,2.27l0,4.47c0,.66,0,1.21,0,1.66s.06.77.08,1l1.24.31v.7Zm-2.2-1.5a2,2,0,0,0,.93-.24,2.67,2.67,0,0,0,.89-.79V9.06a2,2,0,0,0-.83-.8,2.32,2.32,0,0,0-1-.24,2.12,2.12,0,0,0-1.78.85,3.59,3.59,0,0,0-.66,2.26,3.46,3.46,0,0,0,.71,2.32A2.18,2.18,0,0,0,197.51,14.29Z" transform="translate(-0.08 -2.08)"/><path class="cls-1" d="M203.31,15.58l-.06-.77,1.3-.29a2.17,2.17,0,0,0,0-.3c0-.15,0-.36,0-.64s0-.64,0-1.07V11.13c0-.46,0-.89,0-1.28a9.49,9.49,0,0,0-.12-1l-1.29-.27V7.86l3-.77.37.31c0,.4-.07.8-.09,1.19s0,.85,0,1.36v2.44c0,.54,0,1,0,1.39a6.44,6.44,0,0,0,.07.74l1.3.29,0,.77ZM205.58,5.1a1.3,1.3,0,0,1-1-.38,1.26,1.26,0,0,1,0-1.8,1.3,1.3,0,0,1,1-.38,1.24,1.24,0,0,1,.93.38,1.25,1.25,0,0,1,.36.9,1.25,1.25,0,0,1-.36.9A1.24,1.24,0,0,1,205.58,5.1Z" transform="translate(-0.08 -2.08)"/><path class="cls-1" d="M208.73,15.58l-.06-.75,1.2-.31c0-.07,0-.18,0-.34s0-.38,0-.65,0-.61,0-1L210,11c0-.42,0-.81-.05-1.19a9.44,9.44,0,0,0-.13-1l-1.24-.27V7.86l2.87-.77.38.33-.09,1,.05,0a4.46,4.46,0,0,1,1.33-1.08,3.21,3.21,0,0,1,1.46-.35,2.69,2.69,0,0,1,1.39.38,2.79,2.79,0,0,1,1,1.13,4.06,4.06,0,0,1,.39,1.88v2.08c0,.46,0,.87,0,1.25a3.75,3.75,0,0,0,.08.75l1.2.31-.06.75h-4.2l0-.75,1.12-.31c0-.11,0-.24,0-.42s0-.38,0-.63,0-.53,0-.85V10.69a2.88,2.88,0,0,0-.26-1.31,1.69,1.69,0,0,0-.69-.71,1.83,1.83,0,0,0-.88-.23,2.34,2.34,0,0,0-1.11.28,2.68,2.68,0,0,0-.89.79v2.88c0,.55,0,1,0,1.39a3.39,3.39,0,0,0,.09.74l1.2.31-.06.75Z" transform="translate(-0.08 -2.08)"/><path class="cls-1" d="M223.58,20a6.2,6.2,0,0,1-2.93-.58,1.74,1.74,0,0,1-1.07-1.55,1.66,1.66,0,0,1,.57-1.21,6.17,6.17,0,0,1,1.73-1l.78.14a2.8,2.8,0,0,0-.91.82,1.72,1.72,0,0,0-.33,1A1.29,1.29,0,0,0,222,18.7a3,3,0,0,0,1.67.4,3.4,3.4,0,0,0,2-.51,1.52,1.52,0,0,0,.76-1.31,1,1,0,0,0-.45-.9,3.1,3.1,0,0,0-1.47-.37l-2.16-.18-.25-.09a2.23,2.23,0,0,1-1.31-.37,1.13,1.13,0,0,1-.51-.95,1.46,1.46,0,0,1,.54-1.05,4.31,4.31,0,0,1,1.47-.88l.27.36a2.25,2.25,0,0,0-.47.41.61.61,0,0,0-.17.39.51.51,0,0,0,.21.41,1.25,1.25,0,0,0,.6.21l2.63.27a3.87,3.87,0,0,1,2.08.7,1.93,1.93,0,0,1,.71,1.58,2.46,2.46,0,0,1-.6,1.61,4,4,0,0,1-1.62,1.15A6.32,6.32,0,0,1,223.58,20Zm.14-6.77a4.37,4.37,0,0,1-1.89-.38,3.15,3.15,0,0,1-1.28-1,2.61,2.61,0,0,1-.47-1.52,2.84,2.84,0,0,1,.49-1.65,3.33,3.33,0,0,1,1.31-1.15,4,4,0,0,1,1.86-.43,4,4,0,0,1,1.83.41,3.24,3.24,0,0,1,1.26,1.11,2.82,2.82,0,0,1,.47,1.58,2.79,2.79,0,0,1-.47,1.57,3.1,3.1,0,0,1-1.27,1.1A4.08,4.08,0,0,1,223.72,13.22Zm.11-.89a1.4,1.4,0,0,0,1.17-.56,2.46,2.46,0,0,0,.42-1.51,2.83,2.83,0,0,0-.46-1.7,1.46,1.46,0,0,0-1.24-.64,1.42,1.42,0,0,0-1.19.6,2.59,2.59,0,0,0-.45,1.59,2.54,2.54,0,0,0,.48,1.6A1.52,1.52,0,0,0,223.83,12.33Zm4.61-3.75L226,8.39l-.73-.82,3.15-.33Z" transform="translate(-0.08 -2.08)"/><path class="cls-1" d="M230.84,11.79a4.26,4.26,0,0,1-.41-.94,3.07,3.07,0,0,1-.11-.86,1.91,1.91,0,0,1,.32-1.09,4.65,4.65,0,0,1,.81-.92l1-.84a5.45,5.45,0,0,0,.8-.88,1.73,1.73,0,0,0,.33-1,1.36,1.36,0,0,0-.42-1A1.55,1.55,0,0,0,232,3.8a2.44,2.44,0,0,0-.9.17,2.3,2.3,0,0,1-.86.16,1.25,1.25,0,0,1-.92-.31,1,1,0,0,1-.32-.7.91.91,0,0,1,.39-.74,1.84,1.84,0,0,1,1.14-.3,5.06,5.06,0,0,1,1.77.3,4.29,4.29,0,0,1,1.41.85,3.62,3.62,0,0,1,.93,1.3,4.15,4.15,0,0,1,.32,1.65,2.41,2.41,0,0,1-.34,1.33,3.73,3.73,0,0,1-.82.94c-.32.27-.65.52-1,.75a4.64,4.64,0,0,0-.83.74,1.43,1.43,0,0,0-.34,1,3.22,3.22,0,0,0,0,.43c0,.14,0,.29.07.46Zm.44,4a1.37,1.37,0,0,1-.7-.17,1.33,1.33,0,0,1-.51-.49,1.39,1.39,0,0,1-.18-.69,1.36,1.36,0,0,1,.18-.71,1.43,1.43,0,0,1,1.21-.66,1.43,1.43,0,0,1,1,.38,1.39,1.39,0,0,1,0,2A1.4,1.4,0,0,1,231.28,15.77Z" transform="translate(-0.08 -2.08)"/></g></g></svg>