<svg xmlns="http://www.w3.org/2000/svg" xmlns:xlink="http://www.w3.org/1999/xlink" viewBox="0 0 611.36 1495.04"><defs><style>.cls-1{fill:#b69991;}.cls-2{fill:none;}.cls-3{clip-path:url(#clip-path);}.cls-4{fill:url(#linear-gradient);}.cls-5{fill:url(#linear-gradient-2);}.cls-6{clip-path:url(#clip-path-2);}.cls-7{fill:#8a8e6d;}.cls-8{fill:#a38982;}.cls-9{clip-path:url(#clip-path-3);}</style><clipPath id="clip-path" transform="translate(90.3 -26.3)"><path class="cls-1" d="M418.08,144.13l0-13.08s.19-24.76-5.15-26-29.9-6.38-66.66-2.38-48.19-11.62-53.53-25S270.81,71.43,253,72s-29.88,0-37.64-5.9A54.69,54.69,0,0,1,180.06,72a116,116,0,0,0-39.49,1l-3,3.43s-4.19,16.76-13.9,20.38-21.14,7.24-70.1,4.57S3.81,121.9,3.81,121.9L6.12,329a15,15,0,0,0-2.88,7.29L4,406.66a11.37,11.37,0,0,0-.6,2.82L5.73,616.55a15,15,0,0,0-2.88,7.29l8.67,777.91a10.92,10.92,0,0,0,.64,2.35l.29,26.48s1.62,14.09,23,14.47,66.67,0,66.67,0,25.37,1.66,31.26,12.57,2.64,19.05,13.31,18.67,42-4.77,53.14,0,20.12,3.8,20.12,3.8a65.89,65.89,0,0,1,34.93-6.29c20,1.9,34,7.3,39.24-6.29s12.57-19.81,28.38-21.9,64.19.19,64.19.19,24.38-1.33,27.43-6.1l3-4.76.27-213.88.31-.48L418,933.07l0-.06L419,159.87A128,128,0,0,0,418.08,144.13Z"/></clipPath><linearGradient id="linear-gradient" x1="310.99" y1="1453.94" x2="310.99" y2="1188.35" gradientUnits="userSpaceOnUse"><stop offset="0" stop-color="#f2f3eb"/><stop offset="1" stop-color="#b69991" stop-opacity="0"/></linearGradient><linearGradient id="linear-gradient-2" x1="219.93" y1="6482.96" x2="219.93" y2="6217.37" gradientTransform="matrix(1, 0, 0, -1, 90.3, 6513.3)" xlink:href="#linear-gradient"/><clipPath id="clip-path-2" transform="translate(90.3 -26.3)"><rect class="cls-2" width="434.29" height="155.43"/></clipPath><clipPath id="clip-path-3" transform="translate(90.3 -26.3)"><rect class="cls-2" x="6.12" y="1405.79" width="434.29" height="155.43"/></clipPath></defs><g id="Layer_2" data-name="Layer 2"><g id="Layer_1-2" data-name="Layer 1"><path class="cls-1" d="M418.08,144.13l0-13.08s.19-24.76-5.15-26-29.9-6.38-66.66-2.38-48.19-11.62-53.53-25S270.81,71.43,253,72s-29.88,0-37.64-5.9A54.69,54.69,0,0,1,180.06,72a116,116,0,0,0-39.49,1l-3,3.43s-4.19,16.76-13.9,20.38-21.14,7.24-70.1,4.57S3.81,121.9,3.81,121.9L6.12,329a15,15,0,0,0-2.88,7.29L4,406.66a11.37,11.37,0,0,0-.6,2.82L5.73,616.55a15,15,0,0,0-2.88,7.29l8.67,777.91a10.92,10.92,0,0,0,.64,2.35l.29,26.48s1.62,14.09,23,14.47,66.67,0,66.67,0,25.37,1.66,31.26,12.57,2.64,19.05,13.31,18.67,42-4.77,53.14,0,20.12,3.8,20.12,3.8a65.89,65.89,0,0,1,34.93-6.29c20,1.9,34,7.3,39.24-6.29s12.57-19.81,28.38-21.9,64.19.19,64.19.19,24.38-1.33,27.43-6.1l3-4.76.27-213.88.31-.48L418,933.07l0-.06L419,159.87A128,128,0,0,0,418.08,144.13Z" transform="translate(90.3 -26.3)"/><g class="cls-3"><rect class="cls-4" x="101.76" y="1188.35" width="418.47" height="265.59"/><rect class="cls-5" x="100.99" y="30.34" width="418.47" height="265.59"/></g><g class="cls-6"><path class="cls-7" d="M215.39,646.1h0a6.08,6.08,0,0,1-5.75-4.21c-5-15.09-18.88-14.69-41.21-12.79-22.61,1.91-50.76,4.31-58.43-27.83-1-4.33-24.48-3.07-37.07-2.39-33.65,1.79-79.26,4.24-85.61-31.47-35.22-6.44-32.82-52.66-31-86.8.66-12.76,1.9-36.52-2.36-37.57-33.76-8.28-29.66-44.52-26.95-68.49.31-2.79.62-5.46.85-8,1.78-19-13.32-24.32-14-24.54a6.13,6.13,0,0,1-4.14-5.83,6.15,6.15,0,0,1,4.14-5.83c1.58-.56,15.7-6.12,14-24.53-.23-2.52-.54-5.2-.85-8-2.71-24-6.81-60.21,27-68.5,4.26-1,3-24.81,2.36-37.57-1.77-34.14-4.17-80.35,31.05-86.8,6.35-35.71,51.94-33.26,85.62-31.47,12.59.68,36,1.93,37.06-2.39,8.17-34.23,43.92-30.07,67.59-27.31,2.73.31,5.37.62,7.85.86,18.71,1.79,24-13.52,24.2-14.17a6,6,0,0,1,11.49,0c.58,1.67,6.07,15.88,24.22,14.2,2.47-.24,5.11-.55,7.85-.86,23.65-2.76,59.41-6.92,67.58,27.31,1,4.32,24.47,3.07,37.06,2.39,33.68-1.79,79.27-4.23,85.63,31.47,35.22,6.45,32.81,52.66,31,86.8-.66,12.76-1.9,36.52,2.37,37.57,33.76,8.29,29.65,44.54,26.93,68.52-.31,2.78-.61,5.45-.85,8-1.72,18.41,12.4,24,14,24.55a6.18,6.18,0,0,1,0,11.64c-1.57.56-15.7,6.14-14,24.54.24,2.52.54,5.19.85,8,2.72,24,6.83,60.23-26.93,68.52-4.27,1-3,24.81-2.37,37.57,1.77,34.14,4.18,80.36-31,86.8-6.36,35.7-52,33.26-85.62,31.47-12.6-.68-36-1.93-37.07,2.39C313.11,633.41,285,631,262.36,629.1c-22.31-1.91-36.26-2.3-41.21,12.79A6.09,6.09,0,0,1,215.39,646.1Zm-30.67-30.24c12,0,23.28,2.18,30.67,11.26,10.93-13.43,30.41-11.77,48-10.28,25,2.13,40.64,2.38,45.62-18.46,3.4-14.25,23.73-13.16,49.5-11.78,40.5,2.16,71.65,1.69,73.5-25.12a6.11,6.11,0,0,1,5.62-5.71c26.46-1.87,26.93-33.44,24.79-74.51C461,455.16,460,434.54,474,431.09c21.63-5.31,20.92-27.16,17.75-55.17-.33-2.85-.64-5.6-.88-8.19-1.44-15.32,5.13-25.56,12.22-31.54-7.09-6-13.66-16.21-12.22-31.52.24-2.59.55-5.34.88-8.2,3.17-28,3.87-49.86-17.75-55.17-14-3.45-13-24.07-11.62-50.17,2.14-41.07,1.67-72.64-24.79-74.51a6.1,6.1,0,0,1-5.62-5.71c-1.85-26.82-33-27.29-73.51-25.12C332.73,87.16,312.4,88.26,309,74c-5.23-21.93-26.77-21.22-54.41-18-2.82.33-5.53.64-8.08.89-15.14,1.44-25.22-5.21-31.11-12.39-5.89,7.18-16,13.83-31.1,12.39-2.56-.25-5.27-.56-8.08-.89C148.57,52.8,127,52.08,121.79,74,118.38,88.26,98,87.16,72.3,85.79,31.81,83.63.65,84.1-1.2,110.91a6.11,6.11,0,0,1-5.63,5.71c-26.45,1.87-26.92,33.44-24.79,74.51,1.36,26.11,2.43,46.72-11.62,50.17-21.62,5.31-20.92,27.15-17.75,55.15.32,2.86.63,5.62.87,8.22,1.45,15.31-5.12,25.55-12.21,31.52,7.09,6,13.65,16.22,12.21,31.54-.24,2.6-.55,5.35-.87,8.22-3.17,28-3.87,49.84,17.75,55.14,14.05,3.45,13,24.06,11.62,50.17-2.13,41.07-1.66,72.64,24.79,74.51a6.11,6.11,0,0,1,5.63,5.71c1.84,26.81,33,27.28,73.49,25.12,25.76-1.37,46.1-2.47,49.5,11.78,5,20.84,20.59,20.59,45.63,18.47C173.1,616.36,179,615.86,184.72,615.86Z" transform="translate(90.3 -26.3)"/><path class="cls-8" d="M215.39,608.62a1.94,1.94,0,0,1-1-.25c-8-4.47-17.93-6.73-29.62-6.73-6.22,0-12.47.53-18.5,1-5.72.48-10.94.92-15.67.92h0c-12.13,0-13.65-2.09-15.2-8.56-5.59-23.42-33.46-23.42-42.61-23.42-6.54,0-13.6.38-21.07.78-8.12.43-16.25.87-24.05.87-29.89,0-34.44-6.15-34.9-12.78l-1.21-17.66L-5.85,541.6C-18.3,540.71-19.59,520-17.62,482c1.5-28.76,3-58.5-22.32-64.73-8.87-2.17-10.4-10.71-7.13-39.7.34-3,.66-5.81.91-8.5,1.12-11.9-1.2-22.6-6.88-31.82a2,2,0,0,1,0-2.11c5.68-9.22,8-19.93,6.88-31.83-.25-2.68-.57-5.52-.91-8.48-3.23-28.66-1.64-37.57,7.13-39.72,25.36-6.22,23.82-36,22.32-64.73-2-38-.68-58.7,11.77-59.59l17.42-1.23,1.21-17.66c.46-6.63,5-12.77,34.89-12.77,7.88,0,16,.43,23.89.85,7.52.4,14.63.79,21.24.79,9.16,0,37,0,42.61-23.41,1.2-5,3.31-8.87,18.38-8.87a185.78,185.78,0,0,1,20.8,1.64c2.92.34,5.73.67,8.37.92,1.91.19,3.75.27,5.51.27a48,48,0,0,0,25.89-7.16,1.92,1.92,0,0,1,2.06,0,48,48,0,0,0,25.89,7.16c1.77,0,3.6-.08,5.51-.27,2.64-.25,5.45-.58,8.36-.92A186.15,186.15,0,0,1,277,68.49c15.07,0,17.19,3.84,18.39,8.86,5.59,23.42,33.45,23.42,42.61,23.42,6.61,0,13.72-.39,21.24-.79,7.87-.42,16-.85,23.89-.85,29.89,0,34.43,6.13,34.89,12.77l1.22,17.65,17.41,1.24c12.46.88,13.74,21.63,11.77,59.59-1.5,28.77-3,58.51,22.32,64.73,8.87,2.19,10.4,10.72,7.12,39.73-.34,3-.66,5.8-.91,8.47-1.11,11.91,1.21,22.61,6.89,31.82a2,2,0,0,1,0,2.12c-5.68,9.22-8,19.92-6.89,31.82.25,2.68.57,5.52.91,8.47,3.25,28.67,1.65,37.58-7.12,39.73-25.36,6.23-23.82,36-22.32,64.73,2,38,.69,58.71-11.77,59.6l-17.41,1.23L418,560.49c-.46,6.63-5,12.78-34.89,12.78-7.81,0-15.95-.44-23.83-.86-7.7-.41-14.76-.79-21.29-.79-9.16,0-37,0-42.62,23.42-1.52,6.34-3.13,8.56-15.23,8.56-4.77,0-10-.44-15.6-.92-6.1-.52-12.34-1-18.57-1-11.69,0-21.66,2.27-29.63,6.74A1.93,1.93,0,0,1,215.39,608.62Zm-30.58-11c11.9,0,22.18,2.26,30.58,6.71,8.39-4.46,18.67-6.72,30.58-6.72,6.4,0,12.72.54,18.84,1.06,5.55.47,10.73.91,15.33.91,10.08,0,10.31-1,11.4-5.51,6.33-26.47,36.52-26.47,46.45-26.47,6.63,0,13.74.38,21.27.78,8.05.43,16.14.86,23.85.86,30.33,0,30.79-6.58,31-9.06l1.34-19.39a2,2,0,0,1,1.82-1.85l19.13-1.36c9.09-.64,9.81-22.61,8.11-55.4-1.58-30.38-3.22-61.81,25.33-68.82,4.63-1.13,7.64-4.34,4.13-35.4-.34-3-.66-5.84-.92-8.55-1.15-12.34,1.15-23.52,6.84-33.25-5.69-9.73-8-20.91-6.84-33.25.26-2.71.58-5.57.92-8.55,3.51-31.05.5-34.26-4.13-35.4-28.55-7-26.91-38.43-25.33-68.82,1.7-32.79,1-54.75-8.11-55.4l-19.13-1.35a2,2,0,0,1-1.82-1.85l-1.34-19.39c-.17-2.48-.63-9.06-31-9.06-7.77,0-15.86.43-23.68.85-7.58.41-14.74.79-21.45.79-9.92,0-40.11,0-46.44-26.47-.71-3-1.39-5.81-14.56-5.81a182.26,182.26,0,0,0-20.34,1.62c-2.95.34-5.78.66-8.44.93q-3.06.28-5.89.28a51.91,51.91,0,0,1-26.92-7.13,51.91,51.91,0,0,1-26.92,7.13c-1.88,0-3.85-.09-5.89-.28-2.66-.27-5.49-.59-8.44-.93a182.25,182.25,0,0,0-20.35-1.62c-13.16,0-13.84,2.82-14.55,5.82-6.33,26.46-36.52,26.46-46.44,26.46-6.71,0-13.87-.38-21.45-.79-7.82-.42-15.9-.85-23.68-.85-30.33,0-30.79,6.58-31,9.06l-1.33,19.39a2,2,0,0,1-1.83,1.85l-19.13,1.36c-9.09.64-9.81,22.61-8.11,55.39C-12.11,220.56-10.47,252-39,259c-4.64,1.14-7.65,4.34-4.14,35.38.33,3,.66,5.86.91,8.57,1.16,12.34-1.14,23.52-6.83,33.25,5.69,9.74,8,20.92,6.83,33.25-.25,2.71-.58,5.59-.91,8.58-3.51,31-.5,34.24,4.13,35.37,28.55,7,26.91,38.44,25.33,68.82-1.7,32.79-1,54.76,8.11,55.4L13.55,539a2,2,0,0,1,1.83,1.85l1.33,19.39c.17,2.48.63,9.06,31,9.06,7.69,0,15.77-.43,23.59-.84s14.89-.8,21.53-.8c9.92,0,40.11,0,46.44,26.47,1.11,4.66,1.32,5.51,11.34,5.51h.06c4.56,0,9.71-.43,15.16-.89C172.1,598.18,178.42,597.65,184.81,597.65Z" transform="translate(90.3 -26.3)"/></g><g class="cls-9"><path class="cls-7" d="M215.39,1521.34h0a6.08,6.08,0,0,1-5.75-4.21c-5-15.08-18.88-14.69-41.21-12.79-22.61,1.91-50.76,4.32-58.43-27.82-1-4.33-24.48-3.07-37.07-2.4-33.65,1.79-79.26,4.24-85.61-31.47-35.22-6.44-32.82-52.65-31-86.8.66-12.76,1.9-36.52-2.36-37.57-33.76-8.28-29.66-44.51-26.95-68.49.31-2.79.62-5.46.85-8,1.78-19-13.32-24.33-14-24.54a6.15,6.15,0,0,1-4.14-5.83,6.15,6.15,0,0,1,4.14-5.84c1.58-.56,15.7-6.12,14-24.52-.23-2.53-.54-5.21-.85-8-2.71-24-6.81-60.21,27-68.49,4.26-1,3-24.81,2.36-37.58-1.77-34.14-4.17-80.35,31.05-86.8,6.35-35.7,51.94-33.25,85.62-31.46,12.59.67,36,1.92,37.06-2.4,8.17-34.23,43.92-30.07,67.59-27.31,2.73.31,5.37.62,7.85.86,18.71,1.79,24-13.51,24.2-14.17a6,6,0,0,1,11.49,0c.58,1.67,6.07,15.88,24.22,14.2,2.47-.24,5.11-.55,7.85-.86,23.65-2.76,59.41-6.92,67.58,27.31,1,4.32,24.47,3.07,37.06,2.4,33.68-1.8,79.27-4.24,85.63,31.46,35.22,6.45,32.81,52.66,31,86.8-.66,12.77-1.9,36.53,2.37,37.58,33.76,8.28,29.65,44.53,26.93,68.51-.31,2.78-.61,5.45-.85,8-1.72,18.4,12.4,24,14,24.54a6.19,6.19,0,0,1,0,11.65c-1.57.56-15.7,6.13-14,24.54.24,2.51.54,5.18.85,8,2.72,24,6.83,60.23-26.93,68.52-4.27,1-3,24.81-2.37,37.58,1.77,34.14,4.18,80.35-31,86.79-6.36,35.7-52,33.26-85.62,31.47-12.6-.68-36-1.93-37.07,2.4-7.67,32.14-35.8,29.73-58.42,27.82-22.31-1.9-36.26-2.3-41.21,12.79A6.09,6.09,0,0,1,215.39,1521.34Zm-30.67-30.24c12,0,23.28,2.19,30.67,11.26,10.93-13.43,30.41-11.77,48-10.27,25,2.12,40.64,2.37,45.62-18.47,3.4-14.24,23.73-13.16,49.5-11.78,40.5,2.16,71.65,1.69,73.5-25.12a6.11,6.11,0,0,1,5.62-5.71c26.46-1.87,26.93-33.44,24.79-74.51-1.36-26.1-2.43-46.72,11.62-50.17,21.63-5.31,20.92-27.15,17.75-55.17-.33-2.85-.64-5.6-.88-8.19-1.44-15.31,5.13-25.56,12.22-31.53-7.09-6-13.66-16.22-12.22-31.53.24-2.59.55-5.34.88-8.2,3.17-28,3.87-49.86-17.75-55.17-14-3.45-13-24.07-11.62-50.17,2.14-41.07,1.67-72.63-24.79-74.51a6.1,6.1,0,0,1-5.62-5.7c-1.85-26.82-33-27.3-73.51-25.13-25.75,1.38-46.08,2.47-49.49-11.77-5.23-21.93-26.77-21.22-54.41-18-2.82.33-5.53.64-8.08.89-15.14,1.44-25.22-5.2-31.11-12.39-5.89,7.19-16,13.83-31.1,12.39-2.56-.25-5.27-.56-8.08-.89-27.64-3.21-49.19-3.94-54.42,18C118.38,963.5,98,962.41,72.3,961,31.81,958.88.65,959.34-1.2,986.16a6.1,6.1,0,0,1-5.63,5.7c-26.45,1.88-26.92,33.44-24.79,74.52,1.36,26.1,2.43,46.71-11.62,50.16-21.62,5.31-20.92,27.15-17.75,55.15.32,2.86.63,5.62.87,8.22,1.45,15.31-5.12,25.55-12.21,31.53,7.09,6,13.65,16.22,12.21,31.53-.24,2.6-.55,5.36-.87,8.22-3.17,28-3.87,49.84,17.75,55.14,14.05,3.45,13,24.07,11.62,50.17-2.13,41.07-1.66,72.64,24.79,74.51a6.11,6.11,0,0,1,5.63,5.71c1.84,26.81,33,27.28,73.49,25.12,25.76-1.37,46.1-2.47,49.5,11.78,5,20.84,20.59,20.59,45.63,18.47C173.1,1491.61,179,1491.1,184.72,1491.1Z" transform="translate(90.3 -26.3)"/><path class="cls-8" d="M215.39,1483.87a2.05,2.05,0,0,1-1-.25c-8-4.47-17.93-6.74-29.62-6.74-6.22,0-12.47.53-18.5,1-5.72.49-10.94.93-15.67.93h0c-12.13,0-13.65-2.1-15.2-8.57-5.59-23.41-33.46-23.41-42.61-23.41-6.54,0-13.6.37-21.07.77-8.12.43-16.25.87-24.05.87-29.89,0-34.44-6.14-34.9-12.78l-1.21-17.66-17.42-1.23c-12.45-.89-13.74-21.63-11.77-59.6,1.5-28.76,3-58.5-22.32-64.72-8.87-2.18-10.4-10.71-7.13-39.71.34-3,.66-5.81.91-8.5,1.12-11.9-1.2-22.6-6.88-31.82a2,2,0,0,1,0-2.11c5.68-9.22,8-19.93,6.88-31.82-.25-2.69-.57-5.53-.91-8.49-3.23-28.66-1.64-37.56,7.13-39.71,25.36-6.23,23.82-36,22.32-64.73-2-38-.68-58.71,11.77-59.59l17.42-1.24,1.21-17.65c.46-6.64,5-12.78,34.89-12.78,7.88,0,16,.43,23.89.86,7.52.4,14.63.78,21.24.78,9.16,0,37,0,42.61-23.41,1.2-5,3.31-8.87,18.38-8.87a188.17,188.17,0,0,1,20.8,1.64c2.92.35,5.73.67,8.37.92,1.91.19,3.75.28,5.51.28a48,48,0,0,0,25.89-7.17,1.92,1.92,0,0,1,2.06,0,48,48,0,0,0,25.89,7.17c1.77,0,3.6-.09,5.51-.28,2.64-.25,5.45-.57,8.36-.92a188.55,188.55,0,0,1,20.8-1.64c15.07,0,17.19,3.84,18.39,8.86C301,976,328.82,976,338,976c6.61,0,13.72-.38,21.24-.78,7.87-.43,16-.86,23.89-.86,29.89,0,34.43,6.14,34.89,12.77l1.22,17.66,17.41,1.23c12.46.89,13.74,21.63,11.77,59.6-1.5,28.76-3,58.5,22.32,64.73,8.87,2.18,10.4,10.72,7.12,39.73-.34,3-.66,5.79-.91,8.47-1.11,11.9,1.21,22.6,6.89,31.82a2,2,0,0,1,0,2.12c-5.68,9.21-8,19.91-6.89,31.81.25,2.68.57,5.52.91,8.47,3.25,28.68,1.65,37.58-7.12,39.74-25.36,6.22-23.82,36-22.32,64.72,2,38,.69,58.71-11.77,59.6l-17.41,1.23L418,1435.73c-.46,6.64-5,12.78-34.89,12.78-7.81,0-15.95-.44-23.83-.86-7.7-.41-14.76-.78-21.29-.78-9.16,0-37,0-42.62,23.41-1.52,6.35-3.13,8.57-15.23,8.57-4.77,0-10-.45-15.6-.93-6.1-.52-12.34-1.05-18.57-1.05-11.69,0-21.66,2.27-29.63,6.75A2,2,0,0,1,215.39,1483.87Zm-30.58-11c11.9,0,22.18,2.26,30.58,6.71,8.39-4.46,18.67-6.72,30.58-6.72,6.4,0,12.72.54,18.84,1.06,5.55.48,10.73.92,15.33.92,10.08,0,10.31-1,11.4-5.52,6.33-26.46,36.52-26.46,46.45-26.46,6.63,0,13.74.37,21.27.77,8.05.43,16.14.87,23.85.87,30.33,0,30.79-6.59,31-9.07l1.34-19.39a2,2,0,0,1,1.82-1.85l19.13-1.35c9.09-.65,9.81-22.62,8.11-55.41-1.58-30.38-3.22-61.8,25.33-68.82,4.63-1.13,7.64-4.33,4.13-35.39-.34-3-.66-5.85-.92-8.55-1.15-12.35,1.15-23.52,6.84-33.25-5.69-9.74-8-20.92-6.84-33.26.26-2.7.58-5.57.92-8.55,3.51-31.05.5-34.26-4.13-35.39-28.55-7-26.91-38.44-25.33-68.82,1.7-32.79,1-54.76-8.11-55.4l-19.13-1.36a2,2,0,0,1-1.82-1.85l-1.34-19.39c-.17-2.48-.63-9.06-31-9.06-7.77,0-15.86.43-23.68.85-7.58.41-14.74.79-21.45.79-9.92,0-40.11,0-46.44-26.47-.71-3-1.39-5.81-14.56-5.81a182.26,182.26,0,0,0-20.34,1.62c-2.95.34-5.78.67-8.44.93q-3.06.29-5.89.29a51.82,51.82,0,0,1-26.92-7.14,51.82,51.82,0,0,1-26.92,7.14c-1.88,0-3.85-.1-5.89-.29-2.66-.26-5.49-.59-8.44-.93a182.25,182.25,0,0,0-20.35-1.62c-13.16,0-13.84,2.82-14.55,5.82C132.91,980,102.72,980,92.8,980c-6.71,0-13.87-.38-21.45-.79-7.82-.42-15.9-.85-23.68-.85-30.33,0-30.79,6.58-31,9.07l-1.33,19.38a2,2,0,0,1-1.83,1.85L-5.58,1010c-9.09.64-9.81,22.61-8.11,55.4,1.58,30.38,3.22,61.81-25.32,68.82-4.64,1.13-7.65,4.33-4.14,35.37.33,3,.66,5.87.91,8.57,1.16,12.34-1.14,23.52-6.83,33.26,5.69,9.73,8,20.91,6.83,33.25-.25,2.7-.58,5.58-.91,8.57-3.51,31-.5,34.24,4.13,35.37,28.55,7,26.91,38.44,25.33,68.82-1.7,32.79-1,54.76,8.11,55.41l19.13,1.35a2,2,0,0,1,1.83,1.85l1.33,19.39c.17,2.48.63,9.07,31,9.07,7.69,0,15.77-.44,23.59-.85s14.89-.79,21.53-.79c9.92,0,40.11,0,46.44,26.46,1.11,4.67,1.32,5.52,11.34,5.52h.06c4.56,0,9.71-.44,15.16-.9C172.1,1473.43,178.42,1472.89,184.81,1472.89Z" transform="translate(90.3 -26.3)"/></g></g></g></svg>