<svg xmlns="http://www.w3.org/2000/svg" viewBox="0 0 87.15 10.12"><defs><style>.cls-1{fill:#8a8e6d;}</style></defs><g id="Layer_2" data-name="Layer 2"><g id="Layer_1-2" data-name="Layer 1"><path class="cls-1" d="M3.23,8.75a2.46,2.46,0,0,1-1.39-.4A2.69,2.69,0,0,1,.9,7.22,4.06,4.06,0,0,1,.57,5.54,4,4,0,0,1,.92,3.83a2.81,2.81,0,0,1,1-1.16,2.39,2.39,0,0,1,1.38-.42,2.22,2.22,0,0,1,1.32.4,2.7,2.7,0,0,1,.9,1.11,4.16,4.16,0,0,1,.32,1.68,4,4,0,0,1-.34,1.69,2.88,2.88,0,0,1-.92,1.18A2.1,2.1,0,0,1,3.23,8.75Zm.08-.62A1,1,0,0,0,4,7.85,1.93,1.93,0,0,0,4.45,7a5.07,5.07,0,0,0,.16-1.32,4.74,4.74,0,0,0-.4-2.11,1.2,1.2,0,0,0-1-.78,1.13,1.13,0,0,0-1,.64,3.85,3.85,0,0,0-.37,1.85A5,5,0,0,0,2,6.79a2.38,2.38,0,0,0,.53,1A1.11,1.11,0,0,0,3.31,8.13Z" transform="translate(-0.57 -0.9)"/><path class="cls-1" d="M8.87,6.45c0,.32,0,.6,0,.83s0,.41,0,.53a.69.69,0,0,0,0,.24l.87.16,0,.44H6.94l0-.44.87-.16s0-.14,0-.28,0-.34,0-.56,0-.48,0-.76V4.67c0-.22,0-.45,0-.68s0-.41,0-.56l-1,.21,0-.53,2.15-.88c0,.24,0,.55,0,.91s0,.81,0,1.32Z" transform="translate(-0.57 -0.9)"/><path class="cls-1" d="M14.52,3a1.11,1.11,0,0,0,0,.23q0,.19,0,.54v4.8a3.08,3.08,0,0,1-.23,1.24,1.82,1.82,0,0,1-.62.8,1.73,1.73,0,0,1-1,.27,1.82,1.82,0,0,1-.92-.23.68.68,0,0,1-.39-.57.38.38,0,0,1,.13-.32.44.44,0,0,1,.32-.12.87.87,0,0,1,.32.06,1,1,0,0,1,.31.23l.61.62-.44-.16a.63.63,0,0,0,.47-.08.67.67,0,0,0,.25-.44,4.14,4.14,0,0,0,.07-.89V3.76c0-.22,0-.4,0-.54a1,1,0,0,0,0-.27l-.74-.15,0-.45h2.55l0,.45Z" transform="translate(-0.57 -0.9)"/><path class="cls-1" d="M17.62,8.74a1.6,1.6,0,0,1-.8-.19,1.4,1.4,0,0,1-.52-.47,1,1,0,0,1-.19-.56.85.85,0,0,1,.24-.61,1.85,1.85,0,0,1,.76-.41L18.77,6v-.5A.76.76,0,0,0,18.61,5a1.06,1.06,0,0,0-.41-.34,1.2,1.2,0,0,0-.57-.13.43.43,0,0,0-.34.1.78.78,0,0,0-.1.4l0,.52a1.26,1.26,0,0,1-.73,0,.42.42,0,0,1-.3-.41.58.58,0,0,1,.18-.38,2.09,2.09,0,0,1,.45-.36,3.27,3.27,0,0,1,.59-.3,2.37,2.37,0,0,1,.59-.16,2.06,2.06,0,0,1,1.35.42,1.45,1.45,0,0,1,.51,1.12l0,1.71c0,.15,0,.29,0,.41a1.41,1.41,0,0,0,.05.29l.7.13v.37L20,8.6l-.3.1a.85.85,0,0,1-.25,0,.48.48,0,0,1-.48-.39l-.14-.45.18,0a2.88,2.88,0,0,1-.68.61A1.23,1.23,0,0,1,17.62,8.74ZM18,8a1,1,0,0,0,.41-.1,1.21,1.21,0,0,0,.37-.29V6.5l-1.06.26a.69.69,0,0,0-.37.2.56.56,0,0,0-.11.35.65.65,0,0,0,.23.48A.76.76,0,0,0,18,8Z" transform="translate(-0.57 -0.9)"/><path class="cls-1" d="M21,8.65l0-.42.66-.17a1.25,1.25,0,0,0,0-.19c0-.09,0-.21,0-.36s0-.34,0-.57V6.12q0-.35,0-.66c0-.21,0-.4-.07-.55l-.68-.15V4.37l1.58-.43.22.18,0,.58h0a2.48,2.48,0,0,1,.73-.6,1.8,1.8,0,0,1,.82-.19,1.42,1.42,0,0,1,.77.21,1.44,1.44,0,0,1,.57.62,2.19,2.19,0,0,1,.22,1V7c0,.25,0,.48,0,.69a1.89,1.89,0,0,0,.05.41l.66.17,0,.42H24.17l0-.42.62-.17a1.3,1.3,0,0,0,0-.23,3.32,3.32,0,0,0,0-.35V5.93a1.48,1.48,0,0,0-.15-.72.92.92,0,0,0-.38-.4,1,1,0,0,0-.49-.12,1.28,1.28,0,0,0-.61.15,1.47,1.47,0,0,0-.49.44v1.6c0,.31,0,.57,0,.77a1.89,1.89,0,0,0,.05.41l.67.17,0,.42Z" transform="translate(-0.57 -0.9)"/><path class="cls-1" d="M29.35,8.67l0-.44a18.45,18.45,0,0,0,1.58-1.5,5.17,5.17,0,0,0,.86-1.24A2.72,2.72,0,0,0,32,4.38a1.31,1.31,0,0,0-.31-.92,1.16,1.16,0,0,0-.88-.35A1.58,1.58,0,0,0,29.44,4l-.35-.25a2.36,2.36,0,0,1,.83-1.07,2.34,2.34,0,0,1,2.31-.14,1.65,1.65,0,0,1,.7.66,1.87,1.87,0,0,1,.25,1A3.1,3.1,0,0,1,32.46,6a9.2,9.2,0,0,1-2.12,1.91l0-.15h2.38l.21,0,.34-.85.52.05-.29,1.8a2.38,2.38,0,0,0-.39,0H29.35Z" transform="translate(-0.57 -0.9)"/><path class="cls-1" d="M35.77,6a2.65,2.65,0,0,1,.76-.8,1.57,1.57,0,0,1,.92-.31,1.78,1.78,0,0,1,.92.24,1.74,1.74,0,0,1,.65.64,1.79,1.79,0,0,1,.24.93,1.92,1.92,0,0,1-.29,1,2.11,2.11,0,0,1-.78.76,2.37,2.37,0,0,1-2.29,0,2.14,2.14,0,0,1-.8-.86,2.74,2.74,0,0,1-.28-1.28,3.9,3.9,0,0,1,1-2.72,4.43,4.43,0,0,1,1.23-.93,5.42,5.42,0,0,1,1.61-.5l.18.54a4.66,4.66,0,0,0-1.62.73,2.91,2.91,0,0,0-1,1.2A4.33,4.33,0,0,0,36,6.34a2.78,2.78,0,0,0,.14,1,1.46,1.46,0,0,0,.41.65.93.93,0,0,0,.64.24.86.86,0,0,0,.71-.34A1.37,1.37,0,0,0,38.16,7a1.43,1.43,0,0,0-.31-1A1,1,0,0,0,37,5.68a1.33,1.33,0,0,0-.49.09,1.54,1.54,0,0,0-.42.26,2.09,2.09,0,0,0-.34.38Z" transform="translate(-0.57 -0.9)"/><path class="cls-1" d="M43,11V.9h.76V11Z" transform="translate(-0.57 -0.9)"/><path class="cls-1" d="M49.46,6.45c0,.32,0,.6,0,.83s0,.41,0,.53,0,.21,0,.24l.87.16,0,.44H47.52l0-.44.87-.16a1.43,1.43,0,0,0,0-.28c0-.15,0-.34,0-.56s0-.48,0-.76V4.67c0-.22,0-.45,0-.68s0-.41,0-.56l-1,.21,0-.53,2.15-.88c0,.24,0,.55,0,.91s0,.81,0,1.32Z" transform="translate(-0.57 -0.9)"/><path class="cls-1" d="M51.25,8.67l0-.44a15.87,15.87,0,0,0,1.58-1.5,4.89,4.89,0,0,0,.86-1.24,2.58,2.58,0,0,0,.27-1.11,1.32,1.32,0,0,0-.32-.92,1.13,1.13,0,0,0-.88-.35A1.55,1.55,0,0,0,51.35,4L51,3.7a2.38,2.38,0,0,1,.84-1.07,2.32,2.32,0,0,1,2.3-.14,1.6,1.6,0,0,1,.7.66,1.87,1.87,0,0,1,.26,1A3.11,3.11,0,0,1,54.36,6a9,9,0,0,1-2.12,1.91l0-.15h2.39l.2,0,.34-.85.52.05-.29,1.8a2.25,2.25,0,0,0-.38,0H51.25Z" transform="translate(-0.57 -0.9)"/><path class="cls-1" d="M57.4,8.76A.77.77,0,0,1,56.62,8a.67.67,0,0,1,.1-.38A.64.64,0,0,1,57,7.35a.8.8,0,0,1,.41-.1.77.77,0,0,1,.55.21.71.71,0,0,1,.23.54.77.77,0,0,1-.78.76Z" transform="translate(-0.57 -0.9)"/><path class="cls-1" d="M61.7,8.75a2.46,2.46,0,0,1-1.39-.4,2.69,2.69,0,0,1-.94-1.13A4.06,4.06,0,0,1,59,5.54a4,4,0,0,1,.35-1.71,2.81,2.81,0,0,1,1-1.16,2.4,2.4,0,0,1,1.39-.42,2.21,2.21,0,0,1,1.31.4,2.7,2.7,0,0,1,.9,1.11,4.16,4.16,0,0,1,.32,1.68,4,4,0,0,1-.34,1.69A2.88,2.88,0,0,1,63,8.31,2.1,2.1,0,0,1,61.7,8.75Zm.08-.62a1,1,0,0,0,.69-.28A1.93,1.93,0,0,0,62.92,7a5.07,5.07,0,0,0,.16-1.32,4.74,4.74,0,0,0-.4-2.11,1.2,1.2,0,0,0-1-.78,1.13,1.13,0,0,0-1,.64,3.85,3.85,0,0,0-.37,1.85,5,5,0,0,0,.2,1.48,2.38,2.38,0,0,0,.53,1A1.11,1.11,0,0,0,61.78,8.13Z" transform="translate(-0.57 -0.9)"/><path class="cls-1" d="M68.05,8.75a2.44,2.44,0,0,1-1.39-.4,2.69,2.69,0,0,1-.94-1.13,4.06,4.06,0,0,1-.33-1.68,3.84,3.84,0,0,1,.35-1.71,2.81,2.81,0,0,1,1-1.16,2.39,2.39,0,0,1,1.38-.42,2.22,2.22,0,0,1,1.32.4,2.7,2.7,0,0,1,.9,1.11,4.16,4.16,0,0,1,.32,1.68,4,4,0,0,1-.34,1.69,3,3,0,0,1-.92,1.18A2.1,2.1,0,0,1,68.05,8.75Zm.08-.62a1,1,0,0,0,.68-.28A1.84,1.84,0,0,0,69.27,7a5.07,5.07,0,0,0,.16-1.32A4.6,4.6,0,0,0,69,3.6a1.18,1.18,0,0,0-1-.78,1.12,1.12,0,0,0-1,.64,3.85,3.85,0,0,0-.37,1.85,5,5,0,0,0,.2,1.48,2.27,2.27,0,0,0,.53,1A1.11,1.11,0,0,0,68.13,8.13Z" transform="translate(-0.57 -0.9)"/><path class="cls-1" d="M73.77,8.65l0-.45.63-.15a1.22,1.22,0,0,0,0-.21c0-.11,0-.28,0-.5V4.46c0-.33,0-.61,0-.82s0-.37,0-.49a.91.91,0,0,0,0-.2L73.7,2.8l0-.45h2.42a2.84,2.84,0,0,1,1.76.46,1.62,1.62,0,0,1,.62,1.36,1.76,1.76,0,0,1-.32,1,2,2,0,0,1-.84.71,2.86,2.86,0,0,1-1.24.25l-.41,0-.38-.05V5.46a2.79,2.79,0,0,0,.39.1,1.58,1.58,0,0,0,.38,0A1.3,1.3,0,0,0,77,5.28a1.27,1.27,0,0,0,.34-1A1.4,1.4,0,0,0,77,3.21a1.44,1.44,0,0,0-1-.35h-.48c0,.05,0,.14,0,.29s0,.34,0,.56V6.49c0,.35,0,.63,0,.85s0,.38,0,.49a1.8,1.8,0,0,0,0,.21l.88.14,0,.47Z" transform="translate(-0.57 -0.9)"/><path class="cls-1" d="M79.49,2.35h2l2.26,5H83.5l2.15-5h1.9l0,.45-.68.14v.51c0,.26,0,.56,0,.91L87,6.3c0,.34,0,.62,0,.86s0,.44,0,.58,0,.25,0,.31l.66.15,0,.45H85.22l0-.45.66-.15a1.94,1.94,0,0,0,0-.27V7.27c0-.22,0-.5,0-.85l0-3.76h.34l-2.58,6h-.47l-2.72-6h.39V6.31c0,.59,0,1,0,1.26s0,.42,0,.48l.75.15,0,.45H79.34l0-.45.74-.15c0-.05,0-.15,0-.29s0-.32,0-.54,0-.47,0-.75l0-2.1c0-.35,0-.65,0-.9V3l-.67-.15Z" transform="translate(-0.57 -0.9)"/></g></g></svg>