<svg xmlns="http://www.w3.org/2000/svg" viewBox="0 0 67.84 27.31"><defs><style>.cls-1{fill:#8a8e6d;}</style></defs><g id="Layer_2" data-name="Layer 2"><g id="Layer_1-2" data-name="Layer 1"><path class="cls-1" d="M11.9,18.86a8.67,8.67,0,0,0,3-1.15,11.33,11.33,0,0,0,2.47-2l.31.2a8.65,8.65,0,0,1-2.62,2.26,8.61,8.61,0,0,1-3.46,1.13l-1.59,2.61a19.85,19.85,0,0,1-2,2.73A12,12,0,0,1,6.3,26.27a5.21,5.21,0,0,1-1.55.82,4.45,4.45,0,0,1-1.33.22,4,4,0,0,1-1.36-.22,3.24,3.24,0,0,1-1.1-.6,2.79,2.79,0,0,1-.73-1A2.75,2.75,0,0,1,0,24.27,4.51,4.51,0,0,1,.7,22,5.93,5.93,0,0,1,2.42,20.3a8.82,8.82,0,0,1,2.52-1.13A11.18,11.18,0,0,1,8,18.77l.83,0,.85.08c.45-.73.89-1.45,1.32-2.17s.87-1.43,1.32-2.17c.21-.33.42-.66.62-1s.41-.67.62-1a6.52,6.52,0,0,1-2.23-.78,4.45,4.45,0,0,1-1.44-1.3,3.68,3.68,0,0,1-.64-1.65A3.85,3.85,0,0,1,9.44,7a4.27,4.27,0,0,1,1.19-1.76A7.64,7.64,0,0,1,12.56,4,16.54,16.54,0,0,1,15,3.09c.89-.26,1.8-.51,2.72-.74l2.77-.71A24.62,24.62,0,0,0,23.08.82,7.89,7.89,0,0,1,25.14,0a.09.09,0,0,1,.13.08c0,.08,0,.13-.05.15A8.57,8.57,0,0,0,22.5,2.13,19.74,19.74,0,0,0,20.16,5C19.42,6.12,18.71,7.29,18,8.55s-1.4,2.51-2.11,3.76a8.41,8.41,0,0,0,2.46-.56,9,9,0,0,0,2.81-1.81l.26.14a7.93,7.93,0,0,1-2.9,2,9.13,9.13,0,0,1-2.83.64c-.2.31-.38.62-.57.92s-.37.62-.56.93ZM6.58,23.69l1.5-2.29c.48-.73.95-1.46,1.39-2.2-.27,0-.53-.06-.78-.08s-.51,0-.78,0A10.64,10.64,0,0,0,5,19.48a8.13,8.13,0,0,0-2.36,1.08A5.92,5.92,0,0,0,1,22.21a4.23,4.23,0,0,0-.65,2A2.44,2.44,0,0,0,.55,25.3a2.52,2.52,0,0,0,.57.82,2.49,2.49,0,0,0,.82.54,2.72,2.72,0,0,0,1,.19,2.78,2.78,0,0,0,1.56-.68A10.61,10.61,0,0,0,6.58,23.69Zm7.23-11.58,1.86-3q.93-1.51,1.92-2.91A32.22,32.22,0,0,1,19.66,3.6a15.43,15.43,0,0,1,2.26-2.06c-1,.37-2.15.71-3.31,1s-2.27.7-3.3,1.1a12.39,12.39,0,0,0-2.73,1.47A4.24,4.24,0,0,0,11,7.33a3.93,3.93,0,0,0-.21,1.54,3.24,3.24,0,0,0,.44,1.39,3.72,3.72,0,0,0,1,1.11A4.76,4.76,0,0,0,13.81,12.11Z"/><path class="cls-1" d="M23.49,14.48a2.61,2.61,0,0,1-.74.9,7,7,0,0,1-1.28.81,16,16,0,0,1-1.6.7c-.58.21-1.16.4-1.74.58a4.63,4.63,0,0,0-.22,1.46,3.22,3.22,0,0,0,.23,1.18,1.92,1.92,0,0,0,.61.8,1.46,1.46,0,0,0,.91.29A3.83,3.83,0,0,0,20.88,21a6.65,6.65,0,0,0,1.53-.84,18.52,18.52,0,0,0,2-1.67c.76-.7,1.62-1.6,2.61-2.7h.52a35,35,0,0,1-2.66,2.89,18.12,18.12,0,0,1-2.25,1.86,9.12,9.12,0,0,1-1.87,1,4.59,4.59,0,0,1-1.53.3,3.07,3.07,0,0,1-1.83-.54,3,3,0,0,1-1.08-1.4,3.87,3.87,0,0,1-.17-2,5.08,5.08,0,0,1,.94-2.23,9.47,9.47,0,0,1,2.39-2.48A4.51,4.51,0,0,1,22,12.31a2.49,2.49,0,0,1,.77.13,1.4,1.4,0,0,1,.6.41,1.14,1.14,0,0,1,.29.68A2,2,0,0,1,23.49,14.48ZM18.24,17a10.38,10.38,0,0,0,3-1.39,3.4,3.4,0,0,0,1.39-1.74,1.14,1.14,0,0,0,0-.91.61.61,0,0,0-.52-.3,1.8,1.8,0,0,0-1.12.49,7.17,7.17,0,0,0-1.13,1.19,13.32,13.32,0,0,0-1,1.43A10.69,10.69,0,0,0,18.24,17Z"/><path class="cls-1" d="M30.52,12.17a1.92,1.92,0,0,1,.64-.41,1.85,1.85,0,0,1,.58-.11c.33,0,.52.1.58.31s0,.2-.11.31a.7.7,0,0,1-.5.16h-.23a.65.65,0,0,1-.26-.06c-.22-.06-.38.06-.5.35a4.22,4.22,0,0,0-.23,1.11c0,.46-.06.93-.06,1.44s0,.94,0,1.33a4.9,4.9,0,0,1-.72,2.86c.48-.42,1-.92,1.61-1.5s1.24-1.28,1.95-2.09h.52a32.61,32.61,0,0,1-3.21,3.41A15.11,15.11,0,0,1,28,21.17a4.83,4.83,0,0,1-1.22.55,4.62,4.62,0,0,1-1.41.21,2.59,2.59,0,0,1-1.94-.63,2.14,2.14,0,0,1-.32-2.75,1.23,1.23,0,0,1,1.07-.62.82.82,0,0,1,.62.26.78.78,0,0,1,.22.64.92.92,0,0,1-.31.65.88.88,0,0,1-.59.24.8.8,0,0,1-.46-.13,1.1,1.1,0,0,1-.35-.33,1.53,1.53,0,0,0-.12.81,1.57,1.57,0,0,0,.31.74,1.83,1.83,0,0,0,.65.54,2.12,2.12,0,0,0,.93.2,2.38,2.38,0,0,0,1.34-.44A4.87,4.87,0,0,0,27.64,20a6.81,6.81,0,0,0,.91-1.59A6.65,6.65,0,0,0,29,16.57a8.12,8.12,0,0,1,.53-2.12A6.18,6.18,0,0,1,30.32,13q-.78.66-1.59,1.47L27.36,15.9h-.55l.8-.9c.3-.32.62-.65,1-1l1-1C29.92,12.71,30.23,12.42,30.52,12.17Z"/><path class="cls-1" d="M37,12.17a1.78,1.78,0,0,1,1.21-.52c.33,0,.53.1.58.31a.28.28,0,0,1-.1.31.7.7,0,0,1-.5.16H37.9a.73.73,0,0,1-.26-.06c-.21-.06-.37.06-.49.35a4.22,4.22,0,0,0-.23,1.11c0,.46-.06.93-.06,1.44s0,.94,0,1.33a4.9,4.9,0,0,1-.72,2.86c.48-.42,1-.92,1.6-1.5s1.24-1.28,2-2.09h.52A33.71,33.71,0,0,1,37,19.28a15.11,15.11,0,0,1-2.58,1.89,4.83,4.83,0,0,1-1.22.55,4.64,4.64,0,0,1-1.42.21,2.62,2.62,0,0,1-1.94-.63,2.19,2.19,0,0,1-.66-1.37,2.16,2.16,0,0,1,.34-1.38,1.26,1.26,0,0,1,1.08-.62.84.84,0,0,1,.62.26.81.81,0,0,1,.22.64.92.92,0,0,1-.31.65.88.88,0,0,1-.59.24.78.78,0,0,1-.46-.13,1,1,0,0,1-.35-.33,1.44,1.44,0,0,0-.12.81,1.57,1.57,0,0,0,.31.74,1.83,1.83,0,0,0,.65.54,2.11,2.11,0,0,0,.92.2,2.38,2.38,0,0,0,1.35-.44A5.05,5.05,0,0,0,34.07,20,7.18,7.18,0,0,0,35,18.39a6.65,6.65,0,0,0,.49-1.82A8.55,8.55,0,0,1,36,14.45,5.79,5.79,0,0,1,36.75,13c-.52.44-1.06.93-1.6,1.47s-1,1-1.36,1.39h-.55c.23-.27.5-.57.8-.9s.62-.65,1-1l1-1C36.35,12.71,36.66,12.42,37,12.17Z"/><path class="cls-1" d="M39.58,21.81a1.44,1.44,0,0,1-1-.38,1.86,1.86,0,0,1-.54-1,3.51,3.51,0,0,1,.08-1.49,6.17,6.17,0,0,1,.78-1.79l2.92-4.69h1.83l-4.14,6.8a2.13,2.13,0,0,0-.41,1.57c.12.38.33.57.64.57a2.42,2.42,0,0,0,1.53-.82c.58-.55,1.37-1.37,2.38-2.45l.76-.85c.25-.26.45-.5.63-.71s.4-.45.58-.67h.55l-2.28,2.64a23.75,23.75,0,0,1-1.73,1.85,8.52,8.52,0,0,1-1.38,1.09A2.34,2.34,0,0,1,39.58,21.81ZM43.17,9.24a1,1,0,0,1,.29-.71A1,1,0,1,1,44.9,10a1,1,0,0,1-1.73-.73Z"/><path class="cls-1" d="M50.56,12.43a2.17,2.17,0,0,1,1.63.52,1.78,1.78,0,0,1,.55,1.13,1.72,1.72,0,0,1-.31,1.13,1.16,1.16,0,0,1-1,.52.69.69,0,0,1-.59-.26,1,1,0,0,1-.16-.64,1,1,0,0,1,.9-.9A.7.7,0,0,1,52,14a1.46,1.46,0,0,1,.28.31,1.12,1.12,0,0,0-.31-1.1,1.54,1.54,0,0,0-1.11-.44,2.88,2.88,0,0,0-1.86.8,9.73,9.73,0,0,0-1.82,2.27,7.08,7.08,0,0,0-.86,2.06,4.14,4.14,0,0,0-.05,1.74,2.29,2.29,0,0,0,.61,1.2,1.46,1.46,0,0,0,1.08.45,3.88,3.88,0,0,0,1.22-.23,7.05,7.05,0,0,0,1.53-.84,18.52,18.52,0,0,0,2-1.67c.75-.7,1.62-1.61,2.61-2.71h.52a35.2,35.2,0,0,1-2.67,2.9,17.93,17.93,0,0,1-2.24,1.85,8.45,8.45,0,0,1-1.87,1,4.62,4.62,0,0,1-1.53.31A3,3,0,0,1,44.61,20a3.82,3.82,0,0,1-.18-2,5.28,5.28,0,0,1,.94-2.23,9.4,9.4,0,0,1,2.42-2.48A4.88,4.88,0,0,1,50.56,12.43Z"/><path class="cls-1" d="M60.23,12.43a2.09,2.09,0,0,1,1.61.55,1.8,1.8,0,0,1,.47,1.33l1.19-1.88h1.82l-4.14,6.8a2.11,2.11,0,0,0-.4,1.57c.11.38.33.57.64.57A2.42,2.42,0,0,0,63,20.55c.58-.55,1.37-1.37,2.37-2.45.27-.31.53-.59.77-.85s.45-.5.62-.71a8.37,8.37,0,0,0,.58-.67h.55l-2.27,2.64c-.65.75-1.23,1.37-1.74,1.85a8.5,8.5,0,0,1-1.37,1.09,2.34,2.34,0,0,1-1.19.36,1.46,1.46,0,0,1-1.26-.7,2.37,2.37,0,0,1-.3-1.79,10.27,10.27,0,0,1-1.62,1.85,3,3,0,0,1-2,.76,2,2,0,0,1-1.44-.54A2.67,2.67,0,0,1,53.94,20,4.73,4.73,0,0,1,54,18a6.11,6.11,0,0,1,1-2.23,9.22,9.22,0,0,1,2.41-2.48A4.88,4.88,0,0,1,60.23,12.43Zm.29.37a2.88,2.88,0,0,0-1.86.8,10.41,10.41,0,0,0-2.76,4.34,6.29,6.29,0,0,0-.3,1.77,2.69,2.69,0,0,0,.24,1.23.77.77,0,0,0,.71.46,1.68,1.68,0,0,0,1-.43,7,7,0,0,0,1.13-1.16,18.69,18.69,0,0,0,1.18-1.65l1.2-1.88a4.68,4.68,0,0,0,.62-1.42,2.54,2.54,0,0,0,0-1.09,1.18,1.18,0,0,0-.44-.7A1.2,1.2,0,0,0,60.52,12.8Z"/></g></g></svg>