<svg xmlns="http://www.w3.org/2000/svg" viewBox="0 0 175.12 78.1"><defs><style>.cls-1{fill:#f2f3eb;}</style></defs><g id="Layer_2" data-name="Layer 2"><g id="Layer_1-2" data-name="Layer 1"><path class="cls-1" d="M26,33.45l-.11-2.13,3.42-.84q0-.39,0-1.2c0-.54,0-1.19,0-1.94s0-1.54,0-2.4,0-1.74,0-2.64V11.77q0-2.58,0-4.35c0-1.17,0-2.09-.05-2.74a4.22,4.22,0,0,0-.14-1.21L25.7,2.69,25.87.56H38.14c3.51,0,6.2.68,8,2.05a7,7,0,0,1,2.78,6,8.39,8.39,0,0,1-1.51,4.9,10.13,10.13,0,0,1-4.21,3.39A14.63,14.63,0,0,1,37,18.16H33.44V15.63h3.19A7.85,7.85,0,0,0,42,13.9,6.15,6.15,0,0,0,44,9.08a5.8,5.8,0,0,0-1.68-4.51A6.88,6.88,0,0,0,37.47,3H34.22a2.14,2.14,0,0,0-.08.47c0,.21,0,.57,0,1.09V22.3c0,1.61,0,2.95,0,4s0,1.95.11,2.6.1,1.17.14,1.54l3.31.84-.17,2.13ZM52.55,34a9.86,9.86,0,0,1-4.38-.92A11.38,11.38,0,0,1,44.48,30a39,39,0,0,1-3.87-5.86L36.8,17.2l4.2-.95,6,8.91a33.42,33.42,0,0,0,2.83,3.67,9.78,9.78,0,0,0,2.5,2.05,9.44,9.44,0,0,0,2.69.95l-.06,2c-.37.07-.78.13-1.2.17S53,34,52.55,34Z"/><path class="cls-1" d="M66.89,34a22.1,22.1,0,0,1-5-.62,15.19,15.19,0,0,1-4.26-1.57l-.28-7.23,2.41-.22,1.57,5a10.9,10.9,0,0,0,3,1.37,12.18,12.18,0,0,0,3.47.48,6.86,6.86,0,0,0,4.46-1.35,4.45,4.45,0,0,0,1.65-3.64,4.72,4.72,0,0,0-1.18-3.28,10.25,10.25,0,0,0-3-2.27c-1.25-.63-2.58-1.27-4-1.9a32.25,32.25,0,0,1-4-2.16,10.3,10.3,0,0,1-3-3,7.72,7.72,0,0,1-1.18-4.4A7.82,7.82,0,0,1,58.93,4.4a10.12,10.12,0,0,1,4.23-3.22A15.41,15.41,0,0,1,69.36,0c1,0,1.91.05,2.83.14a18.85,18.85,0,0,1,2.55.42,11,11,0,0,1,2.12.73l.45,7-2.41.23L73.33,3.81a8.32,8.32,0,0,0-4.59-1.12,7.11,7.11,0,0,0-4.57,1.37,4.47,4.47,0,0,0-1.71,3.67,4.8,4.8,0,0,0,1.21,3.36,11.07,11.07,0,0,0,3.08,2.36c1.25.67,2.58,1.32,4,2a32.83,32.83,0,0,1,4,2.13,10.63,10.63,0,0,1,3.08,2.88A7.19,7.19,0,0,1,79,24.66a7.88,7.88,0,0,1-1.54,4.79,10.21,10.21,0,0,1-4.28,3.3A15.4,15.4,0,0,1,66.89,34Z"/><path class="cls-1" d="M95.69,33.62,83.48,3.47l-2.86-.78L80.79.56h11.6l.11,2.13-3.42.78,9.64,24.44H97.6l9-24.44-3.92-.78.16-2.13h10.32l.11,2.13-2.8.78L98.05,33.62Z"/><path class="cls-1" d="M116.31,33.45l-.16-2.13,3.25-.78c0-.15.07-.48.11-1s.06-1.32.08-2.44,0-2.63,0-4.54l.06-11.37c0-1.87,0-3.34-.06-4.4s-.07-1.85-.08-2.36a4.45,4.45,0,0,0-.09-.92L116,2.69l.17-2.13h11.93q5.55,0,8.63,2.44a8.44,8.44,0,0,1,3.08,7,9.35,9.35,0,0,1-1.59,5.44A10.62,10.62,0,0,1,133.91,19a14,14,0,0,1-6,1.27,17.07,17.07,0,0,1-2.32-.15c-.73-.09-1.41-.19-2-.3v-3a19,19,0,0,0,2.27.56,11.62,11.62,0,0,0,1.93.17,7.47,7.47,0,0,0,5.16-1.65c1.23-1.11,1.85-2.81,1.85-5.13q0-4-2.07-5.86A7.49,7.49,0,0,0,127.46,3h-3c0,.22,0,.74,0,1.56s0,1.81-.06,3,0,2.36,0,3.67l.06,11.37c0,1.91,0,3.41,0,4.51s.08,1.91.12,2.41,0,.83,0,1l4.65.73-.16,2.24Z"/><path class="cls-1" d="M36,75.12a12.88,12.88,0,0,1-3,2.19,7.88,7.88,0,0,1-3.59.79,11.84,11.84,0,0,1-5.6-1.32,16.57,16.57,0,0,1-4.55-3.53,15.55,15.55,0,0,1-3,.91,17,17,0,0,1-3.33.32,15.84,15.84,0,0,1-7-1.4,10.93,10.93,0,0,1-4.32-3.59,9.37,9.37,0,0,1-1.6-5,12.12,12.12,0,0,1,1.08-5.48,16.14,16.14,0,0,1,3.73-5.13,20.08,20.08,0,0,1,6.39-4,29,29,0,0,1,.5-5.13,18.7,18.7,0,0,1,1.66-5.08,11.44,11.44,0,0,1,3.12-3.88,7.61,7.61,0,0,1,4.87-1.54A6.59,6.59,0,0,1,26,35.92a5.08,5.08,0,0,1,1.49,4.49,5.89,5.89,0,0,1-1.29,3A12.3,12.3,0,0,1,23.4,46a22.23,22.23,0,0,1-3.79,2,44,44,0,0,1-4.26,1.51A54.38,54.38,0,0,0,16,55.08a56.25,56.25,0,0,0,1.29,5.72,47.18,47.18,0,0,0,1.86,5.45A29.52,29.52,0,0,0,21.65,71a16.3,16.3,0,0,0,4.64-4.87,16.13,16.13,0,0,0,2.25-5.52c.27-1.71-.1-2.89-1.11-3.55a5.85,5.85,0,0,0-1,0,3.38,3.38,0,0,0-1.08.26,3.7,3.7,0,0,0-2.25,1.92,2.45,2.45,0,0,0,.15,2.51l-.64.18a4.15,4.15,0,0,1-.65-2,5.21,5.21,0,0,1,.27-2,4.57,4.57,0,0,1,1-1.69,4,4,0,0,1,1.6-1.08,6.7,6.7,0,0,1,2.51-.35l2.57.12a6.85,6.85,0,0,0,3.32-.44,2.21,2.21,0,0,0,1.29-1.25,1.84,1.84,0,0,0-.76-1.75l.41-.35a2.33,2.33,0,0,1,1,2.85,4.93,4.93,0,0,1-1.38,2.31,4.56,4.56,0,0,1-3.35,1.08,8.66,8.66,0,0,1-1.75-.18,3.78,3.78,0,0,1,.64,1.52,6.81,6.81,0,0,1,0,2.22,15.28,15.28,0,0,1-2.24,5.71,16.53,16.53,0,0,1-5,5.08,15.69,15.69,0,0,0,1.57,2,12.92,12.92,0,0,0,1.9,1.66,9.06,9.06,0,0,0,2.22,1.17,7.31,7.31,0,0,0,2.53.44,8,8,0,0,0,2.77-.53,7.63,7.63,0,0,0,2.66-1.69ZM18.68,72.61a24.81,24.81,0,0,1-3.07-4.69,39.42,39.42,0,0,1-2.24-5.43,42.76,42.76,0,0,1-2.1-11.34,13.65,13.65,0,0,0-3.88,3.58A15.94,15.94,0,0,0,5,59.43a15.17,15.17,0,0,0-.73,5,10.3,10.3,0,0,0,1.11,4.52,8.09,8.09,0,0,0,3.15,3.29A10.43,10.43,0,0,0,14,73.49a12.12,12.12,0,0,0,2.45-.24A14.82,14.82,0,0,0,18.68,72.61Zm-3.39-24a15.9,15.9,0,0,0,6.92-3.82,7.35,7.35,0,0,0,2.24-4.46,5.59,5.59,0,0,0-.9-3.65A3,3,0,0,0,21,35.22a3.8,3.8,0,0,0-2.33.73A6,6,0,0,0,17,38a11.89,11.89,0,0,0-1.11,3,21.81,21.81,0,0,0-.53,3.85q-.06.87-.09,1.8C15.24,47.28,15.25,47.92,15.29,48.58Z"/><path class="cls-1" d="M115.74,31.72a7.8,7.8,0,0,0-4.34,1.84,36.24,36.24,0,0,0-5,4.64q-2.59,2.85-5.4,6.59T95.3,52.55l-6,8.13q-3,4.11-6.07,7.67A31.22,31.22,0,0,1,78.64,73a5.57,5.57,0,0,1-3,1.4,2.14,2.14,0,0,1-1.78-.76,2.58,2.58,0,0,1-.61-1.69,9.71,9.71,0,0,1,.44-2.74,24.55,24.55,0,0,1,1.6-3.88c.78-1.57,1.86-3.52,3.24-5.83s3.14-5.16,5.28-8.55Q85.3,48.53,86.31,47c.68-1,1.22-1.78,1.61-2.39s.65-1,.78-1.28.15-.4,0-.44a.81.81,0,0,0-.46.29q-.3.3-1,1.08c-.47.53-1.08,1.27-1.84,2.22s-1.76,2.21-3,3.76c-1.12,1.4-2.45,3-4,4.87s-3.08,3.72-4.7,5.6-3.23,3.73-4.84,5.51-3.08,3.33-4.4,4.61c-1.13,1.09-2.06,2-2.77,2.57a3.63,3.63,0,0,1-2.43.93,1.93,1.93,0,0,1-1.83-1,3.32,3.32,0,0,1-.44-2,12.55,12.55,0,0,1,1-3.47q.93-2.19,2.33-4.93c.94-1.83,2-3.74,3.09-5.75s2.24-4,3.33-5.92,2.1-3.78,3-5.51a44.5,44.5,0,0,0,2.16-4.46,35.76,35.76,0,0,1-8,6.47A15.65,15.65,0,0,1,55.43,50a12.81,12.81,0,0,1-3.8-.7,9.65,9.65,0,0,1-3.26-1.87,7.84,7.84,0,0,1-2.16-3.09A8.63,8.63,0,0,1,45.74,40a9.51,9.51,0,0,1,1.55-4.08,12.4,12.4,0,0,1,3.27-3.27,16,16,0,0,1,4.66-2.18A20,20,0,0,1,61,29.68a22.73,22.73,0,0,1,8.11,1.54,21.37,21.37,0,0,1,7,4.35c.66-.89,1.24-1.69,1.75-2.39s.93-1.26,1.28-1.69h.7c-.35.89-.71,1.8-1.08,2.71S78,36.06,77.53,37a19.62,19.62,0,0,1,1.61,2.22,26.69,26.69,0,0,1,1.37,2.5.43.43,0,0,1-.18.53c-.19.15-.38,0-.58-.41a19.44,19.44,0,0,0-1.17-2.22,22.1,22.1,0,0,0-1.34-2q-1.33,3-2.88,6.21T71.23,50.1L68.17,56q-1.48,2.82-2.71,5.25T63.3,65.53c-.62,1.26-1.09,2.28-1.4,3.06a7.53,7.53,0,0,0-.55,2.1c0,.46.07.76.29.87s.51.06.9-.17a6.29,6.29,0,0,0,1.29-1.11q4.55-4.78,9.24-10.09T81.79,49.8c1.87-2.33,3.47-4.38,4.82-6.15s2.47-3.24,3.41-4.4a18.39,18.39,0,0,1,2.33-2.54c.62-.53,1.13-.71,1.52-.56a.93.93,0,0,1,.52.94,7.05,7.05,0,0,1-.76,2.39c-.5,1.13-1.3,2.66-2.39,4.61L87,51.67c-1,1.79-2.1,3.71-3.26,5.78s-2.26,4-3.27,5.89-1.86,3.52-2.54,5a10.67,10.67,0,0,0-1.08,3c0,.62.2.93.59.93a3.65,3.65,0,0,0,1.72-.93,28.49,28.49,0,0,0,3.35-3.38q2.92-3.33,5.92-7.35t6-8.11q3-4.08,5.86-7.93t5.63-6.86a35.54,35.54,0,0,1,5.25-4.81A8.21,8.21,0,0,1,115.86,31a4.45,4.45,0,0,1,2.59.82,2.49,2.49,0,0,1,1.2,2.16,3.76,3.76,0,0,1-.15,1,4.17,4.17,0,0,1-.4,1,3.46,3.46,0,0,1-.65.82,1.29,1.29,0,0,1-.9.35,1.59,1.59,0,0,1-.82-.3,1.5,1.5,0,0,1-.64-1.28,1.63,1.63,0,0,1,.7-1.34,1.76,1.76,0,0,0,.82-1.34A1,1,0,0,0,117,32,2.42,2.42,0,0,0,115.74,31.72ZM75.73,36a16.83,16.83,0,0,0-3.36-2.63,20.46,20.46,0,0,0-3.59-1.69,19.16,19.16,0,0,0-3.58-.9,22.45,22.45,0,0,0-3.36-.26,19,19,0,0,0-4.58.58,16,16,0,0,0-4.37,1.78,11.56,11.56,0,0,0-3.38,3,8.87,8.87,0,0,0-1.67,4.35,9.41,9.41,0,0,0,.29,3.82,7,7,0,0,0,1.58,2.77,7,7,0,0,0,2.54,1.69,10.8,10.8,0,0,0,3.23.7h.59a14,14,0,0,0,5.8-1.28,25.86,25.86,0,0,0,5.34-3.27,44.45,44.45,0,0,0,4.7-4.29C73.36,38.85,74.64,37.38,75.73,36Z"/><path class="cls-1" d="M94.22,74a2.89,2.89,0,0,1-2-.75,3.7,3.7,0,0,1-1.08-2.07,7,7,0,0,1,.14-3,12.91,12.91,0,0,1,1.58-3.62l5.89-9.45h3.67L94,68.76a4.17,4.17,0,0,0-.81,3.15c.23.78.66,1.17,1.28,1.17a4.89,4.89,0,0,0,3.09-1.66q1.75-1.67,4.78-4.93c.55-.62,1.06-1.2,1.55-1.72s.9-1,1.25-1.43.82-.92,1.17-1.34h1.11l-4.58,5.3A48.62,48.62,0,0,1,99.38,71a16.12,16.12,0,0,1-2.77,2.18A4.66,4.66,0,0,1,94.22,74Zm7.23-25.31a2,2,0,0,1,.58-1.43,2,2,0,1,1,2.89,2.89,2,2,0,0,1-3.47-1.46Z"/><path class="cls-1" d="M113.82,54.53a3.89,3.89,0,0,1,1.28-.82,3.61,3.61,0,0,1,1.17-.23c.66,0,1,.21,1.16.64a.55.55,0,0,1-.2.61,1.37,1.37,0,0,1-1,.32h-.47a1.35,1.35,0,0,1-.52-.11c-.43-.12-.76.11-1,.7a7.76,7.76,0,0,0-.47,2.24c-.08.92-.12,1.88-.12,2.89s0,1.91.06,2.68a9.92,9.92,0,0,1-1.46,5.78q1.45-1.29,3.24-3c1.18-1.17,2.5-2.57,3.94-4.2h1A65.68,65.68,0,0,1,114,68.85a29,29,0,0,1-5.19,3.82,9.89,9.89,0,0,1-5.31,1.52,5.26,5.26,0,0,1-3.91-1.26,4.42,4.42,0,0,1-1.34-2.77,4.35,4.35,0,0,1,.7-2.77,2.49,2.49,0,0,1,2.16-1.25A1.65,1.65,0,0,1,102.79,68a1.87,1.87,0,0,1-.61,1.31,1.77,1.77,0,0,1-1.2.49,1.63,1.63,0,0,1-.93-.26,2.48,2.48,0,0,1-.7-.67,3,3,0,0,0-.23,1.63,3.11,3.11,0,0,0,.61,1.49A3.58,3.58,0,0,0,101,73a4.18,4.18,0,0,0,1.87.41,4.77,4.77,0,0,0,2.71-.88A10,10,0,0,0,108,70.28a14.25,14.25,0,0,0,1.84-3.21,13.52,13.52,0,0,0,1-3.67,17,17,0,0,1,1-4.26,12.5,12.5,0,0,1,1.52-2.86c-1,.89-2.12,1.89-3.21,3s-2,2-2.74,2.8h-1.11c.47-.54,1-1.14,1.6-1.8s1.25-1.33,1.93-2l2-2C112.6,55.62,113.23,55,113.82,54.53Z"/><path class="cls-1" d="M111.66,74,133,39.65h3.67l-14,21.88c.43-.54,1-1.19,1.61-1.93a28.82,28.82,0,0,1,2-2.1,15.62,15.62,0,0,1,2.25-1.72,4.3,4.3,0,0,1,2.27-.73,3.56,3.56,0,0,1,1.93.56A3.2,3.2,0,0,1,134,57.24a5.1,5.1,0,0,1,.12,2.68,11.22,11.22,0,0,1-1.58,3.71l-3.15,5.13a4.23,4.23,0,0,0-.82,3.15q.36,1.17,1.29,1.17A4.89,4.89,0,0,0,133,71.42q1.76-1.67,4.78-4.93c.55-.62,1.06-1.2,1.55-1.72s.9-1,1.25-1.43.82-.92,1.17-1.34h1.11l-4.58,5.3a50.68,50.68,0,0,1-3.5,3.74A16.51,16.51,0,0,1,132,73.22a4.66,4.66,0,0,1-2.39.73,3,3,0,0,1-1.9-.67,3.65,3.65,0,0,1-1.2-1.89,6.47,6.47,0,0,1,0-3,12.27,12.27,0,0,1,1.7-3.91l2.62-4.25c.82-1.33,1.11-2.38.88-3.15s-.63-1.17-1.17-1.17a3.88,3.88,0,0,0-2.22,1.14A27.41,27.41,0,0,0,125.42,60q-1.52,1.79-3.12,3.91t-3,4.14c-.92,1.35-1.72,2.55-2.42,3.62s-1.19,1.84-1.46,2.3Z"/><path class="cls-1" d="M154.3,59.2a4.93,4.93,0,0,1-1.49,1.8,14.22,14.22,0,0,1-2.57,1.64A31.34,31.34,0,0,1,147,64c-1.17.43-2.34.81-3.5,1.16a9.74,9.74,0,0,0-.44,3,6.24,6.24,0,0,0,.47,2.39,3.86,3.86,0,0,0,1.22,1.61,3,3,0,0,0,1.84.58,7.58,7.58,0,0,0,2.45-.47,13.12,13.12,0,0,0,3.09-1.69,37.25,37.25,0,0,0,4-3.35q2.28-2.13,5.25-5.46h1.05a69.71,69.71,0,0,1-5.36,5.84,36.45,36.45,0,0,1-4.52,3.73,18,18,0,0,1-3.76,2,9.13,9.13,0,0,1-3.1.61,6.21,6.21,0,0,1-3.67-1.07,6.13,6.13,0,0,1-2.19-2.83,7.84,7.84,0,0,1-.35-4,10.51,10.51,0,0,1,1.9-4.49,19,19,0,0,1,4.81-5,9,9,0,0,1,5.1-1.78,4.67,4.67,0,0,1,1.55.26,3,3,0,0,1,1.22.82,2.41,2.41,0,0,1,.59,1.37A4,4,0,0,1,154.3,59.2Zm-10.56,5.13a21.11,21.11,0,0,0,6.07-2.8,6.82,6.82,0,0,0,2.8-3.5,2.25,2.25,0,0,0-.06-1.84,1.21,1.21,0,0,0-1.05-.61,3.64,3.64,0,0,0-2.25,1A14.88,14.88,0,0,0,147,59a30,30,0,0,0-2,2.89A20.65,20.65,0,0,0,143.74,64.33Z"/><path class="cls-1" d="M168.47,54.53a4,4,0,0,1,1.29-.82,3.5,3.5,0,0,1,1.16-.23c.66,0,1.05.21,1.17.64a.55.55,0,0,1-.2.61,1.4,1.4,0,0,1-1,.32h-.46a1.4,1.4,0,0,1-.53-.11c-.43-.12-.76.11-1,.7a8.1,8.1,0,0,0-.47,2.24c-.07.92-.11,1.88-.11,2.89s0,1.91.06,2.68a10,10,0,0,1-1.46,5.78q1.46-1.29,3.24-3t3.93-4.2h1.05a66.8,66.8,0,0,1-6.47,6.85,29.73,29.73,0,0,1-5.19,3.82,9.89,9.89,0,0,1-5.31,1.52,5.26,5.26,0,0,1-3.91-1.26,4.37,4.37,0,0,1-1.34-2.77,4.29,4.29,0,0,1,.7-2.77,2.48,2.48,0,0,1,2.16-1.25,1.65,1.65,0,0,1,1.25.52,1.62,1.62,0,0,1,.44,1.29,1.91,1.91,0,0,1-.61,1.31,1.77,1.77,0,0,1-1.2.49,1.63,1.63,0,0,1-.93-.26,2.35,2.35,0,0,1-.7-.67,2.93,2.93,0,0,0-.24,1.63,3.13,3.13,0,0,0,.62,1.49A3.5,3.5,0,0,0,155.7,73a4.11,4.11,0,0,0,1.86.41,4.8,4.8,0,0,0,2.72-.88,10.2,10.2,0,0,0,2.39-2.27,14.63,14.63,0,0,0,2.83-6.88,16.21,16.21,0,0,1,1.05-4.26,12.52,12.52,0,0,1,1.51-2.86c-1.05.89-2.12,1.89-3.2,3s-2,2-2.75,2.8H161c.46-.54,1-1.14,1.6-1.8s1.24-1.33,1.93-2l2-2C167.26,55.62,167.89,55,168.47,54.53Z"/></g></g></svg>