<svg xmlns="http://www.w3.org/2000/svg" viewBox="0 0 152.31 40.19"><defs><style>.cls-1{fill:#f2f3eb;stroke:#f2f3eb;stroke-miterlimit:10;opacity:0.53;}.cls-2{fill:#b69991;}</style></defs><g id="Layer_2" data-name="Layer 2"><g id="Layer_1-2" data-name="Layer 1"><rect class="cls-1" x="0.5" y="0.5" width="151.31" height="39.19" rx="11.67"/><path class="cls-2" d="M9.51,14.52h3.27l.05.58-1,.23s0,.1,0,.23,0,.37,0,.7,0,.83,0,1.48v2.79a3.75,3.75,0,0,0,.36,1.71,2,2,0,0,0,.93.93,3,3,0,0,0,1.34.28,2.59,2.59,0,0,0,1.27-.3,2,2,0,0,0,.87-1,4.24,4.24,0,0,0,.31-1.78V18c0-.47,0-.89,0-1.26s0-.69,0-.94a3.25,3.25,0,0,0-.05-.51l-1.16-.23.05-.58h3.09l.05.58-1,.23s0,.13,0,.28,0,.41,0,.78,0,.93,0,1.65v2.37a5,5,0,0,1-.46,2.31A2.82,2.82,0,0,1,16,24a3.79,3.79,0,0,1-1.75.4,3.68,3.68,0,0,1-2.73-1,3.65,3.65,0,0,1-1-2.72v-3c0-.64,0-1.13,0-1.46s0-.57,0-.7a1.83,1.83,0,0,0,0-.25l-1-.23Z"/><path class="cls-2" d="M20.16,24.26l0-.54,1-.25q0-.13,0-.33c0-.12,0-.3,0-.54s0-.54,0-.93l0-1.29c0-.38,0-.76,0-1.16s-.06-.67-.08-.85L20,18.14v-.5l2-.56.24.24-.09.87h.05a4.12,4.12,0,0,1,1.17-.89A2.63,2.63,0,0,1,24.62,17a2.3,2.3,0,0,1,1.11.29,2.24,2.24,0,0,1,.88.92,3.14,3.14,0,0,1,.35,1.6v1.87c0,.41,0,.78,0,1.1s0,.54.06.65l1,.25,0,.54H25l0-.54,1-.25c0-.09,0-.19,0-.31s0-.28,0-.48,0-.47,0-.81V20a2.32,2.32,0,0,0-.28-1.22A1.62,1.62,0,0,0,25,18.1a1.83,1.83,0,0,0-.79-.19,2,2,0,0,0-1.08.29,2.72,2.72,0,0,0-.86.8v2.52c0,.55,0,1,0,1.28s0,.53,0,.67l1,.25,0,.54Z"/><path class="cls-2" d="M31.84,24.4a2.59,2.59,0,0,1-1.12-.25,2.16,2.16,0,0,1-.8-.65,1.41,1.41,0,0,1-.3-.86,1.2,1.2,0,0,1,.36-.89,3.25,3.25,0,0,1,1.22-.64l2.5-.88v-.91a1.22,1.22,0,0,0-.26-.78,1.68,1.68,0,0,0-.68-.55,2.38,2.38,0,0,0-1-.2.81.81,0,0,0-.61.18,1.29,1.29,0,0,0-.19.75l0,.6a1.42,1.42,0,0,1-.92,0,.55.55,0,0,1-.38-.54.85.85,0,0,1,.23-.53,2.33,2.33,0,0,1,.59-.51,4.24,4.24,0,0,1,.82-.43,4.59,4.59,0,0,1,.9-.24,2.7,2.7,0,0,1,1.86.63,2.15,2.15,0,0,1,.73,1.66l0,2.93c0,.17,0,.37,0,.58a1.67,1.67,0,0,0,.08.46l1,.2V24l-.74.26-.39.14a1.35,1.35,0,0,1-.29,0c-.32,0-.52-.19-.6-.55l-.15-.63.22,0a4.65,4.65,0,0,1-1.06.91A2.1,2.1,0,0,1,31.84,24.4Zm.35-.83a1.68,1.68,0,0,0,.79-.2,2.54,2.54,0,0,0,.72-.62V21l-2.07.58a1,1,0,0,0-.58.32.94.94,0,0,0-.17.57,1,1,0,0,0,.4.77A1.35,1.35,0,0,0,32.19,23.57Z"/><path class="cls-2" d="M37.69,23.83c0-.39,0-.71,0-1s0-.51,0-.74V18.22c0-.34,0-.73,0-1.16s0-.86,0-1.29,0-.8,0-1.11,0-.52,0-.62l-1.23-.17,0-.46,2.12-.65.27.21,0,1.41c0,.47,0,1,0,1.62s0,1.38,0,2.29h.05a3.28,3.28,0,0,1,1-.92A2.82,2.82,0,0,1,41.16,17a3,3,0,0,1,2.64,1.55,3.71,3.71,0,0,1,.43,1.86,3.79,3.79,0,0,1-.57,2.07,3.85,3.85,0,0,1-1.47,1.39,4.09,4.09,0,0,1-1.95.49,5.92,5.92,0,0,1-1.38-.17A5.49,5.49,0,0,1,37.69,23.83Zm2.9-.18a2.16,2.16,0,0,0,1.71-.78,3.24,3.24,0,0,0,.7-2.18,2.64,2.64,0,0,0-.65-2A2.27,2.27,0,0,0,40.68,18a2.33,2.33,0,0,0-1.06.25,2.45,2.45,0,0,0-.89.76v4.12a3.11,3.11,0,0,0,1.86.53Z"/><path class="cls-2" d="M45.46,24.26l0-.56,1.08-.23a3.37,3.37,0,0,0,0-.53c0-.24,0-.57,0-1s0-1,0-1.65V18.22c0-.42,0-.86,0-1.32s0-.89,0-1.3,0-.76,0-1,0-.46,0-.52l-1.23-.17,0-.46,2.16-.65.26.21,0,1.42c0,.46,0,1,0,1.55s0,1.25,0,2v2.74q0,.93,0,1.71c0,.52,0,.86,0,1l1.08.23,0,.56Z"/><path class="cls-2" d="M53.33,24.4A3.42,3.42,0,0,1,51.64,24a3,3,0,0,1-1.2-1.21A3.83,3.83,0,0,1,50,20.86a4.22,4.22,0,0,1,.46-2.05,3.41,3.41,0,0,1,1.23-1.32A3,3,0,0,1,53.33,17a2.52,2.52,0,0,1,1.94.83A3.59,3.59,0,0,1,56,20.28v.28H50.82v-.7h4.23l-.16.17v-.3a2.33,2.33,0,0,0-.46-1.53,1.55,1.55,0,0,0-1.24-.54,1.68,1.68,0,0,0-.95.29,2,2,0,0,0-.74.87,3.31,3.31,0,0,0-.28,1.46v.17a3.19,3.19,0,0,0,.68,2.19,2.2,2.2,0,0,0,1.74.78,2.27,2.27,0,0,0,1.06-.24,2.69,2.69,0,0,0,.9-.76l.4.35A3.19,3.19,0,0,1,54.85,24,3,3,0,0,1,53.33,24.4Z"/><path class="cls-2" d="M65.4,23.33a2.43,2.43,0,0,1-.85.78,2.29,2.29,0,0,1-1.06.27,2.22,2.22,0,0,1-1.6-.6A2.35,2.35,0,0,1,61.26,22l.05-4H60.15v-.3l2-1.88h.25l0,1.79v4.14a2,2,0,0,0,.39,1.36,1.35,1.35,0,0,0,1.08.45,1.78,1.78,0,0,0,.74-.16,2.37,2.37,0,0,0,.61-.42ZM61.84,18v-.77h3V18Z"/><path class="cls-2" d="M69.4,24.4a3.62,3.62,0,0,1-1.86-.47,3.19,3.19,0,0,1-1.22-1.3,4.24,4.24,0,0,1-.43-1.92,3.75,3.75,0,0,1,.48-1.92,3.42,3.42,0,0,1,1.28-1.28,3.55,3.55,0,0,1,1.8-.47,3.36,3.36,0,0,1,1.76.45,3.11,3.11,0,0,1,1.16,1.27,4.25,4.25,0,0,1,.41,1.9,3.94,3.94,0,0,1-.45,1.89,3.57,3.57,0,0,1-1.22,1.34A3,3,0,0,1,69.4,24.4Zm.16-.7a1.59,1.59,0,0,0,1-.37,2.37,2.37,0,0,0,.7-1,3.8,3.8,0,0,0,.26-1.43A4,4,0,0,0,71,18.59a1.93,1.93,0,0,0-1.65-.88,1.84,1.84,0,0,0-1.56.77,3.25,3.25,0,0,0-.6,2.05,4.1,4.1,0,0,0,.31,1.66,2.64,2.64,0,0,0,.87,1.11A2,2,0,0,0,69.56,23.7Z"/><path class="cls-2" d="M76.75,24.26l0-.58.81-.21L81,14.75l.85-.53,3.55,9.25.83.21-.05.58h-3l0-.58,1-.21-1-2.56-.18-.5L81,15.75l.35-.32-1.83,5-.18.5-.92,2.54,1,.21,0,.58ZM79,21.13v-.82l.9,0h2.83l.89,0v.82l-1.24,0H80.28Z"/><path class="cls-2" d="M91.66,23.33a2.35,2.35,0,0,1-.85.78,2.26,2.26,0,0,1-1.06.27,2.21,2.21,0,0,1-1.59-.6A2.32,2.32,0,0,1,87.52,22l0-4H86.41v-.3l2-1.88h.25l0,1.79,0,4.14A2,2,0,0,0,89,23.07a1.36,1.36,0,0,0,1.09.45,1.86,1.86,0,0,0,.74-.16,2.31,2.31,0,0,0,.6-.42ZM88.11,18v-.77h3V18Z"/><path class="cls-2" d="M97.15,23.33a2.32,2.32,0,0,1-.84.78,2.3,2.3,0,0,1-1.07.27,2.21,2.21,0,0,1-1.59-.6A2.35,2.35,0,0,1,93,22l0-4H91.91v-.3l2-1.88h.25l0,1.79v4.14a2,2,0,0,0,.39,1.36,1.35,1.35,0,0,0,1.08.45,1.78,1.78,0,0,0,.74-.16,2.37,2.37,0,0,0,.61-.42ZM93.6,18v-.77h3V18Z"/><path class="cls-2" d="M101,24.4A3.42,3.42,0,0,1,99.32,24a3,3,0,0,1-1.2-1.21,3.83,3.83,0,0,1-.45-1.91,4.22,4.22,0,0,1,.46-2.05,3.41,3.41,0,0,1,1.23-1.32A3,3,0,0,1,101,17a2.52,2.52,0,0,1,1.94.83,3.59,3.59,0,0,1,.71,2.41v.28H98.5v-.7h4.23l-.16.17v-.3a2.33,2.33,0,0,0-.46-1.53,1.55,1.55,0,0,0-1.24-.54,1.68,1.68,0,0,0-1,.29,2,2,0,0,0-.74.87,3.31,3.31,0,0,0-.28,1.46v.17a3.19,3.19,0,0,0,.68,2.19,2.2,2.2,0,0,0,1.74.78,2.27,2.27,0,0,0,1.06-.24,2.69,2.69,0,0,0,.9-.76l.4.35A3.19,3.19,0,0,1,102.53,24,3,3,0,0,1,101,24.4Z"/><path class="cls-2" d="M104.89,24.26l0-.54,1-.25c0-.09,0-.2,0-.33s0-.3,0-.54,0-.54,0-.93V20.38c0-.38,0-.76,0-1.16s0-.67-.07-.85l-1.07-.23v-.5l2-.56.23.24-.08.87h0a4.23,4.23,0,0,1,1.16-.89,2.68,2.68,0,0,1,1.2-.27,2.36,2.36,0,0,1,1.11.29,2.3,2.3,0,0,1,.88.92,3.24,3.24,0,0,1,.35,1.6v1.87c0,.41,0,.78,0,1.1a4.15,4.15,0,0,0,.07.65l1,.25,0,.54h-3.1l0-.54,1-.25c0-.09,0-.19,0-.31s0-.28,0-.48V20a2.23,2.23,0,0,0-.28-1.22,1.62,1.62,0,0,0-.69-.64,1.79,1.79,0,0,0-.79-.19,2,2,0,0,0-1.07.29,2.75,2.75,0,0,0-.87.8v2.52c0,.55,0,1,0,1.28s0,.53,0,.67l1,.25,0,.54Z"/><path class="cls-2" d="M119.65,24.43l-.18-.2v-1.1h0a3.44,3.44,0,0,1-1.05,1,2.3,2.3,0,0,1-1.12.28,3.29,3.29,0,0,1-1.7-.44,3.16,3.16,0,0,1-1.17-1.21A3.67,3.67,0,0,1,114,21a4.23,4.23,0,0,1,.28-1.58,3.69,3.69,0,0,1,1.94-2.06,3.09,3.09,0,0,1,1.35-.29,4.17,4.17,0,0,1,1,.13,2.31,2.31,0,0,1,.89.43c0-.2,0-.47,0-.81s0-.7,0-1.07,0-.7,0-1v-.57l-1.32-.25,0-.49,2.23-.65.26.21c0,.69,0,1.36,0,2s0,1.34,0,2v3.82c0,.56,0,1.05,0,1.47s0,.71.06.87l1,.27V24Zm-2.09-1a2.11,2.11,0,0,0,1-.23,3,3,0,0,0,.93-.8V18.87a2.18,2.18,0,0,0-.88-.9,2.36,2.36,0,0,0-1-.26,2,2,0,0,0-1.73.8,3.27,3.27,0,0,0-.63,2.07,3,3,0,0,0,.7,2.09A2.21,2.21,0,0,0,117.56,23.42Z"/><path class="cls-2" d="M134.11,27a8,8,0,1,1,8-8A8,8,0,0,1,134.11,27Zm0-1.08A6.92,6.92,0,1,0,127.2,19,6.93,6.93,0,0,0,134.12,25.93Z"/><path class="cls-2" d="M130.43,21.84a.9.9,0,0,1,.26-.56c.7-.69,1.39-1.39,2.09-2.07.16-.16.16-.24,0-.4-.7-.68-1.38-1.37-2.07-2.06a.83.83,0,0,1,0-1.2.84.84,0,0,1,1.2.06L134,17.69c.13.13.2.14.35,0,.69-.71,1.4-1.41,2.1-2.11a.79.79,0,0,1,.8-.23.8.8,0,0,1,.39,1.33c-.2.23-.42.43-.63.64-.51.52-1,1-1.54,1.54-.12.11-.12.18,0,.3l2.1,2.09a.86.86,0,0,1,.22,1,.81.81,0,0,1-1.32.23L134.91,21c-.21-.21-.44-.42-.65-.65s-.18-.1-.28,0c-.7.71-1.4,1.4-2.1,2.1a.84.84,0,0,1-.76.29A.8.8,0,0,1,130.43,21.84Z"/></g></g></svg>