<svg xmlns="http://www.w3.org/2000/svg" viewBox="0 0 217.45 36.26"><defs><style>.cls-1{fill:#8a8e6d;}</style></defs><g id="Layer_2" data-name="Layer 2"><g id="Layer_1-2" data-name="Layer 1"><path class="cls-1" d="M6.36,8.65l0-.45L7,8.05a.68.68,0,0,0,0-.26c0-.13,0-.32,0-.54V3.75c0-.23,0-.42,0-.55A.58.58,0,0,0,7,3L6.33,2.8l0-.45H8.83l0,.45L8.19,3a1.41,1.41,0,0,0,0,.23c0,.13,0,.31,0,.54s0,.51,0,.85V6.44c0,.33,0,.61,0,.83s0,.4,0,.53a1.83,1.83,0,0,0,0,.25l.66.15,0,.45ZM8,5.76V5.08l.61,0h1.9l.59,0v.68l-.59,0H8.56Zm2.24,2.89,0-.45.66-.15s0-.12,0-.25,0-.3,0-.53V3.72c0-.23,0-.41,0-.54s0-.2,0-.23l-.66-.15,0-.45h2.5l0,.45L12.07,3s0,.11,0,.24,0,.31,0,.54,0,.51,0,.84V6.44c0,.31,0,.59,0,.82s0,.41,0,.54,0,.21,0,.25l.67.15,0,.45Z" transform="translate(-6.07 -1.15)"/><path class="cls-1" d="M15.24,8.74a1.57,1.57,0,0,1-.79-.19,1.44,1.44,0,0,1-.53-.47,1,1,0,0,1-.18-.56A.89.89,0,0,1,14,6.91a1.9,1.9,0,0,1,.77-.41L16.39,6v-.5A.7.7,0,0,0,16.23,5a1.06,1.06,0,0,0-.41-.34,1.2,1.2,0,0,0-.57-.13.42.42,0,0,0-.33.1.77.77,0,0,0-.11.4l0,.52a1.26,1.26,0,0,1-.73,0,.43.43,0,0,1-.29-.41.58.58,0,0,1,.18-.38,1.69,1.69,0,0,1,.45-.36,2.89,2.89,0,0,1,.58-.3,2.49,2.49,0,0,1,.59-.16,2,2,0,0,1,1.35.42,1.45,1.45,0,0,1,.51,1.12l0,1.71c0,.15,0,.29,0,.41a1.55,1.55,0,0,0,0,.29l.7.13v.37l-.58.23a1.76,1.76,0,0,1-.3.1.75.75,0,0,1-.24,0,.5.5,0,0,1-.49-.39l-.14-.45.18,0a2.85,2.85,0,0,1-.67.61A1.26,1.26,0,0,1,15.24,8.74ZM15.62,8A1,1,0,0,0,16,7.9a1.18,1.18,0,0,0,.36-.29V6.5l-1.05.26A.65.65,0,0,0,15,7a.51.51,0,0,0-.12.35.65.65,0,0,0,.23.48A.76.76,0,0,0,15.62,8Z" transform="translate(-6.07 -1.15)"/><path class="cls-1" d="M18.6,11l0-.42.67-.18a1.67,1.67,0,0,1,0-.19c0-.1,0-.23,0-.39s0-.34,0-.55,0-.46,0-.73l0-2.49c0-.21,0-.42,0-.62s-.05-.39-.07-.54l-.69-.15V4.37l1.59-.43.21.18-.06.6h0a2.08,2.08,0,0,1,.66-.6,1.53,1.53,0,0,1,.79-.21,1.91,1.91,0,0,1,1,.28,2,2,0,0,1,.72.79,2.52,2.52,0,0,1,.27,1.19,2.68,2.68,0,0,1-.32,1.29,2.46,2.46,0,0,1-.89.92,2.43,2.43,0,0,1-1.3.34,2.91,2.91,0,0,1-.49-.05,2.8,2.8,0,0,1-.46-.12v.77c0,.26,0,.49,0,.69s0,.33,0,.4l.88.16,0,.44Zm2.68-2.89a1.27,1.27,0,0,0,.7-.2,1.23,1.23,0,0,0,.48-.57,2.3,2.3,0,0,0,.18-.93,2,2,0,0,0-.16-.91A1.3,1.3,0,0,0,22,4.94a1.11,1.11,0,0,0-.67-.21,1.19,1.19,0,0,0-.56.14,1.42,1.42,0,0,0-.48.41V7.83a1.55,1.55,0,0,0,.45.21A1.6,1.6,0,0,0,21.28,8.13Z" transform="translate(-6.07 -1.15)"/><path class="cls-1" d="M24.46,11l0-.42.66-.18s0-.1,0-.19,0-.23,0-.39,0-.34,0-.55,0-.46,0-.73l0-2.49c0-.21,0-.42,0-.62s0-.39-.07-.54l-.69-.15V4.37L26,3.94l.22.18-.07.6h0a2.16,2.16,0,0,1,.65-.6,1.57,1.57,0,0,1,.8-.21,1.85,1.85,0,0,1,1,.28,2.07,2.07,0,0,1,.73.79,2.64,2.64,0,0,1,.26,1.19,2.57,2.57,0,0,1-.32,1.29,2.43,2.43,0,0,1-.88.92,2.48,2.48,0,0,1-1.31.34,2.8,2.8,0,0,1-.48-.05,2.56,2.56,0,0,1-.46-.12v.77c0,.26,0,.49,0,.69s0,.33,0,.4l.88.16,0,.44Zm2.67-2.89a1.31,1.31,0,0,0,.71-.2,1.27,1.27,0,0,0,.47-.57,2.29,2.29,0,0,0,.19-.93,2.31,2.31,0,0,0-.16-.91,1.37,1.37,0,0,0-.47-.58,1.13,1.13,0,0,0-.67-.21,1.26,1.26,0,0,0-.57.14,1.49,1.49,0,0,0-.47.41V7.83a1.34,1.34,0,0,0,.45.21A1.54,1.54,0,0,0,27.13,8.13Z" transform="translate(-6.07 -1.15)"/><path class="cls-1" d="M32.39,8.7,30.47,4.59,30,4.42,30,4h2.29l0,.42-.67.17L33,7.65ZM35.21,4l0,.42-.5.17L32.9,8.38l-.85,1.79a2.05,2.05,0,0,1-.53.73,1,1,0,0,1-.62.2.73.73,0,0,1-.47-.14.45.45,0,0,1-.18-.36.52.52,0,0,1,.14-.35.87.87,0,0,1,.46-.24l1.07-.33-.55.53,1.22-2.33.12-.22L34,4.59l-.67-.17,0-.42Z" transform="translate(-6.07 -1.15)"/><path class="cls-1" d="M42.5,4.08l-1.87,4.6h-.5L37.83,3l-.54-.15,0-.45H39.6l0,.45L39.09,3l1.74,4.53h-.32L42.15,3.2ZM44,8.68,41.75,3l-.54-.15,0-.45H43.6l0,.45L43,3l1.74,4.53h-.3L46.08,3l-.75-.15,0-.45h2l0,.45L46.89,3,44.54,8.68Z" transform="translate(-6.07 -1.15)"/><path class="cls-1" d="M49.69,8.74a2.38,2.38,0,0,1-1.16-.29,2.2,2.2,0,0,1-.81-.82,2.42,2.42,0,0,1-.3-1.22,2.59,2.59,0,0,1,.33-1.32,2.25,2.25,0,0,1,.83-.87,2,2,0,0,1,1.12-.3,1.68,1.68,0,0,1,1.36.57A2.3,2.3,0,0,1,51.54,6v.22H48.31V5.73h2.42l-.14.18V5.64a1.38,1.38,0,0,0-.26-.9.86.86,0,0,0-.71-.33,1,1,0,0,0-.56.17,1.3,1.3,0,0,0-.42.52,2.14,2.14,0,0,0-.15.86v.16a1.94,1.94,0,0,0,.42,1.32A1.43,1.43,0,0,0,50,7.92a1.65,1.65,0,0,0,.68-.14,2,2,0,0,0,.58-.48l.29.27a2,2,0,0,1-1.88,1.17Z" transform="translate(-6.07 -1.15)"/><path class="cls-1" d="M56,8.77l-.21-.14,0-.7h0a1.94,1.94,0,0,1-.64.64,1.46,1.46,0,0,1-.7.18,2.07,2.07,0,0,1-1.84-1.08,2.31,2.31,0,0,1-.29-1.17,2.61,2.61,0,0,1,.21-1.06,2.22,2.22,0,0,1,.56-.81,2.41,2.41,0,0,1,.79-.52,2.36,2.36,0,0,1,.9-.17,3.51,3.51,0,0,1,.55,0,1.44,1.44,0,0,1,.47.19V3.69c0-.19,0-.39,0-.6s0-.4,0-.56,0-.28,0-.34l-.83-.14,0-.4,1.72-.46.23.16c0,.44,0,.87,0,1.27s0,.83,0,1.26V6.36c0,.37,0,.68,0,.92s0,.43,0,.55l.68.17v.38Zm-1.23-.84a1.08,1.08,0,0,0,.52-.13,1.33,1.33,0,0,0,.49-.44V5a1,1,0,0,0-.46-.44,1.25,1.25,0,0,0-.55-.14,1.18,1.18,0,0,0-1,.47,2,2,0,0,0-.37,1.26,2,2,0,0,0,.39,1.29A1.2,1.2,0,0,0,54.79,7.93Z" transform="translate(-6.07 -1.15)"/><path class="cls-1" d="M61.87,8.77l-.2-.14v-.7h0a2,2,0,0,1-.64.64,1.5,1.5,0,0,1-.71.18,2,2,0,0,1-1.07-.29,2.09,2.09,0,0,1-.77-.79,2.3,2.3,0,0,1-.28-1.17,2.78,2.78,0,0,1,.2-1.06,2.35,2.35,0,0,1,.56-.81,2.45,2.45,0,0,1,.8-.52,2.32,2.32,0,0,1,.9-.17,3.51,3.51,0,0,1,.55,0,1.54,1.54,0,0,1,.47.19c0-.13,0-.29,0-.48s0-.39,0-.6,0-.4,0-.56,0-.28,0-.34l-.83-.14,0-.4,1.72-.46.22.16c0,.44,0,.87,0,1.27s0,.83,0,1.26V6.36c0,.37,0,.68,0,.92s0,.43,0,.55l.69.17v.38Zm-1.22-.84a1.07,1.07,0,0,0,.51-.13,1.35,1.35,0,0,0,.5-.44V5a1.08,1.08,0,0,0-.46-.44,1.28,1.28,0,0,0-.55-.14,1.19,1.19,0,0,0-1,.47,2,2,0,0,0-.37,1.26,2,2,0,0,0,.4,1.29A1.2,1.2,0,0,0,60.65,7.93Z" transform="translate(-6.07 -1.15)"/><path class="cls-1" d="M63.87,8.65l0-.43.72-.16a1.3,1.3,0,0,0,0-.17c0-.08,0-.2,0-.35s0-.35,0-.6V6.18c0-.26,0-.49,0-.71s0-.41-.06-.56l-.72-.15V4.37l1.67-.43.21.17c0,.22,0,.44,0,.66s0,.47,0,.76V6.88c0,.3,0,.56,0,.77a2,2,0,0,0,0,.41l.72.16,0,.43Zm1.26-5.82a.71.71,0,0,1-.53-.21.7.7,0,0,1,0-1,.71.71,0,0,1,.53-.21.69.69,0,0,1,.52.21.73.73,0,0,1,0,1A.69.69,0,0,1,65.13,2.83Z" transform="translate(-6.07 -1.15)"/><path class="cls-1" d="M66.88,8.65l0-.42.66-.17a.71.71,0,0,0,0-.19q0-.13,0-.36c0-.15,0-.34,0-.57V6.12q0-.35,0-.66c0-.21,0-.4-.07-.55l-.69-.15V4.37l1.59-.43.22.18-.06.58h0a2.48,2.48,0,0,1,.73-.6,1.78,1.78,0,0,1,.81-.19,1.43,1.43,0,0,1,.78.21,1.5,1.5,0,0,1,.57.62,2.19,2.19,0,0,1,.22,1V7c0,.25,0,.48,0,.69a1.4,1.4,0,0,0,0,.41l.66.17,0,.42H70.05l0-.42.62-.17c0-.06,0-.13,0-.23s0-.21,0-.35V5.93a1.48,1.48,0,0,0-.15-.72,1,1,0,0,0-.38-.4,1,1,0,0,0-.49-.12,1.32,1.32,0,0,0-.62.15,1.44,1.44,0,0,0-.48.44v1.6c0,.31,0,.57,0,.77a1.89,1.89,0,0,0,0,.41l.67.17,0,.42Z" transform="translate(-6.07 -1.15)"/><path class="cls-1" d="M75.13,11.1a3.52,3.52,0,0,1-1.63-.32,1,1,0,0,1-.59-.86.91.91,0,0,1,.31-.67,3.18,3.18,0,0,1,1-.59l.43.08a1.59,1.59,0,0,0-.5.46,1,1,0,0,0-.18.56.71.71,0,0,0,.33.62,1.68,1.68,0,0,0,.93.23,1.9,1.9,0,0,0,1.09-.29.85.85,0,0,0,.42-.72.58.58,0,0,0-.25-.5,1.78,1.78,0,0,0-.82-.21l-1.2-.1-.14,0a1.18,1.18,0,0,1-.72-.21A.61.61,0,0,1,73.28,8a.83.83,0,0,1,.3-.59,2.54,2.54,0,0,1,.82-.49l.15.21a1.23,1.23,0,0,0-.26.22.32.32,0,0,0-.1.22.28.28,0,0,0,.12.23.62.62,0,0,0,.34.11l1.46.15a2.17,2.17,0,0,1,1.15.39,1.09,1.09,0,0,1,.39.88,1.39,1.39,0,0,1-.33.9,2.15,2.15,0,0,1-.9.63A3.49,3.49,0,0,1,75.13,11.1Zm.07-3.76a2.44,2.44,0,0,1-1-.21,1.67,1.67,0,0,1-.72-.58,1.46,1.46,0,0,1-.26-.84,1.63,1.63,0,0,1,.27-.92,2,2,0,0,1,.73-.64,2.2,2.2,0,0,1,1-.23,2.25,2.25,0,0,1,1,.22,1.76,1.76,0,0,1,.7.62,1.48,1.48,0,0,1,.26.87,1.49,1.49,0,0,1-.26.88,1.7,1.7,0,0,1-.71.61A2.25,2.25,0,0,1,75.2,7.34Zm.07-.49a.77.77,0,0,0,.64-.31,1.35,1.35,0,0,0,.24-.84,1.6,1.6,0,0,0-.26-1,.82.82,0,0,0-.69-.35.8.8,0,0,0-.66.33,1.48,1.48,0,0,0-.25.88,1.39,1.39,0,0,0,.27.89A.85.85,0,0,0,75.27,6.85Zm2.56-2.09-1.35-.1-.41-.45L77.83,4Z" transform="translate(-6.07 -1.15)"/><path class="cls-1" d="M83.87,7.91a1.46,1.46,0,0,1-.57.61,1.53,1.53,0,0,1-.8.22,1.63,1.63,0,0,1-1.12-.4,1.6,1.6,0,0,1-.44-1.23l0-2.52h-.75V4.33L81.74,3H82l0,1.32V7a1.11,1.11,0,0,0,.23.76.89.89,0,0,0,.66.24,1.12,1.12,0,0,0,.44-.09,1.31,1.31,0,0,0,.37-.24ZM81.51,4.59V4h2v.58Z" transform="translate(-6.07 -1.15)"/><path class="cls-1" d="M86.54,8.74a2.49,2.49,0,0,1-1.25-.3,2.08,2.08,0,0,1-.84-.85,2.5,2.5,0,0,1-.3-1.24,2.34,2.34,0,0,1,.34-1.29,2.29,2.29,0,0,1,.88-.84,2.49,2.49,0,0,1,1.21-.3,2.31,2.31,0,0,1,1.19.3,2,2,0,0,1,.8.83,2.7,2.7,0,0,1,.28,1.24,2.56,2.56,0,0,1-.31,1.24,2.34,2.34,0,0,1-.83.88A2.15,2.15,0,0,1,86.54,8.74Zm.1-.56a.89.89,0,0,0,.58-.2,1.37,1.37,0,0,0,.38-.58,2.94,2.94,0,0,0,.13-.87A2.87,2.87,0,0,0,87.38,5a1.05,1.05,0,0,0-.94-.58,1,1,0,0,0-.83.46,2.16,2.16,0,0,0-.32,1.23,3.12,3.12,0,0,0,.17,1.05,1.77,1.77,0,0,0,.49.73A1.06,1.06,0,0,0,86.64,8.18Z" transform="translate(-6.07 -1.15)"/><path class="cls-1" d="M93.41,8.74a1.57,1.57,0,0,1-.79-.19,1.44,1.44,0,0,1-.53-.47,1,1,0,0,1-.18-.56.89.89,0,0,1,.23-.61,1.9,1.9,0,0,1,.77-.41L94.56,6v-.5A.75.75,0,0,0,94.41,5,1.17,1.17,0,0,0,94,4.67a1.2,1.2,0,0,0-.57-.13.42.42,0,0,0-.33.1A.77.77,0,0,0,93,5l0,.52a1.22,1.22,0,0,1-.72,0,.42.42,0,0,1-.3-.41.58.58,0,0,1,.18-.38,2.09,2.09,0,0,1,.45-.36,3.19,3.19,0,0,1,.58-.3,2.49,2.49,0,0,1,.59-.16,2,2,0,0,1,1.35.42,1.39,1.39,0,0,1,.51,1.12l0,1.71c0,.15,0,.29,0,.41a1,1,0,0,0,0,.29l.69.13v.37l-.58.23a1.76,1.76,0,0,1-.3.1.75.75,0,0,1-.24,0,.5.5,0,0,1-.49-.39l-.14-.45.19,0a3.09,3.09,0,0,1-.68.61A1.26,1.26,0,0,1,93.41,8.74ZM93.79,8a1,1,0,0,0,.41-.1,1.07,1.07,0,0,0,.36-.29V6.5l-1,.26a.65.65,0,0,0-.37.2.51.51,0,0,0-.11.35.64.64,0,0,0,.22.48A.76.76,0,0,0,93.79,8Z" transform="translate(-6.07 -1.15)"/><path class="cls-1" d="M99.38,8.36c0-.25,0-.48,0-.68s0-.41,0-.61V4.75c0-.26,0-.54,0-.82s0-.55,0-.79,0-.46,0-.64a2.74,2.74,0,0,0,0-.37L98.58,2l0-.39,1.67-.46.24.16,0,.89c0,.3,0,.64,0,1s0,.87,0,1.44h0a2,2,0,0,1,.64-.57,1.63,1.63,0,0,1,.86-.23,1.9,1.9,0,0,1,1.71,1,2.33,2.33,0,0,1,.28,1.19,2.57,2.57,0,0,1-1.33,2.28,2.84,2.84,0,0,1-1.4.34,5,5,0,0,1-1-.1A4.81,4.81,0,0,1,99.38,8.36Zm2.06-.24a1.25,1.25,0,0,0,1-.46,2,2,0,0,0,.4-1.32,1.59,1.59,0,0,0-.39-1.22,1.34,1.34,0,0,0-2,.13V7.79a1.61,1.61,0,0,0,.45.24A1.72,1.72,0,0,0,101.44,8.12Z" transform="translate(-6.07 -1.15)"/><path class="cls-1" d="M107,8.74a2.38,2.38,0,0,1-1.16-.29,2.2,2.2,0,0,1-.81-.82,2.42,2.42,0,0,1-.29-1.22,2.58,2.58,0,0,1,.32-1.32,2.2,2.2,0,0,1,.84-.87,2,2,0,0,1,1.11-.3,1.68,1.68,0,0,1,1.36.57A2.3,2.3,0,0,1,108.87,6v.22h-3.23V5.73h2.42l-.14.18V5.64a1.38,1.38,0,0,0-.26-.9.85.85,0,0,0-.71-.33,1,1,0,0,0-.56.17,1.21,1.21,0,0,0-.41.52,2,2,0,0,0-.16.86v.16a1.94,1.94,0,0,0,.42,1.32,1.44,1.44,0,0,0,1.12.48,1.6,1.6,0,0,0,.67-.14,2,2,0,0,0,.58-.48l.29.27A2,2,0,0,1,107,8.74Z" transform="translate(-6.07 -1.15)"/><path class="cls-1" d="M111.31,8.74a1.6,1.6,0,0,1-.8-.19,1.4,1.4,0,0,1-.52-.47,1,1,0,0,1-.19-.56.85.85,0,0,1,.24-.61,1.85,1.85,0,0,1,.76-.41L112.46,6v-.5A.7.7,0,0,0,112.3,5a1.06,1.06,0,0,0-.41-.34,1.2,1.2,0,0,0-.57-.13c-.17,0-.28,0-.33.1a.68.68,0,0,0-.11.4l0,.52a1.26,1.26,0,0,1-.73,0,.41.41,0,0,1-.29-.41.61.61,0,0,1,.17-.38,2.09,2.09,0,0,1,.45-.36,3.27,3.27,0,0,1,.59-.3,2.37,2.37,0,0,1,.59-.16,2,2,0,0,1,1.35.42,1.45,1.45,0,0,1,.51,1.12l0,1.71c0,.15,0,.29,0,.41a1.41,1.41,0,0,0,0,.29l.7.13v.37l-.58.23-.3.1a.81.81,0,0,1-.25,0,.49.49,0,0,1-.48-.39l-.14-.45.18,0a3.06,3.06,0,0,1-.67.61A1.28,1.28,0,0,1,111.31,8.74Zm.37-.74a1,1,0,0,0,.41-.1,1.21,1.21,0,0,0,.37-.29V6.5l-1,.26A.69.69,0,0,0,111,7a.56.56,0,0,0-.11.35.65.65,0,0,0,.23.48A.76.76,0,0,0,111.68,8Z" transform="translate(-6.07 -1.15)"/><path class="cls-1" d="M119.45,7.83l.69.17v.38l-1.54.39-.19-.14v-.7h0a2,2,0,0,1-.65.64,1.54,1.54,0,0,1-.72.18,1.68,1.68,0,0,1-1.22-.46,1.8,1.8,0,0,1-.48-1.37V6c0-.17,0-.35,0-.53s0-.36,0-.55l-.73-.15V4.37l1.62-.43.23.18c0,.21,0,.46,0,.72s0,.55,0,.84l0,1.09a1.2,1.2,0,0,0,.29.9,1.06,1.06,0,0,0,.77.28,1.08,1.08,0,0,0,.53-.14,1.32,1.32,0,0,0,.49-.48V6.14c0-.16,0-.31,0-.46s0-.28,0-.42a3.09,3.09,0,0,0,0-.35l-.78-.15V4.37l1.65-.43.21.16c0,.18,0,.35,0,.5V6.44c0,.32,0,.6,0,.84S119.44,7.7,119.45,7.83Z" transform="translate(-6.07 -1.15)"/><path class="cls-1" d="M124.16,7.91a1.46,1.46,0,0,1-.57.61,1.54,1.54,0,0,1-.81.22,1.65,1.65,0,0,1-1.12-.4,1.6,1.6,0,0,1-.44-1.23l0-2.52h-.76V4.33L122,3h.26l0,1.32V7a1.11,1.11,0,0,0,.23.76.9.9,0,0,0,.67.24,1.07,1.07,0,0,0,.43-.09,1.31,1.31,0,0,0,.37-.24Zm-2.37-3.32V4h2v.58Z" transform="translate(-6.07 -1.15)"/><path class="cls-1" d="M124.34,8.65l0-.43.72-.16s0-.08,0-.17,0-.2,0-.35,0-.35,0-.6V6.18c0-.26,0-.49,0-.71s0-.41-.07-.56l-.72-.15V4.37L126,3.94l.2.17c0,.22,0,.44,0,.66s0,.47,0,.76V6.88c0,.3,0,.56,0,.77s0,.35,0,.41l.72.16,0,.43Zm1.26-5.82a.73.73,0,0,1-.54-.21.7.7,0,0,1,0-1,.73.73,0,0,1,.54-.21.7.7,0,0,1,.52.21.73.73,0,0,1,0,1A.7.7,0,0,1,125.6,2.83Z" transform="translate(-6.07 -1.15)"/><path class="cls-1" d="M127.26,4.6V4.21L128,4h2.17V4.6ZM130,8.65h-2.56l0-.42.66-.17a2,2,0,0,0,0-.25V3.45a2.9,2.9,0,0,1,.24-1.21,1.83,1.83,0,0,1,.64-.8,1.64,1.64,0,0,1,1-.29,1.4,1.4,0,0,1,.77.2.61.61,0,0,1,.32.51.35.35,0,0,1-.12.28.39.39,0,0,1-.28.1A.79.79,0,0,1,130,2l-.53-.5.33.06a.61.61,0,0,0-.58.4A2.67,2.67,0,0,0,129,3.1V6.28c0,.33,0,.66,0,1s0,.59,0,.79l.88.16Z" transform="translate(-6.07 -1.15)"/><path class="cls-1" d="M135.45,7.83l.68.17v.38l-1.53.39-.2-.14,0-.7h0a1.87,1.87,0,0,1-.65.64,1.47,1.47,0,0,1-.71.18,1.71,1.71,0,0,1-1.23-.46,1.8,1.8,0,0,1-.48-1.37V6a4.78,4.78,0,0,0,0-.53l0-.55-.73-.15V4.37l1.62-.43.22.18c0,.21,0,.46,0,.72s0,.55,0,.84V6.77a1.2,1.2,0,0,0,.29.9,1,1,0,0,0,.76.28,1.14,1.14,0,0,0,.54-.14,1.23,1.23,0,0,0,.48-.48V5.68c0-.14,0-.28,0-.42s0-.25,0-.35l-.79-.15V4.37l1.66-.43.2.16c0,.18,0,.35,0,.5s0,.32,0,.49V6.44c0,.32,0,.6,0,.84S135.43,7.7,135.45,7.83Z" transform="translate(-6.07 -1.15)"/><path class="cls-1" d="M136.61,8.65l0-.43.7-.16a1.37,1.37,0,0,0,0-.36c0-.17,0-.4,0-.67s0-.58,0-.92V4.75c0-.25,0-.52,0-.8s0-.53,0-.78,0-.45,0-.63a3.31,3.31,0,0,0,0-.4l-.79-.1,0-.39,1.69-.46.24.16c0,.3,0,.6,0,.89s0,.63,0,1v3c0,.46,0,.86,0,1.2s0,.56,0,.64l.7.16,0,.43Z" transform="translate(-6.07 -1.15)"/><path class="cls-1" d="M144.09,8.74a2.36,2.36,0,0,1-1.15-.28,2.2,2.2,0,0,1-.82-.81,2.42,2.42,0,0,1-.3-1.22,2.47,2.47,0,0,1,.32-1.27,2.43,2.43,0,0,1,.89-.91,2.53,2.53,0,0,1,1.29-.33,2.43,2.43,0,0,1,.81.12,1.17,1.17,0,0,1,.52.33.63.63,0,0,1,.18.43.44.44,0,0,1-.12.32.42.42,0,0,1-.33.13.79.79,0,0,1-.32-.07,1.3,1.3,0,0,1-.32-.26l-.62-.6.42.12a1.09,1.09,0,0,0-.75.09,1.36,1.36,0,0,0-.61.58,2.11,2.11,0,0,0-.24,1.06,1.83,1.83,0,0,0,.43,1.3,1.38,1.38,0,0,0,1.06.45,1.6,1.6,0,0,0,.67-.14,1.89,1.89,0,0,0,.57-.48l.3.26a2.06,2.06,0,0,1-.79.88A2,2,0,0,1,144.09,8.74Z" transform="translate(-6.07 -1.15)"/><path class="cls-1" d="M148.83,8.74a2.49,2.49,0,0,1-1.25-.3,2.06,2.06,0,0,1-.83-.85,2.5,2.5,0,0,1-.3-1.24,2.43,2.43,0,0,1,.33-1.29,2.32,2.32,0,0,1,.89-.84,2.46,2.46,0,0,1,1.2-.3,2.35,2.35,0,0,1,1.2.3,2,2,0,0,1,.79.83,2.58,2.58,0,0,1,.28,1.24,2.46,2.46,0,0,1-.31,1.24,2.34,2.34,0,0,1-.83.88A2.15,2.15,0,0,1,148.83,8.74Zm.11-.56a.88.88,0,0,0,.57-.2,1.37,1.37,0,0,0,.38-.58,2.65,2.65,0,0,0,.13-.87,2.78,2.78,0,0,0-.35-1.5,1,1,0,0,0-.94-.58,1,1,0,0,0-.83.46,2.16,2.16,0,0,0-.32,1.23,2.89,2.89,0,0,0,.18,1.05,1.67,1.67,0,0,0,.48.73A1.08,1.08,0,0,0,148.94,8.18Z" transform="translate(-6.07 -1.15)"/><path class="cls-1" d="M156.62,7.83l.69.17v.38l-1.54.39-.19-.14v-.7h0a2,2,0,0,1-.65.64,1.54,1.54,0,0,1-.72.18A1.68,1.68,0,0,1,153,8.28a1.76,1.76,0,0,1-.49-1.37V6c0-.17,0-.35,0-.53s0-.36,0-.55l-.73-.15V4.37l1.62-.43.23.18c0,.21,0,.46,0,.72s0,.55,0,.84V6.77a1.2,1.2,0,0,0,.29.9,1.06,1.06,0,0,0,.77.28,1.08,1.08,0,0,0,.53-.14,1.32,1.32,0,0,0,.49-.48V6.14c0-.16,0-.31,0-.46s0-.28,0-.42a1.83,1.83,0,0,0,0-.35l-.78-.15V4.37l1.65-.43.21.16c0,.18,0,.35,0,.5s0,.32,0,.49V6.44q0,.48,0,.84C156.59,7.51,156.6,7.7,156.62,7.83Z" transform="translate(-6.07 -1.15)"/><path class="cls-1" d="M157.79,11l0-.42.66-.18s0-.1,0-.19a3.84,3.84,0,0,0,0-.39c0-.15,0-.34,0-.55s0-.46,0-.73l0-2.49c0-.21,0-.42,0-.62s0-.39-.07-.54l-.69-.15V4.37l1.59-.43.22.18-.06.6h0a2.16,2.16,0,0,1,.65-.6,1.59,1.59,0,0,1,.8-.21,1.85,1.85,0,0,1,1,.28,2,2,0,0,1,.73.79A2.52,2.52,0,0,1,163,6.18a2.58,2.58,0,0,1-.33,1.29,2.43,2.43,0,0,1-.88.92,2.46,2.46,0,0,1-1.31.34,2.8,2.8,0,0,1-.48-.05,2.56,2.56,0,0,1-.46-.12v.77c0,.26,0,.49,0,.69s0,.33,0,.4l.88.16,0,.44Zm2.67-2.89a1.31,1.31,0,0,0,.71-.2,1.36,1.36,0,0,0,.48-.57,2.48,2.48,0,0,0,.18-.93,2.15,2.15,0,0,0-.16-.91,1.37,1.37,0,0,0-.47-.58,1.13,1.13,0,0,0-.67-.21,1.26,1.26,0,0,0-.57.14,1.49,1.49,0,0,0-.47.41V7.83a1.55,1.55,0,0,0,.45.21A1.58,1.58,0,0,0,160.46,8.13Z" transform="translate(-6.07 -1.15)"/><path class="cls-1" d="M163.63,8.65l0-.43.7-.16a2.05,2.05,0,0,0,0-.36c0-.17,0-.4,0-.67s0-.58,0-.92V4c0-.27,0-.53,0-.78s0-.45,0-.63a3.31,3.31,0,0,0,0-.4l-.79-.1,0-.39,1.7-.46.24.16c0,.3,0,.6,0,.89s0,.63,0,1,0,.8,0,1.32V6.22c0,.46,0,.86,0,1.2a4.61,4.61,0,0,0,0,.64l.7.16,0,.43Z" transform="translate(-6.07 -1.15)"/><path class="cls-1" d="M169.05,8.74a2.35,2.35,0,0,1-1.16-.29,2.06,2.06,0,0,1-.81-.82,2.42,2.42,0,0,1-.3-1.22,2.69,2.69,0,0,1,.32-1.32,2.34,2.34,0,0,1,.84-.87,2,2,0,0,1,1.12-.3,1.68,1.68,0,0,1,1.36.57A2.3,2.3,0,0,1,170.9,6v.22h-3.24V5.73h2.43l-.14.18V5.64a1.44,1.44,0,0,0-.26-.9.88.88,0,0,0-.72-.33,1,1,0,0,0-.55.17,1.16,1.16,0,0,0-.42.52,2.13,2.13,0,0,0-.16.86v.16a1.94,1.94,0,0,0,.43,1.32,1.4,1.4,0,0,0,1.11.48,1.57,1.57,0,0,0,.67-.14,2.08,2.08,0,0,0,.59-.48l.29.27a2.19,2.19,0,0,1-.79.88A2.14,2.14,0,0,1,169.05,8.74Z" transform="translate(-6.07 -1.15)"/><path class="cls-1" d="M171.69,10.66l-.17-.35a2,2,0,0,0,.73-.5,1,1,0,0,0,.25-.65.68.68,0,0,0-.07-.31,1.12,1.12,0,0,0-.18-.2l-.2-.19a.62.62,0,0,1-.17-.22.61.61,0,0,1-.07-.32.66.66,0,0,1,.21-.48.81.81,0,0,1,.93-.08.76.76,0,0,1,.32.36,1.41,1.41,0,0,1,.12.63,2.36,2.36,0,0,1-.2.93,2.52,2.52,0,0,1-.58.81A2.86,2.86,0,0,1,171.69,10.66Z" transform="translate(-6.07 -1.15)"/><path class="cls-1" d="M181.44,7V4.81c0-.4,0-.74,0-1s0-.47,0-.61a.83.83,0,0,0,0-.25l-.73-.15,0-.45h2.12l0,.45-.68.15s0,.11,0,.25,0,.34,0,.61,0,.6,0,1V8c0,.25,0,.49,0,.75h-.54L177.5,3.49h.35V6.13c0,.41,0,.76,0,1s0,.49,0,.63a1.83,1.83,0,0,0,0,.26l.74.15,0,.45h-2.15l0-.45.66-.15a.88.88,0,0,0,0-.27c0-.14,0-.35,0-.63s0-.61,0-1V4.42c0-.29,0-.53,0-.74s0-.37,0-.5a.67.67,0,0,0,0-.23l-.66-.15,0-.45H178L181.71,7Z" transform="translate(-6.07 -1.15)"/><path class="cls-1" d="M185.27,8.74a1.6,1.6,0,0,1-.8-.19,1.4,1.4,0,0,1-.52-.47,1,1,0,0,1-.19-.56.85.85,0,0,1,.24-.61,1.85,1.85,0,0,1,.76-.41L186.42,6v-.5a.7.7,0,0,0-.16-.46,1.06,1.06,0,0,0-.41-.34,1.2,1.2,0,0,0-.57-.13c-.17,0-.28,0-.33.1a.68.68,0,0,0-.11.4l0,.52a1.26,1.26,0,0,1-.73,0,.41.41,0,0,1-.29-.41.56.56,0,0,1,.17-.38,1.94,1.94,0,0,1,.46-.36,2.89,2.89,0,0,1,.58-.3,2.37,2.37,0,0,1,.59-.16,2,2,0,0,1,1.35.42,1.45,1.45,0,0,1,.51,1.12l0,1.71c0,.15,0,.29,0,.41a1.41,1.41,0,0,0,.05.29l.7.13v.37l-.58.23-.3.1a.81.81,0,0,1-.25,0,.49.49,0,0,1-.48-.39l-.14-.45.18,0a3.06,3.06,0,0,1-.67.61A1.28,1.28,0,0,1,185.27,8.74Zm.37-.74a1,1,0,0,0,.41-.1,1.21,1.21,0,0,0,.37-.29V6.5l-1,.26A.62.62,0,0,0,185,7a.51.51,0,0,0-.12.35.65.65,0,0,0,.23.48A.76.76,0,0,0,185.64,8Z" transform="translate(-6.07 -1.15)"/><path class="cls-1" d="M192.47,8.77l-.21-.14v-.7h0a1.94,1.94,0,0,1-.64.64,1.46,1.46,0,0,1-.7.18,2.07,2.07,0,0,1-1.84-1.08,2.31,2.31,0,0,1-.29-1.17,2.78,2.78,0,0,1,.2-1.06,2.49,2.49,0,0,1,.56-.81,2.45,2.45,0,0,1,.8-.52,2.32,2.32,0,0,1,.9-.17,3.51,3.51,0,0,1,.55,0,1.54,1.54,0,0,1,.47.19V3.69c0-.19,0-.39,0-.6s0-.4,0-.56,0-.28,0-.34l-.83-.14,0-.4,1.72-.46.22.16c0,.44,0,.87,0,1.27s0,.83,0,1.26V6.36c0,.37,0,.68,0,.92s0,.43,0,.55L194,8v.38Zm-1.23-.84a1.14,1.14,0,0,0,.52-.13,1.41,1.41,0,0,0,.49-.44V5a1,1,0,0,0-.46-.44,1.28,1.28,0,0,0-.55-.14,1.21,1.21,0,0,0-1,.47,2,2,0,0,0-.36,1.26,2,2,0,0,0,.39,1.29A1.2,1.2,0,0,0,191.24,7.93Z" transform="translate(-6.07 -1.15)"/><path class="cls-1" d="M194.46,8.65l0-.43.72-.16a.54.54,0,0,0,0-.17,2.87,2.87,0,0,0,0-.35c0-.15,0-.35,0-.6V6.18c0-.26,0-.49,0-.71a3.84,3.84,0,0,0-.06-.56l-.72-.15V4.37l1.68-.43.2.17c0,.22,0,.44-.05.66s0,.47,0,.76V6.88c0,.3,0,.56,0,.77a2,2,0,0,0,0,.41l.72.16,0,.43Zm1.26-5.82a.72.72,0,0,1-.53-.21.7.7,0,0,1,0-1,.72.72,0,0,1,.53-.21.67.67,0,0,1,.52.21.73.73,0,0,1,0,1A.67.67,0,0,1,195.72,2.83Z" transform="translate(-6.07 -1.15)"/><path class="cls-1" d="M199.54,8.7l-1.91-4.11-.5-.17,0-.42h2.29l0,.42-.67.17,1.39,3.06ZM202.37,4l0,.42-.5.17-1.84,3.79-.85,1.79a2.05,2.05,0,0,1-.53.73,1,1,0,0,1-.62.2.78.78,0,0,1-.48-.14.48.48,0,0,1-.17-.36.52.52,0,0,1,.14-.35A.87.87,0,0,1,198,10l1.07-.33-.56.53,1.23-2.33.12-.22,1.32-3.07-.67-.17,0-.42Z" transform="translate(-6.07 -1.15)"/><path class="cls-1" d="M204.33,8.74a1.58,1.58,0,0,1-.8-.19,1.52,1.52,0,0,1-.53-.47,1,1,0,0,1-.18-.56.85.85,0,0,1,.24-.61,1.78,1.78,0,0,1,.76-.41L205.47,6v-.5a.75.75,0,0,0-.15-.46,1.14,1.14,0,0,0-.41-.34,1.25,1.25,0,0,0-.57-.13.43.43,0,0,0-.34.1.78.78,0,0,0-.1.4l0,.52a1.22,1.22,0,0,1-.72,0,.42.42,0,0,1-.3-.41.58.58,0,0,1,.18-.38,2.09,2.09,0,0,1,.45-.36,3,3,0,0,1,.59-.3,2.26,2.26,0,0,1,.59-.16,2.06,2.06,0,0,1,1.35.42,1.45,1.45,0,0,1,.51,1.12l0,1.71c0,.15,0,.29,0,.41a1.41,1.41,0,0,0,.05.29l.7.13v.37l-.58.23a2.63,2.63,0,0,1-.3.1.85.85,0,0,1-.25,0,.48.48,0,0,1-.48-.39l-.14-.45.18,0a3.09,3.09,0,0,1-.68.61A1.25,1.25,0,0,1,204.33,8.74ZM204.7,8a1,1,0,0,0,.41-.1,1.07,1.07,0,0,0,.36-.29V6.5l-1.05.26a.69.69,0,0,0-.37.2.56.56,0,0,0-.11.35.64.64,0,0,0,.22.48A.76.76,0,0,0,204.7,8Z" transform="translate(-6.07 -1.15)"/><path class="cls-1" d="M207.71,8.65l0-.42.66-.17a2,2,0,0,0,0-.36c0-.18,0-.4,0-.67s0-.58,0-.92V4.76c0-.24,0-.5,0-.76s0-.53,0-.78,0-.48,0-.67,0-.33,0-.41l-.79-.1,0-.39,1.67-.46.24.16c0,.22,0,.44,0,.66s0,.45,0,.7,0,.54,0,.86,0,.7,0,1.13h0a2.48,2.48,0,0,1,.73-.6,1.71,1.71,0,0,1,.8-.19,1.52,1.52,0,0,1,.78.21,1.6,1.6,0,0,1,.57.63,2.22,2.22,0,0,1,.22,1.06V7c0,.25,0,.47,0,.68a2.4,2.4,0,0,0,0,.42l.66.17,0,.42h-2.33l0-.42.62-.17c0-.06,0-.13,0-.23s0-.21,0-.35V5.93a1.6,1.6,0,0,0-.14-.71.92.92,0,0,0-.38-.4,1,1,0,0,0-.5-.13,1.31,1.31,0,0,0-.61.15,1.47,1.47,0,0,0-.49.44v1.6c0,.32,0,.58,0,.78a1.76,1.76,0,0,0,.05.4l.66.17,0,.42Z" transform="translate(-6.07 -1.15)"/><path class="cls-1" d="M218.25,8.74a3.36,3.36,0,0,1-1.32-.23,1.77,1.77,0,0,1-.78-.62,1.51,1.51,0,0,1-.26-.84,1.63,1.63,0,0,1,.21-.78,2.46,2.46,0,0,1,.68-.75A5.32,5.32,0,0,1,218,4.85a5.22,5.22,0,0,0,1-.63,2.07,2.07,0,0,0,.52-.63,1.6,1.6,0,0,0,.16-.7.9.9,0,0,0-.22-.67A.7.7,0,0,0,219,2a.82.82,0,0,0-.62.28,1.18,1.18,0,0,0-.25.82,2.62,2.62,0,0,0,.07.62,3.1,3.1,0,0,0,.24.63,6.41,6.41,0,0,0,.43.71c.17.26.37.55.61.87a10.69,10.69,0,0,0,1,1.16,4.08,4.08,0,0,0,.9.7,2.05,2.05,0,0,0,.92.23,1.51,1.51,0,0,0,.53-.09,1.83,1.83,0,0,0,.49-.27l.25.3a1.74,1.74,0,0,1-.71.58,2.29,2.29,0,0,1-1,.2,2.86,2.86,0,0,1-1.18-.24,3.7,3.7,0,0,1-1.06-.75,11.59,11.59,0,0,1-1.08-1.27c-.34-.47-.62-.88-.83-1.22a4.61,4.61,0,0,1-.47-1,3,3,0,0,1-.14-.9,2,2,0,0,1,.24-1A1.88,1.88,0,0,1,219,1.48a1.71,1.71,0,0,1,1.15.37,1.27,1.27,0,0,1,.44,1,1.69,1.69,0,0,1-.23.84,2.66,2.66,0,0,1-.72.76,8.32,8.32,0,0,1-1.33.79,2.58,2.58,0,0,0-1,.73,1.46,1.46,0,0,0-.28.84,1.1,1.1,0,0,0,.7,1,2.09,2.09,0,0,0,.83.15,2.57,2.57,0,0,0,1.1-.23,2.41,2.41,0,0,0,.88-.76,5.77,5.77,0,0,0,.71-1.41l-.76-.11,0-.46h2.32l0,.45-.75.13a10,10,0,0,1-1.09,1.72,4.08,4.08,0,0,1-1.27,1A3.35,3.35,0,0,1,218.25,8.74Z" transform="translate(-6.07 -1.15)"/><path class="cls-1" d="M9.56,22a4.3,4.3,0,0,1-1.79-.36,2.87,2.87,0,0,1-1.24-1.07,3.09,3.09,0,0,1-.46-1.74,3.41,3.41,0,0,1,.26-1.32,3.06,3.06,0,0,1,.73-1.05,3.34,3.34,0,0,1,1.13-.71,4.29,4.29,0,0,1,1.52-.25,5.34,5.34,0,0,1,.95.09,4,4,0,0,1,.86.25l.05,1.44-.52.05-.33-1a1.53,1.53,0,0,0-.52-.2,3.09,3.09,0,0,0-.58-.06,2.24,2.24,0,0,0-1.27.33,2,2,0,0,0-.73.9,3.23,3.23,0,0,0-.24,1.27,3.44,3.44,0,0,0,.31,1.51,2.23,2.23,0,0,0,2,1.28,2.52,2.52,0,0,0,.58-.08,1.5,1.5,0,0,0,.56-.25l-.23.6V20.48c0-.21,0-.4,0-.58a3,3,0,0,0,0-.41l-.74-.13,0-.46h2.28l0,.44-.49.14a1.72,1.72,0,0,0,0,.28c0,.14,0,.31,0,.49s0,.39,0,.56,0,.35,0,.55a3.64,3.64,0,0,1-1,.43A4.16,4.16,0,0,1,9.56,22Z" transform="translate(-6.07 -1.15)"/><path class="cls-1" d="M14.61,21.94a1.57,1.57,0,0,1-.79-.19,1.36,1.36,0,0,1-.53-.47,1,1,0,0,1-.18-.56.89.89,0,0,1,.23-.61,1.9,1.9,0,0,1,.77-.41l1.65-.53v-.5a.75.75,0,0,0-.15-.46,1.17,1.17,0,0,0-.42-.34,1.2,1.2,0,0,0-.57-.13.42.42,0,0,0-.33.1.77.77,0,0,0-.11.4l0,.52a1.22,1.22,0,0,1-.72,0,.42.42,0,0,1-.3-.41.58.58,0,0,1,.18-.38,2.09,2.09,0,0,1,.45-.36,3.19,3.19,0,0,1,.58-.3,2.49,2.49,0,0,1,.59-.16,2,2,0,0,1,1.35.42,1.39,1.39,0,0,1,.51,1.12l0,1.71c0,.15,0,.29,0,.41a1,1,0,0,0,.05.29l.69.13v.37L17,21.8a1.76,1.76,0,0,1-.3.1.75.75,0,0,1-.24,0,.5.5,0,0,1-.49-.39l-.14-.45.19,0a3.09,3.09,0,0,1-.68.61A1.26,1.26,0,0,1,14.61,21.94ZM15,21.2a.86.86,0,0,0,.41-.1,1.07,1.07,0,0,0,.36-.29V19.7l-1,.26a.65.65,0,0,0-.37.2.51.51,0,0,0-.11.35.64.64,0,0,0,.22.48A.76.76,0,0,0,15,21.2Z" transform="translate(-6.07 -1.15)"/><path class="cls-1" d="M18,21.85l0-.43.7-.16q0-.09,0-.36c0-.17,0-.4,0-.67s0-.58,0-.92V17.15c0-.27,0-.53,0-.78s0-.45,0-.63,0-.32,0-.4l-.79-.1,0-.39,1.7-.46.24.16c0,.3,0,.6,0,.89s0,.63,0,1,0,.8,0,1.32v1.67c0,.46,0,.86,0,1.2a4.61,4.61,0,0,0,0,.64l.7.16,0,.43Z" transform="translate(-6.07 -1.15)"/><path class="cls-1" d="M20.93,21.85l0-.43.72-.16s0-.08,0-.17,0-.2,0-.35,0-.35,0-.6v-.76c0-.26,0-.49,0-.71s0-.41-.07-.56L20.86,18v-.39l1.68-.43.2.17c0,.22,0,.44,0,.66s0,.47,0,.76v1.35c0,.3,0,.56,0,.77s0,.35,0,.41l.72.16,0,.43ZM22.19,16a.73.73,0,0,1-.54-.21.7.7,0,0,1,0-1,.73.73,0,0,1,.54-.21.7.7,0,0,1,.52.21.73.73,0,0,1,0,1A.7.7,0,0,1,22.19,16Z" transform="translate(-6.07 -1.15)"/><path class="cls-1" d="M23.94,21.85l0-.42.67-.17a2.28,2.28,0,0,0,0-.36c0-.18,0-.4,0-.67s0-.58,0-.92V17.2c0-.27,0-.53,0-.78s0-.48,0-.67a3.52,3.52,0,0,0,0-.41l-.79-.1,0-.39,1.68-.46.24.16c0,.22,0,.44,0,.66s0,.45,0,.7,0,.54,0,.86,0,.7,0,1.13h0a2.51,2.51,0,0,1,.74-.6,1.69,1.69,0,0,1,.8-.19,1.46,1.46,0,0,1,.77.21,1.55,1.55,0,0,1,.58.63A2.22,2.22,0,0,1,28.75,19v1.14c0,.25,0,.47,0,.68s0,.35,0,.42l.67.17,0,.42H27.12l0-.42.63-.17c0-.06,0-.13,0-.23s0-.21,0-.35,0-.29,0-.47V19.13a1.47,1.47,0,0,0-.15-.71.9.9,0,0,0-.37-.4,1,1,0,0,0-.5-.13,1.28,1.28,0,0,0-.61.15,1.5,1.5,0,0,0-.5.44v1.6c0,.32,0,.58,0,.78a1.76,1.76,0,0,0,.05.4l.65.17,0,.42Z" transform="translate(-6.07 -1.15)"/><path class="cls-1" d="M31,22a.77.77,0,0,1-.78-.76.67.67,0,0,1,.1-.38.7.7,0,0,1,.27-.27.8.8,0,0,1,.41-.1.77.77,0,0,1,.55.21.71.71,0,0,1,.23.54A.77.77,0,0,1,31,22Z" transform="translate(-6.07 -1.15)"/><path class="cls-1" d="M35,15.55h2l2.25,5H39l2.15-5h1.9l0,.45-.68.14v.51c0,.26,0,.56,0,.91l.06,1.94c0,.34,0,.63,0,.86s0,.44,0,.58,0,.25,0,.31l.67.15,0,.45H40.73l0-.45.67-.15a1.94,1.94,0,0,0,0-.27v-.51c0-.22,0-.5,0-.85l0-3.76h.34l-2.59,6h-.46l-2.73-6h.4v3.66c0,.59,0,1,0,1.26s0,.42,0,.48l.74.15,0,.45H34.85l0-.45.74-.15c0-.05,0-.15,0-.29s0-.32,0-.54,0-.47,0-.75l0-2.1c0-.35,0-.65,0-.9s0-.41,0-.52L35,16Z" transform="translate(-6.07 -1.15)"/><path class="cls-1" d="M45.75,21.94a1.57,1.57,0,0,1-.79-.19,1.36,1.36,0,0,1-.53-.47,1,1,0,0,1-.18-.56.85.85,0,0,1,.24-.61,1.78,1.78,0,0,1,.76-.41l1.65-.53v-.5a.75.75,0,0,0-.15-.46,1.09,1.09,0,0,0-.42-.34,1.2,1.2,0,0,0-.57-.13.42.42,0,0,0-.33.1.77.77,0,0,0-.11.4l0,.52a1.22,1.22,0,0,1-.72,0,.42.42,0,0,1-.3-.41.58.58,0,0,1,.18-.38,2.09,2.09,0,0,1,.45-.36,3,3,0,0,1,.59-.3,2.26,2.26,0,0,1,.59-.16,2,2,0,0,1,1.34.42,1.39,1.39,0,0,1,.51,1.12l0,1.71c0,.15,0,.29,0,.41a1.41,1.41,0,0,0,0,.29l.7.13v.37l-.58.23a2.22,2.22,0,0,1-.31.1.75.75,0,0,1-.24,0,.5.5,0,0,1-.49-.39l-.14-.45.19,0a3.09,3.09,0,0,1-.68.61A1.26,1.26,0,0,1,45.75,21.94Zm.38-.74a.86.86,0,0,0,.41-.1,1.07,1.07,0,0,0,.36-.29V19.7l-1,.26a.69.69,0,0,0-.37.2.51.51,0,0,0-.11.35.64.64,0,0,0,.22.48A.76.76,0,0,0,46.13,21.2Z" transform="translate(-6.07 -1.15)"/><path class="cls-1" d="M51.16,21.9l-1.91-4.11-.51-.17,0-.42h2.29l0,.42-.66.17,1.38,3.06ZM54,17.2l0,.42-.5.17-1.84,3.79-.85,1.79a1.94,1.94,0,0,1-.53.73,1,1,0,0,1-.62.2.73.73,0,0,1-.47-.14A.45.45,0,0,1,49,23.8a.52.52,0,0,1,.14-.35.87.87,0,0,1,.46-.24l1.08-.33-.56.53,1.22-2.33.12-.22,1.32-3.07-.67-.17,0-.42Z" transform="translate(-6.07 -1.15)"/><path class="cls-1" d="M58.39,21.9l-1.92-4.11-.5-.17,0-.42h2.29l0,.42-.66.17L59,20.85Zm2.82-4.7,0,.42-.5.17L58.9,21.58l-.85,1.79a2.05,2.05,0,0,1-.53.73,1,1,0,0,1-.62.2.73.73,0,0,1-.47-.14.45.45,0,0,1-.18-.36.52.52,0,0,1,.14-.35.87.87,0,0,1,.46-.24l1.07-.33-.55.53,1.22-2.33.12-.22L60,17.79l-.67-.17,0-.42Z" transform="translate(-6.07 -1.15)"/><path class="cls-1" d="M63.89,21.94a2.49,2.49,0,0,1-1.25-.3,2.08,2.08,0,0,1-.84-.85,2.5,2.5,0,0,1-.3-1.24,2.43,2.43,0,0,1,.33-1.29,2.39,2.39,0,0,1,.89-.84,2.49,2.49,0,0,1,1.21-.3,2.31,2.31,0,0,1,1.19.3,2,2,0,0,1,.8.83,2.7,2.7,0,0,1,.28,1.24,2.56,2.56,0,0,1-.31,1.24,2.34,2.34,0,0,1-.83.88A2.15,2.15,0,0,1,63.89,21.94Zm.1-.56a.89.89,0,0,0,.58-.2,1.35,1.35,0,0,0,.37-.58,2.65,2.65,0,0,0,.14-.87,2.87,2.87,0,0,0-.35-1.5,1.05,1.05,0,0,0-.94-.58,1,1,0,0,0-.83.46,2.16,2.16,0,0,0-.32,1.23,3.12,3.12,0,0,0,.17,1.05,1.77,1.77,0,0,0,.49.73A1.06,1.06,0,0,0,64,21.38Z" transform="translate(-6.07 -1.15)"/><path class="cls-1" d="M71.67,21l.69.17v.38L70.83,22l-.2-.14v-.7h0a1.87,1.87,0,0,1-.65.64,1.47,1.47,0,0,1-.71.18A1.69,1.69,0,0,1,68,21.48a1.8,1.8,0,0,1-.48-1.37v-.92c0-.17,0-.35,0-.53l0-.55L66.75,18v-.39l1.63-.43.22.18c0,.21,0,.46,0,.72s0,.55,0,.84V20a1.2,1.2,0,0,0,.29.91,1.07,1.07,0,0,0,.76.27,1.14,1.14,0,0,0,.54-.14,1.3,1.3,0,0,0,.48-.48V18.88c0-.14,0-.28,0-.42s0-.25,0-.35L69.77,18v-.39l1.66-.43.2.16c0,.18,0,.35,0,.5s0,.32,0,.49v1.35c0,.32,0,.6,0,.84S71.66,20.9,71.67,21Z" transform="translate(-6.07 -1.15)"/><path class="cls-1" d="M72.88,21.85l0-.42.66-.17a.62.62,0,0,0,0-.18,3.47,3.47,0,0,0,0-.38c0-.15,0-.34,0-.56v-.82c0-.24,0-.46,0-.67s0-.39-.07-.54L72.79,18v-.39l1.58-.43.19.16,0,.88h0a2.18,2.18,0,0,1,.64-.83,1.18,1.18,0,0,1,.64-.21.72.72,0,0,1,.44.13.5.5,0,0,1,.19.42.54.54,0,0,1-.2.43.76.76,0,0,1-.48.15.87.87,0,0,1-.4-.09,1.36,1.36,0,0,1-.36-.26l.21.06a1.59,1.59,0,0,0-.35.34,2.4,2.4,0,0,0-.32.53l0,.94c0,.21,0,.41,0,.61s0,.37,0,.52,0,.26,0,.33l.93.15,0,.44Z" transform="translate(-6.07 -1.15)"/><path class="cls-1" d="M79,21.85l0-.43.69-.16a1.78,1.78,0,0,0,0-.36c0-.17,0-.4,0-.67s0-.58,0-.92V18c0-.25,0-.52,0-.8s0-.53,0-.78,0-.45,0-.63,0-.32,0-.4l-.8-.1,0-.39,1.7-.46.23.16c0,.3,0,.6,0,.89s0,.63,0,1,0,.8,0,1.32v1.67c0,.46,0,.86,0,1.2s0,.56,0,.64l.7.16,0,.43Z" transform="translate(-6.07 -1.15)"/><path class="cls-1" d="M84.49,21.94a2.49,2.49,0,0,1-1.25-.3,2.06,2.06,0,0,1-.83-.85,2.5,2.5,0,0,1-.3-1.24,2.43,2.43,0,0,1,.33-1.29,2.36,2.36,0,0,1,.88-.84,2.52,2.52,0,0,1,1.21-.3,2.38,2.38,0,0,1,1.2.3,2,2,0,0,1,.79.83,2.58,2.58,0,0,1,.28,1.24,2.46,2.46,0,0,1-.31,1.24,2.34,2.34,0,0,1-.83.88A2.15,2.15,0,0,1,84.49,21.94Zm.11-.56a.88.88,0,0,0,.57-.2,1.37,1.37,0,0,0,.38-.58,2.65,2.65,0,0,0,.13-.87,2.78,2.78,0,0,0-.35-1.5,1,1,0,0,0-.94-.58,1,1,0,0,0-.83.46,2.16,2.16,0,0,0-.32,1.23,2.89,2.89,0,0,0,.18,1.05,1.67,1.67,0,0,0,.48.73A1.08,1.08,0,0,0,84.6,21.38Z" transform="translate(-6.07 -1.15)"/><path class="cls-1" d="M89.58,21.9l-1.92-4.11-.51-.17,0-.42h2.29l0,.42-.67.17,1.4,3.06h-.3l1.28-3.07-.66-.17,0-.42h1.83l0,.42-.51.17L90,21.9Z" transform="translate(-6.07 -1.15)"/><path class="cls-1" d="M95,21.94a2.38,2.38,0,0,1-1.16-.29,2.13,2.13,0,0,1-.81-.82,2.53,2.53,0,0,1-.29-1.22A2.58,2.58,0,0,1,93,18.29a2.27,2.27,0,0,1,.84-.87,2,2,0,0,1,1.11-.3,1.68,1.68,0,0,1,1.36.57,2.3,2.3,0,0,1,.48,1.53v.22H93.58v-.51H96l-.14.18v-.27a1.38,1.38,0,0,0-.27-.9.85.85,0,0,0-.71-.33,1,1,0,0,0-.55.17,1.16,1.16,0,0,0-.42.52,2,2,0,0,0-.16.86v.16a1.89,1.89,0,0,0,.43,1.32,1.4,1.4,0,0,0,1.11.48A1.6,1.6,0,0,0,96,21a1.92,1.92,0,0,0,.58-.48l.29.27a2.06,2.06,0,0,1-.79.88A2.11,2.11,0,0,1,95,21.94Z" transform="translate(-6.07 -1.15)"/><path class="cls-1" d="M101.36,21.94a3.91,3.91,0,0,1-.83-.09,2.49,2.49,0,0,1-.7-.26l0-1.18h.58l.22.78a1.56,1.56,0,0,0,.85.24.87.87,0,0,0,.56-.16.51.51,0,0,0,.21-.44.66.66,0,0,0-.19-.47,2.8,2.8,0,0,0-.79-.43,3.35,3.35,0,0,1-1.09-.63,1.13,1.13,0,0,1-.31-.82,1,1,0,0,1,.25-.7,1.63,1.63,0,0,1,.67-.49,2.59,2.59,0,0,1,1-.17,3.52,3.52,0,0,1,.64.05,2.58,2.58,0,0,1,.53.16l.12,1.15h-.56l-.24-.74a1,1,0,0,0-.26-.1,1.1,1.1,0,0,0-.31,0,1,1,0,0,0-.59.17.51.51,0,0,0-.22.43.58.58,0,0,0,.25.49,5.06,5.06,0,0,0,.87.47,2.86,2.86,0,0,1,1,.62,1.16,1.16,0,0,1,.29.78,1.18,1.18,0,0,1-.54,1A2.27,2.27,0,0,1,101.36,21.94Z" transform="translate(-6.07 -1.15)"/><path class="cls-1" d="M107.41,21.11a1.34,1.34,0,0,1-.57.61,1.51,1.51,0,0,1-.8.22,1.65,1.65,0,0,1-1.12-.4,1.6,1.6,0,0,1-.44-1.23l0-2.52h-.75v-.26l1.52-1.32h.25l0,1.32v2.63a1.11,1.11,0,0,0,.23.76.9.9,0,0,0,.66.25,1.13,1.13,0,0,0,.44-.1,1.31,1.31,0,0,0,.37-.24Zm-2.36-3.32v-.58h2v.58Z" transform="translate(-6.07 -1.15)"/><path class="cls-1" d="M110.08,21.94a2.49,2.49,0,0,1-1.25-.3,2.08,2.08,0,0,1-.84-.85,2.5,2.5,0,0,1-.3-1.24,2.34,2.34,0,0,1,.34-1.29,2.29,2.29,0,0,1,.88-.84,2.49,2.49,0,0,1,1.21-.3,2.31,2.31,0,0,1,1.19.3,2,2,0,0,1,.8.83,2.7,2.7,0,0,1,.28,1.24,2.46,2.46,0,0,1-.31,1.24,2.34,2.34,0,0,1-.83.88A2.15,2.15,0,0,1,110.08,21.94Zm.11-.56a.88.88,0,0,0,.57-.2,1.37,1.37,0,0,0,.38-.58,2.65,2.65,0,0,0,.13-.87,2.87,2.87,0,0,0-.35-1.5,1,1,0,0,0-.94-.58,1,1,0,0,0-.83.46,2.16,2.16,0,0,0-.32,1.23,3.12,3.12,0,0,0,.17,1.05,1.77,1.77,0,0,0,.49.73A1.06,1.06,0,0,0,110.19,21.38Z" transform="translate(-6.07 -1.15)"/><path class="cls-1" d="M113.12,21.85l0-.42.66-.17a.62.62,0,0,0,0-.18,3.47,3.47,0,0,0,0-.38c0-.15,0-.34,0-.56v-.82c0-.24,0-.46,0-.67s0-.39-.07-.54L113,18v-.39l1.58-.43.19.16,0,.88h0a2.18,2.18,0,0,1,.64-.83,1.18,1.18,0,0,1,.64-.21.72.72,0,0,1,.44.13.5.5,0,0,1,.19.42.54.54,0,0,1-.2.43.76.76,0,0,1-.48.15.9.9,0,0,1-.4-.09,1.36,1.36,0,0,1-.36-.26l.21.06a1.59,1.59,0,0,0-.35.34,2.4,2.4,0,0,0-.32.53l0,.94c0,.21,0,.41,0,.61s0,.37,0,.52,0,.26,0,.33l.93.15,0,.44Z" transform="translate(-6.07 -1.15)"/><path class="cls-1" d="M119.26,21.9l-1.91-4.11-.5-.17,0-.42h2.29l0,.42-.67.17,1.39,3.06Zm2.83-4.7,0,.42-.5.17-1.84,3.79-.85,1.79a2.05,2.05,0,0,1-.53.73,1,1,0,0,1-.62.2.78.78,0,0,1-.48-.14.44.44,0,0,1-.17-.36.47.47,0,0,1,.14-.35.87.87,0,0,1,.46-.24l1.07-.33-.56.53,1.23-2.33.11-.22,1.33-3.07-.67-.17,0-.42Z" transform="translate(-6.07 -1.15)"/><path class="cls-1" d="M126.83,21.94a2.3,2.3,0,0,1-1.15-.28,2.15,2.15,0,0,1-.83-.81,2.42,2.42,0,0,1-.3-1.22,2.58,2.58,0,0,1,.32-1.27,2.43,2.43,0,0,1,.89-.91,2.53,2.53,0,0,1,1.29-.33,2.39,2.39,0,0,1,.81.12,1.17,1.17,0,0,1,.52.33.65.65,0,0,1,.19.43.44.44,0,0,1-.13.32.42.42,0,0,1-.33.13.79.79,0,0,1-.32-.07,1.48,1.48,0,0,1-.32-.25l-.62-.61.43.12a1.12,1.12,0,0,0-.76.09,1.36,1.36,0,0,0-.61.58,2.11,2.11,0,0,0-.23,1.06,1.83,1.83,0,0,0,.42,1.3,1.4,1.4,0,0,0,1.06.45,1.6,1.6,0,0,0,.67-.14,1.78,1.78,0,0,0,.57-.48l.31.26a2.2,2.2,0,0,1-.79.88A2.05,2.05,0,0,1,126.83,21.94Z" transform="translate(-6.07 -1.15)"/><path class="cls-1" d="M131.56,21.94a2.51,2.51,0,0,1-1.25-.3,2.12,2.12,0,0,1-.83-.85,2.5,2.5,0,0,1-.3-1.24,2.43,2.43,0,0,1,.33-1.29,2.32,2.32,0,0,1,.89-.84,2.49,2.49,0,0,1,1.21-.3,2.34,2.34,0,0,1,1.19.3,2,2,0,0,1,.79.83,2.8,2.8,0,0,1,0,2.48,2.45,2.45,0,0,1-.84.88A2.15,2.15,0,0,1,131.56,21.94Zm.11-.56a.93.93,0,0,0,.58-.2,1.35,1.35,0,0,0,.37-.58,2.65,2.65,0,0,0,.13-.87,2.87,2.87,0,0,0-.34-1.5,1.06,1.06,0,0,0-.94-.58,1,1,0,0,0-.84.46,2.16,2.16,0,0,0-.31,1.23,2.89,2.89,0,0,0,.17,1.05,1.67,1.67,0,0,0,.48.73A1.08,1.08,0,0,0,131.67,21.38Z" transform="translate(-6.07 -1.15)"/><path class="cls-1" d="M134.59,21.85l0-.42.67-.17s0-.1,0-.19,0-.21,0-.36,0-.34,0-.57v-.82q0-.34,0-.66a3.72,3.72,0,0,0-.07-.55l-.68-.15v-.39l1.59-.43.21.18-.05.58h0a2.61,2.61,0,0,1,.73-.6,1.8,1.8,0,0,1,.82-.19,1.4,1.4,0,0,1,.77.21,1.38,1.38,0,0,1,.57.62A2.21,2.21,0,0,1,139.4,19v1.16c0,.25,0,.48,0,.69a1.53,1.53,0,0,0,0,.41l.66.17,0,.42h-2.33l0-.42.62-.17a1.3,1.3,0,0,0,0-.23,3.32,3.32,0,0,0,0-.35c0-.13,0-.29,0-.47V19.13a1.37,1.37,0,0,0-.16-.72.92.92,0,0,0-.38-.4,1,1,0,0,0-.49-.12,1.28,1.28,0,0,0-.61.15,1.47,1.47,0,0,0-.49.44v1.6c0,.31,0,.57,0,.77a2.91,2.91,0,0,0,.05.41l.67.17,0,.42Z" transform="translate(-6.07 -1.15)"/><path class="cls-1" d="M144.13,21.11a1.46,1.46,0,0,1-.57.61,1.53,1.53,0,0,1-.8.22,1.61,1.61,0,0,1-1.12-.4,1.57,1.57,0,0,1-.44-1.23l0-2.52h-.75v-.26L142,16.21h.26l0,1.32v2.63a1.11,1.11,0,0,0,.23.76.87.87,0,0,0,.66.25,1,1,0,0,0,.43-.1,1.23,1.23,0,0,0,.38-.24Zm-2.36-3.32v-.58h2v.58Z" transform="translate(-6.07 -1.15)"/><path class="cls-1" d="M144.31,21.85l0-.43.72-.16a.54.54,0,0,0,0-.17,2.87,2.87,0,0,0,0-.35c0-.15,0-.35,0-.6v-.76c0-.26,0-.49,0-.71a3.84,3.84,0,0,0-.06-.56l-.72-.15v-.39l1.67-.43.21.17c0,.22,0,.44,0,.66s0,.47,0,.76v1.35c0,.3,0,.56,0,.77a2,2,0,0,0,0,.41l.72.16,0,.43ZM145.57,16a.72.72,0,0,1-.53-.21.7.7,0,0,1,0-1,.72.72,0,0,1,.53-.21.67.67,0,0,1,.52.21.73.73,0,0,1,0,1A.67.67,0,0,1,145.57,16Z" transform="translate(-6.07 -1.15)"/><path class="cls-1" d="M147.32,21.85l0-.42.67-.17s0-.1,0-.19,0-.21,0-.36,0-.34,0-.57v-.82q0-.34,0-.66c0-.21,0-.4-.07-.55l-.68-.15v-.39l1.59-.43.21.18,0,.58h0a2.48,2.48,0,0,1,.73-.6,1.8,1.8,0,0,1,.82-.19,1.42,1.42,0,0,1,.77.21,1.38,1.38,0,0,1,.57.62,2.21,2.21,0,0,1,.22,1.05v1.16c0,.25,0,.48,0,.69a1.89,1.89,0,0,0,.05.41l.66.17,0,.42h-2.33l0-.42.62-.17a1.3,1.3,0,0,0,0-.23,3.32,3.32,0,0,0,0-.35V19.13a1.48,1.48,0,0,0-.15-.72.92.92,0,0,0-.38-.4,1,1,0,0,0-.49-.12,1.28,1.28,0,0,0-.61.15,1.47,1.47,0,0,0-.49.44v1.6c0,.31,0,.57,0,.77a2.91,2.91,0,0,0,0,.41l.67.17,0,.42Z" transform="translate(-6.07 -1.15)"/><path class="cls-1" d="M158.11,21l.68.17v.38l-1.53.39-.2-.14,0-.7h0a1.87,1.87,0,0,1-.65.64,1.47,1.47,0,0,1-.71.18,1.71,1.71,0,0,1-1.23-.46,1.8,1.8,0,0,1-.48-1.37v-.92a4.78,4.78,0,0,0,0-.53l0-.55-.73-.15v-.39l1.62-.43.22.18c0,.21,0,.46,0,.72s0,.55,0,.84V20a1.24,1.24,0,0,0,.29.91,1.07,1.07,0,0,0,.76.27,1.14,1.14,0,0,0,.54-.14,1.23,1.23,0,0,0,.48-.48V18.88c0-.14,0-.28,0-.42s0-.25,0-.35l-.78-.15v-.39l1.65-.43.2.16c0,.18,0,.35,0,.5s0,.32,0,.49v1.35c0,.32,0,.6,0,.84S158.09,20.9,158.11,21Z" transform="translate(-6.07 -1.15)"/><path class="cls-1" d="M161.71,21.94a2.42,2.42,0,0,1-1.17-.29,2.13,2.13,0,0,1-.81-.82,2.53,2.53,0,0,1-.29-1.22,2.69,2.69,0,0,1,.32-1.32,2.34,2.34,0,0,1,.84-.87,2,2,0,0,1,1.12-.3,1.69,1.69,0,0,1,1.36.57,2.35,2.35,0,0,1,.47,1.53v.22h-3.23v-.51h2.43l-.14.18v-.27a1.38,1.38,0,0,0-.27-.9.85.85,0,0,0-.71-.33,1,1,0,0,0-.55.17,1.16,1.16,0,0,0-.42.52,2,2,0,0,0-.16.86v.16a1.89,1.89,0,0,0,.43,1.32,1.4,1.4,0,0,0,1.11.48,1.6,1.6,0,0,0,.67-.14,1.92,1.92,0,0,0,.58-.48l.29.27a2.11,2.11,0,0,1-.78.88A2.14,2.14,0,0,1,161.71,21.94Z" transform="translate(-6.07 -1.15)"/><path class="cls-1" d="M169.8,21.11a1.38,1.38,0,0,1-.56.61,1.57,1.57,0,0,1-.81.22,1.65,1.65,0,0,1-1.12-.4,1.6,1.6,0,0,1-.44-1.23l0-2.52h-.75v-.26l1.52-1.32h.25l0,1.32v2.63a1.11,1.11,0,0,0,.23.76.9.9,0,0,0,.66.25,1.13,1.13,0,0,0,.44-.1,1.31,1.31,0,0,0,.37-.24Zm-2.36-3.32v-.58h2.05v.58Z" transform="translate(-6.07 -1.15)"/><path class="cls-1" d="M172.47,21.94a2.49,2.49,0,0,1-1.25-.3,2.08,2.08,0,0,1-.84-.85,2.5,2.5,0,0,1-.3-1.24,2.43,2.43,0,0,1,.34-1.29,2.29,2.29,0,0,1,.88-.84,2.52,2.52,0,0,1,1.21-.3,2.31,2.31,0,0,1,1.19.3,2,2,0,0,1,.8.83,2.58,2.58,0,0,1,.28,1.24,2.46,2.46,0,0,1-.31,1.24,2.34,2.34,0,0,1-.83.88A2.15,2.15,0,0,1,172.47,21.94Zm.11-.56a.88.88,0,0,0,.57-.2,1.37,1.37,0,0,0,.38-.58,2.65,2.65,0,0,0,.13-.87,2.87,2.87,0,0,0-.35-1.5,1,1,0,0,0-.94-.58,1,1,0,0,0-.83.46,2.16,2.16,0,0,0-.32,1.23,3.12,3.12,0,0,0,.17,1.05,1.77,1.77,0,0,0,.49.73A1.08,1.08,0,0,0,172.58,21.38Z" transform="translate(-6.07 -1.15)"/><path class="cls-1" d="M178.09,21.56c0-.25,0-.48,0-.68s0-.41,0-.61V18c0-.26,0-.54,0-.82s0-.55,0-.79,0-.46,0-.64,0-.3,0-.37l-.8-.09,0-.39,1.68-.46.23.16c0,.3,0,.6,0,.89s0,.64,0,1,0,.87,0,1.44h0a2,2,0,0,1,.64-.57,1.66,1.66,0,0,1,.86-.23,1.88,1.88,0,0,1,1,.26,2,2,0,0,1,.73.75,2.43,2.43,0,0,1,.27,1.19,2.49,2.49,0,0,1-1.33,2.28,2.84,2.84,0,0,1-1.4.34,4.83,4.83,0,0,1-.94-.1A4.34,4.34,0,0,1,178.09,21.56Zm2-.24a1.21,1.21,0,0,0,1-.46,2,2,0,0,0,.4-1.32,1.63,1.63,0,0,0-.38-1.22,1.37,1.37,0,0,0-1.54-.26,1.29,1.29,0,0,0-.48.39V21a1.76,1.76,0,0,0,.45.24A1.72,1.72,0,0,0,180.14,21.32Z" transform="translate(-6.07 -1.15)"/><path class="cls-1" d="M185.72,21.94a2.38,2.38,0,0,1-1.16-.29,2.13,2.13,0,0,1-.81-.82,2.53,2.53,0,0,1-.29-1.22,2.69,2.69,0,0,1,.32-1.32,2.34,2.34,0,0,1,.84-.87,2,2,0,0,1,1.12-.3,1.65,1.65,0,0,1,1.35.57,2.3,2.3,0,0,1,.48,1.53v.22h-3.23v-.51h2.43l-.14.18v-.27a1.38,1.38,0,0,0-.27-.9.85.85,0,0,0-.71-.33,1,1,0,0,0-.55.17,1.16,1.16,0,0,0-.42.52,2,2,0,0,0-.16.86v.16a1.89,1.89,0,0,0,.43,1.32,1.4,1.4,0,0,0,1.11.48,1.6,1.6,0,0,0,.67-.14,1.92,1.92,0,0,0,.58-.48l.29.27a2.11,2.11,0,0,1-.78.88A2.15,2.15,0,0,1,185.72,21.94Z" transform="translate(-6.07 -1.15)"/><path class="cls-1" d="M192.34,21.9l-1.79-4.11-.51-.17,0-.42h2.19l0,.42-.54.17L193,20.85h-.34l1.38-3.13.32.67-1.65,3.5Zm3.21,0-1.7-4.11-.54-.17,0-.42h2.17l0,.42-.56.17,1.21,3.06h-.28l1.24-3.07-.56-.17,0-.42h1.71l0,.42-.51.17-1.9,4.11Z" transform="translate(-6.07 -1.15)"/><path class="cls-1" d="M198.64,21.85l0-.42.67-.17a.62.62,0,0,0,0-.18,3.47,3.47,0,0,0,0-.38c0-.15,0-.34,0-.56v-.82c0-.24,0-.46,0-.67s0-.39-.07-.54l-.69-.15v-.39l1.58-.43.19.16,0,.88h0a2.18,2.18,0,0,1,.64-.83,1.18,1.18,0,0,1,.64-.21.72.72,0,0,1,.44.13.49.49,0,0,1,.18.42.53.53,0,0,1-.19.43.76.76,0,0,1-.48.15.87.87,0,0,1-.4-.09,1.57,1.57,0,0,1-.37-.26L201,18a1.87,1.87,0,0,0-.36.34,2.85,2.85,0,0,0-.31.53v.94l0,.61c0,.19,0,.37,0,.52a2.38,2.38,0,0,0,0,.33l.93.15,0,.44Z" transform="translate(-6.07 -1.15)"/><path class="cls-1" d="M202.64,21.85l0-.43.72-.16a.54.54,0,0,0,0-.17,2.87,2.87,0,0,0,0-.35c0-.15,0-.35,0-.6v-.76c0-.26,0-.49,0-.71a3.84,3.84,0,0,0-.06-.56l-.72-.15v-.39l1.67-.43.21.17c0,.22,0,.44-.05.66s0,.47,0,.76v1.35c0,.3,0,.56,0,.77a2,2,0,0,0,0,.41l.72.16,0,.43ZM203.9,16a.72.72,0,0,1-.53-.21.7.7,0,0,1,0-1,.72.72,0,0,1,.53-.21.67.67,0,0,1,.52.21.72.72,0,0,1,0,1A.67.67,0,0,1,203.9,16Z" transform="translate(-6.07 -1.15)"/><path class="cls-1" d="M209.16,21.11a1.34,1.34,0,0,1-.57.61,1.51,1.51,0,0,1-.8.22,1.65,1.65,0,0,1-1.12-.4,1.6,1.6,0,0,1-.44-1.23l0-2.52h-.75v-.26L207,16.21h.25l0,1.32v2.63a1.11,1.11,0,0,0,.23.76.9.9,0,0,0,.66.25,1.13,1.13,0,0,0,.44-.1,1.31,1.31,0,0,0,.37-.24Zm-2.36-3.32v-.58h2v.58Z" transform="translate(-6.07 -1.15)"/><path class="cls-1" d="M212.9,21.11a1.46,1.46,0,0,1-.57.61,1.53,1.53,0,0,1-.8.22,1.63,1.63,0,0,1-1.12-.4,1.6,1.6,0,0,1-.44-1.23l0-2.52h-.75v-.26l1.51-1.32H211l0,1.32v2.63a1.11,1.11,0,0,0,.23.76.9.9,0,0,0,.66.25,1.13,1.13,0,0,0,.44-.1,1.31,1.31,0,0,0,.37-.24Zm-2.36-3.32v-.58h2.05v.58Z" transform="translate(-6.07 -1.15)"/><path class="cls-1" d="M215.46,21.94a2.35,2.35,0,0,1-1.16-.29,2.06,2.06,0,0,1-.81-.82,2.42,2.42,0,0,1-.3-1.22,2.69,2.69,0,0,1,.32-1.32,2.42,2.42,0,0,1,.84-.87,2,2,0,0,1,1.12-.3,1.68,1.68,0,0,1,1.36.57,2.3,2.3,0,0,1,.48,1.53v.22h-3.24v-.51h2.43l-.14.18v-.27a1.44,1.44,0,0,0-.26-.9.88.88,0,0,0-.72-.33,1,1,0,0,0-.55.17,1.3,1.3,0,0,0-.42.52,2.14,2.14,0,0,0-.15.86v.16a1.94,1.94,0,0,0,.42,1.32,1.4,1.4,0,0,0,1.11.48,1.57,1.57,0,0,0,.67-.14,2,2,0,0,0,.59-.48l.29.27a2.06,2.06,0,0,1-.79.88A2.14,2.14,0,0,1,215.46,21.94Z" transform="translate(-6.07 -1.15)"/><path class="cls-1" d="M218,21.85l0-.42.67-.17s0-.1,0-.19,0-.21,0-.36,0-.34,0-.57v-.82q0-.34,0-.66a3.72,3.72,0,0,0-.07-.55l-.68-.15v-.39l1.59-.43.21.18-.05.58h0a2.51,2.51,0,0,1,.74-.6,1.73,1.73,0,0,1,.81-.19,1.4,1.4,0,0,1,.77.21,1.46,1.46,0,0,1,.58.62,2.33,2.33,0,0,1,.22,1.05v1.16c0,.25,0,.48,0,.69a1.53,1.53,0,0,0,0,.41l.66.17,0,.42h-2.33l0-.42.62-.17a1.3,1.3,0,0,0,0-.23,3.32,3.32,0,0,0,0-.35c0-.13,0-.29,0-.47V19.13a1.48,1.48,0,0,0-.15-.72.94.94,0,0,0-.39-.4,1,1,0,0,0-.48-.12,1.29,1.29,0,0,0-.62.15,1.47,1.47,0,0,0-.49.44v1.6c0,.31,0,.57,0,.77a2.91,2.91,0,0,0,.05.41l.67.17,0,.42Z" transform="translate(-6.07 -1.15)"/><path class="cls-1" d="M36.13,35.1,34.34,31l-.5-.17,0-.42H36l0,.42-.54.17,1.28,3.06h-.33l1.37-3.13.33.67-1.66,3.5Zm3.22,0L37.64,31l-.54-.17,0-.42h2.17l0,.42-.55.17L40,34.05h-.28L40.93,31l-.56-.17,0-.42h1.72l0,.42-.51.17-1.9,4.11Z" transform="translate(-6.07 -1.15)"/><path class="cls-1" d="M42.38,35.05l0-.43.72-.16a.54.54,0,0,0,0-.17c0-.08,0-.2,0-.35s0-.35,0-.6v-.76c0-.26,0-.49,0-.71s0-.41-.07-.56l-.72-.15v-.39L44,30.34l.2.17c0,.22,0,.44,0,.66s0,.47,0,.76v1.35c0,.3,0,.56,0,.77a3.34,3.34,0,0,0,0,.41l.72.16,0,.43Zm1.25-5.82A.72.72,0,0,1,43.1,29a.7.7,0,0,1,0-1,.72.72,0,0,1,.53-.21.67.67,0,0,1,.52.21.72.72,0,0,1,0,1A.67.67,0,0,1,43.63,29.23Z" transform="translate(-6.07 -1.15)"/><path class="cls-1" d="M48.9,34.31a1.46,1.46,0,0,1-.57.61,1.54,1.54,0,0,1-.81.22,1.65,1.65,0,0,1-1.12-.4A1.6,1.6,0,0,1,46,33.51L46,31h-.76v-.26l1.52-1.32H47l0,1.32,0,2.63a1.07,1.07,0,0,0,.24.76.87.87,0,0,0,.66.25,1.08,1.08,0,0,0,.43-.1,1.31,1.31,0,0,0,.37-.24ZM46.53,31v-.58h2V31Z" transform="translate(-6.07 -1.15)"/><path class="cls-1" d="M49.12,35.05l0-.42.67-.17q0-.1,0-.36c0-.18,0-.4,0-.67s0-.58,0-.92V31.16c0-.24,0-.5,0-.76s0-.53,0-.78,0-.48,0-.67,0-.33,0-.41l-.8-.1,0-.39,1.68-.46.23.16c0,.22,0,.44,0,.66s0,.45,0,.7,0,.54,0,.86,0,.7,0,1.13h0a2.61,2.61,0,0,1,.73-.6,1.73,1.73,0,0,1,.81-.19,1.49,1.49,0,0,1,.77.21,1.46,1.46,0,0,1,.57.63,2.22,2.22,0,0,1,.22,1.06v1.14c0,.25,0,.47,0,.68a2.4,2.4,0,0,0,0,.42l.66.17,0,.42H52.3l0-.42.62-.17a1.3,1.3,0,0,0,0-.23,3.32,3.32,0,0,0,0-.35c0-.13,0-.29,0-.47V32.33a1.47,1.47,0,0,0-.15-.71.92.92,0,0,0-.38-.4,1,1,0,0,0-.49-.13,1.35,1.35,0,0,0-.62.15,1.47,1.47,0,0,0-.49.44v1.6c0,.32,0,.58,0,.78a2.69,2.69,0,0,0,0,.4l.66.17,0,.42Z" transform="translate(-6.07 -1.15)"/><path class="cls-1" d="M57.28,35.05l0-.42.62-.17c0-.07,0-.19,0-.37s0-.38,0-.63,0-.52,0-.8V31.15c0-.26,0-.53,0-.8s0-.53,0-.78,0-.45,0-.63,0-.32,0-.4l-.8-.1,0-.39,1.68-.46.23.16c0,.23,0,.45,0,.67s0,.46,0,.7,0,.51,0,.8v3.52c0,.19,0,.35,0,.49s0,.25,0,.34a1.67,1.67,0,0,1,0,.19l.67.17,0,.42Zm5.12,0H61c-.12-.16-.22-.29-.3-.38l-.23-.27L59,32.85h-.29v-.3l.38-.11L60.67,31,60,30.83l0-.43h2.23l0,.43-.71.13-1.88,1.65.14-.4,1.57,1.69c.1.12.22.23.33.35l.28.28.46.09Z" transform="translate(-6.07 -1.15)"/><path class="cls-1" d="M62.66,35.05l0-.43.71-.16a.89.89,0,0,0,0-.17c0-.08,0-.2,0-.35s0-.35,0-.6v-.76c0-.26,0-.49,0-.71s0-.41-.07-.56l-.72-.15v-.39l1.68-.43.2.17c0,.22,0,.44,0,.66s0,.47,0,.76v1.35c0,.3,0,.56,0,.77s0,.35,0,.41l.72.16,0,.43Zm1.25-5.82a.72.72,0,0,1-.53-.21.7.7,0,0,1,0-1,.72.72,0,0,1,.53-.21.71.71,0,1,1,0,1.42Z" transform="translate(-6.07 -1.15)"/><path class="cls-1" d="M65.67,35.05l0-.42.67-.17a1.83,1.83,0,0,0,0-.19c0-.09,0-.21,0-.36s0-.34,0-.57v-.82c0-.23,0-.45,0-.66s0-.4-.07-.55l-.69-.15v-.39l1.59-.43.21.18,0,.58h0a2.51,2.51,0,0,1,.74-.6,1.73,1.73,0,0,1,.81-.19,1.37,1.37,0,0,1,.77.21,1.46,1.46,0,0,1,.58.62,2.33,2.33,0,0,1,.22,1.05v1.16c0,.25,0,.48,0,.69a2.14,2.14,0,0,0,0,.41l.67.17,0,.42H68.83l0-.42.63-.17c0-.06,0-.13,0-.23s0-.21,0-.35,0-.29,0-.47V32.33a1.48,1.48,0,0,0-.15-.72,1,1,0,0,0-.38-.4,1.07,1.07,0,0,0-.49-.12,1.32,1.32,0,0,0-.62.15,1.57,1.57,0,0,0-.49.44v1.6c0,.31,0,.57,0,.77a1.4,1.4,0,0,0,0,.41l.66.17,0,.42Z" transform="translate(-6.07 -1.15)"/><path class="cls-1" d="M75.5,35.17,75.3,35v-.7h0a1.94,1.94,0,0,1-.64.64,1.49,1.49,0,0,1-.7.18,2.1,2.1,0,0,1-1.85-1.08,2.3,2.3,0,0,1-.28-1.17,2.78,2.78,0,0,1,.2-1.06,2.49,2.49,0,0,1,.56-.81,2.45,2.45,0,0,1,.8-.52,2.32,2.32,0,0,1,.9-.17,3.51,3.51,0,0,1,.55.05,1.54,1.54,0,0,1,.47.19c0-.13,0-.29,0-.48s0-.39,0-.6,0-.4,0-.56,0-.28,0-.34l-.83-.14,0-.4,1.72-.46.22.16c0,.44,0,.87,0,1.27s0,.83,0,1.26v2.48c0,.37,0,.68,0,.92s0,.43,0,.55l.69.17v.38Zm-1.22-.84a1.14,1.14,0,0,0,.52-.13,1.41,1.41,0,0,0,.49-.44V31.43a1.08,1.08,0,0,0-.46-.44,1.28,1.28,0,0,0-.55-.14,1.18,1.18,0,0,0-1,.48,2,2,0,0,0-.36,1.25,2,2,0,0,0,.39,1.29A1.2,1.2,0,0,0,74.28,34.33Z" transform="translate(-6.07 -1.15)"/><path class="cls-1" d="M77.55,35.05l0-.42.67-.17a1.83,1.83,0,0,0,0-.19,3.21,3.21,0,0,0,0-.36c0-.15,0-.34,0-.57v-.82c0-.23,0-.45,0-.66s0-.4-.07-.55l-.69-.15v-.39l1.59-.43.21.18-.05.58h0a2.51,2.51,0,0,1,.74-.6,1.73,1.73,0,0,1,.81-.19,1.37,1.37,0,0,1,.77.21,1.46,1.46,0,0,1,.58.62,2.33,2.33,0,0,1,.22,1.05v1.16c0,.25,0,.48,0,.69a2.14,2.14,0,0,0,0,.41l.67.17,0,.42H80.71l0-.42.63-.17c0-.06,0-.13,0-.23s0-.21,0-.35,0-.29,0-.47V32.33a1.48,1.48,0,0,0-.15-.72,1,1,0,0,0-.38-.4,1.07,1.07,0,0,0-.49-.12,1.32,1.32,0,0,0-.62.15,1.57,1.57,0,0,0-.49.44v1.6c0,.31,0,.57,0,.77a1.89,1.89,0,0,0,0,.41l.66.17,0,.42Z" transform="translate(-6.07 -1.15)"/><path class="cls-1" d="M86,35.14a2.35,2.35,0,0,1-1.16-.29A2,2,0,0,1,84,34a2.42,2.42,0,0,1-.3-1.22A2.69,2.69,0,0,1,84,31.49a2.42,2.42,0,0,1,.84-.87,2,2,0,0,1,1.12-.3,1.68,1.68,0,0,1,1.36.57,2.3,2.3,0,0,1,.48,1.53v.22H84.59v-.51H87l-.14.18V32a1.44,1.44,0,0,0-.26-.9.88.88,0,0,0-.72-.33,1,1,0,0,0-.55.17,1.16,1.16,0,0,0-.42.52,2.14,2.14,0,0,0-.15.86v.16a1.94,1.94,0,0,0,.42,1.32,1.4,1.4,0,0,0,1.11.48,1.57,1.57,0,0,0,.67-.14,2,2,0,0,0,.59-.48l.29.27A2,2,0,0,1,86,35.14Z" transform="translate(-6.07 -1.15)"/><path class="cls-1" d="M90.3,35.14a3.75,3.75,0,0,1-.82-.09,2.45,2.45,0,0,1-.71-.26l0-1.18h.58l.22.78a1.56,1.56,0,0,0,.85.24.9.9,0,0,0,.57-.16.51.51,0,0,0,.21-.44.67.67,0,0,0-.2-.47,2.8,2.8,0,0,0-.79-.43,3.35,3.35,0,0,1-1.09-.63,1.13,1.13,0,0,1-.31-.82A1.06,1.06,0,0,1,89,31a1.63,1.63,0,0,1,.67-.49,2.79,2.79,0,0,1,1-.17,2.83,2.83,0,0,1,.64.06,2.11,2.11,0,0,1,.53.15L92,31.68h-.56l-.24-.74a.88.88,0,0,0-.26-.1,1.06,1.06,0,0,0-.31,0A1,1,0,0,0,90,31a.54.54,0,0,0-.22.43.58.58,0,0,0,.25.49,5.06,5.06,0,0,0,.87.47,2.86,2.86,0,0,1,1,.62,1.16,1.16,0,0,1,.29.78,1.2,1.2,0,0,1-.53,1A2.32,2.32,0,0,1,90.3,35.14Z" transform="translate(-6.07 -1.15)"/><path class="cls-1" d="M94.65,35.14a3.81,3.81,0,0,1-.82-.09,2.56,2.56,0,0,1-.71-.26l-.05-1.18h.58l.22.78a1.56,1.56,0,0,0,.85.24.9.9,0,0,0,.57-.16A.51.51,0,0,0,95.5,34a.67.67,0,0,0-.2-.47,2.8,2.8,0,0,0-.79-.43,3.35,3.35,0,0,1-1.09-.63,1.13,1.13,0,0,1-.31-.82,1.06,1.06,0,0,1,.25-.7,1.6,1.6,0,0,1,.68-.49,2.7,2.7,0,0,1,1-.17,2.83,2.83,0,0,1,.64.06,2.33,2.33,0,0,1,.54.15l.11,1.15h-.56l-.24-.74a.88.88,0,0,0-.26-.1,1.06,1.06,0,0,0-.31,0,1,1,0,0,0-.59.17.54.54,0,0,0-.22.43.58.58,0,0,0,.25.49,5.06,5.06,0,0,0,.87.47,2.86,2.86,0,0,1,1,.62,1.16,1.16,0,0,1,.29.78,1.2,1.2,0,0,1-.53,1A2.32,2.32,0,0,1,94.65,35.14Z" transform="translate(-6.07 -1.15)"/><path class="cls-1" d="M97.32,37.06l-.17-.35a2.08,2.08,0,0,0,.74-.5,1,1,0,0,0,.24-.65.68.68,0,0,0-.07-.31,1.63,1.63,0,0,0-.17-.2l-.21-.18a1,1,0,0,1-.17-.23.61.61,0,0,1-.07-.32.66.66,0,0,1,.21-.48.75.75,0,0,1,.53-.19.73.73,0,0,1,.4.11.71.71,0,0,1,.32.36,1.41,1.41,0,0,1,.12.63,2.32,2.32,0,0,1-.2.93,2.52,2.52,0,0,1-.58.81A2.76,2.76,0,0,1,97.32,37.06Z" transform="translate(-6.07 -1.15)"/><path class="cls-1" d="M105.41,34.31a1.46,1.46,0,0,1-.57.61,1.53,1.53,0,0,1-.8.22,1.46,1.46,0,0,1-1.56-1.63l0-2.52h-.75v-.26l1.51-1.32h.26l0,1.32v2.63a1.11,1.11,0,0,0,.23.76.87.87,0,0,0,.66.25,1.13,1.13,0,0,0,.44-.1,1.31,1.31,0,0,0,.37-.24ZM103.05,31v-.58h2V31Z" transform="translate(-6.07 -1.15)"/><path class="cls-1" d="M105.65,35.05l0-.42.66-.17a.62.62,0,0,0,0-.18,3.47,3.47,0,0,0,0-.38c0-.15,0-.34,0-.56l0-.82c0-.24,0-.46,0-.67s0-.39-.07-.54l-.69-.15v-.39l1.58-.43.19.16,0,.88h0a2.18,2.18,0,0,1,.64-.83,1.18,1.18,0,0,1,.64-.21.72.72,0,0,1,.44.13.49.49,0,0,1,.18.42.53.53,0,0,1-.19.43.76.76,0,0,1-.48.15.87.87,0,0,1-.4-.09,1.36,1.36,0,0,1-.36-.26l.21.06a1.59,1.59,0,0,0-.35.34,2.4,2.4,0,0,0-.32.53V33l0,.61c0,.19,0,.37,0,.52a2.38,2.38,0,0,0,0,.33l.93.15,0,.44Z" transform="translate(-6.07 -1.15)"/><path class="cls-1" d="M114.46,34.23l.68.17v.38l-1.53.39-.2-.14v-.7h0a1.87,1.87,0,0,1-.65.64,1.47,1.47,0,0,1-.71.18,1.71,1.71,0,0,1-1.23-.46,1.8,1.8,0,0,1-.48-1.37v-.92c0-.17,0-.35,0-.53l0-.55-.73-.15v-.39l1.62-.43.22.18c0,.21,0,.46,0,.72s0,.55,0,.84v1.09a1.24,1.24,0,0,0,.29.91,1.07,1.07,0,0,0,.76.27,1.14,1.14,0,0,0,.54-.14,1.23,1.23,0,0,0,.48-.48V32.08c0-.14,0-.28,0-.42s0-.24,0-.35l-.79-.15v-.39l1.66-.43.2.16c0,.18,0,.35,0,.5s0,.32,0,.49v1.35c0,.32,0,.6,0,.84S114.44,34.1,114.46,34.23Z" transform="translate(-6.07 -1.15)"/><path class="cls-1" d="M117.45,35.14a3.88,3.88,0,0,1-.82-.09,2.49,2.49,0,0,1-.7-.26l-.06-1.18h.58l.23.78a1.53,1.53,0,0,0,.85.24.89.89,0,0,0,.56-.16.51.51,0,0,0,.21-.44.63.63,0,0,0-.2-.47,2.53,2.53,0,0,0-.79-.43,3.39,3.39,0,0,1-1.08-.63,1.13,1.13,0,0,1-.31-.82,1.1,1.1,0,0,1,.24-.7,1.66,1.66,0,0,1,.68-.49,2.79,2.79,0,0,1,1-.17,2.69,2.69,0,0,1,.63.06,2.07,2.07,0,0,1,.54.15l.12,1.15h-.56l-.25-.74a.82.82,0,0,0-.25-.1,1.17,1.17,0,0,0-.32,0,1,1,0,0,0-.58.17.51.51,0,0,0-.22.43.58.58,0,0,0,.25.49,5.06,5.06,0,0,0,.87.47,2.86,2.86,0,0,1,1,.62,1.15,1.15,0,0,1,.28.78,1.17,1.17,0,0,1-.53,1A2.3,2.3,0,0,1,117.45,35.14Z" transform="translate(-6.07 -1.15)"/><path class="cls-1" d="M123.51,34.31a1.46,1.46,0,0,1-.57.61,1.53,1.53,0,0,1-.8.22,1.63,1.63,0,0,1-1.12-.4,1.6,1.6,0,0,1-.44-1.23l0-2.52h-.75v-.26l1.51-1.32h.26l0,1.32v2.63a1.11,1.11,0,0,0,.23.76.88.88,0,0,0,.66.25,1.13,1.13,0,0,0,.44-.1,1.31,1.31,0,0,0,.37-.24ZM121.15,31v-.58h2V31Z" transform="translate(-6.07 -1.15)"/><path class="cls-1" d="M123.92,37.06l-.17-.35a2,2,0,0,0,.73-.5,1,1,0,0,0,.25-.65.68.68,0,0,0-.07-.31,1.12,1.12,0,0,0-.18-.2l-.2-.18a.76.76,0,0,1-.17-.23.61.61,0,0,1-.07-.32.66.66,0,0,1,.21-.48.81.81,0,0,1,.93-.08.76.76,0,0,1,.32.36,1.41,1.41,0,0,1,.12.63,2.32,2.32,0,0,1-.2.93,2.52,2.52,0,0,1-.58.81A2.86,2.86,0,0,1,123.92,37.06Z" transform="translate(-6.07 -1.15)"/><path class="cls-1" d="M130.27,35.14a1.6,1.6,0,0,1-.8-.19,1.32,1.32,0,0,1-.52-.47,1,1,0,0,1-.19-.56.85.85,0,0,1,.24-.61,1.85,1.85,0,0,1,.76-.41l1.66-.53v-.5a.7.7,0,0,0-.16-.46,1.06,1.06,0,0,0-.41-.34,1.2,1.2,0,0,0-.57-.13c-.17,0-.28,0-.33.1a.68.68,0,0,0-.11.4l0,.52a1.26,1.26,0,0,1-.73,0,.41.41,0,0,1-.29-.41.56.56,0,0,1,.17-.38,1.94,1.94,0,0,1,.46-.36,2.89,2.89,0,0,1,.58-.3,2.37,2.37,0,0,1,.59-.16,2,2,0,0,1,1.35.42,1.45,1.45,0,0,1,.51,1.12l0,1.71c0,.15,0,.29,0,.41a1.41,1.41,0,0,0,.05.29l.7.13v.37l-.58.23-.3.1a.81.81,0,0,1-.25,0,.49.49,0,0,1-.48-.39l-.14-.45.18,0a3.06,3.06,0,0,1-.67.61A1.28,1.28,0,0,1,130.27,35.14Zm.37-.74a.83.83,0,0,0,.41-.1,1.21,1.21,0,0,0,.37-.29V32.9l-1,.26a.68.68,0,0,0-.37.2.51.51,0,0,0-.12.35.65.65,0,0,0,.23.48A.76.76,0,0,0,130.64,34.4Z" transform="translate(-6.07 -1.15)"/><path class="cls-1" d="M133.65,35.05l0-.42.67-.17s0-.1,0-.19,0-.21,0-.36,0-.34,0-.57v-.82q0-.35,0-.66a3.72,3.72,0,0,0-.07-.55l-.68-.15v-.39l1.59-.43.21.18-.05.58h0a2.61,2.61,0,0,1,.73-.6,1.8,1.8,0,0,1,.82-.19,1.4,1.4,0,0,1,.77.21,1.46,1.46,0,0,1,.58.62,2.34,2.34,0,0,1,.21,1.05v1.16c0,.25,0,.48,0,.69a1.53,1.53,0,0,0,0,.41l.66.17,0,.42h-2.33l0-.42.62-.17a1.3,1.3,0,0,0,0-.23,3.32,3.32,0,0,0,0-.35c0-.13,0-.29,0-.47V32.33a1.48,1.48,0,0,0-.15-.72,1,1,0,0,0-.87-.52,1.29,1.29,0,0,0-.62.15,1.47,1.47,0,0,0-.49.44v1.6c0,.31,0,.57,0,.77a2.91,2.91,0,0,0,.05.41l.67.17,0,.42Z" transform="translate(-6.07 -1.15)"/><path class="cls-1" d="M143.49,35.17l-.2-.14v-.7h0a2,2,0,0,1-.64.64,1.5,1.5,0,0,1-.71.18,2.08,2.08,0,0,1-1.08-.29,2.14,2.14,0,0,1-.76-.79,2.3,2.3,0,0,1-.28-1.17,2.78,2.78,0,0,1,.2-1.06,2.35,2.35,0,0,1,.56-.81,2.52,2.52,0,0,1,.79-.52,2.41,2.41,0,0,1,.91-.17,3.29,3.29,0,0,1,.54.05,1.5,1.5,0,0,1,.48.19c0-.13,0-.29,0-.48s0-.39,0-.6,0-.4,0-.56a2.22,2.22,0,0,0,0-.34l-.82-.14,0-.4,1.71-.46.23.16c0,.44,0,.87,0,1.27s0,.83,0,1.26v2.48c0,.37,0,.68,0,.92s0,.43.05.55l.69.17v.38Zm-1.22-.84a1.07,1.07,0,0,0,.51-.13,1.35,1.35,0,0,0,.5-.44V31.43a1.08,1.08,0,0,0-.46-.44,1.28,1.28,0,0,0-.55-.14,1.17,1.17,0,0,0-1,.48,2,2,0,0,0-.37,1.25,1.9,1.9,0,0,0,.4,1.29A1.2,1.2,0,0,0,142.27,34.33Z" transform="translate(-6.07 -1.15)"/><path class="cls-1" d="M147.61,35.05l0-.42.67-.17a2.28,2.28,0,0,0,0-.36c0-.18,0-.4,0-.67s0-.58,0-.92V30.4c0-.27,0-.53,0-.78s0-.48,0-.67a3.52,3.52,0,0,0,0-.41l-.79-.1,0-.39,1.68-.46.24.16c0,.22,0,.44,0,.66s0,.45,0,.7,0,.54,0,.86,0,.7,0,1.13h0a2.61,2.61,0,0,1,.73-.6,1.75,1.75,0,0,1,.81-.19,1.46,1.46,0,0,1,.77.21,1.55,1.55,0,0,1,.58.63,2.22,2.22,0,0,1,.22,1.06v1.14c0,.25,0,.47,0,.68s0,.35,0,.42l.67.17,0,.42h-2.33l0-.42.63-.17c0-.06,0-.13,0-.23s0-.21,0-.35,0-.29,0-.47V32.33a1.6,1.6,0,0,0-.14-.71,1,1,0,0,0-.38-.4,1,1,0,0,0-.5-.13,1.28,1.28,0,0,0-.61.15,1.5,1.5,0,0,0-.5.44v1.6c0,.32,0,.58,0,.78a1.76,1.76,0,0,0,.05.4l.65.17,0,.42Z" transform="translate(-6.07 -1.15)"/><path class="cls-1" d="M155.41,35.14a1.58,1.58,0,0,1-.8-.19,1.43,1.43,0,0,1-.53-.47,1,1,0,0,1-.18-.56.85.85,0,0,1,.24-.61,1.78,1.78,0,0,1,.76-.41l1.65-.53v-.5a.75.75,0,0,0-.15-.46,1.14,1.14,0,0,0-.41-.34,1.25,1.25,0,0,0-.57-.13.43.43,0,0,0-.34.1.78.78,0,0,0-.1.4l0,.52a1.23,1.23,0,0,1-.72,0,.42.42,0,0,1-.3-.41.58.58,0,0,1,.18-.38,2.09,2.09,0,0,1,.45-.36,3,3,0,0,1,.59-.3,2.26,2.26,0,0,1,.59-.16,2.06,2.06,0,0,1,1.35.42,1.45,1.45,0,0,1,.51,1.12l0,1.71c0,.15,0,.29,0,.41a1.41,1.41,0,0,0,0,.29l.7.13v.37l-.58.23-.3.1a.85.85,0,0,1-.25,0,.48.48,0,0,1-.48-.39l-.14-.45.18,0a3.09,3.09,0,0,1-.68.61A1.25,1.25,0,0,1,155.41,35.14Zm.37-.74a.86.86,0,0,0,.41-.1,1.07,1.07,0,0,0,.36-.29V32.9l-1.05.26a.76.76,0,0,0-.37.2.56.56,0,0,0-.11.35.64.64,0,0,0,.22.48A.76.76,0,0,0,155.78,34.4Z" transform="translate(-6.07 -1.15)"/><path class="cls-1" d="M158.77,37.42l0-.42.66-.17s0-.11,0-.2,0-.23,0-.38,0-.35,0-.56,0-.46,0-.73l0-2.49c0-.21,0-.42,0-.62s0-.39-.07-.54l-.69-.15v-.39l1.59-.43.22.18-.07.6h0a2.31,2.31,0,0,1,.66-.6,1.57,1.57,0,0,1,.8-.21,1.85,1.85,0,0,1,1,.28,2.07,2.07,0,0,1,.73.79,2.67,2.67,0,0,1,.26,1.19,2.57,2.57,0,0,1-.32,1.29,2.43,2.43,0,0,1-.88.92,2.48,2.48,0,0,1-1.31.34,2.8,2.8,0,0,1-.48-.05,2.68,2.68,0,0,1-.47-.12v.77c0,.26,0,.49,0,.69s0,.33,0,.41l.88.15,0,.44Zm2.67-2.89a1.31,1.31,0,0,0,.71-.2,1.27,1.27,0,0,0,.47-.57,2.51,2.51,0,0,0,0-1.84,1.37,1.37,0,0,0-.47-.58,1.13,1.13,0,0,0-.67-.21,1.26,1.26,0,0,0-.57.14,1.64,1.64,0,0,0-.48.41v2.55a1.79,1.79,0,0,0,.46.22A1.82,1.82,0,0,0,161.44,34.53Z" transform="translate(-6.07 -1.15)"/><path class="cls-1" d="M164.62,37.42l0-.42.67-.17a1.72,1.72,0,0,1,0-.2c0-.1,0-.23,0-.38s0-.35,0-.56,0-.46,0-.73l0-2.49c0-.21,0-.42,0-.62a3.57,3.57,0,0,0-.07-.54l-.68-.15v-.39l1.59-.43.21.18-.06.6h0a2.16,2.16,0,0,1,.65-.6,1.59,1.59,0,0,1,.8-.21,1.91,1.91,0,0,1,1,.28,2,2,0,0,1,.72.79,2.54,2.54,0,0,1,.27,1.19,2.68,2.68,0,0,1-.32,1.29,2.43,2.43,0,0,1-2.2,1.26,3.17,3.17,0,0,1-.94-.17v.77c0,.26,0,.49,0,.69s0,.33,0,.41l.88.15,0,.44Zm2.68-2.89a1.27,1.27,0,0,0,.7-.2,1.29,1.29,0,0,0,.48-.57,2.48,2.48,0,0,0,.18-.93,2.15,2.15,0,0,0-.16-.91,1.3,1.3,0,0,0-.47-.58,1.11,1.11,0,0,0-.67-.21,1.19,1.19,0,0,0-.56.14,1.42,1.42,0,0,0-.48.41v2.55a1.71,1.71,0,0,0,1,.3Z" transform="translate(-6.07 -1.15)"/><path class="cls-1" d="M170.46,35.05l0-.43.72-.16a.54.54,0,0,0,0-.17c0-.08,0-.2,0-.35s0-.35,0-.6v-.76c0-.26,0-.49,0-.71a3.84,3.84,0,0,0-.06-.56l-.72-.15v-.39l1.68-.43.2.17c0,.22,0,.44-.05.66s0,.47,0,.76v1.35c0,.3,0,.56,0,.77a3.34,3.34,0,0,0,0,.41l.72.16,0,.43Zm1.25-5.82a.72.72,0,0,1-.53-.21.7.7,0,0,1,0-1,.72.72,0,0,1,.53-.21.67.67,0,0,1,.52.21.72.72,0,0,1,0,1A.67.67,0,0,1,171.71,29.23Z" transform="translate(-6.07 -1.15)"/><path class="cls-1" d="M173.46,35.05l0-.42.67-.17s0-.1,0-.19,0-.21,0-.36,0-.34,0-.57v-.82q0-.35,0-.66a3.72,3.72,0,0,0-.07-.55l-.68-.15v-.39l1.59-.43.21.18-.05.58h0a2.51,2.51,0,0,1,.74-.6,1.73,1.73,0,0,1,.81-.19,1.4,1.4,0,0,1,.77.21,1.46,1.46,0,0,1,.58.62,2.33,2.33,0,0,1,.22,1.05v1.16c0,.25,0,.48,0,.69a1.53,1.53,0,0,0,0,.41l.67.17,0,.42h-2.33l0-.42.62-.17a1.3,1.3,0,0,0,0-.23,3.32,3.32,0,0,0,0-.35c0-.13,0-.29,0-.47V32.33a1.48,1.48,0,0,0-.15-.72,1,1,0,0,0-.38-.4,1.07,1.07,0,0,0-.49-.12,1.29,1.29,0,0,0-.62.15,1.57,1.57,0,0,0-.49.44v1.6c0,.31,0,.57,0,.77a2.14,2.14,0,0,0,0,.41l.67.17,0,.42Z" transform="translate(-6.07 -1.15)"/><path class="cls-1" d="M181.9,35.14a2.35,2.35,0,0,1-1.16-.29,2.09,2.09,0,0,1-.82-.82,2.53,2.53,0,0,1-.29-1.22,2.69,2.69,0,0,1,.32-1.32,2.42,2.42,0,0,1,.84-.87,2,2,0,0,1,1.12-.3,1.69,1.69,0,0,1,1.36.57,2.35,2.35,0,0,1,.47,1.53v.22h-3.23v-.51h2.43l-.14.18V32a1.44,1.44,0,0,0-.26-.9.88.88,0,0,0-.72-.33,1,1,0,0,0-.55.17,1.16,1.16,0,0,0-.42.52,2,2,0,0,0-.16.86v.16a1.89,1.89,0,0,0,.43,1.32,1.4,1.4,0,0,0,1.11.48,1.6,1.6,0,0,0,.67-.14,2.08,2.08,0,0,0,.59-.48l.29.27a2,2,0,0,1-1.88,1.17Z" transform="translate(-6.07 -1.15)"/><path class="cls-1" d="M186.21,35.14a3.88,3.88,0,0,1-.82-.09,2.49,2.49,0,0,1-.7-.26l-.06-1.18h.58l.23.78a1.53,1.53,0,0,0,.85.24.87.87,0,0,0,.56-.16.51.51,0,0,0,.21-.44.63.63,0,0,0-.2-.47,2.53,2.53,0,0,0-.79-.43A3.39,3.39,0,0,1,185,32.5a1.13,1.13,0,0,1-.31-.82,1.1,1.1,0,0,1,.24-.7,1.73,1.73,0,0,1,.68-.49,2.79,2.79,0,0,1,1-.17,2.69,2.69,0,0,1,.63.06,2.07,2.07,0,0,1,.54.15l.12,1.15h-.56l-.25-.74a.82.82,0,0,0-.25-.1,1.12,1.12,0,0,0-.32,0,1,1,0,0,0-.58.17.51.51,0,0,0-.22.43.58.58,0,0,0,.25.49,5.06,5.06,0,0,0,.87.47,2.86,2.86,0,0,1,1,.62,1.15,1.15,0,0,1,.28.78,1.17,1.17,0,0,1-.53,1A2.28,2.28,0,0,1,186.21,35.14Z" transform="translate(-6.07 -1.15)"/><path class="cls-1" d="M190.56,35.14a3.88,3.88,0,0,1-.82-.09,2.49,2.49,0,0,1-.7-.26l0-1.18h.58l.22.78a1.53,1.53,0,0,0,.85.24.87.87,0,0,0,.56-.16.51.51,0,0,0,.21-.44.63.63,0,0,0-.2-.47,2.53,2.53,0,0,0-.79-.43,3.39,3.39,0,0,1-1.08-.63,1.13,1.13,0,0,1-.31-.82,1.06,1.06,0,0,1,.25-.7,1.63,1.63,0,0,1,.67-.49,2.79,2.79,0,0,1,1-.17,2.69,2.69,0,0,1,.63.06,2.07,2.07,0,0,1,.54.15l.12,1.15h-.56l-.25-.74a.82.82,0,0,0-.25-.1,1.1,1.1,0,0,0-.31,0,1,1,0,0,0-.59.17.51.51,0,0,0-.22.43.58.58,0,0,0,.25.49,5.06,5.06,0,0,0,.87.47,2.86,2.86,0,0,1,1,.62,1.16,1.16,0,0,1,.29.78,1.18,1.18,0,0,1-.54,1A2.28,2.28,0,0,1,190.56,35.14Z" transform="translate(-6.07 -1.15)"/><path class="cls-1" d="M194.11,35.16a.75.75,0,0,1-.77-.76.76.76,0,0,1,.09-.38.81.81,0,0,1,.28-.27.77.77,0,0,1,.4-.1.79.79,0,0,1,.56.21.7.7,0,0,1,.22.54.73.73,0,0,1-.22.54A.76.76,0,0,1,194.11,35.16Z" transform="translate(-6.07 -1.15)"/></g></g></svg>