<svg xmlns="http://www.w3.org/2000/svg" viewBox="0 0 216 49.55"><defs><style>.cls-1{fill:#8a8e6d;}</style></defs><g id="Layer_2" data-name="Layer 2"><g id="Layer_1-2" data-name="Layer 1"><path class="cls-1" d="M10.48,8.75a4,4,0,0,1-1.74-.36A2.8,2.8,0,0,1,7.51,7.31a3.13,3.13,0,0,1-.46-1.75A3.36,3.36,0,0,1,7.3,4.25,2.9,2.9,0,0,1,8,3.2a3.27,3.27,0,0,1,1.14-.7,4.12,4.12,0,0,1,1.49-.25,5.26,5.26,0,0,1,.95.09,4.2,4.2,0,0,1,.86.25l.08,1.53-.54,0-.33-1.05a1.46,1.46,0,0,0-.51-.19,2.6,2.6,0,0,0-.61-.07,2.13,2.13,0,0,0-1.23.33,1.89,1.89,0,0,0-.72.9,3.23,3.23,0,0,0-.24,1.27,3.33,3.33,0,0,0,.31,1.51,2.17,2.17,0,0,0,.82.94,2.06,2.06,0,0,0,1.15.33,2,2,0,0,0,.6-.09,1.67,1.67,0,0,0,.53-.23l.44-1,.57.06-.32,1.37a4,4,0,0,1-.87.35A4.13,4.13,0,0,1,10.48,8.75Z" transform="translate(-6.57 -1.15)"/><path class="cls-1" d="M15.8,8.74a2.51,2.51,0,0,1-1.25-.3,2.12,2.12,0,0,1-.83-.85,2.5,2.5,0,0,1-.3-1.24,2.43,2.43,0,0,1,.33-1.29,2.32,2.32,0,0,1,.89-.84,2.49,2.49,0,0,1,1.21-.3,2.31,2.31,0,0,1,1.19.3,2,2,0,0,1,.79.83,2.58,2.58,0,0,1,.28,1.24,2.56,2.56,0,0,1-.3,1.24,2.42,2.42,0,0,1-.83.88A2.21,2.21,0,0,1,15.8,8.74Zm.11-.56a.91.91,0,0,0,.58-.2,1.35,1.35,0,0,0,.37-.58A2.65,2.65,0,0,0,17,6.53,2.87,2.87,0,0,0,16.65,5a1.06,1.06,0,0,0-.94-.58,1,1,0,0,0-.83.46,2.08,2.08,0,0,0-.32,1.23,3.12,3.12,0,0,0,.17,1.05,1.76,1.76,0,0,0,.48.73A1.08,1.08,0,0,0,15.91,8.18Z" transform="translate(-6.57 -1.15)"/><path class="cls-1" d="M18.83,8.65l0-.42.67-.17s0-.1,0-.19,0-.21,0-.36,0-.34,0-.57V6.12c0-.23,0-.45,0-.66s-.05-.4-.07-.55l-.69-.15V4.37l1.59-.43.21.18-.05.58h0a2.51,2.51,0,0,1,.74-.6,1.73,1.73,0,0,1,.81-.19,1.4,1.4,0,0,1,.77.21,1.46,1.46,0,0,1,.58.62,2.32,2.32,0,0,1,.22,1V7c0,.25,0,.48,0,.69a1.53,1.53,0,0,0,0,.41l.67.17,0,.42H22l0-.42.62-.17c0-.06,0-.13,0-.23s0-.21,0-.35,0-.29,0-.47V5.93a1.48,1.48,0,0,0-.15-.72,1,1,0,0,0-.38-.4,1.07,1.07,0,0,0-.49-.12,1.29,1.29,0,0,0-.62.15,1.57,1.57,0,0,0-.49.44v1.6c0,.31,0,.57,0,.77a2.14,2.14,0,0,0,0,.41l.67.17,0,.42Z" transform="translate(-6.57 -1.15)"/><path class="cls-1" d="M27.08,11.1a3.47,3.47,0,0,1-1.62-.32,1,1,0,0,1-.6-.86.93.93,0,0,1,.32-.67,3.18,3.18,0,0,1,1-.59l.43.08a1.53,1.53,0,0,0-.51.46,1,1,0,0,0-.18.56.7.7,0,0,0,.34.62,1.64,1.64,0,0,0,.93.23,1.89,1.89,0,0,0,1.08-.29.85.85,0,0,0,.42-.72.57.57,0,0,0-.24-.5,1.82,1.82,0,0,0-.82-.21l-1.2-.1-.14,0a1.19,1.19,0,0,1-.73-.21A.6.6,0,0,1,25.24,8a.83.83,0,0,1,.3-.59,2.6,2.6,0,0,1,.81-.49l.15.21a1.56,1.56,0,0,0-.26.22.35.35,0,0,0-.09.22.28.28,0,0,0,.12.23.62.62,0,0,0,.33.11l1.46.15a2.21,2.21,0,0,1,1.16.39,1.09,1.09,0,0,1,.39.88,1.39,1.39,0,0,1-.33.9,2.25,2.25,0,0,1-.91.63A3.49,3.49,0,0,1,27.08,11.1Zm.08-3.76a2.49,2.49,0,0,1-1.05-.21,1.7,1.7,0,0,1-.71-.58,1.46,1.46,0,0,1-.26-.84,1.63,1.63,0,0,1,.27-.92,1.9,1.9,0,0,1,.73-.64,2.42,2.42,0,0,1,2,0,1.79,1.79,0,0,1,.71.62,1.6,1.6,0,0,1,0,1.75,1.77,1.77,0,0,1-.71.61A2.25,2.25,0,0,1,27.16,7.34Zm.06-.49a.79.79,0,0,0,.65-.31,1.35,1.35,0,0,0,.23-.84,1.6,1.6,0,0,0-.25-1,.83.83,0,0,0-.69-.35.8.8,0,0,0-.66.33,1.41,1.41,0,0,0-.25.88,1.45,1.45,0,0,0,.26.89A.87.87,0,0,0,27.22,6.85Zm2.56-2.09-1.34-.1L28,4.21,29.78,4Z" transform="translate(-6.57 -1.15)"/><path class="cls-1" d="M30.25,8.65l0-.42.67-.17s0-.09,0-.18,0-.22,0-.38,0-.34,0-.56V6.12c0-.24,0-.46,0-.67a3.57,3.57,0,0,0-.07-.54l-.68-.15V4.37l1.58-.43.19.16,0,.88h0a2.18,2.18,0,0,1,.64-.83A1.18,1.18,0,0,1,33.21,4a.72.72,0,0,1,.44.13.49.49,0,0,1,.18.42.5.5,0,0,1-.19.42.72.72,0,0,1-.49.16A.86.86,0,0,1,32.76,5a1.25,1.25,0,0,1-.37-.26l.22.06a1.43,1.43,0,0,0-.36.34,2.39,2.39,0,0,0-.31.53V6.6c0,.21,0,.41,0,.61s0,.37,0,.52,0,.26,0,.33l.94.15,0,.44Z" transform="translate(-6.57 -1.15)"/><path class="cls-1" d="M35.86,8.74a1.54,1.54,0,0,1-.79-.19,1.44,1.44,0,0,1-.53-.47,1,1,0,0,1-.18-.56.84.84,0,0,1,.23-.61,1.83,1.83,0,0,1,.77-.41L37,6v-.5A.7.7,0,0,0,36.85,5a1.06,1.06,0,0,0-.41-.34,1.2,1.2,0,0,0-.57-.13.41.41,0,0,0-.33.1.68.68,0,0,0-.11.4l0,.52a1.26,1.26,0,0,1-.73,0,.43.43,0,0,1-.29-.41.61.61,0,0,1,.17-.38A1.94,1.94,0,0,1,35,4.38a2.89,2.89,0,0,1,.58-.3,2.49,2.49,0,0,1,.59-.16,2,2,0,0,1,1.35.42A1.45,1.45,0,0,1,38,5.46l0,1.71a2.62,2.62,0,0,0,0,.41,1.55,1.55,0,0,0,0,.29l.7.13v.37l-.58.23a2.63,2.63,0,0,1-.3.1.77.77,0,0,1-.25,0,.49.49,0,0,1-.48-.39L37,7.9l.18,0a3.06,3.06,0,0,1-.67.61A1.28,1.28,0,0,1,35.86,8.74ZM36.24,8a.91.91,0,0,0,.4-.1A1.21,1.21,0,0,0,37,7.61V6.5l-1,.26a.62.62,0,0,0-.37.2.51.51,0,0,0-.12.35.65.65,0,0,0,.23.48A.76.76,0,0,0,36.24,8Z" transform="translate(-6.57 -1.15)"/><path class="cls-1" d="M42.76,7.91a1.46,1.46,0,0,1-.57.61,1.54,1.54,0,0,1-.81.22,1.65,1.65,0,0,1-1.12-.4,1.6,1.6,0,0,1-.44-1.23l0-2.52H39.1V4.33L40.62,3h.26l0,1.32,0,2.63a1.07,1.07,0,0,0,.24.76.86.86,0,0,0,.66.24,1.07,1.07,0,0,0,.43-.09,1.31,1.31,0,0,0,.37-.24ZM40.39,4.59V4h2.06v.58Z" transform="translate(-6.57 -1.15)"/><path class="cls-1" d="M47.74,7.83l.69.17v.38l-1.54.39-.19-.14v-.7h0a2,2,0,0,1-.65.64,1.54,1.54,0,0,1-.72.18,1.68,1.68,0,0,1-1.22-.46,1.8,1.8,0,0,1-.48-1.37V6c0-.17,0-.35,0-.53s0-.36,0-.55l-.73-.15V4.37l1.62-.43.23.18c0,.21,0,.46,0,.72s0,.55,0,.84V6.77a1.2,1.2,0,0,0,.29.9,1.06,1.06,0,0,0,.77.28,1.08,1.08,0,0,0,.53-.14,1.32,1.32,0,0,0,.49-.48V6.14c0-.16,0-.31,0-.46s0-.28,0-.42a3.09,3.09,0,0,0,0-.35l-.78-.15V4.37l1.65-.43.21.16c0,.18,0,.35,0,.5V6.44c0,.32,0,.6,0,.84S47.73,7.7,47.74,7.83Z" transform="translate(-6.57 -1.15)"/><path class="cls-1" d="M48.9,8.65l0-.43.7-.16q0-.09,0-.36c0-.17,0-.4,0-.67s0-.58,0-.92V4c0-.27,0-.53,0-.78s0-.45,0-.63,0-.32,0-.4l-.8-.1,0-.39,1.7-.46.24.16,0,.89c0,.3,0,.63,0,1s0,.8,0,1.32V6.22c0,.46,0,.86,0,1.2a4.61,4.61,0,0,0,0,.64l.69.16,0,.43Z" transform="translate(-6.57 -1.15)"/><path class="cls-1" d="M53.68,8.74a1.57,1.57,0,0,1-.79-.19,1.44,1.44,0,0,1-.53-.47,1,1,0,0,1-.18-.56.89.89,0,0,1,.23-.61,1.9,1.9,0,0,1,.77-.41L54.83,6v-.5A.75.75,0,0,0,54.68,5a1.17,1.17,0,0,0-.42-.34,1.2,1.2,0,0,0-.57-.13.42.42,0,0,0-.33.1.77.77,0,0,0-.11.4l0,.52a1.26,1.26,0,0,1-.73,0,.43.43,0,0,1-.29-.41.58.58,0,0,1,.18-.38,1.69,1.69,0,0,1,.45-.36,2.89,2.89,0,0,1,.58-.3A2.49,2.49,0,0,1,54,3.92a2,2,0,0,1,1.35.42,1.45,1.45,0,0,1,.51,1.12l0,1.71c0,.15,0,.29,0,.41a1,1,0,0,0,0,.29L56.6,8v.37L56,8.6a1.76,1.76,0,0,1-.3.1.75.75,0,0,1-.24,0A.5.5,0,0,1,55,8.35l-.14-.45.18,0a2.85,2.85,0,0,1-.67.61A1.26,1.26,0,0,1,53.68,8.74ZM54.06,8a1,1,0,0,0,.41-.1,1.18,1.18,0,0,0,.36-.29V6.5l-1,.26a.65.65,0,0,0-.37.2.51.51,0,0,0-.12.35.65.65,0,0,0,.23.48A.76.76,0,0,0,54.06,8Z" transform="translate(-6.57 -1.15)"/><path class="cls-1" d="M60.58,7.91a1.46,1.46,0,0,1-.57.61,1.54,1.54,0,0,1-.81.22,1.61,1.61,0,0,1-1.11-.4,1.57,1.57,0,0,1-.44-1.23l0-2.52h-.75V4.33L58.44,3h.26l0,1.32V7a1.06,1.06,0,0,0,.23.76.86.86,0,0,0,.66.24A1.07,1.07,0,0,0,60,7.87a1.18,1.18,0,0,0,.37-.24ZM58.21,4.59V4h2.06v.58Z" transform="translate(-6.57 -1.15)"/><path class="cls-1" d="M60.76,8.65l0-.43.72-.16s0-.08,0-.17,0-.2,0-.35,0-.35,0-.6V6.18c0-.26,0-.49,0-.71s0-.41-.06-.56l-.72-.15V4.37l1.67-.43.21.17c0,.22,0,.44,0,.66s0,.47,0,.76V6.88c0,.3,0,.56,0,.77a2,2,0,0,0,0,.41l.71.16,0,.43ZM62,2.83a.71.71,0,0,1-.53-.21.7.7,0,0,1,0-1A.71.71,0,0,1,62,1.41a.69.69,0,0,1,.52.21.72.72,0,0,1,0,1A.69.69,0,0,1,62,2.83Z" transform="translate(-6.57 -1.15)"/><path class="cls-1" d="M66.28,8.74A2.49,2.49,0,0,1,65,8.44a2.12,2.12,0,0,1-.83-.85,2.5,2.5,0,0,1-.3-1.24,2.43,2.43,0,0,1,.33-1.29,2.32,2.32,0,0,1,.89-.84,2.48,2.48,0,0,1,1.2-.3,2.35,2.35,0,0,1,1.2.3,2,2,0,0,1,.79.83,2.58,2.58,0,0,1,.28,1.24,2.56,2.56,0,0,1-.3,1.24,2.45,2.45,0,0,1-.84.88A2.15,2.15,0,0,1,66.28,8.74Zm.11-.56A.88.88,0,0,0,67,8a1.28,1.28,0,0,0,.38-.58,2.65,2.65,0,0,0,.13-.87A2.87,2.87,0,0,0,67.13,5a1.06,1.06,0,0,0-.94-.58,1,1,0,0,0-.84.46A2.16,2.16,0,0,0,65,6.14a2.89,2.89,0,0,0,.17,1.05,1.67,1.67,0,0,0,.48.73A1.08,1.08,0,0,0,66.39,8.18Z" transform="translate(-6.57 -1.15)"/><path class="cls-1" d="M69.31,8.65l0-.42L70,8.06s0-.1,0-.19,0-.21,0-.36,0-.34,0-.57V6.12q0-.35,0-.66c0-.21,0-.4-.07-.55l-.68-.15V4.37l1.59-.43.21.18,0,.58h0a2.48,2.48,0,0,1,.73-.6,1.8,1.8,0,0,1,.82-.19,1.42,1.42,0,0,1,.77.21,1.38,1.38,0,0,1,.57.62,2.19,2.19,0,0,1,.22,1V7c0,.25,0,.48,0,.69a1.89,1.89,0,0,0,.05.41l.66.17,0,.42H72.48l0-.42.62-.17a1.3,1.3,0,0,0,0-.23,3.32,3.32,0,0,0,0-.35V5.93A1.48,1.48,0,0,0,73,5.21a.92.92,0,0,0-.38-.4,1,1,0,0,0-.49-.12,1.28,1.28,0,0,0-.61.15,1.47,1.47,0,0,0-.49.44v1.6c0,.31,0,.57,0,.77a1.89,1.89,0,0,0,0,.41l.67.17,0,.42Z" transform="translate(-6.57 -1.15)"/><path class="cls-1" d="M77.14,8.74a3.88,3.88,0,0,1-.82-.09,2.38,2.38,0,0,1-.7-.26l-.06-1.18h.58l.23.78a1.53,1.53,0,0,0,.85.24.89.89,0,0,0,.56-.16A.52.52,0,0,0,78,7.63a.67.67,0,0,0-.2-.47A2.53,2.53,0,0,0,77,6.73a3.39,3.39,0,0,1-1.08-.63,1.13,1.13,0,0,1-.31-.82,1.08,1.08,0,0,1,.24-.7,1.66,1.66,0,0,1,.68-.49,2.59,2.59,0,0,1,1-.17,3.35,3.35,0,0,1,.63.05,2.51,2.51,0,0,1,.54.16l.12,1.15h-.56L78,4.54a.88.88,0,0,0-.26-.1,1.06,1.06,0,0,0-.31,0,.93.93,0,0,0-.58.17.51.51,0,0,0-.22.43.6.6,0,0,0,.24.49,6,6,0,0,0,.87.47,2.82,2.82,0,0,1,1,.62,1.15,1.15,0,0,1,.28.78,1.17,1.17,0,0,1-.53,1A2.3,2.3,0,0,1,77.14,8.74Z" transform="translate(-6.57 -1.15)"/><path class="cls-1" d="M85.27,7.91a1.34,1.34,0,0,1-.57.61,1.51,1.51,0,0,1-.8.22,1.65,1.65,0,0,1-1.12-.4,1.6,1.6,0,0,1-.44-1.23l0-2.52h-.75V4.33L83.14,3h.25l0,1.32V7a1.11,1.11,0,0,0,.23.76.89.89,0,0,0,.66.24,1.12,1.12,0,0,0,.44-.09,1.31,1.31,0,0,0,.37-.24ZM82.91,4.59V4h2v.58Z" transform="translate(-6.57 -1.15)"/><path class="cls-1" d="M87.94,8.74a2.49,2.49,0,0,1-1.25-.3,2.08,2.08,0,0,1-.84-.85,2.5,2.5,0,0,1-.3-1.24,2.34,2.34,0,0,1,.34-1.29,2.29,2.29,0,0,1,.88-.84A2.49,2.49,0,0,1,88,3.92a2.31,2.31,0,0,1,1.19.3,2,2,0,0,1,.8.83,2.7,2.7,0,0,1,.28,1.24,2.46,2.46,0,0,1-.31,1.24,2.34,2.34,0,0,1-.83.88A2.15,2.15,0,0,1,87.94,8.74Zm.11-.56a.88.88,0,0,0,.57-.2A1.37,1.37,0,0,0,89,7.4a2.65,2.65,0,0,0,.13-.87A2.87,2.87,0,0,0,88.78,5a1,1,0,0,0-.94-.58,1,1,0,0,0-.83.46,2.16,2.16,0,0,0-.32,1.23,3.12,3.12,0,0,0,.17,1.05,1.77,1.77,0,0,0,.49.73A1.06,1.06,0,0,0,88.05,8.18Z" transform="translate(-6.57 -1.15)"/><path class="cls-1" d="M98.22,7V4.81c0-.4,0-.74,0-1s0-.47,0-.61a.71.71,0,0,0,0-.25l-.73-.15,0-.45h2.11l0,.45L98.93,3s0,.11,0,.25,0,.34,0,.61,0,.6,0,1V8c0,.25,0,.49,0,.75h-.53L94.28,3.49h.34V6.13c0,.41,0,.76,0,1s0,.49,0,.63,0,.22,0,.26l.75.15,0,.45H93.24l0-.45.67-.15a1.84,1.84,0,0,0,0-.27c0-.14,0-.35,0-.63s0-.61,0-1V4.42c0-.29,0-.53,0-.74s0-.37,0-.5a1.41,1.41,0,0,0,0-.23l-.67-.15,0-.45h1.55L98.49,7Z" transform="translate(-6.57 -1.15)"/><path class="cls-1" d="M102,8.74a1.57,1.57,0,0,1-.79-.19,1.44,1.44,0,0,1-.53-.47,1,1,0,0,1-.18-.56.85.85,0,0,1,.24-.61,1.78,1.78,0,0,1,.76-.41L103.19,6v-.5A.75.75,0,0,0,103,5a1.17,1.17,0,0,0-.42-.34,1.2,1.2,0,0,0-.57-.13.42.42,0,0,0-.33.1.77.77,0,0,0-.11.4l0,.52a1.22,1.22,0,0,1-.72,0,.42.42,0,0,1-.3-.41.58.58,0,0,1,.18-.38,2.09,2.09,0,0,1,.45-.36,3.19,3.19,0,0,1,.58-.3,2.49,2.49,0,0,1,.59-.16,2,2,0,0,1,1.35.42,1.39,1.39,0,0,1,.51,1.12l0,1.71c0,.15,0,.29,0,.41a1,1,0,0,0,0,.29L105,8v.37l-.58.23a1.76,1.76,0,0,1-.3.1.75.75,0,0,1-.24,0,.5.5,0,0,1-.49-.39l-.14-.45.19,0a3.09,3.09,0,0,1-.68.61A1.26,1.26,0,0,1,102,8.74Zm.38-.74a1,1,0,0,0,.41-.1,1.07,1.07,0,0,0,.36-.29V6.5l-1,.26a.65.65,0,0,0-.37.2.51.51,0,0,0-.11.35.64.64,0,0,0,.22.48A.76.76,0,0,0,102.42,8Z" transform="translate(-6.57 -1.15)"/><path class="cls-1" d="M109.24,8.77l-.2-.14v-.7h0a2,2,0,0,1-.63.64,1.53,1.53,0,0,1-.71.18,2.07,2.07,0,0,1-1.84-1.08,2.31,2.31,0,0,1-.29-1.17,2.61,2.61,0,0,1,.21-1.06,2.22,2.22,0,0,1,.56-.81A2.37,2.37,0,0,1,108,3.93a3.41,3.41,0,0,1,.55,0,1.5,1.5,0,0,1,.48.19c0-.13,0-.29,0-.48s0-.39,0-.6,0-.4,0-.56,0-.28,0-.34l-.82-.14,0-.4,1.72-.46.23.16c0,.44,0,.87,0,1.27s0,.83,0,1.26V6.36c0,.37,0,.68,0,.92s0,.43,0,.55l.69.17v.38ZM108,7.93a1.07,1.07,0,0,0,.51-.13,1.43,1.43,0,0,0,.5-.44V5a1.1,1.1,0,0,0-.47-.44,1.24,1.24,0,0,0-.54-.14,1.19,1.19,0,0,0-1,.47,2,2,0,0,0-.37,1.26,2,2,0,0,0,.39,1.29A1.23,1.23,0,0,0,108,7.93Z" transform="translate(-6.57 -1.15)"/><path class="cls-1" d="M111.24,8.65l0-.43.72-.16s0-.08,0-.17,0-.2,0-.35,0-.35,0-.6V6.18c0-.26,0-.49,0-.71s0-.41-.07-.56l-.72-.15V4.37l1.68-.43.2.17c0,.22,0,.44,0,.66s0,.47,0,.76V6.88c0,.3,0,.56,0,.77s0,.35,0,.41l.72.16,0,.43Zm1.25-5.82a.72.72,0,0,1-.53-.21.7.7,0,0,1,0-1,.72.72,0,0,1,.53-.21.71.71,0,1,1,0,1.42Z" transform="translate(-6.57 -1.15)"/><path class="cls-1" d="M116.32,8.7l-1.91-4.11-.51-.17,0-.42h2.29l0,.42-.66.17L117,7.65ZM119.14,4l0,.42-.51.17-1.83,3.79L116,10.17a2.06,2.06,0,0,1-.54.73,1,1,0,0,1-.61.2.78.78,0,0,1-.48-.14.45.45,0,0,1-.18-.36.49.49,0,0,1,.15-.35.8.8,0,0,1,.45-.24l1.08-.33-.56.53,1.22-2.33.12-.22L118,4.59l-.66-.17,0-.42Z" transform="translate(-6.57 -1.15)"/><path class="cls-1" d="M121.1,8.74a1.6,1.6,0,0,1-.8-.19,1.49,1.49,0,0,1-.52-.47,1,1,0,0,1-.18-.56.89.89,0,0,1,.23-.61,1.85,1.85,0,0,1,.76-.41L122.25,6v-.5a.7.7,0,0,0-.16-.46,1.06,1.06,0,0,0-.41-.34,1.2,1.2,0,0,0-.57-.13.42.42,0,0,0-.33.1.68.68,0,0,0-.11.4l0,.52a1.26,1.26,0,0,1-.73,0,.43.43,0,0,1-.29-.41.58.58,0,0,1,.18-.38,1.69,1.69,0,0,1,.45-.36,2.89,2.89,0,0,1,.58-.3,2.49,2.49,0,0,1,.59-.16,2,2,0,0,1,1.35.42,1.45,1.45,0,0,1,.51,1.12l0,1.71a2.62,2.62,0,0,0,0,.41,1.55,1.55,0,0,0,0,.29L124,8v.37l-.58.23a2.63,2.63,0,0,1-.3.1.77.77,0,0,1-.25,0,.49.49,0,0,1-.48-.39l-.14-.45.18,0a3.06,3.06,0,0,1-.67.61A1.28,1.28,0,0,1,121.1,8.74Zm.38-.74a.91.91,0,0,0,.4-.1,1.21,1.21,0,0,0,.37-.29V6.5l-1,.26a.62.62,0,0,0-.37.2.51.51,0,0,0-.12.35.65.65,0,0,0,.23.48A.76.76,0,0,0,121.48,8Z" transform="translate(-6.57 -1.15)"/><path class="cls-1" d="M124.48,8.65l0-.42.67-.17q0-.11,0-.36c0-.18,0-.4,0-.67s0-.58,0-.92V4c0-.27,0-.53,0-.78s0-.48,0-.67,0-.33,0-.41l-.8-.1,0-.39L126,1.19l.23.16c0,.22,0,.44,0,.66s0,.45,0,.7,0,.54,0,.86,0,.7,0,1.13h0a2.61,2.61,0,0,1,.73-.6,1.73,1.73,0,0,1,.81-.19,1.49,1.49,0,0,1,.77.21,1.55,1.55,0,0,1,.58.63,2.35,2.35,0,0,1,.22,1.06V7c0,.25,0,.47,0,.68a4.2,4.2,0,0,0,0,.42l.67.17,0,.42h-2.33l0-.42.62-.17c0-.06,0-.13,0-.23s0-.21,0-.35,0-.29,0-.47V5.93a1.47,1.47,0,0,0-.15-.71,1,1,0,0,0-.37-.4,1,1,0,0,0-.5-.13,1.35,1.35,0,0,0-.62.15,1.57,1.57,0,0,0-.49.44v1.6c0,.32,0,.58,0,.78a2,2,0,0,0,0,.4l.66.17,0,.42Z" transform="translate(-6.57 -1.15)"/><path class="cls-1" d="M134.36,8.74a1.58,1.58,0,0,1-.8-.19,1.52,1.52,0,0,1-.53-.47,1,1,0,0,1-.18-.56.85.85,0,0,1,.24-.61,1.85,1.85,0,0,1,.76-.41L135.51,6v-.5a.76.76,0,0,0-.16-.46,1.06,1.06,0,0,0-.41-.34,1.25,1.25,0,0,0-.57-.13.43.43,0,0,0-.34.1.78.78,0,0,0-.1.4l0,.52a1.23,1.23,0,0,1-.72,0,.42.42,0,0,1-.3-.41.58.58,0,0,1,.18-.38,2.09,2.09,0,0,1,.45-.36,3,3,0,0,1,.59-.3,2.37,2.37,0,0,1,.59-.16,2.06,2.06,0,0,1,1.35.42,1.45,1.45,0,0,1,.51,1.12l0,1.71c0,.15,0,.29,0,.41a1.41,1.41,0,0,0,.05.29l.7.13v.37l-.58.23a2.63,2.63,0,0,1-.3.1.85.85,0,0,1-.25,0,.48.48,0,0,1-.48-.39l-.14-.45.18,0a3.09,3.09,0,0,1-.68.61A1.23,1.23,0,0,1,134.36,8.74Zm.37-.74a1,1,0,0,0,.41-.1,1.21,1.21,0,0,0,.37-.29V6.5l-1.06.26a.69.69,0,0,0-.37.2.56.56,0,0,0-.11.35.64.64,0,0,0,.22.48A.76.76,0,0,0,134.73,8Z" transform="translate(-6.57 -1.15)"/><path class="cls-1" d="M137.74,8.65l0-.42.66-.17a.71.71,0,0,0,0-.19q0-.13,0-.36c0-.15,0-.34,0-.57V6.12q0-.35,0-.66c0-.21,0-.4-.07-.55l-.69-.15V4.37l1.59-.43.22.18-.06.58h0a2.48,2.48,0,0,1,.73-.6,1.78,1.78,0,0,1,.81-.19,1.43,1.43,0,0,1,.78.21,1.5,1.5,0,0,1,.57.62,2.19,2.19,0,0,1,.22,1V7c0,.25,0,.48,0,.69a1.4,1.4,0,0,0,.05.41l.66.17,0,.42h-2.33l0-.42.62-.17c0-.06,0-.13,0-.23s0-.21,0-.35V5.93a1.48,1.48,0,0,0-.15-.72.92.92,0,0,0-.38-.4,1,1,0,0,0-.49-.12,1.32,1.32,0,0,0-.62.15,1.44,1.44,0,0,0-.48.44v1.6c0,.31,0,.57,0,.77a1.89,1.89,0,0,0,.05.41l.67.17,0,.42Z" transform="translate(-6.57 -1.15)"/><path class="cls-1" d="M147.58,8.77l-.2-.14v-.7h0a1.94,1.94,0,0,1-.64.64,1.46,1.46,0,0,1-.7.18,2.07,2.07,0,0,1-1.84-1.08,2.31,2.31,0,0,1-.29-1.17,2.61,2.61,0,0,1,.21-1.06,2.22,2.22,0,0,1,.56-.81,2.37,2.37,0,0,1,1.69-.69,3.41,3.41,0,0,1,.55,0,1.36,1.36,0,0,1,.47.19V3.69c0-.19,0-.39,0-.6s0-.4,0-.56,0-.28,0-.34l-.83-.14,0-.4,1.72-.46.23.16c0,.44,0,.87,0,1.27s0,.83,0,1.26V6.36c0,.37,0,.68,0,.92s0,.43.05.55l.69.17v.38Zm-1.23-.84a1.08,1.08,0,0,0,.52-.13,1.33,1.33,0,0,0,.49-.44V5a1,1,0,0,0-.46-.44,1.25,1.25,0,0,0-.55-.14,1.18,1.18,0,0,0-1,.47A2,2,0,0,0,145,6.18a2,2,0,0,0,.39,1.29A1.2,1.2,0,0,0,146.35,7.93Z" transform="translate(-6.57 -1.15)"/><path class="cls-1" d="M155.41,8.75a4.27,4.27,0,0,1-1.79-.36,2.82,2.82,0,0,1-1.24-1.07,3.09,3.09,0,0,1-.46-1.74,3.41,3.41,0,0,1,.26-1.32,3.17,3.17,0,0,1,.72-1A3.29,3.29,0,0,1,154,2.5a4.29,4.29,0,0,1,1.52-.25,5.34,5.34,0,0,1,.95.09,4.2,4.2,0,0,1,.86.25l0,1.44-.53,0-.32-1a1.5,1.5,0,0,0-.53-.2,3,3,0,0,0-.58-.06,2.23,2.23,0,0,0-1.26.33,1.91,1.91,0,0,0-.73.9,3.23,3.23,0,0,0-.24,1.27,3.31,3.31,0,0,0,.31,1.51,2.2,2.2,0,0,0,2,1.28,2.67,2.67,0,0,0,.58-.08,1.5,1.5,0,0,0,.56-.25l-.24.6V7.28c0-.21,0-.4,0-.58a2.07,2.07,0,0,0,0-.41l-.74-.13,0-.46H158l0,.44-.49.14a1.72,1.72,0,0,0,0,.28c0,.14,0,.31,0,.49s0,.39,0,.56,0,.35,0,.55a3.84,3.84,0,0,1-1,.43A4.09,4.09,0,0,1,155.41,8.75Z" transform="translate(-6.57 -1.15)"/><path class="cls-1" d="M160.46,8.74a1.6,1.6,0,0,1-.8-.19,1.4,1.4,0,0,1-.52-.47,1,1,0,0,1-.18-.56.84.84,0,0,1,.23-.61A1.85,1.85,0,0,1,160,6.5L161.61,6v-.5a.7.7,0,0,0-.16-.46,1.06,1.06,0,0,0-.41-.34,1.2,1.2,0,0,0-.57-.13c-.17,0-.28,0-.33.1A.68.68,0,0,0,160,5l0,.52a1.26,1.26,0,0,1-.73,0,.43.43,0,0,1-.29-.41.61.61,0,0,1,.17-.38,1.94,1.94,0,0,1,.46-.36,2.89,2.89,0,0,1,.58-.3,2.37,2.37,0,0,1,.59-.16,2,2,0,0,1,1.35.42,1.45,1.45,0,0,1,.51,1.12l0,1.71c0,.15,0,.29,0,.41a1.41,1.41,0,0,0,.05.29l.7.13v.37l-.58.23-.3.1a.81.81,0,0,1-.25,0,.49.49,0,0,1-.48-.39l-.14-.45.18,0a3.06,3.06,0,0,1-.67.61A1.28,1.28,0,0,1,160.46,8.74Zm.38-.74a1,1,0,0,0,.4-.1,1.21,1.21,0,0,0,.37-.29V6.5l-1.05.26a.62.62,0,0,0-.37.2.51.51,0,0,0-.12.35.65.65,0,0,0,.23.48A.76.76,0,0,0,160.84,8Z" transform="translate(-6.57 -1.15)"/><path class="cls-1" d="M163.81,8.65l0-.43.7-.16q0-.09,0-.36c0-.17,0-.4,0-.67s0-.58,0-.92V4c0-.27,0-.53,0-.78s0-.45,0-.63,0-.32,0-.4l-.8-.1,0-.39,1.7-.46.23.16c0,.3,0,.6,0,.89s0,.63,0,1,0,.8,0,1.32V6.22c0,.46,0,.86,0,1.2s0,.56,0,.64l.7.16,0,.43Z" transform="translate(-6.57 -1.15)"/><path class="cls-1" d="M166.78,8.65l0-.43.72-.16a.54.54,0,0,0,0-.17c0-.08,0-.2,0-.35s0-.35,0-.6V6.18c0-.26,0-.49,0-.71s0-.41-.07-.56l-.72-.15V4.37l1.68-.43.2.17c0,.22,0,.44-.05.66s0,.47,0,.76V6.88c0,.3,0,.56,0,.77a3.34,3.34,0,0,0,0,.41l.72.16,0,.43ZM168,2.83a.72.72,0,0,1-.53-.21.7.7,0,0,1,0-1,.72.72,0,0,1,.53-.21.67.67,0,0,1,.52.21.68.68,0,0,1,.2.5.68.68,0,0,1-.2.5A.67.67,0,0,1,168,2.83Z" transform="translate(-6.57 -1.15)"/><path class="cls-1" d="M169.78,8.65l0-.42.67-.17q0-.11,0-.36c0-.18,0-.4,0-.67s0-.58,0-.92V4c0-.27,0-.53,0-.78s0-.48,0-.67,0-.33,0-.41l-.8-.1,0-.39,1.68-.46.23.16c0,.22,0,.44,0,.66s0,.45,0,.7,0,.54,0,.86,0,.7,0,1.13h0a2.61,2.61,0,0,1,.73-.6,1.73,1.73,0,0,1,.81-.19,1.49,1.49,0,0,1,.77.21,1.55,1.55,0,0,1,.58.63,2.35,2.35,0,0,1,.22,1.06V7c0,.25,0,.47,0,.68a2.4,2.4,0,0,0,0,.42l.67.17,0,.42H173l0-.42.62-.17c0-.06,0-.13,0-.23s0-.21,0-.35,0-.29,0-.47V5.93a1.47,1.47,0,0,0-.15-.71,1,1,0,0,0-.37-.4,1,1,0,0,0-.5-.13,1.35,1.35,0,0,0-.62.15,1.57,1.57,0,0,0-.49.44v1.6c0,.32,0,.58,0,.78a2,2,0,0,0,0,.4l.66.17,0,.42Z" transform="translate(-6.57 -1.15)"/><path class="cls-1" d="M177,8.76a.76.76,0,0,1-.39-.1.66.66,0,0,1-.28-.27.75.75,0,0,1-.1-.38.71.71,0,0,1,.1-.39.73.73,0,0,1,.28-.27.76.76,0,0,1,.39-.1.74.74,0,0,1,.4.1.66.66,0,0,1,.28.27.73.73,0,0,1-.12.92A.76.76,0,0,1,177,8.76Zm-.23-2.21-.45-4.35a1.64,1.64,0,0,1,.06-.57.69.69,0,0,1,.24-.35.65.65,0,0,1,.38-.13.66.66,0,0,1,.4.13.69.69,0,0,1,.24.35,1.44,1.44,0,0,1,.05.57l-.44,4.35Z" transform="translate(-6.57 -1.15)"/><path class="cls-1" d="M181.12,2.35h2l2.26,5h-.23l2.15-5h1.9l0,.45-.68.14a4.07,4.07,0,0,0,0,.51c0,.26,0,.56,0,.91l0,1.94c0,.34,0,.62,0,.86s0,.44,0,.58a2,2,0,0,0,0,.31l.66.15,0,.45h-2.47l0-.45.67-.15c0-.06,0-.15,0-.27V7.27c0-.22,0-.5,0-.85l0-3.76h.35l-2.59,6h-.46l-2.73-6h.4V7.57c0,.26,0,.42,0,.48l.74.15,0,.45H181l0-.45.75-.15c0-.05,0-.15,0-.29s0-.32,0-.54,0-.47,0-.75l0-2.1c0-.35,0-.65,0-.9s0-.41,0-.52l-.67-.15Z" transform="translate(-6.57 -1.15)"/><path class="cls-1" d="M191.87,8.74a1.6,1.6,0,0,1-.8-.19,1.4,1.4,0,0,1-.52-.47,1,1,0,0,1-.18-.56.84.84,0,0,1,.23-.61,1.85,1.85,0,0,1,.76-.41L193,6v-.5a.7.7,0,0,0-.16-.46,1.06,1.06,0,0,0-.41-.34,1.2,1.2,0,0,0-.57-.13.41.41,0,0,0-.33.1.68.68,0,0,0-.11.4l0,.52a1.26,1.26,0,0,1-.73,0,.43.43,0,0,1-.29-.41.61.61,0,0,1,.17-.38,1.94,1.94,0,0,1,.46-.36,2.89,2.89,0,0,1,.58-.3,2.49,2.49,0,0,1,.59-.16,2,2,0,0,1,1.35.42,1.45,1.45,0,0,1,.51,1.12l0,1.71a2.62,2.62,0,0,0,0,.41,1,1,0,0,0,0,.29l.7.13v.37l-.58.23-.3.1a.81.81,0,0,1-.25,0,.49.49,0,0,1-.48-.39L193,7.9l.18,0a3.06,3.06,0,0,1-.67.61A1.28,1.28,0,0,1,191.87,8.74Zm.38-.74a1,1,0,0,0,.4-.1,1.21,1.21,0,0,0,.37-.29V6.5L192,6.76a.62.62,0,0,0-.37.2.51.51,0,0,0-.12.35.65.65,0,0,0,.23.48A.76.76,0,0,0,192.25,8Z" transform="translate(-6.57 -1.15)"/><path class="cls-1" d="M197.27,8.7l-1.91-4.11-.5-.17,0-.42h2.29l0,.42-.67.17,1.39,3.06ZM200.1,4l0,.42-.5.17-1.84,3.79-.85,1.79a2.05,2.05,0,0,1-.53.73,1,1,0,0,1-.62.2.78.78,0,0,1-.48-.14.45.45,0,0,1-.18-.36.49.49,0,0,1,.15-.35.87.87,0,0,1,.46-.24l1.07-.33-.56.53,1.23-2.33.11-.22,1.33-3.07-.67-.17,0-.42Z" transform="translate(-6.57 -1.15)"/><path class="cls-1" d="M204.5,8.7l-1.91-4.11-.5-.17,0-.42h2.29l0,.42-.67.17,1.39,3.06ZM207.33,4l0,.42-.51.17L205,8.38l-.85,1.79a2.05,2.05,0,0,1-.53.73,1,1,0,0,1-.62.2.78.78,0,0,1-.48-.14.45.45,0,0,1-.18-.36.49.49,0,0,1,.15-.35A.87.87,0,0,1,203,10L204,9.68l-.56.53,1.23-2.33.11-.22,1.33-3.07-.67-.17,0-.42Z" transform="translate(-6.57 -1.15)"/><path class="cls-1" d="M210,8.74a2.49,2.49,0,0,1-1.25-.3,2.12,2.12,0,0,1-.83-.85,2.5,2.5,0,0,1-.3-1.24A2.43,2.43,0,0,1,208,5.06a2.32,2.32,0,0,1,.89-.84,2.49,2.49,0,0,1,1.21-.3,2.34,2.34,0,0,1,1.19.3,2,2,0,0,1,.79.83,2.58,2.58,0,0,1,.28,1.24,2.56,2.56,0,0,1-.3,1.24,2.45,2.45,0,0,1-.84.88A2.15,2.15,0,0,1,210,8.74Zm.11-.56a.88.88,0,0,0,.57-.2,1.37,1.37,0,0,0,.38-.58,2.65,2.65,0,0,0,.13-.87,2.78,2.78,0,0,0-.35-1.5,1,1,0,0,0-.93-.58,1,1,0,0,0-.84.46,2.16,2.16,0,0,0-.31,1.23,2.89,2.89,0,0,0,.17,1.05,1.67,1.67,0,0,0,.48.73A1.08,1.08,0,0,0,210.11,8.18Z" transform="translate(-6.57 -1.15)"/><path class="cls-1" d="M217.79,7.83l.69.17v.38l-1.54.39-.19-.14v-.7h0a2,2,0,0,1-.65.64,1.54,1.54,0,0,1-.72.18,1.68,1.68,0,0,1-1.22-.46,1.8,1.8,0,0,1-.49-1.37V6c0-.17,0-.35,0-.53s0-.36,0-.55l-.73-.15V4.37l1.62-.43.23.18c0,.21,0,.46,0,.72s0,.55,0,.84V6.77a1.2,1.2,0,0,0,.29.9,1.06,1.06,0,0,0,.77.28,1.08,1.08,0,0,0,.53-.14,1.32,1.32,0,0,0,.49-.48V6.14c0-.16,0-.31,0-.46s0-.28,0-.42a3.09,3.09,0,0,0,0-.35l-.78-.15V4.37l1.65-.43.21.16c0,.18,0,.35,0,.5V6.44c0,.32,0,.6,0,.84S217.78,7.7,217.79,7.83Z" transform="translate(-6.57 -1.15)"/><path class="cls-1" d="M219,8.65l0-.42.67-.17s0-.09,0-.18,0-.22,0-.38,0-.34,0-.56V6.12c0-.24,0-.46,0-.67a5.29,5.29,0,0,0-.08-.54l-.68-.15V4.37l1.58-.43.19.16,0,.88h0a2.18,2.18,0,0,1,.64-.83A1.18,1.18,0,0,1,222,4a.72.72,0,0,1,.44.13.49.49,0,0,1,.18.42.5.5,0,0,1-.19.42.72.72,0,0,1-.49.16A.86.86,0,0,1,221.5,5a1.25,1.25,0,0,1-.37-.26l.22.06a1.62,1.62,0,0,0-.36.34,2.39,2.39,0,0,0-.31.53V6.6c0,.21,0,.41,0,.61s0,.37,0,.52,0,.26,0,.33l.93.15,0,.44Z" transform="translate(-6.57 -1.15)"/><path class="cls-1" d="M6.66,21.85l0-.42.66-.17a.62.62,0,0,0,0-.18,3.21,3.21,0,0,0,0-.36c0-.15,0-.35,0-.58v-.82c0-.15,0-.3,0-.45s0-.29,0-.42a2.75,2.75,0,0,0,0-.34L6.57,18v-.39l1.59-.43.22.18-.06.59h0a2.18,2.18,0,0,1,.69-.62,1.73,1.73,0,0,1,.76-.18,1.37,1.37,0,0,1,.74.21,1.48,1.48,0,0,1,.59.62A2.28,2.28,0,0,1,11.36,19l0,1.13c0,.25,0,.47,0,.68a1.69,1.69,0,0,0,0,.42l.63.17,0,.42H9.79l0-.42.58-.17a1.3,1.3,0,0,0,0-.23,3.32,3.32,0,0,0,0-.35c0-.13,0-.29,0-.47l0-1.13a1.49,1.49,0,0,0-.13-.69A.87.87,0,0,0,9.89,18a1,1,0,0,0-.48-.12,1.3,1.3,0,0,0-.58.14,1.39,1.39,0,0,0-.49.45v1.6c0,.3,0,.56,0,.77a1.89,1.89,0,0,0,.05.41l.62.17,0,.42Zm6.13,0,0-.42.59-.17c0-.06,0-.13,0-.23s0-.21,0-.35,0-.29,0-.47V19.12a1.62,1.62,0,0,0-.14-.72,1,1,0,0,0-.38-.39,1,1,0,0,0-.48-.12,1.32,1.32,0,0,0-.62.15,1.46,1.46,0,0,0-.5.49l-.24-.4a2.84,2.84,0,0,1,.8-.76,1.73,1.73,0,0,1,.91-.25,1.63,1.63,0,0,1,.85.22,1.5,1.5,0,0,1,.58.64,2.19,2.19,0,0,1,.21,1v1.19c0,.25,0,.47,0,.68a2.4,2.4,0,0,0,0,.42l.66.17,0,.42Z" transform="translate(-6.57 -1.15)"/><path class="cls-1" d="M17.4,21.94a1.54,1.54,0,0,1-.79-.19,1.36,1.36,0,0,1-.53-.47,1,1,0,0,1-.18-.56.84.84,0,0,1,.23-.61,1.83,1.83,0,0,1,.77-.41l1.65-.53v-.5a.7.7,0,0,0-.16-.46,1.06,1.06,0,0,0-.41-.34,1.2,1.2,0,0,0-.57-.13.41.41,0,0,0-.33.1.68.68,0,0,0-.11.4l0,.52a1.26,1.26,0,0,1-.73,0,.43.43,0,0,1-.29-.41.61.61,0,0,1,.17-.38,1.94,1.94,0,0,1,.46-.36,2.89,2.89,0,0,1,.58-.3,2.49,2.49,0,0,1,.59-.16,2,2,0,0,1,1.35.42,1.45,1.45,0,0,1,.51,1.12l0,1.71a2.62,2.62,0,0,0,0,.41,1.55,1.55,0,0,0,0,.29l.7.13v.37l-.58.23a2.63,2.63,0,0,1-.3.1.77.77,0,0,1-.25,0,.49.49,0,0,1-.48-.39l-.14-.45.18,0a3.06,3.06,0,0,1-.67.61A1.28,1.28,0,0,1,17.4,21.94Zm.38-.74a.79.79,0,0,0,.4-.1,1.21,1.21,0,0,0,.37-.29V19.7L17.5,20a.62.62,0,0,0-.37.2.51.51,0,0,0-.12.35.65.65,0,0,0,.23.48A.76.76,0,0,0,17.78,21.2Z" transform="translate(-6.57 -1.15)"/><path class="cls-1" d="M20.79,21.85l0-.42.67-.17a1.55,1.55,0,0,0,0-.18c0-.09,0-.22,0-.38s0-.34,0-.56v-.82c0-.24,0-.46,0-.67s0-.39-.07-.54L20.71,18v-.39l1.58-.43.19.16,0,.88h0a2.18,2.18,0,0,1,.64-.83,1.18,1.18,0,0,1,.64-.21.72.72,0,0,1,.44.13.49.49,0,0,1,.18.42.53.53,0,0,1-.19.43.76.76,0,0,1-.48.15.87.87,0,0,1-.4-.09,1.39,1.39,0,0,1-.37-.26l.22.06a1.87,1.87,0,0,0-.36.34,2.39,2.39,0,0,0-.31.53v.94c0,.21,0,.41,0,.61s0,.37,0,.52,0,.26,0,.33l.93.15,0,.44Z" transform="translate(-6.57 -1.15)"/><path class="cls-1" d="M24.86,21.85l0-.42.67-.17a1.55,1.55,0,0,0,0-.18c0-.09,0-.22,0-.38s0-.34,0-.56v-.82c0-.24,0-.46,0-.67s0-.39-.07-.54L24.77,18v-.39l1.58-.43.19.16,0,.88h0a2.18,2.18,0,0,1,.64-.83,1.18,1.18,0,0,1,.64-.21.72.72,0,0,1,.44.13.49.49,0,0,1,.18.42.53.53,0,0,1-.19.43.76.76,0,0,1-.48.15.87.87,0,0,1-.4-.09,1.39,1.39,0,0,1-.37-.26l.22.06a1.87,1.87,0,0,0-.36.34,2.39,2.39,0,0,0-.31.53v.94c0,.21,0,.41,0,.61s0,.37,0,.52a2.38,2.38,0,0,0,0,.33l.93.15,0,.44Z" transform="translate(-6.57 -1.15)"/><path class="cls-1" d="M28.86,21.85l0-.43.72-.16a1.3,1.3,0,0,0,0-.17,2.87,2.87,0,0,0,0-.35c0-.15,0-.35,0-.6v-.76c0-.26,0-.49,0-.71a3.84,3.84,0,0,0-.06-.56L28.8,18v-.39l1.67-.43.21.17c0,.22,0,.44-.05.66s0,.47,0,.76v1.35c0,.3,0,.56,0,.77a2,2,0,0,0,0,.41l.72.16,0,.43ZM30.12,16a.71.71,0,0,1-.53-.21.7.7,0,0,1,0-1,.71.71,0,0,1,.53-.21.69.69,0,0,1,.52.21.73.73,0,0,1,0,1A.69.69,0,0,1,30.12,16Z" transform="translate(-6.57 -1.15)"/><path class="cls-1" d="M33.64,21.94a1.57,1.57,0,0,1-.79-.19,1.36,1.36,0,0,1-.53-.47,1,1,0,0,1-.18-.56.89.89,0,0,1,.23-.61,1.9,1.9,0,0,1,.77-.41l1.65-.53v-.5a.75.75,0,0,0-.15-.46,1.17,1.17,0,0,0-.42-.34,1.2,1.2,0,0,0-.57-.13.42.42,0,0,0-.33.1.77.77,0,0,0-.11.4l0,.52a1.22,1.22,0,0,1-.72,0,.42.42,0,0,1-.3-.41.58.58,0,0,1,.18-.38,2.09,2.09,0,0,1,.45-.36,3.19,3.19,0,0,1,.58-.3,2.49,2.49,0,0,1,.59-.16,2,2,0,0,1,1.35.42,1.39,1.39,0,0,1,.51,1.12l0,1.71c0,.15,0,.29,0,.41a1,1,0,0,0,0,.29l.69.13v.37L36,21.8a1.76,1.76,0,0,1-.3.1.75.75,0,0,1-.24,0,.5.5,0,0,1-.49-.39l-.14-.45.19,0a3.09,3.09,0,0,1-.68.61A1.26,1.26,0,0,1,33.64,21.94ZM34,21.2a.86.86,0,0,0,.41-.1,1.07,1.07,0,0,0,.36-.29V19.7l-1,.26a.65.65,0,0,0-.37.2.51.51,0,0,0-.11.35.64.64,0,0,0,.22.48A.76.76,0,0,0,34,21.2Z" transform="translate(-6.57 -1.15)"/><path class="cls-1" d="M39.25,24.3A3.52,3.52,0,0,1,37.62,24a1,1,0,0,1-.59-.86.91.91,0,0,1,.31-.67,3.39,3.39,0,0,1,1-.59l.43.08a1.59,1.59,0,0,0-.5.46,1,1,0,0,0-.18.56.71.71,0,0,0,.33.62,1.68,1.68,0,0,0,.93.23,1.9,1.9,0,0,0,1.09-.29.85.85,0,0,0,.42-.72.55.55,0,0,0-.25-.5,1.78,1.78,0,0,0-.82-.21l-1.2-.1-.14,0a1.18,1.18,0,0,1-.72-.21.61.61,0,0,1-.29-.52.83.83,0,0,1,.3-.59,2.66,2.66,0,0,1,.82-.49l.15.21a1.23,1.23,0,0,0-.26.22.35.35,0,0,0-.09.22.27.27,0,0,0,.11.23.62.62,0,0,0,.34.11l1.46.15a2.06,2.06,0,0,1,1.15.4,1.06,1.06,0,0,1,.39.87,1.39,1.39,0,0,1-.33.9,2.15,2.15,0,0,1-.9.63A3.49,3.49,0,0,1,39.25,24.3Zm.07-3.76a2.44,2.44,0,0,1-1-.21,1.73,1.73,0,0,1-.72-.58,1.46,1.46,0,0,1-.25-.84,1.62,1.62,0,0,1,.26-.92,2,2,0,0,1,.73-.64,2.24,2.24,0,0,1,1-.23,2.21,2.21,0,0,1,1,.22,1.76,1.76,0,0,1,.7.62,1.6,1.6,0,0,1,0,1.75,1.74,1.74,0,0,1-.7.61A2.32,2.32,0,0,1,39.32,20.54Zm.07-.49a.77.77,0,0,0,.64-.31,1.35,1.35,0,0,0,.24-.84A1.6,1.6,0,0,0,40,18a.82.82,0,0,0-.69-.35.8.8,0,0,0-.66.33,1.48,1.48,0,0,0-.25.88,1.39,1.39,0,0,0,.27.89A.87.87,0,0,0,39.39,20.05ZM42,18l-1.35-.1-.4-.45L42,17.22Z" transform="translate(-6.57 -1.15)"/><path class="cls-1" d="M44.76,21.94a2.35,2.35,0,0,1-1.16-.29,2.13,2.13,0,0,1-.81-.82,2.42,2.42,0,0,1-.3-1.22,2.59,2.59,0,0,1,.33-1.32,2.32,2.32,0,0,1,.83-.87,2,2,0,0,1,1.12-.3,1.68,1.68,0,0,1,1.36.57,2.3,2.3,0,0,1,.48,1.53v.22H43.37v-.51H45.8l-.14.18v-.27a1.44,1.44,0,0,0-.26-.9.86.86,0,0,0-.71-.33,1,1,0,0,0-.56.17,1.3,1.3,0,0,0-.42.52,2.14,2.14,0,0,0-.15.86v.16A1.94,1.94,0,0,0,44,20.64a1.4,1.4,0,0,0,1.11.48,1.57,1.57,0,0,0,.67-.14,2,2,0,0,0,.59-.48l.29.27a2.06,2.06,0,0,1-.79.88A2.14,2.14,0,0,1,44.76,21.94Z" transform="translate(-6.57 -1.15)"/><path class="cls-1" d="M49.86,21.56c0-.25,0-.48,0-.68s0-.41,0-.61V18c0-.26,0-.54,0-.82s0-.55,0-.79,0-.46,0-.64,0-.3,0-.37l-.79-.09,0-.39,1.67-.46.24.16,0,.89c0,.3,0,.64,0,1s0,.87,0,1.44h0a1.87,1.87,0,0,1,.64-.57,1.61,1.61,0,0,1,.86-.23,1.9,1.9,0,0,1,1.71,1,2.43,2.43,0,0,1,.28,1.19A2.57,2.57,0,0,1,54,20.67a2.51,2.51,0,0,1-1,.93,2.81,2.81,0,0,1-1.39.34,5,5,0,0,1-1-.1A4.56,4.56,0,0,1,49.86,21.56Zm2-.24a1.23,1.23,0,0,0,1-.46,2,2,0,0,0,.4-1.32,1.59,1.59,0,0,0-.39-1.22,1.35,1.35,0,0,0-1.53-.26,1.41,1.41,0,0,0-.49.39V21a1.83,1.83,0,0,0,.46.24A1.7,1.7,0,0,0,51.91,21.32Z" transform="translate(-6.57 -1.15)"/><path class="cls-1" d="M57.5,21.94a2.35,2.35,0,0,1-1.16-.29,2.13,2.13,0,0,1-.81-.82,2.42,2.42,0,0,1-.3-1.22,2.59,2.59,0,0,1,.33-1.32,2.32,2.32,0,0,1,.83-.87,2,2,0,0,1,1.12-.3,1.68,1.68,0,0,1,1.36.57,2.3,2.3,0,0,1,.48,1.53v.22H56.11v-.51h2.43l-.14.18v-.27a1.38,1.38,0,0,0-.26-.9.86.86,0,0,0-.71-.33,1,1,0,0,0-.56.17,1.3,1.3,0,0,0-.42.52,2.14,2.14,0,0,0-.15.86v.16a1.94,1.94,0,0,0,.42,1.32,1.42,1.42,0,0,0,1.11.48,1.65,1.65,0,0,0,.68-.14,2,2,0,0,0,.58-.48l.29.27a2.06,2.06,0,0,1-.79.88A2.14,2.14,0,0,1,57.5,21.94Z" transform="translate(-6.57 -1.15)"/><path class="cls-1" d="M65.11,21.85l0-.43.72-.16a1.07,1.07,0,0,0,0-.23c0-.11,0-.23,0-.37s0-.32,0-.52v-1c0-.33,0-.59,0-.8s0-.37-.06-.52H62v-.39l.78-.21.63,0h3c.15,0,.3,0,.44,0,0,.25,0,.49,0,.71s0,.51,0,.84v1.88c0,.16,0,.3,0,.41s0,.19,0,.24l.72.16,0,.43Zm-3,0,0-.42.66-.17a1.34,1.34,0,0,0,0-.26c0-.12,0-.28,0-.5V16.86a2.53,2.53,0,0,1,.34-1.35,2.27,2.27,0,0,1,.93-.86,3,3,0,0,1,1.35-.3,2.35,2.35,0,0,1,1.21.28.8.8,0,0,1,.45.67.45.45,0,0,1-.14.35.48.48,0,0,1-.35.13.78.78,0,0,1-.35-.07,1.41,1.41,0,0,1-.34-.27l-.84-.8.61.23a1.62,1.62,0,0,0-.93.09,1.41,1.41,0,0,0-.68.6,2.06,2.06,0,0,0-.26,1.08v2.91c0,.28,0,.53,0,.75s0,.41,0,.56,0,.29,0,.4l.72.17,0,.42Z" transform="translate(-6.57 -1.15)"/><path class="cls-1" d="M68.09,21.85l0-.43.7-.16q0-.09,0-.36c0-.17,0-.4,0-.67s0-.58,0-.92V17.15c0-.27,0-.53,0-.78s0-.45,0-.63,0-.32,0-.4l-.8-.1,0-.39,1.7-.46.24.16,0,.89c0,.3,0,.63,0,1s0,.8,0,1.32v1.67c0,.46,0,.86,0,1.2a4.61,4.61,0,0,0,0,.64l.69.16,0,.43Z" transform="translate(-6.57 -1.15)"/><path class="cls-1" d="M71.07,21.85l0-.43.69-.16a1.78,1.78,0,0,0,0-.36c0-.17,0-.4,0-.67s0-.58,0-.92V18c0-.25,0-.52,0-.8s0-.53,0-.78,0-.45,0-.63,0-.32,0-.4l-.79-.1,0-.39,1.7-.46.23.16c0,.3,0,.6,0,.89s0,.63,0,1v3c0,.46,0,.86,0,1.2s0,.56,0,.64l.7.16,0,.43Z" transform="translate(-6.57 -1.15)"/><path class="cls-1" d="M76.48,21.94a2.38,2.38,0,0,1-1.16-.29,2.13,2.13,0,0,1-.81-.82,2.42,2.42,0,0,1-.29-1.22,2.58,2.58,0,0,1,.32-1.32,2.27,2.27,0,0,1,.84-.87,2,2,0,0,1,1.11-.3,1.68,1.68,0,0,1,1.36.57,2.3,2.3,0,0,1,.48,1.53v.22H75.1v-.51h2.42l-.14.18v-.27a1.38,1.38,0,0,0-.26-.9.85.85,0,0,0-.71-.33,1,1,0,0,0-.56.17,1.3,1.3,0,0,0-.42.52,2.14,2.14,0,0,0-.15.86v.16a1.94,1.94,0,0,0,.42,1.32,1.44,1.44,0,0,0,1.12.48,1.6,1.6,0,0,0,.67-.14,2,2,0,0,0,.58-.48l.29.27a2.06,2.06,0,0,1-.79.88A2.11,2.11,0,0,1,76.48,21.94Z" transform="translate(-6.57 -1.15)"/><path class="cls-1" d="M82.81,22l-.2-.14v-.7h0a1.94,1.94,0,0,1-.64.64,1.46,1.46,0,0,1-.7.18,2.07,2.07,0,0,1-1.84-1.08,2.31,2.31,0,0,1-.29-1.17,2.61,2.61,0,0,1,.21-1.06,2.22,2.22,0,0,1,.56-.81,2.37,2.37,0,0,1,1.69-.69,3.41,3.41,0,0,1,.55.05,1.36,1.36,0,0,1,.47.19v-.48c0-.19,0-.39,0-.6s0-.4,0-.56,0-.28,0-.34l-.83-.14,0-.4,1.72-.46.23.16c0,.44,0,.87,0,1.27s0,.83,0,1.26v2.48c0,.37,0,.68,0,.92s0,.43,0,.55l.69.17v.38Zm-1.23-.84A1.08,1.08,0,0,0,82.1,21a1.33,1.33,0,0,0,.49-.44V18.23a1,1,0,0,0-.46-.44,1.25,1.25,0,0,0-.55-.14,1.16,1.16,0,0,0-1,.48,1.94,1.94,0,0,0-.37,1.25,2,2,0,0,0,.39,1.29A1.2,1.2,0,0,0,81.58,21.13Z" transform="translate(-6.57 -1.15)"/><path class="cls-1" d="M89,21.9l-1.79-4.11-.5-.17,0-.42h2.18l0,.42-.54.17,1.28,3.06h-.33l1.37-3.13.32.67-1.65,3.5Zm3.22,0-1.71-4.11-.54-.17,0-.42h2.17l0,.42-.56.17,1.21,3.06H92.5l1.24-3.07-.55-.17,0-.42h1.72l0,.42-.51.17-1.9,4.11Z" transform="translate(-6.57 -1.15)"/><path class="cls-1" d="M95.2,21.85l0-.43.72-.16a.54.54,0,0,0,0-.17c0-.08,0-.2,0-.35s0-.35,0-.6v-.76c0-.26,0-.49,0-.71a3.84,3.84,0,0,0-.06-.56L95.13,18v-.39l1.68-.43.2.17c0,.22,0,.44-.05.66s0,.47,0,.76v1.35c0,.3,0,.56,0,.77a3.34,3.34,0,0,0,0,.41l.72.16,0,.43ZM96.45,16a.72.72,0,0,1-.53-.21.7.7,0,0,1,0-1,.72.72,0,0,1,.53-.21.67.67,0,0,1,.52.21.72.72,0,0,1,0,1A.67.67,0,0,1,96.45,16Z" transform="translate(-6.57 -1.15)"/><path class="cls-1" d="M101.72,21.11a1.46,1.46,0,0,1-.57.61,1.54,1.54,0,0,1-.81.22,1.65,1.65,0,0,1-1.12-.4,1.6,1.6,0,0,1-.44-1.23l0-2.52h-.76v-.26l1.52-1.32h.26l0,1.32v2.63a1.11,1.11,0,0,0,.23.76.91.91,0,0,0,.67.25,1.08,1.08,0,0,0,.43-.1,1.31,1.31,0,0,0,.37-.24Zm-2.37-3.32v-.58h2.05v.58Z" transform="translate(-6.57 -1.15)"/><path class="cls-1" d="M101.94,21.85l0-.42.66-.17a2,2,0,0,0,0-.36c0-.18,0-.4,0-.67s0-.58,0-.92V18c0-.24,0-.5,0-.76s0-.53,0-.78,0-.48,0-.67,0-.33,0-.41l-.8-.1,0-.39,1.68-.46.23.16c0,.22,0,.44,0,.66s0,.45,0,.7,0,.54,0,.86,0,.7,0,1.13h0a2.61,2.61,0,0,1,.73-.6,1.73,1.73,0,0,1,.81-.19,1.51,1.51,0,0,1,.77.21,1.46,1.46,0,0,1,.57.63,2.22,2.22,0,0,1,.22,1.06v1.14c0,.25,0,.47,0,.68a2.4,2.4,0,0,0,0,.42l.66.17,0,.42h-2.33l0-.42.62-.17a1.3,1.3,0,0,0,0-.23,3.32,3.32,0,0,0,0-.35V19.13a1.47,1.47,0,0,0-.14-.71.92.92,0,0,0-.38-.4,1,1,0,0,0-.5-.13,1.34,1.34,0,0,0-.61.15,1.47,1.47,0,0,0-.49.44v1.6c0,.32,0,.58,0,.78a1.76,1.76,0,0,0,0,.4l.66.17,0,.42Z" transform="translate(-6.57 -1.15)"/><path class="cls-1" d="M112.45,21.94a2.35,2.35,0,0,1-1.16-.29,2,2,0,0,1-.81-.82,2.42,2.42,0,0,1-.3-1.22,2.69,2.69,0,0,1,.32-1.32,2.42,2.42,0,0,1,.84-.87,2,2,0,0,1,1.12-.3,1.69,1.69,0,0,1,1.36.57,2.35,2.35,0,0,1,.47,1.53v.22h-3.23v-.51h2.43l-.14.18v-.27a1.44,1.44,0,0,0-.26-.9.88.88,0,0,0-.72-.33,1,1,0,0,0-.55.17,1.16,1.16,0,0,0-.42.52,2.13,2.13,0,0,0-.16.86v.16a1.89,1.89,0,0,0,.43,1.32,1.4,1.4,0,0,0,1.11.48,1.6,1.6,0,0,0,.67-.14,2.08,2.08,0,0,0,.59-.48l.29.27a2,2,0,0,1-1.88,1.17Z" transform="translate(-6.57 -1.15)"/><path class="cls-1" d="M115,21.85l0-.42.66-.17a1.25,1.25,0,0,0,0-.19c0-.09,0-.21,0-.36s0-.34,0-.57v-.82q0-.34,0-.66c0-.21,0-.4-.07-.55l-.69-.15v-.39l1.6-.43.21.18-.05.58h0a2.48,2.48,0,0,1,.73-.6,1.8,1.8,0,0,1,.82-.19,1.42,1.42,0,0,1,.77.21,1.38,1.38,0,0,1,.57.62,2.21,2.21,0,0,1,.22,1.05v1.16c0,.25,0,.48,0,.69a1.89,1.89,0,0,0,0,.41l.66.17,0,.42h-2.33l0-.42.62-.17a1.3,1.3,0,0,0,0-.23,3.32,3.32,0,0,0,0-.35V19.13a1.48,1.48,0,0,0-.15-.72.92.92,0,0,0-.38-.4,1,1,0,0,0-.49-.12,1.28,1.28,0,0,0-.61.15,1.47,1.47,0,0,0-.49.44v1.6c0,.31,0,.57,0,.77a2.91,2.91,0,0,0,0,.41l.67.17,0,.42Z" transform="translate(-6.57 -1.15)"/><path class="cls-1" d="M124.8,22l-.2-.14v-.7h0a2,2,0,0,1-.64.64,1.5,1.5,0,0,1-.71.18,2.07,2.07,0,0,1-1.84-1.08,2.3,2.3,0,0,1-.28-1.17,2.6,2.6,0,0,1,.2-1.06,2.35,2.35,0,0,1,.56-.81,2.37,2.37,0,0,1,1.7-.69,3.39,3.39,0,0,1,.54.05,1.5,1.5,0,0,1,.48.19c0-.13,0-.29,0-.48s0-.39,0-.6,0-.4,0-.56a2.22,2.22,0,0,0,0-.34l-.82-.14,0-.4,1.72-.46.23.16c0,.44,0,.87,0,1.27s0,.83,0,1.26l0,2.48c0,.37,0,.68,0,.92s0,.43.05.55l.69.17v.38Zm-1.22-.84a1.07,1.07,0,0,0,.51-.13,1.43,1.43,0,0,0,.5-.44V18.23a1.1,1.1,0,0,0-.47-.44,1.21,1.21,0,0,0-.54-.14,1.17,1.17,0,0,0-1,.48,1.94,1.94,0,0,0-.37,1.25,1.9,1.9,0,0,0,.4,1.29A1.2,1.2,0,0,0,123.58,21.13Z" transform="translate(-6.57 -1.15)"/><path class="cls-1" d="M126.81,21.85l0-.43.7-.16q0-.09,0-.36c0-.17,0-.4,0-.67s0-.58,0-.92V18c0-.25,0-.52,0-.8s0-.53,0-.78,0-.45,0-.63,0-.32,0-.4l-.8-.1,0-.39,1.7-.46.23.16c0,.3,0,.6,0,.89s0,.63,0,1,0,.8,0,1.32v1.67c0,.46,0,.86,0,1.2s0,.56,0,.64l.7.16,0,.43Z" transform="translate(-6.57 -1.15)"/><path class="cls-1" d="M132.22,21.94a2.38,2.38,0,0,1-1.16-.29,2.13,2.13,0,0,1-.81-.82,2.53,2.53,0,0,1-.29-1.22,2.58,2.58,0,0,1,.32-1.32,2.27,2.27,0,0,1,.84-.87,2,2,0,0,1,1.11-.3,1.68,1.68,0,0,1,1.36.57,2.3,2.3,0,0,1,.48,1.53v.22h-3.23v-.51h2.43l-.14.18v-.27a1.38,1.38,0,0,0-.27-.9.85.85,0,0,0-.71-.33,1,1,0,0,0-.55.17,1.16,1.16,0,0,0-.42.52,2,2,0,0,0-.16.86v.16a1.89,1.89,0,0,0,.43,1.32,1.4,1.4,0,0,0,1.11.48,1.6,1.6,0,0,0,.67-.14,1.92,1.92,0,0,0,.58-.48l.29.27a2.06,2.06,0,0,1-.79.88A2.09,2.09,0,0,1,132.22,21.94Z" transform="translate(-6.57 -1.15)"/><path class="cls-1" d="M136.54,21.94a3.88,3.88,0,0,1-.82-.09,2.38,2.38,0,0,1-.7-.26L135,20.41h.58l.23.78a1.53,1.53,0,0,0,.85.24.89.89,0,0,0,.56-.16.51.51,0,0,0,.21-.44.67.67,0,0,0-.2-.47,2.53,2.53,0,0,0-.79-.43,3.39,3.39,0,0,1-1.08-.63,1.13,1.13,0,0,1-.31-.82,1.08,1.08,0,0,1,.24-.7,1.66,1.66,0,0,1,.68-.49,2.59,2.59,0,0,1,1-.17,3.35,3.35,0,0,1,.63.05,2.51,2.51,0,0,1,.54.16l.12,1.15h-.56l-.25-.74a.78.78,0,0,0-.26-.1,1.06,1.06,0,0,0-.31,0,.93.93,0,0,0-.58.17.51.51,0,0,0-.22.43.6.6,0,0,0,.24.49,6,6,0,0,0,.87.47,2.82,2.82,0,0,1,1,.62,1.15,1.15,0,0,1,.28.78,1.17,1.17,0,0,1-.53,1A2.3,2.3,0,0,1,136.54,21.94Z" transform="translate(-6.57 -1.15)"/><path class="cls-1" d="M140.89,21.94a3.88,3.88,0,0,1-.82-.09,2.49,2.49,0,0,1-.7-.26l-.06-1.18h.58l.23.78a1.53,1.53,0,0,0,.85.24.89.89,0,0,0,.56-.16.51.51,0,0,0,.21-.44.63.63,0,0,0-.2-.47,2.53,2.53,0,0,0-.79-.43,3.39,3.39,0,0,1-1.08-.63,1.13,1.13,0,0,1-.31-.82,1.08,1.08,0,0,1,.24-.7,1.66,1.66,0,0,1,.68-.49,2.59,2.59,0,0,1,1-.17,3.35,3.35,0,0,1,.63.05,2.51,2.51,0,0,1,.54.16l.12,1.15H142l-.25-.74a.82.82,0,0,0-.25-.1,1.17,1.17,0,0,0-.32,0,1,1,0,0,0-.58.17.51.51,0,0,0-.22.43.6.6,0,0,0,.24.49,5.72,5.72,0,0,0,.88.47,2.86,2.86,0,0,1,1,.62,1.15,1.15,0,0,1,.28.78,1.17,1.17,0,0,1-.53,1A2.3,2.3,0,0,1,140.89,21.94Z" transform="translate(-6.57 -1.15)"/><path class="cls-1" d="M145.48,21.85l0-.43.7-.16q0-.09,0-.36c0-.17,0-.4,0-.67s0-.58,0-.92V18c0-.25,0-.52,0-.8s0-.53,0-.78,0-.45,0-.63,0-.32,0-.4l-.8-.1,0-.39,1.7-.46.23.16c0,.3,0,.6,0,.89s0,.63,0,1,0,.8,0,1.32v1.67c0,.46,0,.86,0,1.2s0,.56,0,.64l.7.16,0,.43Z" transform="translate(-6.57 -1.15)"/><path class="cls-1" d="M151,21.94a2.49,2.49,0,0,1-1.25-.3,2.06,2.06,0,0,1-.83-.85,2.5,2.5,0,0,1-.3-1.24,2.43,2.43,0,0,1,.33-1.29,2.32,2.32,0,0,1,.89-.84,2.46,2.46,0,0,1,1.2-.3,2.35,2.35,0,0,1,1.2.3,2,2,0,0,1,.79.83,2.58,2.58,0,0,1,.28,1.24,2.46,2.46,0,0,1-.31,1.24,2.34,2.34,0,0,1-.83.88A2.15,2.15,0,0,1,151,21.94Zm.11-.56a.88.88,0,0,0,.57-.2,1.37,1.37,0,0,0,.38-.58,2.65,2.65,0,0,0,.13-.87,2.78,2.78,0,0,0-.35-1.5,1,1,0,0,0-.94-.58,1,1,0,0,0-.83.46,2.16,2.16,0,0,0-.31,1.23,2.89,2.89,0,0,0,.17,1.05,1.67,1.67,0,0,0,.48.73A1.08,1.08,0,0,0,151.11,21.38Z" transform="translate(-6.57 -1.15)"/><path class="cls-1" d="M156.09,21.9l-1.92-4.11-.5-.17,0-.42H156l0,.42-.67.17,1.4,3.06h-.3l1.29-3.07-.67-.17,0-.42h1.83l0,.42-.51.17-2,4.11Z" transform="translate(-6.57 -1.15)"/><path class="cls-1" d="M161.47,21.94a2.4,2.4,0,0,1-1.16-.29,2.13,2.13,0,0,1-.81-.82,2.53,2.53,0,0,1-.29-1.22,2.69,2.69,0,0,1,.32-1.32,2.34,2.34,0,0,1,.84-.87,2,2,0,0,1,1.12-.3,1.65,1.65,0,0,1,1.35.57,2.3,2.3,0,0,1,.48,1.53v.22h-3.23v-.51h2.43l-.14.18v-.27a1.38,1.38,0,0,0-.27-.9.85.85,0,0,0-.71-.33,1,1,0,0,0-.55.17,1.16,1.16,0,0,0-.42.52,2,2,0,0,0-.16.86v.16a1.89,1.89,0,0,0,.43,1.32,1.4,1.4,0,0,0,1.11.48,1.6,1.6,0,0,0,.67-.14,1.92,1.92,0,0,0,.58-.48l.29.27a2.11,2.11,0,0,1-.78.88A2.15,2.15,0,0,1,161.47,21.94Z" transform="translate(-6.57 -1.15)"/><path class="cls-1" d="M164.12,23.86l-.17-.35a2.12,2.12,0,0,0,.73-.5,1,1,0,0,0,.24-.65.57.57,0,0,0-.07-.31.79.79,0,0,0-.17-.2l-.2-.18a1,1,0,0,1-.18-.23.73.73,0,0,1-.06-.32.62.62,0,0,1,.21-.48.72.72,0,0,1,.53-.19.79.79,0,0,1,.72.47,1.42,1.42,0,0,1,.11.63,2.35,2.35,0,0,1-.19.93,2.68,2.68,0,0,1-.58.81A2.86,2.86,0,0,1,164.12,23.86Z" transform="translate(-6.57 -1.15)"/><path class="cls-1" d="M172.51,22l-.21-.14v-.7h0a1.94,1.94,0,0,1-.64.64,1.46,1.46,0,0,1-.7.18,2.07,2.07,0,0,1-1.84-1.08,2.31,2.31,0,0,1-.29-1.17,2.61,2.61,0,0,1,.21-1.06,2.33,2.33,0,0,1,.55-.81,2.56,2.56,0,0,1,.8-.52,2.32,2.32,0,0,1,.9-.17,3.51,3.51,0,0,1,.55.05,1.44,1.44,0,0,1,.47.19v-.48c0-.19,0-.39,0-.6s0-.4,0-.56a2.75,2.75,0,0,0,0-.34l-.83-.14,0-.4,1.72-.46.22.16c0,.44,0,.87,0,1.27s0,.83,0,1.26v2.48c0,.37,0,.68,0,.92s0,.43.05.55l.68.17v.38Zm-1.23-.84a1.11,1.11,0,0,0,.52-.13,1.41,1.41,0,0,0,.49-.44V18.23a1,1,0,0,0-.46-.44,1.28,1.28,0,0,0-.55-.14,1.19,1.19,0,0,0-1,.48,2,2,0,0,0-.36,1.25,2,2,0,0,0,.39,1.29A1.2,1.2,0,0,0,171.28,21.13Z" transform="translate(-6.57 -1.15)"/><path class="cls-1" d="M177,21.94a2.38,2.38,0,0,1-1.16-.29,2.13,2.13,0,0,1-.81-.82,2.53,2.53,0,0,1-.29-1.22,2.69,2.69,0,0,1,.32-1.32,2.27,2.27,0,0,1,.84-.87,2,2,0,0,1,1.12-.3,1.65,1.65,0,0,1,1.35.57,2.3,2.3,0,0,1,.48,1.53v.22h-3.23v-.51H178l-.14.18v-.27a1.38,1.38,0,0,0-.27-.9.85.85,0,0,0-.71-.33,1,1,0,0,0-.55.17,1.16,1.16,0,0,0-.42.52,2,2,0,0,0-.16.86v.16a1.89,1.89,0,0,0,.43,1.32,1.4,1.4,0,0,0,1.11.48A1.6,1.6,0,0,0,178,21a1.92,1.92,0,0,0,.58-.48l.29.27a2.11,2.11,0,0,1-.78.88A2.15,2.15,0,0,1,177,21.94Z" transform="translate(-6.57 -1.15)"/><path class="cls-1" d="M181.87,21.94a2.38,2.38,0,0,1-1.16-.29,2.13,2.13,0,0,1-.81-.82,2.53,2.53,0,0,1-.29-1.22,2.69,2.69,0,0,1,.32-1.32,2.27,2.27,0,0,1,.84-.87,2,2,0,0,1,1.11-.3,1.66,1.66,0,0,1,1.36.57,2.3,2.3,0,0,1,.48,1.53v.22h-3.23v-.51h2.43l-.14.18v-.27a1.38,1.38,0,0,0-.27-.9.85.85,0,0,0-.71-.33,1,1,0,0,0-.55.17,1.16,1.16,0,0,0-.42.52,2,2,0,0,0-.16.86v.16a1.89,1.89,0,0,0,.43,1.32,1.4,1.4,0,0,0,1.11.48,1.6,1.6,0,0,0,.67-.14,1.92,1.92,0,0,0,.58-.48l.29.27a2.11,2.11,0,0,1-.78.88A2.15,2.15,0,0,1,181.87,21.94Z" transform="translate(-6.57 -1.15)"/><path class="cls-1" d="M184.37,24.22l0-.42.67-.17a1.72,1.72,0,0,1,0-.2c0-.1,0-.23,0-.39s0-.34,0-.55,0-.46,0-.73l0-2.49c0-.21,0-.42,0-.62s0-.39-.07-.54l-.69-.15v-.39l1.59-.43.22.18-.07.6h0a2.31,2.31,0,0,1,.66-.6,1.56,1.56,0,0,1,.79-.21,1.89,1.89,0,0,1,1,.28,2,2,0,0,1,.72.79,2.54,2.54,0,0,1,.27,1.19,2.57,2.57,0,0,1-.32,1.29,2.38,2.38,0,0,1-.89.92,2.43,2.43,0,0,1-1.3.34,2.8,2.8,0,0,1-.48-.05,2.68,2.68,0,0,1-.47-.12v.77c0,.26,0,.49,0,.69s0,.33,0,.41l.88.15,0,.44ZM187,21.33a1.25,1.25,0,0,0,.7-.2,1.23,1.23,0,0,0,.48-.57,2.29,2.29,0,0,0,.19-.93,2.14,2.14,0,0,0-.17-.91,1.35,1.35,0,0,0-.46-.58,1.13,1.13,0,0,0-.67-.21,1.26,1.26,0,0,0-.57.14,1.64,1.64,0,0,0-.48.41V21a1.88,1.88,0,0,0,.45.22A2,2,0,0,0,187,21.33Z" transform="translate(-6.57 -1.15)"/><path class="cls-1" d="M197.07,21l.69.17v.38l-1.53.39-.2-.14v-.7h0a1.87,1.87,0,0,1-.65.64,1.5,1.5,0,0,1-.71.18,1.69,1.69,0,0,1-1.23-.46,1.8,1.8,0,0,1-.48-1.37v-.92c0-.17,0-.35,0-.53s0-.36,0-.55l-.73-.15v-.39l1.63-.43.22.18c0,.21,0,.46,0,.72s0,.55,0,.84V20a1.2,1.2,0,0,0,.29.91,1.07,1.07,0,0,0,.76.27,1.14,1.14,0,0,0,.54-.14,1.3,1.3,0,0,0,.48-.48V18.88c0-.14,0-.28,0-.42s0-.25,0-.35l-.79-.15v-.39l1.66-.43.2.16c0,.18,0,.35,0,.5s0,.32,0,.49v1.35c0,.32,0,.6,0,.84S197.06,20.9,197.07,21Z" transform="translate(-6.57 -1.15)"/><path class="cls-1" d="M198.27,21.85l0-.42.67-.17a.71.71,0,0,0,0-.19,3.21,3.21,0,0,0,0-.36c0-.15,0-.34,0-.57l0-.82q0-.34,0-.66c0-.21,0-.4-.07-.55l-.69-.15v-.39l1.59-.43.22.18-.06.58h0a2.64,2.64,0,0,1,.74-.6,1.73,1.73,0,0,1,.81-.19,1.37,1.37,0,0,1,.77.21,1.46,1.46,0,0,1,.58.62,2.21,2.21,0,0,1,.22,1.05v1.16c0,.25,0,.48,0,.69a2.14,2.14,0,0,0,0,.41l.67.17,0,.42h-2.33l0-.42.63-.17c0-.06,0-.13,0-.23s0-.21,0-.35,0-.29,0-.47V19.13a1.48,1.48,0,0,0-.15-.72,1,1,0,0,0-.38-.4,1.07,1.07,0,0,0-.49-.12,1.32,1.32,0,0,0-.62.15,1.57,1.57,0,0,0-.49.44v1.6c0,.31,0,.57,0,.77a1.89,1.89,0,0,0,.05.41l.66.17,0,.42Z" transform="translate(-6.57 -1.15)"/><path class="cls-1" d="M208.11,22l-.21-.14v-.7h0a1.94,1.94,0,0,1-.64.64,1.46,1.46,0,0,1-.7.18,2.07,2.07,0,0,1-1.84-1.08,2.31,2.31,0,0,1-.29-1.17,2.61,2.61,0,0,1,.21-1.06,2.33,2.33,0,0,1,.55-.81,2.56,2.56,0,0,1,.8-.52,2.32,2.32,0,0,1,.9-.17,3.51,3.51,0,0,1,.55.05,1.44,1.44,0,0,1,.47.19v-.48c0-.19,0-.39,0-.6s0-.4,0-.56a2.75,2.75,0,0,0,0-.34l-.83-.14,0-.4,1.72-.46.22.16c0,.44,0,.87,0,1.27s0,.83,0,1.26v2.48c0,.37,0,.68,0,.92s0,.43.05.55l.68.17v.38Zm-1.23-.84a1.11,1.11,0,0,0,.52-.13,1.41,1.41,0,0,0,.49-.44V18.23a1,1,0,0,0-.46-.44,1.28,1.28,0,0,0-.55-.14,1.19,1.19,0,0,0-1,.48,2,2,0,0,0-.36,1.25,2,2,0,0,0,.39,1.29A1.2,1.2,0,0,0,206.88,21.13Z" transform="translate(-6.57 -1.15)"/><path class="cls-1" d="M212.55,21.94a2.38,2.38,0,0,1-1.16-.29,2.13,2.13,0,0,1-.81-.82,2.53,2.53,0,0,1-.29-1.22,2.58,2.58,0,0,1,.32-1.32,2.27,2.27,0,0,1,.84-.87,2,2,0,0,1,1.11-.3,1.68,1.68,0,0,1,1.36.57,2.3,2.3,0,0,1,.48,1.53v.22h-3.23v-.51h2.43l-.14.18v-.27a1.38,1.38,0,0,0-.27-.9.85.85,0,0,0-.71-.33,1,1,0,0,0-.55.17,1.16,1.16,0,0,0-.42.52,2,2,0,0,0-.16.86v.16a1.89,1.89,0,0,0,.43,1.32,1.4,1.4,0,0,0,1.11.48,1.6,1.6,0,0,0,.67-.14,1.92,1.92,0,0,0,.58-.48l.29.27a2.06,2.06,0,0,1-.79.88A2.09,2.09,0,0,1,212.55,21.94Z" transform="translate(-6.57 -1.15)"/><path class="cls-1" d="M215.08,21.85l0-.42.66-.17a.62.62,0,0,0,0-.18c0-.09,0-.22,0-.38s0-.34,0-.56v-.82c0-.24,0-.46,0-.67s0-.39-.07-.54L215,18v-.39l1.58-.43.19.16,0,.88h0a2.29,2.29,0,0,1,.64-.83,1.18,1.18,0,0,1,.64-.21.72.72,0,0,1,.44.13.5.5,0,0,1,.19.42.54.54,0,0,1-.2.43.76.76,0,0,1-.48.15.9.9,0,0,1-.4-.09,1.36,1.36,0,0,1-.36-.26l.21.06a1.59,1.59,0,0,0-.35.34,2.4,2.4,0,0,0-.32.53l0,.94c0,.21,0,.41,0,.61s0,.37,0,.52,0,.26,0,.33l.93.15,0,.44Z" transform="translate(-6.57 -1.15)"/><path class="cls-1" d="M219.69,20.06v-.85l2.38-.33v.86Z" transform="translate(-6.57 -1.15)"/><path class="cls-1" d="M18.47,35.14a3.81,3.81,0,0,1-.82-.09,2.56,2.56,0,0,1-.71-.26l-.05-1.18h.58l.23.78a1.53,1.53,0,0,0,.84.24.9.9,0,0,0,.57-.16.51.51,0,0,0,.21-.44.67.67,0,0,0-.2-.47,2.66,2.66,0,0,0-.79-.43,3.35,3.35,0,0,1-1.09-.63,1.18,1.18,0,0,1-.31-.82,1.06,1.06,0,0,1,.25-.7,1.6,1.6,0,0,1,.68-.49,2.75,2.75,0,0,1,1-.17,2.79,2.79,0,0,1,.63.06,2.33,2.33,0,0,1,.54.15l.11,1.15h-.55l-.25-.74a.88.88,0,0,0-.26-.1,1.06,1.06,0,0,0-.31,0,1,1,0,0,0-.59.17.54.54,0,0,0-.22.43.61.61,0,0,0,.25.49,6,6,0,0,0,.87.47,2.86,2.86,0,0,1,1,.62,1.16,1.16,0,0,1,.29.78,1.2,1.2,0,0,1-.53,1A2.32,2.32,0,0,1,18.47,35.14Z" transform="translate(-6.57 -1.15)"/><path class="cls-1" d="M24.53,34.31a1.46,1.46,0,0,1-.57.61,1.54,1.54,0,0,1-.81.22,1.65,1.65,0,0,1-1.12-.4,1.6,1.6,0,0,1-.44-1.23l0-2.52h-.76v-.26l1.52-1.32h.26l0,1.32,0,2.63a1.07,1.07,0,0,0,.24.76.87.87,0,0,0,.66.25,1.08,1.08,0,0,0,.43-.1,1.31,1.31,0,0,0,.37-.24ZM22.16,31v-.58h2.06V31Z" transform="translate(-6.57 -1.15)"/><path class="cls-1" d="M26.47,35.14a1.57,1.57,0,0,1-.79-.19,1.36,1.36,0,0,1-.53-.47,1,1,0,0,1-.18-.56.89.89,0,0,1,.23-.61A1.9,1.9,0,0,1,26,32.9l1.65-.53v-.5a.75.75,0,0,0-.15-.46,1.17,1.17,0,0,0-.42-.34,1.2,1.2,0,0,0-.57-.13.42.42,0,0,0-.33.1.77.77,0,0,0-.11.4L26,32a1.26,1.26,0,0,1-.73,0,.43.43,0,0,1-.29-.41.58.58,0,0,1,.18-.38,1.69,1.69,0,0,1,.45-.36,2.89,2.89,0,0,1,.58-.3,2.49,2.49,0,0,1,.59-.16,2,2,0,0,1,1.35.42,1.45,1.45,0,0,1,.51,1.12l0,1.71c0,.15,0,.29,0,.41a1,1,0,0,0,.05.29l.69.13v.37l-.58.23a1.76,1.76,0,0,1-.3.1.75.75,0,0,1-.24,0,.5.5,0,0,1-.49-.39l-.14-.45.18,0a2.85,2.85,0,0,1-.67.61A1.26,1.26,0,0,1,26.47,35.14Zm.38-.74a.86.86,0,0,0,.41-.1,1.18,1.18,0,0,0,.36-.29V32.9l-1.05.26a.72.72,0,0,0-.37.2.51.51,0,0,0-.12.35.65.65,0,0,0,.23.48A.76.76,0,0,0,26.85,34.4Z" transform="translate(-6.57 -1.15)"/><path class="cls-1" d="M29.86,35.05l0-.42.67-.17a1.83,1.83,0,0,0,0-.19c0-.09,0-.21,0-.36s0-.34,0-.57v-.82c0-.23,0-.45,0-.66s0-.4-.07-.55l-.69-.15v-.39l1.59-.43.21.18-.05.58h0a2.51,2.51,0,0,1,.74-.6,1.73,1.73,0,0,1,.81-.19,1.37,1.37,0,0,1,.77.21,1.46,1.46,0,0,1,.58.62,2.33,2.33,0,0,1,.22,1.05v1.16c0,.25,0,.48,0,.69a2.14,2.14,0,0,0,0,.41l.67.17,0,.42H33l0-.42.63-.17c0-.06,0-.13,0-.23s0-.21,0-.35,0-.29,0-.47V32.33a1.48,1.48,0,0,0-.15-.72,1,1,0,0,0-.38-.4,1.07,1.07,0,0,0-.49-.12,1.32,1.32,0,0,0-.62.15,1.57,1.57,0,0,0-.49.44v1.6c0,.31,0,.57,0,.77a1.4,1.4,0,0,0,.05.41l.66.17,0,.42Z" transform="translate(-6.57 -1.15)"/><path class="cls-1" d="M39.7,35.17,39.49,35v-.7h0a1.94,1.94,0,0,1-.64.64,1.49,1.49,0,0,1-.7.18,2.1,2.1,0,0,1-1.85-1.08A2.3,2.3,0,0,1,36,32.89a2.78,2.78,0,0,1,.2-1.06,2.49,2.49,0,0,1,.56-.81,2.45,2.45,0,0,1,.8-.52,2.32,2.32,0,0,1,.9-.17,3.51,3.51,0,0,1,.55.05,1.54,1.54,0,0,1,.47.19c0-.13,0-.29,0-.48s0-.39,0-.6,0-.4,0-.56,0-.28,0-.34l-.83-.14,0-.4,1.72-.46.22.16c0,.44,0,.87,0,1.27s0,.83,0,1.26v2.48c0,.37,0,.68,0,.92s0,.43,0,.55l.69.17v.38Zm-1.23-.84A1.14,1.14,0,0,0,39,34.2a1.41,1.41,0,0,0,.49-.44V31.43A1.08,1.08,0,0,0,39,31a1.28,1.28,0,0,0-.55-.14,1.18,1.18,0,0,0-1,.48,2,2,0,0,0-.36,1.25,2,2,0,0,0,.39,1.29A1.2,1.2,0,0,0,38.47,34.33Z" transform="translate(-6.57 -1.15)"/><path class="cls-1" d="M41.69,35.05l0-.43.72-.16a1.3,1.3,0,0,0,0-.17,2.87,2.87,0,0,0,0-.35c0-.15,0-.35,0-.6v-.76c0-.26,0-.49,0-.71a3.84,3.84,0,0,0-.06-.56l-.72-.15v-.39l1.67-.43.21.17c0,.22,0,.44,0,.66s0,.47,0,.76v1.35c0,.3,0,.56,0,.77a2,2,0,0,0,0,.41l.72.16,0,.43ZM43,29.23a.72.72,0,0,1-.53-.21.7.7,0,0,1,0-1,.72.72,0,0,1,.53-.21.69.69,0,0,1,.52.21.72.72,0,0,1,0,1A.69.69,0,0,1,43,29.23Z" transform="translate(-6.57 -1.15)"/><path class="cls-1" d="M44.7,35.05l0-.42.66-.17a1.25,1.25,0,0,0,0-.19c0-.09,0-.21,0-.36s0-.34,0-.57v-.82q0-.35,0-.66c0-.21,0-.4-.07-.55l-.69-.15v-.39l1.59-.43.22.18-.05.58h0a2.48,2.48,0,0,1,.73-.6,1.8,1.8,0,0,1,.82-.19,1.42,1.42,0,0,1,.77.21,1.44,1.44,0,0,1,.57.62,2.21,2.21,0,0,1,.22,1.05v1.16c0,.25,0,.48,0,.69a1.89,1.89,0,0,0,0,.41l.66.17,0,.42H47.87l0-.42.62-.17a1.3,1.3,0,0,0,0-.23,3.32,3.32,0,0,0,0-.35V32.33a1.48,1.48,0,0,0-.15-.72.92.92,0,0,0-.38-.4,1,1,0,0,0-.49-.12,1.28,1.28,0,0,0-.61.15,1.47,1.47,0,0,0-.49.44v1.6c0,.31,0,.57,0,.77a1.89,1.89,0,0,0,.05.41l.67.17,0,.42Z" transform="translate(-6.57 -1.15)"/><path class="cls-1" d="M53,37.5a3.52,3.52,0,0,1-1.63-.32,1,1,0,0,1-.59-.86.91.91,0,0,1,.31-.67,3.63,3.63,0,0,1,1-.59l.43.08a1.53,1.53,0,0,0-.51.46,1,1,0,0,0-.18.56.7.7,0,0,0,.34.62A1.64,1.64,0,0,0,53,37a1.89,1.89,0,0,0,1.08-.29.85.85,0,0,0,.42-.72.55.55,0,0,0-.25-.5,1.73,1.73,0,0,0-.81-.21l-1.21-.1-.14,0a1.18,1.18,0,0,1-.72-.21.61.61,0,0,1-.29-.52.83.83,0,0,1,.3-.59,2.66,2.66,0,0,1,.82-.49l.15.21a1.56,1.56,0,0,0-.26.22A.35.35,0,0,0,52,34a.3.3,0,0,0,.11.23.62.62,0,0,0,.34.11l1.46.15a2.06,2.06,0,0,1,1.15.4,1.06,1.06,0,0,1,.4.87,1.4,1.4,0,0,1-.34.9,2.15,2.15,0,0,1-.9.63A3.49,3.49,0,0,1,53,37.5ZM53,33.74A2.46,2.46,0,0,1,52,33.53a1.73,1.73,0,0,1-.72-.58,1.43,1.43,0,0,1-.25-.84,1.63,1.63,0,0,1,.27-.92,1.83,1.83,0,0,1,.73-.64,2.17,2.17,0,0,1,1-.23,2.21,2.21,0,0,1,1,.22,1.86,1.86,0,0,1,.71.62,1.66,1.66,0,0,1,0,1.75,1.76,1.76,0,0,1-.71.61A2.25,2.25,0,0,1,53,33.74Zm.06-.49a.8.8,0,0,0,.65-.31A1.42,1.42,0,0,0,54,32.1a1.55,1.55,0,0,0-.26-1A.81.81,0,0,0,53,30.8a.77.77,0,0,0-.66.33,1.42,1.42,0,0,0-.26.88,1.39,1.39,0,0,0,.27.89A.87.87,0,0,0,53.09,33.25Zm2.56-2.09-1.35-.1-.4-.45,1.75-.19Z" transform="translate(-6.57 -1.15)"/><path class="cls-1" d="M56.13,37.06,56,36.71a2,2,0,0,0,.73-.5,1,1,0,0,0,.25-.65.68.68,0,0,0-.07-.31,1.12,1.12,0,0,0-.18-.2l-.2-.18a.76.76,0,0,1-.17-.23.61.61,0,0,1-.07-.32.66.66,0,0,1,.21-.48.75.75,0,0,1,.53-.19.73.73,0,0,1,.4.11.71.71,0,0,1,.32.36,1.41,1.41,0,0,1,.12.63,2.32,2.32,0,0,1-.2.93,2.52,2.52,0,0,1-.58.81A2.86,2.86,0,0,1,56.13,37.06Z" transform="translate(-6.57 -1.15)"/><path class="cls-1" d="M62.48,35.14a1.6,1.6,0,0,1-.8-.19,1.32,1.32,0,0,1-.52-.47,1,1,0,0,1-.18-.56.84.84,0,0,1,.23-.61A1.85,1.85,0,0,1,62,32.9l1.66-.53v-.5a.7.7,0,0,0-.16-.46,1.06,1.06,0,0,0-.41-.34,1.2,1.2,0,0,0-.57-.13c-.17,0-.28,0-.33.1a.68.68,0,0,0-.11.4L62,32a1.26,1.26,0,0,1-.73,0,.41.41,0,0,1-.29-.41.61.61,0,0,1,.17-.38,1.94,1.94,0,0,1,.46-.36,2.89,2.89,0,0,1,.58-.3,2.37,2.37,0,0,1,.59-.16,2,2,0,0,1,1.35.42,1.45,1.45,0,0,1,.51,1.12l0,1.71c0,.15,0,.29,0,.41a2.77,2.77,0,0,0,0,.29l.7.13v.37l-.58.23-.3.1a.81.81,0,0,1-.25,0,.49.49,0,0,1-.48-.39l-.14-.45.18,0a3.06,3.06,0,0,1-.67.61A1.28,1.28,0,0,1,62.48,35.14Zm.38-.74a.82.82,0,0,0,.4-.1,1.21,1.21,0,0,0,.37-.29V32.9l-1.05.26a.68.68,0,0,0-.37.2.51.51,0,0,0-.12.35.65.65,0,0,0,.23.48A.76.76,0,0,0,62.86,34.4Z" transform="translate(-6.57 -1.15)"/><path class="cls-1" d="M65.86,35.05l0-.42.67-.17s0-.1,0-.19,0-.21,0-.36,0-.34,0-.57v-.82q0-.35,0-.66a3.72,3.72,0,0,0-.07-.55l-.68-.15v-.39l1.59-.43.21.18,0,.58h0a2.51,2.51,0,0,1,.74-.6,1.73,1.73,0,0,1,.81-.19,1.4,1.4,0,0,1,.77.21,1.46,1.46,0,0,1,.58.62,2.33,2.33,0,0,1,.22,1.05v1.16c0,.25,0,.48,0,.69a1.53,1.53,0,0,0,0,.41l.67.17,0,.42H69l0-.42.62-.17c0-.06,0-.13,0-.23s0-.21,0-.35,0-.29,0-.47V32.33a1.48,1.48,0,0,0-.15-.72.94.94,0,0,0-.39-.4,1,1,0,0,0-.48-.12,1.29,1.29,0,0,0-.62.15,1.57,1.57,0,0,0-.49.44v1.6c0,.31,0,.57,0,.77a2.14,2.14,0,0,0,0,.41l.67.17,0,.42Z" transform="translate(-6.57 -1.15)"/><path class="cls-1" d="M75.7,35.17,75.5,35v-.7h0a2,2,0,0,1-.64.64,1.5,1.5,0,0,1-.71.18,2.08,2.08,0,0,1-1.08-.29,2.14,2.14,0,0,1-.76-.79A2.3,2.3,0,0,1,72,32.89a2.78,2.78,0,0,1,.2-1.06,2.35,2.35,0,0,1,.56-.81,2.45,2.45,0,0,1,.8-.52,2.32,2.32,0,0,1,.9-.17,3.51,3.51,0,0,1,.55.05,1.54,1.54,0,0,1,.47.19c0-.13,0-.29,0-.48s0-.39,0-.6,0-.4,0-.56,0-.28,0-.34l-.83-.14,0-.4,1.72-.46.22.16c0,.44,0,.87,0,1.27s0,.83,0,1.26v2.48c0,.37,0,.68,0,.92s0,.43,0,.55l.69.17v.38Zm-1.22-.84A1.07,1.07,0,0,0,75,34.2a1.35,1.35,0,0,0,.5-.44V31.43A1.08,1.08,0,0,0,75,31a1.28,1.28,0,0,0-.55-.14,1.17,1.17,0,0,0-1,.48,2,2,0,0,0-.37,1.25,2,2,0,0,0,.4,1.29A1.2,1.2,0,0,0,74.48,34.33Z" transform="translate(-6.57 -1.15)"/><path class="cls-1" d="M80.33,34.76c0-.25,0-.47,0-.68V30.33c0-.28,0-.55,0-.79s0-.46,0-.64,0-.3,0-.37l-.79-.09,0-.39,1.67-.46.24.16,0,.89c0,.3,0,.64,0,1s0,.87,0,1.44h0a2,2,0,0,1,.65-.57,1.61,1.61,0,0,1,.86-.23,1.9,1.9,0,0,1,1.71,1,2.43,2.43,0,0,1,.28,1.19,2.57,2.57,0,0,1-.36,1.35,2.51,2.51,0,0,1-1,.93,2.81,2.81,0,0,1-1.39.34,5,5,0,0,1-1-.1A4.56,4.56,0,0,1,80.33,34.76Zm2-.24a1.24,1.24,0,0,0,1-.46,2,2,0,0,0,.4-1.32,1.6,1.6,0,0,0-.39-1.22,1.35,1.35,0,0,0-1.53-.26,1.41,1.41,0,0,0-.49.39v2.54a1.83,1.83,0,0,0,.46.24A1.7,1.7,0,0,0,82.38,34.52Z" transform="translate(-6.57 -1.15)"/><path class="cls-1" d="M88,35.14a2.35,2.35,0,0,1-1.16-.29A2.13,2.13,0,0,1,86,34a2.42,2.42,0,0,1-.3-1.22A2.59,2.59,0,0,1,86,31.49a2.32,2.32,0,0,1,.83-.87,2,2,0,0,1,1.12-.3,1.68,1.68,0,0,1,1.36.57,2.3,2.3,0,0,1,.48,1.53v.22H86.58v-.51H89l-.14.18V32a1.44,1.44,0,0,0-.26-.9.86.86,0,0,0-.71-.33,1,1,0,0,0-.56.17,1.3,1.3,0,0,0-.42.52,2.14,2.14,0,0,0-.15.86v.16a1.94,1.94,0,0,0,.42,1.32,1.4,1.4,0,0,0,1.11.48,1.57,1.57,0,0,0,.67-.14,2,2,0,0,0,.59-.48l.29.27a2.06,2.06,0,0,1-.79.88A2.14,2.14,0,0,1,88,35.14Z" transform="translate(-6.57 -1.15)"/><path class="cls-1" d="M92.26,35.14a1.6,1.6,0,0,1-.8-.19,1.32,1.32,0,0,1-.52-.47,1,1,0,0,1-.19-.56.85.85,0,0,1,.24-.61,1.85,1.85,0,0,1,.76-.41l1.66-.53v-.5a.76.76,0,0,0-.16-.46,1.06,1.06,0,0,0-.41-.34,1.25,1.25,0,0,0-.57-.13.43.43,0,0,0-.34.1.78.78,0,0,0-.1.4l0,.52a1.23,1.23,0,0,1-.72,0,.42.42,0,0,1-.3-.41.58.58,0,0,1,.18-.38,2.09,2.09,0,0,1,.45-.36,3.27,3.27,0,0,1,.59-.3,2.37,2.37,0,0,1,.59-.16,2.06,2.06,0,0,1,1.35.42,1.45,1.45,0,0,1,.51,1.12l0,1.71c0,.15,0,.29,0,.41a1.41,1.41,0,0,0,0,.29l.7.13v.37L94.6,35l-.3.1a.85.85,0,0,1-.25,0,.48.48,0,0,1-.48-.39l-.14-.45.18,0a2.88,2.88,0,0,1-.68.61A1.23,1.23,0,0,1,92.26,35.14Zm.37-.74a.83.83,0,0,0,.41-.1,1.21,1.21,0,0,0,.37-.29V32.9l-1.06.26a.76.76,0,0,0-.37.2.56.56,0,0,0-.11.35.65.65,0,0,0,.23.48A.74.74,0,0,0,92.63,34.4Z" transform="translate(-6.57 -1.15)"/><path class="cls-1" d="M100.4,34.23l.69.17v.38l-1.54.39L99.36,35v-.7h0a2,2,0,0,1-.65.64,1.54,1.54,0,0,1-.72.18,1.68,1.68,0,0,1-1.22-.46,1.76,1.76,0,0,1-.49-1.37v-.92c0-.17,0-.35,0-.53s0-.36,0-.55l-.73-.15v-.39l1.62-.43.23.18c0,.21,0,.46,0,.72s0,.55,0,.84v1.09a1.24,1.24,0,0,0,.29.91,1.1,1.1,0,0,0,.77.27,1.08,1.08,0,0,0,.53-.14,1.32,1.32,0,0,0,.49-.48V32.54c0-.16,0-.31,0-.46s0-.28,0-.42a1.9,1.9,0,0,0,0-.35l-.78-.15v-.39l1.65-.43.21.16c0,.18,0,.35,0,.5s0,.32,0,.49v1.35q0,.48,0,.84C100.37,33.91,100.38,34.1,100.4,34.23Z" transform="translate(-6.57 -1.15)"/><path class="cls-1" d="M105.1,34.31a1.34,1.34,0,0,1-.57.61,1.51,1.51,0,0,1-.8.22,1.65,1.65,0,0,1-1.12-.4,1.6,1.6,0,0,1-.44-1.23l0-2.52h-.75v-.26L103,29.41h.25l0,1.32v2.63a1.11,1.11,0,0,0,.23.76.9.9,0,0,0,.66.25,1.13,1.13,0,0,0,.44-.1,1.31,1.31,0,0,0,.37-.24ZM102.74,31v-.58h2.05V31Z" transform="translate(-6.57 -1.15)"/><path class="cls-1" d="M105.29,35.05l0-.43.72-.16a.89.89,0,0,0,0-.17c0-.08,0-.2,0-.35s0-.35,0-.6v-.76c0-.26,0-.49,0-.71s0-.41-.07-.56l-.72-.15v-.39l1.68-.43.2.17c0,.22,0,.44,0,.66s0,.47,0,.76v1.35c0,.3,0,.56,0,.77a3.34,3.34,0,0,0,0,.41l.72.16,0,.43Zm1.25-5.82A.72.72,0,0,1,106,29a.7.7,0,0,1,0-1,.72.72,0,0,1,.53-.21.67.67,0,0,1,.52.21.72.72,0,0,1,0,1A.67.67,0,0,1,106.54,29.23Z" transform="translate(-6.57 -1.15)"/><path class="cls-1" d="M108.21,31v-.39l.77-.2h2.17V31Zm2.68,4h-2.55l0-.42.66-.17c0-.08,0-.16,0-.25V29.85a3.07,3.07,0,0,1,.23-1.21,1.92,1.92,0,0,1,.65-.8,1.62,1.62,0,0,1,1-.29,1.42,1.42,0,0,1,.77.2.6.6,0,0,1,.31.51.34.34,0,0,1-.11.28.39.39,0,0,1-.28.1.79.79,0,0,1-.55-.25l-.53-.5.32.06a.61.61,0,0,0-.57.4,2.67,2.67,0,0,0-.2,1.15v3.18c0,.33,0,.66,0,1s0,.59,0,.79l.89.16Z" transform="translate(-6.57 -1.15)"/><path class="cls-1" d="M116.39,34.23l.69.17v.38l-1.53.39-.2-.14v-.7h0a1.87,1.87,0,0,1-.65.64,1.47,1.47,0,0,1-.71.18,1.69,1.69,0,0,1-1.23-.46,1.8,1.8,0,0,1-.48-1.37v-.92c0-.17,0-.35,0-.53s0-.36,0-.55l-.73-.15v-.39l1.63-.43.22.18c0,.21,0,.46,0,.72s0,.55,0,.84v1.09a1.2,1.2,0,0,0,.29.91,1.05,1.05,0,0,0,.76.27,1.14,1.14,0,0,0,.54-.14,1.37,1.37,0,0,0,.48-.48V32.08c0-.14,0-.28,0-.42s0-.24,0-.35l-.79-.15v-.39l1.66-.43.2.16c0,.18,0,.35,0,.5s0,.32,0,.49v1.35c0,.32,0,.6,0,.84S116.38,34.1,116.39,34.23Z" transform="translate(-6.57 -1.15)"/><path class="cls-1" d="M117.55,35.05l0-.43.7-.16a1.37,1.37,0,0,0,0-.36c0-.17,0-.4,0-.67s0-.58,0-.92V31.15c0-.25,0-.52,0-.8s0-.53,0-.78,0-.45,0-.63a3.31,3.31,0,0,0,0-.4l-.79-.1,0-.39,1.69-.46.24.16c0,.3,0,.6,0,.89s0,.63,0,1v3c0,.45,0,.85,0,1.19a4.61,4.61,0,0,0,0,.64l.7.16,0,.43Z" transform="translate(-6.57 -1.15)"/><path class="cls-1" d="M122.65,35.05l0-.42.67-.17a.62.62,0,0,0,0-.18,3.21,3.21,0,0,0,0-.36c0-.15,0-.35,0-.58v-.82c0-.15,0-.3,0-.45a2.86,2.86,0,0,0,0-.42,2.75,2.75,0,0,0,0-.34l-.69-.15v-.39l1.59-.43.22.18-.06.59h0a2.32,2.32,0,0,1,.7-.62,1.72,1.72,0,0,1,.75-.18,1.38,1.38,0,0,1,.75.21,1.48,1.48,0,0,1,.59.62,2.28,2.28,0,0,1,.22,1.08l0,1.13c0,.25,0,.47,0,.68a2.12,2.12,0,0,0,.05.42l.63.17,0,.42h-2.25l0-.42.58-.17a1.3,1.3,0,0,0,0-.23,3.32,3.32,0,0,0,0-.35v-1.6a1.52,1.52,0,0,0-.13-.69.87.87,0,0,0-.35-.38,1,1,0,0,0-.48-.12,1.3,1.3,0,0,0-.58.14,1.39,1.39,0,0,0-.49.45v1.6c0,.3,0,.56,0,.77a1.89,1.89,0,0,0,.05.41l.62.17,0,.42Zm6.13,0,0-.42.59-.17c0-.06,0-.13,0-.23s0-.21,0-.35,0-.29,0-.47V32.32a1.62,1.62,0,0,0-.14-.72,1,1,0,0,0-.38-.39,1,1,0,0,0-.48-.12,1.32,1.32,0,0,0-.62.15,1.46,1.46,0,0,0-.5.49l-.24-.4a2.84,2.84,0,0,1,.8-.76,1.71,1.71,0,0,1,.91-.25,1.66,1.66,0,0,1,.85.22,1.5,1.5,0,0,1,.58.64,2.19,2.19,0,0,1,.21,1v1.19c0,.25,0,.47,0,.68s0,.35,0,.42l.67.17,0,.42Z" transform="translate(-6.57 -1.15)"/><path class="cls-1" d="M134,35.14a2.38,2.38,0,0,1-1.16-.29,2.13,2.13,0,0,1-.81-.82,2.42,2.42,0,0,1-.29-1.22,2.58,2.58,0,0,1,.32-1.32,2.27,2.27,0,0,1,.84-.87,2,2,0,0,1,1.11-.3,1.68,1.68,0,0,1,1.36.57,2.3,2.3,0,0,1,.48,1.53v.22h-3.23v-.51h2.42l-.13.18V32a1.38,1.38,0,0,0-.27-.9.85.85,0,0,0-.71-.33,1,1,0,0,0-.56.17,1.3,1.3,0,0,0-.42.52,2.14,2.14,0,0,0-.15.86v.16a1.94,1.94,0,0,0,.42,1.32,1.44,1.44,0,0,0,1.12.48,1.6,1.6,0,0,0,.67-.14,2,2,0,0,0,.58-.48l.29.27a2.06,2.06,0,0,1-.79.88A2.11,2.11,0,0,1,134,35.14Z" transform="translate(-6.57 -1.15)"/><path class="cls-1" d="M136.55,35.05l0-.42.67-.17a.62.62,0,0,0,0-.18,3.21,3.21,0,0,0,0-.36c0-.15,0-.35,0-.58l0-.82c0-.15,0-.3,0-.45a2.86,2.86,0,0,0,0-.42,2.75,2.75,0,0,0,0-.34l-.69-.15v-.39l1.59-.43.22.18-.06.59h0a2.32,2.32,0,0,1,.7-.62,1.72,1.72,0,0,1,.75-.18,1.38,1.38,0,0,1,.75.21,1.48,1.48,0,0,1,.59.62,2.28,2.28,0,0,1,.22,1.08l0,1.13c0,.25,0,.47,0,.68a2.12,2.12,0,0,0,.05.42l.63.17,0,.42h-2.25l0-.42.58-.17a1.3,1.3,0,0,0,0-.23,3.32,3.32,0,0,0,0-.35v-1.6a1.52,1.52,0,0,0-.13-.69.87.87,0,0,0-.35-.38,1,1,0,0,0-.48-.12,1.3,1.3,0,0,0-.58.14,1.39,1.39,0,0,0-.49.45v1.6c0,.3,0,.56,0,.77a1.89,1.89,0,0,0,.05.41l.62.17,0,.42Zm6.13,0,0-.42.59-.17c0-.06,0-.13,0-.23s0-.21,0-.35,0-.29,0-.47V32.32a1.62,1.62,0,0,0-.14-.72,1,1,0,0,0-.38-.39,1,1,0,0,0-.48-.12,1.32,1.32,0,0,0-.62.15,1.46,1.46,0,0,0-.5.49l-.24-.4a2.84,2.84,0,0,1,.8-.76,1.71,1.71,0,0,1,.91-.25,1.66,1.66,0,0,1,.85.22,1.5,1.5,0,0,1,.58.64,2.19,2.19,0,0,1,.21,1v1.19c0,.25,0,.47,0,.68a2.4,2.4,0,0,0,0,.42l.66.17,0,.42Z" transform="translate(-6.57 -1.15)"/><path class="cls-1" d="M148,35.14a2.49,2.49,0,0,1-1.25-.3A2.06,2.06,0,0,1,146,34a2.5,2.5,0,0,1-.3-1.24,2.43,2.43,0,0,1,.33-1.29,2.32,2.32,0,0,1,.89-.84,2.46,2.46,0,0,1,1.2-.3,2.38,2.38,0,0,1,1.2.3,2,2,0,0,1,.79.83,2.58,2.58,0,0,1,.28,1.24,2.46,2.46,0,0,1-.31,1.24,2.34,2.34,0,0,1-.83.88A2.15,2.15,0,0,1,148,35.14Zm.11-.56a.88.88,0,0,0,.57-.2,1.37,1.37,0,0,0,.38-.58,2.65,2.65,0,0,0,.13-.87,2.78,2.78,0,0,0-.35-1.5,1,1,0,0,0-.94-.58,1,1,0,0,0-.83.46,2.16,2.16,0,0,0-.32,1.23,2.89,2.89,0,0,0,.18,1.05,1.67,1.67,0,0,0,.48.73A1.08,1.08,0,0,0,148.14,34.58Z" transform="translate(-6.57 -1.15)"/><path class="cls-1" d="M151.07,35.05l0-.42.66-.17a1.06,1.06,0,0,0,0-.18c0-.09,0-.22,0-.38s0-.34,0-.56v-.82c0-.24,0-.46,0-.67s0-.39-.07-.54l-.69-.15v-.39l1.58-.43.2.16,0,.88h0a2.18,2.18,0,0,1,.63-.83,1.21,1.21,0,0,1,.64-.21.75.75,0,0,1,.45.13.49.49,0,0,1,.18.42.54.54,0,0,1-.2.43.74.74,0,0,1-.48.15.93.93,0,0,1-.4-.09,1.36,1.36,0,0,1-.36-.26l.21.06a1.59,1.59,0,0,0-.35.34,2.06,2.06,0,0,0-.31.53V33c0,.21,0,.41,0,.61s0,.37,0,.52,0,.26,0,.33l.94.15,0,.44Z" transform="translate(-6.57 -1.15)"/><path class="cls-1" d="M155.08,35.05l0-.43.71-.16a.89.89,0,0,0,0-.17c0-.08,0-.2,0-.35s0-.35,0-.6v-.76c0-.26,0-.49,0-.71s0-.41-.07-.56l-.72-.15v-.39l1.68-.43.2.17c0,.22,0,.44,0,.66s0,.47,0,.76v1.35c0,.3,0,.56,0,.77s0,.35,0,.41l.72.16,0,.43Zm1.25-5.82a.72.72,0,0,1-.53-.21.7.7,0,0,1,0-1,.72.72,0,0,1,.53-.21.71.71,0,1,1,0,1.42Z" transform="translate(-6.57 -1.15)"/><path class="cls-1" d="M160.49,35.14a2.38,2.38,0,0,1-1.16-.29,2.13,2.13,0,0,1-.81-.82,2.42,2.42,0,0,1-.3-1.22,2.59,2.59,0,0,1,.33-1.32,2.32,2.32,0,0,1,.83-.87,2,2,0,0,1,1.12-.3,1.68,1.68,0,0,1,1.36.57,2.3,2.3,0,0,1,.48,1.53v.22h-3.23v-.51h2.42l-.14.18V32a1.38,1.38,0,0,0-.26-.9.85.85,0,0,0-.71-.33,1,1,0,0,0-.56.17,1.3,1.3,0,0,0-.42.52,2.14,2.14,0,0,0-.15.86v.16a1.94,1.94,0,0,0,.42,1.32,1.43,1.43,0,0,0,1.11.48,1.62,1.62,0,0,0,.68-.14,2,2,0,0,0,.58-.48l.29.27a2.06,2.06,0,0,1-.79.88A2.11,2.11,0,0,1,160.49,35.14Z" transform="translate(-6.57 -1.15)"/><path class="cls-1" d="M164.81,35.14a3.81,3.81,0,0,1-.82-.09,2.56,2.56,0,0,1-.71-.26l-.05-1.18h.58l.23.78a1.53,1.53,0,0,0,.84.24.9.9,0,0,0,.57-.16.51.51,0,0,0,.21-.44.67.67,0,0,0-.2-.47,2.66,2.66,0,0,0-.79-.43,3.17,3.17,0,0,1-1.08-.63,1.14,1.14,0,0,1-.32-.82,1.11,1.11,0,0,1,.25-.7,1.66,1.66,0,0,1,.68-.49,3.14,3.14,0,0,1,1.63-.11,2.19,2.19,0,0,1,.54.15l.12,1.15h-.56l-.25-.74a.88.88,0,0,0-.26-.1,1.06,1.06,0,0,0-.31,0,.93.93,0,0,0-.58.17.52.52,0,0,0-.23.43.61.61,0,0,0,.25.49,6,6,0,0,0,.87.47,2.92,2.92,0,0,1,1,.62,1.15,1.15,0,0,1,.28.78,1.2,1.2,0,0,1-.53,1A2.32,2.32,0,0,1,164.81,35.14Z" transform="translate(-6.57 -1.15)"/><path class="cls-1" d="M172.94,34.31a1.46,1.46,0,0,1-.57.61,1.53,1.53,0,0,1-.8.22,1.63,1.63,0,0,1-1.12-.4,1.6,1.6,0,0,1-.44-1.23L170,31h-.75v-.26l1.51-1.32h.26l0,1.32v2.63a1.11,1.11,0,0,0,.23.76.87.87,0,0,0,.66.25,1.13,1.13,0,0,0,.44-.1,1.31,1.31,0,0,0,.37-.24ZM170.58,31v-.58h2V31Z" transform="translate(-6.57 -1.15)"/><path class="cls-1" d="M173.17,35.05l0-.42.67-.17a1.48,1.48,0,0,0,0-.36c0-.18,0-.4,0-.67s0-.58,0-.92V31.16c0-.24,0-.5,0-.76s0-.53,0-.78,0-.48,0-.67a3.52,3.52,0,0,0,0-.41l-.79-.1,0-.39,1.67-.46.24.16c0,.22,0,.44,0,.66s0,.45,0,.7,0,.54,0,.86,0,.7,0,1.13h0a2.36,2.36,0,0,1,.73-.6,1.71,1.71,0,0,1,.8-.19,1.46,1.46,0,0,1,.77.21,1.55,1.55,0,0,1,.58.63,2.22,2.22,0,0,1,.22,1.06v1.14c0,.25,0,.47,0,.68s0,.35,0,.42l.67.17,0,.42h-2.33l0-.42.63-.17c0-.06,0-.13,0-.23s0-.21,0-.35,0-.29,0-.47V32.33a1.6,1.6,0,0,0-.14-.71,1,1,0,0,0-.38-.4,1,1,0,0,0-.5-.13,1.31,1.31,0,0,0-.61.15,1.5,1.5,0,0,0-.5.44v1.6c0,.32,0,.58,0,.78a1.76,1.76,0,0,0,0,.4l.65.17,0,.42Z" transform="translate(-6.57 -1.15)"/><path class="cls-1" d="M181,35.14a1.6,1.6,0,0,1-.8-.19,1.43,1.43,0,0,1-.53-.47,1,1,0,0,1-.18-.56.85.85,0,0,1,.24-.61,1.85,1.85,0,0,1,.76-.41l1.66-.53v-.5a.76.76,0,0,0-.16-.46,1.06,1.06,0,0,0-.41-.34,1.25,1.25,0,0,0-.57-.13.43.43,0,0,0-.34.1.78.78,0,0,0-.1.4l0,.52a1.23,1.23,0,0,1-.72,0,.42.42,0,0,1-.3-.41.58.58,0,0,1,.18-.38,2.09,2.09,0,0,1,.45-.36,3,3,0,0,1,.59-.3,2.37,2.37,0,0,1,.59-.16,2.06,2.06,0,0,1,1.35.42,1.45,1.45,0,0,1,.51,1.12l0,1.71c0,.15,0,.29,0,.41a1.41,1.41,0,0,0,.05.29l.7.13v.37l-.58.23-.3.1a.85.85,0,0,1-.25,0,.48.48,0,0,1-.48-.39l-.14-.45.18,0a3.09,3.09,0,0,1-.68.61A1.23,1.23,0,0,1,181,35.14Zm.37-.74a.83.83,0,0,0,.41-.1,1.21,1.21,0,0,0,.37-.29V32.9l-1.06.26a.76.76,0,0,0-.37.2.56.56,0,0,0-.11.35.64.64,0,0,0,.22.48A.78.78,0,0,0,181.34,34.4Z" transform="translate(-6.57 -1.15)"/><path class="cls-1" d="M187.86,34.31a1.46,1.46,0,0,1-.57.61,1.53,1.53,0,0,1-.8.22,1.63,1.63,0,0,1-1.12-.4,1.6,1.6,0,0,1-.44-1.23L185,31h-.75v-.26l1.51-1.32H186l0,1.32v2.63a1.11,1.11,0,0,0,.23.76.9.9,0,0,0,.66.25,1.13,1.13,0,0,0,.44-.1,1.31,1.31,0,0,0,.37-.24ZM185.5,31v-.58h2.05V31Z" transform="translate(-6.57 -1.15)"/><path class="cls-1" d="M192.38,37.5a3.47,3.47,0,0,1-1.62-.32,1,1,0,0,1-.6-.86.93.93,0,0,1,.32-.67,3.39,3.39,0,0,1,1-.59l.43.08a1.63,1.63,0,0,0-.51.46,1,1,0,0,0-.18.56.72.72,0,0,0,.34.62,1.68,1.68,0,0,0,.93.23,1.86,1.86,0,0,0,1.08-.29A.85.85,0,0,0,194,36a.57.57,0,0,0-.24-.5,1.82,1.82,0,0,0-.82-.21l-1.2-.1-.14,0a1.19,1.19,0,0,1-.73-.21.6.6,0,0,1-.28-.52.83.83,0,0,1,.3-.59,2.6,2.6,0,0,1,.81-.49l.15.21a1.56,1.56,0,0,0-.26.22.35.35,0,0,0-.09.22.28.28,0,0,0,.12.23.62.62,0,0,0,.33.11l1.46.15a2.09,2.09,0,0,1,1.16.4,1.06,1.06,0,0,1,.39.87,1.39,1.39,0,0,1-.33.9,2.25,2.25,0,0,1-.91.63A3.49,3.49,0,0,1,192.38,37.5Zm.08-3.76a2.52,2.52,0,0,1-1.05-.21,1.7,1.7,0,0,1-.71-.58,1.44,1.44,0,0,1-.26-.84,1.63,1.63,0,0,1,.27-.92,1.9,1.9,0,0,1,.73-.64,2.2,2.2,0,0,1,1-.23,2.25,2.25,0,0,1,1,.22,1.83,1.83,0,0,1,.7.62,1.6,1.6,0,0,1,0,1.75,1.69,1.69,0,0,1-.71.61A2.25,2.25,0,0,1,192.46,33.74Zm.06-.49a.79.79,0,0,0,.65-.31,1.35,1.35,0,0,0,.24-.84,1.62,1.62,0,0,0-.26-1,.82.82,0,0,0-.69-.35.8.8,0,0,0-.66.33,1.41,1.41,0,0,0-.25.88,1.39,1.39,0,0,0,.27.89A.84.84,0,0,0,192.52,33.25Zm2.56-2.09-1.34-.1-.41-.45,1.75-.19Z" transform="translate(-6.57 -1.15)"/><path class="cls-1" d="M195.55,35.05l0-.42.67-.17s0-.09,0-.18,0-.22,0-.38,0-.34,0-.56v-.82c0-.24,0-.46,0-.67s0-.39-.07-.54l-.69-.15v-.39l1.58-.43.19.16,0,.88h0a2.18,2.18,0,0,1,.64-.83,1.18,1.18,0,0,1,.64-.21.72.72,0,0,1,.44.13.49.49,0,0,1,.18.42.53.53,0,0,1-.19.43.77.77,0,0,1-.49.15.86.86,0,0,1-.39-.09,1.25,1.25,0,0,1-.37-.26l.22.06a1.62,1.62,0,0,0-.36.34,2.39,2.39,0,0,0-.31.53V33c0,.21,0,.41,0,.61s0,.37,0,.52,0,.26,0,.33l.93.15,0,.44Z" transform="translate(-6.57 -1.15)"/><path class="cls-1" d="M201.88,35.14a2.49,2.49,0,0,1-1.25-.3,2.06,2.06,0,0,1-.83-.85,2.5,2.5,0,0,1-.3-1.24,2.43,2.43,0,0,1,.33-1.29,2.32,2.32,0,0,1,.89-.84,2.46,2.46,0,0,1,1.2-.3,2.35,2.35,0,0,1,1.2.3,2,2,0,0,1,.79.83,2.58,2.58,0,0,1,.28,1.24,2.46,2.46,0,0,1-.31,1.24,2.34,2.34,0,0,1-.83.88A2.15,2.15,0,0,1,201.88,35.14Zm.11-.56a.88.88,0,0,0,.57-.2,1.37,1.37,0,0,0,.38-.58,2.65,2.65,0,0,0,.13-.87,2.78,2.78,0,0,0-.35-1.5,1,1,0,0,0-.94-.58,1,1,0,0,0-.83.46,2.16,2.16,0,0,0-.32,1.23,2.89,2.89,0,0,0,.18,1.05,1.67,1.67,0,0,0,.48.73A1.08,1.08,0,0,0,202,34.58Z" transform="translate(-6.57 -1.15)"/><path class="cls-1" d="M206.92,35.1,205.13,31l-.51-.17,0-.42h2.18l0,.42-.53.17,1.28,3.06h-.34l1.38-3.13.32.67-1.65,3.5Zm3.21,0L208.42,31l-.53-.17,0-.42h2.17l0,.42-.56.17,1.2,3.06h-.28L211.71,31l-.56-.17,0-.42h1.72l0,.42-.5.17-1.9,4.11Z" transform="translate(-6.57 -1.15)"/><path class="cls-1" d="M73.62,48.34a3.81,3.81,0,0,1-.82-.09,2.56,2.56,0,0,1-.71-.26l0-1.18h.58l.23.78a1.53,1.53,0,0,0,.84.24.9.9,0,0,0,.57-.16.52.52,0,0,0,.21-.44.67.67,0,0,0-.2-.47,2.66,2.66,0,0,0-.79-.43,3.35,3.35,0,0,1-1.09-.63,1.18,1.18,0,0,1-.31-.82,1,1,0,0,1,.25-.7,1.6,1.6,0,0,1,.68-.49,2.55,2.55,0,0,1,1-.18,3.52,3.52,0,0,1,.63.06,2.91,2.91,0,0,1,.54.16l.11,1.15h-.55l-.25-.74a.67.67,0,0,0-.26-.1,1.06,1.06,0,0,0-.31,0,1,1,0,0,0-.59.17.54.54,0,0,0-.22.43.61.61,0,0,0,.25.49,6,6,0,0,0,.87.47,2.86,2.86,0,0,1,1,.62,1.16,1.16,0,0,1,.29.78A1.2,1.2,0,0,1,75,48,2.32,2.32,0,0,1,73.62,48.34Z" transform="translate(-6.57 -1.15)"/><path class="cls-1" d="M79.68,47.51a1.46,1.46,0,0,1-.57.61,1.64,1.64,0,0,1-.81.22,1.61,1.61,0,0,1-1.11-.4,1.57,1.57,0,0,1-.45-1.23l0-2.52H76v-.26l1.51-1.32h.26l0,1.32v2.62a1.08,1.08,0,0,0,.23.77.86.86,0,0,0,.66.24,1.07,1.07,0,0,0,.43-.09,1.18,1.18,0,0,0,.37-.24Zm-2.37-3.32v-.58h2.06v.58Z" transform="translate(-6.57 -1.15)"/><path class="cls-1" d="M79.91,48.25l0-.42.67-.17s0-.09,0-.18,0-.22,0-.38,0-.34,0-.56v-.82c0-.24,0-.46,0-.67s0-.39-.07-.54l-.69-.15V44l1.58-.43.19.16,0,.88h0a2.18,2.18,0,0,1,.64-.83,1.18,1.18,0,0,1,.64-.21.72.72,0,0,1,.44.13.48.48,0,0,1,.18.41.5.5,0,0,1-.19.43.72.72,0,0,1-.49.15.85.85,0,0,1-.39-.08,1.25,1.25,0,0,1-.37-.26l.22.05a1.69,1.69,0,0,0-.36.35,2.55,2.55,0,0,0-.31.52v1c0,.21,0,.41,0,.61s0,.37,0,.52,0,.26,0,.33l.93.15,0,.44Z" transform="translate(-6.57 -1.15)"/><path class="cls-1" d="M86.24,48.34A2.49,2.49,0,0,1,85,48a2.06,2.06,0,0,1-.83-.85,2.5,2.5,0,0,1-.3-1.24,2.43,2.43,0,0,1,.33-1.29,2.32,2.32,0,0,1,.89-.84,2.46,2.46,0,0,1,1.2-.31,2.35,2.35,0,0,1,1.2.31,2,2,0,0,1,.79.83,2.58,2.58,0,0,1,.28,1.24,2.46,2.46,0,0,1-.31,1.24,2.34,2.34,0,0,1-.83.88A2.15,2.15,0,0,1,86.24,48.34Zm.11-.56a.88.88,0,0,0,.57-.2A1.37,1.37,0,0,0,87.3,47a2.65,2.65,0,0,0,.13-.87,2.78,2.78,0,0,0-.35-1.5,1,1,0,0,0-.94-.58,1,1,0,0,0-.83.46A2.16,2.16,0,0,0,85,45.74a2.89,2.89,0,0,0,.18,1,1.67,1.67,0,0,0,.48.73A1.08,1.08,0,0,0,86.35,47.78Z" transform="translate(-6.57 -1.15)"/><path class="cls-1" d="M89.27,48.25l0-.42.66-.17a1.25,1.25,0,0,0,0-.19c0-.09,0-.21,0-.36s0-.34,0-.57v-.82q0-.34,0-.66a5.42,5.42,0,0,0-.07-.55l-.69-.15V44l1.59-.43.22.18,0,.58h0a2.48,2.48,0,0,1,.73-.6,1.8,1.8,0,0,1,.81-.2,1.47,1.47,0,0,1,1.35.84,2.19,2.19,0,0,1,.22,1v1.16c0,.26,0,.49,0,.7a1.4,1.4,0,0,0,0,.41l.66.17,0,.42H92.44l0-.42.62-.17c0-.06,0-.13,0-.23s0-.21,0-.35V45.53a1.48,1.48,0,0,0-.15-.72.92.92,0,0,0-.38-.4,1,1,0,0,0-.49-.12,1.25,1.25,0,0,0-.61.15,1.47,1.47,0,0,0-.49.44v1.6c0,.31,0,.56,0,.77a1.89,1.89,0,0,0,0,.41l.67.17,0,.42Z" transform="translate(-6.57 -1.15)"/><path class="cls-1" d="M97.52,50.7a3.52,3.52,0,0,1-1.63-.32,1,1,0,0,1-.59-.86.91.91,0,0,1,.31-.67,3.32,3.32,0,0,1,1-.59l.43.08a1.69,1.69,0,0,0-.5.45,1,1,0,0,0-.18.57.7.7,0,0,0,.34.62,1.62,1.62,0,0,0,.92.23,1.9,1.9,0,0,0,1.09-.29.85.85,0,0,0,.42-.72.55.55,0,0,0-.25-.5,1.77,1.77,0,0,0-.81-.21l-1.21-.1-.14,0a1.18,1.18,0,0,1-.72-.21.61.61,0,0,1-.29-.52A.83.83,0,0,1,96,47a2.66,2.66,0,0,1,.82-.49l.15.21a1.56,1.56,0,0,0-.26.22.35.35,0,0,0-.09.22.27.27,0,0,0,.11.23.62.62,0,0,0,.34.11l1.46.15a2.14,2.14,0,0,1,1.15.39,1.09,1.09,0,0,1,.39.88,1.39,1.39,0,0,1-.33.9,2.15,2.15,0,0,1-.9.63A3.49,3.49,0,0,1,97.52,50.7Zm.08-3.76a2.46,2.46,0,0,1-1-.21,1.73,1.73,0,0,1-.72-.58,1.46,1.46,0,0,1-.25-.84,1.68,1.68,0,0,1,.26-.92,2,2,0,0,1,.73-.64,2.24,2.24,0,0,1,1-.24,2.21,2.21,0,0,1,1,.23,1.76,1.76,0,0,1,.7.62,1.6,1.6,0,0,1,0,1.75,1.74,1.74,0,0,1-.7.61A2.28,2.28,0,0,1,97.6,46.94Zm.06-.49a.77.77,0,0,0,.64-.31,1.35,1.35,0,0,0,.24-.84,1.6,1.6,0,0,0-.26-.95A.81.81,0,0,0,97.6,44a.8.8,0,0,0-.67.33,1.48,1.48,0,0,0-.25.88,1.39,1.39,0,0,0,.27.89A.87.87,0,0,0,97.66,46.45Zm2.56-2.09-1.35-.1-.4-.46,1.75-.18Z" transform="translate(-6.57 -1.15)"/><path class="cls-1" d="M103,48.34a2.35,2.35,0,0,1-1.16-.29,2.2,2.2,0,0,1-.81-.82,2.42,2.42,0,0,1-.3-1.22,2.59,2.59,0,0,1,.33-1.32,2.25,2.25,0,0,1,.83-.87,2.13,2.13,0,0,1,1.12-.31,1.71,1.71,0,0,1,1.36.58,2.28,2.28,0,0,1,.48,1.53v.21h-3.23v-.5h2.42l-.14.18v-.27a1.36,1.36,0,0,0-.26-.9A.86.86,0,0,0,103,44a1,1,0,0,0-.56.17,1.24,1.24,0,0,0-.42.52,2.14,2.14,0,0,0-.15.86v.16a1.94,1.94,0,0,0,.42,1.32,1.42,1.42,0,0,0,1.11.48,1.65,1.65,0,0,0,.68-.14,2,2,0,0,0,.58-.48l.29.27A2,2,0,0,1,103,48.34Z" transform="translate(-6.57 -1.15)"/><path class="cls-1" d="M105.56,48.25l0-.42.67-.17a1.55,1.55,0,0,0,0-.18c0-.09,0-.22,0-.38s0-.34,0-.56v-.82c0-.24,0-.46,0-.67s0-.39-.07-.54l-.69-.15V44l1.58-.43.19.16,0,.88h0a2.18,2.18,0,0,1,.64-.83,1.18,1.18,0,0,1,.64-.21.72.72,0,0,1,.44.13.48.48,0,0,1,.18.41.5.5,0,0,1-.19.43.71.71,0,0,1-.48.15.87.87,0,0,1-.4-.08,1.39,1.39,0,0,1-.37-.26l.22.05a2,2,0,0,0-.36.35,2.55,2.55,0,0,0-.31.52v1c0,.21,0,.41,0,.61s0,.37,0,.52a2.38,2.38,0,0,0,0,.33l.93.15,0,.44Z" transform="translate(-6.57 -1.15)"/><path class="cls-1" d="M113.71,48.29l-1.8-4.1-.5-.17,0-.42h2.18l0,.42-.53.17,1.27,3.06H114l1.38-3.13.32.67-1.66,3.49Zm3.21,0-1.71-4.1-.53-.17,0-.42h2.17l0,.42-.56.17,1.2,3.06h-.28l1.25-3.07-.56-.17,0-.42h1.72l0,.42-.5.17-1.9,4.1Z" transform="translate(-6.57 -1.15)"/><path class="cls-1" d="M120,48.25l0-.43.72-.16s0-.08,0-.17,0-.2,0-.35,0-.35,0-.6v-.76c0-.26,0-.49,0-.71s0-.41-.06-.56l-.72-.15V44l1.67-.43.21.17c0,.22,0,.44,0,.66s0,.47,0,.76v1.35c0,.3,0,.56,0,.77a2,2,0,0,0,0,.41l.71.16,0,.43Zm1.26-5.82a.71.71,0,1,1,0-1.42.69.69,0,0,1,.52.21.72.72,0,0,1,0,1A.69.69,0,0,1,121.21,42.43Z" transform="translate(-6.57 -1.15)"/><path class="cls-1" d="M126.47,47.51a1.46,1.46,0,0,1-.57.61,1.63,1.63,0,0,1-.8.22,1.61,1.61,0,0,1-1.12-.4,1.57,1.57,0,0,1-.44-1.23l0-2.52h-.75v-.26l1.51-1.32h.26l0,1.32v2.62a1.12,1.12,0,0,0,.23.77.86.86,0,0,0,.66.24,1,1,0,0,0,.43-.09,1.23,1.23,0,0,0,.38-.24Zm-2.36-3.32v-.58h2v.58Z" transform="translate(-6.57 -1.15)"/><path class="cls-1" d="M126.7,48.25l0-.42.67-.17a2.28,2.28,0,0,0,0-.36c0-.18,0-.4,0-.67s0-.58,0-.92V43.6c0-.27,0-.53,0-.78s0-.48,0-.67a3.52,3.52,0,0,0,0-.41l-.79-.11,0-.38,1.68-.46.24.16c0,.22,0,.44,0,.66s0,.45,0,.7,0,.54,0,.86,0,.7,0,1.13h0a2.61,2.61,0,0,1,.73-.6,1.76,1.76,0,0,1,.81-.2,1.47,1.47,0,0,1,.77.22,1.55,1.55,0,0,1,.58.63,2.22,2.22,0,0,1,.22,1.06v1.13c0,.26,0,.48,0,.69s0,.35,0,.42l.67.17,0,.42h-2.33l0-.42.63-.17c0-.06,0-.13,0-.23s0-.21,0-.35,0-.29,0-.47V45.53a1.6,1.6,0,0,0-.14-.71,1,1,0,0,0-.38-.4,1,1,0,0,0-.5-.13,1.28,1.28,0,0,0-.61.15,1.5,1.5,0,0,0-.5.44v1.6c0,.31,0,.58,0,.78a1.76,1.76,0,0,0,0,.4l.65.17,0,.42Z" transform="translate(-6.57 -1.15)"/><path class="cls-1" d="M138.31,47.51a1.46,1.46,0,0,1-.57.61,1.64,1.64,0,0,1-.81.22,1.61,1.61,0,0,1-1.11-.4,1.57,1.57,0,0,1-.44-1.23l0-2.52h-.75v-.26l1.51-1.32h.26l0,1.32v2.62a1.08,1.08,0,0,0,.23.77.86.86,0,0,0,.66.24,1.07,1.07,0,0,0,.43-.09,1.18,1.18,0,0,0,.37-.24ZM136,44.19v-.58H138v.58Z" transform="translate(-6.57 -1.15)"/><path class="cls-1" d="M138.49,48.25l0-.43.72-.16a1.3,1.3,0,0,0,0-.17,2.87,2.87,0,0,0,0-.35c0-.15,0-.35,0-.6v-.76c0-.26,0-.49,0-.71a3.84,3.84,0,0,0-.06-.56l-.72-.15V44l1.67-.43.21.17c0,.22,0,.44-.05.66s0,.47,0,.76v1.35c0,.3,0,.56,0,.77a2,2,0,0,0,0,.41l.72.16,0,.43Zm1.26-5.82a.71.71,0,0,1-.53-.21.7.7,0,0,1,0-1,.71.71,0,0,1,.53-.21.69.69,0,0,1,.52.21.73.73,0,0,1,0,1A.69.69,0,0,1,139.75,42.43Z" transform="translate(-6.57 -1.15)"/><path class="cls-1" d="M141.51,48.25l0-.42.66-.17a1.3,1.3,0,0,0,0-.18c0-.09,0-.21,0-.36s0-.35,0-.58v-.82c0-.15,0-.3,0-.45s0-.29,0-.42,0-.24-.06-.34l-.69-.15V44l1.59-.43.22.18,0,.59h0a2.1,2.1,0,0,1,.7-.62,1.67,1.67,0,0,1,.75-.19,1.43,1.43,0,0,1,.74.21,1.57,1.57,0,0,1,.59.63,2.28,2.28,0,0,1,.23,1.08l0,1.12c0,.26,0,.48,0,.69a1.69,1.69,0,0,0,0,.42l.63.17,0,.42h-2.24l0-.42.58-.17c0-.06,0-.13,0-.23s0-.21,0-.35,0-.29,0-.47V45.48a1.48,1.48,0,0,0-.14-.69.87.87,0,0,0-.35-.38,1,1,0,0,0-.48-.12,1.34,1.34,0,0,0-.58.14,1.29,1.29,0,0,0-.48.45v1.6c0,.3,0,.56,0,.77a1.89,1.89,0,0,0,0,.41l.62.17,0,.42Zm6.13,0,0-.42.59-.17a.71.71,0,0,0,0-.23c0-.1,0-.21,0-.35s0-.29,0-.47V45.52a1.48,1.48,0,0,0-.15-.72,1,1,0,0,0-.38-.39,1,1,0,0,0-.47-.12,1.36,1.36,0,0,0-.63.15,1.46,1.46,0,0,0-.5.49l-.24-.41a2.94,2.94,0,0,1,.8-.75,1.77,1.77,0,0,1,.91-.26,1.61,1.61,0,0,1,.85.23,1.5,1.5,0,0,1,.58.64,2.19,2.19,0,0,1,.21,1v1.18c0,.26,0,.48,0,.69a2.4,2.4,0,0,0,0,.42l.66.17,0,.42Z" transform="translate(-6.57 -1.15)"/><path class="cls-1" d="M152.89,48.34a2.35,2.35,0,0,1-1.16-.29,2.15,2.15,0,0,1-.82-.82,2.53,2.53,0,0,1-.29-1.22,2.69,2.69,0,0,1,.32-1.32,2.34,2.34,0,0,1,.84-.87,2.1,2.1,0,0,1,1.12-.31,1.73,1.73,0,0,1,1.36.58,2.33,2.33,0,0,1,.47,1.53v.21H151.5v-.5h2.43l-.14.18v-.27a1.42,1.42,0,0,0-.26-.9.88.88,0,0,0-.72-.33,1,1,0,0,0-.55.17,1.11,1.11,0,0,0-.42.52,2,2,0,0,0-.16.86v.16a1.89,1.89,0,0,0,.43,1.32,1.4,1.4,0,0,0,1.11.48,1.6,1.6,0,0,0,.67-.14,2.08,2.08,0,0,0,.59-.48l.29.27a2.19,2.19,0,0,1-.79.88A2.14,2.14,0,0,1,152.89,48.34Z" transform="translate(-6.57 -1.15)"/><path class="cls-1" d="M156.4,48.36a.75.75,0,0,1-.77-.76.83.83,0,0,1,.09-.39A.7.7,0,0,1,156,47a.75.75,0,0,1,.4-.11.8.8,0,0,1,.56.22.7.7,0,0,1,.22.54.73.73,0,0,1-.22.54A.76.76,0,0,1,156.4,48.36Z" transform="translate(-6.57 -1.15)"/></g></g></svg>