<svg xmlns="http://www.w3.org/2000/svg" viewBox="0 0 227.43 33.97"><defs><style>.cls-1{fill:#8a8e6d;}</style></defs><g id="Layer_2" data-name="Layer 2"><g id="Layer_1-2" data-name="Layer 1"><path class="cls-1" d="M8.77,2.3,9,4.09l-.54,0L8,2.93a.66.66,0,0,0-.21,0H7l-.29,0s0,.19,0,.4v2.9c0,.44,0,.83,0,1.16s0,.56,0,.68l.92.13,0,.47H4.66l0-.47.91-.13c0-.12,0-.35,0-.68s0-.72,0-1.16V3.31a3.47,3.47,0,0,0,0-.4l-.27,0H4.39a.66.66,0,0,0-.21,0L3.75,4.16,3.21,4.1l.23-1.8.27,0h4.8Z" transform="translate(-0.78 -1.19)"/><path class="cls-1" d="M11.57,8.74a2.49,2.49,0,0,1-1.25-.3,2.08,2.08,0,0,1-.84-.85,2.5,2.5,0,0,1-.3-1.24,2.34,2.34,0,0,1,.34-1.29,2.29,2.29,0,0,1,.88-.84,2.49,2.49,0,0,1,1.21-.3,2.31,2.31,0,0,1,1.19.3,2,2,0,0,1,.8.83,2.7,2.7,0,0,1,.28,1.24,2.56,2.56,0,0,1-.31,1.24,2.34,2.34,0,0,1-.83.88A2.15,2.15,0,0,1,11.57,8.74Zm.1-.56a.89.89,0,0,0,.58-.2,1.37,1.37,0,0,0,.38-.58,2.94,2.94,0,0,0,.13-.87A2.87,2.87,0,0,0,12.41,5a1.05,1.05,0,0,0-.94-.58,1,1,0,0,0-.83.46,2.16,2.16,0,0,0-.32,1.23,3.12,3.12,0,0,0,.17,1.05,1.77,1.77,0,0,0,.49.73A1.06,1.06,0,0,0,11.67,8.18Z" transform="translate(-0.78 -1.19)"/><path class="cls-1" d="M21.85,7V4.81c0-.4,0-.74,0-1s0-.47,0-.61a.71.71,0,0,0,0-.25l-.73-.15,0-.45H23.2l0,.45L22.56,3s0,.11,0,.25,0,.34,0,.61,0,.6,0,1V8c0,.25,0,.49,0,.75H22L17.9,3.49h.35V6.13c0,.41,0,.76,0,1s0,.49,0,.63,0,.22,0,.26l.74.15,0,.45H16.87l0-.45.67-.15a1.84,1.84,0,0,0,0-.27c0-.14,0-.35,0-.63s0-.61,0-1V4.42c0-.29,0-.53,0-.74s0-.37,0-.5a1.41,1.41,0,0,0,0-.23l-.67-.15,0-.45h1.55L22.12,7Z" transform="translate(-0.78 -1.19)"/><path class="cls-1" d="M25.67,8.74a1.57,1.57,0,0,1-.79-.19,1.44,1.44,0,0,1-.53-.47,1,1,0,0,1-.18-.56.89.89,0,0,1,.23-.61,1.9,1.9,0,0,1,.77-.41L26.82,6v-.5A.75.75,0,0,0,26.67,5a1.17,1.17,0,0,0-.42-.34,1.2,1.2,0,0,0-.57-.13.42.42,0,0,0-.33.1.77.77,0,0,0-.11.4l0,.52a1.26,1.26,0,0,1-.73,0,.43.43,0,0,1-.29-.41.58.58,0,0,1,.18-.38,1.69,1.69,0,0,1,.45-.36,2.89,2.89,0,0,1,.58-.3A2.49,2.49,0,0,1,26,3.92a2,2,0,0,1,1.35.42,1.45,1.45,0,0,1,.51,1.12l0,1.71c0,.15,0,.29,0,.41a1,1,0,0,0,0,.29l.69.13v.37L28,8.6a1.76,1.76,0,0,1-.3.1.75.75,0,0,1-.24,0A.5.5,0,0,1,27,8.35l-.14-.45.19,0a3.09,3.09,0,0,1-.68.61A1.26,1.26,0,0,1,25.67,8.74ZM26.05,8a1,1,0,0,0,.41-.1,1.18,1.18,0,0,0,.36-.29V6.5l-1.05.26a.65.65,0,0,0-.37.2.51.51,0,0,0-.12.35.65.65,0,0,0,.23.48A.76.76,0,0,0,26.05,8Z" transform="translate(-0.78 -1.19)"/><path class="cls-1" d="M32.87,8.77l-.21-.14,0-.7h0a1.94,1.94,0,0,1-.64.64,1.46,1.46,0,0,1-.7.18,2.07,2.07,0,0,1-1.84-1.08,2.31,2.31,0,0,1-.29-1.17,2.61,2.61,0,0,1,.21-1.06,2.22,2.22,0,0,1,.56-.81,2.41,2.41,0,0,1,.79-.52,2.36,2.36,0,0,1,.9-.17,3.51,3.51,0,0,1,.55,0,1.36,1.36,0,0,1,.47.19V3.69c0-.19,0-.39,0-.6s0-.4,0-.56,0-.28,0-.34l-.83-.14,0-.4,1.72-.46.23.16c0,.44,0,.87,0,1.27s0,.83,0,1.26V6.36c0,.37,0,.68,0,.92s0,.43,0,.55L34.4,8v.38Zm-1.23-.84a1.08,1.08,0,0,0,.52-.13,1.33,1.33,0,0,0,.49-.44V5a1,1,0,0,0-.46-.44,1.25,1.25,0,0,0-.55-.14,1.18,1.18,0,0,0-1,.47,2,2,0,0,0-.37,1.26,2,2,0,0,0,.39,1.29A1.2,1.2,0,0,0,31.64,7.93Z" transform="translate(-0.78 -1.19)"/><path class="cls-1" d="M34.87,8.65l0-.43.72-.16a.89.89,0,0,0,0-.17c0-.08,0-.2,0-.35s0-.35,0-.6V6.18c0-.26,0-.49,0-.71s0-.41-.07-.56l-.72-.15V4.37l1.68-.43.2.17c0,.22,0,.44,0,.66s0,.47,0,.76V6.88c0,.3,0,.56,0,.77a3.34,3.34,0,0,0,0,.41l.72.16,0,.43Zm1.25-5.82a.72.72,0,0,1-.53-.21.7.7,0,0,1,0-1,.72.72,0,0,1,.53-.21.67.67,0,0,1,.52.21.68.68,0,0,1,.2.5.68.68,0,0,1-.2.5A.67.67,0,0,1,36.12,2.83Z" transform="translate(-0.78 -1.19)"/><path class="cls-1" d="M40,8.7,38,4.59l-.51-.17,0-.42h2.29l0,.42-.66.17,1.38,3.06ZM42.77,4l0,.42-.51.17L40.46,8.38l-.85,1.79a1.94,1.94,0,0,1-.53.73,1,1,0,0,1-.61.2A.76.76,0,0,1,38,11a.45.45,0,0,1-.18-.36.49.49,0,0,1,.15-.35.8.8,0,0,1,.45-.24l1.08-.33-.56.53,1.22-2.33.12-.22,1.32-3.07-.66-.17L41,4Z" transform="translate(-0.78 -1.19)"/><path class="cls-1" d="M44.73,8.74a1.6,1.6,0,0,1-.8-.19,1.4,1.4,0,0,1-.52-.47,1,1,0,0,1-.19-.56.85.85,0,0,1,.24-.61,1.85,1.85,0,0,1,.76-.41L45.88,6v-.5A.7.7,0,0,0,45.72,5a1.06,1.06,0,0,0-.41-.34,1.2,1.2,0,0,0-.57-.13c-.17,0-.28,0-.33.1a.68.68,0,0,0-.11.4l0,.52a1.26,1.26,0,0,1-.73,0,.41.41,0,0,1-.29-.41.56.56,0,0,1,.17-.38,2.09,2.09,0,0,1,.45-.36,3.27,3.27,0,0,1,.59-.3,2.37,2.37,0,0,1,.59-.16,2,2,0,0,1,1.35.42,1.45,1.45,0,0,1,.51,1.12l0,1.71c0,.15,0,.29,0,.41a1.41,1.41,0,0,0,.05.29l.7.13v.37l-.58.23-.3.1a.81.81,0,0,1-.25,0A.48.48,0,0,1,46,8.35L45.9,7.9l.18,0a2.88,2.88,0,0,1-.68.61A1.23,1.23,0,0,1,44.73,8.74ZM45.1,8a1,1,0,0,0,.41-.1,1.21,1.21,0,0,0,.37-.29V6.5l-1.06.26a.69.69,0,0,0-.37.2.56.56,0,0,0-.11.35.65.65,0,0,0,.23.48A.76.76,0,0,0,45.1,8Z" transform="translate(-0.78 -1.19)"/><path class="cls-1" d="M48.11,8.65l0-.42.67-.17q0-.11,0-.36c0-.18,0-.4,0-.67s0-.58,0-.92V4.76c0-.24,0-.5,0-.76s0-.53,0-.78,0-.48,0-.67,0-.33,0-.41L48,2l0-.39,1.68-.46.23.16c0,.22,0,.44,0,.66s0,.45,0,.7,0,.54,0,.86,0,.7,0,1.13h0a2.61,2.61,0,0,1,.73-.6,1.73,1.73,0,0,1,.81-.19,1.49,1.49,0,0,1,.77.21,1.46,1.46,0,0,1,.57.63,2.22,2.22,0,0,1,.22,1.06V7c0,.25,0,.47,0,.68a2.4,2.4,0,0,0,0,.42l.66.17,0,.42H51.29l0-.42.62-.17a1.3,1.3,0,0,0,0-.23,3.32,3.32,0,0,0,0-.35c0-.13,0-.29,0-.47V5.93a1.47,1.47,0,0,0-.15-.71.92.92,0,0,0-.38-.4,1,1,0,0,0-.5-.13,1.34,1.34,0,0,0-.61.15,1.47,1.47,0,0,0-.49.44v1.6c0,.32,0,.58,0,.78a2.69,2.69,0,0,0,0,.4l.66.17,0,.42Z" transform="translate(-0.78 -1.19)"/><path class="cls-1" d="M58,8.74a1.57,1.57,0,0,1-.79-.19,1.44,1.44,0,0,1-.53-.47,1,1,0,0,1-.18-.56.85.85,0,0,1,.24-.61,1.78,1.78,0,0,1,.76-.41L59.13,6v-.5A.75.75,0,0,0,59,5a1.09,1.09,0,0,0-.42-.34A1.2,1.2,0,0,0,58,4.54a.42.42,0,0,0-.33.1.77.77,0,0,0-.11.4l0,.52a1.22,1.22,0,0,1-.72,0,.42.42,0,0,1-.3-.41.58.58,0,0,1,.18-.38,2.09,2.09,0,0,1,.45-.36,3,3,0,0,1,.59-.3,2.26,2.26,0,0,1,.59-.16,2,2,0,0,1,1.34.42,1.39,1.39,0,0,1,.51,1.12l0,1.71c0,.15,0,.29,0,.41a1.41,1.41,0,0,0,.05.29l.7.13v.37l-.58.23-.3.1a.85.85,0,0,1-.25,0,.5.5,0,0,1-.49-.39l-.14-.45.19,0a3.09,3.09,0,0,1-.68.61A1.26,1.26,0,0,1,58,8.74ZM58.36,8a1,1,0,0,0,.41-.1,1.07,1.07,0,0,0,.36-.29V6.5l-1.05.26a.69.69,0,0,0-.37.2.51.51,0,0,0-.11.35.64.64,0,0,0,.22.48A.76.76,0,0,0,58.36,8Z" transform="translate(-0.78 -1.19)"/><path class="cls-1" d="M61.37,8.65l0-.42L62,8.06a.71.71,0,0,0,0-.19,3.21,3.21,0,0,0,0-.36c0-.15,0-.34,0-.57V6.12q0-.35,0-.66c0-.21,0-.4-.07-.55l-.69-.15V4.37l1.59-.43.22.18L63,4.7h0a2.48,2.48,0,0,1,.73-.6,1.75,1.75,0,0,1,.81-.19,1.43,1.43,0,0,1,.78.21,1.5,1.5,0,0,1,.57.62,2.19,2.19,0,0,1,.22,1V7c0,.25,0,.48,0,.69a2.14,2.14,0,0,0,0,.41l.67.17,0,.42H64.54l0-.42.62-.17c0-.06,0-.13,0-.23s0-.21,0-.35V5.93A1.48,1.48,0,0,0,65,5.21a1,1,0,0,0-.38-.4,1,1,0,0,0-.49-.12,1.32,1.32,0,0,0-.62.15,1.57,1.57,0,0,0-.49.44v1.6c0,.31,0,.57,0,.77a1.89,1.89,0,0,0,0,.41l.66.17,0,.42Z" transform="translate(-0.78 -1.19)"/><path class="cls-1" d="M71.21,8.77,71,8.63v-.7h0a1.94,1.94,0,0,1-.64.64,1.46,1.46,0,0,1-.7.18A2.07,2.07,0,0,1,67.8,7.66a2.31,2.31,0,0,1-.29-1.17,2.61,2.61,0,0,1,.21-1.06,2.22,2.22,0,0,1,.56-.81,2.41,2.41,0,0,1,.79-.52,2.32,2.32,0,0,1,.9-.17,3.51,3.51,0,0,1,.55,0,1.44,1.44,0,0,1,.47.19V3.69c0-.19,0-.39,0-.6s0-.4,0-.56,0-.28,0-.34l-.83-.14,0-.4,1.72-.46.23.16c0,.44,0,.87,0,1.27s0,.83,0,1.26V6.36c0,.37,0,.68,0,.92s0,.43,0,.55l.68.17v.38ZM70,7.93a1.11,1.11,0,0,0,.52-.13A1.33,1.33,0,0,0,71,7.36V5a1,1,0,0,0-.46-.44A1.28,1.28,0,0,0,70,4.45a1.21,1.21,0,0,0-1,.47,2,2,0,0,0-.36,1.26A2,2,0,0,0,69,7.47,1.2,1.2,0,0,0,70,7.93Z" transform="translate(-0.78 -1.19)"/><path class="cls-1" d="M79,8.75a4.27,4.27,0,0,1-1.79-.36A2.9,2.9,0,0,1,76,7.32a3.17,3.17,0,0,1-.45-1.74,3.24,3.24,0,0,1,.26-1.32,3.17,3.17,0,0,1,.72-1,3.29,3.29,0,0,1,1.14-.71,4.25,4.25,0,0,1,1.52-.25,5.34,5.34,0,0,1,1,.09,3.92,3.92,0,0,1,.85.25L81.05,4l-.53,0-.32-1a1.5,1.5,0,0,0-.53-.2,3.09,3.09,0,0,0-.58-.06,2.26,2.26,0,0,0-1.27.33,2,2,0,0,0-.73.9,3.42,3.42,0,0,0-.23,1.27,3.31,3.31,0,0,0,.31,1.51,2.2,2.2,0,0,0,2,1.28,2.51,2.51,0,0,0,.57-.08,1.55,1.55,0,0,0,.57-.25l-.24.6V7.28c0-.21,0-.4,0-.58s0-.32,0-.41l-.74-.13,0-.46h2.28l0,.44-.5.14v.77c0,.2,0,.39,0,.56s0,.35,0,.55a3.84,3.84,0,0,1-1,.43A4.09,4.09,0,0,1,79,8.75Z" transform="translate(-0.78 -1.19)"/><path class="cls-1" d="M84.09,8.74a1.6,1.6,0,0,1-.8-.19,1.4,1.4,0,0,1-.52-.47,1,1,0,0,1-.19-.56.85.85,0,0,1,.24-.61,1.85,1.85,0,0,1,.76-.41L85.24,6v-.5A.76.76,0,0,0,85.08,5a1.06,1.06,0,0,0-.41-.34,1.2,1.2,0,0,0-.57-.13c-.17,0-.28,0-.33.1a.68.68,0,0,0-.11.4l0,.52a1.26,1.26,0,0,1-.73,0,.41.41,0,0,1-.29-.41.56.56,0,0,1,.17-.38,2.09,2.09,0,0,1,.45-.36,3.27,3.27,0,0,1,.59-.3,2.37,2.37,0,0,1,.59-.16,2,2,0,0,1,1.35.42,1.45,1.45,0,0,1,.51,1.12l0,1.71c0,.15,0,.29,0,.41a1.41,1.41,0,0,0,0,.29L87,8v.37l-.58.23-.3.1a.81.81,0,0,1-.25,0,.48.48,0,0,1-.48-.39l-.14-.45.18,0a2.88,2.88,0,0,1-.68.61A1.23,1.23,0,0,1,84.09,8.74ZM84.46,8a1,1,0,0,0,.41-.1,1.21,1.21,0,0,0,.37-.29V6.5l-1.06.26a.69.69,0,0,0-.37.2.56.56,0,0,0-.11.35.65.65,0,0,0,.23.48A.76.76,0,0,0,84.46,8Z" transform="translate(-0.78 -1.19)"/><path class="cls-1" d="M87.44,8.65l0-.43.7-.16q0-.09,0-.36c0-.17,0-.4,0-.67s0-.58,0-.92V4.75c0-.25,0-.52,0-.8s0-.53,0-.78,0-.45,0-.63,0-.32,0-.4l-.8-.1,0-.39L89,1.19l.23.16c0,.3,0,.6,0,.89s0,.63,0,1,0,.8,0,1.32V6.22c0,.46,0,.86,0,1.2s0,.56,0,.64l.7.16,0,.43Z" transform="translate(-0.78 -1.19)"/><path class="cls-1" d="M90.4,8.65l0-.43.72-.16a.54.54,0,0,0,0-.17,2.87,2.87,0,0,0,0-.35c0-.15,0-.35,0-.6V6.18c0-.26,0-.49,0-.71a3.84,3.84,0,0,0-.06-.56l-.72-.15V4.37L92,3.94l.2.17c0,.22,0,.44,0,.66s0,.47,0,.76V6.88c0,.3,0,.56,0,.77a2,2,0,0,0,0,.41l.72.16,0,.43Zm1.26-5.82a.72.72,0,0,1-.53-.21.7.7,0,0,1,0-1,.72.72,0,0,1,.53-.21.67.67,0,0,1,.52.21.73.73,0,0,1,0,1A.67.67,0,0,1,91.66,2.83Z" transform="translate(-0.78 -1.19)"/><path class="cls-1" d="M93.41,8.65l0-.42.67-.17q0-.11,0-.36c0-.18,0-.4,0-.67s0-.58,0-.92V4.76c0-.24,0-.5,0-.76s0-.53,0-.78,0-.48,0-.67,0-.33,0-.41l-.8-.1,0-.39,1.68-.46.23.16c0,.22,0,.44,0,.66s0,.45,0,.7,0,.54,0,.86,0,.7,0,1.13h0a2.61,2.61,0,0,1,.73-.6,1.73,1.73,0,0,1,.81-.19,1.49,1.49,0,0,1,.77.21,1.46,1.46,0,0,1,.57.63,2.22,2.22,0,0,1,.22,1.06V7c0,.25,0,.47,0,.68a2.4,2.4,0,0,0,0,.42l.66.17,0,.42H96.59l0-.42.62-.17a1.3,1.3,0,0,0,0-.23,3.32,3.32,0,0,0,0-.35c0-.13,0-.29,0-.47V5.93a1.47,1.47,0,0,0-.15-.71.92.92,0,0,0-.38-.4,1,1,0,0,0-.5-.13,1.34,1.34,0,0,0-.61.15,1.47,1.47,0,0,0-.49.44v1.6c0,.32,0,.58,0,.78a2.69,2.69,0,0,0,0,.4l.66.17,0,.42Z" transform="translate(-0.78 -1.19)"/><path class="cls-1" d="M99.62,10.66l-.17-.35a2,2,0,0,0,.73-.5,1,1,0,0,0,.25-.65.68.68,0,0,0-.07-.31,1.12,1.12,0,0,0-.18-.2l-.2-.19a.76.76,0,0,1-.17-.22.61.61,0,0,1-.07-.32.66.66,0,0,1,.21-.48.75.75,0,0,1,.53-.19.73.73,0,0,1,.4.11.71.71,0,0,1,.32.36,1.41,1.41,0,0,1,.12.63,2.36,2.36,0,0,1-.2.93,2.52,2.52,0,0,1-.58.81A2.86,2.86,0,0,1,99.62,10.66Z" transform="translate(-0.78 -1.19)"/><path class="cls-1" d="M104.21,8.65l0-.42.66-.17a.68.68,0,0,0,0-.18,3.21,3.21,0,0,0,0-.36c0-.15,0-.35,0-.58V6.12c0-.15,0-.3,0-.45s0-.29,0-.42a2.75,2.75,0,0,0,0-.34l-.69-.15V4.37l1.59-.43.22.18-.06.59h0a2.32,2.32,0,0,1,.7-.62,1.73,1.73,0,0,1,.76-.18,1.37,1.37,0,0,1,.74.21,1.48,1.48,0,0,1,.59.62,2.28,2.28,0,0,1,.22,1.08l0,1.13c0,.25,0,.47,0,.68a2.12,2.12,0,0,0,0,.42l.63.17,0,.42h-2.25l0-.42.58-.17a1.3,1.3,0,0,0,0-.23,3.32,3.32,0,0,0,0-.35c0-.13,0-.29,0-.47l0-1.13a1.49,1.49,0,0,0-.13-.69.87.87,0,0,0-.35-.38,1,1,0,0,0-.48-.12,1.3,1.3,0,0,0-.58.14,1.39,1.39,0,0,0-.49.45v1.6c0,.3,0,.56,0,.77a1.89,1.89,0,0,0,0,.41l.62.17,0,.42Zm6.13,0,0-.42.59-.17c0-.06,0-.13,0-.23s0-.21,0-.35,0-.29,0-.47V5.92a1.62,1.62,0,0,0-.14-.72,1,1,0,0,0-.38-.39,1,1,0,0,0-.48-.12,1.32,1.32,0,0,0-.62.15,1.46,1.46,0,0,0-.5.49l-.24-.41a2.94,2.94,0,0,1,.8-.75,1.73,1.73,0,0,1,.91-.25,1.63,1.63,0,0,1,.85.22,1.5,1.5,0,0,1,.58.64,2.19,2.19,0,0,1,.21,1V7c0,.25,0,.47,0,.68a2.4,2.4,0,0,0,0,.42l.66.17,0,.42Z" transform="translate(-0.78 -1.19)"/><path class="cls-1" d="M115,8.74a1.6,1.6,0,0,1-.8-.19,1.49,1.49,0,0,1-.52-.47,1,1,0,0,1-.18-.56.84.84,0,0,1,.23-.61,1.85,1.85,0,0,1,.76-.41L116.1,6v-.5a.7.7,0,0,0-.16-.46,1.06,1.06,0,0,0-.41-.34,1.2,1.2,0,0,0-.57-.13.41.41,0,0,0-.33.1.68.68,0,0,0-.11.4l0,.52a1.26,1.26,0,0,1-.73,0,.43.43,0,0,1-.29-.41.61.61,0,0,1,.17-.38,1.94,1.94,0,0,1,.46-.36,2.89,2.89,0,0,1,.58-.3,2.49,2.49,0,0,1,.59-.16,2,2,0,0,1,1.35.42,1.45,1.45,0,0,1,.51,1.12l0,1.71a2.62,2.62,0,0,0,0,.41,1.55,1.55,0,0,0,0,.29l.7.13v.37l-.58.23-.3.1a.77.77,0,0,1-.25,0,.49.49,0,0,1-.48-.39l-.14-.45.18,0a3.06,3.06,0,0,1-.67.61A1.28,1.28,0,0,1,115,8.74Zm.38-.74a.91.91,0,0,0,.4-.1,1.21,1.21,0,0,0,.37-.29V6.5l-1,.26a.62.62,0,0,0-.37.2.51.51,0,0,0-.12.35.65.65,0,0,0,.23.48A.76.76,0,0,0,115.33,8Z" transform="translate(-0.78 -1.19)"/><path class="cls-1" d="M120.35,8.7l-1.91-4.11-.5-.17L118,4h2.29l0,.42-.67.17L121,7.65ZM123.18,4l0,.42-.5.17-1.84,3.79L120,10.17a2.05,2.05,0,0,1-.53.73,1,1,0,0,1-.62.2.78.78,0,0,1-.48-.14.49.49,0,0,1,0-.71.87.87,0,0,1,.46-.24l1.07-.33-.56.53,1.23-2.33.12-.22L122,4.59l-.67-.17,0-.42Z" transform="translate(-0.78 -1.19)"/><path class="cls-1" d="M129,7.91a1.46,1.46,0,0,1-.57.61,1.53,1.53,0,0,1-.8.22,1.63,1.63,0,0,1-1.12-.4,1.6,1.6,0,0,1-.44-1.23l0-2.52h-.75V4.33L126.88,3h.26l0,1.32V7a1.11,1.11,0,0,0,.23.76A.88.88,0,0,0,128,8a1.12,1.12,0,0,0,.44-.09,1.31,1.31,0,0,0,.37-.24Zm-2.36-3.32V4h2.05v.58Z" transform="translate(-0.78 -1.19)"/><path class="cls-1" d="M129.25,8.65l0-.42.66-.17a1.48,1.48,0,0,0,0-.36c0-.18,0-.4,0-.67s0-.58,0-.92V4.76c0-.24,0-.5,0-.76s0-.53,0-.78,0-.48,0-.67a3.52,3.52,0,0,0,0-.41L129.1,2l0-.39,1.67-.46.24.16c0,.22,0,.44,0,.66s0,.45,0,.7,0,.54,0,.86,0,.7,0,1.13h0a2.48,2.48,0,0,1,.73-.6,1.71,1.71,0,0,1,.8-.19,1.52,1.52,0,0,1,.78.21,1.6,1.6,0,0,1,.57.63,2.22,2.22,0,0,1,.22,1.06V7c0,.25,0,.47,0,.68s0,.35,0,.42l.67.17,0,.42h-2.33l0-.42.62-.17c0-.06,0-.13,0-.23s0-.21,0-.35V5.93a1.6,1.6,0,0,0-.14-.71,1,1,0,0,0-.38-.4,1,1,0,0,0-.5-.13,1.31,1.31,0,0,0-.61.15,1.61,1.61,0,0,0-.5.44v1.6c0,.32,0,.58,0,.78a1.76,1.76,0,0,0,.05.4l.65.17,0,.42Z" transform="translate(-0.78 -1.19)"/><path class="cls-1" d="M135.23,8.65l0-.43.72-.16a1.3,1.3,0,0,0,0-.17c0-.08,0-.2,0-.35s0-.35,0-.6V6.18c0-.26,0-.49,0-.71s0-.41-.06-.56l-.72-.15V4.37l1.67-.43.21.17c0,.22,0,.44-.05.66s0,.47,0,.76V6.88c0,.3,0,.56,0,.77a2,2,0,0,0,0,.41l.72.16,0,.43Zm1.26-5.82a.71.71,0,0,1-.53-.21.7.7,0,0,1,0-1,.71.71,0,0,1,.53-.21.69.69,0,0,1,.52.21.72.72,0,0,1,0,1A.69.69,0,0,1,136.49,2.83Z" transform="translate(-0.78 -1.19)"/><path class="cls-1" d="M140,8.74a3.88,3.88,0,0,1-.82-.09,2.49,2.49,0,0,1-.7-.26l-.06-1.18H139l.23.78a1.53,1.53,0,0,0,.85.24.87.87,0,0,0,.56-.16.52.52,0,0,0,.21-.44.63.63,0,0,0-.2-.47,2.53,2.53,0,0,0-.79-.43,3.39,3.39,0,0,1-1.08-.63,1.13,1.13,0,0,1-.31-.82,1.08,1.08,0,0,1,.24-.7,1.73,1.73,0,0,1,.68-.49,2.59,2.59,0,0,1,1-.17,3.35,3.35,0,0,1,.63.05,2.51,2.51,0,0,1,.54.16l.12,1.15h-.56l-.25-.74a.82.82,0,0,0-.25-.1,1.12,1.12,0,0,0-.32,0,1,1,0,0,0-.58.17.51.51,0,0,0-.22.43.58.58,0,0,0,.25.49,5.06,5.06,0,0,0,.87.47,2.86,2.86,0,0,1,1,.62,1.15,1.15,0,0,1,.28.78,1.17,1.17,0,0,1-.53,1A2.28,2.28,0,0,1,140,8.74Z" transform="translate(-0.78 -1.19)"/><path class="cls-1" d="M144.66,8.65l0-.42.67-.17s0-.1,0-.19,0-.21,0-.36,0-.34,0-.57V6.12q0-.35,0-.66a3.72,3.72,0,0,0-.07-.55l-.68-.15V4.37l1.59-.43.21.18,0,.58h0a2.51,2.51,0,0,1,.74-.6,1.73,1.73,0,0,1,.81-.19,1.4,1.4,0,0,1,.77.21,1.46,1.46,0,0,1,.58.62,2.32,2.32,0,0,1,.22,1V7c0,.25,0,.48,0,.69a1.53,1.53,0,0,0,0,.41l.66.17,0,.42h-2.33l0-.42.62-.17a1.3,1.3,0,0,0,0-.23,3.32,3.32,0,0,0,0-.35c0-.13,0-.29,0-.47V5.93a1.48,1.48,0,0,0-.15-.72.94.94,0,0,0-.39-.4,1,1,0,0,0-.48-.12,1.29,1.29,0,0,0-.62.15,1.57,1.57,0,0,0-.49.44v1.6c0,.31,0,.57,0,.77a2.91,2.91,0,0,0,0,.41l.67.17,0,.42Z" transform="translate(-0.78 -1.19)"/><path class="cls-1" d="M153.1,8.74a2.35,2.35,0,0,1-1.16-.29,2.15,2.15,0,0,1-.82-.82,2.53,2.53,0,0,1-.29-1.22,2.69,2.69,0,0,1,.32-1.32,2.34,2.34,0,0,1,.84-.87,2,2,0,0,1,1.12-.3,1.69,1.69,0,0,1,1.36.57A2.35,2.35,0,0,1,154.94,6v.22h-3.23V5.73h2.43l-.14.18V5.64a1.44,1.44,0,0,0-.26-.9.88.88,0,0,0-.72-.33,1,1,0,0,0-.55.17,1.16,1.16,0,0,0-.42.52,2,2,0,0,0-.16.86v.16a1.89,1.89,0,0,0,.43,1.32,1.4,1.4,0,0,0,1.11.48,1.6,1.6,0,0,0,.67-.14,2.08,2.08,0,0,0,.59-.48l.29.27a2.19,2.19,0,0,1-.79.88A2.14,2.14,0,0,1,153.1,8.74Z" transform="translate(-0.78 -1.19)"/><path class="cls-1" d="M157.62,8.7l-1.8-4.11-.5-.17,0-.42h2.18l0,.42-.53.17,1.27,3.06H158l1.38-3.13.32.67L158,8.7Zm3.21,0-1.71-4.11-.54-.17,0-.42h2.17l0,.42-.56.17,1.2,3.06h-.28l1.25-3.07-.56-.17,0-.42h1.72l0,.42-.5.17-1.9,4.11Z" transform="translate(-0.78 -1.19)"/><path class="cls-1" d="M168.36,8.74a2.33,2.33,0,0,1-1.15-.28,2.13,2.13,0,0,1-.82-.81,2.43,2.43,0,0,1-.31-1.22,2.58,2.58,0,0,1,.32-1.27,2.45,2.45,0,0,1,2.19-1.24,2.47,2.47,0,0,1,.81.12,1.23,1.23,0,0,1,.52.33.63.63,0,0,1,.18.43.44.44,0,0,1-.12.32.44.44,0,0,1-.33.13.79.79,0,0,1-.32-.07,1.31,1.31,0,0,1-.33-.26l-.62-.6.43.12a1.12,1.12,0,0,0-.76.09,1.34,1.34,0,0,0-.6.58,2.11,2.11,0,0,0-.24,1.06,1.83,1.83,0,0,0,.42,1.3,1.41,1.41,0,0,0,1.06.45,1.57,1.57,0,0,0,.67-.14,1.92,1.92,0,0,0,.58-.48l.3.26a2.05,2.05,0,0,1-1.88,1.18Z" transform="translate(-0.78 -1.19)"/><path class="cls-1" d="M170.58,8.65l0-.42.67-.17q0-.11,0-.36c0-.18,0-.4,0-.67s0-.58,0-.92V4c0-.27,0-.53,0-.78s0-.48,0-.67,0-.33,0-.41l-.8-.1,0-.39,1.68-.46.23.16c0,.22,0,.44,0,.66s0,.45,0,.7,0,.54,0,.86,0,.7,0,1.13h0a2.61,2.61,0,0,1,.73-.6,1.73,1.73,0,0,1,.81-.19,1.49,1.49,0,0,1,.77.21,1.55,1.55,0,0,1,.58.63,2.35,2.35,0,0,1,.22,1.06V7c0,.25,0,.47,0,.68a4.2,4.2,0,0,0,0,.42l.67.17,0,.42h-2.33l0-.42.62-.17c0-.06,0-.13,0-.23s0-.21,0-.35,0-.29,0-.47V5.93a1.47,1.47,0,0,0-.15-.71,1,1,0,0,0-.37-.4,1,1,0,0,0-.5-.13,1.35,1.35,0,0,0-.62.15,1.57,1.57,0,0,0-.49.44v1.6c0,.32,0,.58,0,.78a2,2,0,0,0,0,.4l.66.17,0,.42Z" transform="translate(-0.78 -1.19)"/><path class="cls-1" d="M178.38,8.74a1.57,1.57,0,0,1-.79-.19,1.44,1.44,0,0,1-.53-.47,1,1,0,0,1-.18-.56.89.89,0,0,1,.23-.61,1.9,1.9,0,0,1,.77-.41L179.53,6v-.5a.75.75,0,0,0-.15-.46,1.17,1.17,0,0,0-.42-.34,1.2,1.2,0,0,0-.57-.13.42.42,0,0,0-.33.1A.77.77,0,0,0,178,5l0,.52a1.26,1.26,0,0,1-.73,0,.43.43,0,0,1-.29-.41.58.58,0,0,1,.18-.38,1.87,1.87,0,0,1,.45-.36,3.19,3.19,0,0,1,.58-.3,2.49,2.49,0,0,1,.59-.16,2,2,0,0,1,1.35.42,1.39,1.39,0,0,1,.51,1.12l0,1.71c0,.15,0,.29,0,.41a1,1,0,0,0,.05.29l.69.13v.37l-.58.23a1.76,1.76,0,0,1-.3.1.75.75,0,0,1-.24,0,.5.5,0,0,1-.49-.39l-.14-.45.19,0a3.09,3.09,0,0,1-.68.61A1.26,1.26,0,0,1,178.38,8.74Zm.38-.74a1,1,0,0,0,.41-.1,1.07,1.07,0,0,0,.36-.29V6.5l-1.05.26a.65.65,0,0,0-.37.2.51.51,0,0,0-.11.35.64.64,0,0,0,.22.48A.76.76,0,0,0,178.76,8Z" transform="translate(-0.78 -1.19)"/><path class="cls-1" d="M181.74,11l0-.42.67-.18a1.67,1.67,0,0,1,0-.19c0-.1,0-.23,0-.39s0-.34,0-.55,0-.46,0-.73l0-2.49c0-.21,0-.42,0-.62s0-.39-.07-.54l-.69-.15V4.37l1.59-.43.21.18-.06.6h0a2.19,2.19,0,0,1,.66-.6,1.56,1.56,0,0,1,.79-.21,1.91,1.91,0,0,1,1,.28,2,2,0,0,1,.72.79,2.52,2.52,0,0,1,.27,1.19,2.68,2.68,0,0,1-.32,1.29,2.46,2.46,0,0,1-.89.92,2.43,2.43,0,0,1-1.3.34,3,3,0,0,1-.49-.05,2.8,2.8,0,0,1-.46-.12v.77c0,.26,0,.49,0,.69s0,.33,0,.4l.88.16,0,.44Zm2.68-2.89a1.27,1.27,0,0,0,.7-.2,1.23,1.23,0,0,0,.48-.57,2.14,2.14,0,0,0,.18-.93,2,2,0,0,0-.16-.91,1.35,1.35,0,0,0-.46-.58,1.14,1.14,0,0,0-.68-.21,1.22,1.22,0,0,0-.56.14,1.52,1.52,0,0,0-.48.41V7.83a1.55,1.55,0,0,0,.45.21A1.64,1.64,0,0,0,184.42,8.13Z" transform="translate(-0.78 -1.19)"/><path class="cls-1" d="M191.13,7.91a1.4,1.4,0,0,1-.57.61,1.53,1.53,0,0,1-.8.22,1.65,1.65,0,0,1-1.12-.4,1.6,1.6,0,0,1-.44-1.23l0-2.52h-.75V4.33L189,3h.25l0,1.32V7a1.11,1.11,0,0,0,.23.76.89.89,0,0,0,.66.24,1.12,1.12,0,0,0,.44-.09,1.31,1.31,0,0,0,.37-.24Zm-2.36-3.32V4h2v.58Z" transform="translate(-0.78 -1.19)"/><path class="cls-1" d="M193.69,8.74a2.35,2.35,0,0,1-1.16-.29,2.2,2.2,0,0,1-.81-.82,2.42,2.42,0,0,1-.3-1.22,2.59,2.59,0,0,1,.33-1.32,2.25,2.25,0,0,1,.83-.87,2,2,0,0,1,1.12-.3,1.68,1.68,0,0,1,1.36.57A2.3,2.3,0,0,1,195.54,6v.22H192.3V5.73h2.43l-.14.18V5.64a1.44,1.44,0,0,0-.26-.9.87.87,0,0,0-.72-.33,1,1,0,0,0-.55.17,1.3,1.3,0,0,0-.42.52,2.14,2.14,0,0,0-.15.86v.16a1.94,1.94,0,0,0,.42,1.32,1.42,1.42,0,0,0,1.11.48,1.57,1.57,0,0,0,.67-.14,2,2,0,0,0,.59-.48l.29.27a2,2,0,0,1-1.88,1.17Z" transform="translate(-0.78 -1.19)"/><path class="cls-1" d="M196.21,8.65l0-.42.67-.17a1.55,1.55,0,0,0,0-.18c0-.09,0-.22,0-.38s0-.34,0-.56V6.12c0-.24,0-.46,0-.67s0-.39-.07-.54l-.69-.15V4.37l1.58-.43.19.16,0,.88h0a2.18,2.18,0,0,1,.64-.83,1.18,1.18,0,0,1,.64-.21.72.72,0,0,1,.44.13.49.49,0,0,1,.18.42.5.5,0,0,1-.19.42.72.72,0,0,1-.49.16.86.86,0,0,1-.39-.09,1.39,1.39,0,0,1-.37-.26l.22.06a1.62,1.62,0,0,0-.36.34,2.39,2.39,0,0,0-.31.53V6.6c0,.21,0,.41,0,.61s0,.37,0,.52,0,.26,0,.33l.93.15,0,.44Z" transform="translate(-0.78 -1.19)"/><path class="cls-1" d="M202.85,8.36c0-.25,0-.48,0-.68s0-.41,0-.61V4.75c0-.26,0-.54,0-.82s0-.55,0-.79,0-.46,0-.64a2.74,2.74,0,0,0,0-.37L202.05,2l0-.39,1.67-.46.24.16,0,.89c0,.3,0,.64,0,1s0,.87,0,1.44h0a2,2,0,0,1,.64-.57,1.61,1.61,0,0,1,.86-.23,1.9,1.9,0,0,1,1.71,1,2.33,2.33,0,0,1,.28,1.19A2.51,2.51,0,0,1,207,7.46a2.47,2.47,0,0,1-1,.94,2.81,2.81,0,0,1-1.39.34,5,5,0,0,1-.95-.1A4.56,4.56,0,0,1,202.85,8.36Zm2.05-.24a1.26,1.26,0,0,0,1-.46,2,2,0,0,0,.4-1.32,1.59,1.59,0,0,0-.39-1.22,1.35,1.35,0,0,0-1.53-.26,1.41,1.41,0,0,0-.49.39V7.79a1.83,1.83,0,0,0,.46.24A1.7,1.7,0,0,0,204.9,8.12Z" transform="translate(-0.78 -1.19)"/><path class="cls-1" d="M208.1,8.65l0-.42.67-.17a1.55,1.55,0,0,0,0-.18,3.47,3.47,0,0,0,0-.38c0-.15,0-.34,0-.56V6.12c0-.24,0-.46,0-.67s0-.39-.07-.54L208,4.76V4.37l1.58-.43.19.16,0,.88h0a2.18,2.18,0,0,1,.64-.83,1.18,1.18,0,0,1,.64-.21.72.72,0,0,1,.44.13.49.49,0,0,1,.18.42.5.5,0,0,1-.19.42.71.71,0,0,1-.48.16.87.87,0,0,1-.4-.09,1.57,1.57,0,0,1-.37-.26l.22.06a1.87,1.87,0,0,0-.36.34,2.39,2.39,0,0,0-.31.53V6.6c0,.21,0,.41,0,.61s0,.37,0,.52a2.38,2.38,0,0,0,0,.33l.93.15,0,.44Z" transform="translate(-0.78 -1.19)"/><path class="cls-1" d="M212.1,8.65l0-.43.72-.16a1.3,1.3,0,0,0,0-.17,2.87,2.87,0,0,0,0-.35c0-.15,0-.35,0-.6V6.18c0-.26,0-.49,0-.71a3.84,3.84,0,0,0-.06-.56L212,4.76V4.37l1.67-.43.21.17c0,.22,0,.44,0,.66s0,.47,0,.76V6.88c0,.3,0,.56,0,.77a2,2,0,0,0,0,.41l.72.16,0,.43Zm1.26-5.82a.71.71,0,0,1-.53-.21.7.7,0,0,1,0-1,.71.71,0,0,1,.53-.21.69.69,0,0,1,.52.21.72.72,0,0,1,0,1A.69.69,0,0,1,213.36,2.83Z" transform="translate(-0.78 -1.19)"/><path class="cls-1" d="M215.11,8.65l0-.42.66-.17a1.25,1.25,0,0,0,0-.19c0-.09,0-.21,0-.36s0-.34,0-.57V6.12q0-.35,0-.66c0-.21,0-.4-.07-.55L215,4.76V4.37l1.59-.43.22.18-.05.58h0a2.48,2.48,0,0,1,.73-.6,1.78,1.78,0,0,1,.81-.19,1.48,1.48,0,0,1,1.35.83,2.19,2.19,0,0,1,.22,1V7c0,.25,0,.48,0,.69a1.4,1.4,0,0,0,0,.41l.66.17,0,.42h-2.33l0-.42.62-.17a1.3,1.3,0,0,0,0-.23c0-.1,0-.21,0-.35V5.93a1.48,1.48,0,0,0-.15-.72.92.92,0,0,0-.38-.4,1,1,0,0,0-.49-.12,1.35,1.35,0,0,0-.62.15,1.54,1.54,0,0,0-.48.44v1.6c0,.31,0,.57,0,.77a1.89,1.89,0,0,0,.05.41l.67.17,0,.42Z" transform="translate(-0.78 -1.19)"/><path class="cls-1" d="M223.36,11.1a3.52,3.52,0,0,1-1.63-.32,1,1,0,0,1-.59-.86.91.91,0,0,1,.31-.67,3.32,3.32,0,0,1,1-.59l.43.08a1.59,1.59,0,0,0-.5.46,1,1,0,0,0-.18.56.71.71,0,0,0,.33.62,1.68,1.68,0,0,0,.93.23,1.9,1.9,0,0,0,1.09-.29.85.85,0,0,0,.42-.72.55.55,0,0,0-.25-.5,1.78,1.78,0,0,0-.82-.21l-1.2-.1-.14,0a1.18,1.18,0,0,1-.72-.21.61.61,0,0,1-.29-.52.83.83,0,0,1,.3-.59,2.66,2.66,0,0,1,.82-.49l.15.21a1.56,1.56,0,0,0-.26.22.35.35,0,0,0-.09.22.27.27,0,0,0,.11.23.62.62,0,0,0,.34.11l1.46.15a2.14,2.14,0,0,1,1.15.39,1.09,1.09,0,0,1,.39.88,1.39,1.39,0,0,1-.33.9,2.15,2.15,0,0,1-.9.63A3.49,3.49,0,0,1,223.36,11.1Zm.08-3.76a2.46,2.46,0,0,1-1.05-.21,1.73,1.73,0,0,1-.72-.58,1.46,1.46,0,0,1-.25-.84,1.7,1.7,0,0,1,.26-.92,2,2,0,0,1,.73-.64,2.24,2.24,0,0,1,1-.23,2.21,2.21,0,0,1,1,.22,1.76,1.76,0,0,1,.7.62,1.48,1.48,0,0,1,.26.87,1.49,1.49,0,0,1-.26.88,1.74,1.74,0,0,1-.7.61A2.28,2.28,0,0,1,223.44,7.34Zm.06-.49a.77.77,0,0,0,.64-.31,1.35,1.35,0,0,0,.24-.84,1.6,1.6,0,0,0-.26-1,.81.81,0,0,0-.68-.35.8.8,0,0,0-.67.33,1.48,1.48,0,0,0-.25.88,1.39,1.39,0,0,0,.27.89A.87.87,0,0,0,223.5,6.85Zm2.56-2.09-1.35-.1-.4-.45L226.06,4Z" transform="translate(-0.78 -1.19)"/><path class="cls-1" d="M3.2,21.9,1.29,17.79l-.51-.17,0-.42H3.1l0,.42-.66.17,1.38,3.06ZM6,17.2l0,.42-.51.17L3.71,21.58l-.84,1.79a2.06,2.06,0,0,1-.54.73,1,1,0,0,1-.61.2.78.78,0,0,1-.48-.14.45.45,0,0,1-.18-.36.49.49,0,0,1,.15-.35.8.8,0,0,1,.45-.24l1.08-.33-.56.53L3.4,21.08l.12-.22,1.32-3.07-.66-.17,0-.42Z" transform="translate(-0.78 -1.19)"/><path class="cls-1" d="M8.7,21.94a2.49,2.49,0,0,1-1.25-.3,2.15,2.15,0,0,1-.84-.85,2.5,2.5,0,0,1-.3-1.24,2.34,2.34,0,0,1,.34-1.29,2.29,2.29,0,0,1,.88-.84,2.49,2.49,0,0,1,1.21-.3,2.31,2.31,0,0,1,1.19.3,2,2,0,0,1,.8.83A2.58,2.58,0,0,1,11,19.49a2.46,2.46,0,0,1-.31,1.24,2.34,2.34,0,0,1-.83.88A2.15,2.15,0,0,1,8.7,21.94Zm.11-.56a.88.88,0,0,0,.57-.2,1.37,1.37,0,0,0,.38-.58,2.65,2.65,0,0,0,.13-.87,2.87,2.87,0,0,0-.35-1.5,1,1,0,0,0-.94-.58,1,1,0,0,0-.83.46,2.16,2.16,0,0,0-.32,1.23,3.12,3.12,0,0,0,.17,1.05,1.77,1.77,0,0,0,.49.73A1.08,1.08,0,0,0,8.81,21.38Z" transform="translate(-0.78 -1.19)"/><path class="cls-1" d="M16.49,21l.68.17v.38L15.64,22l-.2-.14,0-.7h0a1.79,1.79,0,0,1-.65.64,1.47,1.47,0,0,1-.71.18,1.72,1.72,0,0,1-1.23-.46,1.8,1.8,0,0,1-.48-1.37v-.92c0-.17,0-.35,0-.53s0-.36,0-.55L11.57,18v-.39l1.62-.43.22.18c0,.21,0,.46,0,.72s0,.55,0,.84V20a1.24,1.24,0,0,0,.29.91,1.07,1.07,0,0,0,.76.27,1.14,1.14,0,0,0,.54-.14,1.23,1.23,0,0,0,.48-.48V18.88c0-.14,0-.28,0-.42s0-.25,0-.35L14.59,18v-.39l1.65-.43.2.16c0,.18,0,.35,0,.5s0,.32,0,.49v1.35c0,.32,0,.6,0,.84S16.47,20.9,16.49,21Z" transform="translate(-0.78 -1.19)"/><path class="cls-1" d="M19.73,24.22l0-.42.66-.17s0-.11,0-.2,0-.23,0-.39,0-.34,0-.55,0-.46,0-.73l0-2.49c0-.21,0-.42,0-.62a3.57,3.57,0,0,0-.07-.54L19.66,18v-.39l1.59-.43.21.18-.06.6h0a2.16,2.16,0,0,1,.65-.6,1.59,1.59,0,0,1,.8-.21,1.85,1.85,0,0,1,1,.28,2,2,0,0,1,.73.79,2.54,2.54,0,0,1,.27,1.19,2.68,2.68,0,0,1-.32,1.29,2.53,2.53,0,0,1-.89.92,2.46,2.46,0,0,1-1.31.34,2.8,2.8,0,0,1-.48-.05,2.56,2.56,0,0,1-.46-.12v.77c0,.26,0,.49,0,.69s0,.33,0,.41l.88.15,0,.44Zm2.68-2.89a1.27,1.27,0,0,0,.7-.2,1.36,1.36,0,0,0,.48-.57,2.48,2.48,0,0,0,.18-.93,2.15,2.15,0,0,0-.16-.91,1.37,1.37,0,0,0-.47-.58,1.13,1.13,0,0,0-.67-.21,1.19,1.19,0,0,0-.56.14,1.42,1.42,0,0,0-.48.41V21a1.71,1.71,0,0,0,1,.3Z" transform="translate(-0.78 -1.19)"/><path class="cls-1" d="M28,21.94a2.38,2.38,0,0,1-1.16-.29,2.13,2.13,0,0,1-.81-.82,2.42,2.42,0,0,1-.29-1.22,2.58,2.58,0,0,1,.32-1.32,2.27,2.27,0,0,1,.84-.87,2,2,0,0,1,1.11-.3,1.68,1.68,0,0,1,1.36.57,2.3,2.3,0,0,1,.48,1.53v.22H26.63v-.51h2.43l-.14.18v-.27a1.38,1.38,0,0,0-.27-.9.85.85,0,0,0-.71-.33,1,1,0,0,0-.56.17,1.21,1.21,0,0,0-.41.52,2,2,0,0,0-.16.86v.16a1.94,1.94,0,0,0,.42,1.32,1.44,1.44,0,0,0,1.12.48A1.6,1.6,0,0,0,29,21a2,2,0,0,0,.58-.48l.29.27a2.06,2.06,0,0,1-.79.88A2.11,2.11,0,0,1,28,21.94Z" transform="translate(-0.78 -1.19)"/><path class="cls-1" d="M32.3,21.94a1.6,1.6,0,0,1-.8-.19,1.4,1.4,0,0,1-.52-.47,1,1,0,0,1-.18-.56.84.84,0,0,1,.23-.61,1.85,1.85,0,0,1,.76-.41l1.66-.53v-.5a.7.7,0,0,0-.16-.46,1.06,1.06,0,0,0-.41-.34,1.2,1.2,0,0,0-.57-.13.41.41,0,0,0-.33.1.68.68,0,0,0-.11.4l0,.52a1.26,1.26,0,0,1-.73,0,.43.43,0,0,1-.29-.41.61.61,0,0,1,.17-.38,1.94,1.94,0,0,1,.46-.36,2.89,2.89,0,0,1,.58-.3,2.49,2.49,0,0,1,.59-.16,2,2,0,0,1,1.35.42,1.45,1.45,0,0,1,.51,1.12l0,1.71c0,.15,0,.29,0,.41a2.77,2.77,0,0,0,.05.29l.7.13v.37l-.58.23-.3.1a.81.81,0,0,1-.25,0,.49.49,0,0,1-.48-.39l-.14-.45.18,0a3.06,3.06,0,0,1-.67.61A1.28,1.28,0,0,1,32.3,21.94Zm.38-.74a.82.82,0,0,0,.4-.1,1.21,1.21,0,0,0,.37-.29V19.7L32.4,20a.62.62,0,0,0-.37.2.51.51,0,0,0-.12.35.65.65,0,0,0,.23.48A.76.76,0,0,0,32.68,21.2Z" transform="translate(-0.78 -1.19)"/><path class="cls-1" d="M38.09,21.94a2.33,2.33,0,0,1-1.15-.28,2.13,2.13,0,0,1-.82-.81,2.33,2.33,0,0,1-.31-1.22,2.58,2.58,0,0,1,.32-1.27,2.45,2.45,0,0,1,2.19-1.24,2.47,2.47,0,0,1,.81.12,1.23,1.23,0,0,1,.52.33.63.63,0,0,1,.18.43.44.44,0,0,1-.12.32.44.44,0,0,1-.33.13.79.79,0,0,1-.32-.07,1.5,1.5,0,0,1-.33-.25l-.62-.61.43.12a1.12,1.12,0,0,0-.76.09,1.34,1.34,0,0,0-.6.58,2.11,2.11,0,0,0-.24,1.06,1.83,1.83,0,0,0,.42,1.3,1.41,1.41,0,0,0,1.06.45,1.57,1.57,0,0,0,.67-.14,1.92,1.92,0,0,0,.58-.48l.3.26a2.05,2.05,0,0,1-1.88,1.18Z" transform="translate(-0.78 -1.19)"/><path class="cls-1" d="M42.72,21.94a2.35,2.35,0,0,1-1.16-.29,2.06,2.06,0,0,1-.81-.82,2.42,2.42,0,0,1-.3-1.22,2.59,2.59,0,0,1,.33-1.32,2.32,2.32,0,0,1,.83-.87,2,2,0,0,1,1.12-.3,1.68,1.68,0,0,1,1.36.57,2.3,2.3,0,0,1,.48,1.53v.22H41.33v-.51h2.43l-.14.18v-.27a1.44,1.44,0,0,0-.26-.9.88.88,0,0,0-.72-.33,1,1,0,0,0-.55.17,1.3,1.3,0,0,0-.42.52,2.14,2.14,0,0,0-.15.86v.16a1.94,1.94,0,0,0,.42,1.32,1.4,1.4,0,0,0,1.11.48,1.57,1.57,0,0,0,.67-.14,2,2,0,0,0,.59-.48l.29.27a2.06,2.06,0,0,1-.79.88A2.14,2.14,0,0,1,42.72,21.94Z" transform="translate(-0.78 -1.19)"/><path class="cls-1" d="M47.26,21.85l0-.43.72-.16a.54.54,0,0,0,0-.17,2.87,2.87,0,0,0,0-.35c0-.15,0-.35,0-.6v-.76c0-.26,0-.49,0-.71a3.84,3.84,0,0,0-.06-.56L47.2,18v-.39l1.67-.43.21.17c0,.22,0,.44,0,.66s0,.47,0,.76v1.35c0,.3,0,.56,0,.77a2,2,0,0,0,0,.41l.72.16,0,.43ZM48.52,16a.72.72,0,0,1-.53-.21.7.7,0,0,1,0-1,.72.72,0,0,1,.53-.21.67.67,0,0,1,.52.21.72.72,0,0,1,0,1A.67.67,0,0,1,48.52,16Z" transform="translate(-0.78 -1.19)"/><path class="cls-1" d="M50.27,21.85l0-.42.66-.17a1.25,1.25,0,0,0,0-.19c0-.09,0-.21,0-.36s0-.34,0-.57v-.82q0-.34,0-.66c0-.21,0-.4-.07-.55L50.19,18v-.39l1.59-.43.21.18-.05.58h0a2.48,2.48,0,0,1,.73-.6,1.8,1.8,0,0,1,.82-.19,1.42,1.42,0,0,1,.77.21,1.38,1.38,0,0,1,.57.62A2.21,2.21,0,0,1,55.08,19v1.16c0,.25,0,.48,0,.69a1.89,1.89,0,0,0,0,.41l.66.17,0,.42H53.44l0-.42.62-.17a1.3,1.3,0,0,0,0-.23,3.32,3.32,0,0,0,0-.35V19.13a1.48,1.48,0,0,0-.15-.72.92.92,0,0,0-.38-.4,1,1,0,0,0-.49-.12,1.28,1.28,0,0,0-.61.15,1.47,1.47,0,0,0-.49.44v1.6c0,.31,0,.57,0,.77a1.89,1.89,0,0,0,.05.41l.67.17,0,.42Z" transform="translate(-0.78 -1.19)"/><path class="cls-1" d="M60.78,21.94a2.35,2.35,0,0,1-1.16-.29,2,2,0,0,1-.81-.82,2.42,2.42,0,0,1-.3-1.22,2.69,2.69,0,0,1,.32-1.32,2.42,2.42,0,0,1,.84-.87,2,2,0,0,1,1.12-.3,1.69,1.69,0,0,1,1.36.57,2.29,2.29,0,0,1,.47,1.53v.22H59.39v-.51h2.43l-.14.18v-.27a1.44,1.44,0,0,0-.26-.9.88.88,0,0,0-.72-.33,1,1,0,0,0-.55.17,1.16,1.16,0,0,0-.42.52,2.13,2.13,0,0,0-.16.86v.16A1.94,1.94,0,0,0,60,20.64a1.4,1.4,0,0,0,1.11.48,1.6,1.6,0,0,0,.67-.14,2.08,2.08,0,0,0,.59-.48l.29.27a2,2,0,0,1-1.88,1.17Z" transform="translate(-0.78 -1.19)"/><path class="cls-1" d="M65.35,21.9l-1.92-4.11-.5-.17,0-.42h2.3l0,.42-.67.17L66,20.85h-.3L67,17.79l-.67-.17,0-.42h1.83l0,.42-.51.17-2,4.11Z" transform="translate(-0.78 -1.19)"/><path class="cls-1" d="M70.74,21.94a2.42,2.42,0,0,1-1.17-.29,2.13,2.13,0,0,1-.81-.82,2.53,2.53,0,0,1-.29-1.22,2.69,2.69,0,0,1,.32-1.32,2.34,2.34,0,0,1,.84-.87,2,2,0,0,1,1.12-.3,1.65,1.65,0,0,1,1.35.57,2.3,2.3,0,0,1,.48,1.53v.22H69.35v-.51h2.43l-.14.18v-.27a1.38,1.38,0,0,0-.27-.9.85.85,0,0,0-.71-.33,1,1,0,0,0-.55.17,1.16,1.16,0,0,0-.42.52,2,2,0,0,0-.16.86v.16A1.89,1.89,0,0,0,70,20.64a1.4,1.4,0,0,0,1.11.48,1.6,1.6,0,0,0,.67-.14,1.92,1.92,0,0,0,.58-.48l.29.27a2.11,2.11,0,0,1-.78.88A2.14,2.14,0,0,1,70.74,21.94Z" transform="translate(-0.78 -1.19)"/><path class="cls-1" d="M73.26,21.85l0-.42.66-.17a.62.62,0,0,0,0-.18c0-.09,0-.22,0-.38s0-.34,0-.56v-.82c0-.24,0-.46,0-.67s0-.39-.07-.54L73.17,18v-.39l1.58-.43.2.16,0,.88h0a2.18,2.18,0,0,1,.63-.83,1.21,1.21,0,0,1,.64-.21.7.7,0,0,1,.44.13.47.47,0,0,1,.19.42.54.54,0,0,1-.2.43.76.76,0,0,1-.48.15.9.9,0,0,1-.4-.09,1.36,1.36,0,0,1-.36-.26l.21.06a1.59,1.59,0,0,0-.35.34,2.06,2.06,0,0,0-.31.53v.94c0,.21,0,.41,0,.61s0,.37,0,.52,0,.26,0,.33l.94.15,0,.44Z" transform="translate(-0.78 -1.19)"/><path class="cls-1" d="M79.4,21.9l-1.91-4.11-.5-.17,0-.42h2.29l0,.42-.67.17,1.39,3.06Zm2.83-4.7,0,.42-.5.17-1.84,3.79-.85,1.79a2.05,2.05,0,0,1-.53.73,1,1,0,0,1-.62.2.78.78,0,0,1-.48-.14.49.49,0,0,1,0-.71.87.87,0,0,1,.46-.24l1.07-.33-.56.53,1.23-2.33.12-.22,1.32-3.07-.67-.17,0-.42Z" transform="translate(-0.78 -1.19)"/><path class="cls-1" d="M86.36,21.94a3.88,3.88,0,0,1-.82-.09,2.49,2.49,0,0,1-.7-.26l0-1.18h.58l.22.78a1.53,1.53,0,0,0,.85.24.87.87,0,0,0,.56-.16.51.51,0,0,0,.21-.44.63.63,0,0,0-.2-.47,2.57,2.57,0,0,0-.78-.43,3.35,3.35,0,0,1-1.09-.63,1.13,1.13,0,0,1-.31-.82,1,1,0,0,1,.25-.7,1.63,1.63,0,0,1,.67-.49,2.59,2.59,0,0,1,1-.17,3.52,3.52,0,0,1,.64.05,2.58,2.58,0,0,1,.53.16L88,18.48h-.56l-.24-.74a1,1,0,0,0-.26-.1,1.1,1.1,0,0,0-.31,0,1,1,0,0,0-.59.17.51.51,0,0,0-.22.43.58.58,0,0,0,.25.49,5.06,5.06,0,0,0,.87.47,2.86,2.86,0,0,1,1,.62,1.16,1.16,0,0,1,.29.78,1.18,1.18,0,0,1-.54,1A2.28,2.28,0,0,1,86.36,21.94Z" transform="translate(-0.78 -1.19)"/><path class="cls-1" d="M92.42,21.11a1.46,1.46,0,0,1-.57.61,1.53,1.53,0,0,1-.8.22,1.63,1.63,0,0,1-1.12-.4,1.6,1.6,0,0,1-.44-1.23l0-2.52h-.75v-.26l1.52-1.32h.25l0,1.32v2.63a1.11,1.11,0,0,0,.23.76.9.9,0,0,0,.66.25,1.13,1.13,0,0,0,.44-.1,1.31,1.31,0,0,0,.37-.24Zm-2.36-3.32v-.58h2v.58Z" transform="translate(-0.78 -1.19)"/><path class="cls-1" d="M95.09,21.94a2.49,2.49,0,0,1-1.25-.3,2.08,2.08,0,0,1-.84-.85,2.5,2.5,0,0,1-.3-1.24A2.34,2.34,0,0,1,93,18.26a2.29,2.29,0,0,1,.88-.84,2.49,2.49,0,0,1,1.21-.3,2.31,2.31,0,0,1,1.19.3,2,2,0,0,1,.8.83,2.7,2.7,0,0,1,.28,1.24,2.46,2.46,0,0,1-.31,1.24,2.34,2.34,0,0,1-.83.88A2.15,2.15,0,0,1,95.09,21.94Zm.1-.56a.89.89,0,0,0,.58-.2,1.37,1.37,0,0,0,.38-.58,2.65,2.65,0,0,0,.13-.87,2.87,2.87,0,0,0-.35-1.5,1.05,1.05,0,0,0-.94-.58,1,1,0,0,0-.83.46,2.16,2.16,0,0,0-.32,1.23A3.12,3.12,0,0,0,94,20.39a1.77,1.77,0,0,0,.49.73A1.06,1.06,0,0,0,95.19,21.38Z" transform="translate(-0.78 -1.19)"/><path class="cls-1" d="M98.13,21.85l0-.42.66-.17a.62.62,0,0,0,0-.18,3.47,3.47,0,0,0,0-.38c0-.15,0-.34,0-.56v-.82c0-.24,0-.46,0-.67s0-.39-.07-.54L98,18v-.39l1.58-.43.19.16,0,.88h0a2.18,2.18,0,0,1,.64-.83,1.18,1.18,0,0,1,.64-.21.72.72,0,0,1,.44.13.49.49,0,0,1,.18.42.53.53,0,0,1-.19.43.76.76,0,0,1-.48.15.87.87,0,0,1-.4-.09,1.36,1.36,0,0,1-.36-.26l.21.06a1.59,1.59,0,0,0-.35.34,2.4,2.4,0,0,0-.32.53v.94l0,.61c0,.19,0,.37,0,.52a2.38,2.38,0,0,0,0,.33l.93.15,0,.44Z" transform="translate(-0.78 -1.19)"/><path class="cls-1" d="M102.19,21.85l0-.42.66-.17a.62.62,0,0,0,0-.18,3.21,3.21,0,0,0,0-.36c0-.15,0-.35,0-.58v-.82c0-.15,0-.3,0-.45s0-.29,0-.42a2.75,2.75,0,0,0,0-.34L102.1,18v-.39l1.59-.43.22.18-.06.59h0a2.18,2.18,0,0,1,.69-.62,1.73,1.73,0,0,1,.76-.18,1.37,1.37,0,0,1,.74.21,1.48,1.48,0,0,1,.59.62,2.28,2.28,0,0,1,.22,1.08l0,1.13c0,.25,0,.47,0,.68a1.69,1.69,0,0,0,0,.42l.63.17,0,.42h-2.25l0-.42.58-.17a1.3,1.3,0,0,0,0-.23,3.32,3.32,0,0,0,0-.35c0-.13,0-.29,0-.47l0-1.13a1.49,1.49,0,0,0-.13-.69.87.87,0,0,0-.35-.38,1,1,0,0,0-.48-.12,1.3,1.3,0,0,0-.58.14,1.39,1.39,0,0,0-.49.45v1.6c0,.3,0,.56,0,.77a1.89,1.89,0,0,0,0,.41l.62.17,0,.42Zm6.13,0,0-.42.59-.17c0-.06,0-.13,0-.23s0-.21,0-.35,0-.29,0-.47V19.12a1.49,1.49,0,0,0-.14-.72,1,1,0,0,0-.38-.39,1,1,0,0,0-.48-.12,1.32,1.32,0,0,0-.62.15,1.46,1.46,0,0,0-.5.49l-.24-.4a2.84,2.84,0,0,1,.8-.76,1.73,1.73,0,0,1,.91-.25,1.63,1.63,0,0,1,.85.22,1.5,1.5,0,0,1,.58.64,2.19,2.19,0,0,1,.21,1v1.19c0,.25,0,.47,0,.68a2.4,2.4,0,0,0,0,.42l.66.17,0,.42Z" transform="translate(-0.78 -1.19)"/><path class="cls-1" d="M111.34,23.86l-.17-.35a2,2,0,0,0,.73-.5,1,1,0,0,0,.25-.65.68.68,0,0,0-.07-.31,1.12,1.12,0,0,0-.18-.2l-.2-.18a.76.76,0,0,1-.17-.23.61.61,0,0,1-.07-.32.66.66,0,0,1,.21-.48.75.75,0,0,1,.53-.19.73.73,0,0,1,.4.11.71.71,0,0,1,.32.36,1.41,1.41,0,0,1,.12.63,2.36,2.36,0,0,1-.2.93,2.52,2.52,0,0,1-.58.81A2.86,2.86,0,0,1,111.34,23.86Z" transform="translate(-0.78 -1.19)"/><path class="cls-1" d="M115.77,24.33l-.22-.4a2.18,2.18,0,0,0,.8-.76A2.25,2.25,0,0,0,116.6,22V19.24a7,7,0,0,0,0-.71c0-.18,0-.33-.06-.43L115.8,18v-.39l1.67-.43.21.17c0,.19,0,.4,0,.62s0,.5,0,.84l0,3a2.54,2.54,0,0,1-.13.77,2.27,2.27,0,0,1-.36.69,3,3,0,0,1-.59.59A3.59,3.59,0,0,1,115.77,24.33Zm1.35-8.3a.71.71,0,0,1-.53-.21.7.7,0,0,1,0-1,.71.71,0,0,1,.53-.21.69.69,0,0,1,.52.21.72.72,0,0,1,0,1A.69.69,0,0,1,117.12,16Z" transform="translate(-0.78 -1.19)"/><path class="cls-1" d="M121.24,21.94a2.54,2.54,0,0,1-1.25-.3,2.12,2.12,0,0,1-.83-.85,2.5,2.5,0,0,1-.3-1.24,2.43,2.43,0,0,1,.33-1.29,2.32,2.32,0,0,1,.89-.84,2.49,2.49,0,0,1,1.21-.3,2.31,2.31,0,0,1,1.19.3,2.06,2.06,0,0,1,.8.83,2.7,2.7,0,0,1,.27,1.24,2.56,2.56,0,0,1-.3,1.24,2.42,2.42,0,0,1-.83.88A2.19,2.19,0,0,1,121.24,21.94Zm.11-.56a.91.91,0,0,0,.58-.2,1.35,1.35,0,0,0,.37-.58,2.65,2.65,0,0,0,.14-.87,2.87,2.87,0,0,0-.35-1.5,1.05,1.05,0,0,0-.94-.58,1,1,0,0,0-.83.46,2.08,2.08,0,0,0-.32,1.23,3.12,3.12,0,0,0,.17,1.05,1.76,1.76,0,0,0,.48.73A1.08,1.08,0,0,0,121.35,21.38Z" transform="translate(-0.78 -1.19)"/><path class="cls-1" d="M126.33,21.9l-1.92-4.11-.5-.17,0-.42h2.29l0,.42-.67.17L127,20.85Zm2.82-4.7,0,.42-.5.17-1.84,3.79L126,23.37a2.05,2.05,0,0,1-.53.73,1,1,0,0,1-.62.2.78.78,0,0,1-.48-.14.48.48,0,0,1-.17-.36.52.52,0,0,1,.14-.35.87.87,0,0,1,.46-.24l1.07-.33-.55.53,1.22-2.33.12-.22L128,17.79l-.67-.17,0-.42Z" transform="translate(-0.78 -1.19)"/><path class="cls-1" d="M131.44,21.85l0-.43.72-.16s0-.08,0-.17,0-.2,0-.35,0-.35,0-.6v-.76c0-.26,0-.49,0-.71s0-.41-.07-.56l-.72-.15v-.39l1.68-.43.2.17c0,.22,0,.44,0,.66s0,.47,0,.76v1.35c0,.3,0,.56,0,.77s0,.35,0,.41l.72.16,0,.43ZM132.7,16a.73.73,0,0,1-.54-.21.7.7,0,0,1,0-1,.73.73,0,0,1,.54-.21.7.7,0,0,1,.52.21.73.73,0,0,1,0,1A.7.7,0,0,1,132.7,16Z" transform="translate(-0.78 -1.19)"/><path class="cls-1" d="M134.45,21.85l0-.42.67-.17a.71.71,0,0,0,0-.19,3.21,3.21,0,0,0,0-.36c0-.15,0-.34,0-.57l0-.82q0-.34,0-.66c0-.21,0-.4-.07-.55l-.69-.15v-.39l1.59-.43.22.18-.06.58h0a2.64,2.64,0,0,1,.74-.6,1.73,1.73,0,0,1,.81-.19,1.37,1.37,0,0,1,.77.21A1.46,1.46,0,0,1,139,18a2.21,2.21,0,0,1,.22,1.05v1.16c0,.25,0,.48,0,.69a2.14,2.14,0,0,0,0,.41l.67.17,0,.42h-2.33l0-.42.63-.17c0-.06,0-.13,0-.23s0-.21,0-.35,0-.29,0-.47V19.13a1.48,1.48,0,0,0-.15-.72,1,1,0,0,0-.38-.4,1.07,1.07,0,0,0-.49-.12,1.32,1.32,0,0,0-.62.15,1.57,1.57,0,0,0-.49.44v1.6c0,.31,0,.57,0,.77a1.89,1.89,0,0,0,0,.41l.66.17,0,.42Z" transform="translate(-0.78 -1.19)"/><path class="cls-1" d="M145,21.94a2.38,2.38,0,0,1-1.16-.29,2.13,2.13,0,0,1-.81-.82,2.42,2.42,0,0,1-.29-1.22,2.58,2.58,0,0,1,.32-1.32,2.27,2.27,0,0,1,.84-.87,2,2,0,0,1,1.11-.3,1.68,1.68,0,0,1,1.36.57,2.3,2.3,0,0,1,.48,1.53v.22h-3.23v-.51H146l-.13.18v-.27a1.38,1.38,0,0,0-.27-.9.85.85,0,0,0-.71-.33,1,1,0,0,0-.56.17,1.3,1.3,0,0,0-.42.52,2.14,2.14,0,0,0-.15.86v.16a1.94,1.94,0,0,0,.42,1.32,1.44,1.44,0,0,0,1.12.48A1.6,1.6,0,0,0,146,21a2,2,0,0,0,.58-.48l.29.27a2.06,2.06,0,0,1-.79.88A2.11,2.11,0,0,1,145,21.94Z" transform="translate(-0.78 -1.19)"/><path class="cls-1" d="M149.53,21.9l-1.92-4.11-.51-.17,0-.42h2.3l0,.42-.66.17,1.39,3.06h-.3l1.29-3.07-.66-.17,0-.42h1.82l0,.42-.51.17-2,4.11Z" transform="translate(-0.78 -1.19)"/><path class="cls-1" d="M154.91,21.94a2.35,2.35,0,0,1-1.16-.29,2.13,2.13,0,0,1-.81-.82,2.42,2.42,0,0,1-.3-1.22,2.59,2.59,0,0,1,.33-1.32,2.32,2.32,0,0,1,.83-.87,2,2,0,0,1,1.12-.3,1.68,1.68,0,0,1,1.36.57,2.3,2.3,0,0,1,.48,1.53v.22h-3.23v-.51H156l-.14.18v-.27a1.38,1.38,0,0,0-.26-.9.86.86,0,0,0-.71-.33,1,1,0,0,0-.56.17,1.3,1.3,0,0,0-.42.52,2.14,2.14,0,0,0-.15.86v.16a1.94,1.94,0,0,0,.42,1.32,1.42,1.42,0,0,0,1.11.48,1.65,1.65,0,0,0,.68-.14,2,2,0,0,0,.58-.48l.29.27a2.06,2.06,0,0,1-.79.88A2.11,2.11,0,0,1,154.91,21.94Z" transform="translate(-0.78 -1.19)"/><path class="cls-1" d="M157.44,21.85l0-.42.67-.17a1.55,1.55,0,0,0,0-.18,3.47,3.47,0,0,0,0-.38c0-.15,0-.34,0-.56v-.82c0-.24,0-.46,0-.67s0-.39-.07-.54l-.69-.15v-.39l1.58-.43.19.16,0,.88h0a2.18,2.18,0,0,1,.64-.83,1.18,1.18,0,0,1,.64-.21.72.72,0,0,1,.44.13.49.49,0,0,1,.18.42.53.53,0,0,1-.19.43.76.76,0,0,1-.48.15.87.87,0,0,1-.4-.09,1.39,1.39,0,0,1-.37-.26l.22.06a1.87,1.87,0,0,0-.36.34,2.39,2.39,0,0,0-.31.53v.94c0,.21,0,.41,0,.61s0,.37,0,.52a2.38,2.38,0,0,0,0,.33l.93.15,0,.44Z" transform="translate(-0.78 -1.19)"/><path class="cls-1" d="M163.58,21.9l-1.91-4.11-.51-.17,0-.42h2.29l0,.42-.66.17,1.38,3.06Zm2.82-4.7,0,.42-.51.17-1.83,3.79-.85,1.79a2.06,2.06,0,0,1-.54.73,1,1,0,0,1-.61.2.78.78,0,0,1-.48-.14.45.45,0,0,1-.18-.36.49.49,0,0,1,.15-.35.84.84,0,0,1,.45-.24l1.08-.33-.56.53,1.22-2.33.12-.22,1.32-3.07-.66-.17,0-.42Z" transform="translate(-0.78 -1.19)"/><path class="cls-1" d="M168.75,21.85l0-.42.67-.17a.62.62,0,0,0,0-.18,3.21,3.21,0,0,0,0-.36c0-.15,0-.35,0-.58v-.82c0-.15,0-.3,0-.45a5.12,5.12,0,0,0-.08-.76l-.69-.15v-.39l1.59-.43.22.18-.06.59h0a2.32,2.32,0,0,1,.7-.62,1.72,1.72,0,0,1,.75-.18,1.38,1.38,0,0,1,.75.21,1.48,1.48,0,0,1,.59.62,2.28,2.28,0,0,1,.22,1.08l0,1.13c0,.25,0,.47,0,.68a2.12,2.12,0,0,0,.05.42l.63.17,0,.42h-2.25l0-.42.58-.17a1.3,1.3,0,0,0,0-.23,3.32,3.32,0,0,0,0-.35v-1.6a1.49,1.49,0,0,0-.13-.69A.87.87,0,0,0,172,18a1,1,0,0,0-.48-.12,1.3,1.3,0,0,0-.58.14,1.39,1.39,0,0,0-.49.45v1.6c0,.3,0,.56,0,.77a1.89,1.89,0,0,0,.05.41l.62.17,0,.42Zm6.13,0,0-.42.59-.17c0-.06,0-.13,0-.23s0-.21,0-.35,0-.29,0-.47V19.12a1.62,1.62,0,0,0-.14-.72A1,1,0,0,0,175,18a1,1,0,0,0-.48-.12,1.32,1.32,0,0,0-.62.15,1.46,1.46,0,0,0-.5.49l-.24-.4a2.84,2.84,0,0,1,.8-.76,1.71,1.71,0,0,1,.91-.25,1.66,1.66,0,0,1,.85.22,1.5,1.5,0,0,1,.58.64,2.19,2.19,0,0,1,.21,1v1.19c0,.25,0,.47,0,.68s0,.35,0,.42l.67.17,0,.42Z" transform="translate(-0.78 -1.19)"/><path class="cls-1" d="M180.23,21.94a2.49,2.49,0,0,1-1.25-.3,2.06,2.06,0,0,1-.83-.85,2.5,2.5,0,0,1-.3-1.24,2.43,2.43,0,0,1,.33-1.29,2.32,2.32,0,0,1,.89-.84,2.46,2.46,0,0,1,1.2-.3,2.38,2.38,0,0,1,1.2.3,2,2,0,0,1,.79.83,2.58,2.58,0,0,1,.28,1.24,2.46,2.46,0,0,1-.31,1.24,2.34,2.34,0,0,1-.83.88A2.15,2.15,0,0,1,180.23,21.94Zm.11-.56a.88.88,0,0,0,.57-.2,1.37,1.37,0,0,0,.38-.58,2.65,2.65,0,0,0,.13-.87,2.78,2.78,0,0,0-.35-1.5,1,1,0,0,0-.94-.58,1,1,0,0,0-.83.46,2.16,2.16,0,0,0-.32,1.23,2.89,2.89,0,0,0,.18,1.05,1.67,1.67,0,0,0,.48.73A1.08,1.08,0,0,0,180.34,21.38Z" transform="translate(-0.78 -1.19)"/><path class="cls-1" d="M183.27,21.85l0-.42.66-.17a1.06,1.06,0,0,0,0-.18c0-.09,0-.21,0-.36s0-.35,0-.58v-.82c0-.15,0-.3,0-.45l0-.42c0-.13,0-.24-.06-.34l-.69-.15v-.39l1.59-.43.22.18-.05.59h0a2.1,2.1,0,0,1,.7-.62,1.66,1.66,0,0,1,.75-.18,1.34,1.34,0,0,1,.74.21,1.48,1.48,0,0,1,.59.62A2.28,2.28,0,0,1,188,19l0,1.13c0,.25,0,.47,0,.68a1.69,1.69,0,0,0,0,.42l.63.17,0,.42h-2.24l0-.42.58-.17c0-.06,0-.13,0-.23s0-.21,0-.35,0-.29,0-.47V19.08a1.48,1.48,0,0,0-.14-.69.81.81,0,0,0-.35-.38,1,1,0,0,0-.48-.12,1.34,1.34,0,0,0-.58.14,1.29,1.29,0,0,0-.48.45v1.6c0,.3,0,.56,0,.77a1.89,1.89,0,0,0,.05.41l.62.17,0,.42Zm6.13,0,0-.42.59-.17a.71.71,0,0,0,0-.23c0-.1,0-.21,0-.35s0-.29,0-.47V19.12a1.48,1.48,0,0,0-.15-.72,1,1,0,0,0-.37-.39,1.07,1.07,0,0,0-.48-.12,1.36,1.36,0,0,0-.63.15,1.46,1.46,0,0,0-.5.49l-.24-.4a2.84,2.84,0,0,1,.8-.76,1.76,1.76,0,0,1,.91-.25,1.61,1.61,0,0,1,.85.22,1.44,1.44,0,0,1,.58.64,2.19,2.19,0,0,1,.21,1v1.19c0,.25,0,.47,0,.68a2.4,2.4,0,0,0,0,.42l.66.17,0,.42Z" transform="translate(-0.78 -1.19)"/><path class="cls-1" d="M194.65,21.94a2.35,2.35,0,0,1-1.16-.29,2.09,2.09,0,0,1-.82-.82,2.53,2.53,0,0,1-.29-1.22,2.69,2.69,0,0,1,.32-1.32,2.42,2.42,0,0,1,.84-.87,2,2,0,0,1,1.12-.3,1.69,1.69,0,0,1,1.36.57,2.35,2.35,0,0,1,.47,1.53v.22h-3.23v-.51h2.43l-.14.18v-.27a1.44,1.44,0,0,0-.26-.9.88.88,0,0,0-.72-.33,1,1,0,0,0-.55.17,1.16,1.16,0,0,0-.42.52,2,2,0,0,0-.16.86v.16a1.89,1.89,0,0,0,.43,1.32,1.4,1.4,0,0,0,1.11.48,1.6,1.6,0,0,0,.67-.14,2.08,2.08,0,0,0,.59-.48l.29.27a2,2,0,0,1-1.88,1.17Z" transform="translate(-0.78 -1.19)"/><path class="cls-1" d="M197.16,21.85l0-.42.66-.17a1.25,1.25,0,0,0,0-.19c0-.09,0-.21,0-.36s0-.34,0-.57v-.82q0-.34,0-.66c0-.21,0-.4-.07-.55l-.69-.15v-.39l1.59-.43.22.18-.06.58h0a2.48,2.48,0,0,1,.73-.6,1.78,1.78,0,0,1,.81-.19,1.48,1.48,0,0,1,1.35.83A2.21,2.21,0,0,1,202,19v1.16c0,.25,0,.48,0,.69a1.4,1.4,0,0,0,.05.41l.66.17,0,.42h-2.33l0-.42.62-.17c0-.06,0-.13,0-.23s0-.21,0-.35V19.13a1.48,1.48,0,0,0-.15-.72.92.92,0,0,0-.38-.4,1,1,0,0,0-.49-.12,1.35,1.35,0,0,0-.62.15,1.54,1.54,0,0,0-.48.44v1.6c0,.31,0,.57,0,.77a1.89,1.89,0,0,0,0,.41l.67.17,0,.42Z" transform="translate(-0.78 -1.19)"/><path class="cls-1" d="M206.7,21.11a1.46,1.46,0,0,1-.57.61,1.54,1.54,0,0,1-.81.22,1.61,1.61,0,0,1-1.11-.4,1.57,1.57,0,0,1-.44-1.23l0-2.52h-.75v-.26l1.51-1.32h.26l0,1.32v2.63a1.06,1.06,0,0,0,.23.76.87.87,0,0,0,.66.25,1.08,1.08,0,0,0,.43-.1,1.18,1.18,0,0,0,.37-.24Zm-2.36-3.32v-.58h2v.58Z" transform="translate(-0.78 -1.19)"/><path class="cls-1" d="M207.11,23.86l-.17-.35a2.12,2.12,0,0,0,.73-.5,1,1,0,0,0,.24-.65.57.57,0,0,0-.07-.31.79.79,0,0,0-.17-.2l-.2-.18a1,1,0,0,1-.18-.23.73.73,0,0,1-.06-.32.62.62,0,0,1,.21-.48.72.72,0,0,1,.53-.19.79.79,0,0,1,.72.47,1.42,1.42,0,0,1,.11.63,2.35,2.35,0,0,1-.19.93,2.68,2.68,0,0,1-.58.81A2.86,2.86,0,0,1,207.11,23.86Z" transform="translate(-0.78 -1.19)"/><path class="cls-1" d="M213.46,21.94a1.58,1.58,0,0,1-.8-.19,1.43,1.43,0,0,1-.53-.47,1,1,0,0,1-.18-.56.85.85,0,0,1,.24-.61,1.85,1.85,0,0,1,.76-.41l1.66-.53v-.5a.76.76,0,0,0-.16-.46,1.06,1.06,0,0,0-.41-.34,1.25,1.25,0,0,0-.57-.13.43.43,0,0,0-.34.1.78.78,0,0,0-.1.4l0,.52a1.23,1.23,0,0,1-.72,0,.42.42,0,0,1-.3-.41.58.58,0,0,1,.18-.38,2.09,2.09,0,0,1,.45-.36,3,3,0,0,1,.59-.3,2.37,2.37,0,0,1,.59-.16,2.06,2.06,0,0,1,1.35.42,1.45,1.45,0,0,1,.51,1.12l0,1.71c0,.15,0,.29,0,.41a1.41,1.41,0,0,0,.05.29l.7.13v.37l-.58.23a2.63,2.63,0,0,1-.3.1.85.85,0,0,1-.25,0,.48.48,0,0,1-.48-.39l-.14-.45.18,0a3.09,3.09,0,0,1-.68.61A1.23,1.23,0,0,1,213.46,21.94Zm.37-.74a.83.83,0,0,0,.41-.1,1.21,1.21,0,0,0,.37-.29V19.7l-1.06.26a.69.69,0,0,0-.37.2.56.56,0,0,0-.11.35.64.64,0,0,0,.22.48A.76.76,0,0,0,213.83,21.2Z" transform="translate(-0.78 -1.19)"/><path class="cls-1" d="M216.84,21.85l0-.42.66-.17a.71.71,0,0,0,0-.19q0-.13,0-.36c0-.15,0-.34,0-.57v-.82q0-.34,0-.66c0-.21,0-.4-.07-.55l-.69-.15v-.39l1.59-.43.22.18-.06.58h0a2.48,2.48,0,0,1,.73-.6,1.78,1.78,0,0,1,.81-.19,1.43,1.43,0,0,1,.78.21,1.5,1.5,0,0,1,.57.62,2.21,2.21,0,0,1,.22,1.05v1.16c0,.25,0,.48,0,.69a1.4,1.4,0,0,0,.05.41l.66.17,0,.42H220l0-.42.62-.17c0-.06,0-.13,0-.23s0-.21,0-.35V19.13a1.48,1.48,0,0,0-.15-.72.92.92,0,0,0-.38-.4,1,1,0,0,0-.49-.12A1.32,1.32,0,0,0,219,18a1.44,1.44,0,0,0-.48.44v1.6c0,.31,0,.57,0,.77a1.89,1.89,0,0,0,.05.41l.67.17,0,.42Z" transform="translate(-0.78 -1.19)"/><path class="cls-1" d="M226.68,22l-.2-.14v-.7h0a1.94,1.94,0,0,1-.64.64,1.46,1.46,0,0,1-.7.18,2.07,2.07,0,0,1-1.84-1.08,2.31,2.31,0,0,1-.29-1.17,2.61,2.61,0,0,1,.21-1.06,2.22,2.22,0,0,1,.56-.81,2.37,2.37,0,0,1,1.69-.69,3.41,3.41,0,0,1,.55.05,1.36,1.36,0,0,1,.47.19v-.48c0-.19,0-.39,0-.6s0-.4,0-.56,0-.28,0-.34l-.83-.14,0-.4,1.72-.46.23.16c0,.44,0,.87,0,1.27s0,.83,0,1.26v2.48c0,.37,0,.68,0,.92s0,.43.05.55l.69.17v.38Zm-1.23-.84A1.08,1.08,0,0,0,226,21a1.33,1.33,0,0,0,.49-.44V18.23a1,1,0,0,0-.46-.44,1.25,1.25,0,0,0-.55-.14,1.16,1.16,0,0,0-1,.48,1.94,1.94,0,0,0-.37,1.25,2,2,0,0,0,.39,1.29A1.2,1.2,0,0,0,225.45,21.13Z" transform="translate(-0.78 -1.19)"/><path class="cls-1" d="M66,35.05l0-.43.69-.16a1.78,1.78,0,0,0,0-.36c0-.17,0-.4,0-.67s0-.58,0-.92V31.15c0-.25,0-.52,0-.8s0-.53,0-.78,0-.45,0-.63,0-.32,0-.4l-.8-.1,0-.39,1.7-.46.23.16c0,.3,0,.6,0,.89s0,.63,0,1,0,.8,0,1.32v1.68c0,.45,0,.85,0,1.19s0,.56,0,.64l.7.16,0,.43Z" transform="translate(-0.78 -1.19)"/><path class="cls-1" d="M71.47,35.14a2.49,2.49,0,0,1-1.25-.3,2.06,2.06,0,0,1-.83-.85,2.5,2.5,0,0,1-.3-1.24,2.43,2.43,0,0,1,.33-1.29,2.36,2.36,0,0,1,.88-.84,2.52,2.52,0,0,1,1.21-.3,2.38,2.38,0,0,1,1.2.3,2,2,0,0,1,.79.83,2.58,2.58,0,0,1,.28,1.24,2.46,2.46,0,0,1-.31,1.24,2.34,2.34,0,0,1-.83.88A2.15,2.15,0,0,1,71.47,35.14Zm.11-.56a.88.88,0,0,0,.57-.2,1.37,1.37,0,0,0,.38-.58,2.65,2.65,0,0,0,.13-.87,2.78,2.78,0,0,0-.35-1.5,1,1,0,0,0-.94-.58,1,1,0,0,0-.83.46,2.16,2.16,0,0,0-.32,1.23,2.89,2.89,0,0,0,.18,1.05,1.67,1.67,0,0,0,.48.73A1.08,1.08,0,0,0,71.58,34.58Z" transform="translate(-0.78 -1.19)"/><path class="cls-1" d="M76.56,35.1,74.64,31l-.51-.17,0-.42h2.29l0,.42-.67.17,1.4,3.06h-.3L78.19,31l-.66-.17,0-.42h1.83l0,.42L78.9,31l-2,4.11Z" transform="translate(-0.78 -1.19)"/><path class="cls-1" d="M81.94,35.14a2.38,2.38,0,0,1-1.16-.29A2.13,2.13,0,0,1,80,34a2.53,2.53,0,0,1-.29-1.22A2.58,2.58,0,0,1,80,31.49a2.27,2.27,0,0,1,.84-.87,2,2,0,0,1,1.11-.3,1.68,1.68,0,0,1,1.36.57,2.3,2.3,0,0,1,.48,1.53v.22H80.56v-.51H83l-.14.18V32a1.38,1.38,0,0,0-.27-.9.85.85,0,0,0-.71-.33,1,1,0,0,0-.55.17,1.16,1.16,0,0,0-.42.52,2,2,0,0,0-.16.86v.16a1.89,1.89,0,0,0,.43,1.32,1.4,1.4,0,0,0,1.11.48,1.6,1.6,0,0,0,.67-.14,1.92,1.92,0,0,0,.58-.48l.29.27a2.06,2.06,0,0,1-.79.88A2.11,2.11,0,0,1,81.94,35.14Z" transform="translate(-0.78 -1.19)"/><path class="cls-1" d="M90,34.31a1.46,1.46,0,0,1-.57.61,1.53,1.53,0,0,1-.8.22,1.63,1.63,0,0,1-1.12-.4,1.6,1.6,0,0,1-.44-1.23l0-2.52h-.75v-.26l1.52-1.32h.25l0,1.32v2.63a1.11,1.11,0,0,0,.23.76.9.9,0,0,0,.66.25,1.13,1.13,0,0,0,.44-.1,1.31,1.31,0,0,0,.37-.24ZM87.68,31v-.58h2V31Z" transform="translate(-0.78 -1.19)"/><path class="cls-1" d="M90.27,35.05l0-.42.66-.17a2,2,0,0,0,0-.36c0-.18,0-.4,0-.67s0-.58,0-.92V31.16c0-.24,0-.5,0-.76s0-.53,0-.78,0-.48,0-.67,0-.33,0-.41l-.79-.1,0-.39,1.67-.46.24.16c0,.22,0,.44,0,.66s0,.45,0,.7,0,.54,0,.86,0,.7,0,1.13h0a2.48,2.48,0,0,1,.73-.6,1.71,1.71,0,0,1,.8-.19,1.52,1.52,0,0,1,.78.21,1.6,1.6,0,0,1,.57.63,2.22,2.22,0,0,1,.22,1.06v1.14c0,.25,0,.47,0,.68a2.4,2.4,0,0,0,0,.42l.66.17,0,.42H93.45l0-.42.62-.17c0-.06,0-.13,0-.23s0-.21,0-.35V32.33a1.6,1.6,0,0,0-.14-.71.92.92,0,0,0-.38-.4,1,1,0,0,0-.5-.13,1.31,1.31,0,0,0-.61.15,1.47,1.47,0,0,0-.49.44v1.6c0,.32,0,.58,0,.78a1.76,1.76,0,0,0,0,.4l.66.17,0,.42Z" transform="translate(-0.78 -1.19)"/><path class="cls-1" d="M98.07,35.14a1.6,1.6,0,0,1-.8-.19,1.32,1.32,0,0,1-.52-.47,1,1,0,0,1-.19-.56.85.85,0,0,1,.24-.61,1.85,1.85,0,0,1,.76-.41l1.66-.53v-.5a.7.7,0,0,0-.16-.46,1.06,1.06,0,0,0-.41-.34,1.2,1.2,0,0,0-.57-.13c-.17,0-.28,0-.33.1a.68.68,0,0,0-.11.4l0,.52a1.26,1.26,0,0,1-.73,0,.41.41,0,0,1-.29-.41.56.56,0,0,1,.17-.38,2.09,2.09,0,0,1,.45-.36,3.27,3.27,0,0,1,.59-.3,2.37,2.37,0,0,1,.59-.16,2,2,0,0,1,1.35.42,1.45,1.45,0,0,1,.51,1.12l0,1.71c0,.15,0,.29,0,.41a1.41,1.41,0,0,0,.05.29l.7.13v.37l-.58.23-.3.1a.81.81,0,0,1-.25,0,.48.48,0,0,1-.48-.39l-.14-.45.18,0a2.88,2.88,0,0,1-.68.61A1.23,1.23,0,0,1,98.07,35.14Zm.37-.74a.83.83,0,0,0,.41-.1,1.21,1.21,0,0,0,.37-.29V32.9l-1.06.26a.76.76,0,0,0-.37.2.56.56,0,0,0-.11.35.65.65,0,0,0,.23.48A.76.76,0,0,0,98.44,34.4Z" transform="translate(-0.78 -1.19)"/><path class="cls-1" d="M105,34.31a1.38,1.38,0,0,1-.56.61,1.57,1.57,0,0,1-.81.22,1.65,1.65,0,0,1-1.12-.4,1.6,1.6,0,0,1-.44-1.23l0-2.52h-.75v-.26l1.52-1.32h.25l0,1.32v2.63a1.11,1.11,0,0,0,.23.76.9.9,0,0,0,.66.25,1.13,1.13,0,0,0,.44-.1,1.31,1.31,0,0,0,.37-.24ZM102.6,31v-.58h2.05V31Z" transform="translate(-0.78 -1.19)"/><path class="cls-1" d="M107.23,35.05l0-.43.7-.16q0-.09,0-.36c0-.17,0-.4,0-.67s0-.58,0-.92V30.35c0-.27,0-.53,0-.78s0-.45,0-.63,0-.32,0-.4l-.8-.1,0-.39,1.7-.46.24.16,0,.89c0,.3,0,.63,0,1s0,.8,0,1.32v1.68c0,.45,0,.85,0,1.19a4.61,4.61,0,0,0,0,.64l.69.16,0,.43Z" transform="translate(-0.78 -1.19)"/><path class="cls-1" d="M112,35.14a1.57,1.57,0,0,1-.79-.19,1.36,1.36,0,0,1-.53-.47,1,1,0,0,1-.18-.56.89.89,0,0,1,.23-.61,1.9,1.9,0,0,1,.77-.41l1.65-.53v-.5a.75.75,0,0,0-.15-.46,1.17,1.17,0,0,0-.42-.34,1.2,1.2,0,0,0-.57-.13.42.42,0,0,0-.33.1.77.77,0,0,0-.11.4l0,.52a1.26,1.26,0,0,1-.73,0,.43.43,0,0,1-.29-.41.58.58,0,0,1,.18-.38,1.69,1.69,0,0,1,.45-.36,2.89,2.89,0,0,1,.58-.3,2.49,2.49,0,0,1,.59-.16,2,2,0,0,1,1.35.42,1.45,1.45,0,0,1,.51,1.12l0,1.71c0,.15,0,.29,0,.41a1,1,0,0,0,0,.29l.69.13v.37l-.58.23a1.76,1.76,0,0,1-.3.1.75.75,0,0,1-.24,0,.5.5,0,0,1-.49-.39l-.14-.45.18,0a2.85,2.85,0,0,1-.67.61A1.26,1.26,0,0,1,112,35.14Zm.38-.74a.86.86,0,0,0,.41-.1,1.18,1.18,0,0,0,.36-.29V32.9l-1,.26a.72.72,0,0,0-.37.2.51.51,0,0,0-.12.35.65.65,0,0,0,.23.48A.76.76,0,0,0,112.39,34.4Z" transform="translate(-0.78 -1.19)"/><path class="cls-1" d="M117.2,35.14a3.81,3.81,0,0,1-.82-.09,2.56,2.56,0,0,1-.71-.26l0-1.18h.58l.23.78a1.53,1.53,0,0,0,.85.24.89.89,0,0,0,.56-.16.51.51,0,0,0,.21-.44.67.67,0,0,0-.2-.47,2.66,2.66,0,0,0-.79-.43A3.17,3.17,0,0,1,116,32.5a1.14,1.14,0,0,1-.32-.82,1.11,1.11,0,0,1,.25-.7,1.66,1.66,0,0,1,.68-.49,3.14,3.14,0,0,1,1.63-.11,2.19,2.19,0,0,1,.54.15l.12,1.15h-.56l-.25-.74a.88.88,0,0,0-.26-.1,1.06,1.06,0,0,0-.31,0,1,1,0,0,0-.59.17.54.54,0,0,0-.22.43.61.61,0,0,0,.25.49,6,6,0,0,0,.87.47,2.92,2.92,0,0,1,1,.62,1.15,1.15,0,0,1,.28.78,1.2,1.2,0,0,1-.53,1A2.32,2.32,0,0,1,117.2,35.14Z" transform="translate(-0.78 -1.19)"/><path class="cls-1" d="M123.26,34.31a1.46,1.46,0,0,1-.57.61,1.54,1.54,0,0,1-.81.22,1.61,1.61,0,0,1-1.11-.4,1.57,1.57,0,0,1-.44-1.23l0-2.52h-.75v-.26l1.51-1.32h.26l0,1.32v2.63a1.06,1.06,0,0,0,.23.76.87.87,0,0,0,.66.25,1.08,1.08,0,0,0,.43-.1A1.18,1.18,0,0,0,123,34ZM120.9,31v-.58h2V31Z" transform="translate(-0.78 -1.19)"/><path class="cls-1" d="M125.18,35.14a3.88,3.88,0,0,1-.82-.09,2.38,2.38,0,0,1-.7-.26l-.06-1.18h.58l.23.78a1.53,1.53,0,0,0,.85.24.89.89,0,0,0,.56-.16A.51.51,0,0,0,126,34a.67.67,0,0,0-.2-.47,2.53,2.53,0,0,0-.79-.43A3.28,3.28,0,0,1,124,32.5a1.13,1.13,0,0,1-.31-.82,1.1,1.1,0,0,1,.24-.7,1.66,1.66,0,0,1,.68-.49,2.79,2.79,0,0,1,1-.17,2.69,2.69,0,0,1,.63.06,2.07,2.07,0,0,1,.54.15l.12,1.15h-.56l-.25-.74a.88.88,0,0,0-.26-.1,1.06,1.06,0,0,0-.31,0,.93.93,0,0,0-.58.17.51.51,0,0,0-.22.43.6.6,0,0,0,.24.49,6,6,0,0,0,.87.47,2.82,2.82,0,0,1,1,.62,1.15,1.15,0,0,1,.28.78,1.17,1.17,0,0,1-.53,1A2.3,2.3,0,0,1,125.18,35.14Z" transform="translate(-0.78 -1.19)"/><path class="cls-1" d="M129.71,31v-.39l.78-.2h2.17V31Zm2.69,4h-2.56l0-.42.67-.17c0-.08,0-.16,0-.25a3.11,3.11,0,0,0,0-.32v-4a3.07,3.07,0,0,1,.23-1.21,1.9,1.9,0,0,1,.64-.8,1.66,1.66,0,0,1,.95-.29,1.46,1.46,0,0,1,.78.2.6.6,0,0,1,.31.51.38.38,0,0,1-.11.28.41.41,0,0,1-.29.1.81.81,0,0,1-.55-.25l-.52-.5.32.06a.63.63,0,0,0-.58.4,2.69,2.69,0,0,0-.19,1.15v3.18c0,.33,0,.66,0,1s0,.59,0,.79l.88.16Z" transform="translate(-0.78 -1.19)"/><path class="cls-1" d="M135.6,35.14a2.49,2.49,0,0,1-1.25-.3,2.06,2.06,0,0,1-.83-.85,2.5,2.5,0,0,1-.3-1.24,2.43,2.43,0,0,1,.33-1.29,2.32,2.32,0,0,1,.89-.84,2.46,2.46,0,0,1,1.2-.3,2.35,2.35,0,0,1,1.2.3,2,2,0,0,1,.79.83,2.58,2.58,0,0,1,.28,1.24,2.46,2.46,0,0,1-.31,1.24,2.34,2.34,0,0,1-.83.88A2.15,2.15,0,0,1,135.6,35.14Zm.11-.56a.88.88,0,0,0,.57-.2,1.37,1.37,0,0,0,.38-.58,2.65,2.65,0,0,0,.13-.87,2.78,2.78,0,0,0-.35-1.5,1,1,0,0,0-.94-.58,1,1,0,0,0-.83.46,2.16,2.16,0,0,0-.31,1.23,2.89,2.89,0,0,0,.17,1.05,1.67,1.67,0,0,0,.48.73A1.08,1.08,0,0,0,135.71,34.58Z" transform="translate(-0.78 -1.19)"/><path class="cls-1" d="M138.64,35.05l0-.42.67-.17s0-.09,0-.18,0-.22,0-.38,0-.34,0-.56v-.82c0-.24,0-.46,0-.67s0-.39-.07-.54l-.68-.15v-.39l1.57-.43.2.16-.05.88h0a2.18,2.18,0,0,1,.64-.83,1.16,1.16,0,0,1,.64-.21.74.74,0,0,1,.44.13.49.49,0,0,1,.18.42.56.56,0,0,1-.19.43.77.77,0,0,1-.49.15.93.93,0,0,1-.4-.09,1.36,1.36,0,0,1-.36-.26l.21.06a1.59,1.59,0,0,0-.35.34,2.39,2.39,0,0,0-.31.53V33c0,.21,0,.41,0,.61s0,.37,0,.52,0,.26,0,.33l.94.15,0,.44Z" transform="translate(-0.78 -1.19)"/><path class="cls-1" d="M144.86,35.14a2.35,2.35,0,0,1-1.16-.29,2.13,2.13,0,0,1-.81-.82,2.42,2.42,0,0,1-.3-1.22,2.59,2.59,0,0,1,.33-1.32,2.32,2.32,0,0,1,.83-.87,2,2,0,0,1,1.12-.3,1.68,1.68,0,0,1,1.36.57,2.3,2.3,0,0,1,.48,1.53v.22h-3.23v-.51h2.42l-.14.18V32a1.38,1.38,0,0,0-.26-.9.86.86,0,0,0-.71-.33,1,1,0,0,0-.56.17,1.3,1.3,0,0,0-.42.52,2.14,2.14,0,0,0-.15.86v.16a1.94,1.94,0,0,0,.42,1.32,1.42,1.42,0,0,0,1.11.48,1.65,1.65,0,0,0,.68-.14,2,2,0,0,0,.58-.48l.29.27a2.06,2.06,0,0,1-.79.88A2.11,2.11,0,0,1,144.86,35.14Z" transform="translate(-0.78 -1.19)"/><path class="cls-1" d="M149.44,35.1,147.51,31l-.5-.17,0-.42h2.3l0,.42-.66.17,1.39,3.06h-.3L151.07,31l-.67-.17,0-.42h1.82l0,.42-.5.17-2,4.11Z" transform="translate(-0.78 -1.19)"/><path class="cls-1" d="M154.82,35.14a2.35,2.35,0,0,1-1.16-.29,2.06,2.06,0,0,1-.81-.82,2.42,2.42,0,0,1-.3-1.22,2.69,2.69,0,0,1,.32-1.32,2.42,2.42,0,0,1,.84-.87,2,2,0,0,1,1.12-.3,1.68,1.68,0,0,1,1.36.57,2.3,2.3,0,0,1,.48,1.53v.22h-3.24v-.51h2.43l-.14.18V32a1.44,1.44,0,0,0-.26-.9.88.88,0,0,0-.72-.33,1,1,0,0,0-.55.17,1.3,1.3,0,0,0-.42.52,2.14,2.14,0,0,0-.15.86v.16a1.94,1.94,0,0,0,.42,1.32,1.4,1.4,0,0,0,1.11.48,1.57,1.57,0,0,0,.67-.14,2,2,0,0,0,.59-.48l.29.27a2.06,2.06,0,0,1-.79.88A2.14,2.14,0,0,1,154.82,35.14Z" transform="translate(-0.78 -1.19)"/><path class="cls-1" d="M157.34,35.05l0-.42.67-.17s0-.09,0-.18,0-.22,0-.38,0-.34,0-.56v-.82c0-.24,0-.46,0-.67a5.29,5.29,0,0,0-.08-.54l-.68-.15v-.39l1.58-.43.19.16,0,.88h0a2.18,2.18,0,0,1,.64-.83,1.18,1.18,0,0,1,.64-.21.72.72,0,0,1,.44.13.49.49,0,0,1,.18.42.53.53,0,0,1-.19.43.77.77,0,0,1-.49.15.86.86,0,0,1-.39-.09,1.25,1.25,0,0,1-.37-.26l.22.06a1.62,1.62,0,0,0-.36.34,2.39,2.39,0,0,0-.31.53V33c0,.21,0,.41,0,.61s0,.37,0,.52,0,.26,0,.33l.93.15,0,.44Z" transform="translate(-0.78 -1.19)"/><path class="cls-1" d="M162.23,35.16a.75.75,0,0,1-.55-.22.73.73,0,0,1-.22-.54.76.76,0,0,1,.09-.38.81.81,0,0,1,.28-.27.77.77,0,0,1,.4-.1.79.79,0,0,1,.56.21.71.71,0,0,1,.23.54.74.74,0,0,1-.23.54A.76.76,0,0,1,162.23,35.16Z" transform="translate(-0.78 -1.19)"/></g></g></svg>