<svg xmlns="http://www.w3.org/2000/svg" viewBox="0 0 232.2 36.32"><defs><style>.cls-1{fill:#8a8e6d;}</style></defs><g id="Layer_2" data-name="Layer 2"><g id="Layer_1-2" data-name="Layer 1"><path class="cls-1" d="M1.5,2.35h2l2.26,5H5.51l2.15-5h1.9l0,.45-.68.14v.51c0,.26,0,.56,0,.91L9,6.3c0,.34,0,.62,0,.86s0,.44,0,.58,0,.25,0,.31l.66.15,0,.45H7.23l0-.45.66-.15a1.94,1.94,0,0,0,0-.27V7.27c0-.22,0-.5,0-.85l0-3.76h.34l-2.58,6H5.13l-2.73-6h.4V6.31c0,.59,0,1,0,1.26s0,.42,0,.48l.75.15,0,.45H1.35l0-.45.74-.15c0-.05,0-.15,0-.29s0-.32,0-.54,0-.47,0-.75l0-2.1c0-.35,0-.65,0-.9V3L1.47,2.8Z" transform="translate(-1.32 -1.19)"/><path class="cls-1" d="M12.26,8.74a1.58,1.58,0,0,1-.8-.19,1.52,1.52,0,0,1-.53-.47,1,1,0,0,1-.18-.56A.85.85,0,0,1,11,6.91a1.85,1.85,0,0,1,.76-.41L13.4,6v-.5A.75.75,0,0,0,13.25,5a1.06,1.06,0,0,0-.41-.34,1.25,1.25,0,0,0-.57-.13.43.43,0,0,0-.34.1.78.78,0,0,0-.1.4l0,.52a1.23,1.23,0,0,1-.72,0,.42.42,0,0,1-.3-.41A.58.58,0,0,1,11,4.74a2.09,2.09,0,0,1,.45-.36,3,3,0,0,1,.59-.3,2.26,2.26,0,0,1,.59-.16,2.06,2.06,0,0,1,1.35.42,1.45,1.45,0,0,1,.51,1.12l0,1.71c0,.15,0,.29,0,.41a1.41,1.41,0,0,0,.05.29l.7.13v.37l-.58.23-.3.1a.85.85,0,0,1-.25,0,.48.48,0,0,1-.48-.39l-.14-.45.18,0a3.09,3.09,0,0,1-.68.61A1.25,1.25,0,0,1,12.26,8.74ZM12.63,8A1,1,0,0,0,13,7.9a1.07,1.07,0,0,0,.36-.29V6.5l-1.05.26A.69.69,0,0,0,12,7a.56.56,0,0,0-.11.35.64.64,0,0,0,.22.48A.76.76,0,0,0,12.63,8Z" transform="translate(-1.32 -1.19)"/><path class="cls-1" d="M17.66,8.7,15.75,4.59l-.51-.17,0-.42h2.29l0,.42-.66.17L18.3,7.65ZM20.48,4l0,.42L20,4.59,18.17,8.38l-.84,1.79a2.06,2.06,0,0,1-.54.73,1,1,0,0,1-.61.2A.78.78,0,0,1,15.7,11a.45.45,0,0,1-.18-.36.49.49,0,0,1,.15-.35.8.8,0,0,1,.45-.24l1.08-.33-.56.53,1.22-2.33L18,7.66,19.3,4.59l-.66-.17,0-.42Z" transform="translate(-1.32 -1.19)"/><path class="cls-1" d="M24.89,8.7,23,4.59l-.51-.17,0-.42h2.29l0,.42-.66.17,1.38,3.06ZM27.71,4l0,.42-.51.17L25.4,8.38l-.84,1.79a2.06,2.06,0,0,1-.54.73,1,1,0,0,1-.61.2.78.78,0,0,1-.48-.14.45.45,0,0,1-.18-.36.49.49,0,0,1,.15-.35.8.8,0,0,1,.45-.24l1.08-.33-.56.53,1.22-2.33.12-.22,1.32-3.07-.66-.17,0-.42Z" transform="translate(-1.32 -1.19)"/><path class="cls-1" d="M30.39,8.74a2.49,2.49,0,0,1-1.25-.3,2.08,2.08,0,0,1-.84-.85A2.5,2.5,0,0,1,28,6.35a2.34,2.34,0,0,1,.34-1.29,2.29,2.29,0,0,1,.88-.84,2.49,2.49,0,0,1,1.21-.3,2.31,2.31,0,0,1,1.19.3,2,2,0,0,1,.8.83,2.7,2.7,0,0,1,.28,1.24,2.46,2.46,0,0,1-.31,1.24,2.34,2.34,0,0,1-.83.88A2.15,2.15,0,0,1,30.39,8.74Zm.11-.56a.88.88,0,0,0,.57-.2,1.37,1.37,0,0,0,.38-.58,2.65,2.65,0,0,0,.13-.87A2.87,2.87,0,0,0,31.23,5a1,1,0,0,0-.94-.58,1,1,0,0,0-.83.46,2.16,2.16,0,0,0-.32,1.23,3.12,3.12,0,0,0,.17,1.05,1.77,1.77,0,0,0,.49.73A1.08,1.08,0,0,0,30.5,8.18Z" transform="translate(-1.32 -1.19)"/><path class="cls-1" d="M38.18,7.83l.68.17v.38l-1.53.39-.2-.14,0-.7h0a1.87,1.87,0,0,1-.65.64,1.47,1.47,0,0,1-.71.18,1.71,1.71,0,0,1-1.23-.46A1.8,1.8,0,0,1,34,6.91V6a4.78,4.78,0,0,0,0-.53l0-.55-.73-.15V4.37l1.62-.43.22.18c0,.21,0,.46,0,.72s0,.55,0,.84V6.77a1.2,1.2,0,0,0,.29.9,1,1,0,0,0,.76.28,1.14,1.14,0,0,0,.54-.14,1.23,1.23,0,0,0,.48-.48V5.68c0-.14,0-.28,0-.42s0-.25,0-.35l-.78-.15V4.37l1.65-.43.2.16c0,.18,0,.35,0,.5s0,.32,0,.49V6.44c0,.32,0,.6,0,.84S38.16,7.7,38.18,7.83Z" transform="translate(-1.32 -1.19)"/><path class="cls-1" d="M39.38,8.65l0-.42L40,8.06a.62.62,0,0,0,0-.18c0-.09,0-.22,0-.38s0-.34,0-.56V6.12c0-.24,0-.46,0-.67s0-.39-.07-.54l-.69-.15V4.37l1.58-.43.2.16L41,5h0a2.18,2.18,0,0,1,.63-.83A1.21,1.21,0,0,1,42.33,4a.7.7,0,0,1,.44.13A.47.47,0,0,1,43,4.5a.5.5,0,0,1-.2.42.71.71,0,0,1-.48.16.9.9,0,0,1-.4-.09,1.36,1.36,0,0,1-.36-.26l.21.06a1.59,1.59,0,0,0-.35.34,2.06,2.06,0,0,0-.31.53V6.6c0,.21,0,.41,0,.61s0,.37,0,.52,0,.26,0,.33l.94.15,0,.44Z" transform="translate(-1.32 -1.19)"/><path class="cls-1" d="M45.47,8.65l0-.43.7-.16q0-.09,0-.36c0-.17,0-.4,0-.67s0-.58,0-.92V4c0-.27,0-.53,0-.78s0-.45,0-.63,0-.32,0-.4l-.8-.1,0-.39L47,1.19l.23.16c0,.3,0,.6,0,.89s0,.63,0,1,0,.8,0,1.32V6.22c0,.46,0,.86,0,1.2s0,.56,0,.64l.7.16,0,.43Z" transform="translate(-1.32 -1.19)"/><path class="cls-1" d="M51,8.74a2.49,2.49,0,0,1-1.25-.3,2.12,2.12,0,0,1-.83-.85,2.5,2.5,0,0,1-.3-1.24,2.43,2.43,0,0,1,.33-1.29,2.32,2.32,0,0,1,.89-.84,2.48,2.48,0,0,1,1.2-.3,2.35,2.35,0,0,1,1.2.3,2,2,0,0,1,.79.83,2.58,2.58,0,0,1,.28,1.24A2.56,2.56,0,0,1,53,7.53a2.45,2.45,0,0,1-.84.88A2.15,2.15,0,0,1,51,8.74Zm.11-.56a.88.88,0,0,0,.57-.2,1.28,1.28,0,0,0,.38-.58,2.65,2.65,0,0,0,.13-.87A2.87,2.87,0,0,0,51.84,5a1.06,1.06,0,0,0-.94-.58,1,1,0,0,0-.84.46,2.16,2.16,0,0,0-.31,1.23,2.89,2.89,0,0,0,.17,1.05,1.67,1.67,0,0,0,.48.73A1.08,1.08,0,0,0,51.1,8.18Z" transform="translate(-1.32 -1.19)"/><path class="cls-1" d="M56.08,8.7,54.16,4.59l-.5-.17,0-.42H56l0,.42-.67.17,1.4,3.06h-.3l1.29-3.07-.67-.17,0-.42h1.83l0,.42-.5.17-2,4.11Z" transform="translate(-1.32 -1.19)"/><path class="cls-1" d="M61.47,8.74a2.35,2.35,0,0,1-1.16-.29,2.15,2.15,0,0,1-.82-.82,2.53,2.53,0,0,1-.29-1.22,2.69,2.69,0,0,1,.32-1.32,2.34,2.34,0,0,1,.84-.87,2,2,0,0,1,1.12-.3,1.69,1.69,0,0,1,1.36.57A2.35,2.35,0,0,1,63.31,6v.22H60.08V5.73h2.43l-.14.18V5.64a1.38,1.38,0,0,0-.27-.9.85.85,0,0,0-.71-.33,1,1,0,0,0-.55.17,1.16,1.16,0,0,0-.42.52,2,2,0,0,0-.16.86v.16a1.89,1.89,0,0,0,.43,1.32,1.4,1.4,0,0,0,1.11.48,1.6,1.6,0,0,0,.67-.14,2.08,2.08,0,0,0,.59-.48l.29.27a2.27,2.27,0,0,1-.79.88A2.14,2.14,0,0,1,61.47,8.74Z" transform="translate(-1.32 -1.19)"/><path class="cls-1" d="M68.46,8.74a2.33,2.33,0,0,1-1.15-.28,2.13,2.13,0,0,1-.82-.81,2.33,2.33,0,0,1-.31-1.22,2.58,2.58,0,0,1,.32-1.27,2.53,2.53,0,0,1,.9-.91A2.73,2.73,0,0,1,69.5,4a1.29,1.29,0,0,1,.52.33.63.63,0,0,1,.18.43.44.44,0,0,1-.12.32.44.44,0,0,1-.33.13.79.79,0,0,1-.32-.07,1.16,1.16,0,0,1-.33-.26l-.62-.6.43.12a1.12,1.12,0,0,0-.76.09,1.34,1.34,0,0,0-.6.58,2.11,2.11,0,0,0-.24,1.06,1.83,1.83,0,0,0,.42,1.3,1.41,1.41,0,0,0,1.06.45,1.57,1.57,0,0,0,.67-.14A1.92,1.92,0,0,0,70,7.3l.3.26a2.13,2.13,0,0,1-.79.88A2.05,2.05,0,0,1,68.46,8.74Z" transform="translate(-1.32 -1.19)"/><path class="cls-1" d="M73.2,8.74a2.55,2.55,0,0,1-1.26-.3,2.12,2.12,0,0,1-.83-.85,2.5,2.5,0,0,1-.3-1.24,2.43,2.43,0,0,1,.33-1.29A2.39,2.39,0,0,1,72,4.22a2.49,2.49,0,0,1,1.21-.3,2.31,2.31,0,0,1,1.19.3,2,2,0,0,1,.8.83,2.7,2.7,0,0,1,.28,1.24,2.56,2.56,0,0,1-.31,1.24,2.34,2.34,0,0,1-.83.88A2.15,2.15,0,0,1,73.2,8.74Zm.1-.56a.89.89,0,0,0,.58-.2,1.35,1.35,0,0,0,.37-.58,2.65,2.65,0,0,0,.14-.87A2.87,2.87,0,0,0,74,5a1.05,1.05,0,0,0-.94-.58,1,1,0,0,0-.83.46A2.16,2.16,0,0,0,72,6.14a3.12,3.12,0,0,0,.17,1.05,1.77,1.77,0,0,0,.49.73A1.06,1.06,0,0,0,73.3,8.18Z" transform="translate(-1.32 -1.19)"/><path class="cls-1" d="M76.23,8.65l0-.42.67-.17a1.83,1.83,0,0,0,0-.19c0-.09,0-.21,0-.36s0-.34,0-.57V6.12c0-.23,0-.45,0-.66s0-.4-.07-.55l-.69-.15V4.37l1.59-.43.21.18,0,.58h0a2.51,2.51,0,0,1,.74-.6,1.73,1.73,0,0,1,.81-.19,1.37,1.37,0,0,1,.77.21,1.46,1.46,0,0,1,.58.62,2.32,2.32,0,0,1,.22,1V7c0,.25,0,.48,0,.69a2.14,2.14,0,0,0,0,.41l.67.17,0,.42H79.39l0-.42L80,8.06c0-.06,0-.13,0-.23s0-.21,0-.35,0-.29,0-.47V5.93a1.48,1.48,0,0,0-.15-.72,1,1,0,0,0-.38-.4A1.07,1.07,0,0,0,79,4.69a1.32,1.32,0,0,0-.62.15,1.57,1.57,0,0,0-.49.44v1.6c0,.31,0,.57,0,.77a1.4,1.4,0,0,0,0,.41l.66.17,0,.42Z" transform="translate(-1.32 -1.19)"/><path class="cls-1" d="M85.76,7.91a1.38,1.38,0,0,1-.56.61,1.57,1.57,0,0,1-.81.22,1.65,1.65,0,0,1-1.12-.4,1.6,1.6,0,0,1-.44-1.23l0-2.52h-.75V4.33L83.63,3h.25l0,1.32V7a1.11,1.11,0,0,0,.23.76.89.89,0,0,0,.66.24,1.12,1.12,0,0,0,.44-.09,1.31,1.31,0,0,0,.37-.24ZM83.4,4.59V4h2v.58Z" transform="translate(-1.32 -1.19)"/><path class="cls-1" d="M86,8.65l0-.43.72-.16a.89.89,0,0,0,0-.17c0-.08,0-.2,0-.35s0-.35,0-.6V6.18c0-.26,0-.49,0-.71s0-.41-.07-.56l-.72-.15V4.37l1.68-.43.2.17c0,.22,0,.44-.05.66s0,.47,0,.76V6.88c0,.3,0,.56,0,.77a3.34,3.34,0,0,0,0,.41l.72.16,0,.43ZM87.2,2.83a.72.72,0,0,1-.53-.21.7.7,0,0,1,0-1,.72.72,0,0,1,.53-.21.67.67,0,0,1,.52.21.68.68,0,0,1,.2.5.68.68,0,0,1-.2.5A.67.67,0,0,1,87.2,2.83Z" transform="translate(-1.32 -1.19)"/><path class="cls-1" d="M89,8.65l0-.42.67-.17a1.83,1.83,0,0,0,0-.19c0-.09,0-.21,0-.36s0-.34,0-.57V6.12c0-.23,0-.45,0-.66s0-.4-.07-.55l-.69-.15V4.37l1.59-.43.21.18,0,.58h0a2.51,2.51,0,0,1,.74-.6,1.73,1.73,0,0,1,.81-.19,1.37,1.37,0,0,1,.77.21,1.46,1.46,0,0,1,.58.62,2.32,2.32,0,0,1,.22,1V7c0,.25,0,.48,0,.69a1.53,1.53,0,0,0,0,.41l.67.17,0,.42H92.12l0-.42.63-.17c0-.06,0-.13,0-.23s0-.21,0-.35,0-.29,0-.47V5.93a1.48,1.48,0,0,0-.15-.72,1,1,0,0,0-.38-.4,1.07,1.07,0,0,0-.49-.12,1.32,1.32,0,0,0-.62.15,1.57,1.57,0,0,0-.49.44v1.6c0,.31,0,.57,0,.77a1.4,1.4,0,0,0,0,.41l.66.17,0,.42Z" transform="translate(-1.32 -1.19)"/><path class="cls-1" d="M99.74,7.83l.69.17v.38l-1.54.39-.19-.14v-.7h0a2,2,0,0,1-.65.64,1.54,1.54,0,0,1-.72.18,1.68,1.68,0,0,1-1.22-.46,1.8,1.8,0,0,1-.49-1.37V6c0-.17,0-.35,0-.53s0-.36,0-.55l-.73-.15V4.37l1.62-.43.23.18c0,.21,0,.46,0,.72s0,.55,0,.84V6.77a1.2,1.2,0,0,0,.29.9,1.06,1.06,0,0,0,.77.28,1.08,1.08,0,0,0,.53-.14,1.32,1.32,0,0,0,.49-.48V6.14c0-.16,0-.31,0-.46s0-.28,0-.42a1.83,1.83,0,0,0,0-.35l-.78-.15V4.37l1.65-.43.21.16c0,.18,0,.35,0,.5V6.44c0,.32,0,.6,0,.84S99.73,7.7,99.74,7.83Z" transform="translate(-1.32 -1.19)"/><path class="cls-1" d="M103.34,8.74a2.35,2.35,0,0,1-1.16-.29,2.06,2.06,0,0,1-.81-.82,2.42,2.42,0,0,1-.3-1.22,2.69,2.69,0,0,1,.32-1.32,2.34,2.34,0,0,1,.84-.87,2,2,0,0,1,1.12-.3,1.68,1.68,0,0,1,1.36.57A2.3,2.3,0,0,1,105.19,6v.22H102V5.73h2.43l-.14.18V5.64a1.44,1.44,0,0,0-.26-.9.88.88,0,0,0-.72-.33,1,1,0,0,0-.55.17,1.16,1.16,0,0,0-.42.52,2.14,2.14,0,0,0-.15.86v.16a1.94,1.94,0,0,0,.42,1.32,1.4,1.4,0,0,0,1.11.48,1.57,1.57,0,0,0,.67-.14,2,2,0,0,0,.59-.48l.29.27a2.19,2.19,0,0,1-.79.88A2.14,2.14,0,0,1,103.34,8.74Z" transform="translate(-1.32 -1.19)"/><path class="cls-1" d="M111.44,7.91a1.46,1.46,0,0,1-.57.61,1.54,1.54,0,0,1-.81.22,1.61,1.61,0,0,1-1.11-.4,1.57,1.57,0,0,1-.44-1.23l0-2.52h-.75V4.33L109.3,3h.26l0,1.32V7a1.06,1.06,0,0,0,.23.76.86.86,0,0,0,.66.24,1.07,1.07,0,0,0,.43-.09,1.18,1.18,0,0,0,.37-.24Zm-2.37-3.32V4h2.06v.58Z" transform="translate(-1.32 -1.19)"/><path class="cls-1" d="M114.1,8.74a2.51,2.51,0,0,1-1.25-.3,2.12,2.12,0,0,1-.83-.85,2.5,2.5,0,0,1-.3-1.24,2.43,2.43,0,0,1,.33-1.29,2.32,2.32,0,0,1,.89-.84,2.49,2.49,0,0,1,1.21-.3,2.34,2.34,0,0,1,1.19.3,2,2,0,0,1,.79.83,2.58,2.58,0,0,1,.28,1.24,2.56,2.56,0,0,1-.3,1.24,2.45,2.45,0,0,1-.84.88A2.15,2.15,0,0,1,114.1,8.74Zm.11-.56a.88.88,0,0,0,.57-.2,1.28,1.28,0,0,0,.38-.58,2.65,2.65,0,0,0,.13-.87A2.87,2.87,0,0,0,115,5a1.06,1.06,0,0,0-.94-.58,1,1,0,0,0-.84.46,2.16,2.16,0,0,0-.31,1.23A2.89,2.89,0,0,0,113,7.19a1.67,1.67,0,0,0,.48.73A1.08,1.08,0,0,0,114.21,8.18Z" transform="translate(-1.32 -1.19)"/><path class="cls-1" d="M121.43,11.1a3.52,3.52,0,0,1-1.63-.32,1,1,0,0,1-.6-.86.93.93,0,0,1,.32-.67,3.18,3.18,0,0,1,1-.59l.43.08a1.59,1.59,0,0,0-.5.46,1,1,0,0,0-.18.56.71.71,0,0,0,.33.62,1.68,1.68,0,0,0,.93.23,1.9,1.9,0,0,0,1.09-.29A.85.85,0,0,0,123,9.6a.58.58,0,0,0-.25-.5,1.82,1.82,0,0,0-.82-.21l-1.2-.1-.14,0a1.18,1.18,0,0,1-.72-.21.61.61,0,0,1-.29-.52.83.83,0,0,1,.3-.59,2.54,2.54,0,0,1,.82-.49l.15.21a1.69,1.69,0,0,0-.27.22.35.35,0,0,0-.09.22.28.28,0,0,0,.12.23.62.62,0,0,0,.34.11l1.46.15a2.17,2.17,0,0,1,1.15.39,1.09,1.09,0,0,1,.39.88,1.39,1.39,0,0,1-.33.9,2.15,2.15,0,0,1-.9.63A3.49,3.49,0,0,1,121.43,11.1Zm.07-3.76a2.44,2.44,0,0,1-1-.21,1.67,1.67,0,0,1-.72-.58,1.46,1.46,0,0,1-.26-.84,1.63,1.63,0,0,1,.27-.92,2,2,0,0,1,.73-.64,2.2,2.2,0,0,1,1-.23,2.25,2.25,0,0,1,1,.22,1.76,1.76,0,0,1,.7.62,1.6,1.6,0,0,1,0,1.75,1.77,1.77,0,0,1-.71.61A2.25,2.25,0,0,1,121.5,7.34Zm.07-.49a.77.77,0,0,0,.64-.31,1.35,1.35,0,0,0,.24-.84,1.6,1.6,0,0,0-.26-1,.82.82,0,0,0-.69-.35.8.8,0,0,0-.66.33,1.41,1.41,0,0,0-.25.88,1.39,1.39,0,0,0,.27.89A.85.85,0,0,0,121.57,6.85Zm2.55-2.09-1.34-.1-.41-.45L124.12,4Z" transform="translate(-1.32 -1.19)"/><path class="cls-1" d="M124.6,8.65l0-.42.66-.17a.62.62,0,0,0,0-.18,3.47,3.47,0,0,0,0-.38c0-.15,0-.34,0-.56l0-.82c0-.24,0-.46,0-.67s0-.39-.07-.54l-.69-.15V4.37l1.58-.43.19.16,0,.88h0a2.18,2.18,0,0,1,.64-.83,1.18,1.18,0,0,1,.64-.21.72.72,0,0,1,.44.13.49.49,0,0,1,.18.42.5.5,0,0,1-.19.42.71.71,0,0,1-.48.16.87.87,0,0,1-.4-.09,1.36,1.36,0,0,1-.36-.26l.21.06a1.59,1.59,0,0,0-.35.34,2.4,2.4,0,0,0-.32.53V6.6l0,.61c0,.19,0,.37,0,.52a2.38,2.38,0,0,0,0,.33l.93.15,0,.44Z" transform="translate(-1.32 -1.19)"/><path class="cls-1" d="M130.92,8.74a2.54,2.54,0,0,1-1.25-.3,2.12,2.12,0,0,1-.83-.85,2.5,2.5,0,0,1-.3-1.24,2.43,2.43,0,0,1,.33-1.29,2.32,2.32,0,0,1,.89-.84,2.49,2.49,0,0,1,1.21-.3,2.31,2.31,0,0,1,1.19.3,2,2,0,0,1,.79.83,2.58,2.58,0,0,1,.28,1.24,2.56,2.56,0,0,1-.3,1.24,2.42,2.42,0,0,1-.83.88A2.21,2.21,0,0,1,130.92,8.74Zm.11-.56a.91.91,0,0,0,.58-.2A1.35,1.35,0,0,0,132,7.4a2.65,2.65,0,0,0,.14-.87,2.87,2.87,0,0,0-.35-1.5,1.06,1.06,0,0,0-.94-.58,1,1,0,0,0-.83.46,2.08,2.08,0,0,0-.32,1.23,3.12,3.12,0,0,0,.17,1.05,1.76,1.76,0,0,0,.48.73A1.08,1.08,0,0,0,131,8.18Z" transform="translate(-1.32 -1.19)"/><path class="cls-1" d="M136,8.7l-1.79-4.11-.51-.17,0-.42h2.18l0,.42-.54.17,1.28,3.06h-.33l1.37-3.13.32.67-1.65,3.5Zm3.21,0-1.7-4.11-.54-.17L137,4h2.17l0,.42-.56.17,1.21,3.06h-.28l1.24-3.07-.55-.17,0-.42h1.72l0,.42-.51.17-1.9,4.11Z" transform="translate(-1.32 -1.19)"/><path class="cls-1" d="M146.7,8.74a2.4,2.4,0,0,1-1.16-.29,2.2,2.2,0,0,1-.81-.82,2.53,2.53,0,0,1-.29-1.22,2.69,2.69,0,0,1,.32-1.32,2.27,2.27,0,0,1,.84-.87,2,2,0,0,1,1.12-.3,1.65,1.65,0,0,1,1.35.57A2.3,2.3,0,0,1,148.55,6v.22h-3.23V5.73h2.43l-.14.18V5.64a1.38,1.38,0,0,0-.27-.9.85.85,0,0,0-.71-.33,1,1,0,0,0-.55.17,1.16,1.16,0,0,0-.42.52,2,2,0,0,0-.16.86v.16a1.89,1.89,0,0,0,.43,1.32,1.4,1.4,0,0,0,1.11.48,1.6,1.6,0,0,0,.67-.14,1.92,1.92,0,0,0,.58-.48l.29.27a2.17,2.17,0,0,1-.78.88A2.15,2.15,0,0,1,146.7,8.74Z" transform="translate(-1.32 -1.19)"/><path class="cls-1" d="M151,8.74a1.57,1.57,0,0,1-.79-.19,1.44,1.44,0,0,1-.53-.47,1,1,0,0,1-.18-.56.89.89,0,0,1,.23-.61,1.9,1.9,0,0,1,.77-.41L152.14,6v-.5A.75.75,0,0,0,152,5a1.17,1.17,0,0,0-.42-.34,1.2,1.2,0,0,0-.57-.13.42.42,0,0,0-.33.1.77.77,0,0,0-.11.4l0,.52a1.26,1.26,0,0,1-.73,0,.43.43,0,0,1-.29-.41.58.58,0,0,1,.18-.38,1.69,1.69,0,0,1,.45-.36,2.89,2.89,0,0,1,.58-.3,2.49,2.49,0,0,1,.59-.16,2,2,0,0,1,1.35.42,1.45,1.45,0,0,1,.51,1.12l0,1.71a2.62,2.62,0,0,0,0,.41,1.55,1.55,0,0,0,0,.29l.7.13v.37l-.58.23-.3.1a.77.77,0,0,1-.25,0,.49.49,0,0,1-.48-.39l-.14-.45.18,0a3.06,3.06,0,0,1-.67.61A1.26,1.26,0,0,1,151,8.74Zm.38-.74a1,1,0,0,0,.41-.1,1.18,1.18,0,0,0,.36-.29V6.5l-1,.26a.65.65,0,0,0-.37.2.51.51,0,0,0-.12.35.65.65,0,0,0,.23.48A.76.76,0,0,0,151.37,8Z" transform="translate(-1.32 -1.19)"/><path class="cls-1" d="M156.78,8.74a2.36,2.36,0,0,1-1.15-.28,2.13,2.13,0,0,1-.82-.81,2.43,2.43,0,0,1-.31-1.22,2.48,2.48,0,0,1,.33-1.27,2.43,2.43,0,0,1,.89-.91A2.53,2.53,0,0,1,157,3.92a2.47,2.47,0,0,1,.81.12,1.23,1.23,0,0,1,.52.33.63.63,0,0,1,.18.43.44.44,0,0,1-.12.32.42.42,0,0,1-.33.13.79.79,0,0,1-.32-.07,1.14,1.14,0,0,1-.32-.26l-.63-.6.43.12a1.08,1.08,0,0,0-.75.09,1.36,1.36,0,0,0-.61.58,2.11,2.11,0,0,0-.24,1.06,1.79,1.79,0,0,0,.43,1.3,1.38,1.38,0,0,0,1.05.45,1.65,1.65,0,0,0,.68-.14,2,2,0,0,0,.57-.48l.3.26a2.06,2.06,0,0,1-.79.88A2,2,0,0,1,156.78,8.74Z" transform="translate(-1.32 -1.19)"/><path class="cls-1" d="M159,8.65l0-.42.67-.17q0-.11,0-.36c0-.18,0-.4,0-.67s0-.58,0-.92V4c0-.27,0-.53,0-.78s0-.48,0-.67,0-.33,0-.41l-.8-.1,0-.39,1.68-.46.23.16c0,.22,0,.44,0,.66s0,.45,0,.7,0,.54,0,.86,0,.7,0,1.13h0a2.61,2.61,0,0,1,.73-.6,1.73,1.73,0,0,1,.81-.19,1.46,1.46,0,0,1,.77.21,1.55,1.55,0,0,1,.58.63,2.35,2.35,0,0,1,.22,1.06V7c0,.25,0,.47,0,.68a4.2,4.2,0,0,0,0,.42l.67.17,0,.42h-2.34l0-.42.63-.17c0-.06,0-.13,0-.23s0-.21,0-.35,0-.29,0-.47V5.93a1.47,1.47,0,0,0-.15-.71.9.9,0,0,0-.37-.4,1,1,0,0,0-.5-.13,1.28,1.28,0,0,0-.61.15,1.5,1.5,0,0,0-.5.44v1.6c0,.32,0,.58,0,.78a1.31,1.31,0,0,0,0,.4l.65.17,0,.42Z" transform="translate(-1.32 -1.19)"/><path class="cls-1" d="M168.88,8.74a1.6,1.6,0,0,1-.8-.19,1.4,1.4,0,0,1-.52-.47,1,1,0,0,1-.19-.56.85.85,0,0,1,.24-.61,1.85,1.85,0,0,1,.76-.41L170,6v-.5a.76.76,0,0,0-.16-.46,1.06,1.06,0,0,0-.41-.34,1.22,1.22,0,0,0-.57-.13.43.43,0,0,0-.34.1.78.78,0,0,0-.1.4l0,.52a1.23,1.23,0,0,1-.72,0,.42.42,0,0,1-.3-.41.58.58,0,0,1,.18-.38,2.09,2.09,0,0,1,.45-.36,3,3,0,0,1,.59-.3,2.37,2.37,0,0,1,.59-.16,2.06,2.06,0,0,1,1.35.42,1.45,1.45,0,0,1,.51,1.12l0,1.71c0,.15,0,.29,0,.41a1.41,1.41,0,0,0,0,.29l.7.13v.37l-.58.23-.3.1a.85.85,0,0,1-.25,0,.48.48,0,0,1-.48-.39l-.14-.45.18,0a2.88,2.88,0,0,1-.68.61A1.23,1.23,0,0,1,168.88,8.74Zm.37-.74a1,1,0,0,0,.41-.1,1.21,1.21,0,0,0,.37-.29V6.5L169,6.76a.69.69,0,0,0-.37.2.56.56,0,0,0-.11.35.65.65,0,0,0,.23.48A.74.74,0,0,0,169.25,8Z" transform="translate(-1.32 -1.19)"/><path class="cls-1" d="M172.26,8.65l0-.42.66-.17a1.25,1.25,0,0,0,0-.19c0-.09,0-.21,0-.36s0-.34,0-.57V6.12q0-.35,0-.66c0-.21,0-.4-.07-.55l-.69-.15V4.37l1.59-.43.22.18,0,.58h0a2.48,2.48,0,0,1,.73-.6,1.78,1.78,0,0,1,.81-.19,1.48,1.48,0,0,1,1.35.83,2.19,2.19,0,0,1,.22,1V7c0,.25,0,.48,0,.69a1.89,1.89,0,0,0,0,.41l.66.17,0,.42h-2.33l0-.42.62-.17a1.3,1.3,0,0,0,0-.23,3.32,3.32,0,0,0,0-.35V5.93a1.48,1.48,0,0,0-.15-.72.92.92,0,0,0-.38-.4,1,1,0,0,0-.49-.12,1.28,1.28,0,0,0-.61.15,1.47,1.47,0,0,0-.49.44v1.6c0,.31,0,.57,0,.77a1.89,1.89,0,0,0,0,.41l.67.17,0,.42Z" transform="translate(-1.32 -1.19)"/><path class="cls-1" d="M182.1,8.77l-.2-.14v-.7h0a2,2,0,0,1-.63.64,1.5,1.5,0,0,1-.71.18,2.07,2.07,0,0,1-1.84-1.08,2.31,2.31,0,0,1-.29-1.17,2.61,2.61,0,0,1,.21-1.06,2.22,2.22,0,0,1,.56-.81,2.37,2.37,0,0,1,1.69-.69,3.41,3.41,0,0,1,.55,0,1.5,1.5,0,0,1,.48.19c0-.13,0-.29,0-.48s0-.39,0-.6,0-.4,0-.56a2.22,2.22,0,0,0,0-.34L181,2.05l0-.4,1.72-.46.23.16c0,.44,0,.87,0,1.27s0,.83,0,1.26V6.36c0,.37,0,.68,0,.92s0,.43,0,.55l.69.17v.38Zm-1.22-.84a1.07,1.07,0,0,0,.51-.13,1.43,1.43,0,0,0,.5-.44V5a1.1,1.1,0,0,0-.47-.44,1.24,1.24,0,0,0-.54-.14,1.19,1.19,0,0,0-1,.47,2,2,0,0,0-.37,1.26,2,2,0,0,0,.39,1.29A1.23,1.23,0,0,0,180.88,7.93Z" transform="translate(-1.32 -1.19)"/><path class="cls-1" d="M188.62,8.74a2.35,2.35,0,0,1-1.16-.29,2.2,2.2,0,0,1-.81-.82,2.42,2.42,0,0,1-.3-1.22,2.59,2.59,0,0,1,.33-1.32,2.25,2.25,0,0,1,.83-.87,2,2,0,0,1,1.12-.3,1.68,1.68,0,0,1,1.36.57A2.3,2.3,0,0,1,190.47,6v.22h-3.23V5.73h2.42l-.14.18V5.64a1.38,1.38,0,0,0-.26-.9.86.86,0,0,0-.71-.33,1,1,0,0,0-.56.17,1.3,1.3,0,0,0-.42.52,2.14,2.14,0,0,0-.15.86v.16a1.94,1.94,0,0,0,.42,1.32,1.42,1.42,0,0,0,1.11.48,1.65,1.65,0,0,0,.68-.14,2,2,0,0,0,.58-.48l.29.27a2,2,0,0,1-1.88,1.17Z" transform="translate(-1.32 -1.19)"/><path class="cls-1" d="M193.2,8.7l-1.93-4.11-.5-.17,0-.42h2.3l0,.42-.66.17,1.39,3.06h-.3l1.29-3.07-.67-.17,0-.42H196l0,.42-.5.17-2,4.11Z" transform="translate(-1.32 -1.19)"/><path class="cls-1" d="M198.58,8.74a2.35,2.35,0,0,1-1.16-.29,2.06,2.06,0,0,1-.81-.82,2.42,2.42,0,0,1-.3-1.22,2.69,2.69,0,0,1,.32-1.32,2.34,2.34,0,0,1,.84-.87,2,2,0,0,1,1.12-.3,1.68,1.68,0,0,1,1.36.57A2.3,2.3,0,0,1,200.43,6v.22h-3.24V5.73h2.43l-.14.18V5.64a1.44,1.44,0,0,0-.26-.9.88.88,0,0,0-.72-.33,1,1,0,0,0-.55.17,1.3,1.3,0,0,0-.42.52,2.14,2.14,0,0,0-.15.86v.16a1.94,1.94,0,0,0,.42,1.32,1.4,1.4,0,0,0,1.11.48,1.57,1.57,0,0,0,.67-.14,2,2,0,0,0,.59-.48l.29.27a2.19,2.19,0,0,1-.79.88A2.14,2.14,0,0,1,198.58,8.74Z" transform="translate(-1.32 -1.19)"/><path class="cls-1" d="M201.1,8.65l0-.42.67-.17s0-.09,0-.18,0-.22,0-.38,0-.34,0-.56V6.12c0-.24,0-.46,0-.67a5.29,5.29,0,0,0-.08-.54L201,4.76V4.37l1.58-.43.19.16,0,.88h0a2.18,2.18,0,0,1,.64-.83,1.18,1.18,0,0,1,.64-.21.72.72,0,0,1,.44.13.49.49,0,0,1,.18.42.5.5,0,0,1-.19.42.72.72,0,0,1-.49.16.86.86,0,0,1-.39-.09,1.25,1.25,0,0,1-.37-.26l.22.06a1.62,1.62,0,0,0-.36.34,2.39,2.39,0,0,0-.31.53V6.6c0,.21,0,.41,0,.61s0,.37,0,.52,0,.26,0,.33l.94.15,0,.44Z" transform="translate(-1.32 -1.19)"/><path class="cls-1" d="M207.25,8.7l-1.91-4.11-.51-.17,0-.42h2.29l0,.42-.66.17,1.38,3.06ZM210.07,4l0,.42-.51.17-1.84,3.79-.85,1.79a1.94,1.94,0,0,1-.53.73,1,1,0,0,1-.61.2.78.78,0,0,1-.48-.14.45.45,0,0,1-.18-.36.49.49,0,0,1,.15-.35.8.8,0,0,1,.45-.24l1.08-.33-.56.53,1.22-2.33.12-.22,1.32-3.07-.66-.17,0-.42Z" transform="translate(-1.32 -1.19)"/><path class="cls-1" d="M214.48,8.7l-1.91-4.11-.51-.17,0-.42h2.29l0,.42-.66.17,1.38,3.06ZM217.3,4l0,.42-.5.17L215,8.38l-.85,1.79a1.94,1.94,0,0,1-.53.73,1,1,0,0,1-.62.2.75.75,0,0,1-.47-.14.45.45,0,0,1-.18-.36.49.49,0,0,1,.15-.35.8.8,0,0,1,.45-.24L214,9.68l-.56.53,1.22-2.33.12-.22,1.32-3.07-.67-.17,0-.42Z" transform="translate(-1.32 -1.19)"/><path class="cls-1" d="M219.87,8.74a2.35,2.35,0,0,1-1.16-.29,2.2,2.2,0,0,1-.81-.82,2.42,2.42,0,0,1-.3-1.22,2.59,2.59,0,0,1,.33-1.32,2.25,2.25,0,0,1,.83-.87,2,2,0,0,1,1.12-.3,1.68,1.68,0,0,1,1.36.57A2.3,2.3,0,0,1,221.72,6v.22h-3.24V5.73h2.43l-.14.18V5.64a1.44,1.44,0,0,0-.26-.9.87.87,0,0,0-.72-.33,1,1,0,0,0-.55.17,1.3,1.3,0,0,0-.42.52,2.14,2.14,0,0,0-.15.86v.16a1.94,1.94,0,0,0,.42,1.32,1.4,1.4,0,0,0,1.11.48,1.57,1.57,0,0,0,.67-.14,2,2,0,0,0,.59-.48l.29.27a2,2,0,0,1-1.88,1.17Z" transform="translate(-1.32 -1.19)"/><path class="cls-1" d="M224.16,8.74a1.6,1.6,0,0,1-.8-.19,1.52,1.52,0,0,1-.53-.47,1,1,0,0,1-.18-.56.85.85,0,0,1,.24-.61,1.85,1.85,0,0,1,.76-.41L225.31,6v-.5a.76.76,0,0,0-.16-.46,1.06,1.06,0,0,0-.41-.34,1.25,1.25,0,0,0-.57-.13.43.43,0,0,0-.34.1.78.78,0,0,0-.1.4l0,.52a1.23,1.23,0,0,1-.72,0,.42.42,0,0,1-.3-.41.58.58,0,0,1,.18-.38,2.09,2.09,0,0,1,.45-.36,3,3,0,0,1,.59-.3,2.37,2.37,0,0,1,.59-.16,2.06,2.06,0,0,1,1.35.42,1.45,1.45,0,0,1,.51,1.12l0,1.71c0,.15,0,.29,0,.41a1.41,1.41,0,0,0,0,.29l.7.13v.37l-.58.23-.3.1a.85.85,0,0,1-.25,0,.48.48,0,0,1-.48-.39l-.14-.45.18,0a3.09,3.09,0,0,1-.68.61A1.23,1.23,0,0,1,224.16,8.74Zm.37-.74a1,1,0,0,0,.41-.1,1.21,1.21,0,0,0,.37-.29V6.5l-1.06.26a.69.69,0,0,0-.37.2.56.56,0,0,0-.11.35.64.64,0,0,0,.22.48A.78.78,0,0,0,224.53,8Z" transform="translate(-1.32 -1.19)"/><path class="cls-1" d="M227.55,8.65l0-.42.66-.17a1.06,1.06,0,0,0,0-.18c0-.09,0-.22,0-.38s0-.34,0-.56V6.12c0-.24,0-.46,0-.67s0-.39-.07-.54l-.69-.15V4.37L229,3.94l.2.16-.05.88h0a2.18,2.18,0,0,1,.63-.83A1.21,1.21,0,0,1,230.5,4a.75.75,0,0,1,.45.13.49.49,0,0,1,.18.42.5.5,0,0,1-.2.42.7.7,0,0,1-.48.16.93.93,0,0,1-.4-.09,1.36,1.36,0,0,1-.36-.26l.21.06a1.59,1.59,0,0,0-.35.34,2.06,2.06,0,0,0-.31.53V6.6c0,.21,0,.41,0,.61s0,.37,0,.52,0,.26,0,.33l.94.15,0,.44Z" transform="translate(-1.32 -1.19)"/><path class="cls-1" d="M232.44,8.76a.77.77,0,0,1-.78-.76.77.77,0,0,1,.1-.38.78.78,0,0,1,.27-.27.8.8,0,0,1,.41-.1.79.79,0,0,1,.56.21.7.7,0,0,1,.22.54.73.73,0,0,1-.22.54A.76.76,0,0,1,232.44,8.76Z" transform="translate(-1.32 -1.19)"/><path class="cls-1" d="M2.32,21.25a3.72,3.72,0,0,0,.05-.53c0-.29,0-.65,0-1.08V17.77c0-.47,0-.84,0-1.14a2.92,2.92,0,0,0-.05-.5L1.66,16l0-.45H4.39A2.91,2.91,0,0,1,6,15.93a1.32,1.32,0,0,1,.55,1.13,1.25,1.25,0,0,1-.48,1,2.08,2.08,0,0,1-1.25.46l-.07-.08a2.74,2.74,0,0,1,1.57.45A1.35,1.35,0,0,1,6.89,20a1.51,1.51,0,0,1-.73,1.33,3.47,3.47,0,0,1-2,.49H1.68l0-.45ZM3.46,20c0,.31,0,.58,0,.82s0,.4,0,.47l.34.05.38,0A1.81,1.81,0,0,0,5.35,21a1.06,1.06,0,0,0,.38-.88,1.08,1.08,0,0,0-.41-.92,2,2,0,0,0-1.22-.31H3.61l-.28,0v-.6H4a1.45,1.45,0,0,0,1-.31,1.06,1.06,0,0,0,.36-.86,1,1,0,0,0-.34-.83,1.44,1.44,0,0,0-1-.29H3.48c0,.05,0,.21,0,.47s0,.56,0,.9Z" transform="translate(-1.32 -1.19)"/><path class="cls-1" d="M10.06,21.94a2.35,2.35,0,0,1-1.16-.29,2,2,0,0,1-.81-.82,2.42,2.42,0,0,1-.3-1.22,2.69,2.69,0,0,1,.32-1.32A2.42,2.42,0,0,1,9,17.42a2,2,0,0,1,1.12-.3,1.68,1.68,0,0,1,1.36.57,2.3,2.3,0,0,1,.48,1.53v.22H8.67v-.51H11.1l-.14.18v-.27a1.44,1.44,0,0,0-.26-.9.88.88,0,0,0-.72-.33,1,1,0,0,0-.55.17A1.16,1.16,0,0,0,9,18.3a2.14,2.14,0,0,0-.15.86v.16a1.94,1.94,0,0,0,.42,1.32,1.4,1.4,0,0,0,1.11.48,1.57,1.57,0,0,0,.67-.14,2,2,0,0,0,.59-.48l.29.27a2,2,0,0,1-1.88,1.17Z" transform="translate(-1.32 -1.19)"/><path class="cls-1" d="M14.38,21.94a3.75,3.75,0,0,1-.82-.09,2.56,2.56,0,0,1-.71-.26l0-1.18h.58l.22.78a1.56,1.56,0,0,0,.85.24.9.9,0,0,0,.57-.16.51.51,0,0,0,.21-.44.67.67,0,0,0-.2-.47,2.8,2.8,0,0,0-.79-.43,3.35,3.35,0,0,1-1.09-.63,1.13,1.13,0,0,1-.31-.82,1,1,0,0,1,.25-.7,1.63,1.63,0,0,1,.67-.49,2.59,2.59,0,0,1,1-.17,3.52,3.52,0,0,1,.64.05,2.58,2.58,0,0,1,.53.16l.12,1.15h-.56l-.24-.74a.88.88,0,0,0-.26-.1,1.06,1.06,0,0,0-.31,0,1,1,0,0,0-.59.17.54.54,0,0,0-.22.43.58.58,0,0,0,.25.49,5.06,5.06,0,0,0,.87.47,2.86,2.86,0,0,1,1,.62,1.16,1.16,0,0,1,.29.78,1.2,1.2,0,0,1-.53,1A2.32,2.32,0,0,1,14.38,21.94Z" transform="translate(-1.32 -1.19)"/><path class="cls-1" d="M20.44,21.11a1.46,1.46,0,0,1-.57.61,1.54,1.54,0,0,1-.81.22,1.65,1.65,0,0,1-1.12-.4,1.6,1.6,0,0,1-.44-1.23l0-2.52h-.76v-.26l1.52-1.32h.26l0,1.32v2.63a1.11,1.11,0,0,0,.23.76.91.91,0,0,0,.67.25,1.08,1.08,0,0,0,.43-.1,1.31,1.31,0,0,0,.37-.24Zm-2.37-3.32v-.58h2.05v.58Z" transform="translate(-1.32 -1.19)"/><path class="cls-1" d="M24.76,21.9,23,17.79l-.5-.17,0-.42h2.18l0,.42-.54.17,1.28,3.06H25.1l1.37-3.13.33.67-1.66,3.5Zm3.22,0-1.71-4.11-.54-.17,0-.42h2.17l0,.42-.55.17,1.2,3.06h-.28l1.25-3.07L29,17.62l0-.42h1.72l0,.42-.51.17-1.9,4.11Z" transform="translate(-1.32 -1.19)"/><path class="cls-1" d="M31,21.85l0-.43.72-.16a.89.89,0,0,0,0-.17c0-.08,0-.2,0-.35s0-.35,0-.6v-.76c0-.26,0-.49,0-.71s0-.41-.07-.56L30.94,18v-.39l1.68-.43.2.17c0,.22,0,.44,0,.66s0,.47,0,.76v1.35c0,.3,0,.56,0,.77a3.34,3.34,0,0,0,0,.41l.72.16,0,.43ZM32.26,16a.72.72,0,0,1-.53-.21.7.7,0,0,1,0-1,.72.72,0,0,1,.53-.21.67.67,0,0,1,.52.21.73.73,0,0,1,0,1A.67.67,0,0,1,32.26,16Z" transform="translate(-1.32 -1.19)"/><path class="cls-1" d="M35.82,21.94a3.81,3.81,0,0,1-.82-.09,2.56,2.56,0,0,1-.71-.26l0-1.18h.58l.23.78a1.53,1.53,0,0,0,.84.24.9.9,0,0,0,.57-.16.51.51,0,0,0,.21-.44.67.67,0,0,0-.2-.47,2.66,2.66,0,0,0-.79-.43,3.35,3.35,0,0,1-1.09-.63,1.18,1.18,0,0,1-.31-.82,1,1,0,0,1,.25-.7,1.6,1.6,0,0,1,.68-.49,2.56,2.56,0,0,1,1-.17,3.48,3.48,0,0,1,.63.05,2.91,2.91,0,0,1,.54.16l.11,1.15h-.55l-.25-.74a.88.88,0,0,0-.26-.1,1.06,1.06,0,0,0-.31,0,1,1,0,0,0-.59.17.54.54,0,0,0-.22.43.61.61,0,0,0,.25.49,6,6,0,0,0,.87.47,2.86,2.86,0,0,1,1,.62,1.16,1.16,0,0,1,.29.78,1.2,1.2,0,0,1-.53,1A2.32,2.32,0,0,1,35.82,21.94Z" transform="translate(-1.32 -1.19)"/><path class="cls-1" d="M38.36,21.85l0-.42.67-.17q0-.11,0-.36c0-.18,0-.4,0-.67s0-.58,0-.92V17.2c0-.27,0-.53,0-.78s0-.48,0-.67,0-.33,0-.41l-.8-.1,0-.39,1.68-.46.23.16c0,.22,0,.44,0,.66s0,.45,0,.7,0,.54,0,.86,0,.7,0,1.13h0a2.61,2.61,0,0,1,.73-.6,1.73,1.73,0,0,1,.81-.19,1.46,1.46,0,0,1,.77.21A1.55,1.55,0,0,1,43,18,2.35,2.35,0,0,1,43.18,19v1.14c0,.25,0,.47,0,.68a4.2,4.2,0,0,0,0,.42l.67.17,0,.42H41.54l0-.42.62-.17c0-.06,0-.13,0-.23s0-.21,0-.35,0-.29,0-.47V19.13a1.47,1.47,0,0,0-.15-.71.9.9,0,0,0-.37-.4,1,1,0,0,0-.5-.13,1.28,1.28,0,0,0-.61.15,1.5,1.5,0,0,0-.5.44v1.6c0,.32,0,.58,0,.78a1.31,1.31,0,0,0,0,.4l.65.17,0,.42Z" transform="translate(-1.32 -1.19)"/><path class="cls-1" d="M46.8,21.94a2.35,2.35,0,0,1-1.16-.29,2,2,0,0,1-.81-.82,2.42,2.42,0,0,1-.3-1.22,2.69,2.69,0,0,1,.32-1.32,2.42,2.42,0,0,1,.84-.87,2,2,0,0,1,1.12-.3,1.69,1.69,0,0,1,1.36.57,2.29,2.29,0,0,1,.47,1.53v.22H45.41v-.51h2.43l-.14.18v-.27a1.44,1.44,0,0,0-.26-.9.88.88,0,0,0-.72-.33,1,1,0,0,0-.55.17,1.16,1.16,0,0,0-.42.52,2.13,2.13,0,0,0-.16.86v.16A1.94,1.94,0,0,0,46,20.64a1.4,1.4,0,0,0,1.11.48A1.6,1.6,0,0,0,47.8,21a2.08,2.08,0,0,0,.59-.48l.29.27a2,2,0,0,1-1.88,1.17Z" transform="translate(-1.32 -1.19)"/><path class="cls-1" d="M51.12,21.94a3.91,3.91,0,0,1-.83-.09,2.49,2.49,0,0,1-.7-.26l-.05-1.18h.58l.22.78a1.56,1.56,0,0,0,.85.24.87.87,0,0,0,.56-.16.51.51,0,0,0,.21-.44.66.66,0,0,0-.19-.47,2.8,2.8,0,0,0-.79-.43,3.35,3.35,0,0,1-1.09-.63,1.13,1.13,0,0,1-.31-.82,1,1,0,0,1,.25-.7,1.63,1.63,0,0,1,.67-.49,2.59,2.59,0,0,1,1-.17,3.52,3.52,0,0,1,.64.05,2.58,2.58,0,0,1,.53.16l.12,1.15h-.56L52,17.74a1,1,0,0,0-.26-.1,1.1,1.1,0,0,0-.31,0,1,1,0,0,0-.59.17.51.51,0,0,0-.22.43.58.58,0,0,0,.25.49,5.06,5.06,0,0,0,.87.47,2.86,2.86,0,0,1,1,.62,1.16,1.16,0,0,1,.29.78,1.18,1.18,0,0,1-.54,1A2.27,2.27,0,0,1,51.12,21.94Z" transform="translate(-1.32 -1.19)"/><path class="cls-1" d="M58.25,21.94a2.49,2.49,0,0,1-1.25-.3,2.08,2.08,0,0,1-.84-.85,2.5,2.5,0,0,1-.3-1.24,2.34,2.34,0,0,1,.34-1.29,2.29,2.29,0,0,1,.88-.84,2.49,2.49,0,0,1,1.21-.3,2.31,2.31,0,0,1,1.19.3,2,2,0,0,1,.8.83,2.7,2.7,0,0,1,.28,1.24,2.46,2.46,0,0,1-.31,1.24,2.34,2.34,0,0,1-.83.88A2.15,2.15,0,0,1,58.25,21.94Zm.11-.56a.88.88,0,0,0,.57-.2,1.37,1.37,0,0,0,.38-.58,2.65,2.65,0,0,0,.13-.87,2.87,2.87,0,0,0-.35-1.5,1,1,0,0,0-.94-.58,1,1,0,0,0-.83.46A2.16,2.16,0,0,0,57,19.34a3.12,3.12,0,0,0,.17,1.05,1.77,1.77,0,0,0,.49.73A1.06,1.06,0,0,0,58.36,21.38Z" transform="translate(-1.32 -1.19)"/><path class="cls-1" d="M61.28,21.85l0-.42.66-.17a.71.71,0,0,0,0-.19,3.21,3.21,0,0,0,0-.36c0-.15,0-.34,0-.57v-.82q0-.34,0-.66c0-.21,0-.4-.07-.55L61.19,18v-.39l1.59-.43.22.18-.06.58h0a2.64,2.64,0,0,1,.74-.6,1.75,1.75,0,0,1,.81-.19,1.43,1.43,0,0,1,.78.21,1.5,1.5,0,0,1,.57.62A2.21,2.21,0,0,1,66.09,19v1.16c0,.25,0,.48,0,.69a2.14,2.14,0,0,0,0,.41l.67.17,0,.42H64.45l0-.42.62-.17c0-.06,0-.13,0-.23s0-.21,0-.35V19.13a1.48,1.48,0,0,0-.15-.72,1,1,0,0,0-.38-.4,1.07,1.07,0,0,0-.49-.12,1.32,1.32,0,0,0-.62.15,1.57,1.57,0,0,0-.49.44v1.6c0,.31,0,.57,0,.77a1.89,1.89,0,0,0,.05.41l.66.17,0,.42Z" transform="translate(-1.32 -1.19)"/><path class="cls-1" d="M71.45,21.9l-1.91-4.11L69,17.62l0-.42h2.28l0,.42-.67.17,1.38,3.06Zm2.83-4.7,0,.42-.51.17L72,21.58l-.85,1.79a2.05,2.05,0,0,1-.53.73,1.07,1.07,0,0,1-.62.2.78.78,0,0,1-.48-.14.45.45,0,0,1-.18-.36.49.49,0,0,1,.15-.35.84.84,0,0,1,.45-.24L71,22.88l-.56.53,1.22-2.33.12-.22,1.32-3.07-.66-.17,0-.42Z" transform="translate(-1.32 -1.19)"/><path class="cls-1" d="M77,21.94a2.49,2.49,0,0,1-1.25-.3,2.06,2.06,0,0,1-.83-.85,2.5,2.5,0,0,1-.3-1.24,2.43,2.43,0,0,1,.33-1.29,2.36,2.36,0,0,1,.88-.84,2.52,2.52,0,0,1,1.21-.3,2.38,2.38,0,0,1,1.2.3,2,2,0,0,1,.79.83,2.58,2.58,0,0,1,.28,1.24A2.46,2.46,0,0,1,79,20.73a2.34,2.34,0,0,1-.83.88A2.15,2.15,0,0,1,77,21.94Zm.11-.56a.88.88,0,0,0,.57-.2A1.37,1.37,0,0,0,78,20.6a2.65,2.65,0,0,0,.13-.87,2.78,2.78,0,0,0-.35-1.5,1,1,0,0,0-.94-.58,1,1,0,0,0-.83.46,2.16,2.16,0,0,0-.32,1.23,2.89,2.89,0,0,0,.18,1.05,1.67,1.67,0,0,0,.48.73A1.08,1.08,0,0,0,77.06,21.38Z" transform="translate(-1.32 -1.19)"/><path class="cls-1" d="M84.74,21l.69.17v.38L83.89,22l-.19-.14v-.7h0a2,2,0,0,1-.65.64,1.54,1.54,0,0,1-.72.18,1.68,1.68,0,0,1-1.22-.46,1.76,1.76,0,0,1-.49-1.37v-.92c0-.17,0-.35,0-.53s0-.36,0-.55L79.82,18v-.39l1.62-.43.23.18c0,.21,0,.46,0,.72s0,.55,0,.84V20a1.24,1.24,0,0,0,.29.91,1.17,1.17,0,0,0,1.3.13,1.32,1.32,0,0,0,.49-.48V19.34c0-.16,0-.31,0-.46s0-.28,0-.42a1.83,1.83,0,0,0,0-.35L82.84,18v-.39l1.65-.43.21.16c0,.18,0,.35,0,.5s0,.32,0,.49v1.35q0,.48,0,.84C84.71,20.71,84.72,20.9,84.74,21Z" transform="translate(-1.32 -1.19)"/><path class="cls-1" d="M85.94,21.85l0-.42.67-.17s0-.09,0-.18,0-.22,0-.38,0-.34,0-.56v-.82c0-.24,0-.46,0-.67s0-.39-.07-.54L85.86,18v-.39l1.57-.43.2.16,0,.88h0a2.09,2.09,0,0,1,.64-.83,1.16,1.16,0,0,1,.64-.21.74.74,0,0,1,.44.13.49.49,0,0,1,.18.42.56.56,0,0,1-.19.43.77.77,0,0,1-.49.15.93.93,0,0,1-.4-.09,1.36,1.36,0,0,1-.36-.26l.21.06a1.59,1.59,0,0,0-.35.34,2.06,2.06,0,0,0-.31.53v.94c0,.21,0,.41,0,.61s0,.37,0,.52,0,.26,0,.33l.94.15,0,.44Z" transform="translate(-1.32 -1.19)"/><path class="cls-1" d="M94.09,21.9,92.3,17.79l-.5-.17,0-.42H94l0,.42-.54.17,1.28,3.06h-.33l1.37-3.13.33.67-1.66,3.5Zm3.22,0L95.6,17.79l-.54-.17,0-.42h2.17l0,.42-.55.17,1.2,3.06h-.28l1.25-3.07-.56-.17,0-.42h1.72l0,.42-.51.17-1.9,4.11Z" transform="translate(-1.32 -1.19)"/><path class="cls-1" d="M102.67,21.94a2.35,2.35,0,0,1-1.16-.29,2,2,0,0,1-.81-.82,2.42,2.42,0,0,1-.3-1.22,2.69,2.69,0,0,1,.32-1.32,2.42,2.42,0,0,1,.84-.87,2,2,0,0,1,1.12-.3,1.69,1.69,0,0,1,1.36.57,2.29,2.29,0,0,1,.47,1.53v.22h-3.23v-.51h2.43l-.14.18v-.27a1.44,1.44,0,0,0-.26-.9.88.88,0,0,0-.72-.33,1,1,0,0,0-.55.17,1.16,1.16,0,0,0-.42.52,2.13,2.13,0,0,0-.16.86v.16a1.94,1.94,0,0,0,.43,1.32,1.4,1.4,0,0,0,1.11.48,1.6,1.6,0,0,0,.67-.14,2.08,2.08,0,0,0,.59-.48l.29.27a2,2,0,0,1-1.88,1.17Z" transform="translate(-1.32 -1.19)"/><path class="cls-1" d="M109,22l-.2-.14v-.7h0a1.94,1.94,0,0,1-.64.64,1.49,1.49,0,0,1-.7.18,2,2,0,0,1-1.08-.29,2.09,2.09,0,0,1-.77-.79,2.3,2.3,0,0,1-.28-1.17,2.78,2.78,0,0,1,.2-1.06,2.49,2.49,0,0,1,.56-.81,2.45,2.45,0,0,1,.8-.52,2.32,2.32,0,0,1,.9-.17,3.51,3.51,0,0,1,.55.05,1.54,1.54,0,0,1,.47.19c0-.13,0-.29,0-.48s0-.39,0-.6,0-.4,0-.56,0-.28,0-.34l-.83-.14,0-.4,1.72-.46.22.16c0,.44,0,.87,0,1.27s0,.83,0,1.26v2.48c0,.37,0,.68,0,.92s0,.43,0,.55l.69.17v.38Zm-1.22-.84a1.14,1.14,0,0,0,.52-.13,1.41,1.41,0,0,0,.49-.44V18.23a1.08,1.08,0,0,0-.46-.44,1.28,1.28,0,0,0-.55-.14,1.17,1.17,0,0,0-1,.48,2,2,0,0,0-.36,1.25,2,2,0,0,0,.39,1.29A1.2,1.2,0,0,0,107.77,21.13Z" transform="translate(-1.32 -1.19)"/><path class="cls-1" d="M114.85,22l-.21-.14,0-.7h0a1.94,1.94,0,0,1-.64.64,1.46,1.46,0,0,1-.7.18,2.07,2.07,0,0,1-1.84-1.08,2.31,2.31,0,0,1-.29-1.17,2.61,2.61,0,0,1,.21-1.06,2.22,2.22,0,0,1,.56-.81,2.41,2.41,0,0,1,.79-.52,2.36,2.36,0,0,1,.9-.17,3.51,3.51,0,0,1,.55.05,1.36,1.36,0,0,1,.47.19v-.48c0-.19,0-.39,0-.6s0-.4,0-.56,0-.28,0-.34l-.83-.14,0-.4,1.72-.46.23.16c0,.44,0,.87,0,1.27s0,.83,0,1.26v2.48c0,.37,0,.68,0,.92s0,.43,0,.55l.68.17v.38Zm-1.23-.84a1.08,1.08,0,0,0,.52-.13,1.33,1.33,0,0,0,.49-.44V18.23a1,1,0,0,0-.46-.44,1.25,1.25,0,0,0-.55-.14,1.16,1.16,0,0,0-1,.48,1.94,1.94,0,0,0-.37,1.25,2,2,0,0,0,.39,1.29A1.2,1.2,0,0,0,113.62,21.13Z" transform="translate(-1.32 -1.19)"/><path class="cls-1" d="M116.85,21.85l0-.43.71-.16a.89.89,0,0,0,0-.17c0-.08,0-.2,0-.35s0-.35,0-.6v-.76c0-.26,0-.49,0-.71s0-.41-.07-.56l-.72-.15v-.39l1.68-.43.2.17c0,.22,0,.44,0,.66s0,.47,0,.76v1.35c0,.3,0,.56,0,.77s0,.35,0,.41l.72.16,0,.43ZM118.1,16a.72.72,0,0,1-.53-.21.7.7,0,0,1,0-1,.72.72,0,0,1,.53-.21.71.71,0,1,1,0,1.42Z" transform="translate(-1.32 -1.19)"/><path class="cls-1" d="M119.86,21.85l0-.42.67-.17a1.83,1.83,0,0,0,0-.19,3.21,3.21,0,0,0,0-.36c0-.15,0-.34,0-.57v-.82c0-.23,0-.45,0-.66s0-.4-.07-.55l-.69-.15v-.39l1.59-.43.21.18,0,.58h0a2.51,2.51,0,0,1,.74-.6,1.73,1.73,0,0,1,.81-.19,1.37,1.37,0,0,1,.77.21,1.46,1.46,0,0,1,.58.62,2.33,2.33,0,0,1,.22,1.05v1.16c0,.25,0,.48,0,.69a2.14,2.14,0,0,0,0,.41l.67.17,0,.42H123l0-.42.63-.17c0-.06,0-.13,0-.23s0-.21,0-.35,0-.29,0-.47V19.13a1.48,1.48,0,0,0-.15-.72,1,1,0,0,0-.38-.4,1.07,1.07,0,0,0-.49-.12A1.32,1.32,0,0,0,122,18a1.57,1.57,0,0,0-.49.44v1.6c0,.31,0,.57,0,.77a1.4,1.4,0,0,0,0,.41l.66.17,0,.42Z" transform="translate(-1.32 -1.19)"/><path class="cls-1" d="M128.11,24.3a3.49,3.49,0,0,1-1.63-.32,1,1,0,0,1-.6-.86.93.93,0,0,1,.32-.67,3.39,3.39,0,0,1,1-.59l.43.08a1.63,1.63,0,0,0-.51.46,1,1,0,0,0-.18.56.72.72,0,0,0,.34.62,1.68,1.68,0,0,0,.93.23,1.86,1.86,0,0,0,1.08-.29.85.85,0,0,0,.42-.72.57.57,0,0,0-.24-.5,1.82,1.82,0,0,0-.82-.21l-1.2-.1-.14,0a1.19,1.19,0,0,1-.73-.21.6.6,0,0,1-.28-.52.83.83,0,0,1,.3-.59,2.6,2.6,0,0,1,.81-.49l.16.21a1.33,1.33,0,0,0-.27.22.35.35,0,0,0-.09.22.28.28,0,0,0,.12.23.62.62,0,0,0,.33.11l1.46.15a2.09,2.09,0,0,1,1.16.4,1.06,1.06,0,0,1,.39.87,1.39,1.39,0,0,1-.33.9,2.25,2.25,0,0,1-.91.63A3.47,3.47,0,0,1,128.11,24.3Zm.07-3.76a2.52,2.52,0,0,1-1.05-.21,1.7,1.7,0,0,1-.71-.58,1.46,1.46,0,0,1-.26-.84,1.63,1.63,0,0,1,.27-.92,1.9,1.9,0,0,1,.73-.64,2.2,2.2,0,0,1,1-.23,2.25,2.25,0,0,1,1,.22,1.83,1.83,0,0,1,.7.62,1.6,1.6,0,0,1,0,1.75,1.77,1.77,0,0,1-.71.61A2.25,2.25,0,0,1,128.18,20.54Zm.06-.49a.79.79,0,0,0,.65-.31,1.35,1.35,0,0,0,.24-.84,1.6,1.6,0,0,0-.26-.95.82.82,0,0,0-.69-.35.8.8,0,0,0-.66.33,1.41,1.41,0,0,0-.25.88,1.39,1.39,0,0,0,.27.89A.84.84,0,0,0,128.24,20.05ZM130.8,18l-1.34-.1-.41-.45,1.75-.19Z" transform="translate(-1.32 -1.19)"/><path class="cls-1" d="M134.15,21.25a3.72,3.72,0,0,0,0-.53c0-.29,0-.65,0-1.08V17.77c0-.47,0-.84,0-1.14a2.92,2.92,0,0,0,0-.5l-.66-.13,0-.45h2.71a2.91,2.91,0,0,1,1.63.38,1.32,1.32,0,0,1,.55,1.13,1.25,1.25,0,0,1-.48,1,2.08,2.08,0,0,1-1.25.46l-.07-.08a2.74,2.74,0,0,1,1.57.45,1.35,1.35,0,0,1,.55,1.14,1.51,1.51,0,0,1-.73,1.33,3.47,3.47,0,0,1-2,.49h-2.49l0-.45Zm1.14-1.3c0,.31,0,.58,0,.82s0,.4,0,.47l.35.05.37,0a1.84,1.84,0,0,0,1.14-.3,1.06,1.06,0,0,0,.38-.88,1.08,1.08,0,0,0-.41-.92,2,2,0,0,0-1.22-.31h-.49l-.28,0v-.6h.71a1.45,1.45,0,0,0,1-.31,1.2,1.2,0,0,0,0-1.69,1.44,1.44,0,0,0-1-.29h-.62c0,.05,0,.21,0,.47s0,.56,0,.9Z" transform="translate(-1.32 -1.19)"/><path class="cls-1" d="M139.49,21.85l0-.42.67-.17s0-.09,0-.18,0-.22,0-.38,0-.34,0-.56v-.82c0-.24,0-.46,0-.67a3.57,3.57,0,0,0-.07-.54l-.68-.15v-.39l1.58-.43.19.16,0,.88h0a2.18,2.18,0,0,1,.64-.83,1.18,1.18,0,0,1,.64-.21.74.74,0,0,1,.44.13.49.49,0,0,1,.18.42.56.56,0,0,1-.19.43.77.77,0,0,1-.49.15.93.93,0,0,1-.4-.09,1.36,1.36,0,0,1-.36-.26l.21.06a1.59,1.59,0,0,0-.35.34,2.39,2.39,0,0,0-.31.53v.94c0,.21,0,.41,0,.61s0,.37,0,.52,0,.26,0,.33l.94.15,0,.44Z" transform="translate(-1.32 -1.19)"/><path class="cls-1" d="M143.5,21.85l0-.43.72-.16s0-.08,0-.17,0-.2,0-.35,0-.35,0-.6v-.76c0-.26,0-.49,0-.71s0-.41-.07-.56l-.72-.15v-.39l1.68-.43.2.17c0,.22,0,.44,0,.66s0,.47,0,.76v1.35c0,.3,0,.56,0,.77s0,.35,0,.41l.72.16,0,.43ZM144.76,16a.73.73,0,0,1-.54-.21.7.7,0,0,1,0-1,.73.73,0,0,1,.54-.21.7.7,0,0,1,.52.21.73.73,0,0,1,0,1A.7.7,0,0,1,144.76,16Z" transform="translate(-1.32 -1.19)"/><path class="cls-1" d="M150.32,22l-.2-.14v-.7h0a1.94,1.94,0,0,1-.64.64,1.46,1.46,0,0,1-.7.18,2.07,2.07,0,0,1-1.84-1.08,2.31,2.31,0,0,1-.29-1.17,2.61,2.61,0,0,1,.21-1.06,2.22,2.22,0,0,1,.56-.81,2.37,2.37,0,0,1,1.69-.69,3.41,3.41,0,0,1,.55.05,1.5,1.5,0,0,1,.48.19c0-.13,0-.29,0-.48s0-.39,0-.6,0-.4,0-.56,0-.28,0-.34l-.82-.14,0-.4,1.72-.46.23.16c0,.44,0,.87,0,1.27s0,.83,0,1.26v2.48c0,.37,0,.68,0,.92s0,.43,0,.55l.69.17v.38Zm-1.22-.84a1.07,1.07,0,0,0,.51-.13,1.43,1.43,0,0,0,.5-.44V18.23a1.1,1.1,0,0,0-.47-.44,1.24,1.24,0,0,0-.54-.14,1.17,1.17,0,0,0-1,.48,1.94,1.94,0,0,0-.37,1.25,2,2,0,0,0,.39,1.29A1.23,1.23,0,0,0,149.1,21.13Z" transform="translate(-1.32 -1.19)"/><path class="cls-1" d="M154.77,21.94a2.35,2.35,0,0,1-1.16-.29,2,2,0,0,1-.81-.82,2.42,2.42,0,0,1-.3-1.22,2.69,2.69,0,0,1,.32-1.32,2.42,2.42,0,0,1,.84-.87,2,2,0,0,1,1.12-.3,1.69,1.69,0,0,1,1.36.57,2.29,2.29,0,0,1,.47,1.53v.22h-3.23v-.51h2.43l-.14.18v-.27a1.44,1.44,0,0,0-.26-.9.88.88,0,0,0-.72-.33,1,1,0,0,0-.55.17,1.16,1.16,0,0,0-.42.52,2.13,2.13,0,0,0-.16.86v.16a1.94,1.94,0,0,0,.43,1.32,1.4,1.4,0,0,0,1.11.48,1.6,1.6,0,0,0,.67-.14,2.08,2.08,0,0,0,.59-.48l.29.27a2,2,0,0,1-1.88,1.17Z" transform="translate(-1.32 -1.19)"/><path class="cls-1" d="M161.79,21.94a3.27,3.27,0,0,1-1.31-.23,1.77,1.77,0,0,1-.78-.62,1.51,1.51,0,0,1-.26-.84,1.63,1.63,0,0,1,.21-.78,2.46,2.46,0,0,1,.68-.75,5.32,5.32,0,0,1,1.25-.67,6,6,0,0,0,1-.63,2.22,2.22,0,0,0,.52-.63,1.6,1.6,0,0,0,.15-.7.94.94,0,0,0-.21-.67.72.72,0,0,0-.51-.22.84.84,0,0,0-.62.28,1.24,1.24,0,0,0-.25.82,2.64,2.64,0,0,0,.08.62,3.1,3.1,0,0,0,.24.63,6.23,6.23,0,0,0,.42.71c.18.26.38.55.62.87a9.67,9.67,0,0,0,1,1.16,3.67,3.67,0,0,0,.9.7,2,2,0,0,0,.92.23,1.55,1.55,0,0,0,.53-.09,2.19,2.19,0,0,0,.49-.27l.25.31a1.87,1.87,0,0,1-.71.57,2.34,2.34,0,0,1-1,.2,2.93,2.93,0,0,1-1.18-.24,3.53,3.53,0,0,1-1.05-.75,10.59,10.59,0,0,1-1.09-1.27c-.33-.47-.61-.88-.83-1.22a4.53,4.53,0,0,1-.46-.95,2.74,2.74,0,0,1-.15-.9,2,2,0,0,1,.25-1,1.8,1.8,0,0,1,.68-.69,1.93,1.93,0,0,1,1-.25,1.68,1.68,0,0,1,1.14.37,1.24,1.24,0,0,1,.45,1,1.69,1.69,0,0,1-.23.84,2.66,2.66,0,0,1-.72.76,8.8,8.8,0,0,1-1.33.79,2.72,2.72,0,0,0-1,.73,1.45,1.45,0,0,0-.27.84,1.1,1.1,0,0,0,.7,1,2.05,2.05,0,0,0,.83.15,2.64,2.64,0,0,0,1.1-.23,2.49,2.49,0,0,0,.88-.76,5.78,5.78,0,0,0,.7-1.41l-.75-.11,0-.46h2.32l0,.46-.75.12a9.45,9.45,0,0,1-1.09,1.72,3.93,3.93,0,0,1-1.26,1A3.39,3.39,0,0,1,161.79,21.94Z" transform="translate(-1.32 -1.19)"/><path class="cls-1" d="M173,22a4.27,4.27,0,0,1-1.79-.36A2.9,2.9,0,0,1,170,20.52a3.17,3.17,0,0,1-.45-1.74,3.41,3.41,0,0,1,.25-1.32,3.36,3.36,0,0,1,.73-1.05,3.29,3.29,0,0,1,1.14-.71,4.25,4.25,0,0,1,1.52-.25,5.34,5.34,0,0,1,1,.09,3.92,3.92,0,0,1,.85.25l.06,1.44-.53.05-.32-1a1.58,1.58,0,0,0-.53-.2,3.09,3.09,0,0,0-.58-.06,2.26,2.26,0,0,0-1.27.33,2,2,0,0,0-.73.9,3.42,3.42,0,0,0-.23,1.27,3.31,3.31,0,0,0,.31,1.51,2.2,2.2,0,0,0,2,1.28,2.51,2.51,0,0,0,.57-.08,1.55,1.55,0,0,0,.57-.25l-.24.6V20.48c0-.21,0-.4,0-.58s0-.32,0-.41l-.74-.13,0-.46h2.28l0,.44-.5.14v.77c0,.2,0,.39,0,.56s0,.35,0,.55a3.84,3.84,0,0,1-1,.43A4.09,4.09,0,0,1,173,22Z" transform="translate(-1.32 -1.19)"/><path class="cls-1" d="M176.31,21.85l0-.42.67-.17a1.55,1.55,0,0,0,0-.18,3.47,3.47,0,0,0,0-.38c0-.15,0-.34,0-.56v-.82c0-.24,0-.46,0-.67s0-.39-.07-.54l-.69-.15v-.39l1.58-.43.19.16,0,.88h0a2.18,2.18,0,0,1,.64-.83,1.18,1.18,0,0,1,.64-.21.72.72,0,0,1,.44.13.49.49,0,0,1,.18.42.53.53,0,0,1-.19.43.76.76,0,0,1-.48.15.87.87,0,0,1-.4-.09,1.57,1.57,0,0,1-.37-.26l.22.06a1.87,1.87,0,0,0-.36.34,2.39,2.39,0,0,0-.31.53v.94c0,.21,0,.41,0,.61s0,.37,0,.52a2.38,2.38,0,0,0,0,.33l.93.15,0,.44Z" transform="translate(-1.32 -1.19)"/><path class="cls-1" d="M182.63,21.94a2.51,2.51,0,0,1-1.25-.3,2.12,2.12,0,0,1-.83-.85,2.5,2.5,0,0,1-.3-1.24,2.43,2.43,0,0,1,.33-1.29,2.32,2.32,0,0,1,.89-.84,2.49,2.49,0,0,1,1.21-.3,2.34,2.34,0,0,1,1.19.3,2,2,0,0,1,.79.83,2.8,2.8,0,0,1,0,2.48,2.45,2.45,0,0,1-.84.88A2.15,2.15,0,0,1,182.63,21.94Zm.11-.56a.93.93,0,0,0,.58-.2,1.35,1.35,0,0,0,.37-.58,2.65,2.65,0,0,0,.13-.87,2.87,2.87,0,0,0-.34-1.5,1.06,1.06,0,0,0-.94-.58,1,1,0,0,0-.84.46,2.16,2.16,0,0,0-.31,1.23,2.89,2.89,0,0,0,.17,1.05,1.67,1.67,0,0,0,.48.73A1.08,1.08,0,0,0,182.74,21.38Z" transform="translate(-1.32 -1.19)"/><path class="cls-1" d="M188.18,21.94a2.55,2.55,0,0,1-1.26-.3,2.12,2.12,0,0,1-.83-.85,2.5,2.5,0,0,1-.3-1.24,2.43,2.43,0,0,1,.33-1.29,2.39,2.39,0,0,1,.89-.84,2.49,2.49,0,0,1,1.21-.3,2.31,2.31,0,0,1,1.19.3,2.06,2.06,0,0,1,.8.83,2.7,2.7,0,0,1,.28,1.24,2.56,2.56,0,0,1-.31,1.24,2.34,2.34,0,0,1-.83.88A2.15,2.15,0,0,1,188.18,21.94Zm.1-.56a.91.91,0,0,0,.58-.2,1.35,1.35,0,0,0,.37-.58,2.65,2.65,0,0,0,.14-.87,2.87,2.87,0,0,0-.35-1.5,1.05,1.05,0,0,0-.94-.58,1,1,0,0,0-.83.46,2.08,2.08,0,0,0-.32,1.23,3.12,3.12,0,0,0,.17,1.05,1.86,1.86,0,0,0,.48.73A1.1,1.1,0,0,0,188.28,21.38Z" transform="translate(-1.32 -1.19)"/><path class="cls-1" d="M191.22,21.85l0-.42.67-.17a1.55,1.55,0,0,0,0-.18,3.21,3.21,0,0,0,0-.36c0-.15,0-.35,0-.58v-.82c0-.15,0-.3,0-.45a5.12,5.12,0,0,0-.08-.76l-.69-.15v-.39l1.59-.43.21.18-.05.59h0a2.2,2.2,0,0,1,.7-.62,1.69,1.69,0,0,1,.75-.18,1.38,1.38,0,0,1,.75.21,1.54,1.54,0,0,1,.59.62,2.28,2.28,0,0,1,.22,1.08l0,1.13c0,.25,0,.47,0,.68a1.55,1.55,0,0,0,.05.42l.63.17,0,.42h-2.25l0-.42.58-.17c0-.06,0-.13,0-.23s0-.21,0-.35v-1.6a1.49,1.49,0,0,0-.13-.69.83.83,0,0,0-.36-.38.94.94,0,0,0-.47-.12,1.3,1.3,0,0,0-.58.14,1.39,1.39,0,0,0-.49.45v1.6c0,.3,0,.56,0,.77a1.89,1.89,0,0,0,.05.41l.62.17,0,.42Zm6.13,0,0-.42.59-.17a1.3,1.3,0,0,0,0-.23c0-.1,0-.21,0-.35s0-.29,0-.47V19.12a1.62,1.62,0,0,0-.14-.72,1,1,0,0,0-.38-.39,1,1,0,0,0-.48-.12,1.32,1.32,0,0,0-.62.15,1.57,1.57,0,0,0-.51.49l-.23-.4a2.84,2.84,0,0,1,.8-.76,1.71,1.71,0,0,1,.91-.25,1.6,1.6,0,0,1,.84.22,1.47,1.47,0,0,1,.59.64,2.19,2.19,0,0,1,.21,1v1.19c0,.25,0,.47,0,.68s0,.35,0,.42l.67.17,0,.42Z" transform="translate(-1.32 -1.19)"/><path class="cls-1" d="M201.24,22a.77.77,0,0,1-.78-.76.77.77,0,0,1,.1-.38.87.87,0,0,1,.27-.27.8.8,0,0,1,.41-.1.79.79,0,0,1,.56.21.7.7,0,0,1,.22.54.73.73,0,0,1-.22.54A.76.76,0,0,1,201.24,22Z" transform="translate(-1.32 -1.19)"/><path class="cls-1" d="M210.39,15.5l.25,1.79-.54.05-.44-1.21a.66.66,0,0,0-.21,0h-.86l-.29,0c0,.05,0,.19,0,.4s0,.46,0,.75v2.15c0,.44,0,.83,0,1.16s0,.56,0,.68l.92.13,0,.47h-2.92l0-.47.92-.13c0-.12,0-.35,0-.68s0-.72,0-1.16v-2.9c0-.21,0-.35,0-.4l-.28,0H206l-.21,0-.43,1.23-.53-.06.22-1.8.28,0h4.79Z" transform="translate(-1.32 -1.19)"/><path class="cls-1" d="M211.1,21.85l0-.42.66-.17a2,2,0,0,0,0-.36c0-.18,0-.4,0-.67s0-.58,0-.92V18c0-.24,0-.5,0-.76s0-.53,0-.78,0-.48,0-.67,0-.33,0-.41l-.79-.1,0-.39,1.67-.46.24.16c0,.22,0,.44,0,.66s0,.45,0,.7,0,.54,0,.86,0,.7,0,1.13h0a2.48,2.48,0,0,1,.73-.6,1.71,1.71,0,0,1,.8-.19,1.52,1.52,0,0,1,.78.21,1.6,1.6,0,0,1,.57.63,2.22,2.22,0,0,1,.22,1.06v1.14c0,.25,0,.47,0,.68a2.4,2.4,0,0,0,0,.42l.66.17,0,.42h-2.33l0-.42.62-.17c0-.06,0-.13,0-.23s0-.21,0-.35V19.13a1.6,1.6,0,0,0-.14-.71.92.92,0,0,0-.38-.4,1,1,0,0,0-.5-.13,1.31,1.31,0,0,0-.61.15,1.47,1.47,0,0,0-.49.44v1.6c0,.32,0,.58,0,.78a1.76,1.76,0,0,0,0,.4l.66.17,0,.42Z" transform="translate(-1.32 -1.19)"/><path class="cls-1" d="M218.9,21.94a1.6,1.6,0,0,1-.8-.19,1.32,1.32,0,0,1-.52-.47,1,1,0,0,1-.19-.56.85.85,0,0,1,.24-.61,1.85,1.85,0,0,1,.76-.41l1.66-.53v-.5a.7.7,0,0,0-.16-.46,1.06,1.06,0,0,0-.41-.34,1.2,1.2,0,0,0-.57-.13c-.17,0-.28,0-.33.1a.68.68,0,0,0-.11.4l0,.52a1.26,1.26,0,0,1-.73,0,.41.41,0,0,1-.29-.41.56.56,0,0,1,.17-.38,2.09,2.09,0,0,1,.45-.36,3.27,3.27,0,0,1,.59-.3,2.37,2.37,0,0,1,.59-.16,2,2,0,0,1,1.35.42,1.45,1.45,0,0,1,.51,1.12l0,1.71c0,.15,0,.29,0,.41a1.41,1.41,0,0,0,.05.29l.7.13v.37l-.58.23a2.63,2.63,0,0,1-.3.1.81.81,0,0,1-.25,0,.48.48,0,0,1-.48-.39l-.14-.45.18,0a2.88,2.88,0,0,1-.68.61A1.23,1.23,0,0,1,218.9,21.94Zm.37-.74a.83.83,0,0,0,.41-.1,1.21,1.21,0,0,0,.37-.29V19.7L219,20a.69.69,0,0,0-.37.2.56.56,0,0,0-.11.35.65.65,0,0,0,.23.48A.76.76,0,0,0,219.27,21.2Z" transform="translate(-1.32 -1.19)"/><path class="cls-1" d="M222.28,21.85l0-.42.67-.17s0-.1,0-.19,0-.21,0-.36,0-.34,0-.57v-.82q0-.34,0-.66a3.72,3.72,0,0,0-.07-.55L222.2,18v-.39l1.59-.43.21.18-.05.58h0a2.61,2.61,0,0,1,.73-.6,1.8,1.8,0,0,1,.82-.19,1.4,1.4,0,0,1,.77.21,1.38,1.38,0,0,1,.57.62,2.21,2.21,0,0,1,.22,1.05v1.16c0,.25,0,.48,0,.69a1.53,1.53,0,0,0,0,.41l.66.17,0,.42h-2.33l0-.42.62-.17a1.3,1.3,0,0,0,0-.23,3.32,3.32,0,0,0,0-.35c0-.13,0-.29,0-.47V19.13a1.48,1.48,0,0,0-.15-.72,1,1,0,0,0-.39-.4,1,1,0,0,0-.49-.12,1.28,1.28,0,0,0-.61.15,1.47,1.47,0,0,0-.49.44v1.6c0,.31,0,.57,0,.77a2.91,2.91,0,0,0,.05.41l.67.17,0,.42Z" transform="translate(-1.32 -1.19)"/><path class="cls-1" d="M228.36,21.85l0-.42.61-.17a1.52,1.52,0,0,0,0-.37c0-.17,0-.39,0-.63s0-.52,0-.8V18c0-.26,0-.53,0-.8s0-.53,0-.78,0-.45,0-.63,0-.32,0-.4l-.79-.1,0-.39,1.67-.46.24.16c0,.23,0,.45,0,.67s0,.46,0,.7,0,.51,0,.8v1l0,2.57c0,.19,0,.35,0,.49a3,3,0,0,0,0,.34c0,.09,0,.16,0,.19l.66.17,0,.42Zm5.13,0h-1.41c-.12-.16-.22-.29-.3-.38a3.27,3.27,0,0,0-.24-.27l-1.42-1.55h-.29v-.3l.39-.11,1.53-1.48-.71-.13,0-.43h2.22l0,.43-.7.13-1.88,1.65.14-.4,1.56,1.69.34.35c.11.12.21.21.28.28l.46.09Z" transform="translate(-1.32 -1.19)"/><path class="cls-1" d="M10.59,35.1,8.67,31l-.5-.17,0-.42h2.29l0,.42L9.84,31l1.39,3.06Zm2.82-4.7,0,.42-.5.17L11.1,34.78l-.85,1.79a2.05,2.05,0,0,1-.53.73,1,1,0,0,1-.62.2.78.78,0,0,1-.48-.14A.48.48,0,0,1,8.45,37a.52.52,0,0,1,.14-.35.87.87,0,0,1,.46-.24l1.07-.33-.56.53,1.23-2.33.12-.22L12.23,31l-.67-.17,0-.42Z" transform="translate(-1.32 -1.19)"/><path class="cls-1" d="M16.09,35.14a2.55,2.55,0,0,1-1.26-.3A2.12,2.12,0,0,1,14,34a2.5,2.5,0,0,1-.3-1.24A2.43,2.43,0,0,1,14,31.46a2.39,2.39,0,0,1,.89-.84,2.49,2.49,0,0,1,1.21-.3,2.31,2.31,0,0,1,1.19.3,2.06,2.06,0,0,1,.8.83,2.7,2.7,0,0,1,.27,1.24,2.56,2.56,0,0,1-.3,1.24,2.42,2.42,0,0,1-.83.88A2.2,2.2,0,0,1,16.09,35.14Zm.1-.56a.91.91,0,0,0,.58-.2,1.35,1.35,0,0,0,.37-.58,2.65,2.65,0,0,0,.14-.87,2.87,2.87,0,0,0-.35-1.5,1.05,1.05,0,0,0-.94-.58,1,1,0,0,0-.83.46,2.08,2.08,0,0,0-.32,1.23A3.12,3.12,0,0,0,15,33.59a1.86,1.86,0,0,0,.48.73A1.08,1.08,0,0,0,16.19,34.58Z" transform="translate(-1.32 -1.19)"/><path class="cls-1" d="M23.87,34.23l.69.17v.38L23,35.17,22.83,35v-.7h0a1.87,1.87,0,0,1-.65.64,1.5,1.5,0,0,1-.71.18,1.69,1.69,0,0,1-1.23-.46,1.8,1.8,0,0,1-.48-1.37v-.92c0-.17,0-.35,0-.53s0-.36,0-.55L19,31.16v-.39l1.63-.43.22.18c0,.21,0,.46,0,.72s0,.55,0,.84v1.09a1.2,1.2,0,0,0,.29.91,1.05,1.05,0,0,0,.76.27,1.14,1.14,0,0,0,.54-.14,1.37,1.37,0,0,0,.48-.48V32.54c0-.16,0-.31,0-.46s0-.28,0-.42,0-.24,0-.35L22,31.16v-.39l1.66-.43.2.16c0,.18,0,.35,0,.5v1.84c0,.32,0,.6,0,.84S23.86,34.1,23.87,34.23Z" transform="translate(-1.32 -1.19)"/><path class="cls-1" d="M27.05,31v-.39l.78-.2H30V31Zm2.69,4H27.18l0-.42.67-.17c0-.08,0-.16,0-.25a3.11,3.11,0,0,0,0-.32v-4a2.9,2.9,0,0,1,.23-1.21,1.9,1.9,0,0,1,.64-.8,1.64,1.64,0,0,1,.95-.29,1.46,1.46,0,0,1,.78.2.62.62,0,0,1,.31.51.35.35,0,0,1-.12.28.39.39,0,0,1-.28.1.79.79,0,0,1-.55-.25l-.52-.5.32.06a.63.63,0,0,0-.58.4,2.67,2.67,0,0,0-.2,1.15v.92l0,.58v1.68c0,.33,0,.66,0,1s0,.59,0,.79l.88.16Z" transform="translate(-1.32 -1.19)"/><path class="cls-1" d="M32.94,35.14a2.49,2.49,0,0,1-1.25-.3,2.06,2.06,0,0,1-.83-.85,2.4,2.4,0,0,1-.31-1.24,2.43,2.43,0,0,1,.34-1.29,2.29,2.29,0,0,1,.88-.84,2.52,2.52,0,0,1,1.21-.3,2.38,2.38,0,0,1,1.2.3,2,2,0,0,1,.79.83,2.58,2.58,0,0,1,.28,1.24,2.46,2.46,0,0,1-.31,1.24,2.34,2.34,0,0,1-.83.88A2.15,2.15,0,0,1,32.94,35.14Zm.11-.56a.88.88,0,0,0,.57-.2A1.37,1.37,0,0,0,34,33.8a2.65,2.65,0,0,0,.13-.87,2.78,2.78,0,0,0-.35-1.5,1,1,0,0,0-.94-.58,1,1,0,0,0-.83.46,2.16,2.16,0,0,0-.32,1.23,2.89,2.89,0,0,0,.18,1.05,1.67,1.67,0,0,0,.48.73A1.08,1.08,0,0,0,33.05,34.58Z" transform="translate(-1.32 -1.19)"/><path class="cls-1" d="M36,35.05l0-.42.66-.17a.62.62,0,0,0,0-.18c0-.09,0-.22,0-.38s0-.34,0-.56v-.82c0-.24,0-.46,0-.67s0-.39-.07-.54l-.69-.15v-.39l1.58-.43.2.16-.05.88h0a2.18,2.18,0,0,1,.63-.83,1.21,1.21,0,0,1,.64-.21.7.7,0,0,1,.44.13.47.47,0,0,1,.19.42.54.54,0,0,1-.2.43.76.76,0,0,1-.48.15.9.9,0,0,1-.4-.09,1.36,1.36,0,0,1-.36-.26l.21.06a1.59,1.59,0,0,0-.35.34,2.06,2.06,0,0,0-.31.53V33c0,.21,0,.41,0,.61s0,.37,0,.52,0,.26,0,.33l.94.15,0,.44Z" transform="translate(-1.32 -1.19)"/><path class="cls-1" d="M45.62,34.31a1.46,1.46,0,0,1-.57.61,1.54,1.54,0,0,1-.81.22,1.65,1.65,0,0,1-1.12-.4,1.6,1.6,0,0,1-.44-1.23l0-2.52H42v-.26l1.52-1.32h.26l0,1.32v2.63a1.11,1.11,0,0,0,.23.76.9.9,0,0,0,.66.25,1.09,1.09,0,0,0,.44-.1A1.31,1.31,0,0,0,45.4,34ZM43.25,31v-.58h2V31Z" transform="translate(-1.32 -1.19)"/><path class="cls-1" d="M45.85,35.05l0-.42.67-.17s0-.09,0-.18,0-.22,0-.38,0-.34,0-.56v-.82c0-.24,0-.46,0-.67a3.57,3.57,0,0,0-.07-.54l-.68-.15v-.39l1.57-.43.2.16,0,.88h0a2.18,2.18,0,0,1,.64-.83,1.16,1.16,0,0,1,.64-.21.74.74,0,0,1,.44.13.49.49,0,0,1,.18.42.56.56,0,0,1-.19.43.77.77,0,0,1-.49.15.93.93,0,0,1-.4-.09,1.36,1.36,0,0,1-.36-.26l.21.06a1.59,1.59,0,0,0-.35.34,2.39,2.39,0,0,0-.31.53V33c0,.21,0,.41,0,.61s0,.37,0,.52,0,.26,0,.33l.94.15,0,.44Z" transform="translate(-1.32 -1.19)"/><path class="cls-1" d="M54.66,34.23l.69.17v.38l-1.54.39L53.62,35v-.7h0A2,2,0,0,1,53,35a1.54,1.54,0,0,1-.72.18A1.68,1.68,0,0,1,51,34.68a1.8,1.8,0,0,1-.49-1.37v-.92c0-.17,0-.35,0-.53s0-.36,0-.55l-.73-.15v-.39l1.62-.43.23.18c0,.21,0,.46,0,.72s0,.55,0,.84v1.09a1.24,1.24,0,0,0,.29.91,1.1,1.1,0,0,0,.77.27,1.08,1.08,0,0,0,.53-.14,1.32,1.32,0,0,0,.49-.48V32.54c0-.16,0-.31,0-.46s0-.28,0-.42a3.39,3.39,0,0,0,0-.35l-.78-.15v-.39l1.65-.43.21.16c0,.18,0,.35,0,.5v1.84c0,.32,0,.6,0,.84S54.65,34.1,54.66,34.23Z" transform="translate(-1.32 -1.19)"/><path class="cls-1" d="M57.66,35.14a3.75,3.75,0,0,1-.82-.09,2.56,2.56,0,0,1-.71-.26l-.05-1.18h.58l.22.78a1.56,1.56,0,0,0,.85.24.9.9,0,0,0,.57-.16.51.51,0,0,0,.21-.44.67.67,0,0,0-.2-.47,2.8,2.8,0,0,0-.79-.43,3.35,3.35,0,0,1-1.09-.63,1.13,1.13,0,0,1-.31-.82,1.06,1.06,0,0,1,.25-.7,1.6,1.6,0,0,1,.68-.49,2.7,2.7,0,0,1,1-.17,2.83,2.83,0,0,1,.64.06,2.33,2.33,0,0,1,.54.15l.11,1.15h-.56l-.24-.74a.88.88,0,0,0-.26-.1,1.06,1.06,0,0,0-.31,0,1,1,0,0,0-.59.17.54.54,0,0,0-.22.43.58.58,0,0,0,.25.49,5.06,5.06,0,0,0,.87.47,2.86,2.86,0,0,1,1,.62,1.16,1.16,0,0,1,.29.78,1.2,1.2,0,0,1-.53,1A2.32,2.32,0,0,1,57.66,35.14Z" transform="translate(-1.32 -1.19)"/><path class="cls-1" d="M63.72,34.31a1.46,1.46,0,0,1-.57.61,1.54,1.54,0,0,1-.81.22,1.65,1.65,0,0,1-1.12-.4,1.6,1.6,0,0,1-.44-1.23l0-2.52h-.76v-.26l1.52-1.32h.26l0,1.32v2.63a1.11,1.11,0,0,0,.23.76.91.91,0,0,0,.67.25,1.08,1.08,0,0,0,.43-.1A1.31,1.31,0,0,0,63.5,34ZM61.35,31v-.58h2V31Z" transform="translate(-1.32 -1.19)"/><path class="cls-1" d="M63.9,35.05l0-.43.72-.16s0-.08,0-.17,0-.2,0-.35,0-.35,0-.6v-.76c0-.26,0-.49,0-.71s0-.41-.07-.56l-.72-.15v-.39l1.68-.43.2.17c0,.22,0,.44,0,.66s0,.47,0,.76v1.35c0,.3,0,.56,0,.77s0,.35,0,.41l.72.16,0,.43Zm1.26-5.82a.73.73,0,0,1-.54-.21.7.7,0,0,1,0-1,.73.73,0,0,1,.54-.21.7.7,0,0,1,.52.21.73.73,0,0,1,0,1A.7.7,0,0,1,65.16,29.23Z" transform="translate(-1.32 -1.19)"/><path class="cls-1" d="M66.91,35.05l0-.42.67-.17a1.83,1.83,0,0,0,0-.19,3.21,3.21,0,0,0,0-.36c0-.15,0-.34,0-.57v-.82c0-.23,0-.45,0-.66s0-.4-.07-.55l-.69-.15v-.39l1.59-.43.22.18-.06.58h0a2.64,2.64,0,0,1,.74-.6,1.73,1.73,0,0,1,.81-.19,1.37,1.37,0,0,1,.77.21,1.46,1.46,0,0,1,.58.62,2.21,2.21,0,0,1,.22,1.05v1.16c0,.25,0,.48,0,.69a2.14,2.14,0,0,0,0,.41l.67.17,0,.42H70.08l0-.42.63-.17c0-.06,0-.13,0-.23s0-.21,0-.35,0-.29,0-.47V32.33a1.48,1.48,0,0,0-.15-.72,1,1,0,0,0-.38-.4,1.07,1.07,0,0,0-.49-.12,1.32,1.32,0,0,0-.62.15,1.57,1.57,0,0,0-.49.44v1.6c0,.31,0,.57,0,.77a1.89,1.89,0,0,0,0,.41l.66.17,0,.42Z" transform="translate(-1.32 -1.19)"/><path class="cls-1" d="M75.16,37.5a3.52,3.52,0,0,1-1.63-.32,1,1,0,0,1-.6-.86.93.93,0,0,1,.32-.67,3.39,3.39,0,0,1,1-.59l.43.08a1.59,1.59,0,0,0-.5.46.9.9,0,0,0-.19.56.72.72,0,0,0,.34.62,1.68,1.68,0,0,0,.93.23,1.92,1.92,0,0,0,1.09-.29.83.83,0,0,0,.41-.72.57.57,0,0,0-.24-.5,1.82,1.82,0,0,0-.82-.21l-1.2-.1-.14,0a1.19,1.19,0,0,1-.73-.21.6.6,0,0,1-.28-.52.83.83,0,0,1,.3-.59,2.54,2.54,0,0,1,.82-.49l.15.21a1.33,1.33,0,0,0-.27.22.35.35,0,0,0-.09.22.28.28,0,0,0,.12.23.62.62,0,0,0,.33.11l1.46.15a2.09,2.09,0,0,1,1.16.4,1.06,1.06,0,0,1,.39.87,1.39,1.39,0,0,1-.33.9,2.21,2.21,0,0,1-.9.63A3.49,3.49,0,0,1,75.16,37.5Zm.07-3.76a2.52,2.52,0,0,1-1-.21,1.7,1.7,0,0,1-.71-.58,1.44,1.44,0,0,1-.26-.84,1.63,1.63,0,0,1,.27-.92,1.9,1.9,0,0,1,.73-.64,2.2,2.2,0,0,1,1-.23,2.25,2.25,0,0,1,1,.22,1.83,1.83,0,0,1,.7.62,1.6,1.6,0,0,1,0,1.75,1.69,1.69,0,0,1-.71.61A2.25,2.25,0,0,1,75.23,33.74Zm.07-.49a.78.78,0,0,0,.64-.31,1.35,1.35,0,0,0,.24-.84,1.62,1.62,0,0,0-.26-1,.82.82,0,0,0-.69-.35.8.8,0,0,0-.66.33,1.41,1.41,0,0,0-.25.88,1.39,1.39,0,0,0,.27.89A.85.85,0,0,0,75.3,33.25Zm2.55-2.09-1.34-.1-.41-.45,1.75-.19Z" transform="translate(-1.32 -1.19)"/><path class="cls-1" d="M85.43,35.11c-.2,0-.41,0-.61,0H80.57l0-.45.68-.15a1.64,1.64,0,0,0,0-.26c0-.13,0-.31,0-.54s0-.5,0-.81V31c0-.31,0-.59,0-.82s0-.42,0-.55a1.44,1.44,0,0,0,0-.25l-.68-.15,0-.45H84.8l.43,0,.23,1.48-.52.07-.37-.91-.22,0-.22,0H82.67a1.55,1.55,0,0,0-.31,0v.24c0,.13,0,.29,0,.46s0,.36,0,.55v2.7c0,.17,0,.34,0,.49s0,.29,0,.41v.25l.34,0h1.72l.23,0,.14,0,.57-1,.52.09Zm-1.25-2.25-.12-.72-.2,0H82.47l-.32,0V31.5h1.91l.12-.74h.49v2.1Z" transform="translate(-1.32 -1.19)"/><path class="cls-1" d="M88.29,35.1,86.37,31l-.5-.17,0-.42h2.3l0,.42-.67.17,1.4,3.06h-.3L89.93,31l-.67-.17,0-.42h1.83l0,.42-.5.17-2,4.11Z" transform="translate(-1.32 -1.19)"/><path class="cls-1" d="M93.78,35.14a2.51,2.51,0,0,1-1.25-.3A2.12,2.12,0,0,1,91.7,34a2.5,2.5,0,0,1-.3-1.24,2.43,2.43,0,0,1,.33-1.29,2.32,2.32,0,0,1,.89-.84,2.49,2.49,0,0,1,1.21-.3,2.31,2.31,0,0,1,1.19.3,2,2,0,0,1,.79.83,2.8,2.8,0,0,1,0,2.48,2.45,2.45,0,0,1-.84.88A2.15,2.15,0,0,1,93.78,35.14Zm.11-.56a.93.93,0,0,0,.58-.2,1.35,1.35,0,0,0,.37-.58,2.65,2.65,0,0,0,.14-.87,2.87,2.87,0,0,0-.35-1.5,1.06,1.06,0,0,0-.94-.58,1,1,0,0,0-.84.46,2.16,2.16,0,0,0-.31,1.23,2.89,2.89,0,0,0,.17,1.05,1.67,1.67,0,0,0,.48.73A1.08,1.08,0,0,0,93.89,34.58Z" transform="translate(-1.32 -1.19)"/><path class="cls-1" d="M96.82,35.05l0-.42.67-.17s0-.09,0-.18,0-.22,0-.38,0-.34,0-.56v-.82c0-.24,0-.46,0-.67s0-.39-.06-.54l-.69-.15v-.39l1.58-.43.19.16,0,.88h0a2.18,2.18,0,0,1,.64-.83,1.18,1.18,0,0,1,.64-.21.72.72,0,0,1,.44.13.49.49,0,0,1,.18.42.53.53,0,0,1-.19.43.77.77,0,0,1-.49.15.86.86,0,0,1-.39-.09,1.25,1.25,0,0,1-.37-.26l.22.06a1.62,1.62,0,0,0-.36.34,2.39,2.39,0,0,0-.31.53V33c0,.21,0,.41,0,.61s0,.37,0,.52,0,.26,0,.33l.93.15,0,.44Z" transform="translate(-1.32 -1.19)"/><path class="cls-1" d="M103,35.1,101.06,31l-.51-.17,0-.42h2.29l0,.42-.66.17,1.38,3.06Zm2.82-4.7,0,.42-.51.17-1.84,3.79-.85,1.79a1.94,1.94,0,0,1-.53.73,1,1,0,0,1-.61.2.76.76,0,0,1-.48-.14.45.45,0,0,1-.18-.36.49.49,0,0,1,.15-.35.8.8,0,0,1,.45-.24l1.08-.33-.56.53,1.22-2.33.12-.22L104.61,31l-.66-.17,0-.42Z" transform="translate(-1.32 -1.19)"/><path class="cls-1" d="M108,31v-.39l.77-.2H111V31Zm2.68,4h-2.55l0-.42.67-.17c0-.08,0-.16,0-.25V29.85a3.07,3.07,0,0,1,.23-1.21,1.92,1.92,0,0,1,.65-.8,1.62,1.62,0,0,1,1-.29,1.42,1.42,0,0,1,.77.2.6.6,0,0,1,.31.51.34.34,0,0,1-.11.28.4.4,0,0,1-.28.1.79.79,0,0,1-.55-.25l-.53-.5.32.06a.61.61,0,0,0-.57.4,2.67,2.67,0,0,0-.2,1.15v3.18c0,.33,0,.66,0,1s0,.59,0,.79l.89.16Z" transform="translate(-1.32 -1.19)"/><path class="cls-1" d="M113.93,35.14a2.55,2.55,0,0,1-1.26-.3,2.12,2.12,0,0,1-.83-.85,2.5,2.5,0,0,1-.3-1.24,2.43,2.43,0,0,1,.33-1.29,2.32,2.32,0,0,1,.89-.84,2.49,2.49,0,0,1,1.21-.3,2.31,2.31,0,0,1,1.19.3,2.06,2.06,0,0,1,.8.83,2.7,2.7,0,0,1,.27,1.24,2.56,2.56,0,0,1-.3,1.24,2.42,2.42,0,0,1-.83.88A2.2,2.2,0,0,1,113.93,35.14Zm.1-.56a.91.91,0,0,0,.58-.2,1.35,1.35,0,0,0,.37-.58,2.65,2.65,0,0,0,.14-.87,2.87,2.87,0,0,0-.35-1.5,1.05,1.05,0,0,0-.94-.58,1,1,0,0,0-.83.46,2.08,2.08,0,0,0-.32,1.23,3.12,3.12,0,0,0,.17,1.05,1.86,1.86,0,0,0,.48.73A1.08,1.08,0,0,0,114,34.58Z" transform="translate(-1.32 -1.19)"/><path class="cls-1" d="M117,35.05l0-.42.67-.17a1.55,1.55,0,0,0,0-.18,3.47,3.47,0,0,0,0-.38c0-.15,0-.34,0-.56v-.82c0-.24,0-.46,0-.67s0-.39-.07-.54l-.69-.15v-.39l1.58-.43.19.16,0,.88h0a2.18,2.18,0,0,1,.64-.83,1.18,1.18,0,0,1,.64-.21.72.72,0,0,1,.44.13.49.49,0,0,1,.18.42.53.53,0,0,1-.19.43.76.76,0,0,1-.48.15.87.87,0,0,1-.4-.09,1.57,1.57,0,0,1-.37-.26l.22.06a1.87,1.87,0,0,0-.36.34,2.39,2.39,0,0,0-.31.53V33c0,.21,0,.41,0,.61s0,.37,0,.52a2.38,2.38,0,0,0,0,.33l.93.15,0,.44Z" transform="translate(-1.32 -1.19)"/><path class="cls-1" d="M125.16,35.1,123.25,31l-.51-.17,0-.42h2.29l0,.42-.67.17,1.39,3.06ZM128,30.4l0,.42-.51.17-1.83,3.79-.85,1.79a2.05,2.05,0,0,1-.53.73,1.07,1.07,0,0,1-.62.2.78.78,0,0,1-.48-.14A.45.45,0,0,1,123,37a.49.49,0,0,1,.15-.35.87.87,0,0,1,.46-.24l1.07-.33-.56.53,1.23-2.33.11-.22L126.81,31l-.67-.17,0-.42Z" transform="translate(-1.32 -1.19)"/><path class="cls-1" d="M130.66,35.14a2.49,2.49,0,0,1-1.25-.3,2.12,2.12,0,0,1-.83-.85,2.5,2.5,0,0,1-.3-1.24,2.43,2.43,0,0,1,.33-1.29,2.32,2.32,0,0,1,.89-.84,2.46,2.46,0,0,1,1.2-.3,2.35,2.35,0,0,1,1.2.3,2,2,0,0,1,.79.83,2.58,2.58,0,0,1,.28,1.24,2.46,2.46,0,0,1-.31,1.24,2.34,2.34,0,0,1-.83.88A2.15,2.15,0,0,1,130.66,35.14Zm.11-.56a.88.88,0,0,0,.57-.2,1.37,1.37,0,0,0,.38-.58,2.65,2.65,0,0,0,.13-.87,2.78,2.78,0,0,0-.35-1.5,1,1,0,0,0-.93-.58,1,1,0,0,0-.84.46,2.16,2.16,0,0,0-.31,1.23,2.89,2.89,0,0,0,.17,1.05,1.67,1.67,0,0,0,.48.73A1.08,1.08,0,0,0,130.77,34.58Z" transform="translate(-1.32 -1.19)"/><path class="cls-1" d="M138.45,34.23l.69.17v.38l-1.54.39-.19-.14v-.7h0a2,2,0,0,1-.65.64,1.54,1.54,0,0,1-.72.18,1.68,1.68,0,0,1-1.22-.46,1.8,1.8,0,0,1-.49-1.37v-.92c0-.17,0-.35,0-.53s0-.36,0-.55l-.73-.15v-.39l1.62-.43.23.18c0,.21,0,.46,0,.72s0,.55,0,.84v1.09a1.24,1.24,0,0,0,.29.91,1.1,1.1,0,0,0,.77.27,1.08,1.08,0,0,0,.53-.14,1.32,1.32,0,0,0,.49-.48V32.54c0-.16,0-.31,0-.46s0-.28,0-.42a1.9,1.9,0,0,0,0-.35l-.78-.15v-.39l1.65-.43.21.16c0,.18,0,.35,0,.5v1.84c0,.32,0,.6,0,.84S138.44,34.1,138.45,34.23Z" transform="translate(-1.32 -1.19)"/><path class="cls-1" d="M139.65,35.05l0-.42.67-.17s0-.09,0-.18,0-.22,0-.38,0-.34,0-.56v-.82c0-.24,0-.46,0-.67a3.57,3.57,0,0,0-.07-.54l-.68-.15v-.39l1.58-.43.19.16,0,.88h0a2.18,2.18,0,0,1,.64-.83,1.18,1.18,0,0,1,.64-.21.72.72,0,0,1,.44.13.49.49,0,0,1,.18.42.53.53,0,0,1-.19.43.77.77,0,0,1-.49.15.86.86,0,0,1-.39-.09,1.25,1.25,0,0,1-.37-.26l.22.06a1.62,1.62,0,0,0-.36.34,2.39,2.39,0,0,0-.31.53V33c0,.21,0,.41,0,.61s0,.37,0,.52,0,.26,0,.33l.94.15,0,.44Z" transform="translate(-1.32 -1.19)"/><path class="cls-1" d="M147.81,35.1,146,31l-.5-.17,0-.42h2.18l0,.42-.54.17,1.28,3.06h-.33l1.37-3.13.33.67-1.66,3.5Zm3.21,0L149.31,31l-.54-.17,0-.42H151l0,.42-.56.17,1.2,3.06h-.28L152.6,31l-.56-.17,0-.42h1.72l0,.42-.5.17-1.91,4.11Z" transform="translate(-1.32 -1.19)"/><path class="cls-1" d="M156.38,35.14a2.35,2.35,0,0,1-1.16-.29,2,2,0,0,1-.81-.82,2.42,2.42,0,0,1-.3-1.22,2.69,2.69,0,0,1,.32-1.32,2.42,2.42,0,0,1,.84-.87,2,2,0,0,1,1.12-.3,1.68,1.68,0,0,1,1.36.57,2.3,2.3,0,0,1,.48,1.53v.22H155v-.51h2.43l-.14.18V32a1.44,1.44,0,0,0-.26-.9.88.88,0,0,0-.72-.33,1,1,0,0,0-.55.17,1.23,1.23,0,0,0-.42.52,2.14,2.14,0,0,0-.15.86v.16a1.94,1.94,0,0,0,.42,1.32,1.4,1.4,0,0,0,1.11.48,1.57,1.57,0,0,0,.67-.14,2,2,0,0,0,.59-.48l.29.27a2,2,0,0,1-1.88,1.17Z" transform="translate(-1.32 -1.19)"/><path class="cls-1" d="M159.35,34.76c0-.25,0-.47,0-.68s0-.41,0-.61V31.15c0-.26,0-.54,0-.82s0-.55,0-.79,0-.46,0-.64a2.74,2.74,0,0,0,0-.37l-.79-.09,0-.39,1.67-.46.24.16,0,.89c0,.3,0,.64,0,1s0,.87,0,1.44h0a2,2,0,0,1,.64-.57,1.63,1.63,0,0,1,.86-.23,1.9,1.9,0,0,1,1.71,1,2.33,2.33,0,0,1,.28,1.19,2.54,2.54,0,0,1-1.33,2.28,2.87,2.87,0,0,1-1.4.34,5,5,0,0,1-.95-.1A4.81,4.81,0,0,1,159.35,34.76Zm2.06-.24a1.22,1.22,0,0,0,1-.46,2,2,0,0,0,.4-1.32,1.6,1.6,0,0,0-.39-1.22,1.35,1.35,0,0,0-1.53-.26,1.41,1.41,0,0,0-.49.39v2.54a1.83,1.83,0,0,0,.46.24A1.72,1.72,0,0,0,161.41,34.52Z" transform="translate(-1.32 -1.19)"/><path class="cls-1" d="M166.39,35.14a3.81,3.81,0,0,1-.82-.09,2.56,2.56,0,0,1-.71-.26l-.05-1.18h.58l.23.78a1.53,1.53,0,0,0,.85.24.89.89,0,0,0,.56-.16.51.51,0,0,0,.21-.44.67.67,0,0,0-.2-.47,2.66,2.66,0,0,0-.79-.43,3.28,3.28,0,0,1-1.08-.63,1.14,1.14,0,0,1-.32-.82,1.11,1.11,0,0,1,.25-.7,1.66,1.66,0,0,1,.68-.49,2.75,2.75,0,0,1,1-.17,2.69,2.69,0,0,1,.63.06,2.19,2.19,0,0,1,.54.15l.12,1.15h-.56l-.25-.74a.88.88,0,0,0-.26-.1,1.06,1.06,0,0,0-.31,0,.93.93,0,0,0-.58.17.51.51,0,0,0-.22.43.6.6,0,0,0,.24.49,6,6,0,0,0,.87.47,2.82,2.82,0,0,1,1,.62,1.15,1.15,0,0,1,.28.78,1.2,1.2,0,0,1-.53,1A2.3,2.3,0,0,1,166.39,35.14Z" transform="translate(-1.32 -1.19)"/><path class="cls-1" d="M168.89,35.05l0-.43.72-.16a.54.54,0,0,0,0-.17,2.87,2.87,0,0,0,0-.35c0-.15,0-.35,0-.6v-.76c0-.26,0-.49,0-.71a3.84,3.84,0,0,0-.06-.56l-.72-.15v-.39l1.67-.43.21.17c0,.22,0,.44-.05.66s0,.47,0,.76v1.35c0,.3,0,.56,0,.77a2,2,0,0,0,0,.41l.72.16,0,.43Zm1.26-5.82a.72.72,0,0,1-.53-.21.7.7,0,0,1,0-1,.72.72,0,0,1,.53-.21.69.69,0,0,1,.52.21.72.72,0,0,1,0,1A.69.69,0,0,1,170.15,29.23Z" transform="translate(-1.32 -1.19)"/><path class="cls-1" d="M175.41,34.31a1.4,1.4,0,0,1-.57.61,1.53,1.53,0,0,1-.8.22,1.65,1.65,0,0,1-1.12-.4,1.6,1.6,0,0,1-.44-1.23l0-2.52h-.75v-.26l1.52-1.32h.25l0,1.32v2.63a1.11,1.11,0,0,0,.23.76.9.9,0,0,0,.66.25,1.13,1.13,0,0,0,.44-.1,1.31,1.31,0,0,0,.37-.24ZM173.05,31v-.58h2V31Z" transform="translate(-1.32 -1.19)"/><path class="cls-1" d="M178,35.14a2.35,2.35,0,0,1-1.16-.29A2.13,2.13,0,0,1,176,34a2.42,2.42,0,0,1-.3-1.22,2.59,2.59,0,0,1,.33-1.32,2.32,2.32,0,0,1,.83-.87,2,2,0,0,1,1.12-.3,1.68,1.68,0,0,1,1.36.57,2.3,2.3,0,0,1,.48,1.53v.22h-3.24v-.51H179l-.14.18V32a1.44,1.44,0,0,0-.26-.9.86.86,0,0,0-.71-.33,1,1,0,0,0-.56.17,1.3,1.3,0,0,0-.42.52,2.14,2.14,0,0,0-.15.86v.16a1.94,1.94,0,0,0,.42,1.32,1.42,1.42,0,0,0,1.11.48,1.65,1.65,0,0,0,.68-.14,2,2,0,0,0,.58-.48l.29.27a2.06,2.06,0,0,1-.79.88A2.11,2.11,0,0,1,178,35.14Z" transform="translate(-1.32 -1.19)"/><path class="cls-1" d="M182.51,35.05l0-.43.72-.16a.54.54,0,0,0,0-.17,2.87,2.87,0,0,0,0-.35c0-.15,0-.35,0-.6v-.76c0-.26,0-.49,0-.71a3.84,3.84,0,0,0-.06-.56l-.72-.15v-.39l1.68-.43.2.17c0,.22,0,.44-.05.66s0,.47,0,.76v1.35c0,.3,0,.56,0,.77a2,2,0,0,0,0,.41l.72.16,0,.43Zm1.26-5.82a.72.72,0,0,1-.53-.21.7.7,0,0,1,0-1,.72.72,0,0,1,.53-.21.67.67,0,0,1,.52.21.72.72,0,0,1,0,1A.67.67,0,0,1,183.77,29.23Z" transform="translate(-1.32 -1.19)"/><path class="cls-1" d="M185.52,35.05l0-.42.67-.17s0-.1,0-.19,0-.21,0-.36,0-.34,0-.57v-.82q0-.35,0-.66a3.72,3.72,0,0,0-.07-.55l-.68-.15v-.39l1.59-.43.21.18-.05.58h0a2.61,2.61,0,0,1,.73-.6,1.8,1.8,0,0,1,.82-.19,1.4,1.4,0,0,1,.77.21,1.38,1.38,0,0,1,.57.62,2.21,2.21,0,0,1,.22,1.05v1.16c0,.25,0,.48,0,.69a1.53,1.53,0,0,0,0,.41l.66.17,0,.42h-2.33l0-.42.62-.17a1.3,1.3,0,0,0,0-.23,3.32,3.32,0,0,0,0-.35c0-.13,0-.29,0-.47V32.33a1.48,1.48,0,0,0-.15-.72,1,1,0,0,0-.87-.52,1.29,1.29,0,0,0-.62.15,1.47,1.47,0,0,0-.49.44v1.6c0,.31,0,.57,0,.77a2.91,2.91,0,0,0,.05.41l.67.17,0,.42Z" transform="translate(-1.32 -1.19)"/><path class="cls-1" d="M193.61,35.1,191.69,31l-.51-.17,0-.42h2.3l0,.42-.67.17,1.4,3.06H194L195.24,31l-.66-.17,0-.42h1.83l0,.42L196,31l-2,4.11Z" transform="translate(-1.32 -1.19)"/><path class="cls-1" d="M196.66,35.05l0-.43.72-.16a1.3,1.3,0,0,0,0-.17,2.87,2.87,0,0,0,0-.35c0-.15,0-.35,0-.6v-.76c0-.26,0-.49,0-.71a3.84,3.84,0,0,0-.06-.56l-.72-.15v-.39l1.67-.43.21.17c0,.22,0,.44,0,.66s0,.47,0,.76v1.35c0,.3,0,.56,0,.77a2,2,0,0,0,0,.41l.72.16,0,.43Zm1.26-5.82a.71.71,0,0,1-.53-.21.7.7,0,0,1,0-1,.71.71,0,0,1,.53-.21.69.69,0,0,1,.52.21.73.73,0,0,1,0,1A.69.69,0,0,1,197.92,29.23Z" transform="translate(-1.32 -1.19)"/><path class="cls-1" d="M203.18,34.31a1.46,1.46,0,0,1-.57.61,1.53,1.53,0,0,1-.8.22,1.63,1.63,0,0,1-1.12-.4,1.6,1.6,0,0,1-.44-1.23l0-2.52h-.75v-.26L201,29.41h.26l0,1.32v2.63a1.11,1.11,0,0,0,.23.76.88.88,0,0,0,.66.25,1.13,1.13,0,0,0,.44-.1A1.31,1.31,0,0,0,203,34ZM200.82,31v-.58h2.05V31Z" transform="translate(-1.32 -1.19)"/><path class="cls-1" d="M205.13,35.14a1.6,1.6,0,0,1-.8-.19,1.32,1.32,0,0,1-.52-.47,1,1,0,0,1-.19-.56.85.85,0,0,1,.24-.61,1.85,1.85,0,0,1,.76-.41l1.66-.53v-.5a.76.76,0,0,0-.16-.46,1.06,1.06,0,0,0-.41-.34,1.22,1.22,0,0,0-.57-.13.43.43,0,0,0-.34.1.78.78,0,0,0-.1.4l0,.52a1.23,1.23,0,0,1-.72,0,.42.42,0,0,1-.3-.41.58.58,0,0,1,.18-.38,2.09,2.09,0,0,1,.45-.36,3,3,0,0,1,.59-.3,2.37,2.37,0,0,1,.59-.16,2.06,2.06,0,0,1,1.35.42,1.45,1.45,0,0,1,.51,1.12l0,1.71c0,.15,0,.29,0,.41a1.41,1.41,0,0,0,0,.29l.7.13v.37l-.58.23-.3.1a.85.85,0,0,1-.25,0,.48.48,0,0,1-.48-.39l-.14-.45.18,0a2.88,2.88,0,0,1-.68.61A1.23,1.23,0,0,1,205.13,35.14Zm.37-.74a.83.83,0,0,0,.41-.1,1.21,1.21,0,0,0,.37-.29V32.9l-1.06.26a.76.76,0,0,0-.37.2.56.56,0,0,0-.11.35.65.65,0,0,0,.23.48A.74.74,0,0,0,205.5,34.4Z" transform="translate(-1.32 -1.19)"/><path class="cls-1" d="M212,34.31a1.46,1.46,0,0,1-.57.61,1.53,1.53,0,0,1-.8.22,1.63,1.63,0,0,1-1.12-.4,1.6,1.6,0,0,1-.44-1.23l0-2.52h-.75v-.26l1.52-1.32h.25l0,1.32v2.63a1.11,1.11,0,0,0,.23.76.9.9,0,0,0,.66.25,1.13,1.13,0,0,0,.44-.1,1.31,1.31,0,0,0,.37-.24ZM209.66,31v-.58h2.05V31Z" transform="translate(-1.32 -1.19)"/><path class="cls-1" d="M212.21,35.05l0-.43.72-.16a.54.54,0,0,0,0-.17c0-.08,0-.2,0-.35s0-.35,0-.6v-.76c0-.26,0-.49,0-.71s0-.41-.07-.56l-.72-.15v-.39l1.68-.43.2.17c0,.22,0,.44-.05.66s0,.47,0,.76v1.35c0,.3,0,.56,0,.77a3.34,3.34,0,0,0,0,.41l.72.16,0,.43Zm1.25-5.82a.72.72,0,0,1-.53-.21.7.7,0,0,1,0-1,.72.72,0,0,1,.53-.21A.67.67,0,0,1,214,28a.72.72,0,0,1,0,1A.67.67,0,0,1,213.46,29.23Z" transform="translate(-1.32 -1.19)"/><path class="cls-1" d="M217.73,35.14a2.49,2.49,0,0,1-1.25-.3,2.08,2.08,0,0,1-.84-.85,2.5,2.5,0,0,1-.3-1.24,2.34,2.34,0,0,1,.34-1.29,2.29,2.29,0,0,1,.88-.84,2.49,2.49,0,0,1,1.21-.3,2.31,2.31,0,0,1,1.19.3,2,2,0,0,1,.8.83,2.7,2.7,0,0,1,.28,1.24,2.46,2.46,0,0,1-.31,1.24,2.34,2.34,0,0,1-.83.88A2.15,2.15,0,0,1,217.73,35.14Zm.1-.56a.89.89,0,0,0,.58-.2,1.27,1.27,0,0,0,.37-.58,2.65,2.65,0,0,0,.14-.87,2.87,2.87,0,0,0-.35-1.5,1.05,1.05,0,0,0-.94-.58,1,1,0,0,0-.83.46,2.16,2.16,0,0,0-.32,1.23,3.12,3.12,0,0,0,.17,1.05,1.77,1.77,0,0,0,.49.73A1.06,1.06,0,0,0,217.83,34.58Z" transform="translate(-1.32 -1.19)"/><path class="cls-1" d="M220.76,35.05l0-.42.67-.17a1.83,1.83,0,0,0,0-.19,3.21,3.21,0,0,0,0-.36c0-.15,0-.34,0-.57v-.82c0-.23,0-.45,0-.66s0-.4-.07-.55l-.69-.15v-.39l1.59-.43.22.18-.06.58h0a2.64,2.64,0,0,1,.74-.6,1.73,1.73,0,0,1,.81-.19,1.37,1.37,0,0,1,.77.21,1.46,1.46,0,0,1,.58.62,2.21,2.21,0,0,1,.22,1.05v1.16c0,.25,0,.48,0,.69a2.14,2.14,0,0,0,0,.41l.67.17,0,.42h-2.33l0-.42.63-.17c0-.06,0-.13,0-.23s0-.21,0-.35,0-.29,0-.47V32.33a1.48,1.48,0,0,0-.15-.72,1,1,0,0,0-.38-.4,1.07,1.07,0,0,0-.49-.12,1.32,1.32,0,0,0-.62.15,1.57,1.57,0,0,0-.49.44v1.6c0,.31,0,.57,0,.77a1.89,1.89,0,0,0,0,.41l.66.17,0,.42Z" transform="translate(-1.32 -1.19)"/></g></g></svg>