<svg xmlns="http://www.w3.org/2000/svg" viewBox="0 0 118.73 13.25"><defs><style>.cls-1{fill:#f2f3eb;}</style></defs><g id="Layer_2" data-name="Layer 2"><g id="Layer_1-2" data-name="Layer 1"><path class="cls-1" d="M9.71,5.31l-4,6.27.6-1.51v1.85c0,.42,0,.78,0,1.08s0,.56,0,.76,0,.37,0,.5,0,.2,0,.24l1.36.25-.06.83H3l-.06-.83,1.35-.25a.62.62,0,0,0,0-.24c0-.13,0-.29,0-.5s0-.46,0-.76,0-.66,0-1.08V10.07l.47,1.51L1,5.31,0,5l0-.81H4.41L4.47,5l-1.2.27L6,9.78H5.67L8.32,5.31,7,5,7,4.23h3.62l0,.81Z" transform="translate(-0.02 -2.54)"/><path class="cls-1" d="M14.41,15.74a4.41,4.41,0,0,1-2.25-.55,3.82,3.82,0,0,1-1.5-1.51,4.58,4.58,0,0,1-.54-2.24,4.37,4.37,0,0,1,.6-2.33,4.22,4.22,0,0,1,1.59-1.52,4.52,4.52,0,0,1,2.18-.54,4.15,4.15,0,0,1,2.14.54,3.71,3.71,0,0,1,1.44,1.5,4.8,4.8,0,0,1,.5,2.24A4.5,4.5,0,0,1,18,13.56a4.4,4.4,0,0,1-1.5,1.59A4,4,0,0,1,14.41,15.74Zm.19-1a1.54,1.54,0,0,0,1-.37,2.42,2.42,0,0,0,.68-1,4.71,4.71,0,0,0,.24-1.57,5.14,5.14,0,0,0-.63-2.7,1.9,1.9,0,0,0-1.69-1,1.75,1.75,0,0,0-1.5.83,3.82,3.82,0,0,0-.57,2.2,5.33,5.33,0,0,0,.31,1.9,3,3,0,0,0,.87,1.31A1.91,1.91,0,0,0,14.6,14.73Z" transform="translate(-0.02 -2.54)"/><path class="cls-1" d="M28.43,14.09l1.24.31v.7l-2.76.69-.35-.25,0-1.25-.06,0a3.52,3.52,0,0,1-1.17,1.15,2.8,2.8,0,0,1-1.29.32,3.07,3.07,0,0,1-2.2-.83A3.22,3.22,0,0,1,21,12.45V10.78c0-.31,0-.62,0-.94s0-.65-.07-1l-1.32-.27V7.86l2.93-.77.4.33c0,.39,0,.82-.07,1.3s0,1,0,1.5l0,2a2.16,2.16,0,0,0,.52,1.62,1.87,1.87,0,0,0,1.37.5,2,2,0,0,0,1-.26,2.3,2.3,0,0,0,.87-.86V11.05c0-.28,0-.55,0-.82l0-.75a5.2,5.2,0,0,0-.06-.63L25,8.58V7.86l3-.77.37.29c0,.32,0,.62,0,.91s0,.58,0,.88V11.6c0,.58,0,1.08,0,1.51S28.41,13.86,28.43,14.09Z" transform="translate(-0.02 -2.54)"/><path class="cls-1" d="M30.6,15.58l-.06-.75,1.2-.31a2.37,2.37,0,0,0,0-.33c0-.17,0-.4,0-.68s0-.62,0-1l0-1.49c0-.43,0-.83-.05-1.2a9.22,9.22,0,0,0-.13-1l-1.23-.27V7.86l2.84-.77.35.29L33.56,9l.06,0A3.72,3.72,0,0,1,34.77,7.5a2.09,2.09,0,0,1,1.15-.39,1.3,1.3,0,0,1,.79.24A.87.87,0,0,1,37,8.1a.9.9,0,0,1-.35.77,1.37,1.37,0,0,1-.87.27A1.67,1.67,0,0,1,35.11,9a2.69,2.69,0,0,1-.66-.47l.39.1a2.86,2.86,0,0,0-.64.62,4,4,0,0,0-.56.94l0,1.71c0,.37,0,.74,0,1.09s0,.67,0,.94,0,.47,0,.6l1.69.27-.06.79Z" transform="translate(-0.02 -2.54)"/><path class="cls-1" d="M51,12.54V8.66c0-.73,0-1.33,0-1.8s0-.84,0-1.1a1.34,1.34,0,0,0-.06-.45L49.52,5l.06-.81h3.81l0,.81-1.21.27q0,.08,0,.45c0,.26,0,.62-.05,1.1s0,1.07,0,1.8v5.66c0,.44,0,.89,0,1.34h-1L43.85,6.28h.62V11c0,.74,0,1.37,0,1.86s0,.87,0,1.12a3.61,3.61,0,0,0,.05.48l1.33.27-.06.81H42l-.05-.81,1.19-.27a1.75,1.75,0,0,0,.06-.49c0-.25,0-.63,0-1.13s0-1.11,0-1.84V8c0-.52,0-1,0-1.33s0-.67,0-.89a1.46,1.46,0,0,0-.06-.43L41.94,5,42,4.23h2.79l6.65,8.31Z" transform="translate(-0.02 -2.54)"/><path class="cls-1" d="M57.83,15.74a3,3,0,0,1-1.43-.34,2.58,2.58,0,0,1-.94-.84,1.83,1.83,0,0,1-.33-1,1.52,1.52,0,0,1,.42-1.1,3.22,3.22,0,0,1,1.38-.74l3-1V9.86A1.4,1.4,0,0,0,59.62,9a1.92,1.92,0,0,0-.74-.6,2.2,2.2,0,0,0-1-.24.76.76,0,0,0-.6.19,1.39,1.39,0,0,0-.19.72L57,10a2.08,2.08,0,0,1-1.3,0,.75.75,0,0,1-.53-.74,1,1,0,0,1,.31-.68,4.37,4.37,0,0,1,.82-.66,7.37,7.37,0,0,1,1.05-.53,4.82,4.82,0,0,1,1.07-.3,3.67,3.67,0,0,1,2.42.76,2.58,2.58,0,0,1,.92,2l0,3.07q0,.4,0,.75a2.37,2.37,0,0,0,.09.51l1.26.23v.68l-1.05.4a5,5,0,0,1-.54.19,2.07,2.07,0,0,1-.45.07.89.89,0,0,1-.87-.7l-.25-.81.33,0a5.67,5.67,0,0,1-1.22,1.09A2.27,2.27,0,0,1,57.83,15.74Zm.68-1.34a1.74,1.74,0,0,0,.74-.17,2.22,2.22,0,0,0,.65-.52v-2L58,12.18a1.22,1.22,0,0,0-.67.35,1,1,0,0,0-.2.63,1.13,1.13,0,0,0,.4.86A1.37,1.37,0,0,0,58.51,14.4Z" transform="translate(-0.02 -2.54)"/><path class="cls-1" d="M64,15.58l-.06-.75,1.2-.31c0-.07,0-.18,0-.33s0-.37,0-.65,0-.62,0-1V11c0-.27,0-.54,0-.81s0-.51-.06-.75a6,6,0,0,0-.1-.61l-1.24-.27V7.86l2.87-.77.38.33L67,8.48l0,0a4,4,0,0,1,1.26-1.11,2.88,2.88,0,0,1,1.35-.34A2.65,2.65,0,0,1,71,7.43,2.81,2.81,0,0,1,72,8.56a4.06,4.06,0,0,1,.41,1.93l0,2c0,.46,0,.87,0,1.24a4.27,4.27,0,0,0,.07.76l1.15.31-.06.75h-4l-.06-.75,1-.31c0-.11,0-.24,0-.42s0-.38,0-.63,0-.53,0-.85l0-2a2.81,2.81,0,0,0-.24-1.25,1.57,1.57,0,0,0-.64-.68,1.69,1.69,0,0,0-.86-.22,2.22,2.22,0,0,0-1.05.27,2.43,2.43,0,0,0-.87.8v2.88q0,.81,0,1.38a3.51,3.51,0,0,0,.09.75l1.12.31-.06.75Zm11,0-.06-.75L76,14.52a3.23,3.23,0,0,0,0-.42q0-.26,0-.63c0-.24,0-.53,0-.85V10.67a2.67,2.67,0,0,0-.27-1.3,1.62,1.62,0,0,0-.67-.7,1.82,1.82,0,0,0-.86-.23,2.45,2.45,0,0,0-1.13.28,2.51,2.51,0,0,0-.9.88l-.43-.73a4.94,4.94,0,0,1,1.44-1.36,3.08,3.08,0,0,1,1.64-.46,2.91,2.91,0,0,1,1.52.41,2.75,2.75,0,0,1,1.06,1.15,3.91,3.91,0,0,1,.37,1.79l0,2.12c0,.46,0,.87,0,1.24a5.56,5.56,0,0,0,.07.76l1.2.31,0,.75Z" transform="translate(-0.02 -2.54)"/><path class="cls-1" d="M84.43,15.74a4.19,4.19,0,0,1-2.09-.53,3.69,3.69,0,0,1-1.46-1.47,4.45,4.45,0,0,1-.53-2.2,4.68,4.68,0,0,1,.58-2.37,4.33,4.33,0,0,1,1.51-1.58,3.75,3.75,0,0,1,2-.54,3.08,3.08,0,0,1,2.45,1,4.12,4.12,0,0,1,.86,2.75v.39H81.94v-.91h4.37l-.25.33v-.48a2.52,2.52,0,0,0-.48-1.64,1.55,1.55,0,0,0-1.28-.59,1.78,1.78,0,0,0-1,.31,2.07,2.07,0,0,0-.75.93,3.7,3.7,0,0,0-.29,1.55V11A3.49,3.49,0,0,0,83,13.4a2.54,2.54,0,0,0,2,.87A2.66,2.66,0,0,0,86.24,14a3.35,3.35,0,0,0,1.05-.86l.53.49a3.69,3.69,0,0,1-1.43,1.58A3.74,3.74,0,0,1,84.43,15.74Z" transform="translate(-0.02 -2.54)"/><path class="cls-1" d="M92.61,15.58l0-.77,1.29-.29a2.17,2.17,0,0,0,0-.3c0-.15,0-.36,0-.64s0-.64,0-1.07V11.13c0-.46,0-.89,0-1.28a9.49,9.49,0,0,0-.12-1L92.5,8.58V7.86l3-.77.37.31c0,.4-.07.8-.08,1.19s0,.85,0,1.36v2.44c0,.54,0,1,0,1.39a5.2,5.2,0,0,0,.06.74l1.3.29,0,.77ZM94.88,5.1a1.3,1.3,0,0,1-1-.38,1.26,1.26,0,0,1,0-1.8,1.3,1.3,0,0,1,1-.38,1.22,1.22,0,0,1,.93.38,1.25,1.25,0,0,1,.36.9,1.25,1.25,0,0,1-.36.9A1.22,1.22,0,0,1,94.88,5.1Z" transform="translate(-0.02 -2.54)"/><path class="cls-1" d="M101.28,15.74a6.86,6.86,0,0,1-1.48-.17,4.83,4.83,0,0,1-1.27-.45L98.44,13h1l.41,1.39a2.69,2.69,0,0,0,1.52.45,1.65,1.65,0,0,0,1-.29,1,1,0,0,0,.38-.8,1.15,1.15,0,0,0-.36-.84,4.43,4.43,0,0,0-1.42-.78,5.92,5.92,0,0,1-2-1.14,2.06,2.06,0,0,1-.56-1.47A2,2,0,0,1,99,8.24a2.88,2.88,0,0,1,1.22-.87,4.71,4.71,0,0,1,1.8-.32,6.46,6.46,0,0,1,1.14.11,3.94,3.94,0,0,1,1,.28l.22,2.07h-1l-.44-1.34a1.84,1.84,0,0,0-.47-.18,2.1,2.1,0,0,0-.56-.07,1.62,1.62,0,0,0-1,.31.94.94,0,0,0-.4.77,1,1,0,0,0,.44.88,8.74,8.74,0,0,0,1.57.85,5.26,5.26,0,0,1,1.79,1.13,2,2,0,0,1,.51,1.4,2.12,2.12,0,0,1-1,1.79A4.1,4.1,0,0,1,101.28,15.74Z" transform="translate(-0.02 -2.54)"/><path class="cls-1" d="M107.66,15.77a1.35,1.35,0,0,1-1-.39,1.29,1.29,0,0,1-.41-1,1.41,1.41,0,0,1,.17-.69,1.28,1.28,0,0,1,.5-.48,1.53,1.53,0,0,1,1.73.2,1.28,1.28,0,0,1,.4,1,1.32,1.32,0,0,1-.4,1A1.4,1.4,0,0,1,107.66,15.77Z" transform="translate(-0.02 -2.54)"/><path class="cls-1" d="M112.5,15.77a1.37,1.37,0,0,1-1-.39,1.35,1.35,0,0,1,.26-2.15,1.49,1.49,0,0,1,.73-.18,1.41,1.41,0,0,1,1,.38,1.29,1.29,0,0,1,.41,1,1.33,1.33,0,0,1-.41,1A1.38,1.38,0,0,1,112.5,15.77Z" transform="translate(-0.02 -2.54)"/><path class="cls-1" d="M117.33,15.77a1.37,1.37,0,0,1-1-.39,1.33,1.33,0,0,1-.41-1,1.41,1.41,0,0,1,.17-.69,1.36,1.36,0,0,1,.5-.48,1.53,1.53,0,0,1,1.73.2,1.29,1.29,0,0,1,.41,1,1.33,1.33,0,0,1-.41,1A1.4,1.4,0,0,1,117.33,15.77Z" transform="translate(-0.02 -2.54)"/></g></g></svg>