<svg xmlns="http://www.w3.org/2000/svg" viewBox="0 0 170.84 37.84"><defs><style>.cls-1{fill:#f2f3eb;}</style></defs><g id="Layer_2" data-name="Layer 2"><g id="Layer_1-2" data-name="Layer 1"><path class="cls-1" d="M.7,3.84H5.36A6.62,6.62,0,0,1,9.77,5.17a4.55,4.55,0,0,1,1.59,3.7,5.05,5.05,0,0,1-.75,2.74,5.18,5.18,0,0,1-2.06,1.87,6.44,6.44,0,0,1-3,.68H.7l0-.81,1.11-.26a6.11,6.11,0,0,0,.09-.9c0-.5,0-1.1,0-1.77V7.6c0-.72,0-1.34,0-1.83a4.81,4.81,0,0,0-.09-.86L.65,4.65ZM4,4.93C4,5,4,5.18,4,5.39s0,.49,0,.85v5.14c0,.33,0,.63,0,.9s0,.48,0,.65c.31.05.6.08.87.11a7.45,7.45,0,0,0,.79.05,3.16,3.16,0,0,0,2.45-.91A4,4,0,0,0,9,9.41,6.6,6.6,0,0,0,8.7,7.34a3.81,3.81,0,0,0-.79-1.42,3,3,0,0,0-1.2-.83,4.19,4.19,0,0,0-1.52-.26,5.62,5.62,0,0,0-.58,0Z" transform="translate(-0.65 -1.92)"/><path class="cls-1" d="M16.72,14.3a3.88,3.88,0,0,1-2-.49,3.58,3.58,0,0,1-1.37-1.36,4.09,4.09,0,0,1-.49-2,4.07,4.07,0,0,1,.55-2.15,3.92,3.92,0,0,1,1.42-1.44,3.5,3.5,0,0,1,1.88-.51,3,3,0,0,1,2.33,1,3.73,3.73,0,0,1,.8,2.48v.39h-5.2V9.31h3.67l-.24.37V9.15a2.23,2.23,0,0,0-.4-1.39,1.31,1.31,0,0,0-1.1-.51,1.51,1.51,0,0,0-.84.26,1.76,1.76,0,0,0-.62.8,3.34,3.34,0,0,0-.23,1.31v.32A3,3,0,0,0,15.6,12a2.26,2.26,0,0,0,1.8.78,2.67,2.67,0,0,0,1.08-.22,2.76,2.76,0,0,0,1-.77l.51.46a3.54,3.54,0,0,1-1.34,1.53A3.62,3.62,0,0,1,16.72,14.3Z" transform="translate(-0.65 -1.92)"/><path class="cls-1" d="M23.85,14.3a6.08,6.08,0,0,1-1.4-.16,4.17,4.17,0,0,1-1.18-.42l-.09-2h1L22.59,13a2.51,2.51,0,0,0,1.39.41,1.46,1.46,0,0,0,.88-.25.77.77,0,0,0,.31-.65,1,1,0,0,0-.31-.72,4.41,4.41,0,0,0-1.29-.67,4.86,4.86,0,0,1-1.79-1,1.92,1.92,0,0,1-.51-1.37,1.9,1.9,0,0,1,.42-1.21,2.79,2.79,0,0,1,1.17-.83,4.65,4.65,0,0,1,1.73-.3,6.82,6.82,0,0,1,1.1.1,4.07,4.07,0,0,1,.92.27l.2,2h-1l-.41-1.23A1.66,1.66,0,0,0,25,7.29a2.05,2.05,0,0,0-.49-.06,1.49,1.49,0,0,0-.91.26.78.78,0,0,0-.34.66.89.89,0,0,0,.4.74A7.76,7.76,0,0,0,25,9.62a4.83,4.83,0,0,1,1.64,1,1.85,1.85,0,0,1,.49,1.3,2,2,0,0,1-.92,1.71A4.09,4.09,0,0,1,23.85,14.3Z" transform="translate(-0.65 -1.92)"/><path class="cls-1" d="M28,14.16l-.05-.77,1.17-.27a1.09,1.09,0,0,0,0-.3q0-.23,0-.6c0-.26,0-.55,0-.89l0-1.34c0-.36,0-.7,0-1A5.71,5.71,0,0,0,29,8.11l-1.18-.24V7.15l3-.76.4.3c0,.36-.06.73-.08,1.1s0,.79,0,1.27v2.22c0,.43,0,.82,0,1.17a3.31,3.31,0,0,0,.08.67l1.18.27,0,.77Zm2.23-9.41a1.3,1.3,0,0,1-1-.37,1.25,1.25,0,0,1-.37-.91,1.22,1.22,0,0,1,.37-.89,1.27,1.27,0,0,1,1-.39,1.25,1.25,0,0,1,1,.39,1.28,1.28,0,0,1,.35.89,1.31,1.31,0,0,1-.35.91A1.27,1.27,0,0,1,30.18,4.75Z" transform="translate(-0.65 -1.92)"/><path class="cls-1" d="M36.81,18.17A6.31,6.31,0,0,1,34,17.65a1.57,1.57,0,0,1-1-1.4,1.48,1.48,0,0,1,.56-1.1,5.17,5.17,0,0,1,1.64-.89l.74.11a2.59,2.59,0,0,0-.75.72,1.53,1.53,0,0,0-.27.86,1.1,1.1,0,0,0,.53,1,2.69,2.69,0,0,0,1.49.35,3,3,0,0,0,1.68-.44,1.29,1.29,0,0,0,.66-1.11.82.82,0,0,0-.36-.73,2.67,2.67,0,0,0-1.24-.32l-2.08-.18-.19-.08a2.24,2.24,0,0,1-1.29-.34,1,1,0,0,1-.49-.88,1.37,1.37,0,0,1,.53-1,3.91,3.91,0,0,1,1.44-.77l.27.31a1.59,1.59,0,0,0-.38.32.49.49,0,0,0-.13.32.41.41,0,0,0,.16.34.85.85,0,0,0,.45.17l2.53.24a3.51,3.51,0,0,1,2,.67,1.84,1.84,0,0,1,.64,1.46,2.28,2.28,0,0,1-.56,1.48A3.93,3.93,0,0,1,39,17.78,5.87,5.87,0,0,1,36.81,18.17Zm.1-6.12a4.36,4.36,0,0,1-1.79-.35,2.86,2.86,0,0,1-1.2-1,2.42,2.42,0,0,1-.43-1.43,2.64,2.64,0,0,1,.45-1.52,3.27,3.27,0,0,1,1.24-1A4,4,0,0,1,37,6.34a3.82,3.82,0,0,1,1.72.38,3.21,3.21,0,0,1,1.2,1,2.6,2.6,0,0,1,.44,1.48,2.53,2.53,0,0,1-.44,1.45,3,3,0,0,1-1.21,1A4.05,4.05,0,0,1,36.91,12.05Zm.13-.91a1.12,1.12,0,0,0,1-.5,2.26,2.26,0,0,0,.35-1.33A2.61,2.61,0,0,0,38,7.81a1.2,1.2,0,0,0-1-.56,1.14,1.14,0,0,0-1,.53,2.41,2.41,0,0,0-.36,1.39A2.39,2.39,0,0,0,36,10.59,1.24,1.24,0,0,0,37,11.14Zm4.27-3.29L39,7.64l-.65-.78,2.94-.33Z" transform="translate(-0.65 -1.92)"/><path class="cls-1" d="M42,14.16l-.06-.76L43,13.12a1.06,1.06,0,0,0,0-.29q0-.21,0-.6c0-.25,0-.55,0-.9l0-1.34c0-.37,0-.71,0-1A5.75,5.75,0,0,0,43,8.11l-1.12-.24V7.15l2.86-.76.42.3-.1,1,0,0a4.2,4.2,0,0,1,1.2-1,3,3,0,0,1,1.37-.34A2.48,2.48,0,0,1,49,6.71a2.67,2.67,0,0,1,.94,1.07,3.88,3.88,0,0,1,.35,1.72v1.83c0,.4,0,.77,0,1.12a2.58,2.58,0,0,0,.07.67l1.09.28-.06.76H47.23l0-.76,1-.28a2.68,2.68,0,0,0,0-.4c0-.18,0-.38,0-.62s0-.47,0-.72V9.76a2.55,2.55,0,0,0-.22-1.11A1.47,1.47,0,0,0,47.5,8a1.52,1.52,0,0,0-.78-.21,2,2,0,0,0-.91.22,2.24,2.24,0,0,0-.74.64v2.61c0,.44,0,.84,0,1.18a2.23,2.23,0,0,0,.08.66l1.09.28-.06.76Z" transform="translate(-0.65 -1.92)"/><path class="cls-1" d="M56.14,14.3a3.91,3.91,0,0,1-2-.49,3.55,3.55,0,0,1-1.36-1.36,4,4,0,0,1-.49-2,4.07,4.07,0,0,1,.55-2.15A3.85,3.85,0,0,1,54.3,6.86a3.48,3.48,0,0,1,1.88-.51,3,3,0,0,1,2.33,1,3.73,3.73,0,0,1,.8,2.48v.39h-5.2V9.31h3.67l-.25.37V9.15a2.23,2.23,0,0,0-.39-1.39A1.32,1.32,0,0,0,56,7.25a1.46,1.46,0,0,0-.84.26,1.76,1.76,0,0,0-.62.8,3.34,3.34,0,0,0-.23,1.31v.32A3,3,0,0,0,55,12a2.26,2.26,0,0,0,1.8.78,2.67,2.67,0,0,0,1.08-.22,3,3,0,0,0,1-.77l.51.46A3.5,3.5,0,0,1,58,13.79,3.57,3.57,0,0,1,56.14,14.3Z" transform="translate(-0.65 -1.92)"/><path class="cls-1" d="M66.57,14.37l-.41-.25,0-1.12-.05,0a3,3,0,0,1-1,1,2.36,2.36,0,0,1-1.13.3,3.25,3.25,0,0,1-1.74-.48A3.38,3.38,0,0,1,61,12.53a3.9,3.9,0,0,1-.47-1.94,4.21,4.21,0,0,1,.36-1.77,3.85,3.85,0,0,1,1-1.32,4.55,4.55,0,0,1,1.35-.84,4.11,4.11,0,0,1,1.49-.29,4.32,4.32,0,0,1,.79.08,1.88,1.88,0,0,1,.67.24c0-.21,0-.47,0-.77s0-.6,0-.9,0-.58,0-.83,0-.43,0-.54l-1.33-.21,0-.71,3.09-.81.43.29c0,.72-.07,1.41-.09,2s0,1.31,0,2l0,4.06a14.71,14.71,0,0,0,.06,1.47c0,.39.06.68.09.88l1.14.27v.7Zm-1.9-1.56a1.68,1.68,0,0,0,.74-.2,2,2,0,0,0,.72-.65V8.11a1.65,1.65,0,0,0-.67-.6,2,2,0,0,0-.77-.17,1.81,1.81,0,0,0-1.49.72,3.1,3.1,0,0,0-.57,2,3.11,3.11,0,0,0,.6,2.05A1.8,1.8,0,0,0,64.67,12.81Z" transform="translate(-0.65 -1.92)"/><path class="cls-1" d="M76.85,14.23l-3-6.7L73,7.25l0-.75H77l0,.75-.86.28,2,4.64h-.55l2.15-4.69.59,1.12-2.77,5.63Zm5.42,0-2.92-6.7-.86-.28.05-.75h3.92l0,.75-.91.28,1.88,4.64H83l2-4.64L84,7.25l0-.75H87l0,.75-.83.28L83,14.23Z" transform="translate(-0.65 -1.92)"/><path class="cls-1" d="M87.29,14.16l-.05-.77,1.18-.27a2.32,2.32,0,0,0,0-.3c0-.15,0-.35,0-.6s0-.55,0-.89V10c0-.36,0-.7,0-1s-.07-.6-.12-.87l-1.18-.24V7.15l3-.76.41.3c0,.36-.06.73-.08,1.1s0,.79,0,1.27v2.22q0,.65,0,1.17a2.68,2.68,0,0,0,.08.67l1.18.27-.06.77Zm2.24-9.41a1.34,1.34,0,0,1-1-.37,1.25,1.25,0,0,1-.37-.91,1.22,1.22,0,0,1,.37-.89,1.31,1.31,0,0,1,1-.39,1.21,1.21,0,0,1,1,.39,1.24,1.24,0,0,1,.35.89,1.27,1.27,0,0,1-.35.91A1.24,1.24,0,0,1,89.53,4.75Z" transform="translate(-0.65 -1.92)"/><path class="cls-1" d="M98.4,12.81a2.28,2.28,0,0,1-.94,1.1,2.7,2.7,0,0,1-1.43.41,2.73,2.73,0,0,1-1.93-.69,2.71,2.71,0,0,1-.74-2.07l0-4H92.18V7L94.9,4.79h.51l0,2.32,0,4.22a1.57,1.57,0,0,0,.37,1.15,1.43,1.43,0,0,0,1,.36,1.8,1.8,0,0,0,.68-.14,2.15,2.15,0,0,0,.57-.37ZM94.46,7.55v-1h3.45v1Z" transform="translate(-0.65 -1.92)"/><path class="cls-1" d="M98.7,14.16l0-.76,1.09-.28a4.47,4.47,0,0,0,.05-.61c0-.31,0-.68,0-1.12s0-.9,0-1.38V7.81c0-.39,0-.81,0-1.23s0-.83,0-1.22,0-.74,0-1.05,0-.55,0-.72l-1.3-.17,0-.69,3-.81.44.29c0,.36,0,.71,0,1.06s0,.72,0,1.13,0,.88,0,1.4,0,1.14,0,1.86h0a4.16,4.16,0,0,1,1.2-1,2.87,2.87,0,0,1,1.35-.33,2.46,2.46,0,0,1,1.31.36,2.6,2.6,0,0,1,.94,1.07A3.74,3.74,0,0,1,107,9.5v1.83c0,.4,0,.77,0,1.12a6.55,6.55,0,0,0,.06.67l1.09.28,0,.76H104l0-.76,1-.28a2.46,2.46,0,0,0,.06-.4c0-.18,0-.38,0-.62s0-.47,0-.72V9.76a2.41,2.41,0,0,0-.22-1.11,1.41,1.41,0,0,0-.57-.63,1.46,1.46,0,0,0-.77-.21,2.07,2.07,0,0,0-.91.22,2.27,2.27,0,0,0-.75.64v2.61q0,.71,0,1.2a3.24,3.24,0,0,0,.08.64l1.07.28,0,.76Z" transform="translate(-0.65 -1.92)"/><path class="cls-1" d="M112.17,14.16l-.06-.77,1.15-.27a4.47,4.47,0,0,0,0-.61c0-.31,0-.68,0-1.12s0-.9,0-1.38V7.8c0-.41,0-.83,0-1.26s0-.84,0-1.22,0-.73,0-1,0-.53,0-.7L112,3.42l0-.69L115,1.92l.44.29c0,.49,0,1,0,1.45s0,1,0,1.59V7.39l0,2.67c0,.78,0,1.45,0,2a7.36,7.36,0,0,0,.07,1l1.14.27,0,.77Z" transform="translate(-0.65 -1.92)"/><path class="cls-1" d="M121.54,14.3a4.36,4.36,0,0,1-2.11-.5A3.69,3.69,0,0,1,118,12.41a4,4,0,0,1-.51-2,3.94,3.94,0,0,1,.57-2.15,3.81,3.81,0,0,1,1.51-1.39,4.4,4.4,0,0,1,2-.49,3.93,3.93,0,0,1,2,.5A3.4,3.4,0,0,1,125,8.22a4,4,0,0,1,.49,2,4.17,4.17,0,0,1-.52,2.06,3.88,3.88,0,0,1-1.41,1.46A3.72,3.72,0,0,1,121.54,14.3Zm.17-1a1.2,1.2,0,0,0,.84-.31,1.91,1.91,0,0,0,.55-.89,4.19,4.19,0,0,0,.19-1.35,5,5,0,0,0-.52-2.46,1.6,1.6,0,0,0-1.41-.95,1.38,1.38,0,0,0-1.21.72,3.5,3.5,0,0,0-.46,1.92,5.28,5.28,0,0,0,.26,1.7,3,3,0,0,0,.72,1.19A1.47,1.47,0,0,0,121.71,13.28Z" transform="translate(-0.65 -1.92)"/><path class="cls-1" d="M130,14.23l-3.2-6.7L126,7.25l0-.75h4.13l.06.75-1.09.28,2.12,4.64h-.51l2-4.64-1.09-.28,0-.75h3.1l0,.75-.82.28-3.29,6.7Z" transform="translate(-0.65 -1.92)"/><path class="cls-1" d="M138.94,14.3a3.88,3.88,0,0,1-2-.49,3.49,3.49,0,0,1-1.36-1.36,4,4,0,0,1-.5-2,4.07,4.07,0,0,1,.55-2.15,3.92,3.92,0,0,1,1.42-1.44A3.5,3.5,0,0,1,139,6.35a3,3,0,0,1,2.33,1,3.73,3.73,0,0,1,.8,2.48v.39h-5.2V9.31h3.67l-.24.37V9.15a2.23,2.23,0,0,0-.4-1.39,1.31,1.31,0,0,0-1.1-.51,1.51,1.51,0,0,0-.84.26,1.83,1.83,0,0,0-.62.8,3.34,3.34,0,0,0-.23,1.31v.32a3,3,0,0,0,.68,2.07,2.26,2.26,0,0,0,1.8.78,2.67,2.67,0,0,0,1.08-.22,2.76,2.76,0,0,0,1-.77l.51.46a3.48,3.48,0,0,1-1.34,1.53A3.62,3.62,0,0,1,138.94,14.3Z" transform="translate(-0.65 -1.92)"/><path class="cls-1" d="M147.34,13.67c0-.4,0-.79,0-1.15s0-.75,0-1.13V7.8c0-.5,0-1,0-1.43s0-.87,0-1.25,0-.69,0-1,0-.47,0-.58L146,3.42l0-.69,3-.81.44.29q0,.72-.06,1.44c0,.48,0,1,0,1.66s0,1.4-.05,2.33l.05,0a3.34,3.34,0,0,1,1-.92,2.63,2.63,0,0,1,1.39-.39,3.12,3.12,0,0,1,1.61.44A3.16,3.16,0,0,1,154.6,8a3.84,3.84,0,0,1,.46,1.92,4.38,4.38,0,0,1-.58,2.22,4.29,4.29,0,0,1-1.63,1.56,4.87,4.87,0,0,1-2.42.58,7.66,7.66,0,0,1-1.59-.17A8.41,8.41,0,0,1,147.34,13.67Zm3.52-.53a1.86,1.86,0,0,0,1.46-.68,3.09,3.09,0,0,0,.61-2.06,2.59,2.59,0,0,0-.6-1.93,2,2,0,0,0-1.44-.6,2,2,0,0,0-.84.18,2,2,0,0,0-.71.54v4.06a2.5,2.5,0,0,0,1.52.49Z" transform="translate(-0.65 -1.92)"/><path class="cls-1" d="M159.56,14.23l-3.18-6.7-.83-.28,0-.75h4.11l.06.75-1.09.28,2.11,4.64Zm4.76-7.73.05.75-.82.28-3,6.12-1.39,2.92a3.32,3.32,0,0,1-.91,1.25,1.69,1.69,0,0,1-1,.35,1.33,1.33,0,0,1-.87-.27.81.81,0,0,1-.32-.65.89.89,0,0,1,.28-.64,2,2,0,0,1,.84-.45l1.92-.54-1.06.82,2.08-3.88.21-.39,2-4.64-1.09-.28.05-.75Z" transform="translate(-0.65 -1.92)"/><path class="cls-1" d="M170,9.17a1.44,1.44,0,0,1-1-.41,1.3,1.3,0,0,1-.43-1,1.44,1.44,0,0,1,.19-.75,1.37,1.37,0,0,1,.53-.51,1.49,1.49,0,0,1,1.78.22,1.39,1.39,0,0,1,.43,1,1.3,1.3,0,0,1-.43,1A1.47,1.47,0,0,1,170,9.17Zm0,5.16a1.43,1.43,0,0,1-1-.4,1.3,1.3,0,0,1-.43-1,1.4,1.4,0,0,1,.72-1.25,1.43,1.43,0,0,1,.74-.19,1.47,1.47,0,0,1,1,.41,1.37,1.37,0,0,1,.43,1,1.3,1.3,0,0,1-.43,1A1.46,1.46,0,0,1,170,14.33Z" transform="translate(-0.65 -1.92)"/><path class="cls-1" d="M73.69,35.86c-.32,0-.68-.06-1.08-.07l-1.1,0H65.46l0-.81,1.11-.26a2.64,2.64,0,0,0,.06-.44c0-.24,0-.54,0-.93s0-.81,0-1.31V29.2c0-.5,0-.95,0-1.33s0-.7,0-.94a2.13,2.13,0,0,0-.06-.42l-1.11-.26,0-.81h6.25c.29,0,.57,0,.86,0l.75,0,.42,2.52-.93.12-.63-1.51-.39-.06H69.23a3.49,3.49,0,0,0-.5,0c0,.07,0,.21,0,.4s0,.45,0,.74v5.92c0,.27,0,.51,0,.7s0,.34,0,.43l.62.05c.21,0,.47,0,.79,0H72l.35,0,.25,0,1-1.72.93.17Zm-2.15-3.65L71.37,31,71,31a5.15,5.15,0,0,0-.58,0H69.36a5.06,5.06,0,0,0-.55,0l-.47,0V29.89l.47,0h2.56l.17-1.2h.9v3.5Z" transform="translate(-0.65 -1.92)"/><path class="cls-1" d="M78.36,35.83l-3.2-6.7-.82-.28,0-.76H78.5l.06.76-1.09.28,2.12,4.64h-.51l2-4.64L80,28.85l0-.76h3.1l0,.76-.82.28-3.29,6.7Z" transform="translate(-0.65 -1.92)"/><path class="cls-1" d="M87.52,35.9a4.29,4.29,0,0,1-2.1-.5A3.69,3.69,0,0,1,84,34a4,4,0,0,1-.51-2,3.94,3.94,0,0,1,.57-2.15,3.74,3.74,0,0,1,1.51-1.39,4.39,4.39,0,0,1,2-.49,4,4,0,0,1,2,.5,3.4,3.4,0,0,1,1.34,1.37,4.45,4.45,0,0,1,0,4.08,3.88,3.88,0,0,1-1.41,1.46A3.73,3.73,0,0,1,87.52,35.9Zm.18-1a1.2,1.2,0,0,0,.84-.31,1.91,1.91,0,0,0,.55-.89,4.48,4.48,0,0,0,.19-1.35,5,5,0,0,0-.53-2.46,1.58,1.58,0,0,0-1.4-.95,1.39,1.39,0,0,0-1.22.72,3.59,3.59,0,0,0-.45,1.92,5,5,0,0,0,.26,1.7,3,3,0,0,0,.72,1.19A1.45,1.45,0,0,0,87.7,34.88Z" transform="translate(-0.65 -1.92)"/><path class="cls-1" d="M92.48,35.76l0-.76,1.09-.28a2.57,2.57,0,0,0,0-.3c0-.15,0-.35,0-.6s0-.55,0-.89l0-1.34c0-.36,0-.7,0-1a7.25,7.25,0,0,0-.13-.87l-1.12-.24v-.72L95.17,28l.38.28-.07,1.41h.06a3.54,3.54,0,0,1,1-1.33A1.88,1.88,0,0,1,97.63,28a1.29,1.29,0,0,1,.78.24.9.9,0,0,1,.33.76,1,1,0,0,1-.36.79,1.27,1.27,0,0,1-.84.28,1.75,1.75,0,0,1-.7-.14,2.35,2.35,0,0,1-.67-.47l.42.05a3,3,0,0,0-.54.53,3.88,3.88,0,0,0-.48.77l0,1.46c0,.39,0,.75,0,1.08s0,.62,0,.86a3.64,3.64,0,0,0,0,.5l1.52.25,0,.79Z" transform="translate(-0.65 -1.92)"/><path class="cls-1" d="M102.92,35.83l-3.18-6.7-.83-.28,0-.76h4.12l0,.76-1.09.28,2.11,4.64Zm4.76-7.74.06.76-.83.28-3,6.12-1.39,2.92a3.22,3.22,0,0,1-.91,1.25,1.68,1.68,0,0,1-1,.35,1.29,1.29,0,0,1-.87-.27.79.79,0,0,1-.33-.65.93.93,0,0,1,.28-.64,1.94,1.94,0,0,1,.85-.45l1.91-.54-1,.82,2.07-3.88.21-.39,2-4.64-1.09-.28.06-.76Z" transform="translate(-0.65 -1.92)"/></g></g></svg>