<svg xmlns="http://www.w3.org/2000/svg" viewBox="0 0 133.51 55.43"><defs><style>.cls-1{fill:#f2f3eb;}.cls-2{fill:#8a8e6d;}</style></defs><g id="Layer_2" data-name="Layer 2"><g id="Layer_1-2" data-name="Layer 1"><rect class="cls-1" width="133.51" height="55.43" rx="27.71"/><path class="cls-2" d="M38.88,30.37l-.72,0-.73,0H32.26l0-.69.94-.22a1.78,1.78,0,0,0,0-.39c0-.21,0-.47,0-.8s0-.68,0-1.07V24.74c0-.4,0-.77,0-1.09s0-.59,0-.8a1.53,1.53,0,0,0,0-.37l-.94-.24,0-.68h4l0,.71-1.23.21a3.39,3.39,0,0,0,0,.34c0,.19,0,.45,0,.78s0,.71,0,1.14v2.38c0,.55,0,1,0,1.37s0,.61,0,.73a4,4,0,0,0,.5.06h1.33a5,5,0,0,0,.6,0l.44-.06.82-1.56.83.21Z"/><path class="cls-2" d="M43.53,30.4A3.66,3.66,0,0,1,41.75,30a3,3,0,0,1-1.19-1.17,3.67,3.67,0,0,1,0-3.54,3.3,3.3,0,0,1,1.28-1.18,3.7,3.7,0,0,1,1.7-.4,3.31,3.31,0,0,1,1.69.41,3,3,0,0,1,1.14,1.16,3.73,3.73,0,0,1,0,3.46A3.27,3.27,0,0,1,45.2,30,3.19,3.19,0,0,1,43.53,30.4Zm.15-.86a1,1,0,0,0,.71-.26,1.63,1.63,0,0,0,.46-.75A3.6,3.6,0,0,0,45,27.39a4.19,4.19,0,0,0-.45-2.08,1.34,1.34,0,0,0-1.19-.81,1.17,1.17,0,0,0-1,.61A3,3,0,0,0,42,26.73a4.37,4.37,0,0,0,.22,1.45,2.46,2.46,0,0,0,.61,1A1.26,1.26,0,0,0,43.68,29.54Z"/><path class="cls-2" d="M50.89,33.67a5.29,5.29,0,0,1-2.36-.43,1.33,1.33,0,0,1-.85-1.19,1.24,1.24,0,0,1,.47-.92,4.16,4.16,0,0,1,1.39-.76l.62.09a2.3,2.3,0,0,0-.63.61,1.24,1.24,0,0,0-.23.73,1,1,0,0,0,.44.82,2.27,2.27,0,0,0,1.27.3,2.58,2.58,0,0,0,1.42-.37,1.1,1.1,0,0,0,.55-.94.72.72,0,0,0-.3-.63,2.39,2.39,0,0,0-1-.26l-1.75-.15-.17-.08a1.88,1.88,0,0,1-1.09-.28.87.87,0,0,1-.41-.74,1.15,1.15,0,0,1,.45-.85A3.34,3.34,0,0,1,49.88,28l.22.26a1.51,1.51,0,0,0-.32.27.45.45,0,0,0-.11.27.35.35,0,0,0,.13.29.78.78,0,0,0,.39.14l2.14.21A3,3,0,0,1,54,30a1.56,1.56,0,0,1,.55,1.24A1.9,1.9,0,0,1,54,32.46a3.34,3.34,0,0,1-1.29.89A5,5,0,0,1,50.89,33.67ZM51,28.5a3.62,3.62,0,0,1-1.52-.3,2.45,2.45,0,0,1-1-.82,2.1,2.1,0,0,1-.36-1.21,2.19,2.19,0,0,1,.39-1.29,2.65,2.65,0,0,1,1-.88,3.31,3.31,0,0,1,1.5-.33,3.1,3.1,0,0,1,1.45.33,2.56,2.56,0,0,1,1,.88,2.14,2.14,0,0,1,.38,1.24,2.11,2.11,0,0,1-.38,1.23,2.49,2.49,0,0,1-1,.85A3.49,3.49,0,0,1,51,28.5Zm.1-.77a.92.92,0,0,0,.8-.42,1.87,1.87,0,0,0,.3-1.13,2.18,2.18,0,0,0-.33-1.26,1,1,0,0,0-.86-.48.94.94,0,0,0-.81.45,2,2,0,0,0-.32,1.17,2,2,0,0,0,.34,1.21A1,1,0,0,0,51.08,27.73ZM54.69,25l-1.93-.18-.55-.65,2.48-.29Z"/><path class="cls-2" d="M58.8,30.4A3.63,3.63,0,0,1,57,30a3.07,3.07,0,0,1-1.2-1.17,3.48,3.48,0,0,1-.43-1.72,3.28,3.28,0,0,1,1.76-3,3.71,3.71,0,0,1,1.71-.4,3.31,3.31,0,0,1,1.69.41,3,3,0,0,1,1.14,1.16,3.73,3.73,0,0,1,0,3.46A3.27,3.27,0,0,1,60.47,30,3.19,3.19,0,0,1,58.8,30.4Zm.15-.86a1,1,0,0,0,.71-.26,1.63,1.63,0,0,0,.46-.75,3.61,3.61,0,0,0,.16-1.14,4.31,4.31,0,0,0-.44-2.08,1.35,1.35,0,0,0-1.19-.81,1.19,1.19,0,0,0-1,.61,3,3,0,0,0-.38,1.62,4.37,4.37,0,0,0,.22,1.45,2.46,2.46,0,0,0,.61,1A1.26,1.26,0,0,0,59,29.54Z"/><path class="cls-2" d="M73.08,30.37c-.27,0-.57-.05-.91-.06s-.65,0-.93,0H66.12l0-.69.94-.22a2.11,2.11,0,0,0,0-.37c0-.2,0-.46,0-.78s0-.69,0-1.11V24.74c0-.42,0-.8,0-1.13s0-.59,0-.79a1.77,1.77,0,0,0,0-.35l-.94-.23,0-.68h5.29l.73,0,.63,0,.36,2.12-.79.11-.54-1.28-.32-.05H69.31a2.58,2.58,0,0,0-.42,0c0,.06,0,.18,0,.34s0,.38,0,.63,0,.52,0,.82v3.41c0,.28,0,.54,0,.77s0,.43,0,.6,0,.28,0,.36l.52,0,.67,0h1.56l.3,0,.2,0L73,27.89l.79.15Zm-1.81-3.09-.15-1-.31,0-.49,0h-.9l-.46,0-.4,0v-1l.4,0h2.16l.15-1H72v3Z"/><path class="cls-2" d="M77,30.35l-2.71-5.67-.7-.24,0-.63h3.49l0,.63-.92.24,1.8,3.93h-.43l1.68-3.93-.93-.24,0-.63h2.61l0,.63-.69.24-2.78,5.67Z"/><path class="cls-2" d="M84.78,30.4A3.66,3.66,0,0,1,83,30a3,3,0,0,1-1.19-1.17,3.67,3.67,0,0,1,0-3.54,3.3,3.3,0,0,1,1.28-1.18,3.67,3.67,0,0,1,1.7-.4,3.31,3.31,0,0,1,1.69.41,3,3,0,0,1,1.14,1.16,3.73,3.73,0,0,1,0,3.46A3.27,3.27,0,0,1,86.45,30,3.19,3.19,0,0,1,84.78,30.4Zm.15-.86a1,1,0,0,0,.71-.26,1.63,1.63,0,0,0,.46-.75,3.6,3.6,0,0,0,.17-1.14,4.19,4.19,0,0,0-.45-2.08,1.34,1.34,0,0,0-1.19-.81,1.16,1.16,0,0,0-1,.61,3,3,0,0,0-.39,1.62,4.37,4.37,0,0,0,.22,1.45,2.46,2.46,0,0,0,.61,1A1.26,1.26,0,0,0,84.93,29.54Z"/><path class="cls-2" d="M89,30.29l0-.64.92-.24a2.1,2.1,0,0,0,0-.25c0-.13,0-.3,0-.52s0-.46,0-.75l0-1.13c0-.3,0-.59,0-.85a5.48,5.48,0,0,0-.11-.74l-1-.21v-.6l2.4-.64.32.23-.06,1.19,0,0A3,3,0,0,1,92.43,24a1.61,1.61,0,0,1,.9-.3,1.08,1.08,0,0,1,.66.21.76.76,0,0,1,.27.64.83.83,0,0,1-.29.67,1.12,1.12,0,0,1-.72.24,1.59,1.59,0,0,1-.59-.12,2.12,2.12,0,0,1-.57-.41l.36.05a2.77,2.77,0,0,0-.46.45,3.41,3.41,0,0,0-.4.65v1.23c0,.33,0,.63,0,.92s0,.52,0,.73,0,.34,0,.42l1.3.21,0,.67Z"/><path class="cls-2" d="M97.8,30.35l-2.69-5.67-.7-.24,0-.63h3.47l0,.63-.92.24,1.78,3.93Zm4-6.54,0,.63-.7.24L98.6,29.86l-1.17,2.46a2.83,2.83,0,0,1-.77,1.07,1.43,1.43,0,0,1-.87.28,1.12,1.12,0,0,1-.73-.22.67.67,0,0,1-.28-.55.75.75,0,0,1,.24-.54,1.63,1.63,0,0,1,.72-.38l1.61-.46-.89.7,1.76-3.29.18-.32,1.7-3.93-.92-.24,0-.63Z"/></g></g></svg>