<svg xmlns="http://www.w3.org/2000/svg" xmlns:xlink="http://www.w3.org/1999/xlink" viewBox="0 0 306.29 518.23"><defs><style>.cls-1{fill:#b69991;}.cls-2{clip-path:url(#clip-path);}.cls-3{fill:#f2f3eb;}</style><clipPath id="clip-path"><rect class="cls-1" width="306.29" height="518.23" rx="12.45"/></clipPath></defs><g id="Layer_2" data-name="Layer 2"><g id="Layer_1-2" data-name="Layer 1"><rect class="cls-1" width="306.29" height="518.23" rx="12.45"/><g class="cls-2"><path class="cls-3" d="M153.36,346.52H39.74c-3.08,0-3.11,0-3.31-3C35,322.12,39.8,302.24,51.2,284.09a95.14,95.14,0,0,1,39.54-35.54,92.7,92.7,0,0,1,41.17-9.5h42.88a92.6,92.6,0,0,1,53,16.13c19.35,13.07,32.36,30.9,39.13,53.27a98.87,98.87,0,0,1,3.82,34.63c-.2,3.43-.23,3.44-3.57,3.44Z"/><path class="cls-3" d="M211.17,173.22c.24,32.61-26.34,58.81-57.95,58.55-32-.27-57.42-26.42-57.25-59.06a57.8,57.8,0,0,1,58-57.7C185.65,115.16,211.31,141.27,211.17,173.22Z"/></g></g></g></svg>