<svg xmlns="http://www.w3.org/2000/svg" xmlns:xlink="http://www.w3.org/1999/xlink" viewBox="0 0 146.33 151.72"><defs><style>.cls-1{fill:#b69991;}.cls-2{clip-path:url(#clip-path);}.cls-3{fill:#f2f3eb;}</style><clipPath id="clip-path"><rect class="cls-1" width="146.33" height="151.72" rx="12.45"/></clipPath></defs><g id="Layer_2" data-name="Layer 2"><g id="Layer_1-2" data-name="Layer 1"><rect class="cls-1" width="146.33" height="151.72" rx="12.45"/><g class="cls-2"><path class="cls-3" d="M73.08,123.69H26.13c-1.27,0-1.28,0-1.36-1.25a40.06,40.06,0,0,1,6.1-24.55A39.28,39.28,0,0,1,47.21,83.21a38.34,38.34,0,0,1,17-3.93q8.85,0,17.72,0A38.3,38.3,0,0,1,103.84,86,39.68,39.68,0,0,1,120,108a41,41,0,0,1,1.58,14.31c-.09,1.42-.1,1.42-1.48,1.42Z"/><path class="cls-3" d="M97,52.09A23.8,23.8,0,1,1,73.32,28,24,24,0,0,1,97,52.09Z"/></g></g></g></svg>