<svg xmlns="http://www.w3.org/2000/svg" xmlns:xlink="http://www.w3.org/1999/xlink" viewBox="0 0 306.29 163.05"><defs><style>.cls-1{fill:#b69991;}.cls-2{clip-path:url(#clip-path);}.cls-3{fill:#f2f3eb;}</style><clipPath id="clip-path"><rect class="cls-1" width="306.29" height="163.05" rx="12.45"/></clipPath></defs><g id="Layer_2" data-name="Layer 2"><g id="Layer_1-2" data-name="Layer 1"><rect class="cls-1" width="306.29" height="163.05" rx="12.45"/><g class="cls-2"><path class="cls-3" d="M153,144.35H95.58c-1.56,0-1.57,0-1.67-1.53a49.05,49.05,0,0,1,7.47-30,48.14,48.14,0,0,1,20-18A47.06,47.06,0,0,1,142.19,90q10.84,0,21.69,0a46.87,46.87,0,0,1,26.8,8.16,48.5,48.5,0,0,1,19.79,26.94,49.82,49.82,0,0,1,1.93,17.51c-.1,1.73-.12,1.74-1.8,1.74Z"/><path class="cls-3" d="M182.27,56.72a29.13,29.13,0,1,1-28.94-29.44A29.33,29.33,0,0,1,182.27,56.72Z"/></g></g></g></svg>