<svg xmlns="http://www.w3.org/2000/svg" viewBox="0 0 127.53 82.08"><defs><style>.cls-1{fill:#8a8e6d;}</style></defs><g id="Layer_2" data-name="Layer 2"><g id="Layer_1-2" data-name="Layer 1"><path class="cls-1" d="M6,30.89a8,8,0,0,0,4.13-1.21,19.08,19.08,0,0,0,3.92-3.19,38.49,38.49,0,0,0,3.71-4.57q1.81-2.57,3.49-5.33t3.26-5.48q1.57-2.71,3-5a42.47,42.47,0,0,1,2.82-3.9A8,8,0,0,1,33,0c.09,0,.17,0,.25.12s.1.18,0,.21A17,17,0,0,0,31.4,5a30,30,0,0,0-.75,4.77c-.13,1.61-.18,3.2-.17,4.79s0,3.16-.1,4.69a27.57,27.57,0,0,1-.6,4.49A13.84,13.84,0,0,1,28.1,27.9a69.1,69.1,0,0,0,4.52-6.1c1.38-2.11,2.69-4.17,3.92-6.21s2.42-4,3.55-5.81A46.77,46.77,0,0,1,43.47,5a17.2,17.2,0,0,1,3.45-3.32A6.32,6.32,0,0,1,50.63.38,3.27,3.27,0,0,1,52.48,1a1.78,1.78,0,0,1,.85,1.54,3.18,3.18,0,0,1-.39,1.41,2.61,2.61,0,0,1-.46.58.91.91,0,0,1-.64.25,1.17,1.17,0,0,1-.59-.21,1.06,1.06,0,0,1-.45-.91,1.13,1.13,0,0,1,.5-1,1.26,1.26,0,0,0,.58-1,.69.69,0,0,0-.44-.66,1.65,1.65,0,0,0-.89-.17,6.12,6.12,0,0,0-3.63,1.49,21,21,0,0,0-3.45,3.72A60.73,60.73,0,0,0,40,11.38q-1.78,3-3.78,6.2c-1.33,2.15-2.77,4.29-4.32,6.44a53.42,53.42,0,0,1-5.1,6l-.87.87-.75,0a7.93,7.93,0,0,0,1.62-3.57,30.4,30.4,0,0,0,.5-4.62c.05-1.67.07-3.43,0-5.28a41.52,41.52,0,0,1,.29-5.56,25.18,25.18,0,0,1,1.24-5.38,14,14,0,0,1,2.87-4.77,11.14,11.14,0,0,0-2,2.41Q28.6,5.77,27.29,8c-.87,1.46-1.81,3.06-2.8,4.79s-2,3.46-3.14,5.19-2.24,3.39-3.44,5a35.11,35.11,0,0,1-3.74,4.25,19.23,19.23,0,0,1-4,3A8.49,8.49,0,0,1,6.06,31.3a7.29,7.29,0,0,1-2.41-.39,5.71,5.71,0,0,1-1.93-1.14A5.16,5.16,0,0,1,.46,27.94,6.15,6.15,0,0,1,0,25.49a5.2,5.2,0,0,1,.46-2.18,5.61,5.61,0,0,1,1.22-1.76,5.75,5.75,0,0,1,1.79-1.18,5.18,5.18,0,0,1,2.13-.44A5.07,5.07,0,0,1,9,20.86a3.33,3.33,0,0,1,1.23,2.06,3,3,0,0,1-.46,2,1.9,1.9,0,0,1-1.68.94,1.22,1.22,0,0,1-.73-.23A.91.91,0,0,1,7,24.91a.87.87,0,0,1,.38-.73,1.51,1.51,0,0,1,.91-.27,1,1,0,0,0,1-.54,1.33,1.33,0,0,0,0-1.18A2.85,2.85,0,0,0,8.13,21a4.54,4.54,0,0,0-2.4-.54,4.87,4.87,0,0,0-1.87.37,5.51,5.51,0,0,0-1.64,1A5.13,5.13,0,0,0,1,23.5a4.78,4.78,0,0,0-.46,2.12,4.84,4.84,0,0,0,.48,2.17A5.31,5.31,0,0,0,2.3,29.45a5.58,5.58,0,0,0,1.75,1.06A5.43,5.43,0,0,0,6,30.89Z"/><path class="cls-1" d="M43.62,17.48a3,3,0,0,1,2.3.79,2.58,2.58,0,0,1,.69,1.91l1.7-2.7h2.61L45,27.23a3,3,0,0,0-.58,2.24c.16.56.47.83.91.83a3.46,3.46,0,0,0,2.2-1.18c.83-.79,2-1.95,3.4-3.5.39-.45.76-.86,1.1-1.23s.65-.71.89-1,.59-.65.83-.95h.79L51.28,26.2a36.08,36.08,0,0,1-2.49,2.65,12.07,12.07,0,0,1-2,1.56,3.26,3.26,0,0,1-1.7.52,2.08,2.08,0,0,1-1.8-1,3.45,3.45,0,0,1-.44-2.57A13.52,13.52,0,0,1,40.55,30a4.19,4.19,0,0,1-2.83,1.08,2.86,2.86,0,0,1-2-.76,3.76,3.76,0,0,1-1.06-2,6.84,6.84,0,0,1,.11-2.82,8.93,8.93,0,0,1,1.47-3.19,13.19,13.19,0,0,1,3.46-3.55A7,7,0,0,1,43.62,17.48ZM44,18a4.08,4.08,0,0,0-2.65,1.14,13.52,13.52,0,0,0-2.62,3.26,13.34,13.34,0,0,0-1.35,3A8.81,8.81,0,0,0,37,27.92a3.82,3.82,0,0,0,.35,1.76,1.1,1.1,0,0,0,1,.67,2.42,2.42,0,0,0,1.49-.63,9.51,9.51,0,0,0,1.62-1.66c.55-.69,1.11-1.48,1.68-2.36L44.86,23a6.47,6.47,0,0,0,.9-2,4,4,0,0,0,0-1.56A1.74,1.74,0,0,0,44,18Z"/><path class="cls-1" d="M60.88,17.48a3,3,0,0,1,2.31.79,2.58,2.58,0,0,1,.68,1.91L72.25,6.52h2.62L62.25,27.23a3,3,0,0,0-.58,2.24c.17.56.47.83.91.83a3.46,3.46,0,0,0,2.2-1.18c.83-.79,2-1.95,3.41-3.5.38-.45.75-.86,1.1-1.23s.64-.71.89-1,.58-.65.83-.95h.79L68.54,26.2a36.08,36.08,0,0,1-2.49,2.65,12.05,12.05,0,0,1-2,1.56,3.28,3.28,0,0,1-1.7.52,2.1,2.1,0,0,1-1.81-1,3.41,3.41,0,0,1-.43-2.57A13.55,13.55,0,0,1,57.81,30,4.19,4.19,0,0,1,55,31.09a2.84,2.84,0,0,1-2.05-.76,3.7,3.7,0,0,1-1.06-2,6.82,6.82,0,0,1,.1-2.82,9.29,9.29,0,0,1,1.47-3.19,13.07,13.07,0,0,1,3.47-3.55A7,7,0,0,1,60.88,17.48Zm.42.54a4.1,4.1,0,0,0-2.66,1.14A13.51,13.51,0,0,0,56,22.42a13.34,13.34,0,0,0-1.35,3,8.86,8.86,0,0,0-.44,2.53,3.69,3.69,0,0,0,.36,1.76,1.09,1.09,0,0,0,1,.67,2.47,2.47,0,0,0,1.5-.63,9.86,9.86,0,0,0,1.61-1.66,27.38,27.38,0,0,0,1.69-2.36c.56-.89,1.14-1.79,1.72-2.7A6.19,6.19,0,0,0,63,21a3.78,3.78,0,0,0,0-1.56,1.74,1.74,0,0,0-.62-1A1.79,1.79,0,0,0,61.3,18Z"/><path class="cls-1" d="M70.93,30.93a2.06,2.06,0,0,1-1.46-.54,2.6,2.6,0,0,1-.76-1.48,4.91,4.91,0,0,1,.1-2.13,9.22,9.22,0,0,1,1.12-2.58l4.19-6.72h2.62L70.8,27.23a3,3,0,0,0-.58,2.24c.17.56.47.83.91.83a3.46,3.46,0,0,0,2.2-1.18c.83-.79,2-1.95,3.41-3.5.38-.45.75-.86,1.1-1.23s.64-.71.89-1,.58-.65.83-.95h.79L77.09,26.2a36.08,36.08,0,0,1-2.49,2.65,12.05,12.05,0,0,1-2,1.56A3.28,3.28,0,0,1,70.93,30.93Zm5.14-18a1.42,1.42,0,0,1,.42-1,1.36,1.36,0,0,1,1-.44A1.5,1.5,0,0,1,79,12.92a1.36,1.36,0,0,1-.44,1,1.42,1.42,0,0,1-1,.42,1.43,1.43,0,0,1-1.45-1.45Z"/><path class="cls-1" d="M72.5,44.21a3.25,3.25,0,0,1-2.41-.89,2.93,2.93,0,0,1-.87-2.1A3.93,3.93,0,0,1,70,38.88a8.66,8.66,0,0,1,2.1-2A20,20,0,0,1,75.3,35c1.26-.58,2.67-1.17,4.22-1.75a16.66,16.66,0,0,0,2.57-1.12l3.82-6.35a38.49,38.49,0,0,1-3.74,3.86,4.35,4.35,0,0,1-2.74,1.25A2.05,2.05,0,0,1,78,30.39a2.67,2.67,0,0,1-.77-1.48,4.92,4.92,0,0,1,.11-2.13,8.94,8.94,0,0,1,1.12-2.58l4.19-6.72h2.61l-5.93,9.75a3,3,0,0,0-.58,2.24c.16.56.47.83.91.83a3.46,3.46,0,0,0,2.2-1.18c.83-.79,2-1.95,3.4-3.5L86.74,24l1-1.13,3.2-5.35h2.61L86,29.93a32.11,32.11,0,0,0,3.82-3.15,31.27,31.27,0,0,0,3.73-4.36h.79a31,31,0,0,1-4.56,5.35,30,30,0,0,1-4.57,3.49l-1.78,2.95c-.61,1-1.29,2.15-2.06,3.32a24.22,24.22,0,0,1-2.51,3.23,13.64,13.64,0,0,1-3,2.47A6.49,6.49,0,0,1,72.5,44.21Zm9-11a11.78,11.78,0,0,1-1.54.62c-1.52.58-2.9,1.15-4.13,1.7a20.76,20.76,0,0,0-3.13,1.71,7.77,7.77,0,0,0-2,1.84,3.52,3.52,0,0,0-.71,2.1,2.29,2.29,0,0,0,.25,1.12,2.54,2.54,0,0,0,.62.75,2.39,2.39,0,0,0,.81.41,3.09,3.09,0,0,0,.81.13,3.34,3.34,0,0,0,2.14-.88,14.15,14.15,0,0,0,2.1-2.22c.69-.9,1.38-1.89,2.07-3l2-3.22Z"/><path class="cls-1" d="M100.64,17.48a3,3,0,0,1,2.3.79,2.54,2.54,0,0,1,.69,1.91l1.7-2.7h2.61L102,27.23a3,3,0,0,0-.58,2.24c.16.56.47.83.91.83a3.46,3.46,0,0,0,2.2-1.18c.83-.79,2-1.95,3.4-3.5.39-.45.76-.86,1.1-1.23s.65-.71.9-1,.58-.65.83-.95h.79q-1.87,2.16-3.26,3.78a36.08,36.08,0,0,1-2.49,2.65,12.49,12.49,0,0,1-2,1.56,3.32,3.32,0,0,1-1.71.52,2.09,2.09,0,0,1-1.8-1,3.45,3.45,0,0,1-.44-2.57A13.52,13.52,0,0,1,97.57,30a4.19,4.19,0,0,1-2.82,1.08,2.88,2.88,0,0,1-2.06-.76,3.76,3.76,0,0,1-1.06-2,6.84,6.84,0,0,1,.11-2.82,8.93,8.93,0,0,1,1.47-3.19,13.07,13.07,0,0,1,3.47-3.55A7,7,0,0,1,100.64,17.48Zm.42.54a4.08,4.08,0,0,0-2.66,1.14,13.52,13.52,0,0,0-2.62,3.26,13.75,13.75,0,0,0-1.34,3A8.86,8.86,0,0,0,94,27.92a3.82,3.82,0,0,0,.35,1.76,1.11,1.11,0,0,0,1,.67,2.42,2.42,0,0,0,1.49-.63,9.51,9.51,0,0,0,1.62-1.66,25.37,25.37,0,0,0,1.68-2.36c.57-.89,1.14-1.79,1.73-2.7a6.41,6.41,0,0,0,.89-2,3.78,3.78,0,0,0,0-1.56A1.72,1.72,0,0,0,101.06,18Z"/><path class="cls-1" d="M105.37,30.93,120.52,6.52h2.61l-10,15.57c.31-.39.69-.85,1.14-1.37a17.23,17.23,0,0,1,1.46-1.5A11.22,11.22,0,0,1,117.36,18a3.05,3.05,0,0,1,1.62-.52,2.44,2.44,0,0,1,1.37.4,2.29,2.29,0,0,1,.92,1.16,3.62,3.62,0,0,1,.08,1.91,7.94,7.94,0,0,1-1.12,2.63L118,27.23a3,3,0,0,0-.58,2.24c.16.56.47.83.91.83a3.46,3.46,0,0,0,2.2-1.18c.83-.79,2-1.95,3.4-3.5.39-.45.76-.86,1.1-1.23s.65-.71.89-1,.59-.65.83-.95h.79l-3.26,3.78a32.23,32.23,0,0,1-2.49,2.65,12.05,12.05,0,0,1-2,1.56,3.26,3.26,0,0,1-1.7.52,2.11,2.11,0,0,1-1.35-.48,2.6,2.6,0,0,1-.85-1.35,4.71,4.71,0,0,1,0-2.12,8.72,8.72,0,0,1,1.21-2.78l1.86-3a3,3,0,0,0,.63-2.24c-.17-.55-.45-.83-.83-.83a2.72,2.72,0,0,0-1.58.81,16.87,16.87,0,0,0-2,2.08c-.72.84-1.46,1.77-2.23,2.78s-1.46,2-2.11,2.95-1.23,1.81-1.72,2.57-.85,1.31-1,1.64Z"/><path class="cls-1" d="M26.3,81.11a4.41,4.41,0,0,1-1,.71,2.58,2.58,0,0,1-1.17.26,3.79,3.79,0,0,1-1.82-.43,5.42,5.42,0,0,1-1.49-1.15,4.88,4.88,0,0,1-1,.3,5.52,5.52,0,0,1-1.09.1,5.08,5.08,0,0,1-2.29-.46,3.54,3.54,0,0,1-1.4-1.16,3.06,3.06,0,0,1-.53-1.62,4,4,0,0,1,.36-1.78,5.33,5.33,0,0,1,1.21-1.68,6.71,6.71,0,0,1,2.08-1.3,10.21,10.21,0,0,1,.16-1.67,5.83,5.83,0,0,1,.55-1.65,3.72,3.72,0,0,1,1-1.27,2.52,2.52,0,0,1,1.59-.5,2.17,2.17,0,0,1,1.51.53,1.64,1.64,0,0,1,.48,1.46,1.8,1.8,0,0,1-.41,1,4.12,4.12,0,0,1-.92.83,6.22,6.22,0,0,1-1.23.65,12.17,12.17,0,0,1-1.39.5,17.14,17.14,0,0,0,.22,1.81c.11.63.25,1.25.42,1.87a14.76,14.76,0,0,0,.61,1.77,9.51,9.51,0,0,0,.8,1.56,5.65,5.65,0,0,0,2.25-3.38,1.07,1.07,0,0,0-.37-1.16,1.82,1.82,0,0,0-.33,0,1.25,1.25,0,0,0-.35.08,1.22,1.22,0,0,0-.73.63.8.8,0,0,0,.05.82l-.21.06a1.31,1.31,0,0,1-.21-.65,1.82,1.82,0,0,1,.08-.66,1.47,1.47,0,0,1,.33-.55,1.33,1.33,0,0,1,.52-.35,2.17,2.17,0,0,1,.82-.11l.83,0a2.36,2.36,0,0,0,1.09-.15c.24-.12.38-.25.41-.41a.6.6,0,0,0-.24-.57l.13-.11a.76.76,0,0,1,.34.93,1.49,1.49,0,0,1-.45.75,1.44,1.44,0,0,1-1.09.35,3.66,3.66,0,0,1-.57,0,1.28,1.28,0,0,1,.21.49,2.15,2.15,0,0,1,0,.72,4.89,4.89,0,0,1-.73,1.86A5.44,5.44,0,0,1,21.78,80a4.48,4.48,0,0,0,.51.64,3.59,3.59,0,0,0,.62.55,3.52,3.52,0,0,0,.72.38,2.48,2.48,0,0,0,.82.14,2.71,2.71,0,0,0,.91-.17,2.57,2.57,0,0,0,.86-.55Zm-5.65-.82a7.45,7.45,0,0,1-1-1.53A11.85,11.85,0,0,1,18.93,77a12.34,12.34,0,0,1-.48-1.88,15.18,15.18,0,0,1-.21-1.82A4.38,4.38,0,0,0,17,74.47,5,5,0,0,0,16.2,76,5.09,5.09,0,0,0,16,77.62a3.33,3.33,0,0,0,.36,1.48,2.64,2.64,0,0,0,1,1.07,3.41,3.41,0,0,0,1.77.41,4.07,4.07,0,0,0,.79-.08A4.5,4.5,0,0,0,20.65,80.29Zm-1.1-7.82a5.14,5.14,0,0,0,2.25-1.25,2.38,2.38,0,0,0,.74-1.45,1.87,1.87,0,0,0-.3-1.19,1,1,0,0,0-.83-.47,1.25,1.25,0,0,0-.76.24,2.15,2.15,0,0,0-.55.66,4,4,0,0,0-.36,1,7.68,7.68,0,0,0-.17,1.26l0,.59C19.54,72,19.54,72.25,19.55,72.47Z"/><path class="cls-1" d="M46.59,72.93a1.06,1.06,0,0,0,1-.5,1.2,1.2,0,0,0,0-1.12,2.67,2.67,0,0,0-1.16-1.12,4.91,4.91,0,0,0-2.41-.5,5.83,5.83,0,0,0-2.18.41,5.56,5.56,0,0,0-3,3,6,6,0,0,0-.45,2.35,4.64,4.64,0,0,0,.51,2.18A5.74,5.74,0,0,0,42,80.31a5.18,5.18,0,0,0,1.85.38A7.38,7.38,0,0,0,47.07,80a8.86,8.86,0,0,0,2.49-1.76,14.5,14.5,0,0,0,2-2.49c.6-.93,1.18-1.87,1.77-2.82s1.19-1.89,1.84-2.8a12.41,12.41,0,0,1,2.18-2.37c.08-.08.09-.16,0-.23a.22.22,0,0,0-.27,0,14.5,14.5,0,0,1-2.86,1.39,8.66,8.66,0,0,1-2.78.44,5.5,5.5,0,0,1-4.75-2.57,6.08,6.08,0,0,1-.88-2.68,7.52,7.52,0,0,1,.44-3.18A9.58,9.58,0,0,1,42,59a4.92,4.92,0,0,1-1.64-4,4.86,4.86,0,0,1,.54-2.26,5.47,5.47,0,0,1,1.49-1.83,7.41,7.41,0,0,1,2.22-1.2,8.3,8.3,0,0,1,2.72-.44,9.52,9.52,0,0,1,2.14.25,9,9,0,0,1,2.22.83.23.23,0,0,1,.14.31c0,.15-.18.16-.43,0a9.49,9.49,0,0,0-2-.73,8.77,8.77,0,0,0-1.95-.22A7.47,7.47,0,0,0,45,50.1a6.85,6.85,0,0,0-2.05,1.12,5.5,5.5,0,0,0-1.39,1.66,4.18,4.18,0,0,0-.52,2,4.83,4.83,0,0,0,1.49,3.73,8,8,0,0,0,4,1.83A20.5,20.5,0,0,1,48.73,57a21.24,21.24,0,0,1,3.49-3.55,19.36,19.36,0,0,1,4.46-2.72,12.57,12.57,0,0,1,5.14-1.08,4.37,4.37,0,0,1,3.45,1.23,3,3,0,0,1,.5,3.05,6.6,6.6,0,0,1-1.52,2.57,11.21,11.21,0,0,1-2.47,2,17.75,17.75,0,0,1-3.07,1.46,22.79,22.79,0,0,1-3.34.93,24.08,24.08,0,0,1-3.3.43,24.54,24.54,0,0,1-3,0,11,11,0,0,0-.62,3.32A5.22,5.22,0,0,0,49,66.93a2.91,2.91,0,0,0,1.31,1.37,4,4,0,0,0,1.88.44,7.34,7.34,0,0,0,3-.69,17.13,17.13,0,0,0,2.61-1.53c.83-.6,1.63-1.21,2.39-1.83a13.77,13.77,0,0,1,2.26-1.52c.06-.05.13,0,.23,0s.12.14.06.22a17,17,0,0,0-1.74,2.06c-.55.76-1.06,1.51-1.53,2.26s-.89,1.44-1.25,2.07-.66,1.15-.91,1.54q-1.5,2.33-2.91,4.13a18.06,18.06,0,0,1-3,3,12.23,12.23,0,0,1-3.38,1.91,11.86,11.86,0,0,1-4.09.66,6.72,6.72,0,0,1-2.26-.39,5.67,5.67,0,0,1-1.93-1.14,6,6,0,0,1-1.35-1.83,5.65,5.65,0,0,1-.52-2.45,6,6,0,0,1,.48-2.4,6.42,6.42,0,0,1,1.29-2,5.92,5.92,0,0,1,1.93-1.3,6,6,0,0,1,2.4-.48,5.26,5.26,0,0,1,3.37.89,3.14,3.14,0,0,1,1.22,2A2.79,2.79,0,0,1,48,74a1.92,1.92,0,0,1-1.68.89,1.19,1.19,0,0,1-.72-.23.88.88,0,0,1-.31-.77.84.84,0,0,1,.37-.72A1.51,1.51,0,0,1,46.59,72.93Zm2.78-12.16a16.74,16.74,0,0,0,4.15-.23,25.56,25.56,0,0,0,4.82-1.27A17.07,17.07,0,0,0,62.59,57a6.5,6.5,0,0,0,2.47-3.21,2.76,2.76,0,0,0-.31-2.64,2.9,2.9,0,0,0-2.47-1.06,6.56,6.56,0,0,0-2.53.56,15.64,15.64,0,0,0-2.64,1.45,21.71,21.71,0,0,0-2.55,2.06,31.16,31.16,0,0,0-2.28,2.34,22.64,22.64,0,0,0-1.79,2.31A14.13,14.13,0,0,0,49.37,60.77Z"/><path class="cls-1" d="M66.64,67.28a3,3,0,0,1,2.3.79A2.62,2.62,0,0,1,69.63,70l1.7-2.7h2.61L68,77a3,3,0,0,0-.58,2.24c.16.55.47.83.91.83a3.48,3.48,0,0,0,2.2-1.19q1.24-1.17,3.4-3.5c.39-.45.75-.85,1.1-1.23s.64-.71.89-1,.58-.65.83-1h.79L74.29,76a32.23,32.23,0,0,1-2.49,2.65,11.05,11.05,0,0,1-2,1.56,3.28,3.28,0,0,1-1.7.52,2.07,2.07,0,0,1-1.8-1,3.41,3.41,0,0,1-.44-2.57,13.89,13.89,0,0,1-2.32,2.66,4.21,4.21,0,0,1-2.83,1.08,2.86,2.86,0,0,1-2.05-.77,3.7,3.7,0,0,1-1.06-2,7,7,0,0,1,.1-2.83,9.22,9.22,0,0,1,1.48-3.19,13.19,13.19,0,0,1,3.46-3.55A7.05,7.05,0,0,1,66.64,67.28Zm.41.54A4.08,4.08,0,0,0,64.4,69a14.91,14.91,0,0,0-4,6.23A8.81,8.81,0,0,0,60,77.72a3.7,3.7,0,0,0,.35,1.76,1.09,1.09,0,0,0,1,.67,2.49,2.49,0,0,0,1.49-.62,10.28,10.28,0,0,0,1.62-1.66,28.28,28.28,0,0,0,1.68-2.37c.57-.88,1.14-1.78,1.72-2.7a6.11,6.11,0,0,0,.89-2,3.8,3.8,0,0,0,0-1.56,1.73,1.73,0,0,0-.63-1A1.78,1.78,0,0,0,67.05,67.82Z"/><path class="cls-1" d="M76.68,80.73a2,2,0,0,1-1.45-.54,2.61,2.61,0,0,1-.77-1.47,5,5,0,0,1,.1-2.14A9.47,9.47,0,0,1,75.68,74l11-17.68h2.61L76.56,77A3,3,0,0,0,76,79.28c.17.55.47.83.92.83a3.5,3.5,0,0,0,2.2-1.19q1.25-1.17,3.4-3.5c.39-.45.75-.85,1.1-1.23s.64-.71.89-1,.58-.65.83-1h.79L82.84,76a32.23,32.23,0,0,1-2.49,2.65,11.05,11.05,0,0,1-2,1.56A3.28,3.28,0,0,1,76.68,80.73Z"/><path class="cls-1" d="M85.19,80.73a2,2,0,0,1-1.45-.54A2.61,2.61,0,0,1,83,78.72a5,5,0,0,1,.1-2.14A9.17,9.17,0,0,1,84.19,74l4.19-6.73H91L85.06,77a3,3,0,0,0-.58,2.24c.17.55.47.83.92.83a3.48,3.48,0,0,0,2.19-1.19q1.25-1.17,3.41-3.5c.39-.45.75-.85,1.1-1.23s.64-.71.89-1,.58-.65.83-1h.79L91.35,76a36.08,36.08,0,0,1-2.49,2.65,11.05,11.05,0,0,1-2,1.56A3.28,3.28,0,0,1,85.19,80.73Zm5.14-18a1.42,1.42,0,0,1,.42-1,1.44,1.44,0,0,1,2,0,1.43,1.43,0,0,1,0,2.06,1.45,1.45,0,0,1-1,.41,1.43,1.43,0,0,1-1-.41A1.42,1.42,0,0,1,90.33,62.72Z"/><path class="cls-1" d="M88.38,80.73l15.15-24.4h2.62l-10,15.56c.3-.39.68-.84,1.14-1.37A18.52,18.52,0,0,1,98.78,69a10.83,10.83,0,0,1,1.6-1.23,3.09,3.09,0,0,1,1.62-.52,2.49,2.49,0,0,1,1.37.4,2.33,2.33,0,0,1,.91,1.16,3.62,3.62,0,0,1,.08,1.91,7.94,7.94,0,0,1-1.12,2.63L101,77a3,3,0,0,0-.58,2.24c.16.55.47.83.91.83a3.48,3.48,0,0,0,2.2-1.19c.83-.78,2-2,3.4-3.5.39-.45.76-.85,1.1-1.23s.65-.71.9-1,.58-.65.83-1h.78L107.29,76a36.08,36.08,0,0,1-2.49,2.65,11.42,11.42,0,0,1-2,1.56,3.32,3.32,0,0,1-1.71.52,2.15,2.15,0,0,1-1.35-.48,2.6,2.6,0,0,1-.85-1.35,4.66,4.66,0,0,1,0-2.11A8.63,8.63,0,0,1,100.13,74L102,71a3,3,0,0,0,.62-2.24c-.17-.56-.44-.83-.83-.83a2.74,2.74,0,0,0-1.58.81,17.46,17.46,0,0,0-2,2.07c-.72.84-1.46,1.77-2.22,2.78s-1.47,2-2.12,3-1.22,1.81-1.72,2.57-.85,1.31-1,1.64Z"/></g></g></svg>