<svg xmlns="http://www.w3.org/2000/svg" viewBox="0 0 7.71 12.69"><defs><style>.cls-1{fill:#f2f3eb;}</style></defs><g id="Layer_2" data-name="Layer 2"><g id="Layer_1-2" data-name="Layer 1"><path class="cls-1" d="M3.94,17.34a5.41,5.41,0,0,1-1.47-.19,2.55,2.55,0,0,1-1-.54,1,1,0,0,1-.37-.78.67.67,0,0,1,.21-.52.72.72,0,0,1,.53-.21,1.22,1.22,0,0,1,.55.11,3.21,3.21,0,0,1,.62.45l1.32,1.06-1.11-.3a4.73,4.73,0,0,0,2.08-.1,2.93,2.93,0,0,0,1.43-.93,2.43,2.43,0,0,0,.52-1.54,2.5,2.5,0,0,0-.42-1.49,2.92,2.92,0,0,0-1.53-1,19.49,19.49,0,0,0-3.16-.67l.74-6.07H8.22L8.07,6.16H3.7l-.44,4.13L2.7,9.44a11,11,0,0,1,4.69,1.35,3.09,3.09,0,0,1,1.4,2.67,3.16,3.16,0,0,1-.68,2,4.65,4.65,0,0,1-1.79,1.4A5.62,5.62,0,0,1,3.94,17.34Z" transform="translate(-1.09 -4.65)"/></g></g></svg>