<svg xmlns="http://www.w3.org/2000/svg" viewBox="0 0 72.42 30.58"><defs><style>.cls-1{fill:#8a8e6d;}</style></defs><g id="Layer_2" data-name="Layer 2"><g id="Layer_1-2" data-name="Layer 1"><path class="cls-1" d="M4.2,21.29a7,7,0,0,0,4-1.29A21.6,21.6,0,0,0,12,16.68a8.72,8.72,0,0,1-1.54-1.92,8.22,8.22,0,0,1-.92-2.48,6.11,6.11,0,0,1,.88-4.67A5.12,5.12,0,0,1,12,6a4.21,4.21,0,0,1,2.2-.59,5,5,0,0,1,2.65.78,7.1,7.1,0,0,1,2,2c.81-1,1.64-1.9,2.5-2.79A24.69,24.69,0,0,1,24.08,3,17,17,0,0,1,27,1.09,12.15,12.15,0,0,1,30.23,0c.06,0,.1,0,.13.08s0,.13,0,.15A11.92,11.92,0,0,0,29.07,2c-.46.76-.94,1.63-1.43,2.62s-1,2-1.52,3.17-1,2.27-1.52,3.43-1,2.31-1.44,3.45l-1.27,3.15a9.55,9.55,0,0,0,2-1.07,9.44,9.44,0,0,0,1.81-1.62l.32.23a10.29,10.29,0,0,1-2,1.81,10.17,10.17,0,0,1-2.3,1.17L21.06,20c-.18.49-.35.93-.5,1.32l-2.43,0c.13-.33.27-.7.42-1.1s.31-.83.5-1.28a10,10,0,0,1-3.63-.36,8.8,8.8,0,0,1-3.14-1.63c-.64.67-1.28,1.29-1.93,1.86a14.38,14.38,0,0,1-2,1.47,11.66,11.66,0,0,1-2,1,6.44,6.44,0,0,1-2.13.36,4.5,4.5,0,0,1-1.58-.28,4.14,4.14,0,0,1-1.35-.79,4.21,4.21,0,0,1-.94-1.28A3.9,3.9,0,0,1,0,17.52a3.69,3.69,0,0,1,.29-1.39,4,4,0,0,1,.81-1.24A4.25,4.25,0,0,1,2.33,14a3.56,3.56,0,0,1,1.58-.35,3.48,3.48,0,0,1,2.34.66,2.26,2.26,0,0,1,.86,1.43,2,2,0,0,1-.32,1.43,1.31,1.31,0,0,1-1.17.65.82.82,0,0,1-.51-.16.68.68,0,0,1,0-1,1.12,1.12,0,0,1,.64-.19.72.72,0,0,0,.71-.37.93.93,0,0,0,0-.83,2,2,0,0,0-.81-.82A3.22,3.22,0,0,0,4,14a3.46,3.46,0,0,0-1.39.29,3.35,3.35,0,0,0-1.15.8,4.14,4.14,0,0,0-.77,1.15,3.37,3.37,0,0,0-.28,1.35,3.19,3.19,0,0,0,.36,1.52,4,4,0,0,0,.91,1.16A4.29,4.29,0,0,0,2.91,21,3.66,3.66,0,0,0,4.2,21.29Zm8.54-5.47c1-1.1,1.92-2.28,2.87-3.54s1.93-2.49,2.95-3.7a6.63,6.63,0,0,0-1.9-2,4.36,4.36,0,0,0-2.5-.75,2.4,2.4,0,0,0-1.45.5,4.48,4.48,0,0,0-1.19,1.35,6,6,0,0,0-.69,1.92,5.85,5.85,0,0,0,0,2.28,7.88,7.88,0,0,0,.72,2.15A9.41,9.41,0,0,0,12.74,15.82Zm.26.29A7.39,7.39,0,0,0,15.85,18a7.87,7.87,0,0,0,3.41.45c.09-.21.19-.43.28-.65s.2-.45.29-.68a8.79,8.79,0,0,0,.37-2,10.85,10.85,0,0,0-.08-2.13,11.58,11.58,0,0,0-.47-2.08A9.4,9.4,0,0,0,18.79,9c-1,1.22-1.95,2.44-2.89,3.67S14,15,13,16.11Zm7.44-.5,1.39-3.1c.48-1.06,1-2.1,1.49-3.12s1-2,1.55-3,1-1.81,1.52-2.59a21.63,21.63,0,0,1,1.42-2A5.24,5.24,0,0,1,29.07.67a10.62,10.62,0,0,0-2.72,1.16,19.39,19.39,0,0,0-2.53,1.82A28.87,28.87,0,0,0,21.41,6c-.78.84-1.55,1.71-2.3,2.62A9.62,9.62,0,0,1,20.38,12,10.25,10.25,0,0,1,20.44,15.61Z"/><path class="cls-1" d="M20.79,30.58A2.23,2.23,0,0,1,19.11,30a2.05,2.05,0,0,1-.61-1.46A2.83,2.83,0,0,1,19,26.86a6,6,0,0,1,1.47-1.4,14.09,14.09,0,0,1,2.25-1.28c.88-.4,1.86-.81,2.94-1.21l.9-.38,1-.43L28.93,20a8.52,8.52,0,0,1-1.45,1.09,2.8,2.8,0,0,1-1.39.36A2,2,0,0,1,24.86,21,2.3,2.3,0,0,1,24,19.7a4,4,0,0,1,0-2.05,8,8,0,0,1,1.42-2.73,7.4,7.4,0,0,1,1.06-1.18,9.2,9.2,0,0,1,1.24-.94,6.6,6.6,0,0,1,1.32-.63,3.72,3.72,0,0,1,1.27-.23,2.08,2.08,0,0,1,1.61.55,1.77,1.77,0,0,1,.48,1.33l1.19-1.88h1.82l-5.24,8.68a22.42,22.42,0,0,0,2.66-2.2,21.82,21.82,0,0,0,2.61-3h.55a21.46,21.46,0,0,1-3.19,3.74,21.72,21.72,0,0,1-3.18,2.43L28.43,23.6c-.42.74-.9,1.51-1.43,2.32a17.68,17.68,0,0,1-1.75,2.26,9.76,9.76,0,0,1-2.07,1.72A4.44,4.44,0,0,1,20.79,30.58Zm6.31-7.67-.56.22c-.19.06-.36.14-.54.21-1.06.41-2,.81-2.88,1.19a14.58,14.58,0,0,0-2.19,1.19A5.45,5.45,0,0,0,19.54,27a2.49,2.49,0,0,0-.49,1.46,1.55,1.55,0,0,0,.18.78,1.58,1.58,0,0,0,.43.52,1.54,1.54,0,0,0,.57.29,2,2,0,0,0,.56.09,2.32,2.32,0,0,0,1.49-.61A9.16,9.16,0,0,0,23.74,28c.49-.63,1-1.32,1.45-2.08s1-1.51,1.42-2.25ZM30.87,12.4a3.14,3.14,0,0,0-1.87.74,8.35,8.35,0,0,0-1.81,1.95,10.72,10.72,0,0,0-1.46,2.68,4.87,4.87,0,0,0-.31,1.81,1.5,1.5,0,0,0,.44,1,1.14,1.14,0,0,0,.75.33c.54,0,1.21-.45,2-1.35a26.45,26.45,0,0,0,2.63-3.69,4.73,4.73,0,0,0,.67-1.46,2.59,2.59,0,0,0,0-1.1,1.32,1.32,0,0,0-.41-.69A1,1,0,0,0,30.87,12.4Z"/><path class="cls-1" d="M43.46,11.94h1.83l-4.14,6.8a2.07,2.07,0,0,0-.41,1.56c.12.39.33.58.64.58a2.42,2.42,0,0,0,1.53-.82c.58-.55,1.37-1.37,2.38-2.45l.76-.85c.24-.26.45-.5.63-.71s.4-.46.57-.67h.56L45.53,18a21.9,21.9,0,0,1-1.74,1.85A8,8,0,0,1,42.42,21a2.26,2.26,0,0,1-1.19.37,1.49,1.49,0,0,1-.92-.29,1.59,1.59,0,0,1-.55-.8A2.81,2.81,0,0,1,39.64,19a4.65,4.65,0,0,1,.4-1.46,28.31,28.31,0,0,1-2.72,2.82,3.08,3.08,0,0,1-2,.92,1.44,1.44,0,0,1-1-.38,1.79,1.79,0,0,1-.53-1,3.34,3.34,0,0,1,.07-1.49,6.05,6.05,0,0,1,.78-1.79l2.92-4.69h1.83l-4.14,6.8a2.11,2.11,0,0,0-.41,1.56c.12.39.33.58.64.58a1.66,1.66,0,0,0,.9-.35,11.68,11.68,0,0,0,1.13-.89c.4-.37.81-.77,1.23-1.22s.81-.89,1.18-1.35.72-.87,1-1.27.52-.72.68-1Z"/><path class="cls-1" d="M47.23,15.41a30.08,30.08,0,0,1,2.54-2.62,2.87,2.87,0,0,1,1.77-.85,1,1,0,0,1,1.07.89,4.67,4.67,0,0,1-.55,2.73c.5-.62.95-1.16,1.35-1.61a10.9,10.9,0,0,1,1.1-1.13,4.35,4.35,0,0,1,1-.67,2.3,2.3,0,0,1,1-.21,1.78,1.78,0,0,1,1,.27A1.59,1.59,0,0,1,58,13a2.52,2.52,0,0,1,0,1.33,5.3,5.3,0,0,1-.78,1.84l-1.56,2.55a2.11,2.11,0,0,0-.41,1.56c.12.39.33.58.64.58a2.41,2.41,0,0,0,1.54-.82c.57-.55,1.37-1.37,2.37-2.45.27-.31.53-.59.77-.85s.45-.5.62-.71.4-.46.58-.67h.55c-.87,1-1.63,1.88-2.27,2.64s-1.23,1.37-1.74,1.85A8,8,0,0,1,57,21a2.23,2.23,0,0,1-1.18.37,1.48,1.48,0,0,1-.95-.34,1.84,1.84,0,0,1-.59-.94,3.29,3.29,0,0,1,0-1.47,6.15,6.15,0,0,1,.84-1.94l1.3-2.12A2.06,2.06,0,0,0,56.87,13c-.12-.39-.31-.58-.58-.58a2,2,0,0,0-1.16.55,11.92,11.92,0,0,0-1.46,1.42c-.51.58-1,1.22-1.58,1.92s-1,1.39-1.51,2-.87,1.26-1.23,1.81-.61.95-.76,1.2H46.76l4.14-6.81A5.42,5.42,0,0,0,51.6,13c.08-.39,0-.58-.29-.58a2.34,2.34,0,0,0-1.3.78c-.56.52-1.31,1.28-2.23,2.26Z"/><path class="cls-1" d="M57.16,30.58A2.2,2.2,0,0,1,55.48,30a2,2,0,0,1-.61-1.46,2.76,2.76,0,0,1,.52-1.64,6.14,6.14,0,0,1,1.46-1.4,14.21,14.21,0,0,1,2.26-1.28c.88-.4,1.86-.81,2.94-1.21l.9-.38c.31-.13.63-.28.95-.43L65.29,20a8.5,8.5,0,0,1-1.44,1.09,2.8,2.8,0,0,1-1.39.36A2,2,0,0,1,61.23,21a2.3,2.3,0,0,1-.84-1.28,4,4,0,0,1,0-2.05,7.79,7.79,0,0,1,1.42-2.73,7.84,7.84,0,0,1,1-1.18,10,10,0,0,1,1.25-.94,6.12,6.12,0,0,1,1.32-.63,3.72,3.72,0,0,1,1.27-.23,2.09,2.09,0,0,1,1.61.55,1.81,1.81,0,0,1,.48,1.33L70,11.94h1.83L66.6,20.62a23.25,23.25,0,0,0,2.66-2.2,21.82,21.82,0,0,0,2.61-3h.55a22.35,22.35,0,0,1-3.19,3.74,21.72,21.72,0,0,1-3.18,2.43L64.8,23.6c-.42.74-.9,1.51-1.43,2.32a18.63,18.63,0,0,1-1.75,2.26,9.76,9.76,0,0,1-2.07,1.72A4.47,4.47,0,0,1,57.16,30.58Zm6.31-7.67-.57.22c-.18.06-.36.14-.53.21-1.06.41-2,.81-2.88,1.19a14.58,14.58,0,0,0-2.19,1.19A5.29,5.29,0,0,0,55.91,27a2.42,2.42,0,0,0-.49,1.46,1.67,1.67,0,0,0,.17.78,1.6,1.6,0,0,0,.44.52,1.58,1.58,0,0,0,.56.29,2,2,0,0,0,.57.09,2.32,2.32,0,0,0,1.49-.61A9.16,9.16,0,0,0,60.11,28c.48-.63,1-1.32,1.45-2.08L63,23.66ZM67.23,12.4a3.1,3.1,0,0,0-1.86.74,8.35,8.35,0,0,0-1.81,1.95,10.48,10.48,0,0,0-1.47,2.68,4.83,4.83,0,0,0-.3,1.81,1.49,1.49,0,0,0,.43,1,1.17,1.17,0,0,0,.76.33c.54,0,1.2-.45,2-1.35a26.4,26.4,0,0,0,2.64-3.69,4.73,4.73,0,0,0,.67-1.46,2.42,2.42,0,0,0,0-1.1,1.25,1.25,0,0,0-.4-.69A1,1,0,0,0,67.23,12.4Z"/></g></g></svg>