<svg xmlns="http://www.w3.org/2000/svg" viewBox="0 0 187.74 17.85"><defs><style>.cls-1{fill:#f2f3eb;}</style></defs><g id="Layer_2" data-name="Layer 2"><g id="Layer_1-2" data-name="Layer 1"><path class="cls-1" d="M.87,4.23H5.76a7.17,7.17,0,0,1,4.8,1.46,5,5,0,0,1,1.72,4.09,5.6,5.6,0,0,1-.8,3,5.7,5.7,0,0,1-2.22,2.05A7.08,7.08,0,0,1,6,15.58H.87l-.06-.81L2,14.5a5.18,5.18,0,0,0,.09-1c0-.55,0-1.18,0-1.9V8.23q0-1.19,0-2A4.15,4.15,0,0,0,2,5.31L.81,5ZM4.12,5.35c0,.1,0,.26,0,.48s0,.52,0,.9,0,.88,0,1.5V11.6c0,.37,0,.73,0,1.08s0,.66,0,1,0,.51,0,.69c.37.06.72.1,1,.13s.62.05.92.05A3.81,3.81,0,0,0,9,13.45a4.31,4.31,0,0,0,1-3.11A7.22,7.22,0,0,0,9.73,8.1a4.33,4.33,0,0,0-.9-1.61,3.73,3.73,0,0,0-1.41-1,5.2,5.2,0,0,0-1.87-.32l-.69,0A7.38,7.38,0,0,0,4.12,5.35Z" transform="translate(-0.81 -2.14)"/><path class="cls-1" d="M18.18,15.74a4.19,4.19,0,0,1-2.09-.53,3.69,3.69,0,0,1-1.46-1.47,4.45,4.45,0,0,1-.53-2.2,4.68,4.68,0,0,1,.58-2.37,4.33,4.33,0,0,1,1.51-1.58,3.75,3.75,0,0,1,2-.54,3.08,3.08,0,0,1,2.45,1,4.12,4.12,0,0,1,.86,2.75v.39H15.69v-.91h4.37l-.25.33v-.48a2.52,2.52,0,0,0-.48-1.64,1.55,1.55,0,0,0-1.28-.59,1.78,1.78,0,0,0-1,.31,2.07,2.07,0,0,0-.75.93A3.7,3.7,0,0,0,16,10.73V11a3.49,3.49,0,0,0,.76,2.38,2.54,2.54,0,0,0,2,.87A2.63,2.63,0,0,0,20,14,3.24,3.24,0,0,0,21,13.14l.53.49a3.73,3.73,0,0,1-1.42,1.58A3.8,3.8,0,0,1,18.18,15.74Z" transform="translate(-0.81 -2.14)"/><path class="cls-1" d="M25.9,15.74a3,3,0,0,1-1.43-.34,2.7,2.7,0,0,1-.95-.84,1.83,1.83,0,0,1-.33-1,1.49,1.49,0,0,1,.43-1.1A3.18,3.18,0,0,1,25,11.71l3-1V9.86A1.4,1.4,0,0,0,27.69,9a2,2,0,0,0-.75-.6,2.19,2.19,0,0,0-1-.24.73.73,0,0,0-.6.19,1.3,1.3,0,0,0-.19.72l-.06.93a2.11,2.11,0,0,1-1.31,0,.76.76,0,0,1-.53-.74,1,1,0,0,1,.32-.68,4,4,0,0,1,.81-.66,7,7,0,0,1,1.06-.53,4.6,4.6,0,0,1,1.06-.3,3.68,3.68,0,0,1,2.43.76,2.62,2.62,0,0,1,.92,2l0,3.07q0,.4,0,.75a3.44,3.44,0,0,0,.08.51l1.26.23v.68l-1,.4-.54.19a2.07,2.07,0,0,1-.45.07.88.88,0,0,1-.87-.7L28,14.23l.33,0a5.91,5.91,0,0,1-1.22,1.09A2.29,2.29,0,0,1,25.9,15.74Zm.68-1.34a1.7,1.7,0,0,0,.73-.17,2.4,2.4,0,0,0,.66-.52v-2l-1.9.47a1.15,1.15,0,0,0-.66.35,1,1,0,0,0-.21.63,1.14,1.14,0,0,0,.41.86A1.33,1.33,0,0,0,26.58,14.4Z" transform="translate(-0.81 -2.14)"/><path class="cls-1" d="M32,15.58,32,14.83l1.2-.31a1.41,1.41,0,0,0,0-.33c0-.17,0-.4,0-.68s0-.62,0-1l0-1.49c0-.43,0-.83-.05-1.2a9.49,9.49,0,0,0-.12-1l-1.24-.27V7.86l2.84-.77.35.29L35,9,35,9A3.72,3.72,0,0,1,36.18,7.5a2.09,2.09,0,0,1,1.15-.39,1.28,1.28,0,0,1,.79.24.87.87,0,0,1,.33.75.92.92,0,0,1-.34.77,1.42,1.42,0,0,1-.88.27A1.71,1.71,0,0,1,36.52,9a2.69,2.69,0,0,1-.66-.47l.39.1a3.08,3.08,0,0,0-.64.62,4.41,4.41,0,0,0-.56.94l0,1.71c0,.37,0,.74,0,1.09s0,.67,0,.94,0,.47,0,.6l1.69.27-.06.79Z" transform="translate(-0.81 -2.14)"/><path class="cls-1" d="M52.36,12.54V8.66c0-.73,0-1.33,0-1.8s0-.84,0-1.1a1.91,1.91,0,0,0,0-.45L50.93,5,51,4.23H54.8l.06.81-1.22.27q0,.08,0,.45c0,.26,0,.62,0,1.1s0,1.07,0,1.8v5.66c0,.44,0,.89,0,1.34h-1L45.26,6.28h.62V11c0,.74,0,1.37,0,1.86s0,.87.05,1.12a3.61,3.61,0,0,0,0,.48l1.33.27-.06.81H43.41l-.06-.81,1.2-.27A2.55,2.55,0,0,0,44.6,14c0-.25,0-.63,0-1.13s0-1.11,0-1.84V8c0-.52,0-1,0-1.33s0-.67,0-.89a2.15,2.15,0,0,0-.05-.43L43.35,5l.06-.81h2.78l6.65,8.31Z" transform="translate(-0.81 -2.14)"/><path class="cls-1" d="M59.25,15.74a3,3,0,0,1-1.43-.34,2.62,2.62,0,0,1-1-.84,1.83,1.83,0,0,1-.33-1,1.52,1.52,0,0,1,.42-1.1,3.29,3.29,0,0,1,1.38-.74l3-1V9.86A1.47,1.47,0,0,0,61,9a2,2,0,0,0-.75-.6,2.19,2.19,0,0,0-1-.24.73.73,0,0,0-.6.19,1.29,1.29,0,0,0-.2.72l0,.93a2.11,2.11,0,0,1-1.31,0,.75.75,0,0,1-.53-.74,1,1,0,0,1,.32-.68,4,4,0,0,1,.81-.66,7.37,7.37,0,0,1,1-.53,4.82,4.82,0,0,1,1.07-.3,3.63,3.63,0,0,1,2.42.76,2.58,2.58,0,0,1,.92,2l0,3.07q0,.4,0,.75a2.37,2.37,0,0,0,.09.51l1.26.23v.68l-1.05.4a5,5,0,0,1-.54.19,2,2,0,0,1-.44.07.88.88,0,0,1-.87-.7l-.25-.81.32,0a5.64,5.64,0,0,1-1.21,1.09A2.29,2.29,0,0,1,59.25,15.74Zm.67-1.34a1.71,1.71,0,0,0,.74-.17,2.4,2.4,0,0,0,.66-.52v-2l-1.9.47a1.22,1.22,0,0,0-.67.35,1,1,0,0,0-.2.63A1.14,1.14,0,0,0,59,14,1.33,1.33,0,0,0,59.92,14.4Z" transform="translate(-0.81 -2.14)"/><path class="cls-1" d="M72.21,15.79l-.37-.25,0-1.25-.06,0a3.35,3.35,0,0,1-1.15,1.14,2.64,2.64,0,0,1-1.27.33,3.72,3.72,0,0,1-3.31-1.94,4.13,4.13,0,0,1-.52-2.11,4.85,4.85,0,0,1,.37-1.91A4.45,4.45,0,0,1,70,7.07a4.92,4.92,0,0,1,1,.11,2.52,2.52,0,0,1,.85.33c0-.23,0-.52,0-.87s0-.7,0-1.08,0-.71,0-1a4.18,4.18,0,0,0,0-.62l-1.49-.25,0-.72,3.1-.83.41.29c0,.8,0,1.56-.07,2.29s0,1.49,0,2.27l0,4.47c0,.66,0,1.21.05,1.66s.06.77.08,1L75,14.4v.7ZM70,14.29a2,2,0,0,0,.93-.24,2.58,2.58,0,0,0,.89-.79V9.06a2,2,0,0,0-.83-.8A2.32,2.32,0,0,0,70,8a2.12,2.12,0,0,0-1.78.85,3.59,3.59,0,0,0-.66,2.26,3.46,3.46,0,0,0,.71,2.32A2.18,2.18,0,0,0,70,14.29Z" transform="translate(-0.81 -2.14)"/><path class="cls-1" d="M75.8,15.58l0-.77L77,14.52a2.17,2.17,0,0,0,0-.3c0-.15,0-.36,0-.64s0-.64,0-1.07V11.13c0-.46,0-.89,0-1.28a7.41,7.41,0,0,0-.12-1l-1.29-.27V7.86l3-.77.36.31c0,.4-.06.8-.08,1.19s0,.85,0,1.36v2.44c0,.54,0,1,0,1.39s0,.63.06.74l1.3.29,0,.77ZM78.07,5.1a1.3,1.3,0,0,1-1-.38,1.26,1.26,0,0,1,0-1.8,1.3,1.3,0,0,1,1-.38,1.26,1.26,0,0,1,.94.38,1.33,1.33,0,0,1,0,1.8A1.26,1.26,0,0,1,78.07,5.1Z" transform="translate(-0.81 -2.14)"/><path class="cls-1" d="M85,15.66,81.51,8.27,80.6,8l.06-.75h4.12l0,.75-1.2.31,2.49,5.51ZM90,7.21,90.1,8l-.91.31L85.88,15.1l-1.53,3.21a3.54,3.54,0,0,1-.95,1.31,1.8,1.8,0,0,1-1.12.37,1.36,1.36,0,0,1-.86-.26.81.81,0,0,1-.32-.65.9.9,0,0,1,.27-.63,1.71,1.71,0,0,1,.82-.43l1.93-.58-1,.95,2.2-4.2.21-.39,2.38-5.53L86.71,8l.06-.75Z" transform="translate(-0.81 -2.14)"/><path class="cls-1" d="M93.56,15.74a3,3,0,0,1-1.43-.34,2.7,2.7,0,0,1-.95-.84,1.83,1.83,0,0,1-.33-1,1.49,1.49,0,0,1,.43-1.1,3.18,3.18,0,0,1,1.37-.74l3-1V9.86A1.4,1.4,0,0,0,95.35,9a2,2,0,0,0-.74-.6,2.23,2.23,0,0,0-1-.24.73.73,0,0,0-.6.19,1.3,1.3,0,0,0-.19.72l-.06.93a2.11,2.11,0,0,1-1.31,0,.76.76,0,0,1-.53-.74,1,1,0,0,1,.32-.68A4,4,0,0,1,92,7.88a7,7,0,0,1,1.06-.53,4.75,4.75,0,0,1,1.06-.3,3.68,3.68,0,0,1,2.43.76,2.62,2.62,0,0,1,.92,2l0,3.07q0,.4,0,.75a3.44,3.44,0,0,0,.08.51l1.26.23v.68l-1,.4-.54.19a2.07,2.07,0,0,1-.45.07.89.89,0,0,1-.87-.7l-.25-.81.33,0a5.67,5.67,0,0,1-1.22,1.09A2.29,2.29,0,0,1,93.56,15.74Zm.68-1.34a1.66,1.66,0,0,0,.73-.17,2.26,2.26,0,0,0,.66-.52v-2l-1.9.47a1.19,1.19,0,0,0-.66.35,1,1,0,0,0-.21.63,1.14,1.14,0,0,0,.41.86A1.33,1.33,0,0,0,94.24,14.4Z" transform="translate(-0.81 -2.14)"/><path class="cls-1" d="M99.65,15.58l-.05-.75,1.2-.31a6,6,0,0,0,0-.66c0-.31,0-.71,0-1.2s0-1,0-1.66V8.58c0-.44,0-.9,0-1.38s0-1,0-1.41,0-.85,0-1.2,0-.59,0-.73l-1.43-.19,0-.7,3-.83.43.29c0,.4,0,.79,0,1.19s0,.81,0,1.26,0,1,0,1.55,0,1.26,0,2l.06,0A4.52,4.52,0,0,1,104,7.4a3.21,3.21,0,0,1,1.46-.35,2.63,2.63,0,0,1,1.39.39,2.86,2.86,0,0,1,1,1.14,4,4,0,0,1,.4,1.89v2c0,.46,0,.87,0,1.24a5.56,5.56,0,0,0,.07.76l1.2.31,0,.75h-4.2l-.06-.75,1.12-.31a3.53,3.53,0,0,0,0-.42q0-.26,0-.63c0-.24,0-.53,0-.85V10.69a2.82,2.82,0,0,0-.26-1.29,1.64,1.64,0,0,0-.68-.72,1.73,1.73,0,0,0-.9-.24,2.4,2.4,0,0,0-1.1.28,2.68,2.68,0,0,0-.89.79v2.88q0,.86,0,1.41a3.05,3.05,0,0,0,.09.72l1.18.31-.06.75Z" transform="translate(-0.81 -2.14)"/><path class="cls-1" d="M118.63,15.74a5.81,5.81,0,0,1-2.37-.42,3.18,3.18,0,0,1-1.4-1.11,2.69,2.69,0,0,1-.47-1.51,2.93,2.93,0,0,1,.38-1.41A4.43,4.43,0,0,1,116,9.94a9.67,9.67,0,0,1,2.25-1.21A8.48,8.48,0,0,0,120,7.59a3.74,3.74,0,0,0,.93-1.13,2.73,2.73,0,0,0,.28-1.25A1.68,1.68,0,0,0,120.83,4a1.22,1.22,0,0,0-.9-.39,1.48,1.48,0,0,0-1.12.5,2.15,2.15,0,0,0-.45,1.47,4.56,4.56,0,0,0,.13,1.11,5.23,5.23,0,0,0,.44,1.14,11.6,11.6,0,0,0,.76,1.29c.31.46.68,1,1.11,1.57a20.76,20.76,0,0,0,1.77,2.09A6.43,6.43,0,0,0,124.19,14a3.55,3.55,0,0,0,1.65.42,2.91,2.91,0,0,0,1-.16,3.69,3.69,0,0,0,.89-.48l.45.54a3.33,3.33,0,0,1-1.28,1,4.1,4.1,0,0,1-1.74.36A5.16,5.16,0,0,1,123,15.3a6.69,6.69,0,0,1-1.9-1.34,20.34,20.34,0,0,1-2-2.29c-.6-.85-1.1-1.58-1.49-2.2a8.92,8.92,0,0,1-.84-1.71,5.23,5.23,0,0,1-.26-1.62A3.54,3.54,0,0,1,117,4.36a3.26,3.26,0,0,1,1.22-1.25A3.55,3.55,0,0,1,120,2.66a3.09,3.09,0,0,1,2.07.67,2.27,2.27,0,0,1,.8,1.84,3,3,0,0,1-.41,1.5,4.81,4.81,0,0,1-1.31,1.39,15.09,15.09,0,0,1-2.39,1.41A4.71,4.71,0,0,0,117,10.79a2.53,2.53,0,0,0-.5,1.5,2,2,0,0,0,.32,1.13,2.07,2.07,0,0,0,.94.77,3.71,3.71,0,0,0,1.49.27,4.56,4.56,0,0,0,2-.42,4.15,4.15,0,0,0,1.59-1.37,9.84,9.84,0,0,0,1.26-2.52l-1.35-.22.06-.81,4.18,0,0,.81-1.36.24a16.54,16.54,0,0,1-2,3.08,7.33,7.33,0,0,1-2.27,1.88A6,6,0,0,1,118.63,15.74Z" transform="translate(-0.81 -2.14)"/><path class="cls-1" d="M138.84,15.75a7.71,7.71,0,0,1-3.22-.64,5.2,5.2,0,0,1-2.24-1.93,5.63,5.63,0,0,1-.82-3.13A6,6,0,0,1,133,7.68a5.68,5.68,0,0,1,3.36-3.17,7.51,7.51,0,0,1,2.73-.46,9.54,9.54,0,0,1,1.72.17,6.64,6.64,0,0,1,1.53.45l.1,2.59-1,.08-.58-1.74a2.55,2.55,0,0,0-1-.36,5.61,5.61,0,0,0-1-.1,4,4,0,0,0-2.28.59,3.49,3.49,0,0,0-1.32,1.61,6,6,0,0,0-.42,2.3,6,6,0,0,0,.56,2.72A3.92,3.92,0,0,0,137,14.07a4,4,0,0,0,2.13.58,4.54,4.54,0,0,0,1-.13,2.81,2.81,0,0,0,1-.45l-.42,1.07v-2c0-.38,0-.73,0-1a5.28,5.28,0,0,0-.06-.73l-1.33-.24,0-.83h4.1l.06.79-.89.26c0,.07,0,.24,0,.5s0,.55,0,.89,0,.69,0,1,0,.63,0,1a6.21,6.21,0,0,1-1.85.78A7.67,7.67,0,0,1,138.84,15.75Z" transform="translate(-0.81 -2.14)"/><path class="cls-1" d="M147.93,15.74a3,3,0,0,1-1.43-.34,2.7,2.7,0,0,1-.95-.84,1.9,1.9,0,0,1-.32-1,1.52,1.52,0,0,1,.42-1.1,3.24,3.24,0,0,1,1.37-.74l3-1V9.86a1.4,1.4,0,0,0-.28-.85,1.92,1.92,0,0,0-.74-.6,2.2,2.2,0,0,0-1-.24.76.76,0,0,0-.6.19,1.39,1.39,0,0,0-.19.72l-.06.93a2.08,2.08,0,0,1-1.3,0,.76.76,0,0,1-.54-.74,1,1,0,0,1,.32-.68,4.37,4.37,0,0,1,.82-.66,7.37,7.37,0,0,1,1-.53,4.75,4.75,0,0,1,1.06-.3,3.68,3.68,0,0,1,2.43.76,2.58,2.58,0,0,1,.92,2l0,3.07q0,.4,0,.75a2.37,2.37,0,0,0,.09.51l1.26.23v.68l-1,.4a5,5,0,0,1-.54.19,2.07,2.07,0,0,1-.45.07.89.89,0,0,1-.87-.7l-.25-.81.33,0a5.67,5.67,0,0,1-1.22,1.09A2.27,2.27,0,0,1,147.93,15.74Zm.68-1.34a1.74,1.74,0,0,0,.74-.17,2.22,2.22,0,0,0,.65-.52v-2l-1.89.47a1.22,1.22,0,0,0-.67.35,1,1,0,0,0-.2.63,1.13,1.13,0,0,0,.4.86A1.35,1.35,0,0,0,148.61,14.4Z" transform="translate(-0.81 -2.14)"/><path class="cls-1" d="M154,15.58l-.06-.77,1.26-.29c0-.12,0-.33.06-.65s0-.72,0-1.21,0-1,0-1.66V8.56c0-.46,0-.94,0-1.44s0-1,0-1.4,0-.83,0-1.15,0-.57,0-.71l-1.43-.19,0-.7,3.05-.83.43.29c0,.54,0,1.08,0,1.61s0,1.13,0,1.78,0,1.44,0,2.37l0,3q0,1.21,0,2.16a10.22,10.22,0,0,0,.07,1.15l1.26.29,0,.77Z" transform="translate(-0.81 -2.14)"/><path class="cls-1" d="M159.31,15.58l-.06-.77,1.3-.29a2.86,2.86,0,0,0,0-.3c0-.15,0-.36,0-.64s0-.64,0-1.07V11.13c0-.46,0-.89,0-1.28a7.6,7.6,0,0,0-.11-1l-1.3-.27V7.86l3-.77.37.31c0,.4-.07.8-.09,1.19s0,.85,0,1.36v2.44c0,.54,0,1,0,1.39a4.68,4.68,0,0,0,.07.74l1.29.29,0,.77ZM161.57,5.1a1.3,1.3,0,0,1-1-.38,1.22,1.22,0,0,1-.37-.9,1.22,1.22,0,0,1,.37-.9,1.3,1.3,0,0,1,1-.38,1.26,1.26,0,0,1,1.3,1.28,1.26,1.26,0,0,1-1.3,1.28Z" transform="translate(-0.81 -2.14)"/><path class="cls-1" d="M164.72,15.58l-.05-.75,1.19-.31a3.89,3.89,0,0,0,.06-.66c0-.31,0-.71,0-1.2s0-1,0-1.66V8.58c0-.44,0-.9,0-1.38s0-1,0-1.41,0-.85,0-1.2,0-.59,0-.73l-1.43-.19,0-.7,3-.83.43.29c0,.4,0,.79,0,1.19s0,.81,0,1.26,0,1,0,1.55,0,1.26,0,2l.06,0a4.52,4.52,0,0,1,1.31-1.08,3.2,3.2,0,0,1,1.45-.35,2.64,2.64,0,0,1,1.4.39,2.86,2.86,0,0,1,1,1.14,4,4,0,0,1,.4,1.89v2c0,.46,0,.87,0,1.24a5.56,5.56,0,0,0,.07.76l1.2.31,0,.75h-4.2l-.06-.75,1.12-.31a3.53,3.53,0,0,0,0-.42q0-.26,0-.63c0-.24,0-.53,0-.85V10.69a2.82,2.82,0,0,0-.26-1.29,1.7,1.7,0,0,0-.68-.72,1.78,1.78,0,0,0-.9-.24,2.4,2.4,0,0,0-1.1.28,2.68,2.68,0,0,0-.89.79v2.88q0,.86,0,1.41a3.05,3.05,0,0,0,.09.72l1.18.31-.06.75Z" transform="translate(-0.81 -2.14)"/><path class="cls-1" d="M177.47,15.77a1.37,1.37,0,0,1-1-.39,1.32,1.32,0,0,1-.4-1,1.41,1.41,0,0,1,.17-.69,1.33,1.33,0,0,1,.49-.48,1.49,1.49,0,0,1,.73-.18,1.44,1.44,0,0,1,1,.38,1.28,1.28,0,0,1,.4,1,1.32,1.32,0,0,1-.4,1A1.4,1.4,0,0,1,177.47,15.77Z" transform="translate(-0.81 -2.14)"/><path class="cls-1" d="M182.31,15.77a1.37,1.37,0,0,1-1-.39,1.33,1.33,0,0,1-.41-1,1.31,1.31,0,0,1,.18-.69,1.26,1.26,0,0,1,.49-.48,1.46,1.46,0,0,1,.73-.18,1.41,1.41,0,0,1,1,.38,1.29,1.29,0,0,1,.41,1,1.33,1.33,0,0,1-.41,1A1.38,1.38,0,0,1,182.31,15.77Z" transform="translate(-0.81 -2.14)"/><path class="cls-1" d="M187.14,15.77a1.37,1.37,0,0,1-1-.39,1.29,1.29,0,0,1-.41-1,1.41,1.41,0,0,1,.17-.69,1.28,1.28,0,0,1,.5-.48,1.53,1.53,0,0,1,1.73.2,1.28,1.28,0,0,1,.4,1,1.32,1.32,0,0,1-.4,1A1.4,1.4,0,0,1,187.14,15.77Z" transform="translate(-0.81 -2.14)"/></g></g></svg>