<svg xmlns="http://www.w3.org/2000/svg" viewBox="0 0 55.48 31.24"><defs><style>.cls-1{fill:#8a8e6d;}</style></defs><g id="Layer_2" data-name="Layer 2"><g id="Layer_1-2" data-name="Layer 1"><path class="cls-1" d="M5.67,7.18a5.15,5.15,0,0,1,1.11-3A9.17,9.17,0,0,1,9.22,2,12.12,12.12,0,0,1,12.29.71a11.47,11.47,0,0,1,3-.45,3.87,3.87,0,0,1,2.56.68,1.57,1.57,0,0,1,.45,1.75A3.75,3.75,0,0,1,17,4.6a10.75,10.75,0,0,1-2.62,1.52,18,18,0,0,1-3.36,1,21.21,21.21,0,0,1-3.58.44,3.48,3.48,0,0,0,.15,1,2.9,2.9,0,0,0,.4.87,2,2,0,0,0,.62.58,1.4,1.4,0,0,0,.77.17l.76-.11a2.64,2.64,0,0,1,.55-.06,1.07,1.07,0,0,1,.65.17.34.34,0,0,1,.1.44c-.1.23-.32.34-.67.34a1.34,1.34,0,0,1-.4-.08,2.25,2.25,0,0,0-.58-.22A3.29,3.29,0,0,0,9,10.63H8.72l-.38,0a8.3,8.3,0,0,0-2.52.83,8.16,8.16,0,0,0-1.95,1.42A6.38,6.38,0,0,0,2.56,14.8,5.92,5.92,0,0,0,2,17a4.63,4.63,0,0,0,.3,2,4.5,4.5,0,0,0,1,1.51,4.22,4.22,0,0,0,3,1.25,7.76,7.76,0,0,0,3-.59,7.27,7.27,0,0,0,2.21-1.43,6.28,6.28,0,0,0,1.38-1.94,5.17,5.17,0,0,0,.48-2.12,4,4,0,0,0-.12-1,2.25,2.25,0,0,0-.43-.86,2.35,2.35,0,0,0-.84-.64A3.15,3.15,0,0,0,10.66,13a4,4,0,0,0-1.7.38,3.14,3.14,0,0,0-1.27,1.06A3.35,3.35,0,0,0,7.11,16a4,4,0,0,0,.36,2c0,.1,0,.16,0,.2s-.16,0-.28-.26A3.35,3.35,0,0,1,6.7,16a3.45,3.45,0,0,1,.6-1.72,3.85,3.85,0,0,1,1.42-1.25,4.12,4.12,0,0,1,2-.47,3.79,3.79,0,0,1,1.52.27,2.63,2.63,0,0,1,1.54,1.69,4.34,4.34,0,0,1,.16,1.13A6,6,0,0,1,13.44,18,6.46,6.46,0,0,1,12,20.11a7.31,7.31,0,0,1-2.39,1.52,8.48,8.48,0,0,1-3.27.58,7.92,7.92,0,0,1-2.46-.38,6.4,6.4,0,0,1-2-1A5.07,5.07,0,0,1,.49,19.14,4.52,4.52,0,0,1,0,17a5.72,5.72,0,0,1,.51-2.38,6.57,6.57,0,0,1,1.43-2,8.65,8.65,0,0,1,2.22-1.56,11.49,11.49,0,0,1,2.88-1A3.06,3.06,0,0,1,5.67,7.56a11.39,11.39,0,0,1-2-.34A5.75,5.75,0,0,1,2,6.54a3.33,3.33,0,0,1-1.09-1A2.76,2.76,0,0,1,.55,4,3.44,3.44,0,0,1,.93,2.42,3.87,3.87,0,0,1,2,1.14,5.36,5.36,0,0,1,3.52.3,5.87,5.87,0,0,1,5.42,0,7.17,7.17,0,0,1,6.91.17,6.86,6.86,0,0,1,8.46.75a.17.17,0,0,1,.1.22c0,.11-.13.11-.31,0A5.81,5.81,0,0,0,6.86.48,5.8,5.8,0,0,0,5.5.32,5.31,5.31,0,0,0,3.75.61a4.57,4.57,0,0,0-1.43.78,3.71,3.71,0,0,0-1,1.16A2.84,2.84,0,0,0,1,4,2.4,2.4,0,0,0,1.35,5.3a2.91,2.91,0,0,0,1,1,5.47,5.47,0,0,0,1.49.61A12.48,12.48,0,0,0,5.67,7.18Zm1.77.06a20.44,20.44,0,0,0,3.42-.41,17.47,17.47,0,0,0,3.21-1,9.55,9.55,0,0,0,2.49-1.45,3.65,3.65,0,0,0,1.28-1.82,1.42,1.42,0,0,0-.34-1.47A2.74,2.74,0,0,0,15.61.61,7.77,7.77,0,0,0,13,1.1a9.3,9.3,0,0,0-2.55,1.39,9,9,0,0,0-2,2.1A6,6,0,0,0,7.44,7.24Z"/><path class="cls-1" d="M26.23,16A10.19,10.19,0,0,1,24.9,17.2a2.14,2.14,0,0,1-1.24.41,1.91,1.91,0,0,1-.93-.25,1.54,1.54,0,0,1-.64-.65,31.83,31.83,0,0,1-3.67,4A4.17,4.17,0,0,1,16.1,22a1.46,1.46,0,0,1-1-.38,1.85,1.85,0,0,1-.53-1,3.49,3.49,0,0,1,.07-1.49,6.63,6.63,0,0,1,.78-1.79l2.93-4.69h1.82L16,19.4a2.1,2.1,0,0,0-.4,1.56c.11.39.32.58.63.58A2.23,2.23,0,0,0,17.49,21a13.92,13.92,0,0,0,1.58-1.42,22.86,22.86,0,0,0,1.59-1.78c.51-.62.94-1.17,1.29-1.63a3.92,3.92,0,0,1-.28-1.33,3.29,3.29,0,0,1,.15-1.13,1.88,1.88,0,0,1,.45-.8.86.86,0,0,1,.63-.3h0a1,1,0,0,1,.65.21.9.9,0,0,1,.31.68,2.64,2.64,0,0,1-.28,1.18,7.59,7.59,0,0,1-1.05,1.66,1.47,1.47,0,0,0,.52.68,1.09,1.09,0,0,0,.63.19,1.58,1.58,0,0,0,.95-.32A7.9,7.9,0,0,0,25.6,16Z"/><path class="cls-1" d="M30.55,12.6a2.36,2.36,0,0,1,1.21.3,2.2,2.2,0,0,1,.83.83A3.18,3.18,0,0,1,33,15a3.85,3.85,0,0,1-.12,1.49,1.63,1.63,0,0,0,.42.21,2,2,0,0,0,.71.11,1.6,1.6,0,0,0,.73-.21,1.63,1.63,0,0,0,.63-.52h.58a2.79,2.79,0,0,1-1.14.94,2.87,2.87,0,0,1-1.06.22,2.81,2.81,0,0,1-.56-.1,1.85,1.85,0,0,1-.45-.19,7.78,7.78,0,0,1-.84,1.69,10.35,10.35,0,0,1-1.33,1.68,8.76,8.76,0,0,1-1.61,1.29,3.24,3.24,0,0,1-1.72.52,2.59,2.59,0,0,1-1.65-.53,2.93,2.93,0,0,1-1-1.41,4.23,4.23,0,0,1-.15-2A5.29,5.29,0,0,1,25.36,16a9.25,9.25,0,0,1,2.42-2.48A4.88,4.88,0,0,1,30.55,12.6Zm.29.37a2.88,2.88,0,0,0-1.86.8A9.73,9.73,0,0,0,27.16,16a7,7,0,0,0-.85,2.06,4.78,4.78,0,0,0-.11,1.73A2.36,2.36,0,0,0,26.71,21a1.18,1.18,0,0,0,.91.45A2.59,2.59,0,0,0,29.09,21a7.3,7.3,0,0,0,1.38-1.25,8.36,8.36,0,0,0,1.13-1.59,8.09,8.09,0,0,0,.69-1.52l-.06,0-.06,0a1.68,1.68,0,0,1-.54-.76,2.07,2.07,0,0,1-.08-.81,1.38,1.38,0,0,1,.24-.66.7.7,0,0,1,.44-.29,2,2,0,0,0-.61-.76A1.27,1.27,0,0,0,30.84,13Z"/><path class="cls-1" d="M45.81,16c-1.05,1-1.89,1.57-2.52,1.57a1.6,1.6,0,0,1-.89-.24,1.56,1.56,0,0,1-.55-.59,2.11,2.11,0,0,1-.21-.81,2.19,2.19,0,0,1,.11-.85,31,31,0,0,0-2.65,3.31c-.84,1.21-1.62,2.39-2.36,3.55H34.92l4.14-6.81a5.08,5.08,0,0,0,.69-1.56c.08-.39,0-.58-.28-.58a2.36,2.36,0,0,0-1.31.78c-.56.52-1.3,1.28-2.23,2.26h-.55a28.52,28.52,0,0,1,2.55-2.62,2.87,2.87,0,0,1,1.77-.85,1,1,0,0,1,1.07.89,4.75,4.75,0,0,1-.55,2.73c.48-.58,1-1.2,1.63-1.86a17.34,17.34,0,0,1,1.76-1.65H45a7.19,7.19,0,0,0-1.47,1.62,4.54,4.54,0,0,0-.63,1.44,1.52,1.52,0,0,0,.06,1,.63.63,0,0,0,.62.39,1.16,1.16,0,0,0,.74-.32,11.59,11.59,0,0,0,.88-.81Z"/><path class="cls-1" d="M40.22,31.24a2.2,2.2,0,0,1-1.68-.62,2,2,0,0,1-.61-1.46,2.76,2.76,0,0,1,.52-1.64,6.14,6.14,0,0,1,1.46-1.4,14.21,14.21,0,0,1,2.26-1.28c.88-.4,1.86-.81,2.94-1.21a13,13,0,0,0,1.8-.78l2.66-4.43A27.67,27.67,0,0,1,47,21.11a3,3,0,0,1-1.91.87,1.44,1.44,0,0,1-1-.38,1.86,1.86,0,0,1-.54-1,3.51,3.51,0,0,1,.08-1.49,6.05,6.05,0,0,1,.78-1.79l2.92-4.69h1.83L45,19.4A2.11,2.11,0,0,0,44.56,21c.12.39.33.58.64.58a2.42,2.42,0,0,0,1.53-.82c.58-.55,1.37-1.37,2.38-2.45l1-1.16c.31-.34.54-.61.69-.78l2.23-3.73H54.9l-5.24,8.68a22.25,22.25,0,0,0,2.66-2.2,21.82,21.82,0,0,0,2.61-3h.55a21.06,21.06,0,0,1-6.37,6.17l-1.25,2.05c-.42.74-.9,1.51-1.43,2.32a17.88,17.88,0,0,1-1.75,2.26,9.47,9.47,0,0,1-2.07,1.72A4.47,4.47,0,0,1,40.22,31.24Zm6.28-7.67a7.45,7.45,0,0,1-1.07.43c-1.06.41-2,.81-2.88,1.19a14.58,14.58,0,0,0-2.19,1.19A5.29,5.29,0,0,0,39,27.67a2.42,2.42,0,0,0-.49,1.46,1.67,1.67,0,0,0,.17.78,1.74,1.74,0,0,0,.44.52,1.58,1.58,0,0,0,.56.29,2,2,0,0,0,.57.09,2.32,2.32,0,0,0,1.49-.61,9.16,9.16,0,0,0,1.46-1.55c.48-.63,1-1.32,1.45-2.08s1-1.51,1.42-2.25Z"/></g></g></svg>