<svg xmlns="http://www.w3.org/2000/svg" viewBox="0 0 75.08 22.09"><defs><style>.cls-1{fill:#8a8e6d;}</style></defs><g id="Layer_2" data-name="Layer 2"><g id="Layer_1-2" data-name="Layer 1"><path class="cls-1" d="M4.2,21.8a5.22,5.22,0,0,0,2.45-.6A8.84,8.84,0,0,0,8.8,19.56a16.68,16.68,0,0,0,1.93-2.37c.61-.9,1.2-1.83,1.78-2.8.17-.31.35-.61.53-.91l.57-.91a6.62,6.62,0,0,0-1.85.51,3.26,3.26,0,0,0-1.42,1.2s-.08,0-.12,0a.29.29,0,0,1-.06-.15.53.53,0,0,1,.1-.23,1.5,1.5,0,0,1,.16-.2A4.43,4.43,0,0,1,12,12.58a9.39,9.39,0,0,1,1.84-.48c.5-.81,1-1.59,1.58-2.36a18.31,18.31,0,0,1,1.78-2.12A13.08,13.08,0,0,1,19.3,5.88a9.77,9.77,0,0,1,2.45-1.19.09.09,0,0,1,.13.09c0,.08,0,.13-.05.14A9.92,9.92,0,0,0,20,6.27a14.22,14.22,0,0,0-1.52,1.67,17.88,17.88,0,0,0-1.28,1.89c-.4.67-.78,1.35-1.15,2,.39,0,.76-.12,1.12-.2a5.89,5.89,0,0,0,1.08-.35,5,5,0,0,1,.86-1.13A1.39,1.39,0,0,1,20,9.73a.6.6,0,0,1,.39.14.49.49,0,0,1,.16.38.52.52,0,0,1-.22.42,3.47,3.47,0,0,1-.53.39,5.46,5.46,0,0,0-1.25,1.12,1.52,1.52,0,0,0-.09,1.46l-.23-.17L18,13.36a1,1,0,0,0-.26,0,.27.27,0,0,0-.2.06A4.84,4.84,0,0,1,18,11.84a7.64,7.64,0,0,1-1.07.28c-.37.07-.73.12-1.1.16L15,13.83l-.81,1.52a17.83,17.83,0,0,1-1.75,2.59,13.32,13.32,0,0,1-2.22,2.16,10.53,10.53,0,0,1-2.65,1.46,8.63,8.63,0,0,1-3.08.53,5.37,5.37,0,0,1-1.71-.27A4.22,4.22,0,0,1,1.33,21a3.84,3.84,0,0,1-1-1.27A3.9,3.9,0,0,1,0,18a3.43,3.43,0,0,1,.29-1.36,4,4,0,0,1,.81-1.2,4.13,4.13,0,0,1,1.23-.86,3.84,3.84,0,0,1,1.58-.31,3.6,3.6,0,0,1,2.34.62,2.16,2.16,0,0,1,.86,1.39,1.94,1.94,0,0,1-.32,1.39,1.34,1.34,0,0,1-1.17.62.82.82,0,0,1-.51-.16.62.62,0,0,1-.22-.53.59.59,0,0,1,.26-.51,1.05,1.05,0,0,1,.64-.19.74.74,0,0,0,.71-.35.83.83,0,0,0,0-.78A1.91,1.91,0,0,0,5.68,15,3.44,3.44,0,0,0,4,14.68,3.45,3.45,0,0,0,2.61,15,3.51,3.51,0,0,0,.69,16.8a3.17,3.17,0,0,0-.28,1.33,3.22,3.22,0,0,0,.36,1.52,4,4,0,0,0,.91,1.16,4.26,4.26,0,0,0,1.23.73A3.45,3.45,0,0,0,4.2,21.8ZM11.67,0a15.72,15.72,0,0,1,4,.42c1.19.3,2.31.63,3.37,1s2.11.7,3.13,1a11.08,11.08,0,0,0,3.24.47,6.55,6.55,0,0,0,1.94-.29,10,10,0,0,0,1.68-.7,8.61,8.61,0,0,0,1.28-.82A6.21,6.21,0,0,0,31,.46a.12.12,0,0,1,.13,0s.06,0,0,.08A6.21,6.21,0,0,1,30.14,2a8.45,8.45,0,0,1-1.59,1.29,9.91,9.91,0,0,1-1.94.93,6.5,6.5,0,0,1-2.14.36A9.38,9.38,0,0,1,21.53,4c-1-.34-2.11-.71-3.23-1.11S16,2.14,14.81,1.8A13.53,13.53,0,0,0,11,1.28a8.76,8.76,0,0,0-2.16.27A5.81,5.81,0,0,0,7,2.41,4.36,4.36,0,0,0,5.62,3.88,4.16,4.16,0,0,0,5.1,6a4.28,4.28,0,0,0,.36,1.84A3.83,3.83,0,0,0,6.4,9.14a3.6,3.6,0,0,0,1.29.73,4.26,4.26,0,0,0,1.37.24,3.57,3.57,0,0,0,1.71-.44,6.16,6.16,0,0,0,1.45-1.08,6.68,6.68,0,0,0,1.06-1.44,4.28,4.28,0,0,0,.5-1.5c0-.25.11-.38.26-.38a.26.26,0,0,1,.21.12.38.38,0,0,1,.05.29,5.15,5.15,0,0,1-.55,1.63,6.36,6.36,0,0,1-1.14,1.57A5.68,5.68,0,0,1,11,10a4.75,4.75,0,0,1-2.07.45,4.38,4.38,0,0,1-1.59-.29,4.26,4.26,0,0,1-1.41-.85,4.35,4.35,0,0,1-1-1.4A4.67,4.67,0,0,1,4.52,6,5,5,0,0,1,5,3.79,6.33,6.33,0,0,1,6.49,1.88,7.27,7.27,0,0,1,8.74.52,8,8,0,0,1,11.67,0Z"/><path class="cls-1" d="M23.66,12.45a2.09,2.09,0,0,1,1.6.55,1.78,1.78,0,0,1,.48,1.33l1.19-1.88h1.82l-4.14,6.81a2.08,2.08,0,0,0-.4,1.56c.11.39.32.58.63.58a2.44,2.44,0,0,0,1.54-.83c.58-.55,1.37-1.36,2.37-2.44l.77-.86c.24-.26.45-.49.62-.71s.41-.45.58-.66h.55L29,18.53c-.65.76-1.23,1.37-1.74,1.86a8.36,8.36,0,0,1-1.37,1.08,2.36,2.36,0,0,1-1.19.36,1.47,1.47,0,0,1-1.26-.69,2.39,2.39,0,0,1-.3-1.8,9.69,9.69,0,0,1-1.63,1.86,2.92,2.92,0,0,1-2,.75,2,2,0,0,1-1.43-.54,2.54,2.54,0,0,1-.74-1.4,4.77,4.77,0,0,1,.08-2,6.33,6.33,0,0,1,1-2.23,9.2,9.2,0,0,1,2.42-2.47A4.9,4.9,0,0,1,23.66,12.45Zm.29.38a2.87,2.87,0,0,0-1.86.79,9.56,9.56,0,0,0-1.82,2.28A9,9,0,0,0,19.33,18,6.22,6.22,0,0,0,19,19.73,2.62,2.62,0,0,0,19.27,21a.77.77,0,0,0,.71.47A1.72,1.72,0,0,0,21,21a7.27,7.27,0,0,0,1.13-1.15,19.64,19.64,0,0,0,1.17-1.65q.6-.93,1.2-1.89a4.4,4.4,0,0,0,.63-1.42,2.85,2.85,0,0,0,0-1.08,1.22,1.22,0,0,0-.44-.71A1.27,1.27,0,0,0,24,12.83Z"/><path class="cls-1" d="M41.17,15.9a4.27,4.27,0,0,1-2.52,1.56,1.65,1.65,0,0,1-.88-.23,1.56,1.56,0,0,1-.55-.59,2.16,2.16,0,0,1-.22-.81,2.07,2.07,0,0,1,.12-.86,30.86,30.86,0,0,0-2.65,3.32c-.84,1.2-1.63,2.39-2.36,3.54H30.29L34.43,15a5.89,5.89,0,0,0,.69-1.56c.08-.39,0-.58-.29-.58a2.34,2.34,0,0,0-1.3.78c-.56.52-1.3,1.27-2.23,2.26h-.55a28.52,28.52,0,0,1,2.55-2.62,2.84,2.84,0,0,1,1.76-.86,1.05,1.05,0,0,1,1.08.9,4.71,4.71,0,0,1-.55,2.72c.48-.58,1-1.2,1.63-1.85A15.3,15.3,0,0,1,39,12.57h1.36a7.37,7.37,0,0,0-1.46,1.62,4.65,4.65,0,0,0-.64,1.43,1.69,1.69,0,0,0,.06,1,.66.66,0,0,0,.63.39,1.2,1.2,0,0,0,.73-.32,11.52,11.52,0,0,0,.89-.81Z"/><path class="cls-1" d="M50.93,15.9a4.27,4.27,0,0,1-2.52,1.56,1.62,1.62,0,0,1-.88-.23,1.48,1.48,0,0,1-.55-.59,2,2,0,0,1-.22-.81,2.07,2.07,0,0,1,.12-.86,30.86,30.86,0,0,0-2.65,3.32c-.84,1.2-1.63,2.39-2.36,3.54H40L44.18,15a5.66,5.66,0,0,0,.7-1.56c.08-.39,0-.58-.29-.58a2.34,2.34,0,0,0-1.3.78c-.56.52-1.31,1.27-2.23,2.26h-.55a28.52,28.52,0,0,1,2.55-2.62,2.84,2.84,0,0,1,1.76-.86,1,1,0,0,1,1.07.9,4.63,4.63,0,0,1-.55,2.72c.48-.58,1-1.2,1.64-1.85a15.3,15.3,0,0,1,1.75-1.65h1.36a7.12,7.12,0,0,0-1.46,1.62A4.65,4.65,0,0,0,48,15.62a1.61,1.61,0,0,0,.06,1,.64.64,0,0,0,.62.39,1.22,1.22,0,0,0,.74-.32,10,10,0,0,0,.88-.81Z"/><path class="cls-1" d="M56.58,14.51a2.5,2.5,0,0,1-.74.9,7,7,0,0,1-1.28.81,14,14,0,0,1-1.6.69c-.58.21-1.16.41-1.74.58A4.93,4.93,0,0,0,51,19a3.27,3.27,0,0,0,.23,1.19,2,2,0,0,0,.61.8,1.53,1.53,0,0,0,.92.29A3.6,3.6,0,0,0,54,21a6.15,6.15,0,0,0,1.54-.84,18.29,18.29,0,0,0,2-1.66c.76-.7,1.63-1.61,2.61-2.71h.52A33.56,33.56,0,0,1,58,18.68a17.26,17.26,0,0,1-2.25,1.85,8.43,8.43,0,0,1-1.87,1,4.55,4.55,0,0,1-1.53.3,3,3,0,0,1-1.82-.53,3,3,0,0,1-1.09-1.41,3.86,3.86,0,0,1-.17-2,5.17,5.17,0,0,1,.94-2.22,9.32,9.32,0,0,1,2.39-2.48,4.46,4.46,0,0,1,2.53-.88,2.19,2.19,0,0,1,.77.13,1.48,1.48,0,0,1,.61.4,1.23,1.23,0,0,1,.29.68A2.17,2.17,0,0,1,56.58,14.51Zm-5.24,2.55a10.58,10.58,0,0,0,3-1.39,3.4,3.4,0,0,0,1.39-1.74,1.14,1.14,0,0,0,0-.91.6.6,0,0,0-.52-.31,1.86,1.86,0,0,0-1.12.49,8.08,8.08,0,0,0-1.13,1.19,15.12,15.12,0,0,0-1,1.44A9.05,9.05,0,0,0,51.34,17.06Z"/><path class="cls-1" d="M59.91,15.93a28.52,28.52,0,0,1,2.55-2.62,2.84,2.84,0,0,1,1.76-.86,1,1,0,0,1,1.07.9,4.63,4.63,0,0,1-.55,2.72c.5-.62,1-1.15,1.35-1.61a10.71,10.71,0,0,1,1.1-1.12,4,4,0,0,1,1-.67,2.17,2.17,0,0,1,1-.22,1.7,1.7,0,0,1,.95.28,1.59,1.59,0,0,1,.64.81,2.62,2.62,0,0,1,.06,1.33A5.64,5.64,0,0,1,70,16.71l-1.56,2.55a2,2,0,0,0-.4,1.56c.11.39.32.58.63.58a2.44,2.44,0,0,0,1.54-.83c.58-.55,1.37-1.36,2.37-2.44l.77-.86c.24-.26.45-.49.62-.71s.41-.45.58-.66h.55l-2.27,2.63c-.65.76-1.23,1.37-1.74,1.86a8,8,0,0,1-1.38,1.08,2.3,2.3,0,0,1-1.18.36,1.48,1.48,0,0,1-.94-.33,1.83,1.83,0,0,1-.6-.94,3.34,3.34,0,0,1,0-1.48,6.25,6.25,0,0,1,.84-1.94L69.12,15a2.06,2.06,0,0,0,.43-1.56c-.12-.39-.31-.58-.58-.58a2.06,2.06,0,0,0-1.16.55,11.22,11.22,0,0,0-1.46,1.42c-.51.57-1,1.22-1.58,1.92s-1,1.39-1.5,2-.88,1.26-1.23,1.81-.62.95-.77,1.2H59.44L63.58,15a5.66,5.66,0,0,0,.7-1.56c.08-.39,0-.58-.29-.58a2.34,2.34,0,0,0-1.3.78c-.56.52-1.31,1.27-2.23,2.26Z"/></g></g></svg>