<svg xmlns="http://www.w3.org/2000/svg" viewBox="0 0 288.07 17.91"><defs><style>.cls-1{fill:#f2f3eb;}</style></defs><g id="Layer_2" data-name="Layer 2"><g id="Layer_1-2" data-name="Layer 1"><path class="cls-1" d="M.87,15.58l-.06-.81L2,14.5A1.63,1.63,0,0,0,2.07,14c0-.24,0-.57,0-1s0-.9,0-1.45V8.23c0-.57,0-1.06,0-1.48s0-.75,0-1A1.31,1.31,0,0,0,2,5.31L.81,5l.06-.81H5.32l0,.81-1.18.27a1.41,1.41,0,0,0-.07.43c0,.23,0,.55,0,1s0,.93,0,1.53V11.6c0,.59,0,1.09,0,1.5s0,.72,0,1a1.78,1.78,0,0,0,.07.45l1.18.27,0,.81Zm2.9-5.2V9.14c.27,0,.64,0,1.1.06l1.73,0,1.69,0c.46,0,.81,0,1.07-.06v1.24c-.28,0-.64-.05-1.07-.06l-1.69,0-1.75,0Q4.18,10.34,3.77,10.38Zm4,5.2,0-.81L9,14.5A2.83,2.83,0,0,0,9,14.05c0-.23,0-.55,0-1s0-.91,0-1.5V8.23c0-.6,0-1.11,0-1.53s0-.73,0-1A2.15,2.15,0,0,0,9,5.31L7.78,5l0-.81H12.3l.06.81-1.2.27a1.51,1.51,0,0,0-.07.44c0,.23,0,.56-.05,1s0,.92,0,1.51V11.6c0,.56,0,1.05,0,1.47s0,.73.05,1a1.9,1.9,0,0,0,.07.46l1.2.27-.06.81Z" transform="translate(-0.81 -2.08)"/><path class="cls-1" d="M18.2,15.74A4.41,4.41,0,0,1,16,15.19a3.82,3.82,0,0,1-1.5-1.51,4.58,4.58,0,0,1-.54-2.24,4.37,4.37,0,0,1,.6-2.33A4.22,4.22,0,0,1,16.1,7.59a4.52,4.52,0,0,1,2.18-.54,4.21,4.21,0,0,1,2.15.54,3.69,3.69,0,0,1,1.43,1.5,4.8,4.8,0,0,1,.5,2.24,4.5,4.5,0,0,1-.55,2.23,4.4,4.4,0,0,1-1.5,1.59A3.92,3.92,0,0,1,18.2,15.74Zm.2-1a1.53,1.53,0,0,0,1-.37,2.33,2.33,0,0,0,.68-1,4.71,4.71,0,0,0,.24-1.57,5.14,5.14,0,0,0-.63-2.7A1.9,1.9,0,0,0,18,8a1.75,1.75,0,0,0-1.5.83,3.82,3.82,0,0,0-.57,2.2,5.33,5.33,0,0,0,.31,1.9,3,3,0,0,0,.87,1.31A1.91,1.91,0,0,0,18.4,14.73Z" transform="translate(-0.81 -2.08)"/><path class="cls-1" d="M27.27,15.66,24,8.27,23.13,8l0-.75H27.1l0,.75-1,.31,2.3,5.51-.6,0,2.48-5.65.58,1.22-3,6.29Zm5.79,0L30,8.27,29,8l0-.75H33L33,8l-1,.31,2.17,5.51-.5,0L35.9,8.27l-1-.31,0-.75H38l0,.75-.91.31-3.43,7.39Z" transform="translate(-0.81 -2.08)"/><path class="cls-1" d="M42.3,15.58l-.06-.75,1.2-.31a1.83,1.83,0,0,0,0-.33c0-.16,0-.37,0-.65s0-.62,0-1l0-1.49c0-.27,0-.54,0-.81s0-.51-.06-.75-.06-.44-.09-.61l-1.24-.27V7.86L45,7.09l.39.33-.1,1.06.06,0a4,4,0,0,1,1.26-1.11A2.85,2.85,0,0,1,48,7.05a2.65,2.65,0,0,1,1.34.38,2.76,2.76,0,0,1,1.06,1.13,4.06,4.06,0,0,1,.4,1.93l0,2c0,.46,0,.87,0,1.24a4,4,0,0,0,.08.76l1.14.31-.06.75H48l-.06-.75,1-.31c0-.11,0-.24,0-.42s0-.38,0-.63,0-.53,0-.85v-2a2.8,2.8,0,0,0-.25-1.25,1.55,1.55,0,0,0-.63-.68,1.76,1.76,0,0,0-.87-.22,2.18,2.18,0,0,0-1,.27,2.28,2.28,0,0,0-.87.8v2.88q0,.81,0,1.38a3.51,3.51,0,0,0,.09.75l1.12.31-.06.75Zm11.05,0-.06-.75,1.06-.31a1.55,1.55,0,0,0,0-.42q0-.26,0-.63c0-.24,0-.53,0-.85l0-1.95a2.8,2.8,0,0,0-.26-1.3,1.59,1.59,0,0,0-.68-.7,1.76,1.76,0,0,0-.86-.23,2.41,2.41,0,0,0-1.12.28,2.54,2.54,0,0,0-.91.88l-.42-.73a4.94,4.94,0,0,1,1.44-1.36,3.07,3.07,0,0,1,1.63-.46,2.92,2.92,0,0,1,1.53.41,2.73,2.73,0,0,1,1,1.15,3.91,3.91,0,0,1,.38,1.79l0,2.12c0,.46,0,.87,0,1.24a5.56,5.56,0,0,0,.07.76l1.2.31,0,.75Z" transform="translate(-0.81 -2.08)"/><path class="cls-1" d="M61.65,15.74a3,3,0,0,1-1.44-.34,2.67,2.67,0,0,1-.94-.84,1.83,1.83,0,0,1-.33-1,1.52,1.52,0,0,1,.42-1.1,3.22,3.22,0,0,1,1.38-.74l3-1V9.86A1.41,1.41,0,0,0,63.43,9a1.92,1.92,0,0,0-.74-.6,2.19,2.19,0,0,0-1-.24.77.77,0,0,0-.61.19,1.39,1.39,0,0,0-.19.72l-.06.93a2.08,2.08,0,0,1-1.3,0A.75.75,0,0,1,59,9.22a1,1,0,0,1,.32-.68,4,4,0,0,1,.81-.66,7.37,7.37,0,0,1,1-.53,4.82,4.82,0,0,1,1.07-.3,3.67,3.67,0,0,1,2.42.76,2.58,2.58,0,0,1,.92,2l0,3.07q0,.4,0,.75a2.37,2.37,0,0,0,.09.51l1.26.23v.68l-1,.4a5,5,0,0,1-.54.19,2.08,2.08,0,0,1-.44.07A.88.88,0,0,1,64,15l-.26-.81.33,0a5.67,5.67,0,0,1-1.22,1.09A2.26,2.26,0,0,1,61.65,15.74Zm.67-1.34a1.71,1.71,0,0,0,.74-.17,2.4,2.4,0,0,0,.66-.52v-2l-1.9.47a1.22,1.22,0,0,0-.67.35,1,1,0,0,0-.2.63,1.11,1.11,0,0,0,.41.86A1.33,1.33,0,0,0,62.32,14.4Z" transform="translate(-0.81 -2.08)"/><path class="cls-1" d="M67.74,15.58l-.06-.75,1.2-.31c0-.07,0-.18,0-.34s0-.38,0-.65,0-.61,0-1L69,11c0-.42,0-.81,0-1.19a9.44,9.44,0,0,0-.13-1l-1.24-.27V7.86l2.87-.77.38.33-.09,1,.05,0A4.46,4.46,0,0,1,72.12,7.4a3.21,3.21,0,0,1,1.46-.35A2.69,2.69,0,0,1,75,7.43a2.79,2.79,0,0,1,1,1.13,4.06,4.06,0,0,1,.39,1.88v2.08c0,.46,0,.87,0,1.25a3.75,3.75,0,0,0,.08.75l1.2.31-.06.75h-4.2l0-.75,1.12-.31c0-.11,0-.24,0-.42s0-.38,0-.63,0-.53,0-.85V10.69a2.63,2.63,0,0,0-.28-1.31,1.67,1.67,0,0,0-.68-.71,1.83,1.83,0,0,0-.88-.23,2.34,2.34,0,0,0-1.11.28,2.55,2.55,0,0,0-.88.79v2.88c0,.55,0,1,0,1.39a3.39,3.39,0,0,0,.09.74l1.2.31-.06.75Z" transform="translate(-0.81 -2.08)"/><path class="cls-1" d="M82.28,15.66,78.84,8.27,77.93,8,78,7.21h4.12l0,.75L81,8.27l2.49,5.51Zm5.09-8.45.06.75-.91.31L83.21,15.1l-1.53,3.21a3.43,3.43,0,0,1-1,1.31,1.8,1.8,0,0,1-1.12.37,1.36,1.36,0,0,1-.86-.26.8.8,0,0,1-.31-.65.89.89,0,0,1,.26-.63,1.71,1.71,0,0,1,.82-.43l1.93-.58-1,.95,2.2-4.2.21-.39,2.38-5.53L84,8l.06-.75Z" transform="translate(-0.81 -2.08)"/><path class="cls-1" d="M95.57,20a6.17,6.17,0,0,1-2.93-.58,1.74,1.74,0,0,1-1.07-1.55,1.66,1.66,0,0,1,.57-1.21,6.17,6.17,0,0,1,1.73-1l.77.14a2.9,2.9,0,0,0-.91.82,1.78,1.78,0,0,0-.32,1A1.29,1.29,0,0,0,94,18.7a3,3,0,0,0,1.67.4,3.4,3.4,0,0,0,2-.51,1.52,1.52,0,0,0,.76-1.31,1,1,0,0,0-.45-.9A3.14,3.14,0,0,0,96.48,16l-2.16-.18-.26-.09a2.22,2.22,0,0,1-1.3-.37,1.13,1.13,0,0,1-.51-.95,1.46,1.46,0,0,1,.54-1.05,4.31,4.31,0,0,1,1.47-.88l.27.36a2.65,2.65,0,0,0-.48.41.6.6,0,0,0-.16.39.51.51,0,0,0,.21.41,1.18,1.18,0,0,0,.6.21l2.63.27a3.87,3.87,0,0,1,2.08.7,1.93,1.93,0,0,1,.71,1.58,2.46,2.46,0,0,1-.6,1.61,4,4,0,0,1-1.63,1.15A6.23,6.23,0,0,1,95.57,20Zm.14-6.77a4.37,4.37,0,0,1-1.89-.38,3.09,3.09,0,0,1-1.28-1,2.61,2.61,0,0,1-.47-1.52,2.84,2.84,0,0,1,.49-1.65,3.33,3.33,0,0,1,1.31-1.15,3.92,3.92,0,0,1,1.86-.43,4,4,0,0,1,1.83.41,3.24,3.24,0,0,1,1.26,1.11,2.82,2.82,0,0,1,.47,1.58,2.79,2.79,0,0,1-.47,1.57,3.1,3.1,0,0,1-1.27,1.1A4.11,4.11,0,0,1,95.71,13.22Zm.11-.89A1.38,1.38,0,0,0,97,11.77a2.4,2.4,0,0,0,.43-1.51A2.83,2.83,0,0,0,97,8.56a1.46,1.46,0,0,0-1.24-.64,1.42,1.42,0,0,0-1.19.6,2.59,2.59,0,0,0-.46,1.59,2.54,2.54,0,0,0,.49,1.6A1.51,1.51,0,0,0,95.82,12.33Zm4.61-3.75L98,8.39l-.74-.82,3.16-.33Z" transform="translate(-0.81 -2.08)"/><path class="cls-1" d="M109.83,14.09l1.24.31v.7l-2.77.69-.35-.25,0-1.25-.06,0a3.43,3.43,0,0,1-1.17,1.15,2.73,2.73,0,0,1-1.28.32,3.09,3.09,0,0,1-2.21-.83,3.22,3.22,0,0,1-.87-2.46V10.78c0-.31,0-.62,0-.94s0-.65-.07-1L101,8.58V7.86l2.92-.77.41.33c0,.39,0,.82-.07,1.3s0,1,0,1.5l0,2a2.16,2.16,0,0,0,.52,1.62,1.89,1.89,0,0,0,1.38.5,2,2,0,0,0,1-.26,2.17,2.17,0,0,0,.87-.86V11.05c0-.28,0-.55,0-.82s0-.51,0-.75,0-.45-.06-.63l-1.42-.27V7.86l3-.77.37.29c0,.32,0,.62,0,.91s0,.58,0,.88V11.6c0,.58,0,1.08,0,1.51S109.8,13.86,109.83,14.09Z" transform="translate(-0.81 -2.08)"/><path class="cls-1" d="M116.31,15.74a4.16,4.16,0,0,1-2.09-.53,3.63,3.63,0,0,1-1.46-1.47,4.34,4.34,0,0,1-.53-2.2,4.68,4.68,0,0,1,.58-2.37,4.25,4.25,0,0,1,1.51-1.58,3.72,3.72,0,0,1,2-.54,3.06,3.06,0,0,1,2.44,1,4.07,4.07,0,0,1,.87,2.75v.39h-5.83v-.91h4.37l-.25.33v-.48a2.58,2.58,0,0,0-.47-1.64,1.59,1.59,0,0,0-1.29-.59,1.73,1.73,0,0,0-1,.31,2.15,2.15,0,0,0-.76.93,3.87,3.87,0,0,0-.28,1.55V11a3.49,3.49,0,0,0,.77,2.38,2.53,2.53,0,0,0,2,.87,2.66,2.66,0,0,0,1.21-.27,3.46,3.46,0,0,0,1-.86l.52.49a3.67,3.67,0,0,1-1.42,1.58A3.77,3.77,0,0,1,116.31,15.74Z" transform="translate(-0.81 -2.08)"/><path class="cls-1" d="M124.08,15.74a6.86,6.86,0,0,1-1.48-.17,4.88,4.88,0,0,1-1.26-.45l-.1-2.13h1.05l.4,1.39a2.7,2.7,0,0,0,1.53.45,1.67,1.67,0,0,0,1-.29,1,1,0,0,0,.37-.8,1.15,1.15,0,0,0-.36-.84,4.32,4.32,0,0,0-1.42-.78,5.75,5.75,0,0,1-2-1.14,2.14,2.14,0,0,1-.12-2.74A3,3,0,0,1,123,7.37a4.78,4.78,0,0,1,1.8-.32,6.38,6.38,0,0,1,1.14.11,4,4,0,0,1,1,.28l.21,2.07h-1l-.45-1.34a1.77,1.77,0,0,0-.46-.18,2.1,2.1,0,0,0-.56-.07,1.67,1.67,0,0,0-1.06.31,1,1,0,0,0-.39.77,1,1,0,0,0,.44.88,8.74,8.74,0,0,0,1.57.85A5.36,5.36,0,0,1,127,11.86a2,2,0,0,1,.51,1.4,2.1,2.1,0,0,1-1,1.79A4.08,4.08,0,0,1,124.08,15.74Z" transform="translate(-0.81 -2.08)"/><path class="cls-1" d="M135,14.25a2.55,2.55,0,0,1-1,1.09,3,3,0,0,1-3.46-.33,2.84,2.84,0,0,1-.8-2.21l.06-4.53h-1.35V7.81l2.72-2.38h.47l0,2.38,0,4.71A2,2,0,0,0,132,13.9a1.52,1.52,0,0,0,1.19.44,1.91,1.91,0,0,0,.78-.16,2.51,2.51,0,0,0,.67-.44Zm-4.25-6v-1h3.69v1Z" transform="translate(-0.81 -2.08)"/><path class="cls-1" d="M138.46,15.74a6.79,6.79,0,0,1-1.48-.17,4.83,4.83,0,0,1-1.27-.45l-.1-2.13h1l.4,1.39a2.7,2.7,0,0,0,1.53.45,1.65,1.65,0,0,0,1-.29,1,1,0,0,0,.37-.8,1.18,1.18,0,0,0-.35-.84,4.51,4.51,0,0,0-1.43-.78A5.85,5.85,0,0,1,136.25,11a2.06,2.06,0,0,1-.56-1.47,2,2,0,0,1,.44-1.27,3,3,0,0,1,1.22-.87,4.78,4.78,0,0,1,1.8-.32,6.29,6.29,0,0,1,1.14.11,4,4,0,0,1,1,.28l.21,2.07h-1L140,8.17a1.77,1.77,0,0,0-.46-.18,2.1,2.1,0,0,0-.56-.07,1.67,1.67,0,0,0-1.06.31,1,1,0,0,0-.39.77,1,1,0,0,0,.44.88,8.74,8.74,0,0,0,1.57.85,5.26,5.26,0,0,1,1.79,1.13,2,2,0,0,1,.51,1.4,2.1,2.1,0,0,1-1,1.79A4.07,4.07,0,0,1,138.46,15.74Z" transform="translate(-0.81 -2.08)"/><path class="cls-1" d="M150.43,15.66,147.2,8.27,146.29,8l0-.75h3.93l0,.75-1,.31,2.3,5.51-.6,0,2.47-5.65.59,1.22-3,6.29Zm5.78,0-3.07-7.39-1-.31,0-.75h3.91l0,.75-1,.31,2.16,5.51-.5,0,2.25-5.53-1-.31,0-.75h3.09l0,.75-.91.31-3.42,7.39Z" transform="translate(-0.81 -2.08)"/><path class="cls-1" d="M161.67,15.58l-.06-.77,1.29-.29a1.25,1.25,0,0,0,0-.3c0-.15,0-.36,0-.64s0-.64,0-1.07V11.13c0-.46,0-.89,0-1.28a7.6,7.6,0,0,0-.11-1l-1.3-.27V7.86l3-.77.37.31c0,.4-.07.8-.09,1.19s0,.85,0,1.36v2.44c0,.54,0,1,0,1.39a4.68,4.68,0,0,0,.07.74l1.29.29,0,.77ZM163.93,5.1a1.3,1.3,0,0,1-1-.38,1.22,1.22,0,0,1-.37-.9,1.22,1.22,0,0,1,.37-.9,1.3,1.3,0,0,1,1-.38,1.26,1.26,0,0,1,1.3,1.28,1.26,1.26,0,0,1-1.3,1.28Z" transform="translate(-0.81 -2.08)"/><path class="cls-1" d="M167,15.58l-.06-.77,1.26-.29a5.31,5.31,0,0,0,.05-.65c0-.32,0-.72,0-1.21s0-1,0-1.66V8.56c0-.46,0-.94,0-1.44s0-1,0-1.4,0-.83,0-1.15,0-.57,0-.71l-1.43-.19,0-.7,3.06-.83.43.29c0,.54,0,1.08,0,1.61s0,1.13,0,1.78,0,1.44,0,2.37l0,3q0,1.21,0,2.16a10.22,10.22,0,0,0,.07,1.15l1.25.29,0,.77Z" transform="translate(-0.81 -2.08)"/><path class="cls-1" d="M172.38,15.58l0-.77,1.25-.29a3.53,3.53,0,0,0,.06-.65c0-.32,0-.72,0-1.21s0-1,0-1.66V8.56c0-.46,0-.94,0-1.44s0-1,0-1.4,0-.83,0-1.15,0-.57,0-.71l-1.43-.19,0-.7,3.06-.83.42.29c0,.54,0,1.08,0,1.61s0,1.13,0,1.78,0,1.44,0,2.37l0,3q0,1.21,0,2.16a11.41,11.41,0,0,0,.06,1.15l1.26.29,0,.77Z" transform="translate(-0.81 -2.08)"/><path class="cls-1" d="M182.46,15.06c0-.45,0-.86,0-1.23s0-.73,0-1.1V8.56c0-.48,0-1,0-1.48s0-1,0-1.43,0-.83,0-1.15,0-.54,0-.66L181,3.67l0-.7,3-.83.42.29c0,.54,0,1.08,0,1.61s0,1.15-.05,1.85,0,1.56,0,2.59l.06,0a3.52,3.52,0,0,1,1.16-1,3,3,0,0,1,1.55-.42,3.46,3.46,0,0,1,3.08,1.83,4.31,4.31,0,0,1,.49,2.14,4.58,4.58,0,0,1-.64,2.42,4.51,4.51,0,0,1-1.75,1.69,5.28,5.28,0,0,1-2.52.61,8.57,8.57,0,0,1-3.25-.68Zm3.69-.45a2.24,2.24,0,0,0,1.76-.81,3.58,3.58,0,0,0,.72-2.38,2.94,2.94,0,0,0-.69-2.19,2.39,2.39,0,0,0-1.73-.71,2.5,2.5,0,0,0-1,.23,2.35,2.35,0,0,0-.87.7V14a2.91,2.91,0,0,0,.82.43A3.28,3.28,0,0,0,186.15,14.61Z" transform="translate(-0.81 -2.08)"/><path class="cls-1" d="M196.21,15.74a4.19,4.19,0,0,1-2.09-.53,3.75,3.75,0,0,1-1.46-1.47,4.45,4.45,0,0,1-.53-2.2,4.78,4.78,0,0,1,.58-2.37,4.33,4.33,0,0,1,1.51-1.58,3.75,3.75,0,0,1,2-.54,3.07,3.07,0,0,1,2.45,1,4.12,4.12,0,0,1,.86,2.75v.39h-5.82v-.91h4.37l-.25.33v-.48a2.52,2.52,0,0,0-.48-1.64,1.55,1.55,0,0,0-1.28-.59,1.78,1.78,0,0,0-1,.31,2.14,2.14,0,0,0-.75.93,3.7,3.7,0,0,0-.28,1.55V11a3.49,3.49,0,0,0,.76,2.38,2.54,2.54,0,0,0,2,.87A2.63,2.63,0,0,0,198,14a3.37,3.37,0,0,0,1.06-.86l.52.49a3.73,3.73,0,0,1-1.42,1.58A3.78,3.78,0,0,1,196.21,15.74Z" transform="translate(-0.81 -2.08)"/><path class="cls-1" d="M207.66,15.74a3,3,0,0,1-1.43-.34,2.58,2.58,0,0,1-.94-.84,1.83,1.83,0,0,1-.33-1,1.52,1.52,0,0,1,.42-1.1,3.22,3.22,0,0,1,1.38-.74l3-1V9.86a1.4,1.4,0,0,0-.28-.85,1.92,1.92,0,0,0-.74-.6,2.2,2.2,0,0,0-1-.24.76.76,0,0,0-.6.19,1.39,1.39,0,0,0-.19.72l-.06.93a2.08,2.08,0,0,1-1.3,0,.75.75,0,0,1-.53-.74,1,1,0,0,1,.31-.68,4.37,4.37,0,0,1,.82-.66,7.37,7.37,0,0,1,1.05-.53,4.9,4.9,0,0,1,1.06-.3,3.68,3.68,0,0,1,2.43.76,2.58,2.58,0,0,1,.92,2l0,3.07q0,.4,0,.75a2.37,2.37,0,0,0,.09.51l1.26.23v.68l-1.05.4a5,5,0,0,1-.54.19,2.08,2.08,0,0,1-.44.07A.9.9,0,0,1,210,15l-.25-.81.33,0a5.67,5.67,0,0,1-1.22,1.09A2.27,2.27,0,0,1,207.66,15.74Zm.68-1.34a1.74,1.74,0,0,0,.74-.17,2.22,2.22,0,0,0,.65-.52v-2l-1.89.47a1.22,1.22,0,0,0-.67.35,1,1,0,0,0-.2.63,1.13,1.13,0,0,0,.4.86A1.37,1.37,0,0,0,208.34,14.4Z" transform="translate(-0.81 -2.08)"/><path class="cls-1" d="M220.08,14.25a2.55,2.55,0,0,1-1,1.09A3,3,0,0,1,215.6,15a2.84,2.84,0,0,1-.8-2.21l.06-4.53h-1.35V7.81l2.72-2.38h.47l0,2.38,0,4.71a2,2,0,0,0,.42,1.38,1.51,1.51,0,0,0,1.18.44,1.92,1.92,0,0,0,.79-.16,2.51,2.51,0,0,0,.67-.44Zm-4.25-6v-1h3.69v1Z" transform="translate(-0.81 -2.08)"/><path class="cls-1" d="M226.81,14.25a2.55,2.55,0,0,1-1,1.09,3,3,0,0,1-3.46-.33,2.84,2.84,0,0,1-.8-2.21l.06-4.53h-1.35V7.81L223,5.43h.47l0,2.38,0,4.71a2,2,0,0,0,.42,1.38,1.52,1.52,0,0,0,1.19.44,1.91,1.91,0,0,0,.78-.16,2.51,2.51,0,0,0,.67-.44Zm-4.25-6v-1h3.69v1Z" transform="translate(-0.81 -2.08)"/><path class="cls-1" d="M231.42,15.74a4.16,4.16,0,0,1-2.09-.53,3.63,3.63,0,0,1-1.46-1.47,4.34,4.34,0,0,1-.53-2.2,4.68,4.68,0,0,1,.58-2.37,4.25,4.25,0,0,1,1.51-1.58,3.7,3.7,0,0,1,2-.54,3.06,3.06,0,0,1,2.44,1,4.06,4.06,0,0,1,.86,2.75v.39h-5.82v-.91h4.37l-.25.33v-.48a2.58,2.58,0,0,0-.47-1.64,1.59,1.59,0,0,0-1.29-.59,1.73,1.73,0,0,0-1,.31,2.15,2.15,0,0,0-.76.93,3.87,3.87,0,0,0-.28,1.55V11A3.49,3.49,0,0,0,230,13.4a2.51,2.51,0,0,0,2,.87,2.66,2.66,0,0,0,1.21-.27,3.46,3.46,0,0,0,1.05-.86l.52.49a3.67,3.67,0,0,1-1.42,1.58A3.77,3.77,0,0,1,231.42,15.74Z" transform="translate(-0.81 -2.08)"/><path class="cls-1" d="M235.94,15.58l-.05-.75,1.2-.31c0-.07,0-.18,0-.34s0-.38,0-.65,0-.61,0-1l0-1.49a11.36,11.36,0,0,0,0-1.19,9.72,9.72,0,0,0-.12-1l-1.24-.27V7.86l2.86-.77.39.33-.1,1,.06,0a4.46,4.46,0,0,1,1.33-1.08,3.18,3.18,0,0,1,1.46-.35,2.71,2.71,0,0,1,1.39.38,2.77,2.77,0,0,1,1,1.13,3.93,3.93,0,0,1,.4,1.88v2.08c0,.46,0,.87,0,1.25a3.1,3.1,0,0,0,.08.75l1.2.31-.06.75h-4.2l0-.75,1.12-.31a3.53,3.53,0,0,0,0-.42q0-.26,0-.63c0-.24,0-.53,0-.85V10.69a2.74,2.74,0,0,0-.27-1.31,1.64,1.64,0,0,0-.69-.71,1.81,1.81,0,0,0-.88-.23,2.34,2.34,0,0,0-1.11.28,2.75,2.75,0,0,0-.88.79v2.88c0,.55,0,1,0,1.39a3.39,3.39,0,0,0,.09.74l1.2.31-.06.75Z" transform="translate(-0.81 -2.08)"/><path class="cls-1" d="M253.66,15.79l-.37-.25,0-1.25-.05,0a3.37,3.37,0,0,1-1.16,1.14,2.58,2.58,0,0,1-1.26.33,3.7,3.7,0,0,1-2-.52,3.74,3.74,0,0,1-1.37-1.42,4.23,4.23,0,0,1-.51-2.11,4.68,4.68,0,0,1,.37-1.91,4.31,4.31,0,0,1,1-1.46,4.43,4.43,0,0,1,3.06-1.25,4.75,4.75,0,0,1,1,.11,2.44,2.44,0,0,1,.85.33V6.64c0-.34,0-.7,0-1.08s0-.71,0-1,0-.51,0-.62l-1.49-.25,0-.72,3.09-.83.41.29c0,.8,0,1.56-.07,2.29s0,1.49,0,2.27l0,4.47c0,.66,0,1.21,0,1.66s.06.77.09,1l1.24.31v.7Zm-2.2-1.5a2,2,0,0,0,.93-.24,2.65,2.65,0,0,0,.88-.79V9.06a1.88,1.88,0,0,0-.83-.8,2.24,2.24,0,0,0-1-.24,2.12,2.12,0,0,0-1.78.85,3.59,3.59,0,0,0-.66,2.26,3.41,3.41,0,0,0,.71,2.32A2.17,2.17,0,0,0,251.46,14.29Z" transform="translate(-0.81 -2.08)"/><path class="cls-1" d="M257.26,15.58l-.06-.77,1.3-.29s0-.15,0-.3,0-.36,0-.64,0-.64,0-1.07V11.13c0-.46,0-.89,0-1.28a9.49,9.49,0,0,0-.12-1l-1.3-.27V7.86l3-.77.37.31c0,.4-.07.8-.09,1.19s0,.85,0,1.36v2.44c0,.54,0,1,0,1.39a4.68,4.68,0,0,0,.07.74l1.3.29,0,.77ZM259.52,5.1a1.3,1.3,0,0,1-.95-.38,1.19,1.19,0,0,1-.38-.9,1.19,1.19,0,0,1,.38-.9,1.3,1.3,0,0,1,.95-.38,1.26,1.26,0,0,1,1.3,1.28,1.26,1.26,0,0,1-1.3,1.28Z" transform="translate(-0.81 -2.08)"/><path class="cls-1" d="M262.68,15.58l-.06-.75,1.2-.31c0-.07,0-.18,0-.34s0-.38,0-.65,0-.61,0-1l0-1.49c0-.42,0-.81,0-1.19s-.08-.71-.13-1l-1.24-.27V7.86l2.86-.77.39.33-.1,1,.06,0a4.46,4.46,0,0,1,1.33-1.08,3.21,3.21,0,0,1,1.46-.35,2.66,2.66,0,0,1,2.42,1.51,3.93,3.93,0,0,1,.4,1.88v2.08c0,.46,0,.87,0,1.25a3.1,3.1,0,0,0,.08.75l1.2.31-.06.75h-4.2l0-.75,1.13-.31c0-.11,0-.24,0-.42a5.53,5.53,0,0,0,0-.63c0-.24,0-.53,0-.85V10.69a2.74,2.74,0,0,0-.27-1.31,1.67,1.67,0,0,0-.68-.71,1.83,1.83,0,0,0-.88-.23,2.38,2.38,0,0,0-1.12.28,2.75,2.75,0,0,0-.88.79v2.88c0,.55,0,1,0,1.39a3.39,3.39,0,0,0,.09.74l1.2.31-.06.75Z" transform="translate(-0.81 -2.08)"/><path class="cls-1" d="M277.53,20a6.17,6.17,0,0,1-2.93-.58,1.74,1.74,0,0,1-1.07-1.55,1.66,1.66,0,0,1,.57-1.21,6.17,6.17,0,0,1,1.73-1l.77.14a2.9,2.9,0,0,0-.91.82,1.72,1.72,0,0,0-.33,1A1.31,1.31,0,0,0,276,18.7a3,3,0,0,0,1.68.4,3.4,3.4,0,0,0,2-.51,1.55,1.55,0,0,0,.76-1.31,1,1,0,0,0-.45-.9,3.18,3.18,0,0,0-1.47-.37l-2.17-.18-.25-.09a2.2,2.2,0,0,1-1.3-.37,1.14,1.14,0,0,1-.52-.95,1.48,1.48,0,0,1,.55-1.05,4.31,4.31,0,0,1,1.47-.88l.27.36a2.65,2.65,0,0,0-.48.41.6.6,0,0,0-.16.39.51.51,0,0,0,.21.41,1.18,1.18,0,0,0,.6.21l2.63.27a3.87,3.87,0,0,1,2.08.7,1.93,1.93,0,0,1,.71,1.58,2.46,2.46,0,0,1-.6,1.61,4,4,0,0,1-1.63,1.15A6.23,6.23,0,0,1,277.53,20Zm.14-6.77a4.37,4.37,0,0,1-1.89-.38,3.12,3.12,0,0,1-1.29-1,2.67,2.67,0,0,1-.46-1.52,2.91,2.91,0,0,1,.48-1.65,3.36,3.36,0,0,1,1.32-1.15,3.92,3.92,0,0,1,1.86-.43,4,4,0,0,1,1.82.41,3.2,3.2,0,0,1,1.27,1.11,2.82,2.82,0,0,1,.47,1.58,2.79,2.79,0,0,1-.47,1.57,3.07,3.07,0,0,1-1.28,1.1A4,4,0,0,1,277.67,13.22Zm.11-.89a1.38,1.38,0,0,0,1.16-.56,2.4,2.4,0,0,0,.43-1.51,2.83,2.83,0,0,0-.47-1.7,1.49,1.49,0,0,0-2.42,0,2.52,2.52,0,0,0-.46,1.59,2.48,2.48,0,0,0,.49,1.6A1.51,1.51,0,0,0,277.78,12.33Zm4.61-3.75L280,8.39l-.74-.82,3.16-.33Z" transform="translate(-0.81 -2.08)"/><path class="cls-1" d="M284.78,11.79a4.7,4.7,0,0,1-.4-.94,3.08,3.08,0,0,1-.12-.86,1.92,1.92,0,0,1,.33-1.09,4.94,4.94,0,0,1,.8-.92l.95-.84a5.09,5.09,0,0,0,.81-.88,1.79,1.79,0,0,0,.32-1,1.39,1.39,0,0,0-.41-1,1.57,1.57,0,0,0-1.13-.41A2.37,2.37,0,0,0,285,4a2.34,2.34,0,0,1-.86.16,1.25,1.25,0,0,1-.92-.31.93.93,0,0,1-.32-.7.92.92,0,0,1,.38-.74,1.86,1.86,0,0,1,1.15-.3,5.06,5.06,0,0,1,1.77.3,4.39,4.39,0,0,1,1.41.85,3.88,3.88,0,0,1,.93,1.3,4.15,4.15,0,0,1,.32,1.65,2.5,2.5,0,0,1-.34,1.33,3.73,3.73,0,0,1-.82.94c-.33.27-.65.52-1,.75a4.32,4.32,0,0,0-.83.74,1.43,1.43,0,0,0-.34,1,3.22,3.22,0,0,0,0,.43c0,.14,0,.29.06.46Zm.45,4a1.43,1.43,0,0,1-.71-.17,1.31,1.31,0,0,1-.5-.49,1.39,1.39,0,0,1-.18-.69,1.3,1.3,0,0,1,.68-1.19,1.53,1.53,0,0,1,1.73.2,1.41,1.41,0,0,1,0,2A1.41,1.41,0,0,1,285.23,15.77Z" transform="translate(-0.81 -2.08)"/></g></g></svg>