<svg xmlns="http://www.w3.org/2000/svg" viewBox="0 0 136.07 40.19"><defs><style>.cls-1{fill:#f2f3eb;stroke:#f2f3eb;stroke-miterlimit:10;}.cls-2{fill:#b69991;}</style></defs><g id="Layer_2" data-name="Layer 2"><g id="Layer_1-2" data-name="Layer 1"><rect class="cls-1" x="0.5" y="0.5" width="135.07" height="39.19" rx="11.67"/><path class="cls-2" d="M16.54,24.41a6.59,6.59,0,0,1-2.71-.54,4.45,4.45,0,0,1-1.93-1.66,4.89,4.89,0,0,1-.73-2.76,5.18,5.18,0,0,1,.36-1.91,5,5,0,0,1,1.05-1.63,4.85,4.85,0,0,1,1.7-1.12,6,6,0,0,1,2.32-.42,8.56,8.56,0,0,1,1.45.13,5.48,5.48,0,0,1,1.36.37L19.52,17l-.64.09-.49-1.46a1.76,1.76,0,0,0-.86-.36,5.79,5.79,0,0,0-1.06-.11,3.9,3.9,0,0,0-2.21.57A3.29,3.29,0,0,0,13,17.2a5.66,5.66,0,0,0,.15,4.43,3.7,3.7,0,0,0,1.43,1.5,4.06,4.06,0,0,0,2,.5,4.62,4.62,0,0,0,1.17-.16A3.32,3.32,0,0,0,19,22.94l-.42.94V22.14c0-.39,0-.72,0-1a6.41,6.41,0,0,0-.05-.65l-1.11-.17,0-.59h3l0,.56-.71.18v1.15c0,.44,0,.8,0,1.08l0,.81a5.39,5.39,0,0,1-1.53.67A6.47,6.47,0,0,1,16.54,24.41Z"/><path class="cls-2" d="M21.55,24.26l0-.56,1.08-.23a5,5,0,0,0,0-.53c0-.24,0-.56,0-1s0-1,0-1.65V18.22c0-.42,0-.86,0-1.32s0-.89,0-1.3,0-.76,0-1,0-.46,0-.52l-1.23-.17,0-.46,2.16-.65.26.22,0,1.41c0,.46,0,1,0,1.55s0,1.25,0,2l0,2.74q0,.93,0,1.71c0,.52,0,.86.05,1l1.08.23,0,.56Z"/><path class="cls-2" d="M28.65,24.4a2.59,2.59,0,0,1-1.12-.25,2.25,2.25,0,0,1-.8-.65,1.39,1.39,0,0,1-.3-.86,1.17,1.17,0,0,1,.37-.89A3.12,3.12,0,0,1,28,21.11l2.5-.88v-.91a1.27,1.27,0,0,0-.25-.78,1.71,1.71,0,0,0-.69-.55,2.38,2.38,0,0,0-1-.2A.81.81,0,0,0,28,18a1.37,1.37,0,0,0-.19.75l0,.6a1.39,1.39,0,0,1-.91,0,.54.54,0,0,1-.39-.54.85.85,0,0,1,.23-.53,2.86,2.86,0,0,1,.6-.51,4.16,4.16,0,0,1,.81-.43A4.59,4.59,0,0,1,29,17a2.69,2.69,0,0,1,1.86.63,2.15,2.15,0,0,1,.73,1.66l0,2.93c0,.17,0,.37,0,.58a2.18,2.18,0,0,0,.08.46l1.05.2V24l-.75.27-.39.13a1.35,1.35,0,0,1-.29,0c-.32,0-.52-.18-.6-.55l-.15-.63.22,0a4.65,4.65,0,0,1-1.06.91A2.1,2.1,0,0,1,28.65,24.4Zm.35-.83a1.68,1.68,0,0,0,.79-.2,2.39,2.39,0,0,0,.72-.62V21l-2.07.58a1,1,0,0,0-.57.32.89.89,0,0,0-.18.58,1,1,0,0,0,.4.76A1.37,1.37,0,0,0,29,23.57Z"/><path class="cls-2" d="M39.51,24.43l-.18-.2,0-1.09H39.3a3.67,3.67,0,0,1-1.06,1,2.3,2.3,0,0,1-1.12.28,3.29,3.29,0,0,1-1.7-.44,3.14,3.14,0,0,1-1.16-1.21A3.65,3.65,0,0,1,33.83,21a4.27,4.27,0,0,1,.29-1.58,3.72,3.72,0,0,1,1.93-2.06A3.15,3.15,0,0,1,37.4,17a4.12,4.12,0,0,1,1,.13,2.24,2.24,0,0,1,.89.43c0-.2,0-.47,0-.81s0-.7,0-1.07,0-.7,0-1,0-.48,0-.57L38,13.91l0-.5,2.23-.65.27.22c0,.68,0,1.35,0,2v2l0,3.82c0,.57,0,1.06,0,1.47s.05.71.06.87l1,.27V24Zm-2.09-1a2.16,2.16,0,0,0,1-.23,3.06,3.06,0,0,0,.92-.8V18.87a2.11,2.11,0,0,0-.87-.9,2.4,2.4,0,0,0-1.06-.26,2.07,2.07,0,0,0-1.73.8,3.27,3.27,0,0,0-.62,2.07,3,3,0,0,0,.69,2.09A2.23,2.23,0,0,0,37.42,23.42Z"/><path class="cls-2" d="M42.53,24.26l0-.56,1.08-.23a3.26,3.26,0,0,0,0-.53c0-.24,0-.56,0-1s0-1,0-1.65V18.22c0-.42,0-.86,0-1.32s0-.89,0-1.3,0-.76,0-1V14l-1.23-.17,0-.46,2.16-.65.27.22c0,.47,0,.94,0,1.41s0,1,0,1.55,0,1.25,0,2v2.74q0,.93,0,1.71c0,.52,0,.86,0,1l1.08.23,0,.56Z"/><path class="cls-2" d="M50,24.33,47.07,18l-.78-.24.05-.54h2.93l0,.54-1,.24,2.37,5.33Zm4.14-7.15,0,.54-.78.24-2.79,6-1.35,2.76a2.84,2.84,0,0,1-.73,1,1.38,1.38,0,0,1-.91.31,1.08,1.08,0,0,1-.62-.17.57.57,0,0,1-.24-.48.64.64,0,0,1,.17-.41,1.18,1.18,0,0,1,.54-.32l1.43-.43-.67.85L50,23.58l.18-.28L52.43,18l-1-.24,0-.54Z"/><path class="cls-2" d="M57.33,24.26l0-.58.82-.21,3.42-8.72.84-.53,3.56,9.25.83.21-.05.58H63.65l0-.58,1-.21-1-2.56-.18-.5-1.86-4.66.35-.32-1.83,5-.18.5L59,23.47l1,.21,0,.58Zm2.24-3.13v-.82l.89,0h2.83l.89,0v.82L63,21.1h-2.1Z"/><path class="cls-2" d="M72.23,23.34a2.38,2.38,0,0,1-.84.77,2.3,2.3,0,0,1-1.07.27,2.21,2.21,0,0,1-1.59-.6A2.35,2.35,0,0,1,68.1,22l.05-4H67v-.3l2-1.88h.25l0,1.79v4.14a2,2,0,0,0,.39,1.36,1.35,1.35,0,0,0,1.08.45,1.64,1.64,0,0,0,.74-.16,2.14,2.14,0,0,0,.61-.42ZM68.68,18v-.77h3V18Z"/><path class="cls-2" d="M77.73,23.34a2.41,2.41,0,0,1-.85.77,2.26,2.26,0,0,1-1.06.27,2.21,2.21,0,0,1-1.59-.6A2.35,2.35,0,0,1,73.6,22l0-4H72.48v-.3l2-1.88h.25l0,1.79,0,4.14A2,2,0,0,0,75,23.07a1.36,1.36,0,0,0,1.09.45,1.7,1.7,0,0,0,.74-.16,2.09,2.09,0,0,0,.6-.42ZM74.18,18v-.77h3V18Z"/><path class="cls-2" d="M81.58,24.4A3.38,3.38,0,0,1,79.9,24a3,3,0,0,1-1.21-1.21,3.83,3.83,0,0,1-.45-1.91,4.22,4.22,0,0,1,.47-2.05,3.41,3.41,0,0,1,1.23-1.32A3,3,0,0,1,81.58,17a2.49,2.49,0,0,1,1.94.83,3.56,3.56,0,0,1,.72,2.41v.28H79.07v-.69h4.24l-.17.16v-.3a2.27,2.27,0,0,0-.46-1.53,1.52,1.52,0,0,0-1.23-.54,1.74,1.74,0,0,0-1,.29,2.07,2.07,0,0,0-.74.87,3.45,3.45,0,0,0-.28,1.46v.17a3.24,3.24,0,0,0,.68,2.19,2.23,2.23,0,0,0,1.75.78A2.43,2.43,0,0,0,83,23.19a2.72,2.72,0,0,0,.89-.77l.4.35A3.25,3.25,0,0,1,83.11,24,3.06,3.06,0,0,1,81.58,24.4Z"/><path class="cls-2" d="M85.47,24.26l0-.54,1-.25q0-.13,0-.33c0-.12,0-.3,0-.54s0-.54,0-.93l0-1.29c0-.38,0-.76,0-1.15s-.06-.68-.08-.86l-1.06-.23v-.5l2-.56.24.25-.09.86,0,0a4.18,4.18,0,0,1,1.17-.9A2.63,2.63,0,0,1,89.93,17a2.3,2.3,0,0,1,1.11.29,2.24,2.24,0,0,1,.88.92,3.16,3.16,0,0,1,.35,1.6v1.87c0,.41,0,.78,0,1.1s0,.54.06.65l1,.25,0,.54H90.26l0-.54,1-.25c0-.09,0-.19,0-.31s0-.28,0-.48,0-.47,0-.81V20A2.36,2.36,0,0,0,91,18.74a1.62,1.62,0,0,0-.69-.64,1.83,1.83,0,0,0-.79-.19,2,2,0,0,0-1.08.29,2.72,2.72,0,0,0-.86.8v2.53c0,.54,0,1,0,1.27s0,.54,0,.67l1,.25,0,.54Z"/><path class="cls-2" d="M100.22,24.43l-.18-.2,0-1.09h0a3.67,3.67,0,0,1-1.06,1,2.27,2.27,0,0,1-1.12.28,3.29,3.29,0,0,1-1.7-.44A3.14,3.14,0,0,1,95,22.73,3.65,3.65,0,0,1,94.55,21a4.27,4.27,0,0,1,.28-1.58,3.65,3.65,0,0,1,.79-1.25,3.6,3.6,0,0,1,1.14-.81A3.17,3.17,0,0,1,98.12,17a4.1,4.1,0,0,1,1,.13,2.24,2.24,0,0,1,.89.43c0-.2,0-.47,0-.81s0-.7,0-1.07,0-.7,0-1,0-.48,0-.57l-1.31-.24,0-.5,2.22-.65.27.22c0,.68,0,1.35,0,2s0,1.35,0,2l0,3.82c0,.57,0,1.06,0,1.47s0,.71.06.87l1,.27V24Zm-2.09-1a2.13,2.13,0,0,0,1-.23,3.06,3.06,0,0,0,.92-.8V18.87a2.11,2.11,0,0,0-.87-.9,2.39,2.39,0,0,0-1-.26,2.09,2.09,0,0,0-1.74.8,3.33,3.33,0,0,0-.62,2.07,2.92,2.92,0,0,0,.7,2.09A2.19,2.19,0,0,0,98.13,23.42Z"/><path class="cls-2" d="M117.57,11.05a8,8,0,1,1-8,8.22A7.93,7.93,0,0,1,117.57,11.05Zm7,8a7,7,0,1,0-7,7A6.95,6.95,0,0,0,124.53,19Z"/><path class="cls-2" d="M112.61,19.3a.77.77,0,0,1,.48-.73.81.81,0,0,1,.91.21c.6.6,1.22,1.21,1.82,1.82.14.16.23.14.37,0l4.59-4.6.4-.39a.79.79,0,0,1,1.14,0,.77.77,0,0,1,0,1.12l-4.86,4.86c-.28.28-.56.57-.84.84a.78.78,0,0,1-1.17,0c-.85-.84-1.7-1.68-2.54-2.53A.74.74,0,0,1,112.61,19.3Z"/></g></g></svg>