<svg xmlns="http://www.w3.org/2000/svg" viewBox="0 0 204.37 28.11"><defs><style>.cls-1{fill:#f2f3eb;}</style></defs><g id="Layer_2" data-name="Layer 2"><g id="Layer_1-2" data-name="Layer 1"><path class="cls-1" d="M4.87,3a.33.33,0,0,1,0,.3.59.59,0,0,1-.34.23,3.27,3.27,0,0,1-.71.15A7.57,7.57,0,0,0,3,3.76c.17.17.37.35.58.53a2.55,2.55,0,0,1,.53.57.66.66,0,0,1,.15.37.37.37,0,0,1-.17.29.3.3,0,0,1-.29.06.57.57,0,0,1-.31-.24,2.8,2.8,0,0,1-.42-.74,5,5,0,0,0-.36-.73,6.48,6.48,0,0,0-.34.73A4,4,0,0,1,2,5.34a.55.55,0,0,1-.31.23.38.38,0,0,1-.31-.05.34.34,0,0,1-.15-.27.67.67,0,0,1,.14-.39,2.81,2.81,0,0,1,.53-.57c.21-.18.41-.36.58-.53-.22,0-.47-.07-.75-.1A3.4,3.4,0,0,1,1,3.52.61.61,0,0,1,.63,3.3.32.32,0,0,1,.59,3a.4.4,0,0,1,.23-.23.46.46,0,0,1,.38,0,3.5,3.5,0,0,1,.69.32,5.81,5.81,0,0,0,.68.37,5.16,5.16,0,0,0-.13-.77,3.43,3.43,0,0,1-.1-.8.56.56,0,0,1,.11-.38.32.32,0,0,1,.27-.13A.33.33,0,0,1,3,1.52a.61.61,0,0,1,.11.38A4,4,0,0,1,3,2.7c-.06.29-.1.54-.13.77a6.66,6.66,0,0,0,.67-.37,3.5,3.5,0,0,1,.69-.32.62.62,0,0,1,.4,0A.32.32,0,0,1,4.87,3Z" transform="translate(-0.35 -0.99)"/><path class="cls-1" d="M5.54,1A8.13,8.13,0,0,1,7.71,3.78a8.06,8.06,0,0,1,.72,3.39,8,8,0,0,1-.72,3.38,8.35,8.35,0,0,1-2.17,2.8L5.2,13a7.17,7.17,0,0,0,1.67-2.61,9.12,9.12,0,0,0,.57-3.26,9.12,9.12,0,0,0-.57-3.26A7.17,7.17,0,0,0,5.2,1.3Z" transform="translate(-0.35 -0.99)"/><path class="cls-1" d="M17.06,10.51a5.11,5.11,0,0,1-2.1-.42,3.49,3.49,0,0,1-1.5-1.29,3.82,3.82,0,0,1-.56-2.15,4.13,4.13,0,0,1,.27-1.48A3.9,3.9,0,0,1,14,3.9,3.75,3.75,0,0,1,15.31,3a4.64,4.64,0,0,1,1.81-.33,7.86,7.86,0,0,1,1.12.1,4.78,4.78,0,0,1,1.06.29l.09,1.65-.51.07-.37-1.14a1.54,1.54,0,0,0-.67-.28A5,5,0,0,0,17,3.31a3,3,0,0,0-1.71.44,2.53,2.53,0,0,0-1,1.16A3.92,3.92,0,0,0,14,6.45a3.88,3.88,0,0,0,.42,1.89,2.73,2.73,0,0,0,1.11,1.17,3.07,3.07,0,0,0,1.58.4,3.91,3.91,0,0,0,.91-.13A2.8,2.8,0,0,0,19,9.37l-.32.73V8.75c0-.31,0-.57,0-.79a4.58,4.58,0,0,0,0-.51l-.86-.12,0-.47h2.31l0,.44-.55.14v.89c0,.35,0,.63,0,.84s0,.43,0,.63a4.19,4.19,0,0,1-1.19.52A4.88,4.88,0,0,1,17.06,10.51Z" transform="translate(-0.35 -0.99)"/><path class="cls-1" d="M26.24,9.57l.82.21v.39l-1.54.36-.14-.16V9.58h0a2.42,2.42,0,0,1-.77.72,1.78,1.78,0,0,1-.83.2A2,2,0,0,1,22.32,10a2,2,0,0,1-.58-1.56V7.29c0-.26,0-.51,0-.76s0-.48,0-.71l-.88-.19V5.25l1.61-.44.18.19c0,.27,0,.54,0,.83s0,.58,0,.9l0,1.5a1.54,1.54,0,0,0,.4,1.2,1.48,1.48,0,0,0,1,.35,1.69,1.69,0,0,0,.75-.2,1.62,1.62,0,0,0,.68-.65V6.8c0-.19,0-.37,0-.55a4.23,4.23,0,0,0,0-.43l-.94-.19V5.25L26,4.81l.16.17c0,.25,0,.48,0,.66s0,.37,0,.54V7.66c0,.55,0,1,0,1.27S26.23,9.44,26.24,9.57Z" transform="translate(-0.35 -0.99)"/><path class="cls-1" d="M30.59,10.5a2.73,2.73,0,0,1-1.31-.32,2.4,2.4,0,0,1-.93-.94A2.93,2.93,0,0,1,28,7.75a3.28,3.28,0,0,1,.36-1.59,2.64,2.64,0,0,1,.95-1,2.36,2.36,0,0,1,1.28-.35,2,2,0,0,1,1.51.65,2.75,2.75,0,0,1,.56,1.87v.22h-4V7h3.29l-.12.13V6.87a1.78,1.78,0,0,0-.36-1.19,1.2,1.2,0,0,0-1-.42,1.34,1.34,0,0,0-.74.23,1.6,1.6,0,0,0-.58.67A2.69,2.69,0,0,0,29,7.3v.13a2.51,2.51,0,0,0,.53,1.7,1.71,1.71,0,0,0,1.36.61,1.8,1.8,0,0,0,.82-.18,2.12,2.12,0,0,0,.7-.6l.31.28a2.49,2.49,0,0,1-.89.95A2.27,2.27,0,0,1,30.59,10.5Z" transform="translate(-0.35 -0.99)"/><path class="cls-1" d="M35.7,10.5a4.13,4.13,0,0,1-.92-.11A3.17,3.17,0,0,1,34,10.1l-.07-1.34h.58l.25.93a1.69,1.69,0,0,0,1,.32,1.19,1.19,0,0,0,.74-.23.72.72,0,0,0,.3-.61.85.85,0,0,0-.26-.62,3.49,3.49,0,0,0-1-.57,4.75,4.75,0,0,1-1.27-.76A1.23,1.23,0,0,1,34,6.29a1.29,1.29,0,0,1,.26-.79A1.72,1.72,0,0,1,34.94,5,2.76,2.76,0,0,1,36,4.78a5.65,5.65,0,0,1,.71,0,2.68,2.68,0,0,1,.61.16l.14,1.3h-.54l-.32-.86a1.25,1.25,0,0,0-.31-.12,1.68,1.68,0,0,0-.4,0,1.17,1.17,0,0,0-.75.22.71.71,0,0,0-.29.58.81.81,0,0,0,.3.65,5.74,5.74,0,0,0,1.05.62,3.86,3.86,0,0,1,1.18.76,1.25,1.25,0,0,1,.34.89,1.32,1.32,0,0,1-.57,1.09A2.36,2.36,0,0,1,35.7,10.5Z" transform="translate(-0.35 -0.99)"/><path class="cls-1" d="M42.66,9.67a1.73,1.73,0,0,1-.66.6,1.63,1.63,0,0,1-.82.22A1.72,1.72,0,0,1,39.94,10a1.81,1.81,0,0,1-.49-1.39l0-3.14h-.91V5.26L40.11,3.8h.19l0,1.4V8.41a1.6,1.6,0,0,0,.3,1.06,1.09,1.09,0,0,0,.85.35A1.2,1.2,0,0,0,42,9.69a1.56,1.56,0,0,0,.47-.32ZM39.9,5.49V4.9h2.36v.59Z" transform="translate(-0.35 -0.99)"/><path class="cls-1" d="M48.2,10.5a2.68,2.68,0,0,1-1.29-.32A2.45,2.45,0,0,1,46,9.24a3,3,0,0,1-.36-1.5A3.06,3.06,0,0,1,46,6.22a2.85,2.85,0,0,1,1-1,2.72,2.72,0,0,1,1.43-.39,2.78,2.78,0,0,1,.94.14,1.34,1.34,0,0,1,.55.35.68.68,0,0,1,.19.45A.48.48,0,0,1,50,6a.42.42,0,0,1-.33.12.69.69,0,0,1-.34-.07A2.53,2.53,0,0,1,49,5.78l-.58-.62.4.13a1.72,1.72,0,0,0-1,.09,1.87,1.87,0,0,0-.85.76,2.74,2.74,0,0,0-.33,1.42,2.25,2.25,0,0,0,.54,1.61,1.78,1.78,0,0,0,1.34.57,2,2,0,0,0,.89-.18A2.37,2.37,0,0,0,50,9l.32.27a2.53,2.53,0,0,1-.89.94A2.4,2.4,0,0,1,48.2,10.5Z" transform="translate(-0.35 -0.99)"/><path class="cls-1" d="M53,10.5a2,2,0,0,1-.87-.19,1.65,1.65,0,0,1-.62-.51,1.06,1.06,0,0,1-.24-.67.94.94,0,0,1,.29-.69A2.46,2.46,0,0,1,52.47,8l2-.69V6.55a1.06,1.06,0,0,0-.2-.61,1.27,1.27,0,0,0-.54-.42,1.81,1.81,0,0,0-.76-.16.63.63,0,0,0-.47.14,1.12,1.12,0,0,0-.15.59l0,.46a1.13,1.13,0,0,1-.71,0,.43.43,0,0,1-.3-.42.66.66,0,0,1,.17-.41,2.4,2.4,0,0,1,.47-.4A3.13,3.13,0,0,1,52.54,5a3.38,3.38,0,0,1,.71-.19,2.13,2.13,0,0,1,1.44.49,1.69,1.69,0,0,1,.57,1.29l0,2.28c0,.13,0,.29,0,.45a2.59,2.59,0,0,0,.06.36l.81.15v.35l-.58.21-.3.1a.74.74,0,0,1-.23,0c-.25,0-.4-.14-.46-.42l-.12-.5h.17a3.33,3.33,0,0,1-.82.7A1.51,1.51,0,0,1,53,10.5Zm.28-.64a1.32,1.32,0,0,0,.61-.16,1.87,1.87,0,0,0,.56-.48V7.84l-1.61.45a.81.81,0,0,0-.45.25.73.73,0,0,0-.13.45.76.76,0,0,0,.31.59A1,1,0,0,0,53.25,9.86Z" transform="translate(-0.35 -0.99)"/><path class="cls-1" d="M56.91,10.4l0-.43.8-.19c0-.07,0-.15,0-.25s0-.24,0-.42V8.38l0-1c0-.3,0-.59,0-.9s-.05-.53-.06-.66l-.83-.19V5.25l1.58-.44.18.19-.07.67,0,0a3.45,3.45,0,0,1,.9-.7,2.11,2.11,0,0,1,.93-.21,1.83,1.83,0,0,1,.87.23,1.8,1.8,0,0,1,.68.71A2.53,2.53,0,0,1,62.2,7V8.42c0,.32,0,.61,0,.85s0,.42.05.51l.8.19,0,.43H60.64l0-.43.74-.19q0-.1,0-.24a3.41,3.41,0,0,0,0-.37c0-.16,0-.37,0-.63V7.05a1.83,1.83,0,0,0-.22-1,1.35,1.35,0,0,0-.54-.5,1.4,1.4,0,0,0-.61-.15,1.66,1.66,0,0,0-.84.23,2.11,2.11,0,0,0-.67.63v2c0,.42,0,.75,0,1s0,.41,0,.52l.8.19,0,.43Z" transform="translate(-0.35 -0.99)"/><path class="cls-1" d="M69.17,10.5a2.8,2.8,0,0,1-1.44-.36,2.48,2.48,0,0,1-.94-1,3.19,3.19,0,0,1-.34-1.5,2.92,2.92,0,0,1,.37-1.49,2.67,2.67,0,0,1,1-1,2.77,2.77,0,0,1,1.39-.36,2.63,2.63,0,0,1,1.37.35,2.28,2.28,0,0,1,.9,1,3.17,3.17,0,0,1,.33,1.48,3.06,3.06,0,0,1-.35,1.46,2.83,2.83,0,0,1-.95,1A2.41,2.41,0,0,1,69.17,10.5ZM69.3,10a1.28,1.28,0,0,0,.82-.29,1.89,1.89,0,0,0,.55-.77,3,3,0,0,0,.2-1.11A3.09,3.09,0,0,0,70.38,6,1.49,1.49,0,0,0,69.1,5.3a1.47,1.47,0,0,0-1.22.6,2.52,2.52,0,0,0-.46,1.59,3.23,3.23,0,0,0,.24,1.29,2.21,2.21,0,0,0,.67.87A1.6,1.6,0,0,0,69.3,10Z" transform="translate(-0.35 -0.99)"/><path class="cls-1" d="M72.81,10.4l0-.43.8-.19c0-.07,0-.15,0-.25s0-.24,0-.42,0-.42,0-.73v-1c0-.3,0-.59,0-.9s0-.53-.06-.66l-.83-.19V5.25l1.58-.44.18.19-.07.67,0,0a3.32,3.32,0,0,1,.91-.7,2.05,2.05,0,0,1,.93-.21,1.76,1.76,0,0,1,.86.23,1.82,1.82,0,0,1,.69.71A2.53,2.53,0,0,1,78.11,7V8.42c0,.32,0,.61,0,.85s0,.42.05.51L79,10l0,.43H76.54l0-.43.75-.19c0-.07,0-.15,0-.24a3.41,3.41,0,0,0,0-.37c0-.16,0-.37,0-.63V7.05a1.74,1.74,0,0,0-.22-1,1.35,1.35,0,0,0-.54-.5A1.4,1.4,0,0,0,76,5.45a1.66,1.66,0,0,0-.84.23,2.11,2.11,0,0,0-.67.63v2c0,.42,0,.75,0,1s0,.41,0,.52l.8.19,0,.43Z" transform="translate(-0.35 -0.99)"/><path class="cls-1" d="M79.75,10.4l0-.44.84-.18a2.15,2.15,0,0,0,0-.41c0-.19,0-.44,0-.77s0-.76,0-1.29V5.7c0-.33,0-.67,0-1s0-.69,0-1,0-.59,0-.81,0-.35,0-.4l-.95-.13,0-.36,1.68-.51.21.17,0,1.1c0,.36,0,.76,0,1.2s0,1,0,1.6V7.65c0,.48,0,.92,0,1.33s0,.67,0,.8l.83.18,0,.44Z" transform="translate(-0.35 -0.99)"/><path class="cls-1" d="M85.52,10.45l-2.25-5-.61-.18,0-.42H85l0,.42-.8.18,1.85,4.15Zm3.21-5.56,0,.42-.61.18L86,10.15l-1,2.14a2.28,2.28,0,0,1-.57.81,1.11,1.11,0,0,1-.71.24.85.85,0,0,1-.48-.13.44.44,0,0,1-.19-.37.51.51,0,0,1,.13-.33.93.93,0,0,1,.42-.24l1.11-.34-.51.66,1.39-2.72.14-.22,1.76-4.16-.8-.18,0-.42Z" transform="translate(-0.35 -0.99)"/><path class="cls-1" d="M94.33,10.5A2.74,2.74,0,0,1,93,10.18a2.52,2.52,0,0,1-1-.94,3.08,3.08,0,0,1-.35-1.5,3.06,3.06,0,0,1,.37-1.52,2.85,2.85,0,0,1,1-1,2.72,2.72,0,0,1,1.43-.39,2.78,2.78,0,0,1,.94.14,1.28,1.28,0,0,1,.55.35.68.68,0,0,1,.19.45.43.43,0,0,1-.11.32.42.42,0,0,1-.33.12.71.71,0,0,1-.34-.07,2.08,2.08,0,0,1-.35-.31l-.58-.62.4.13a1.74,1.74,0,0,0-1.06.09,1.8,1.8,0,0,0-.84.76,2.64,2.64,0,0,0-.34,1.42,2.25,2.25,0,0,0,.54,1.61,1.8,1.8,0,0,0,1.35.57,1.94,1.94,0,0,0,.88-.18A2.24,2.24,0,0,0,96.14,9l.32.27a2.53,2.53,0,0,1-.89.94A2.38,2.38,0,0,1,94.33,10.5Z" transform="translate(-0.35 -0.99)"/><path class="cls-1" d="M99.75,10.5a2.8,2.8,0,0,1-1.44-.36,2.5,2.5,0,0,1-1-1A3.31,3.31,0,0,1,97,7.63a2.92,2.92,0,0,1,.37-1.49,2.67,2.67,0,0,1,1-1,2.74,2.74,0,0,1,1.39-.36,2.63,2.63,0,0,1,1.37.35,2.28,2.28,0,0,1,.9,1,3.17,3.17,0,0,1,.33,1.48A3.06,3.06,0,0,1,102,9.06a2.83,2.83,0,0,1-1,1A2.41,2.41,0,0,1,99.75,10.5Zm.13-.54a1.24,1.24,0,0,0,.81-.29,1.72,1.72,0,0,0,.55-.77,2.82,2.82,0,0,0,.2-1.11A3.09,3.09,0,0,0,101,6a1.49,1.49,0,0,0-1.28-.69,1.47,1.47,0,0,0-1.22.6A2.52,2.52,0,0,0,98,7.49a3.23,3.23,0,0,0,.24,1.29,2.21,2.21,0,0,0,.67.87A1.6,1.6,0,0,0,99.88,10Z" transform="translate(-0.35 -0.99)"/><path class="cls-1" d="M103.39,10.4l0-.43.8-.19c0-.07,0-.15,0-.25s0-.24,0-.42,0-.42,0-.73v-1c0-.3,0-.59,0-.9s0-.53-.06-.66l-.83-.19V5.25l1.58-.44.18.19-.07.67,0,0a3.32,3.32,0,0,1,.91-.7,2.05,2.05,0,0,1,.93-.21,1.79,1.79,0,0,1,.86.23,1.73,1.73,0,0,1,.68.71A2.42,2.42,0,0,1,108.69,7V8.42c0,.32,0,.61,0,.85s0,.42.05.51l.8.19,0,.43h-2.42l0-.43.75-.19a2.32,2.32,0,0,1,0-.24,3.41,3.41,0,0,0,0-.37c0-.16,0-.37,0-.63V7.05a1.83,1.83,0,0,0-.22-1,1.35,1.35,0,0,0-.54-.5,1.4,1.4,0,0,0-.61-.15,1.66,1.66,0,0,0-.84.23,2.11,2.11,0,0,0-.67.63v2c0,.42,0,.75,0,1s0,.41,0,.52l.8.19,0,.43Z" transform="translate(-0.35 -0.99)"/><path class="cls-1" d="M113.82,10.4l0-.44.86-.18a2.45,2.45,0,0,0,0-.27c0-.09,0-.22,0-.39s0-.42,0-.74V7.31c0-.5,0-.89,0-1.17s0-.5,0-.64h-4.39V5.13l.93-.23h3.88l.48,0c0,.27,0,.53,0,.78s0,.59,0,1V8.27c0,.28,0,.52,0,.72a3,3,0,0,0,0,.48c0,.13,0,.23,0,.31l.86.18,0,.44Zm-3.44,0,0-.43.8-.19c0-.11,0-.24,0-.4s0-.34,0-.59V4.36a3.17,3.17,0,0,1,.4-1.68,2.48,2.48,0,0,1,1-1A3.08,3.08,0,0,1,114,1.39a2.18,2.18,0,0,1,1.25.32.92.92,0,0,1,.47.72.49.49,0,0,1-.13.35.47.47,0,0,1-.38.13.82.82,0,0,1-.35-.08,1.3,1.3,0,0,1-.39-.33l-.73-.76.73.16a2.38,2.38,0,0,0-1.19.09,1.88,1.88,0,0,0-.93.75,2.44,2.44,0,0,0-.36,1.4V8.47c0,.22,0,.44,0,.66l0,.65.86.19,0,.43Z" transform="translate(-0.35 -0.99)"/><path class="cls-1" d="M117.27,10.4l0-.43.8-.19a1.06,1.06,0,0,0,0-.23c0-.12,0-.27,0-.46V7.36c0-.3,0-.6,0-.89s0-.52-.06-.65l-.82-.19V5.25l1.57-.44.16.17-.07,1.09,0,0a2.78,2.78,0,0,1,.8-1,1.35,1.35,0,0,1,.74-.27.75.75,0,0,1,.47.15.48.48,0,0,1,.18.4.47.47,0,0,1-.19.41.8.8,0,0,1-.5.14.87.87,0,0,1-.42-.1,1.64,1.64,0,0,1-.37-.26l.19.09a2.09,2.09,0,0,0-.47.47,3.13,3.13,0,0,0-.43.73V8.07c0,.19,0,.4,0,.62s0,.44,0,.63,0,.35,0,.46l1.12.17,0,.45Z" transform="translate(-0.35 -0.99)"/><path class="cls-1" d="M121.79,10.4l0-.43.8-.19a1.64,1.64,0,0,0,0-.23c0-.09,0-.22,0-.4s0-.44,0-.77v-1a5.61,5.61,0,0,0,0-.58c0-.21,0-.39,0-.57a2.2,2.2,0,0,0,0-.39l-.82-.19V5.25l1.57-.44.18.19-.06.7h0a2.52,2.52,0,0,1,.82-.71,1.84,1.84,0,0,1,.87-.22A1.72,1.72,0,0,1,126,5a1.88,1.88,0,0,1,.71.74A2.62,2.62,0,0,1,127,7.05V8.42c0,.32,0,.6,0,.85s0,.41,0,.51l.79.19,0,.43h-2.36l0-.43.71-.19c0-.07,0-.15,0-.24a3.41,3.41,0,0,0,0-.37c0-.16,0-.37,0-.63V7.05a2.06,2.06,0,0,0-.19-.92,1.15,1.15,0,0,0-.49-.51,1.24,1.24,0,0,0-.63-.17,1.66,1.66,0,0,0-.79.2,1.91,1.91,0,0,0-.67.66v2c0,.42,0,.75,0,1s0,.41,0,.52l.78.19,0,.43Zm7.19,0,0-.43.74-.19c0-.07,0-.15,0-.24s0-.22,0-.37,0-.37,0-.63V7.05a1.82,1.82,0,0,0-.21-.94,1.22,1.22,0,0,0-.51-.5,1.29,1.29,0,0,0-.61-.16,1.63,1.63,0,0,0-.87.24,2.43,2.43,0,0,0-.72.74l-.2-.46a3.1,3.1,0,0,1,1-.91,2.24,2.24,0,0,1,1.06-.28,1.82,1.82,0,0,1,1,.25,1.72,1.72,0,0,1,.69.72,2.47,2.47,0,0,1,.26,1.17v1.5c0,.32,0,.6,0,.85s0,.41,0,.51l.8.19,0,.43Z" transform="translate(-0.35 -0.99)"/><path class="cls-1" d="M136.89,8c0,.43,0,.77,0,1s0,.46,0,.58a2.11,2.11,0,0,0,0,.24l1,.17,0,.43H135l0-.43,1-.17a1.91,1.91,0,0,0,0-.32c0-.16,0-.37,0-.63s0-.56,0-.9V5.17c0-.21,0-.43,0-.66s0-.44,0-.66L135,4.1l0-.49,2-.91c0,.23,0,.51,0,.86s0,.81,0,1.4Z" transform="translate(-0.35 -0.99)"/><path class="cls-1" d="M141.42,10.4l0-.43.8-.19a1.69,1.69,0,0,0,0-.25c0-.1,0-.24,0-.42V8.38l0-1c0-.3,0-.59,0-.9s0-.53-.05-.66l-.83-.19V5.25l1.57-.44.18.19-.06.67,0,0A3.45,3.45,0,0,1,144,5a2.11,2.11,0,0,1,.93-.21,1.83,1.83,0,0,1,.87.23,1.8,1.8,0,0,1,.68.71A2.53,2.53,0,0,1,146.71,7V8.42c0,.32,0,.61,0,.85s0,.42,0,.51l.8.19,0,.43h-2.41l0-.43.75-.19,0-.24c0-.09,0-.22,0-.37V7.05a1.83,1.83,0,0,0-.21-1,1.35,1.35,0,0,0-.54-.5,1.44,1.44,0,0,0-.61-.15,1.66,1.66,0,0,0-.84.23,2.11,2.11,0,0,0-.67.63v2c0,.42,0,.75,0,1s0,.41,0,.52l.8.19,0,.43Z" transform="translate(-0.35 -0.99)"/><path class="cls-1" d="M150.51,10.5a1.92,1.92,0,0,1-.87-.19A1.61,1.61,0,0,1,149,9.8a1,1,0,0,1-.23-.67.94.94,0,0,1,.28-.69A2.46,2.46,0,0,1,150,8L152,7.26V6.55a1,1,0,0,0-.2-.61,1.31,1.31,0,0,0-.53-.42,1.88,1.88,0,0,0-.76-.16.65.65,0,0,0-.48.14,1,1,0,0,0-.14.59l0,.46a1.13,1.13,0,0,1-.71,0,.43.43,0,0,1-.3-.42A.63.63,0,0,1,149,5.7a2.07,2.07,0,0,1,.46-.4,3.78,3.78,0,0,1,.63-.33,3.55,3.55,0,0,1,.71-.19,2.13,2.13,0,0,1,1.44.49,1.69,1.69,0,0,1,.57,1.29l0,2.28a3.62,3.62,0,0,0,0,.45,1.79,1.79,0,0,0,.05.36l.82.15v.35l-.58.21-.31.1a.69.69,0,0,1-.22,0,.46.46,0,0,1-.47-.42l-.11-.5h.16a3.16,3.16,0,0,1-.82.7A1.5,1.5,0,0,1,150.51,10.5Zm.27-.64a1.32,1.32,0,0,0,.61-.16,1.87,1.87,0,0,0,.56-.48V7.84l-1.61.45a.81.81,0,0,0-.45.25.73.73,0,0,0-.13.45.76.76,0,0,0,.31.59A1,1,0,0,0,150.78,9.86Z" transform="translate(-0.35 -0.99)"/><path class="cls-1" d="M154.46,10.4l0-.43.8-.19a1.64,1.64,0,0,0,0-.23c0-.09,0-.22,0-.4s0-.44,0-.77v-1a5.61,5.61,0,0,0,0-.58c0-.21,0-.39,0-.57a2.2,2.2,0,0,0-.05-.39l-.82-.19V5.25l1.57-.44.18.19-.06.7h0a2.52,2.52,0,0,1,.82-.71,1.84,1.84,0,0,1,.87-.22,1.72,1.72,0,0,1,.86.24,1.88,1.88,0,0,1,.71.74,2.62,2.62,0,0,1,.29,1.29V8.42c0,.32,0,.6,0,.85s0,.41.05.51l.79.19,0,.43h-2.36l0-.43.71-.19a2.32,2.32,0,0,1,0-.24,3.41,3.41,0,0,0,0-.37c0-.16,0-.37,0-.63V7.05a2.06,2.06,0,0,0-.19-.92,1.15,1.15,0,0,0-.49-.51,1.24,1.24,0,0,0-.63-.17,1.66,1.66,0,0,0-.79.2,1.91,1.91,0,0,0-.67.66v2c0,.42,0,.75,0,1s0,.41,0,.52l.78.19,0,.43Zm7.19,0,0-.43.74-.19a2.32,2.32,0,0,1,0-.24c0-.09,0-.22,0-.37s0-.37,0-.63V7.05a1.82,1.82,0,0,0-.21-.94,1.22,1.22,0,0,0-.51-.5,1.29,1.29,0,0,0-.61-.16,1.63,1.63,0,0,0-.87.24,2.43,2.43,0,0,0-.72.74L159.3,6a3.1,3.1,0,0,1,.95-.91,2.24,2.24,0,0,1,1.06-.28,1.85,1.85,0,0,1,.95.25,1.72,1.72,0,0,1,.69.72,2.47,2.47,0,0,1,.26,1.17v1.5c0,.32,0,.6,0,.85s0,.41,0,.51l.8.19,0,.43Z" transform="translate(-0.35 -0.99)"/><path class="cls-1" d="M167.62,10.5a2.73,2.73,0,0,1-1.31-.32,2.4,2.4,0,0,1-.93-.94A3,3,0,0,1,165,7.75a3.28,3.28,0,0,1,.36-1.59,2.59,2.59,0,0,1,1-1,2.3,2.3,0,0,1,1.27-.35,2,2,0,0,1,1.51.65,2.75,2.75,0,0,1,.56,1.87v.22h-4V7H169l-.13.13V6.87a1.78,1.78,0,0,0-.36-1.19,1.2,1.2,0,0,0-1-.42,1.34,1.34,0,0,0-.74.23,1.6,1.6,0,0,0-.58.67A2.69,2.69,0,0,0,166,7.3v.13a2.51,2.51,0,0,0,.53,1.7,1.72,1.72,0,0,0,1.36.61,1.8,1.8,0,0,0,.82-.18,2,2,0,0,0,.7-.6l.31.28a2.49,2.49,0,0,1-.89.95A2.27,2.27,0,0,1,167.62,10.5Z" transform="translate(-0.35 -0.99)"/><path class="cls-1" d="M177.61,10.53l-.14-.16V9.52h0a2.92,2.92,0,0,1-.82.75,1.82,1.82,0,0,1-.88.22,2.62,2.62,0,0,1-1.32-.34,2.49,2.49,0,0,1-.9-1,2.8,2.8,0,0,1-.33-1.37,3.24,3.24,0,0,1,.22-1.23,2.76,2.76,0,0,1,.61-1,2.89,2.89,0,0,1,.89-.63A2.37,2.37,0,0,1,176,4.77a3.21,3.21,0,0,1,.81.1,1.72,1.72,0,0,1,.69.34V4.58c0-.27,0-.55,0-.84s0-.54,0-.76,0-.37,0-.44l-1-.2,0-.38,1.73-.51.2.17c0,.53,0,1.06,0,1.57s0,1,0,1.59v3q0,.66,0,1.14c0,.33,0,.55,0,.68l.81.21v.39ZM176,9.74a1.65,1.65,0,0,0,.77-.18,2.39,2.39,0,0,0,.71-.62V6.2a1.7,1.7,0,0,0-.68-.7,1.87,1.87,0,0,0-.82-.2,1.61,1.61,0,0,0-1.34.62,2.53,2.53,0,0,0-.49,1.61,2.31,2.31,0,0,0,.54,1.63A1.72,1.72,0,0,0,176,9.74Z" transform="translate(-0.35 -0.99)"/><path class="cls-1" d="M185.24,9.57l.82.21v.39l-1.54.36-.14-.16V9.58h0a2.42,2.42,0,0,1-.77.72,1.78,1.78,0,0,1-.83.2,2,2,0,0,1-1.43-.52,2,2,0,0,1-.58-1.56V7.29c0-.26,0-.51,0-.76s0-.48-.05-.71l-.88-.19V5.25l1.61-.44.18.19c0,.27,0,.54,0,.83s0,.58,0,.9l0,1.5a1.54,1.54,0,0,0,.4,1.2,1.48,1.48,0,0,0,1,.35,1.69,1.69,0,0,0,.75-.2,1.62,1.62,0,0,0,.68-.65V6.8c0-.19,0-.37,0-.55a4.23,4.23,0,0,0,0-.43l-.94-.19V5.25L185,4.81l.16.17c0,.25,0,.48,0,.66s0,.37,0,.54V7.66c0,.55,0,1,0,1.27S185.23,9.44,185.24,9.57Z" transform="translate(-0.35 -0.99)"/><path class="cls-1" d="M189.59,10.5a2.73,2.73,0,0,1-1.31-.32,2.4,2.4,0,0,1-.93-.94A2.93,2.93,0,0,1,187,7.75a3.28,3.28,0,0,1,.36-1.59,2.64,2.64,0,0,1,.95-1,2.36,2.36,0,0,1,1.28-.35,2,2,0,0,1,1.51.65,2.75,2.75,0,0,1,.56,1.87v.22h-4V7h3.29l-.12.13V6.87a1.78,1.78,0,0,0-.36-1.19,1.2,1.2,0,0,0-1-.42,1.34,1.34,0,0,0-.74.23,1.6,1.6,0,0,0-.58.67A2.55,2.55,0,0,0,188,7.3v.13a2.51,2.51,0,0,0,.53,1.7,1.71,1.71,0,0,0,1.36.61,1.8,1.8,0,0,0,.82-.18,2.12,2.12,0,0,0,.7-.6l.31.28a2.49,2.49,0,0,1-.89.95A2.27,2.27,0,0,1,189.59,10.5Z" transform="translate(-0.35 -0.99)"/><path class="cls-1" d="M199,9.67a1.89,1.89,0,0,1-.66.6,1.66,1.66,0,0,1-.83.22,1.74,1.74,0,0,1-1.24-.47,1.85,1.85,0,0,1-.49-1.39l0-3.14h-.9V5.26l1.52-1.46h.19l0,1.4V8.41a1.6,1.6,0,0,0,.3,1.06,1.06,1.06,0,0,0,.84.35,1.27,1.27,0,0,0,.58-.13,1.7,1.7,0,0,0,.47-.32Zm-2.77-4.18V4.9h2.37v.59Z" transform="translate(-0.35 -0.99)"/><path class="cls-1" d="M202.09,10.5a2.8,2.8,0,0,1-1.44-.36,2.44,2.44,0,0,1-1-1,3.31,3.31,0,0,1-.34-1.5,3,3,0,0,1,.37-1.49,2.74,2.74,0,0,1,1-1,2.78,2.78,0,0,1,1.4-.36,2.6,2.6,0,0,1,1.36.35,2.36,2.36,0,0,1,.91,1,3.29,3.29,0,0,1,.32,1.48,3.06,3.06,0,0,1-.35,1.46,2.83,2.83,0,0,1-1,1A2.38,2.38,0,0,1,202.09,10.5Zm.13-.54a1.24,1.24,0,0,0,.81-.29,1.89,1.89,0,0,0,.55-.77,3,3,0,0,0,.2-1.11,3,3,0,0,0-.49-1.8A1.49,1.49,0,0,0,202,5.3a1.46,1.46,0,0,0-1.21.6,2.53,2.53,0,0,0-.47,1.59,3.06,3.06,0,0,0,.25,1.29,2,2,0,0,0,.67.87A1.56,1.56,0,0,0,202.22,10Z" transform="translate(-0.35 -0.99)"/><path class="cls-1" d="M.43,29.1l0-.43.8-.19a2,2,0,0,1,0-.21c0-.09,0-.22,0-.38s0-.35,0-.58,0-.5,0-.81l0-3.37c0-.25,0-.53,0-.81s0-.51-.06-.64L.35,21.5v-.39l1.57-.44.18.19-.05.7h0a2.66,2.66,0,0,1,.8-.69,2,2,0,0,1,.92-.23A2.32,2.32,0,0,1,5.1,21,2.43,2.43,0,0,1,6,22a3,3,0,0,1,.31,1.39,3.11,3.11,0,0,1-.38,1.54,3,3,0,0,1-1,1,2.88,2.88,0,0,1-1.45.38,3.39,3.39,0,0,1-.7-.07,4.34,4.34,0,0,1-.63-.18v1c0,.34,0,.62,0,.84s0,.4,0,.52l1.06.15,0,.47Zm3-3.31a1.73,1.73,0,0,0,1-.26,1.82,1.82,0,0,0,.66-.76,2.78,2.78,0,0,0,.25-1.18,2.5,2.5,0,0,0-.21-1.11,1.91,1.91,0,0,0-.62-.8,1.48,1.48,0,0,0-.93-.3,1.63,1.63,0,0,0-.81.21,2.08,2.08,0,0,0-.68.59v3.18a1.87,1.87,0,0,0,.63.32A2.43,2.43,0,0,0,3.45,25.79Z" transform="translate(-0.35 -0.99)"/><path class="cls-1" d="M10,26.36A2.73,2.73,0,0,1,8.68,26a2.49,2.49,0,0,1-.94-.94,3,3,0,0,1-.34-1.49A3.28,3.28,0,0,1,7.76,22a2.71,2.71,0,0,1,1-1A2.42,2.42,0,0,1,10,20.64a2,2,0,0,1,1.51.65,2.75,2.75,0,0,1,.56,1.87v.22H8v-.54h3.29L11.2,23v-.23a1.79,1.79,0,0,0-.35-1.2,1.2,1.2,0,0,0-1-.42,1.34,1.34,0,0,0-.74.23,1.57,1.57,0,0,0-.58.68,2.53,2.53,0,0,0-.22,1.13v.13A2.51,2.51,0,0,0,8.88,25a1.71,1.71,0,0,0,1.36.61,1.8,1.8,0,0,0,.82-.18,2.2,2.2,0,0,0,.7-.59l.31.27a2.42,2.42,0,0,1-.89.95A2.27,2.27,0,0,1,10,26.36Z" transform="translate(-0.35 -0.99)"/><path class="cls-1" d="M13,26.26l0-.43.8-.19a1.06,1.06,0,0,0,0-.23c0-.12,0-.27,0-.45s0-.43,0-.71v-1c0-.31,0-.6,0-.9s0-.52-.06-.65l-.83-.18v-.39l1.58-.44.15.17-.06,1.09,0,0a2.68,2.68,0,0,1,.8-1,1.38,1.38,0,0,1,.73-.26.76.76,0,0,1,.48.14.48.48,0,0,1,.18.4.47.47,0,0,1-.19.41.8.8,0,0,1-.5.14.87.87,0,0,1-.42-.1,1.37,1.37,0,0,1-.37-.26l.19.09a2.34,2.34,0,0,0-.48.47,3.8,3.8,0,0,0-.42.73v1.26c0,.19,0,.39,0,.61s0,.44,0,.63,0,.35,0,.46l1.12.17,0,.45Z" transform="translate(-0.35 -0.99)"/><path class="cls-1" d="M19.54,26.36a3.62,3.62,0,0,1-.92-.11,3,3,0,0,1-.79-.29l-.07-1.34h.58l.25.93a1.69,1.69,0,0,0,1,.32,1.18,1.18,0,0,0,.74-.22.74.74,0,0,0,.3-.62.85.85,0,0,0-.26-.62,3.49,3.49,0,0,0-1-.57,4.75,4.75,0,0,1-1.27-.76,1.23,1.23,0,0,1-.37-.93,1.24,1.24,0,0,1,.26-.78,1.66,1.66,0,0,1,.72-.53,2.76,2.76,0,0,1,1.07-.2,4.34,4.34,0,0,1,.71.06,2.27,2.27,0,0,1,.61.15l.14,1.3h-.54l-.32-.86a1.25,1.25,0,0,0-.31-.12,1.68,1.68,0,0,0-.4-.05,1.17,1.17,0,0,0-.75.22.71.71,0,0,0-.29.58.79.79,0,0,0,.3.65,5.22,5.22,0,0,0,1.05.62,3.68,3.68,0,0,1,1.18.77,1.23,1.23,0,0,1,.34.88A1.32,1.32,0,0,1,21,25.93,2.36,2.36,0,0,1,19.54,26.36Z" transform="translate(-0.35 -0.99)"/><path class="cls-1" d="M25.43,26.36A2.8,2.8,0,0,1,24,26,2.44,2.44,0,0,1,23,25a3.27,3.27,0,0,1-.33-1.49A3,3,0,0,1,23.07,22a2.69,2.69,0,0,1,2.4-1.37,2.66,2.66,0,0,1,1.37.35,2.41,2.41,0,0,1,.9,1,3.32,3.32,0,0,1,.32,1.48,3,3,0,0,1-.35,1.46,2.75,2.75,0,0,1-.95,1A2.38,2.38,0,0,1,25.43,26.36Zm.13-.54a1.23,1.23,0,0,0,.81-.28,1.9,1.9,0,0,0,.55-.78,3,3,0,0,0,.2-1.11,3.09,3.09,0,0,0-.48-1.8,1.52,1.52,0,0,0-1.29-.69,1.46,1.46,0,0,0-1.21.6,2.53,2.53,0,0,0-.47,1.59,3.11,3.11,0,0,0,.25,1.3,2.09,2.09,0,0,0,.67.86A1.58,1.58,0,0,0,25.56,25.82Z" transform="translate(-0.35 -0.99)"/><path class="cls-1" d="M29.07,26.26l0-.43.8-.19a1.69,1.69,0,0,0,0-.25c0-.1,0-.24,0-.42v-.72l0-1c0-.29,0-.59,0-.9s0-.53-.06-.66L29,21.5v-.39l1.57-.44.18.19-.06.67,0,0a3.45,3.45,0,0,1,.9-.7,2.11,2.11,0,0,1,.93-.21,1.83,1.83,0,0,1,.87.23,1.8,1.8,0,0,1,.68.71,2.55,2.55,0,0,1,.27,1.25v1.45c0,.32,0,.61,0,.86a3.08,3.08,0,0,0,0,.5l.8.19,0,.43H32.8l0-.43.75-.19q0-.11,0-.24c0-.09,0-.21,0-.37V22.92a1.75,1.75,0,0,0-.22-1,1.27,1.27,0,0,0-.53-.5,1.42,1.42,0,0,0-.61-.14,1.6,1.6,0,0,0-.84.22,2,2,0,0,0-.67.63v2c0,.42,0,.75,0,1s0,.42,0,.52l.8.19,0,.43Z" transform="translate(-0.35 -0.99)"/><path class="cls-1" d="M38.16,26.36a2,2,0,0,1-.88-.19,1.73,1.73,0,0,1-.62-.5,1.1,1.1,0,0,1-.23-.68.94.94,0,0,1,.28-.69,2.46,2.46,0,0,1,.94-.49l2-.69v-.71a.94.94,0,0,0-.2-.6,1.33,1.33,0,0,0-.53-.43,1.89,1.89,0,0,0-.77-.16.59.59,0,0,0-.47.15,1.07,1.07,0,0,0-.15.58l0,.46a1.13,1.13,0,0,1-.71,0,.43.43,0,0,1-.3-.42.65.65,0,0,1,.18-.41,2.07,2.07,0,0,1,.46-.4,3.43,3.43,0,0,1,.63-.33,3.55,3.55,0,0,1,.71-.19,2.13,2.13,0,0,1,1.44.49,1.69,1.69,0,0,1,.57,1.29l0,2.28c0,.13,0,.29,0,.46a2.67,2.67,0,0,0,.06.35l.82.16V26l-.59.21a2.63,2.63,0,0,1-.3.1.69.69,0,0,1-.22,0,.46.46,0,0,1-.47-.42l-.12-.49.17,0a3.22,3.22,0,0,1-.82.71A1.58,1.58,0,0,1,38.16,26.36Zm.27-.64a1.21,1.21,0,0,0,.61-.16,1.87,1.87,0,0,0,.56-.48V23.7L38,24.15a.82.82,0,0,0-.45.26.68.68,0,0,0-.13.44.79.79,0,0,0,.31.6A1,1,0,0,0,38.43,25.72Z" transform="translate(-0.35 -0.99)"/><path class="cls-1" d="M42.05,26.26l0-.44.84-.18a3.49,3.49,0,0,0,0-.41c0-.18,0-.44,0-.77s0-.76,0-1.29V21.56c0-.33,0-.67,0-1s0-.69,0-1,0-.59,0-.81,0-.35,0-.4l-1-.13,0-.36,1.68-.51.2.17c0,.37,0,.74,0,1.1s0,.76,0,1.21,0,1,0,1.59v2.13c0,.48,0,.92,0,1.33s0,.67,0,.8l.84.18,0,.44Z" transform="translate(-0.35 -0.99)"/><path class="cls-1" d="M45.41,26.26l0-.44.87-.18s0-.09,0-.16,0-.21,0-.4,0-.47,0-.83v-.82c0-.39,0-.74,0-1.06a6.23,6.23,0,0,0,0-.69l-.86-.18v-.39L47,20.67l.15.15c0,.27,0,.53-.05.79s0,.55,0,.89v1.63c0,.42,0,.76,0,1s0,.42,0,.49l.87.18,0,.44Zm1.29-7.17a.71.71,0,0,1-.5-.19.64.64,0,0,1,0-1,.68.68,0,0,1,.5-.2.66.66,0,0,1,.49.2.67.67,0,0,1,0,1A.69.69,0,0,1,46.7,19.09Z" transform="translate(-0.35 -0.99)"/><path class="cls-1" d="M50,26l0-.32h1.91l.37,0,.4,0,.33-1.06h.54l-.22,1.66H49.05v-.36l3.32-5,0,.33H50.06l-.36,0-.18,1H49l0-1.57.59,0h3.12l.55,0v.35Z" transform="translate(-0.35 -0.99)"/><path class="cls-1" d="M57,26.36A2.73,2.73,0,0,1,55.69,26a2.4,2.4,0,0,1-.93-.94,2.93,2.93,0,0,1-.35-1.49A3.28,3.28,0,0,1,54.77,22a2.71,2.71,0,0,1,.95-1A2.44,2.44,0,0,1,57,20.64a2,2,0,0,1,1.51.65,2.75,2.75,0,0,1,.56,1.87v.22h-4v-.54h3.29l-.12.13v-.23a1.79,1.79,0,0,0-.36-1.2,1.2,1.2,0,0,0-1-.42,1.34,1.34,0,0,0-.74.23,1.57,1.57,0,0,0-.58.68,2.68,2.68,0,0,0-.22,1.13v.13a2.51,2.51,0,0,0,.53,1.7,1.71,1.71,0,0,0,1.36.61,1.8,1.8,0,0,0,.82-.18,2.2,2.2,0,0,0,.7-.59l.31.27a2.42,2.42,0,0,1-.89.95A2.27,2.27,0,0,1,57,26.36Z" transform="translate(-0.35 -0.99)"/><path class="cls-1" d="M64.53,26.39l-.15-.16,0-.85h0a2.92,2.92,0,0,1-.82.75,1.76,1.76,0,0,1-.87.22A2.5,2.5,0,0,1,61.35,26a2.45,2.45,0,0,1-.91-1,2.75,2.75,0,0,1-.33-1.37,3.45,3.45,0,0,1,.22-1.23,2.83,2.83,0,0,1,1.51-1.6,2.51,2.51,0,0,1,1-.23,3.73,3.73,0,0,1,.8.1,1.72,1.72,0,0,1,.69.34v-.63c0-.27,0-.55,0-.84s0-.54,0-.76V18.4l-1-.2,0-.38L65,17.31l.21.17c0,.53,0,1.06,0,1.57v4.56q0,.66,0,1.14c0,.33,0,.55,0,.68l.82.21V26ZM62.9,25.6a1.77,1.77,0,0,0,.77-.17,2.35,2.35,0,0,0,.71-.63V22.06a1.6,1.6,0,0,0-.67-.69,1.78,1.78,0,0,0-.82-.21,1.6,1.6,0,0,0-1.35.63,2.54,2.54,0,0,0-.49,1.6A2.31,2.31,0,0,0,61.6,25,1.7,1.7,0,0,0,62.9,25.6Z" transform="translate(-0.35 -0.99)"/><path class="cls-1" d="M69.64,26.26l0-.45.79-.2c0-.06,0-.15,0-.26v-.43c0-.17,0-.35,0-.55s0-.4,0-.6V21.19c0-.41,0-.74,0-1s0-.47,0-.61a.88.88,0,0,0,0-.27l-.77-.17,0-.45H72.3a2.93,2.93,0,0,1,1.77.47,1.62,1.62,0,0,1,.62,1.36,1.92,1.92,0,0,1-.35,1.13,2.13,2.13,0,0,1-.94.78,3.27,3.27,0,0,1-1.4.29h-.84v-.54H72a2,2,0,0,0,1.31-.4,1.43,1.43,0,0,0,.45-1.13,1.36,1.36,0,0,0-.4-1.07,1.63,1.63,0,0,0-1.15-.36h-.81a.14.14,0,0,0,0,.07.93.93,0,0,0,0,.2v4.29c0,.41,0,.74,0,1s0,.42,0,.55a2.28,2.28,0,0,0,0,.31l.78.2,0,.45Zm6,.12a2,2,0,0,1-.92-.21,2.71,2.71,0,0,1-.81-.71,13.32,13.32,0,0,1-.92-1.37L72,22.49l.84-.19,1.36,2a7.92,7.92,0,0,0,.68.91,2.35,2.35,0,0,0,.58.47,1.91,1.91,0,0,0,.62.22v.42l-.24,0Z" transform="translate(-0.35 -0.99)"/><path class="cls-1" d="M78.8,26.38a5.07,5.07,0,0,1-1.14-.14,3.47,3.47,0,0,1-1-.34l-.06-1.6.48-.05.33,1.09a2.88,2.88,0,0,0,.71.33,3.22,3.22,0,0,0,.84.11,1.66,1.66,0,0,0,1-.32,1.08,1.08,0,0,0,.41-.89,1.11,1.11,0,0,0-.27-.77,2.71,2.71,0,0,0-.71-.54c-.28-.15-.59-.3-.91-.45a6.79,6.79,0,0,1-.92-.51,2.43,2.43,0,0,1-.71-.68,1.78,1.78,0,0,1-.28-1A1.74,1.74,0,0,1,77,19.55a2.2,2.2,0,0,1,.93-.73,3.27,3.27,0,0,1,1.36-.27c.23,0,.45,0,.65,0l.57.1a2.88,2.88,0,0,1,.47.16l.09,1.53-.48.05-.35-1a1.92,1.92,0,0,0-1.1-.27,1.64,1.64,0,0,0-1.09.34,1,1,0,0,0-.42.86,1.2,1.2,0,0,0,.28.8,2.52,2.52,0,0,0,.71.56c.29.16.6.32.92.47a9,9,0,0,1,.92.5,2.84,2.84,0,0,1,.71.67,1.59,1.59,0,0,1,.27.95,1.81,1.81,0,0,1-.34,1.09,2.34,2.34,0,0,1-.94.74A3.33,3.33,0,0,1,78.8,26.38Z" transform="translate(-0.35 -0.99)"/><path class="cls-1" d="M85.35,26.3l-2.78-7-.64-.17,0-.45h2.48l0,.45-.79.17,2.25,5.8h-.19l2.12-5.8-.9-.17,0-.45h2.3l0,.45-.65.17-2.81,7Z" transform="translate(-0.35 -0.99)"/><path class="cls-1" d="M90.07,26.26l0-.45.73-.17a1.46,1.46,0,0,0,0-.2c0-.1,0-.28,0-.53V23.83l0-2.77c0-.46,0-.81,0-1s0-.41,0-.5a.53.53,0,0,0,0-.18l-.78-.2,0-.45h2.61a3,3,0,0,1,1.89.56,2,2,0,0,1,.69,1.61,2.1,2.1,0,0,1-.37,1.25,2.43,2.43,0,0,1-1,.8,3.15,3.15,0,0,1-1.3.27,4.86,4.86,0,0,1-.56,0l-.49-.07v-.63a4.83,4.83,0,0,0,.56.12l.45,0a1.9,1.9,0,0,0,1.25-.37,1.48,1.48,0,0,0,.45-1.2,1.74,1.74,0,0,0-.49-1.37,1.79,1.79,0,0,0-1.22-.44h-.78v.36c0,.19,0,.42,0,.68v3.58c0,.47,0,.82,0,1.07s0,.41,0,.51a1.92,1.92,0,0,1,0,.2l1.07.17,0,.48Z" transform="translate(-0.35 -0.99)"/></g></g></svg>