<svg xmlns="http://www.w3.org/2000/svg" viewBox="0 0 148.43 40.19"><defs><style>.cls-1{opacity:0.53;}.cls-2{fill:#f2f3eb;stroke:#f2f3eb;stroke-miterlimit:10;}.cls-3{fill:#b69991;}</style></defs><g id="Layer_2" data-name="Layer 2"><g id="Layer_1-2" data-name="Layer 1"><g class="cls-1"><rect class="cls-2" x="0.5" y="0.5" width="147.43" height="39.19" rx="11.67"/><path class="cls-3" d="M11.15,14.52h2.69l3.49,8.12h-.24l3.51-8.12h2.47l0,.58-1,.2c0,.18,0,.49,0,.94l0,1.35.05,3.07c0,.58,0,1.05,0,1.42s0,.66,0,.88,0,.39,0,.52l1,.2,0,.58H20l0-.58,1-.2c0-.16,0-.33,0-.49v-.72c0-.31,0-.74,0-1.29l0-6h.33l-4,9.31h-.45l-4-9.34H13v7.69q0,.64,0,.81l1.13.21-.05.58H10.93l0-.58L12,23.47c0-.09,0-.24,0-.43s0-.48,0-.83,0-.8,0-1.32l.05-3.32c0-.43,0-.86,0-1.29s0-.75,0-1l-1-.22Z"/><path class="cls-3" d="M27.42,24.4a2.59,2.59,0,0,1-1.12-.25,2.2,2.2,0,0,1-.81-.65,1.39,1.39,0,0,1-.29-.86,1.2,1.2,0,0,1,.36-.89,3.2,3.2,0,0,1,1.21-.64l2.51-.88v-.91a1.28,1.28,0,0,0-.26-.78,1.64,1.64,0,0,0-.69-.55,2.35,2.35,0,0,0-1-.2.77.77,0,0,0-.6.18,1.29,1.29,0,0,0-.19.75l0,.6a1.39,1.39,0,0,1-.91,0,.55.55,0,0,1-.38-.54.83.83,0,0,1,.22-.53,2.59,2.59,0,0,1,.6-.51,4.47,4.47,0,0,1,.81-.43,4.89,4.89,0,0,1,.91-.24,2.72,2.72,0,0,1,1.86.63,2.18,2.18,0,0,1,.73,1.66l0,2.92c0,.18,0,.38,0,.59a2.35,2.35,0,0,0,.07.46l1,.2V24l-.75.26-.39.14a1.18,1.18,0,0,1-.29,0,.58.58,0,0,1-.59-.55l-.15-.63.21,0a4.62,4.62,0,0,1-1.05.91A2.13,2.13,0,0,1,27.42,24.4Zm.35-.83a1.72,1.72,0,0,0,.79-.2,2.54,2.54,0,0,0,.72-.62V21l-2.08.58a1,1,0,0,0-.57.32.88.88,0,0,0-.17.57,1,1,0,0,0,.4.77A1.33,1.33,0,0,0,27.77,23.57Z"/><path class="cls-3" d="M32.57,24.26l0-.54.95-.25c0-.1,0-.27,0-.5s0-.54,0-.91,0-.83,0-1.35V18.22c0-.42,0-.86,0-1.31s0-.89,0-1.3,0-.75,0-1,0-.47,0-.54l-1.23-.17,0-.46,2.14-.65.28.21,0,1.15,0,1.15c0,.38,0,.78,0,1.2v5.47c0,.29,0,.54,0,.75s0,.38,0,.5,0,.22,0,.28l1,.25,0,.54Zm7,0H37.91c-.2-.27-.35-.47-.46-.59a3.59,3.59,0,0,0-.32-.35l-2.36-2.56h-.48l0-.33.68-.2,2.24-2.29-1.09-.2,0-.57h3.24l0,.57-1.1.2-3,2.77.28-.55,2.26,2.41.47.48c.18.19.35.35.49.48l.79.17Z"/><path class="cls-3" d="M43.66,24.4A3.42,3.42,0,0,1,42,24a3,3,0,0,1-1.2-1.21,3.83,3.83,0,0,1-.45-1.91,4.22,4.22,0,0,1,.46-2.05A3.41,3.41,0,0,1,42,17.49,3,3,0,0,1,43.66,17a2.52,2.52,0,0,1,1.94.83,3.59,3.59,0,0,1,.71,2.41v.28H41.15v-.7h4.23l-.16.17v-.3a2.33,2.33,0,0,0-.46-1.53,1.55,1.55,0,0,0-1.24-.54,1.68,1.68,0,0,0-1,.29,2,2,0,0,0-.74.87,3.31,3.31,0,0,0-.28,1.46v.17a3.19,3.19,0,0,0,.68,2.19,2.2,2.2,0,0,0,1.74.78A2.27,2.27,0,0,0,45,23.18a2.69,2.69,0,0,0,.9-.76l.4.35A3.19,3.19,0,0,1,45.18,24,3,3,0,0,1,43.66,24.4Z"/><path class="cls-3" d="M50.65,24.26l0-.56,1.11-.23a1,1,0,0,0,0-.21c0-.09,0-.27,0-.52V20.63c0-.5,0-1,0-1.37a8.86,8.86,0,0,0-.07-.89l-1.11-.23v-.5l2.16-.56.18.19c0,.35,0,.68-.06,1s0,.71,0,1.15v2.09c0,.55,0,1,0,1.32s0,.54,0,.63L54,23.7l0,.56Zm1.66-9.21a.93.93,0,0,1-.65-.25.84.84,0,0,1,0-1.25.94.94,0,0,1,.65-.26.89.89,0,0,1,.63.26.88.88,0,0,1,0,1.25A.88.88,0,0,1,52.31,15.05Z"/><path class="cls-3" d="M60,23.33a2.32,2.32,0,0,1-.84.78,2.3,2.3,0,0,1-1.07.27,2.21,2.21,0,0,1-1.59-.6A2.35,2.35,0,0,1,55.91,22L56,18H54.8v-.3l2-1.88H57l0,1.79,0,4.14a2,2,0,0,0,.39,1.36,1.37,1.37,0,0,0,1.09.45,1.82,1.82,0,0,0,.74-.16,2.37,2.37,0,0,0,.61-.42ZM56.49,18v-.77h3V18Z"/><path class="cls-3" d="M64,24.26l0-.58.95-.21a2.36,2.36,0,0,0,0-.26c0-.13,0-.35,0-.68s0-.79,0-1.39l0-3.57c0-.58,0-1,0-1.34s0-.53,0-.65a1.41,1.41,0,0,0,0-.23l-1-.25,0-.58h3.36a3.77,3.77,0,0,1,2.42.72,2.5,2.5,0,0,1,.9,2.07,2.68,2.68,0,0,1-.48,1.6,3,3,0,0,1-1.24,1,3.92,3.92,0,0,1-1.67.36,5.43,5.43,0,0,1-.72-.05,4.84,4.84,0,0,1-.62-.09v-.81a5.72,5.72,0,0,0,.72.16,3.64,3.64,0,0,0,.57,0,2.45,2.45,0,0,0,1.61-.48,1.9,1.9,0,0,0,.58-1.55,2.23,2.23,0,0,0-.64-1.76,2.3,2.3,0,0,0-1.57-.56h-1c0,.07,0,.22,0,.46s0,.54,0,.88,0,.68,0,1l0,3.57c0,.6,0,1.06,0,1.37s0,.54,0,.67,0,.21,0,.25l1.38.22,0,.61Z"/><path class="cls-3" d="M72,24.26l0-.54,1-.25q0-.09,0-.3c0-.15,0-.34,0-.58V20.36c0-.39,0-.77,0-1.15s0-.66-.07-.84l-1.06-.23v-.5l2-.56.2.21L74,18.7l0,0a3.49,3.49,0,0,1,1-1.32,1.69,1.69,0,0,1,.94-.34,1,1,0,0,1,.61.18.69.69,0,0,1,0,1.05,1.09,1.09,0,0,1-.65.18,1.13,1.13,0,0,1-.54-.13A1.94,1.94,0,0,1,75,18l.25.12a2.67,2.67,0,0,0-.62.6,4.4,4.4,0,0,0-.54,1v1.61c0,.24,0,.5,0,.79s0,.56,0,.81,0,.44,0,.59l1.45.21,0,.58Z"/><path class="cls-3" d="M77.76,24.26l0-.56,1.11-.23a1,1,0,0,0,0-.21c0-.09,0-.27,0-.52V20.63c0-.5,0-1,0-1.37a8.86,8.86,0,0,0-.07-.89l-1.11-.23v-.5l2.16-.56.18.19c0,.35,0,.68-.06,1s0,.71,0,1.15v2.09c0,.55,0,1,0,1.32s0,.54,0,.63l1.11.23,0,.56Zm1.66-9.21a.93.93,0,0,1-.65-.25.84.84,0,0,1,0-1.25.94.94,0,0,1,.65-.26.89.89,0,0,1,.63.26.88.88,0,0,1,0,1.25A.88.88,0,0,1,79.42,15.05Z"/><path class="cls-3" d="M85.19,24.33,82.29,18l-.78-.24,0-.55h3l0,.55-1,.24,2.39,5.32-.43,0L87.65,18l-1-.24,0-.55h2.68l0,.55-.78.24-3,6.37Z"/><path class="cls-3" d="M92.48,24.4a2.59,2.59,0,0,1-1.12-.25,2.09,2.09,0,0,1-.8-.65,1.41,1.41,0,0,1-.3-.86,1.2,1.2,0,0,1,.36-.89,3.28,3.28,0,0,1,1.21-.64l2.51-.88v-.91a1.28,1.28,0,0,0-.26-.78,1.64,1.64,0,0,0-.69-.55,2.32,2.32,0,0,0-1-.2.78.78,0,0,0-.6.18,1.29,1.29,0,0,0-.19.75l0,.6a1.39,1.39,0,0,1-.91,0,.55.55,0,0,1-.38-.54.83.83,0,0,1,.22-.53,2.59,2.59,0,0,1,.6-.51,4.47,4.47,0,0,1,.81-.43,4.89,4.89,0,0,1,.91-.24,2.72,2.72,0,0,1,1.86.63,2.18,2.18,0,0,1,.73,1.66l0,2.92c0,.18,0,.38,0,.59a1.67,1.67,0,0,0,.08.46l1,.2V24l-.75.26-.39.14a1.18,1.18,0,0,1-.29,0,.58.58,0,0,1-.59-.55l-.15-.63.21,0a4.42,4.42,0,0,1-1,.91A2.13,2.13,0,0,1,92.48,24.4Zm.35-.83a1.68,1.68,0,0,0,.79-.2,2.54,2.54,0,0,0,.72-.62V21l-2.07.58a1,1,0,0,0-.58.32.94.94,0,0,0-.17.57,1,1,0,0,0,.4.77A1.35,1.35,0,0,0,92.83,23.57Z"/><path class="cls-3" d="M102.56,23.33a2.35,2.35,0,0,1-.85.78,2.26,2.26,0,0,1-1.06.27,2.21,2.21,0,0,1-1.59-.6A2.32,2.32,0,0,1,98.42,22l0-4H97.31v-.3l2-1.88h.25l0,1.79,0,4.14a2,2,0,0,0,.39,1.36,1.36,1.36,0,0,0,1.09.45,1.86,1.86,0,0,0,.74-.16,2.31,2.31,0,0,0,.6-.42ZM99,18v-.77h3V18Z"/><path class="cls-3" d="M106.41,24.4a3.44,3.44,0,0,1-1.69-.42,3,3,0,0,1-1.2-1.21,3.83,3.83,0,0,1-.45-1.91,4.22,4.22,0,0,1,.47-2.05,3.41,3.41,0,0,1,1.23-1.32,3,3,0,0,1,1.64-.45,2.49,2.49,0,0,1,1.94.83,3.54,3.54,0,0,1,.72,2.41v.28H103.9v-.7h4.24L108,20v-.3a2.27,2.27,0,0,0-.46-1.53,1.52,1.52,0,0,0-1.23-.54,1.74,1.74,0,0,0-1,.29,2.07,2.07,0,0,0-.74.87,3.45,3.45,0,0,0-.28,1.46v.17a3.24,3.24,0,0,0,.68,2.19,2.23,2.23,0,0,0,1.75.78,2.3,2.3,0,0,0,1.06-.24,2.57,2.57,0,0,0,.89-.76l.4.35A3.25,3.25,0,0,1,107.94,24,3.06,3.06,0,0,1,106.41,24.4Z"/><path class="cls-3" d="M127.77,12.61A10.84,10.84,0,0,1,133,13.94a.4.4,0,0,0,.57-.08c1.18-1.2,2.38-2.39,3.57-3.58l.1-.1c.27-.26.54-.29.74-.08s.16.43-.11.7l-2,1.95L118.75,29.88a2.06,2.06,0,0,1-.31.28.4.4,0,0,1-.52-.06.38.38,0,0,1-.06-.54,2.41,2.41,0,0,1,.21-.24c1.16-1.16,2.31-2.32,3.48-3.47.2-.2.18-.27,0-.42a22.29,22.29,0,0,1-4.31-3.8,2.17,2.17,0,0,1-.13-2.91,19.13,19.13,0,0,1,6.62-5.18A10.18,10.18,0,0,1,127.77,12.61Zm4.89,2.16-.19-.13a9.34,9.34,0,0,0-8-.48,18,18,0,0,0-6.7,5.13,1.24,1.24,0,0,0,0,1.66,21.49,21.49,0,0,0,4.41,3.89.28.28,0,0,0,.42,0c.42-.45.85-.89,1.3-1.3.25-.23.26-.38.06-.68a4.53,4.53,0,0,1-.39-4.81,4.65,4.65,0,0,1,4-2.74,4.59,4.59,0,0,1,3.21.93c.1.07.19.23.36.06Zm-4.92,1.36a3.79,3.79,0,0,0-3.31,2.13,3.8,3.8,0,0,0,.21,4c.09.15.15.31.37.09q2.59-2.62,5.22-5.22c.17-.17.12-.25,0-.36A4.13,4.13,0,0,0,127.74,16.13Z"/><path class="cls-3" d="M127.93,27.58a10.25,10.25,0,0,1-3.06-.49c-.33-.1-.46-.31-.39-.56a.45.45,0,0,1,.63-.29,9.86,9.86,0,0,0,8.58-1.41A21.57,21.57,0,0,0,138.05,21a1.32,1.32,0,0,0,0-1.83,25,25,0,0,0-2.72-2.63c-.14-.11-.28-.22-.28-.42a.43.43,0,0,1,.24-.41.42.42,0,0,1,.49.07c.4.34.79.67,1.17,1a20.94,20.94,0,0,1,1.8,1.85,2.13,2.13,0,0,1,.07,2.82,18.75,18.75,0,0,1-6.89,5.3A10.46,10.46,0,0,1,127.93,27.58Z"/><path class="cls-3" d="M132.79,20.05a4.88,4.88,0,0,1-5.57,4.84c-.26,0-.49-.13-.52-.43s.23-.51.63-.45a3.94,3.94,0,0,0,4-1.94,3.85,3.85,0,0,0,.51-2.34l0-.35c0-.28.07-.47.36-.51a.4.4,0,0,1,.49.38A3.49,3.49,0,0,1,132.79,20.05Z"/></g></g></g></svg>