<svg xmlns="http://www.w3.org/2000/svg" viewBox="0 0 119.87 13.66"><defs><style>.cls-1{fill:#f2f3eb;}</style></defs><g id="Layer_2" data-name="Layer 2"><g id="Layer_1-2" data-name="Layer 1"><path class="cls-1" d="M1,15.58l-.06-.81L2,14.5a1.06,1.06,0,0,0,.06-.38q0-.3,0-.9c0-.4,0-.91,0-1.53L2.13,8c0-.61,0-1.1,0-1.48s0-.68,0-.88A1,1,0,0,0,2,5.31L.83,5l.06-.81H5.24a5.14,5.14,0,0,1,3.17.84A2.89,2.89,0,0,1,9.52,7.52,3.25,3.25,0,0,1,9,9.39a3.82,3.82,0,0,1-1.53,1.27,5.25,5.25,0,0,1-2.23.45,6,6,0,0,1-.74,0Q4.1,11,3.77,11V9.84l.71.18a3.08,3.08,0,0,0,.68.07,2.36,2.36,0,0,0,1.69-.58,2.33,2.33,0,0,0,.6-1.74,2.55,2.55,0,0,0-.7-2A2.55,2.55,0,0,0,5,5.16H4.1c0,.07,0,.25,0,.52s0,.61,0,1,0,.86,0,1.36l0,3.65c0,.62,0,1.13,0,1.52s0,.69,0,.89a2.84,2.84,0,0,0,0,.38l1.58.25,0,.85Z" transform="translate(-0.83 -2.14)"/><path class="cls-1" d="M10.75,15.58l-.05-.75,1.2-.31a6,6,0,0,0,0-.66c0-.31,0-.71,0-1.2s0-1,0-1.66V8.58c0-.44,0-.9,0-1.38s0-1,0-1.41,0-.85,0-1.19,0-.6,0-.74l-1.44-.19,0-.7,3-.83.43.29c0,.4,0,.79,0,1.19s0,.81,0,1.26,0,1,0,1.55,0,1.26,0,2l.06,0A4.43,4.43,0,0,1,15.15,7.4a3.14,3.14,0,0,1,1.45-.35A2.63,2.63,0,0,1,18,7.44a2.86,2.86,0,0,1,1,1.14,4,4,0,0,1,.4,1.89v2.06q0,.68,0,1.23a5.56,5.56,0,0,0,.07.76l1.2.31,0,.75h-4.2l-.06-.75,1.12-.31a3.53,3.53,0,0,0,0-.42c0-.17,0-.38,0-.63s0-.52,0-.85V10.69a2.82,2.82,0,0,0-.26-1.29,1.64,1.64,0,0,0-.68-.72,1.73,1.73,0,0,0-.9-.24,2.4,2.4,0,0,0-1.1.28,2.68,2.68,0,0,0-.89.79v2.88q0,.86,0,1.41a3.05,3.05,0,0,0,.09.72l1.18.31-.06.75Z" transform="translate(-0.83 -2.14)"/><path class="cls-1" d="M26.13,15.74a4.51,4.51,0,0,1-2.25-.54,3.91,3.91,0,0,1-1.5-1.52,4.56,4.56,0,0,1-.54-2.24,4.37,4.37,0,0,1,.6-2.33A4.29,4.29,0,0,1,24,7.59a4.52,4.52,0,0,1,2.18-.54,4.21,4.21,0,0,1,2.15.54,3.75,3.75,0,0,1,1.43,1.5,4.8,4.8,0,0,1,.5,2.24,4.5,4.5,0,0,1-.55,2.23,4.4,4.4,0,0,1-1.5,1.59A3.92,3.92,0,0,1,26.13,15.74Zm.2-1a1.52,1.52,0,0,0,1-.37,2.33,2.33,0,0,0,.68-1,4.67,4.67,0,0,0,.24-1.57,5.14,5.14,0,0,0-.63-2.7A1.9,1.9,0,0,0,26,8a1.75,1.75,0,0,0-1.5.83,3.82,3.82,0,0,0-.57,2.2A5.29,5.29,0,0,0,24.2,13a3,3,0,0,0,.87,1.31A1.91,1.91,0,0,0,26.33,14.73Z" transform="translate(-0.83 -2.14)"/><path class="cls-1" d="M31.59,15.58l-.06-.75,1.2-.31c0-.07,0-.18,0-.34s0-.38,0-.65,0-.61,0-1l0-1.49c0-.42,0-.81,0-1.19s-.08-.71-.13-1l-1.24-.27V7.86l2.86-.77.39.33-.1,1,.06,0A4.46,4.46,0,0,1,36,7.4a3.21,3.21,0,0,1,1.46-.35,2.69,2.69,0,0,1,1.39.38,2.79,2.79,0,0,1,1,1.13,4.06,4.06,0,0,1,.39,1.88v2.09c0,.45,0,.86,0,1.24a3.1,3.1,0,0,0,.08.75l1.2.31-.06.75h-4.2l0-.75,1.13-.31c0-.11,0-.24,0-.42a5.53,5.53,0,0,0,0-.63c0-.24,0-.52,0-.85V10.69a2.74,2.74,0,0,0-.27-1.31,1.67,1.67,0,0,0-.68-.71,1.83,1.83,0,0,0-.88-.23,2.41,2.41,0,0,0-1.12.28,2.75,2.75,0,0,0-.88.79v2.88c0,.56,0,1,0,1.39a3.39,3.39,0,0,0,.09.74l1.2.31-.06.75Z" transform="translate(-0.83 -2.14)"/><path class="cls-1" d="M46.77,15.74a4.19,4.19,0,0,1-2.09-.53,3.69,3.69,0,0,1-1.46-1.47,4.45,4.45,0,0,1-.53-2.2,4.68,4.68,0,0,1,.58-2.37,4.33,4.33,0,0,1,1.51-1.58,3.75,3.75,0,0,1,2-.54,3.08,3.08,0,0,1,2.45,1,4.12,4.12,0,0,1,.86,2.75v.39H44.28v-.91h4.37l-.25.33v-.48a2.52,2.52,0,0,0-.48-1.64,1.55,1.55,0,0,0-1.28-.59,1.78,1.78,0,0,0-1,.31,2.07,2.07,0,0,0-.75.93,3.7,3.7,0,0,0-.29,1.55V11a3.49,3.49,0,0,0,.77,2.38,2.54,2.54,0,0,0,2,.87A2.79,2.79,0,0,0,48.58,14a3.54,3.54,0,0,0,1.05-.87l.53.49a3.69,3.69,0,0,1-3.39,2.11Z" transform="translate(-0.83 -2.14)"/><path class="cls-1" d="M64.35,12.54V8.66c0-.72,0-1.32,0-1.8s0-.84,0-1.09a2.35,2.35,0,0,0-.06-.46L62.92,5,63,4.23h3.81l.06.81-1.22.27c0,.05,0,.2,0,.46s0,.61,0,1.09,0,1.08,0,1.8v5.66c0,.44,0,.89,0,1.34h-1L57.25,6.28h.62V11c0,.74,0,1.37,0,1.86s0,.87,0,1.13,0,.4.05.47l1.33.27,0,.81H55.4l-.06-.81,1.2-.27A3.23,3.23,0,0,0,56.6,14c0-.26,0-.64,0-1.14s0-1.11,0-1.84V8c0-.51,0-1,0-1.33s0-.67,0-.89a2.84,2.84,0,0,0-.06-.43L55.34,5l.06-.81h2.78l6.66,8.31Z" transform="translate(-0.83 -2.14)"/><path class="cls-1" d="M76.71,14.09,78,14.4v.7l-2.76.69-.35-.25,0-1.25-.06,0a3.51,3.51,0,0,1-1.17,1.15,2.8,2.8,0,0,1-1.29.32,3.07,3.07,0,0,1-2.2-.83,3.22,3.22,0,0,1-.87-2.46V10.79c0-.32,0-.63,0-.95s0-.65-.07-1l-1.32-.27V7.86l2.93-.77.4.33c0,.39-.05.82-.07,1.3s0,1,0,1.5v2a2.14,2.14,0,0,0,.52,1.62,1.87,1.87,0,0,0,1.37.5,2,2,0,0,0,1-.26,2.3,2.3,0,0,0,.87-.86V11.05c0-.28,0-.55,0-.82l0-.75a5.2,5.2,0,0,0-.06-.63l-1.41-.27V7.86l3-.77.37.29c0,.32,0,.63,0,.91s0,.58,0,.88V11.6c0,.58,0,1.08,0,1.51S76.69,13.86,76.71,14.09Z" transform="translate(-0.83 -2.14)"/><path class="cls-1" d="M78.88,15.58l-.06-.75,1.2-.31c0-.07,0-.18,0-.33s0-.37,0-.65,0-.62,0-1l0-1.49c0-.27,0-.54,0-.81s0-.51-.06-.75a6,6,0,0,0-.1-.61l-1.23-.27V7.86l2.86-.77.38.33-.09,1.06.06,0a4,4,0,0,1,1.25-1.11,2.89,2.89,0,0,1,1.36-.34,2.65,2.65,0,0,1,1.34.38A2.83,2.83,0,0,1,87,8.56a4.06,4.06,0,0,1,.4,1.93l0,2c0,.45,0,.86,0,1.23a3.29,3.29,0,0,0,.08.76l1.14.31-.06.75h-4l-.06-.75,1-.31a3.53,3.53,0,0,0,0-.42,5.53,5.53,0,0,0,0-.63c0-.24,0-.52,0-.85l0-2a2.81,2.81,0,0,0-.24-1.25,1.51,1.51,0,0,0-.64-.68,1.8,1.8,0,0,0-.86-.22,2.15,2.15,0,0,0-1,.27,2.28,2.28,0,0,0-.87.8v2.88q0,.81,0,1.38a3.75,3.75,0,0,0,.08.75l1.12.31-.05.75Zm11,0,0-.75,1.06-.31a2.09,2.09,0,0,0,0-.42q0-.26,0-.63c0-.24,0-.52,0-.85l0-1.95a2.83,2.83,0,0,0-.26-1.3,1.64,1.64,0,0,0-.68-.7,1.79,1.79,0,0,0-.86-.23,2.41,2.41,0,0,0-1.12.28,2.57,2.57,0,0,0-.91.89l-.43-.74a4.94,4.94,0,0,1,1.44-1.36,3.11,3.11,0,0,1,1.64-.46,2.94,2.94,0,0,1,1.53.41,2.73,2.73,0,0,1,1,1.15,3.94,3.94,0,0,1,.38,1.79l0,2.13q0,.68,0,1.23a6.15,6.15,0,0,0,.06.76l1.2.31,0,.75Z" transform="translate(-0.83 -2.14)"/><path class="cls-1" d="M96,15.06c0-.45,0-.86.05-1.23s0-.73,0-1.1V8.56c0-.48,0-1,0-1.48s0-1,0-1.43,0-.83,0-1.15,0-.54,0-.66l-1.43-.17,0-.7,3-.83.42.29c0,.54,0,1.08,0,1.61s0,1.16,0,1.85,0,1.56,0,2.59l.06,0a3.52,3.52,0,0,1,1.16-1,3,3,0,0,1,1.54-.42,3.42,3.42,0,0,1,1.78.48,3.48,3.48,0,0,1,1.31,1.35,4.31,4.31,0,0,1,.49,2.14,4.58,4.58,0,0,1-.64,2.42,4.47,4.47,0,0,1-1.76,1.69,5.21,5.21,0,0,1-2.51.61,7.38,7.38,0,0,1-1.7-.19A8,8,0,0,1,96,15.06Zm3.69-.44a2.23,2.23,0,0,0,1.75-.82,3.53,3.53,0,0,0,.73-2.38,2.9,2.9,0,0,0-.7-2.19,2.36,2.36,0,0,0-1.72-.71,2.5,2.5,0,0,0-1,.23,2.35,2.35,0,0,0-.87.7V14a2.91,2.91,0,0,0,.82.43A3.27,3.27,0,0,0,99.65,14.62Z" transform="translate(-0.83 -2.14)"/><path class="cls-1" d="M109.71,15.74a4.19,4.19,0,0,1-2.09-.53,3.69,3.69,0,0,1-1.46-1.47,4.45,4.45,0,0,1-.53-2.2,4.68,4.68,0,0,1,.58-2.37,4.33,4.33,0,0,1,1.51-1.58,3.75,3.75,0,0,1,2-.54,3.08,3.08,0,0,1,2.45,1,4.12,4.12,0,0,1,.86,2.75v.39h-5.82v-.91h4.37l-.25.33v-.48a2.52,2.52,0,0,0-.48-1.64,1.55,1.55,0,0,0-1.28-.59,1.78,1.78,0,0,0-1,.31,2.07,2.07,0,0,0-.75.93,3.7,3.7,0,0,0-.28,1.55V11a3.49,3.49,0,0,0,.76,2.38,2.54,2.54,0,0,0,2,.87,2.76,2.76,0,0,0,1.21-.26,3.57,3.57,0,0,0,1.06-.87l.52.49a3.73,3.73,0,0,1-1.42,1.58A3.8,3.8,0,0,1,109.71,15.74Z" transform="translate(-0.83 -2.14)"/><path class="cls-1" d="M114.26,15.58l-.06-.75,1.2-.31s0-.16,0-.33,0-.4,0-.68,0-.62,0-1l0-1.49c0-.43,0-.83,0-1.2s-.08-.7-.13-1l-1.24-.27V7.86L117,7.09l.34.29L117.22,9l.06,0a3.64,3.64,0,0,1,1.15-1.49,2.06,2.06,0,0,1,1.15-.39,1.3,1.3,0,0,1,.79.24.87.87,0,0,1,.33.75.93.93,0,0,1-.35.77,1.37,1.37,0,0,1-.87.27,1.72,1.72,0,0,1-.72-.15,2.86,2.86,0,0,1-.65-.47l.38.1a2.83,2.83,0,0,0-.63.62,4.26,4.26,0,0,0-.57.95l0,1.7c0,.37,0,.74,0,1.09s0,.67,0,.94,0,.47,0,.6l1.68.27-.06.79Z" transform="translate(-0.83 -2.14)"/></g></g></svg>