<svg xmlns="http://www.w3.org/2000/svg" viewBox="0 0 117.14 32"><defs><style>.cls-1{fill:#f2f3eb;}.cls-2{fill:#b69991;}</style></defs><g id="Layer_2" data-name="Layer 2"><g id="Layer_1-2" data-name="Layer 1"><rect class="cls-1" width="117.14" height="32" rx="16"/><path class="cls-2" d="M33.54,21.48a8,8,0,0,1-1.76-.21,5.52,5.52,0,0,1-1.53-.56l-.09-2.63L31.1,18l.58,1.82a4,4,0,0,0,2.13.6A2.27,2.27,0,0,0,35.29,20a1.39,1.39,0,0,0,.53-1.17,1.57,1.57,0,0,0-.4-1.12A3.53,3.53,0,0,0,34.37,17c-.42-.21-.88-.42-1.36-.63a8.83,8.83,0,0,1-1.36-.73,3.41,3.41,0,0,1-1-1A2.73,2.73,0,0,1,30.2,13a2.82,2.82,0,0,1,.54-1.72,3.44,3.44,0,0,1,1.52-1.14,5.83,5.83,0,0,1,2.25-.41c.32,0,.64,0,1,.05a6.39,6.39,0,0,1,.91.16,3.47,3.47,0,0,1,.77.26l.17,2.55-.94.08-.57-1.72a2.88,2.88,0,0,0-1.52-.37,2.3,2.3,0,0,0-1.49.45,1.47,1.47,0,0,0-.56,1.21,1.6,1.6,0,0,0,.4,1.14,3.71,3.71,0,0,0,1.06.79c.43.22.89.44,1.37.64a10.47,10.47,0,0,1,1.37.72,3.66,3.66,0,0,1,1.07,1,2.54,2.54,0,0,1,.41,1.48,2.71,2.71,0,0,1-.56,1.69,3.65,3.65,0,0,1-1.55,1.17A5.73,5.73,0,0,1,33.54,21.48Z"/><path class="cls-2" d="M47.66,19.82l1.24.31v.7l-2.77.69-.34-.25,0-1.26-.06,0a3.55,3.55,0,0,1-1.17,1.16,2.79,2.79,0,0,1-1.29.31,3.06,3.06,0,0,1-2.2-.82,3.22,3.22,0,0,1-.88-2.46V16.51c0-.31,0-.62,0-.94s0-.66-.07-1l-1.32-.27v-.72l2.92-.77.41.33c0,.38-.05.82-.07,1.3s0,1,0,1.5l0,2a2.18,2.18,0,0,0,.53,1.62,1.85,1.85,0,0,0,1.37.5,2,2,0,0,0,1-.26,2.3,2.3,0,0,0,.87-.86V16.78c0-.28,0-.55,0-.82l0-.75a5.2,5.2,0,0,0-.06-.63l-1.41-.27v-.72l3-.77.36.29c0,.32,0,.62,0,.91s0,.58,0,.88v2.43q0,.87,0,1.5C47.61,19.26,47.64,19.59,47.66,19.82Z"/><path class="cls-2" d="M50.74,20.79c0-.45,0-.86,0-1.23s0-.74,0-1.1V14.29c0-.48,0-1,0-1.48s0-1,0-1.43,0-.83,0-1.15,0-.54,0-.66L49.29,9.4l0-.7,3-.83.42.29c0,.54,0,1.08,0,1.61s0,1.15,0,1.85,0,1.56,0,2.59l0,0a3.73,3.73,0,0,1,1.16-1,3,3,0,0,1,1.55-.42,3.51,3.51,0,0,1,1.78.47,3.57,3.57,0,0,1,1.31,1.36,4.31,4.31,0,0,1,.49,2.14,4.58,4.58,0,0,1-.64,2.42,4.47,4.47,0,0,1-1.76,1.69,5.23,5.23,0,0,1-2.51.6,8.14,8.14,0,0,1-1.71-.18A8.68,8.68,0,0,1,50.74,20.79Zm3.69-.45a2.22,2.22,0,0,0,1.75-.81,3.63,3.63,0,0,0,.73-2.38,2.9,2.9,0,0,0-.7-2.19,2.37,2.37,0,0,0-1.72-.71,2.5,2.5,0,0,0-1,.23,2.46,2.46,0,0,0-.88.7v4.58a3,3,0,0,0,.83.43A3.28,3.28,0,0,0,54.43,20.34Z"/><path class="cls-2" d="M60.18,21.31l-.06-.75,1.2-.31c0-.07,0-.18,0-.33s0-.37,0-.65,0-.62,0-1V16.75c0-.28,0-.54,0-.81s0-.51-.06-.75a6,6,0,0,0-.1-.61L60,14.31v-.72l2.86-.77.39.33-.1,1.06.06,0a3.88,3.88,0,0,1,1.26-1.11,2.88,2.88,0,0,1,1.35-.34,2.65,2.65,0,0,1,1.35.38,2.81,2.81,0,0,1,1,1.13,4.06,4.06,0,0,1,.41,1.93l0,2c0,.46,0,.87,0,1.24a4.27,4.27,0,0,0,.07.76l1.15.31-.06.75h-4l-.06-.75,1-.31c0-.11,0-.25,0-.42s0-.38,0-.63,0-.53,0-.85l0-2a2.78,2.78,0,0,0-.24-1.25,1.57,1.57,0,0,0-.64-.68,1.69,1.69,0,0,0-.86-.22,2.33,2.33,0,0,0-1,.26,2.56,2.56,0,0,0-.87.81v2.88q0,.81,0,1.38a3.51,3.51,0,0,0,.09.75l1.12.31-.06.75Zm11,0-.06-.75,1.07-.31a3.47,3.47,0,0,0,0-.42c0-.17,0-.38,0-.63s0-.53,0-.85l0-2A2.68,2.68,0,0,0,72,15.1a1.62,1.62,0,0,0-.67-.7,1.82,1.82,0,0,0-.86-.23,2.45,2.45,0,0,0-1.13.28,2.51,2.51,0,0,0-.9.88l-.43-.73a4.94,4.94,0,0,1,1.44-1.36,3.11,3.11,0,0,1,1.64-.46,2.91,2.91,0,0,1,1.52.41,2.75,2.75,0,0,1,1.06,1.15,3.91,3.91,0,0,1,.38,1.79v2.12c0,.46,0,.87,0,1.24a5.56,5.56,0,0,0,.07.76l1.2.31,0,.75Z"/><path class="cls-2" d="M76.25,21.31l-.06-.77,1.3-.29c0-.05,0-.15,0-.3s0-.36,0-.64,0-.64,0-1.07V16.86c0-.46,0-.89,0-1.29a9.6,9.6,0,0,0-.12-1l-1.3-.27v-.72l3-.77.37.31c0,.4-.07.79-.09,1.19s0,.85,0,1.36v2.44c0,.54,0,1,0,1.39a4.68,4.68,0,0,0,.07.74l1.3.29,0,.77Zm2.26-10.48a1.3,1.3,0,0,1-1-.38,1.26,1.26,0,0,1,0-1.8,1.3,1.3,0,0,1,1-.38,1.28,1.28,0,1,1,0,2.56Z"/><path class="cls-2" d="M88,20a2.61,2.61,0,0,1-1,1.09,2.74,2.74,0,0,1-4.26-2.54L82.77,14H81.42v-.47l2.72-2.38h.47l0,2.38,0,4.72A2,2,0,0,0,85,19.63a1.58,1.58,0,0,0,1.19.44,1.92,1.92,0,0,0,.79-.16,2.51,2.51,0,0,0,.67-.44Zm-4.25-6V13h3.69V14Z"/></g></g></svg>