<svg xmlns="http://www.w3.org/2000/svg" viewBox="0 0 20.47 54.01"><defs><style>.cls-1,.cls-3{fill:none;stroke:#8a8e6d;stroke-miterlimit:10;}.cls-1{stroke-width:0.25px;}.cls-2{fill:#8a8e6d;}.cls-3{stroke-width:0.5px;}</style></defs><g id="Layer_2" data-name="Layer 2"><g id="Layer_1-2" data-name="Layer 1"><line class="cls-1" x1="10.23" y1="7.51" x2="10.23" y2="34.55"/><path class="cls-2" d="M13.63,37.82c-.13.56-.26,1.28-.5,2.16a18.83,18.83,0,0,1-1.06,3l-2.19,4.9-1.49-4.9-1.52-5,0-.13,0,0,3.28-3.28.08-.08.09.08Zm-.25,0-3.23-3.18h.17L7.05,37.91v-.17l5,1.52H8.39a12.44,12.44,0,0,0,2.22-.32A11.26,11.26,0,0,0,13.38,37.82Z"/><rect class="cls-3" x="0.25" y="0.25" width="19.97" height="53.51" rx="9.98"/></g></g></svg>