<svg xmlns="http://www.w3.org/2000/svg" viewBox="0 0 243.24 131.54"><defs><style>.cls-1{fill:#8a8e6d;}.cls-2{fill:#b69991;}</style></defs><g id="Layer_2" data-name="Layer 2"><g id="Layer_1-2" data-name="Layer 1"><path class="cls-1" d="M80.3,0H62.48l-.41,4.77,8.3,1.76a15.92,15.92,0,0,1,.41,3q.14,2,.2,6t.07,10.75V46a4.89,4.89,0,0,1,1.21-.15h2.61a4.92,4.92,0,0,1,3.25,1.22V14.31l30.31,42.55a4.86,4.86,0,0,1,2.07.67l5.25-8.44Zm50.19,71.21V71c-.9,1-1.7,2-2.42,2.8a38.62,38.62,0,0,1-2.85,3,20,20,0,0,1-1.59,1.36l1.56,2.19h5.44Q130.5,75.63,130.49,71.21ZM139.06,0H114l-.27,4.77,9.11,1.76a11.66,11.66,0,0,1,.28,2.38q.13,2.12.27,6.8t.13,13.13V45.89a5,5,0,0,1,3.8,7.68L124,58.76A7.49,7.49,0,0,1,126,61.62c0,.07,0,.13.07.2a5.84,5.84,0,0,1,.73,0h.79a5,5,0,0,1,3,1V28.84q0-8.3.14-13.06T131,8.91c.13-1.4.2-2.19.2-2.38l8.3-1.76ZM66.78,79a.67.67,0,0,0-.14.09,8.57,8.57,0,0,1-1.72.79h1.35a9.46,9.46,0,0,1,.67-.77Z"/><path class="cls-1" d="M173.51,58.74a13,13,0,0,1-2-1.42,9.51,9.51,0,0,1-3.27-6c-1.63-.42-3.36-.77-5.19-1.07l-.81-.12a9.65,9.65,0,0,1,0,1.78,9.12,9.12,0,0,1-.49,2.14h.25a5,5,0,0,1,2.5.67,6.6,6.6,0,0,1,3.11,7.51,6.8,6.8,0,0,1-.37,1.16l.11.33A11.51,11.51,0,0,1,168.67,62a10.89,10.89,0,0,1,3.55-2.41,10.36,10.36,0,0,1,1.32-.47ZM133.86,52v7.14a25.86,25.86,0,0,1,3.63-1.59l.15-.16A17.88,17.88,0,0,1,140.85,55c.06-.44.13-.89.21-1.34a18.41,18.41,0,0,1,1.07-3.71A43.71,43.71,0,0,0,133.86,52Zm42.62,56.53V99.16l5.85-1.5-.27-4.61H157.71l-.27,4.88,9.11,1.37a48.41,48.41,0,0,1,.4,5.3c.1,2.36.14,5.14.14,8.3v8.64a29.83,29.83,0,0,1-5.91,2.24,38.25,38.25,0,0,1-9.58,1.36A33.49,33.49,0,0,1,134.86,121a30,30,0,0,1-11.71-12.31q-4.34-8.18-4.34-20a43.6,43.6,0,0,1,.82-8.56,7.76,7.76,0,0,1-1.52.15,7,7,0,0,1-4.45-1.57,7.17,7.17,0,0,1-1.14-1.13l-.13.21a5,5,0,0,1-4.32,2.49H108a42.83,42.83,0,0,0-1.31,10.58q0,13.49,5.91,22.58a36.51,36.51,0,0,0,15.85,13.61,53.28,53.28,0,0,0,22.18,4.49,51.57,51.57,0,0,0,13.74-2,43.77,43.77,0,0,0,12.51-5.44c-.09-2.17-.19-4.4-.27-6.65S176.48,112.18,176.48,108.54Z"/><path class="cls-2" d="M6,75.24A8,8,0,0,0,10.15,74a19.08,19.08,0,0,0,3.92-3.19,38.49,38.49,0,0,0,3.71-4.57q1.81-2.56,3.49-5.33t3.26-5.48q1.57-2.72,3-5a42.47,42.47,0,0,1,2.82-3.9A8,8,0,0,1,33,44.36c.09,0,.17,0,.25.12s.1.18,0,.21a17,17,0,0,0-1.88,4.65,30,30,0,0,0-.75,4.77c-.13,1.61-.18,3.2-.17,4.79s0,3.16-.1,4.69a27.57,27.57,0,0,1-.6,4.49,13.84,13.84,0,0,1-1.68,4.17,69.1,69.1,0,0,0,4.52-6.1C34,64,35.31,62,36.54,59.94s2.42-4,3.55-5.81a46.77,46.77,0,0,1,3.38-4.83A17.2,17.2,0,0,1,46.92,46a6.32,6.32,0,0,1,3.71-1.25,3.27,3.27,0,0,1,1.85.58,1.78,1.78,0,0,1,.85,1.54,3.18,3.18,0,0,1-.39,1.41,2.61,2.61,0,0,1-.46.58.91.91,0,0,1-.64.25,1.17,1.17,0,0,1-.59-.21A1.06,1.06,0,0,1,50.8,48a1.13,1.13,0,0,1,.5-1,1.26,1.26,0,0,0,.58-.95.69.69,0,0,0-.44-.66,1.65,1.65,0,0,0-.89-.17,6.12,6.12,0,0,0-3.63,1.49,21,21,0,0,0-3.45,3.72A60.73,60.73,0,0,0,40,55.73q-1.78,3-3.78,6.2c-1.33,2.15-2.77,4.29-4.32,6.44a53.42,53.42,0,0,1-5.1,6l-.87.87-.75,0a7.93,7.93,0,0,0,1.62-3.57,30.4,30.4,0,0,0,.5-4.62c.05-1.67.07-3.43,0-5.28a41.43,41.43,0,0,1,.29-5.56,25.18,25.18,0,0,1,1.24-5.38,14,14,0,0,1,2.87-4.77,11.14,11.14,0,0,0-2,2.41q-1.1,1.65-2.4,3.86c-.87,1.46-1.81,3.06-2.8,4.79s-2,3.46-3.14,5.19-2.24,3.39-3.44,5a35.11,35.11,0,0,1-3.74,4.25,19.23,19.23,0,0,1-4,3,8.49,8.49,0,0,1-4.15,1.12,7.29,7.29,0,0,1-2.41-.39,5.57,5.57,0,0,1-1.93-1.15A5,5,0,0,1,.46,72.29,6.15,6.15,0,0,1,0,69.84a5.2,5.2,0,0,1,.46-2.18A5.61,5.61,0,0,1,1.68,65.9a5.78,5.78,0,0,1,1.79-1.19,5.34,5.34,0,0,1,2.13-.43A5.07,5.07,0,0,1,9,65.21a3.33,3.33,0,0,1,1.23,2.06,3,3,0,0,1-.46,2,1.89,1.89,0,0,1-1.68.93A1.21,1.21,0,0,1,7.32,70,.91.91,0,0,1,7,69.26a.87.87,0,0,1,.38-.73,1.51,1.51,0,0,1,.91-.27,1,1,0,0,0,1-.54,1.33,1.33,0,0,0,0-1.18,2.85,2.85,0,0,0-1.17-1.18,4.54,4.54,0,0,0-2.4-.54,4.87,4.87,0,0,0-1.87.37,5.51,5.51,0,0,0-1.64,1A5.13,5.13,0,0,0,1,67.85,4.73,4.73,0,0,0,.58,70a4.85,4.85,0,0,0,.48,2.18A5.31,5.31,0,0,0,2.3,73.8a5.58,5.58,0,0,0,1.75,1.06A5.43,5.43,0,0,0,6,75.24Z"/><path class="cls-2" d="M43.62,61.83a3,3,0,0,1,2.3.79,2.57,2.57,0,0,1,.69,1.91l1.7-2.7h2.61L45,71.58a3,3,0,0,0-.58,2.24c.16.56.47.83.91.83a3.46,3.46,0,0,0,2.2-1.18q1.24-1.18,3.4-3.51L52,68.74c.35-.37.65-.71.89-1s.59-.65.83-1h.79l-3.25,3.78c-.93,1.07-1.76,2-2.49,2.65a12.07,12.07,0,0,1-2,1.56,3.35,3.35,0,0,1-1.7.52,2.1,2.1,0,0,1-1.8-1,3.45,3.45,0,0,1-.44-2.57,13.81,13.81,0,0,1-2.32,2.65,4.19,4.19,0,0,1-2.83,1.08,2.86,2.86,0,0,1-2-.76,3.76,3.76,0,0,1-1.06-2,6.84,6.84,0,0,1,.11-2.82,9,9,0,0,1,1.47-3.2,13.29,13.29,0,0,1,3.46-3.54A7,7,0,0,1,43.62,61.83Zm.41.54a4.08,4.08,0,0,0-2.65,1.14,13.52,13.52,0,0,0-2.62,3.26,13.34,13.34,0,0,0-1.35,3A8.81,8.81,0,0,0,37,72.27,3.82,3.82,0,0,0,37.33,74a1.12,1.12,0,0,0,1,.67,2.42,2.42,0,0,0,1.49-.63,9.51,9.51,0,0,0,1.62-1.66c.55-.69,1.11-1.48,1.68-2.36l1.72-2.7a6.47,6.47,0,0,0,.9-2,4,4,0,0,0,0-1.56A1.74,1.74,0,0,0,44,62.37Z"/><path class="cls-2" d="M60.88,61.83a3,3,0,0,1,2.31.79,2.56,2.56,0,0,1,.68,1.91l8.38-13.66h2.62L62.25,71.58a3,3,0,0,0-.58,2.24c.17.56.47.83.91.83a3.46,3.46,0,0,0,2.2-1.18Q66,72.29,68.19,70c.38-.44.75-.85,1.1-1.22s.64-.71.89-1,.58-.65.83-1h.79l-3.26,3.78c-.93,1.07-1.76,2-2.49,2.65a12.05,12.05,0,0,1-2,1.56,3.38,3.38,0,0,1-1.7.52,2.12,2.12,0,0,1-1.81-1,3.41,3.41,0,0,1-.43-2.57,13.85,13.85,0,0,1-2.33,2.65A4.19,4.19,0,0,1,55,75.44a2.84,2.84,0,0,1-2.05-.76,3.7,3.7,0,0,1-1.06-2,6.82,6.82,0,0,1,.1-2.82,9.42,9.42,0,0,1,1.47-3.2,13.17,13.17,0,0,1,3.47-3.54A7,7,0,0,1,60.88,61.83Zm.42.54a4.1,4.1,0,0,0-2.66,1.14A13.51,13.51,0,0,0,56,66.77a13.34,13.34,0,0,0-1.35,3,8.86,8.86,0,0,0-.44,2.53A3.69,3.69,0,0,0,54.6,74a1.1,1.1,0,0,0,1,.67,2.47,2.47,0,0,0,1.5-.63,9.86,9.86,0,0,0,1.61-1.66,27.38,27.38,0,0,0,1.69-2.36c.56-.89,1.14-1.79,1.72-2.7a6.19,6.19,0,0,0,.89-2,3.78,3.78,0,0,0,0-1.56,1.74,1.74,0,0,0-.62-1A1.79,1.79,0,0,0,61.3,62.37Z"/><path class="cls-2" d="M70.93,75.28a2.06,2.06,0,0,1-1.46-.54,2.6,2.6,0,0,1-.76-1.48,4.91,4.91,0,0,1,.1-2.13,9.22,9.22,0,0,1,1.12-2.58l4.19-6.72h2.62L70.8,71.58a3,3,0,0,0-.58,2.24c.17.56.47.83.91.83a3.46,3.46,0,0,0,2.2-1.18q1.24-1.18,3.41-3.51c.38-.44.75-.85,1.1-1.22s.64-.71.89-1,.58-.65.83-1h.79l-3.26,3.78c-.93,1.07-1.76,2-2.49,2.65a12.05,12.05,0,0,1-2,1.56A3.38,3.38,0,0,1,70.93,75.28Zm5.14-18a1.42,1.42,0,0,1,.42-1,1.36,1.36,0,0,1,1-.44A1.5,1.5,0,0,1,79,57.27a1.36,1.36,0,0,1-.44,1,1.42,1.42,0,0,1-1,.42,1.43,1.43,0,0,1-1.45-1.45Z"/><path class="cls-2" d="M72.5,88.56a3.25,3.25,0,0,1-2.41-.89,2.93,2.93,0,0,1-.87-2.1A4,4,0,0,1,70,83.22a8.83,8.83,0,0,1,2.1-2,20,20,0,0,1,3.23-1.82c1.26-.59,2.67-1.17,4.22-1.75a17.69,17.69,0,0,0,2.57-1.12l3.82-6.35A38.49,38.49,0,0,1,82.17,74a4.35,4.35,0,0,1-2.74,1.25A2.05,2.05,0,0,1,78,74.74a2.67,2.67,0,0,1-.77-1.48,4.92,4.92,0,0,1,.11-2.13,8.94,8.94,0,0,1,1.12-2.58l4.19-6.72h2.61l-5.93,9.75a3,3,0,0,0-.58,2.24c.16.56.47.83.91.83a3.46,3.46,0,0,0,2.2-1.18q1.25-1.18,3.4-3.51c.56-.6,1.05-1.16,1.5-1.66l1-1.12,3.2-5.35h2.61L86,74.28a32.11,32.11,0,0,0,3.82-3.15,31.27,31.27,0,0,0,3.73-4.36h.79a31,31,0,0,1-4.56,5.35,30,30,0,0,1-4.57,3.49l-1.78,3c-.61,1-1.29,2.15-2.06,3.32a24.22,24.22,0,0,1-2.51,3.23,13.64,13.64,0,0,1-3,2.47A6.49,6.49,0,0,1,72.5,88.56Zm9-11a11.78,11.78,0,0,1-1.54.62c-1.52.58-2.9,1.15-4.13,1.7a20.76,20.76,0,0,0-3.13,1.71,7.77,7.77,0,0,0-2,1.84,3.52,3.52,0,0,0-.71,2.1,2.29,2.29,0,0,0,.25,1.12,2.54,2.54,0,0,0,.62.75,2.39,2.39,0,0,0,.81.41,3.09,3.09,0,0,0,.81.13,3.39,3.39,0,0,0,2.14-.88,14.15,14.15,0,0,0,2.1-2.22c.69-.9,1.38-1.89,2.07-3l2-3.22Z"/><path class="cls-2" d="M100.64,61.83a3,3,0,0,1,2.3.79,2.53,2.53,0,0,1,.69,1.91l1.7-2.7h2.61L102,71.58a3,3,0,0,0-.58,2.24c.16.56.47.83.91.83a3.46,3.46,0,0,0,2.2-1.18c.83-.79,2-2,3.4-3.51l1.1-1.22q.52-.55.9-1c.3-.33.58-.65.83-1h.78l-3.25,3.78c-.93,1.07-1.76,2-2.49,2.65a12.49,12.49,0,0,1-2,1.56,3.41,3.41,0,0,1-1.71.52,2.11,2.11,0,0,1-1.8-1,3.45,3.45,0,0,1-.44-2.57,13.81,13.81,0,0,1-2.32,2.65,4.19,4.19,0,0,1-2.82,1.08,2.88,2.88,0,0,1-2.06-.76,3.76,3.76,0,0,1-1.06-2,6.84,6.84,0,0,1,.11-2.82,9,9,0,0,1,1.47-3.2,13.17,13.17,0,0,1,3.47-3.54A7,7,0,0,1,100.64,61.83Zm.42.54a4.08,4.08,0,0,0-2.66,1.14,13.52,13.52,0,0,0-2.62,3.26,13.75,13.75,0,0,0-1.34,3A8.86,8.86,0,0,0,94,72.27,3.82,3.82,0,0,0,94.35,74a1.13,1.13,0,0,0,1,.67,2.42,2.42,0,0,0,1.49-.63,9.51,9.51,0,0,0,1.62-1.66,25.37,25.37,0,0,0,1.68-2.36c.57-.89,1.14-1.79,1.73-2.7a6.41,6.41,0,0,0,.89-2,3.78,3.78,0,0,0,0-1.56,1.72,1.72,0,0,0-1.76-1.39Z"/><path class="cls-2" d="M105.37,75.28l15.15-24.41h2.61l-10,15.57c.31-.39.69-.85,1.14-1.37a17.23,17.23,0,0,1,1.46-1.5,10.75,10.75,0,0,1,1.6-1.22,3,3,0,0,1,1.61-.52,2.51,2.51,0,0,1,1.37.39,2.36,2.36,0,0,1,.92,1.17,3.62,3.62,0,0,1,.08,1.91,7.94,7.94,0,0,1-1.12,2.63L118,71.58a3,3,0,0,0-.58,2.24c.16.56.47.83.91.83a3.46,3.46,0,0,0,2.2-1.18q1.24-1.18,3.4-3.51l1.1-1.22c.35-.37.65-.71.89-1s.59-.65.83-1h.79l-3.25,3.78c-.93,1.07-1.76,2-2.49,2.65a12.51,12.51,0,0,1-2,1.56,3.38,3.38,0,0,1-1.7.52,2.11,2.11,0,0,1-1.35-.48,2.6,2.6,0,0,1-.85-1.35,4.71,4.71,0,0,1,0-2.12,8.72,8.72,0,0,1,1.21-2.78l1.86-3a3,3,0,0,0,.63-2.24c-.17-.55-.45-.83-.83-.83a2.72,2.72,0,0,0-1.58.81,16.87,16.87,0,0,0-2,2.08c-.72.84-1.46,1.77-2.22,2.78s-1.47,2-2.12,2.94-1.23,1.82-1.72,2.58-.85,1.3-1,1.64Z"/><path class="cls-2" d="M163.27,76.11a9.25,9.25,0,0,1-2.14,1.55,5.5,5.5,0,0,1-2.55.56,8.5,8.5,0,0,1-4-.93,11.88,11.88,0,0,1-3.24-2.51,10.79,10.79,0,0,1-2.11.64,12.06,12.06,0,0,1-2.37.23,11.14,11.14,0,0,1-5-1,7.76,7.76,0,0,1-3.07-2.55,6.56,6.56,0,0,1-1.14-3.53,8.58,8.58,0,0,1,.77-3.9A11.5,11.5,0,0,1,141.08,61a14.28,14.28,0,0,1,4.55-2.84,21,21,0,0,1,.35-3.65,13.19,13.19,0,0,1,1.18-3.61,8.16,8.16,0,0,1,2.22-2.76,5.38,5.38,0,0,1,3.47-1.1,4.68,4.68,0,0,1,3.3,1.16,3.61,3.61,0,0,1,1.06,3.19,4.15,4.15,0,0,1-.92,2.16,8.52,8.52,0,0,1-2,1.81,15.61,15.61,0,0,1-2.7,1.43,32.07,32.07,0,0,1-3,1.08q.13,1.9.48,4c.24,1.37.54,2.73.91,4.07a36.88,36.88,0,0,0,1.33,3.88,20.15,20.15,0,0,0,1.77,3.4,11.69,11.69,0,0,0,3.3-3.46A11.37,11.37,0,0,0,158,65.81a2.32,2.32,0,0,0-.78-2.53,6,6,0,0,0-.73,0,2.7,2.7,0,0,0-.77.19,2.63,2.63,0,0,0-1.6,1.37,1.74,1.74,0,0,0,.11,1.78l-.46.13a2.94,2.94,0,0,1-.46-1.41,4.08,4.08,0,0,1,.19-1.44,3.32,3.32,0,0,1,.71-1.2,2.92,2.92,0,0,1,1.14-.77,5,5,0,0,1,1.78-.25l1.83.09a5,5,0,0,0,2.36-.31c.53-.27.83-.56.92-.9a1.31,1.31,0,0,0-.54-1.24l.29-.25a1.65,1.65,0,0,1,.74,2,3.4,3.4,0,0,1-1,1.64,3.27,3.27,0,0,1-2.39.77,6.51,6.51,0,0,1-1.24-.12,2.65,2.65,0,0,1,.45,1.07,4.61,4.61,0,0,1,0,1.58,10.8,10.8,0,0,1-1.59,4.07,11.84,11.84,0,0,1-3.55,3.61,10,10,0,0,0,1.12,1.41,8.4,8.4,0,0,0,1.35,1.18,6.22,6.22,0,0,0,1.57.83,5.18,5.18,0,0,0,1.81.32,5.68,5.68,0,0,0,2-.38,5.5,5.5,0,0,0,1.89-1.2Zm-12.33-1.79A17.32,17.32,0,0,1,148.76,71a29.26,29.26,0,0,1-1.6-3.86,31.26,31.26,0,0,1-1.49-8.07,9.58,9.58,0,0,0-2.76,2.55,11.34,11.34,0,0,0-1.7,3.34,10.73,10.73,0,0,0-.52,3.55,7.33,7.33,0,0,0,.79,3.22,5.72,5.72,0,0,0,2.24,2.34,7.38,7.38,0,0,0,3.86.89,8.86,8.86,0,0,0,1.74-.16A10.29,10.29,0,0,0,150.94,74.32Zm-2.41-17.1a11.2,11.2,0,0,0,4.92-2.72,5.25,5.25,0,0,0,1.6-3.17,4,4,0,0,0-.64-2.59,2.17,2.17,0,0,0-1.81-1,2.69,2.69,0,0,0-1.66.52,4.18,4.18,0,0,0-1.2,1.43,8.17,8.17,0,0,0-.79,2.16,15.75,15.75,0,0,0-.38,2.74c0,.41,0,.84-.06,1.28S148.5,56.75,148.53,57.22Z"/><path class="cls-2" d="M179.28,67.47a1.05,1.05,0,0,0,1-.49,1.2,1.2,0,0,0,0-1.12,2.62,2.62,0,0,0-1.16-1.12,4.8,4.8,0,0,0-2.41-.5,5.87,5.87,0,0,0-2.18.41,5.48,5.48,0,0,0-3,3,6,6,0,0,0-.45,2.34,4.5,4.5,0,0,0,.52,2.18,5.64,5.64,0,0,0,1.3,1.66,5.91,5.91,0,0,0,1.77,1.06,5.13,5.13,0,0,0,1.84.38,7.53,7.53,0,0,0,3.26-.67,8.86,8.86,0,0,0,2.49-1.76,15.31,15.31,0,0,0,2-2.49q.9-1.39,1.77-2.82c.58-1,1.19-1.89,1.84-2.81A12.34,12.34,0,0,1,190,62.33c.09-.08.09-.16,0-.23a.21.21,0,0,0-.27,0,14.5,14.5,0,0,1-2.86,1.39,8.62,8.62,0,0,1-2.78.44,5.5,5.5,0,0,1-2.8-.71,5.39,5.39,0,0,1-2-1.87,5.86,5.86,0,0,1-.87-2.67,7.35,7.35,0,0,1,.43-3.18,9.69,9.69,0,0,1-4.25-2,5,5,0,0,1-1.64-4,4.92,4.92,0,0,1,.54-2.26,5.66,5.66,0,0,1,1.49-1.82,7.21,7.21,0,0,1,2.22-1.21,8.34,8.34,0,0,1,2.72-.43,9.45,9.45,0,0,1,2.14.25,9,9,0,0,1,2.22.83.22.22,0,0,1,.14.31c0,.15-.18.16-.43,0a9.07,9.07,0,0,0-2-.73,8.93,8.93,0,0,0-2-.23,7.39,7.39,0,0,0-2.51.42,6.9,6.9,0,0,0-2.06,1.12,5.53,5.53,0,0,0-1.39,1.66,4.15,4.15,0,0,0-.52,2,4.82,4.82,0,0,0,1.5,3.74,7.79,7.79,0,0,0,4,1.82A22.26,22.26,0,0,1,184.91,48a19.57,19.57,0,0,1,4.46-2.72,12.62,12.62,0,0,1,5.15-1.08A4.39,4.39,0,0,1,198,45.37a3,3,0,0,1,.5,3.05A6.64,6.64,0,0,1,196.94,51a11.27,11.27,0,0,1-2.47,2,17,17,0,0,1-3.07,1.45,23.77,23.77,0,0,1-3.34.94,25.73,25.73,0,0,1-3.3.43,22.36,22.36,0,0,1-2.94,0,10.87,10.87,0,0,0-.63,3.32,5.4,5.4,0,0,0,.46,2.35A2.91,2.91,0,0,0,183,62.85a4,4,0,0,0,1.89.43,7.12,7.12,0,0,0,2.94-.68,16.06,16.06,0,0,0,2.62-1.54c.83-.59,1.62-1.2,2.38-1.82a12.85,12.85,0,0,1,2.27-1.52c.05,0,.13,0,.22,0s.12.15.07.23A17.9,17.9,0,0,0,193.6,60c-.55.77-1.06,1.52-1.53,2.27s-.89,1.44-1.25,2.07-.66,1.15-.91,1.54c-1,1.55-2,2.92-2.91,4.13a18,18,0,0,1-3,3A12.54,12.54,0,0,1,180.63,75a11.8,11.8,0,0,1-4.08.66,6.77,6.77,0,0,1-2.27-.39,6,6,0,0,1-1.93-1.15A5.8,5.8,0,0,1,171,72.29a5.68,5.68,0,0,1-.51-2.45,6.06,6.06,0,0,1,.47-2.41,6.5,6.5,0,0,1,1.29-2,5.94,5.94,0,0,1,1.93-1.31,6.24,6.24,0,0,1,2.41-.47,5.25,5.25,0,0,1,3.36.89,3.1,3.1,0,0,1,1.22,2,2.76,2.76,0,0,1-.45,2,1.92,1.92,0,0,1-1.68.9,1.22,1.22,0,0,1-.73-.23.88.88,0,0,1-.31-.77.86.86,0,0,1,.37-.73A1.51,1.51,0,0,1,179.28,67.47Zm2.79-12.16a16.25,16.25,0,0,0,4.15-.22A26.46,26.46,0,0,0,191,53.82a16.9,16.9,0,0,0,4.25-2.26,6.42,6.42,0,0,0,2.47-3.22,2.74,2.74,0,0,0-.31-2.63A2.9,2.9,0,0,0,195,44.65a6.6,6.6,0,0,0-2.53.56,14.89,14.89,0,0,0-2.63,1.45,21,21,0,0,0-2.56,2.06A31.16,31.16,0,0,0,185,51.06a22.09,22.09,0,0,0-1.78,2.3A13.28,13.28,0,0,0,182.07,55.31Z"/><path class="cls-2" d="M199.33,61.83a3,3,0,0,1,2.3.79,2.53,2.53,0,0,1,.69,1.91l1.7-2.7h2.61l-5.93,9.75a3,3,0,0,0-.58,2.24c.17.56.47.83.91.83a3.46,3.46,0,0,0,2.2-1.18c.83-.79,2-2,3.4-3.51l1.1-1.22q.53-.55.9-1c.3-.33.58-.65.83-1h.79q-1.87,2.16-3.26,3.78c-.93,1.07-1.76,2-2.49,2.65a12.49,12.49,0,0,1-2,1.56,3.39,3.39,0,0,1-1.71.52,2.11,2.11,0,0,1-1.8-1,3.45,3.45,0,0,1-.44-2.57,13.81,13.81,0,0,1-2.32,2.65,4.19,4.19,0,0,1-2.82,1.08,2.88,2.88,0,0,1-2.06-.76,3.76,3.76,0,0,1-1.06-2,6.84,6.84,0,0,1,.11-2.82,9,9,0,0,1,1.47-3.2,13.17,13.17,0,0,1,3.47-3.54A7,7,0,0,1,199.33,61.83Zm.42.54a4.08,4.08,0,0,0-2.66,1.14,13.52,13.52,0,0,0-2.62,3.26,13.75,13.75,0,0,0-1.34,3,8.52,8.52,0,0,0-.44,2.53A3.82,3.82,0,0,0,193,74a1.13,1.13,0,0,0,1,.67,2.42,2.42,0,0,0,1.49-.63,9.51,9.51,0,0,0,1.62-1.66,25.37,25.37,0,0,0,1.68-2.36c.57-.89,1.14-1.79,1.73-2.7a6.41,6.41,0,0,0,.89-2,3.78,3.78,0,0,0,0-1.56,1.72,1.72,0,0,0-1.76-1.39Z"/><path class="cls-2" d="M209.37,75.28a2.05,2.05,0,0,1-1.45-.54,2.67,2.67,0,0,1-.77-1.48,4.92,4.92,0,0,1,.11-2.13,8.94,8.94,0,0,1,1.12-2.58l11-17.68H222l-12.7,20.71a3,3,0,0,0-.58,2.24c.16.56.47.83.91.83a3.46,3.46,0,0,0,2.2-1.18q1.25-1.18,3.4-3.51l1.1-1.22c.35-.37.65-.71.89-1s.59-.65.83-1h.79l-3.25,3.78c-.93,1.07-1.76,2-2.49,2.65a12.07,12.07,0,0,1-2,1.56A3.35,3.35,0,0,1,209.37,75.28Z"/><path class="cls-2" d="M217.88,75.28a2.05,2.05,0,0,1-1.45-.54,2.67,2.67,0,0,1-.77-1.48,5.07,5.07,0,0,1,.1-2.13,9.52,9.52,0,0,1,1.12-2.58l4.2-6.72h2.61l-5.93,9.75a3,3,0,0,0-.59,2.24c.17.56.48.83.92.83a3.48,3.48,0,0,0,2.2-1.18q1.25-1.18,3.4-3.51c.39-.44.75-.85,1.1-1.22s.64-.71.89-1,.58-.65.83-1h.79L224,70.55a34,34,0,0,1-2.49,2.65,12.05,12.05,0,0,1-2,1.56A3.38,3.38,0,0,1,217.88,75.28Zm5.15-18a1.45,1.45,0,0,1,.41-1,1.38,1.38,0,0,1,1-.44,1.49,1.49,0,0,1,1.45,1.46,1.35,1.35,0,0,1-.43,1,1.42,1.42,0,0,1-1,.42A1.42,1.42,0,0,1,223,57.27Z"/><path class="cls-2" d="M221.08,75.28l15.14-24.41h2.62l-10,15.57c.3-.39.68-.85,1.14-1.37a18.7,18.7,0,0,1,1.45-1.5,11.3,11.3,0,0,1,1.6-1.22,3,3,0,0,1,1.62-.52,2.54,2.54,0,0,1,1.37.39,2.34,2.34,0,0,1,.91,1.17,3.62,3.62,0,0,1,.08,1.91,7.73,7.73,0,0,1-1.12,2.63l-2.24,3.65a3,3,0,0,0-.58,2.24c.17.56.47.83.91.83a3.46,3.46,0,0,0,2.2-1.18q1.25-1.18,3.41-3.51c.38-.44.75-.85,1.1-1.22s.64-.71.89-1,.58-.65.83-1h.79L240,70.55c-.93,1.07-1.76,2-2.49,2.65a12.05,12.05,0,0,1-2,1.56,3.38,3.38,0,0,1-1.7.52,2.11,2.11,0,0,1-1.35-.48,2.54,2.54,0,0,1-.85-1.35,4.44,4.44,0,0,1,0-2.12,8.45,8.45,0,0,1,1.2-2.78l1.87-3a2.92,2.92,0,0,0,.62-2.24c-.17-.55-.44-.83-.83-.83a2.77,2.77,0,0,0-1.58.81,18.44,18.44,0,0,0-2,2.08c-.72.84-1.46,1.77-2.22,2.78s-1.47,2-2.12,2.94-1.22,1.82-1.72,2.58-.84,1.3-1,1.64Z"/></g></g></svg>