<svg xmlns="http://www.w3.org/2000/svg" viewBox="0 0 111.23 19.39"><defs><style>.cls-1{fill:#b69991;}</style></defs><g id="Layer_2" data-name="Layer 2"><g id="Layer_1-2" data-name="Layer 1"><path class="cls-1" d="M2.84,20.65c0-.15.07-.6.11-1.35s0-1.68,0-2.79V11.72C3,10.53,3,9.55,3,8.8a10.87,10.87,0,0,0-.11-1.29L1.13,7.18,1.18,6h7a7.24,7.24,0,0,1,4.18,1A3.32,3.32,0,0,1,13.72,9.9a3.23,3.23,0,0,1-1.23,2.56,5.34,5.34,0,0,1-3.21,1.19l-.16-.22a7.06,7.06,0,0,1,4,1.17,3.44,3.44,0,0,1,1.4,2.91,4,4,0,0,1-1.85,3.43,9.11,9.11,0,0,1-5.11,1.25H1.18L1.13,21Zm2.92-3.34c0,.79,0,1.49,0,2.11s0,1,.06,1.2c.22,0,.52.08.89.12a7.45,7.45,0,0,0,1,.07,4.65,4.65,0,0,0,2.9-.76,2.66,2.66,0,0,0,1-2.24,2.77,2.77,0,0,0-1.05-2.38,5.15,5.15,0,0,0-3.14-.79H6.14a4,4,0,0,0-.71.06V13.15c.31,0,.6,0,.88,0l.93,0a3.8,3.8,0,0,0,2.59-.79,2.75,2.75,0,0,0,.91-2.21,2.68,2.68,0,0,0-.85-2.13,3.76,3.76,0,0,0-2.51-.74H5.81c0,.13,0,.53,0,1.2s0,1.44,0,2.3Z" transform="translate(-1.13 -3.04)"/><path class="cls-1" d="M21.05,22.41a4.16,4.16,0,0,1-2-.48,3.61,3.61,0,0,1-1.35-1.2,2.56,2.56,0,0,1-.47-1.43,2.18,2.18,0,0,1,.6-1.57,4.54,4.54,0,0,1,2-1.05L24,15.3V14a1.91,1.91,0,0,0-.4-1.2A2.86,2.86,0,0,0,22.53,12a3.23,3.23,0,0,0-1.46-.33,1.1,1.1,0,0,0-.85.26,1.9,1.9,0,0,0-.28,1l-.08,1.32A3,3,0,0,1,18,14.19a1.1,1.1,0,0,1-.76-1.06,1.48,1.48,0,0,1,.46-1,5.71,5.71,0,0,1,1.16-.94,8.75,8.75,0,0,1,1.5-.75A6.8,6.8,0,0,1,21.87,10a5.16,5.16,0,0,1,3.46,1.09A3.67,3.67,0,0,1,26.64,14l-.06,4.38c0,.38,0,.74,0,1.06a3.23,3.23,0,0,0,.13.73l1.79.33v1l-1.49.58a6.36,6.36,0,0,1-.77.26,2.27,2.27,0,0,1-.63.1,1.25,1.25,0,0,1-1.24-1l-.36-1.16.47.06a8,8,0,0,1-1.74,1.55A3.22,3.22,0,0,1,21.05,22.41Zm1-1.9a2.26,2.26,0,0,0,1-.25,3.16,3.16,0,0,0,.93-.74V16.68l-2.7.66a1.79,1.79,0,0,0-.95.51,1.37,1.37,0,0,0-.29.9A1.66,1.66,0,0,0,20.63,20,2,2,0,0,0,22,20.51Z" transform="translate(-1.13 -3.04)"/><path class="cls-1" d="M29.72,22.19l-.08-1.08,1.71-.44c0-.09,0-.25,0-.48s0-.54.06-.92,0-.87,0-1.46l0-2.12c0-.59,0-1.15-.07-1.7a13.55,13.55,0,0,0-.17-1.39l-1.77-.38v-1l4.08-1.1.55.46L34,12.05l.09,0A6.23,6.23,0,0,1,36,10.54,4.56,4.56,0,0,1,38,10a3.78,3.78,0,0,1,2,.54,3.93,3.93,0,0,1,1.48,1.61,5.67,5.67,0,0,1,.56,2.67v3q0,1,0,1.77a5.11,5.11,0,0,0,.11,1.06l1.71.44-.08,1.08h-6l-.06-1.08,1.6-.44c0-.14,0-.34.06-.59s0-.54,0-.89,0-.76,0-1.22V15.22a4,4,0,0,0-.38-1.86,2.48,2.48,0,0,0-1-1A2.65,2.65,0,0,0,36.88,12a3.34,3.34,0,0,0-1.58.4,3.8,3.8,0,0,0-1.25,1.12v4.1c0,.79,0,1.45,0,2a5.48,5.48,0,0,0,.12,1l1.71.44-.08,1.08Z" transform="translate(-1.13 -3.04)"/><path class="cls-1" d="M45.31,22.19l-.08-1.08,1.57-.44a5.52,5.52,0,0,0,.08-1q0-.67.06-1.62c0-.64,0-1.32,0-2.05V12.19c0-.68,0-1.37,0-2.07s0-1.36,0-2,0-1.17,0-1.64,0-.8,0-1l-2-.28-.06-1L49.06,3l.61.42-.06,1.73c0,.57,0,1.17,0,1.79s0,1.31,0,2v2.45l0,6.59c0,.47,0,.89,0,1.25s0,.65,0,.88,0,.39,0,.48l1.71.44-.08,1.08Zm13.14,0H54.84c-.31-.42-.57-.75-.77-1s-.4-.47-.6-.69l-3.64-4h-.74l0-.77,1-.27L54,11.69l-1.82-.33.08-1.1H58l0,1.1-1.82.33L51.4,15.94l.36-1,4,4.35.86.9c.29.3.53.53.71.7l1.19.25Z" transform="translate(-1.13 -3.04)"/><path class="cls-1" d="M66.64,20.65c0-.15.07-.6.11-1.35s0-1.68,0-2.79V11.72c0-1.19,0-2.17,0-2.92a10.87,10.87,0,0,0-.11-1.29l-1.71-.33L65,6h6.94a7.26,7.26,0,0,1,4.19,1A3.32,3.32,0,0,1,77.52,9.9a3.23,3.23,0,0,1-1.23,2.56,5.36,5.36,0,0,1-3.21,1.19l-.16-.22a7.06,7.06,0,0,1,4,1.17,3.47,3.47,0,0,1,1.4,2.91,3.93,3.93,0,0,1-1.86,3.43,9.09,9.09,0,0,1-5.11,1.25H65l0-1.16Zm2.92-3.34c0,.79,0,1.49,0,2.11s0,1,.06,1.2c.22,0,.52.08.89.12a7.43,7.43,0,0,0,1,.07,4.66,4.66,0,0,0,2.91-.76,2.66,2.66,0,0,0,1-2.24,2.77,2.77,0,0,0-1.05-2.38,5.15,5.15,0,0,0-3.14-.79H69.94a3.92,3.92,0,0,0-.71.06V13.15c.31,0,.6,0,.88,0l.93,0a3.8,3.8,0,0,0,2.59-.79,2.75,2.75,0,0,0,.91-2.21,2.68,2.68,0,0,0-.85-2.13,3.76,3.76,0,0,0-2.51-.74H69.61c0,.13,0,.53,0,1.2s0,1.44,0,2.3Z" transform="translate(-1.13 -3.04)"/><path class="cls-1" d="M89.72,22.44a10.38,10.38,0,0,1-4.46-.93,7.28,7.28,0,0,1-3.16-2.75,8.2,8.2,0,0,1-1.17-4.51,8.82,8.82,0,0,1,.63-3.34,7.66,7.66,0,0,1,1.85-2.7,8.7,8.7,0,0,1,2.92-1.79,10.8,10.8,0,0,1,3.83-.65A14,14,0,0,1,92.61,6a10.27,10.27,0,0,1,2.2.65l.2,3.91-1.38.11L92.78,8a4,4,0,0,0-1.31-.49,7.6,7.6,0,0,0-1.56-.17,5.56,5.56,0,0,0-3.17.84,5.06,5.06,0,0,0-1.84,2.3,8.41,8.41,0,0,0-.61,3.28,8.6,8.6,0,0,0,.79,3.86A5.75,5.75,0,0,0,87.18,20a5.5,5.5,0,0,0,2.95.83,5.61,5.61,0,0,0,1.54-.21A4.85,4.85,0,0,0,93,20l1.13-2.56,1.46.16-.8,3.53a11.11,11.11,0,0,1-5.09,1.27Z" transform="translate(-1.13 -3.04)"/><path class="cls-1" d="M96.08,22.19,96,21l1.37-.38,5.65-14,1.82-1.08L111,20.65l1.4.38-.08,1.16h-6.12L106.08,21l1.71-.38-1.57-3.94-.3-.88-3-7.17.69-.19L101,15.83l-.31.82-1.4,4L101,21l-.06,1.16Zm4-5v-1.6l1.37.06c.56,0,1.25,0,2.08,0s1.52,0,2.09,0l1.35-.06V17.2l-1.65,0-1.79,0-1.74,0Z" transform="translate(-1.13 -3.04)"/></g></g></svg>