<svg xmlns="http://www.w3.org/2000/svg" viewBox="0 0 115.6 106.08"><defs><style>.cls-1{opacity:0.48;}.cls-2{fill:#b69991;}</style></defs><g id="Layer_2" data-name="Layer 2"><g id="Layer_1-2" data-name="Layer 1"><g class="cls-1"><path class="cls-2" d="M.2,73.18c.06-1.83.16-3.66.29-5.48q.47-6.8,1-13.57a32.36,32.36,0,0,1,.41-3.68c0-.19.17-.58.34-.28.31.53.48.08.62,0,1.81-1.23,3.59-2.49,5.39-3.73,3-2.08,6-4.17,9.16-6.05a.74.74,0,0,0,.36-.56,5.74,5.74,0,0,1,.85-2.1c.25-.35.54-.75,1-.76a3.27,3.27,0,0,0,1.64-.6,14.17,14.17,0,0,1,4.31-1.41A5.66,5.66,0,0,1,27,34.82a2.63,2.63,0,0,1,2.4,2.11,14.88,14.88,0,0,0,.66,2c.23.51.65.39,1,.4s.39-.35.45-.61a21.52,21.52,0,0,0,.27-3.11C32,33.39,33.1,32,35.13,31.69a6.93,6.93,0,0,1,1.29-.06c.3,0,.42-.08.39-.4-.08-.78-.1-1.57-.19-2.35a75.2,75.2,0,0,1-.33-8.75,2.43,2.43,0,0,1,1.51-2.41c3.47-1.62,7-3.12,10.5-4.62.41-.18.53-.27.21-.72a5.38,5.38,0,0,1-.36-5.85c.36-.73.82-1.35,1.79-1.28A.93.93,0,0,0,50.45,5a14.11,14.11,0,0,1,4.94-1.75c2.28-.42,3.31.23,4,2.46a10.45,10.45,0,0,0,.52,1.55c.22.5.62.43,1,.42s.4-.34.46-.61A20.43,20.43,0,0,0,61.64,4C61.78,1.93,62.79.56,64.55.17A8.39,8.39,0,0,1,67.1,0c1.63.12,3.22.54,4.88.53a2.84,2.84,0,0,1,2.51,2,5.07,5.07,0,0,1,.15,1.9c0,.15-.12.35.1.44s.26-.1.37-.18A13.06,13.06,0,0,1,78,3.16a2.52,2.52,0,0,1,3.67,2.47,8.27,8.27,0,0,1-1.33,4.58,15.66,15.66,0,0,1-1.64,2.17c3.47.18,6.83.42,10.18.72a40.47,40.47,0,0,1,4.25.41c.33.07.79.25.67.56a4.14,4.14,0,0,0,0,1.68c0,2.45-.13,4.89-.24,7.34-.22,5-.4,10-.57,15-.18,5.46-.33,10.93-.49,16.39-.06,2-.11,3.9-.2,5.84,0,1-.08,1,.89.91,2.43-.23,3.79,1,3.92,3.4,0,.64.06,1.28.15,1.92,0,.27,0,.65.43.71s.58-.23.69-.56.26-.81.4-1.21c.54-1.53,1.29-1.88,2.9-1.72,1.81.19,3.33,1.17,5,1.66a1.08,1.08,0,0,1,.48.42,4.23,4.23,0,0,1,0,5.21c-.21.29-.3.42.07.64,2.45,1.41,4.72,3.12,7.08,4.66.68.44,1.3.84.85,1.79a1.4,1.4,0,0,0,0,.5c.14,2.94.34,5.88.42,8.83.12,4.94,0,9.88-.28,14.82a4.15,4.15,0,0,1-.28,1.39.83.83,0,0,1-1.38.35.79.79,0,0,0-.7-.21c-.36,0-.71.07-1.07.09-3.23.17-6.46.17-9.7.19L84,104.23a5,5,0,0,1-3.51-.81,70.81,70.81,0,0,1-7.06-7.73c-.14-.16-.31-.32-.27-.56.15-.88-.15-1.75,0-2.62,0-.32,0-.51-.43-.4a7.92,7.92,0,0,1-2.33.17,1.19,1.19,0,0,0-.94.41c-1.24,1.33-2.49,2.64-3.77,3.94-1.91,1.93-3.83,3.84-5.76,5.75a26.85,26.85,0,0,0-2.11,2c-.62.77-1.91.4-2.28,1.49,0,.07-.25.1-.39.11a9.54,9.54,0,0,1-1.77.08l-12.67-.68c-2.87-.15-5.75-.29-8.62-.45q-9.42-.56-18.85-1.13c-2.11-.13-4.21-.39-6.32-.49A41,41,0,0,0,1.52,103c-.54,0-1.21-.43-1.23-.84,0-1.14-.11-2.27-.13-3.41,0-1.71,0-3.43,0-5.14C0,86.82,0,80,.2,73.18ZM19.24,38a4.63,4.63,0,0,0-.76,3.17,6.15,6.15,0,0,0,1.38,3.07h0l-.15.44h0c-.37.25-.57,0-.77-.26A5.18,5.18,0,0,1,17.66,41l-7.6,5.76a60.81,60.81,0,0,1,11.37.7,3.67,3.67,0,0,1-1.46-2h0l0-1.28.05-.05a2.14,2.14,0,0,0,.66-2.44.67.67,0,0,1,.06-.55c.88-1.4-.58-2.28-.8-3.43C19.88,37.28,19.4,37.72,19.24,38ZM28,44.07,26.4,44c-1.3-.06-2.6-.16-3.91-.18-.65,0-1.37,0-1.64.84a1.82,1.82,0,0,0,.89,2.07,5.44,5.44,0,0,0,1.93.69,18.4,18.4,0,0,0,4.45.31C27.13,46.5,26.92,45.34,28,44.07Zm.48-7.43a1.66,1.66,0,0,0-1.51-1,7.48,7.48,0,0,0-2.65.47,33,33,0,0,0-3.19,1.19c-.39.16-.5.33-.34.75.25.63.43,1.29.67,2a4.39,4.39,0,0,1,2.87-.82,42.11,42.11,0,0,1,4.35.1c.28,0,.56,0,1,0A13.76,13.76,0,0,1,28.48,36.64Zm1.74,3.5c-.24-.19-.48-.1-.7-.09l-5.9.26a2.11,2.11,0,0,0-1.39.45,1.26,1.26,0,0,0-.39,1.41c.15.54.52.7,1.07.73,2.31.16,4.63.37,6.94.55l.83,0C30,42.37,29.32,41.34,30.22,40.14Zm-1.65,6.3a2.54,2.54,0,0,0,2.32,1.15c2,.07,4,0,6,0a30.92,30.92,0,0,1-5.07-2.56,3.12,3.12,0,0,0-2.52-.45A1.16,1.16,0,0,0,28.57,46.44Zm2.18-4.59a5.09,5.09,0,0,0,1.72,2.65,19.44,19.44,0,0,0,6.34,3.25c-1.85-2.16-3.65-4.26-5.47-6.34a2.51,2.51,0,0,0-1.27-.87C31.12,40.3,30.49,40.92,30.75,41.85Zm15.37,3.72c2.35-2.12,4.47-4.34,4.75-7.71a4.26,4.26,0,0,0-.09-1.19A1.37,1.37,0,0,0,49,35.58a10,10,0,0,0-4.75,3.16C47.1,40.44,47,42.87,46.12,45.57ZM85.92,68a3.19,3.19,0,0,1,1.27-1.14,8.26,8.26,0,0,0-3.26-2.28,1.07,1.07,0,0,0-1.59,1,6.16,6.16,0,0,0,1.54,4.32c.38.49.82.93,1.23,1.39.1.11.23.22.37.14s0-.25,0-.36A4.07,4.07,0,0,1,85.92,68ZM90,65.25c0-.52,0-1,0-1.57a1,1,0,0,0-.75-1,1.11,1.11,0,0,0-1.17.5,2,2,0,0,0-.23,1.9,15.25,15.25,0,0,0,1,2.34,2.34,2.34,0,0,1,.29,1.09,6.57,6.57,0,0,0,1.69,4.27c.2.26.34.29.52,0a.87.87,0,0,1,.09-.11c.3-.37.77-.7.85-1.11s-.53-.66-.8-1A8,8,0,0,1,90,65.25ZM73.38,16.1a7,7,0,0,1-1.45.58h0a.6.6,0,0,0-.62.24h.63c3.56.37,7.15.55,10.7,1a3,3,0,0,1,2.85,3.29c-.07,3.06-.24,6.12-.36,9.18-.07,1.52-.15,3-.19,4.56-.13,4.54-.2,9.08-.35,13.61-.15,4.73-.35,9.45-.54,14.18,0,.55.06.89.67,1.1a14,14,0,0,1,1.79,1c.17-.11.1-.27.11-.4,0-4.61.21-9.22.46-13.82q.44-8.17.72-16.37c.14-3.85.32-7.69.68-11.52.09-.95.22-1.89.25-2.84a2.27,2.27,0,0,0-2-2.64c-1.87-.45-3.82-.4-5.71-.71-1.71-.28-3.45-.44-5.13-.82A3.27,3.27,0,0,0,73.38,16.1Zm2.12-5a3.42,3.42,0,0,0-1-2.55,1.15,1.15,0,0,0-1.18-.32c-.44.14-.5.54-.53.92a9.1,9.1,0,0,1-1.55,4.59,4.54,4.54,0,0,1-1.58,1.5c-.14.08-.33.15-.26.37a.41.41,0,0,0,.41.32C72.28,16,75.54,14.52,75.5,11.12ZM90.07,74.7a.93.93,0,0,0-.86-.23c-2.12.61-4.32.52-6.56.86a3,3,0,0,0,2.13.89C86.86,76.13,89,76.06,91,76c.16,0,.33.07.52-.11A7.85,7.85,0,0,1,90.07,74.7ZM91,73.44a6.06,6.06,0,0,1-2.66-4.8c0-.34-.06-.71-.44-.82a.88.88,0,0,0-.92.42,2.94,2.94,0,0,0-.29,3.21A3.93,3.93,0,0,0,91,73.44ZM83.7,71.55c-2.23,0-4.46-.15-6.69-.23h-.69c.76.51,1.29,1.22,2.46.92a16,16,0,0,1,5.53,0l.89.09A1.91,1.91,0,0,0,83.7,71.55ZM80,59.67c0,3.21.16,6.41.22,9.62,0,.5.2.58.63.55,1.31-.1,1.51-.43,1-1.67-.56-1.5-.86-3,.36-4.34.14-.16.1-.36.11-.55.16-3.92.3-7.83.47-11.75q.42-10.19.88-20.36c.14-3,.34-6,.5-9A2.9,2.9,0,0,0,84,20.58c-1.2.62-2.27,1.42-3.48,2-.27.11-.17.36-.17.56,0,3.16-.06,6.32-.15,9.48C80,41.61,79.81,50.64,80,59.67ZM80.4,21c.69-.46,1.41-.87,2.12-1.29-3.09-.5-6.13-1-9.17-1.49l-3.16-.54a1.08,1.08,0,0,0-.56,0c-1.71.69-3.57,1-5.2,1.91-.05,0-.08.1-.17.2,1.78.16,3.49.29,5.21.45l9.92,1A1.45,1.45,0,0,0,80.4,21ZM65.17,17.9a15.8,15.8,0,0,1,2.72-.55h0c.27.07.5,0,.85-.24H61.21c-1.14-.05-2.27-.11-3.4-.11a9.8,9.8,0,0,0-5.26,1.9,4,4,0,0,0-1.87,3.58c0,4.06.08,8.12.12,12.18a.72.72,0,0,0,.1.4,4.07,4.07,0,0,1,.73,4c-.11.5-.05.65.48.68,2.68.12,5.36.27,8,.43.48,0,.35-.28.36-.51,0-1.35.08-2.71.13-4.06.14-4.13.28-8.26.45-12.39A5.28,5.28,0,0,1,65.17,17.9Zm1.93-1.66a.7.7,0,0,0-.48-.28,37.63,37.63,0,0,1-5.07-2.56,3.08,3.08,0,0,0-2.31-.47,1.24,1.24,0,0,0-.64,2.18A3.19,3.19,0,0,0,61,16c1.54.06,3.09.08,4.63.12h0A4,4,0,0,0,67.1,16.24ZM57.83,12.4c-2-.07-3.8-.15-5.64-.2-.66,0-1.31.09-1.53.87A1.8,1.8,0,0,0,51.43,15a6.56,6.56,0,0,0,3,.93,15.15,15.15,0,0,0,3.53.14A2.56,2.56,0,0,1,57.83,12.4ZM51.4,41.47a1,1,0,0,0-1,.53,11.35,11.35,0,0,1-2.48,2.83c-.21.18-.42.36-.76.67,2.81.06,5.42-.15,8-.23a64.51,64.51,0,0,1,9.53.19,1,1,0,0,0,.68-.12l4.49-2.9s.07-.1.15-.21c-1.8-.09-3.55-.23-5.29-.26C60.27,41.89,55.84,41.62,51.4,41.47Zm-6-.29A2.54,2.54,0,0,0,44.42,40c-.71-.49-1.33-.2-1.48.67a17.22,17.22,0,0,1-.28,1.75,6.88,6.88,0,0,1-2.89,4.47c-.12.07-.36.08-.24.34a.51.51,0,0,0,.65.31,7,7,0,0,0,3.35-1A4.34,4.34,0,0,0,45.35,41.18Zm-5.14,4.64a8.18,8.18,0,0,0,1.78-5,5.62,5.62,0,0,1,.91-2.43,6.59,6.59,0,0,0,1-3.17,2.35,2.35,0,0,0-.64-1.54,1.47,1.47,0,0,0-1.63-.44,1.34,1.34,0,0,0-.91,1.32c0,.64,0,1.28,0,1.81A10.37,10.37,0,0,1,38.28,44c-.72.82-.71.83,0,1.68a1.07,1.07,0,0,1,.14.16C39.36,47,39.35,47,40.21,45.82ZM36.63,32.51c-2.82-.12-3.73.67-4,3.46a20.72,20.72,0,0,1-.3,3.33c-.07.25.1.39.32.47a5.26,5.26,0,0,1,2.17,1.79l2.58,3a15.45,15.45,0,0,0,2.18-5.33A12,12,0,0,0,39.62,36a4.36,4.36,0,0,1,.86-3.31C39.14,32.67,37.88,32.56,36.63,32.51Zm1.46-12.28c-.05,3-.45,6-.74,9-.05.54,0,1.1-.08,1.63-.12.73.25.87.86.91,1.42.09,2.81.42,4.24.46a2.85,2.85,0,0,1,2.44,2.68,11.21,11.21,0,0,1,0,1.42h0c-.12.14-.21.32-.07.47s.18-.06.23-.17a10.1,10.1,0,0,1,3.95-2c.48-.09.44-.4.44-.73,0-2.9,0-5.8,0-8.7a17.88,17.88,0,0,1,.23-4.26c.09-.39-.13-.37-.38-.39-1.8-.13-3.59-.28-5.39-.4s-3.42-.22-5.12-.32C38.35,19.76,38.09,19.74,38.09,20.23ZM44.23,17c-.69-.45-1.23-.1-1.83.2-1.1.55-2.22,1.07-3.33,1.61-.2.1-.46.12-.59.4A111.39,111.39,0,0,1,49.74,19a1.25,1.25,0,0,0,1.12-.44,6.16,6.16,0,0,1,1.49-1.11,1.38,1.38,0,0,0-.8-.14l-6.48-.19A1.75,1.75,0,0,1,44.23,17Zm1.1-1.3,6.6.74h0a1,1,0,0,0,.75.1c-.11-.19-.31-.19-.46-.25a3.54,3.54,0,0,1-2.44-2.54c-.07-.34-.24-.27-.46-.16ZM58.28,5a1.83,1.83,0,0,0-2.14-1,21.72,21.72,0,0,0-5.33,1.73c-.32.14-.33.34-.23.63.2.53.36,1.08.54,1.62h0c-.06.14.07.37-.17.41s-.24-.13-.29-.26C50.43,7.58,50.21,7,50,6.47c-.08-.21-.1-.51-.39-.52a.68.68,0,0,0-.56.39,4.73,4.73,0,0,0-.61,3.82,5.6,5.6,0,0,0,1,2.09c.21.27.36.36.57,0a2.36,2.36,0,0,1,.52-.57c.21-.17.3-.3.17-.59a2.35,2.35,0,0,1,.68-2.83c1.51-.85,3.16-.68,4.79-.66,1,0,2.08,0,3.22,0A15.27,15.27,0,0,1,58.28,5ZM55.81,8.58l-2.2.09a2.53,2.53,0,0,0-1.6.51,1.18,1.18,0,0,0-.35,1.35,1,1,0,0,0,1,.72c2.2.15,4.4.35,6.59.52l1.27.08c-.76-1.11-1.33-2.18-.43-3.46Zm5,.57a1.09,1.09,0,0,0-.12,1.38,6.07,6.07,0,0,0,2.16,2.75,23.44,23.44,0,0,0,4.84,2.52,1,1,0,0,0,.8.09c-1.27-1.48-2.53-3-3.81-4.4a14.93,14.93,0,0,0-1.81-2,2.73,2.73,0,0,0-.58-.4A1.33,1.33,0,0,0,60.79,9.15ZM65.1,1a2.62,2.62,0,0,0-2.56,2.43c-.28,1.42,0,2.9-.44,4.31a.34.34,0,0,0,.24.4c1.34.47,2,1.64,2.92,2.63.55.63,1.09,1.26,1.62,1.9.21.27.32.35.54,0a13.19,13.19,0,0,0,2-8.36A4.2,4.2,0,0,1,70.33,1C68.5,1.12,66.8.74,65.1,1Zm8.57,2.49a2.07,2.07,0,0,0-.93-1.6,1.36,1.36,0,0,0-2.24,1,18.94,18.94,0,0,0,0,2,10.5,10.5,0,0,1-2.15,7.26c-.3.38-.94.63-.87,1.11s.56.73.85,1.11c.81,1,.8,1,1.59,0a8.09,8.09,0,0,0,1.89-5.1A5.18,5.18,0,0,1,72.61,7,6.68,6.68,0,0,0,73.67,3.44ZM80.54,7.3a5.06,5.06,0,0,0,.09-2.12A1.39,1.39,0,0,0,78.77,4a10.07,10.07,0,0,0-4.84,3.22,3.61,3.61,0,0,1,2.45,2.93,5.77,5.77,0,0,1-.52,3.72c.1,0,.16.06.17.05C78.08,12.06,79.91,10.08,80.54,7.3Zm10.82,7.33c-2-.07-4.07-.18-6.11-.22-2.54,0-5.08-.09-7.6-.3a2.94,2.94,0,0,0-2.3.9c1.42.08,2.74.13,4.05.22,2.48.16,5,.34,7.43.71.11,0,.26,0,.35.05,1,.65,1.92.15,2.8-.41.45-.29.94-.52,1.42-.77Zm1.8.13L89.66,17c-.19.12-.27.26-.14.47.88,1.42.66,3,.48,4.51s-.28,3.22-.35,4.83c-.16,3.47-.23,6.94-.33,10.41-.17,5.84-.49,11.67-.8,17.51-.12,2.16-.13,4.32-.21,6.48,0,.44.09.65.56.48a.46.46,0,0,1,.2,0c1,0,1,0,1-1,.33-6.52.64-13.05,1-19.57.28-4.86.6-9.72,1-14.57C92.38,22.59,92.58,18.73,93.16,14.76Zm3.28,52.52c-.21-1.38.11-2.84-.56-4.14a1.92,1.92,0,0,0-1.77-1c-1.18,0-2.37,0-3.55,0l-.08.19A3.42,3.42,0,0,1,91,65.05a10.61,10.61,0,0,0,1.29,5.68c.23.46.39.52.71.1s.92-1.09,1.39-1.63c.26-.31.54-.6.79-.92S96.5,67.69,96.44,67.28Zm1.1,1.23c-.42-.37-.84-.17-1.24.09A6.68,6.68,0,0,0,95,69.93L92,73.49a11.65,11.65,0,0,0,3.79-1.82,4.66,4.66,0,0,0,1.8-2C97.71,69.26,97.93,68.85,97.54,68.51Zm-.5,3.3a33.41,33.41,0,0,1-3.14,1.64h0c-.17,0-.31.08-.56.27a11.31,11.31,0,0,0,2.13-.08l.16,0c.69,0,1.37,0,2.06,0a2,2,0,0,0,1.52-.65.88.88,0,0,0,.25-1,.94.94,0,0,0-.85-.54A2.7,2.7,0,0,0,97,71.81ZM98.39,68A2.37,2.37,0,0,1,98,70.43l6-.46a.61.61,0,0,0,.57-.55.87.87,0,0,0-.26-.91,1.39,1.39,0,0,0-.79-.31C101.83,68.1,100.13,68,98.39,68Zm1.71,5.77a10.67,10.67,0,0,0,4.51-.69,1.34,1.34,0,0,0,.74-.91c.19-.67,0-1.07-.71-1.19a3.55,3.55,0,0,0-.92,0c-1.16,0-2.31.1-3.56.16A2.17,2.17,0,0,1,100.1,73.72ZM104,65.38a14.37,14.37,0,0,0-2.5-.83,1.55,1.55,0,0,0-2,1.12c-.18.49-.36,1-.54,1.48,2,.18,4.09-.42,6,.45C105.67,65.52,105.8,66.11,104,65.38Zm3.17,2.89a3.15,3.15,0,0,0-.54-2c-.23-.34-.45-.4-.62.08a6.15,6.15,0,0,1-.61,1.42c-.08.11-.12.2,0,.32a2.09,2.09,0,0,1,.17,1.84c-.12.39.33.61.56.82s.35-.21.47-.38A3.71,3.71,0,0,0,107.19,68.27Zm.83,5.18-1.37-1.13c-.21-.18-.4-.3-.51.1s-.41.6-.68,1a13.2,13.2,0,0,1,2.25.19h0l.66.27A.48.48,0,0,0,108,73.45Zm1.48,1.2c-.47-.32-1.11-.1-1.68-.15a52.63,52.63,0,0,0-5.33,0,3.47,3.47,0,0,0-.46.09,5.3,5.3,0,0,1,2.18,1.57c.16.19.38.15.59.16,2.56.11,5.1.35,7.73.69C111.48,76.16,110.53,75.35,109.5,74.65Zm-4.45,27.93q3.89.09,7.76.26c.47,0,.59-.1.64-.56.51-5.15.76-10.32,1.08-15.49.11-1.84,0-3.7,0-5.55h.15c0-.72,0-1.43,0-2.14a1.33,1.33,0,0,0-1.39-1.4c-2.57.09-5.13.24-7.7.18-.29,0-.37.09-.29.38,1.13,4.25.38,8.54.19,12.82-.1,2.15-.29,4.31-.46,6.46-.13,1.49-.28,3-.46,4.46C104.52,102.42,104.57,102.57,105.05,102.58Zm-9.39-.78c-.07.56,0,.75.61.74,2,0,4,0,5.92,0,.49,0,.64-.16.69-.64.4-3.77.86-7.54,1.22-11.32a82.43,82.43,0,0,0,.61-8.74,8.6,8.6,0,0,0-2-5.88,3.44,3.44,0,0,0-2.94-1.41c-2.38.15-4.76.25-7.2.21,1.93.73,2.56,2.31,2.83,4.13.14.94.21,1.88.31,2.83.31,3.26.5,6.54.52,9.82A77.8,77.8,0,0,1,95.66,101.8Zm-12,.64c1.66,0,3.32,0,5,0v.09c1.59,0,3.19,0,4.78,0,.46,0,.65-.08.7-.59.23-2.22.38-4.45.49-6.68.19-3.75.24-7.5.17-11.25a45.86,45.86,0,0,0-.29-5c-.14-1.17-.2-1.2-1.33-1.23-2.92-.07-5.84-.13-8.76-.25-.67,0-.81.15-.74.77A78.15,78.15,0,0,1,84,88.93a87.11,87.11,0,0,1-.93,12.91C83,102.33,83.14,102.45,83.63,102.44Zm-3.33-1.82c.34.33.64.7,1,1.06l.2-.12c.29-3,.61-6.07.89-9.11.41-4.49.55-9,.92-13.49.1-1.14-.16-1.77-1.12-2.2a.78.78,0,0,1-.18-.11c-1-.68-1.19-.62-1.31.64-.1,1-.11,2-.13,3-.07,3.33-.11,6.65-.18,10s-.18,6.46-.28,9.68A.82.82,0,0,0,80.3,100.62ZM78.61,99a42.93,42.93,0,0,0,.24-5.19c.13-4.63.49-9.25.53-13.89a19.82,19.82,0,0,1,.21-3c.33-1.94,1.21-2.68,3.16-2.83h4.89c.32,0,.47,0,.1-.27a1.68,1.68,0,0,1-.37-.21,3.32,3.32,0,0,0-2.84-.76c-1.72.15-3.46.1-5.18.37a1.8,1.8,0,0,0-1.72,1.84c-.06.78-.1,1.56-.12,2.35q-.24,9-.47,18c0,.19,0,.38,0,.57C76.84,97.84,77,98,78.61,99ZM74,95.4c.5.32.94.73,1.41,1.09.11.09.22.24.36.17s.12-.25.13-.39,0-.14,0-.21c.11-4.73.2-9.45.35-14.18.07-2.2,0-4.41.24-6.61A3.16,3.16,0,0,1,76.78,74c.37-.61.13-.9-.38-1.22s-1.21-.87-1.8-1.31a.46.46,0,0,0-.13.47c.07,3,.08,6-.1,9-.28,4.45-.48,8.91-.89,13.36A1,1,0,0,0,74,95.4Zm-2.52-4.25a1.36,1.36,0,0,1,.49,0c1.19.21,1.2.21,1.23-1,.18-6.11.28-12.21.2-18.32,0-1.26.43-1.74,1.71-1.83.83-.06,1.66-.07,2.49-.11,1,0,1,.15.9-1-.15-3.51-.22-7-.25-10.27.08-5.47.17-10.68.44-15.87q.44-8.47,1.14-16.92c.08-1,.17-1.94.29-2.9,0-.38-.06-.49-.44-.5-3.61-.17-7.21-.34-10.82-.54-1.89-.1-3.79-.26-5.68-.43a.66.66,0,0,0-.82.62,8.71,8.71,0,0,0-.25,2c0,5.21,0,10.41,0,15.62,0,.53.22.6.67.65,2.77.26,5.54.35,8.3.69a2.66,2.66,0,0,1,.86.3c.17.09.32.17.17.37A1.6,1.6,0,0,0,72,42.88a51.29,51.29,0,0,1-.1,6.2c0,1.23-.15,2.46-.19,3.7-.17,5.27-.32,10.54-.5,15.81-.21,6.11-.33,12.21-.41,18.32,0,1.11,0,2.23-.13,3.34C70.58,90.91,70.72,91.26,71.45,91.15Zm-5-44.88a4.87,4.87,0,0,1,.81,3.53c-.1,1.94-.07,3.89-.07,5.84,0,7.67-.61,15.34-.44,23,.11,5,.29,10,.27,15.11l1.73-1.35c.15-.12.12-.22,0-.35a1.71,1.71,0,0,1-.29-1.22c0-5.44.21-10.88.51-16.31.16-3,.29-6,.46-9,.25-4.51.58-9,1-13.5.29-3.21.48-6.43,1-9.72l-4.8,3.49C66.52,45.94,66.29,46,66.5,46.27ZM61.18,74.82c0,5.09,0,10.17.08,15.26,0,2.7.18,5.41.27,8.09.2.11.29,0,.39-.12,1-.86,2.08-1.73,3.14-2.58a.92.92,0,0,0,.4-.84c-.08-2-.18-4-.2-6-.06-4.54-.21-9.08-.15-13.62.09-5.75.42-11.49.78-17.23a2.62,2.62,0,0,0,0-.28c.06-2.83.13-5.66.16-8.49,0-1.83-.49-2.28-2.29-2.43-3.78-.33-7.55,0-11.33-.1A26.94,26.94,0,0,1,47,46a1.11,1.11,0,0,0-.93.23,18.76,18.76,0,0,1-2.52,1.59h0l-.31.15a3.14,3.14,0,0,0,1.61,0l13.77-.18h.92c1.64,0,2.45.79,2.4,2.42-.07,2.23-.22,4.46-.33,6.69-.07,1.28-.15,2.56-.19,3.84Q61.18,67.76,61.18,74.82Zm-5.84,9c0,6.46.39,12.92.62,19.48,1.27-1.13,2.45-2.2,3.64-3.24.32-.28.2-.62.18-.93-.31-6-.35-12-.35-18,0-4.84.11-9.69.27-14.54.17-5,.46-10.06.7-15.1,0-.35.06-.7.09-1.07-.34-.07-.5.18-.7.31-1,.65-1.9,1.34-2.9,2a2.8,2.8,0,0,0-1.42,2.65C55.43,64.82,55.28,74.3,55.34,83.79Zm.21-31.9c1.18-.83,2.37-1.64,3.6-2.49a.76.76,0,0,0-.57-.1l-13.89.15a18.8,18.8,0,0,1-3.75-.31,1.49,1.49,0,0,0-1.08.17,17.32,17.32,0,0,0-3.54,2.36c2.31.13,4.41.22,6.52.37,3.69.26,7.38.56,11.07.83.45,0,1,.26,1.12-.52C55.06,52.17,55.36,52,55.55,51.89ZM34.87,88.11c.11,4.68.24,9.36.23,14,0,.5.09.69.65.71q8.76.42,17.5.91c.43,0,.39-.17.41-.45.07-1.72-.15-3.42-.21-5.13-.16-4.53-.26-9.07-.15-13.61,0-1.21.05-2.42.07-3.63.12-5.37.44-10.73.82-16.08.24-3.39.52-6.77.92-10.14,0-.44,0-.54-.5-.56-5.48-.18-11-.39-16.45-.59-.81,0-1.62,0-2.42-.13-.52-.05-.73.18-.84.63a12.1,12.1,0,0,0-.35,2.82q0,6.38,0,12.76C34.49,75.81,34.74,82,34.87,88.11ZM17.4,55.67c.39,6,.32,12,.49,18,.13,5,.28,9.93.42,14.89q.18,6.48.35,13c0,.37,0,.61.52.63q6.84.27,13.67.58c.53,0,.7-.09.67-.65-.15-2.78-.28-5.55-.37-8.33C32.87,84.47,32.91,75.23,33,66c0-3.4,0-6.79.2-10.19A7,7,0,0,1,38.09,49h0c.18,0,.32-.06.56-.25H31.82c-2.21-.33-4.45,0-6.66-.23a.64.64,0,0,0-.47.13,23.37,23.37,0,0,1-4.44,2.37A4.35,4.35,0,0,0,17.4,55.67ZM17.71,51a10.25,10.25,0,0,1,5.12-2.12,3.86,3.86,0,0,0,.49-.1c.06,0,.1-.09.21-.18C18.75,48.27,14,48,9.31,48.06a3.1,3.1,0,0,0-1.93.67c-1.29,1-2.63,1.86-3.95,2.79,3.43-.16,6.85-.18,10.26-.26l3.28,0A1.06,1.06,0,0,0,17.71,51Zm-16,18.19Q2,79,2.2,88.68c.1,4.14.38,8.26.37,12.4,0,.45.2.49.55.5,1.45,0,2.9.06,4.35.1,2.88.09,5.75.18,8.62.3.62,0,.81-.1.78-.76-.39-7.74-.56-15.49-.65-23.24-.07-6.77-.16-13.55-.06-20.32a18.13,18.13,0,0,1,.42-4.53c.14-.54-.19-.47-.49-.49-2.33-.1-4.66-.18-7-.3-1.81-.08-3.61-.21-5.41-.29-.29,0-.48-.33-.69-.23-.39.18-.82.28-.87.94C1.8,58.24,1.65,63.73,1.74,69.22Z"/><path class="cls-2" d="M51.12,8l.28.29C51.11,8.35,51.21,8.06,51.12,8Z"/><path class="cls-2" d="M67.21,17.25l-5,0a1.66,1.66,0,0,1-1-.11,1.64,1.64,0,0,0,.7.05c1.8,0,3.61,0,5.41,0,.18,0,.49-.22.57.17C67.69,17.17,67.44,17.25,67.21,17.25Z"/><path class="cls-2" d="M37.43,48.91l-4.92,0c-.23,0-.48.07-.69-.11a1.7,1.7,0,0,0,.71,0c1.66,0,3.33,0,5,0,.19,0,.49-.2.57.18C37.91,48.82,37.65,48.91,37.43,48.91Z"/><path class="cls-2" d="M86.86,74c.29,0,.62.13.88-.12-.07.39-.37.19-.56.19-1.47.06-3-.06-4.43.07A28.19,28.19,0,0,1,86.86,74Z"/><path class="cls-2" d="M95.63,73.61l-.16,0a4.87,4.87,0,0,1-1,0c-.19,0-.49.19-.56-.19h0C94.45,73.75,95.06,73.47,95.63,73.61Z"/><path class="cls-2" d="M44.83,47.93c-.43,0-.91.25-1.29-.16h0C43.94,48.06,44.41,47.8,44.83,47.93Z"/><path class="cls-2" d="M65.63,16.11h0c.32-.12.7.12,1-.15C66.34,16.34,66,16.13,65.63,16.11Z"/><path class="cls-2" d="M20,45.49c-.27-.23,0-.63-.26-.86C20.15,44.81,19.77,45.24,20,45.49Z"/><path class="cls-2" d="M19.86,44.19l.14,0C20,44.27,19.9,44.27,19.86,44.19Z"/><path class="cls-2" d="M71.93,16.68v.24A.14.14,0,0,1,71.93,16.68Z"/><path class="cls-2" d="M52.22,16.25c0,.28-.16.18-.29.15h0Z"/><path class="cls-2" d="M107.71,73.6h0c.11,0,.24,0,.31-.15C108,73.72,107.87,73.65,107.71,73.6Z"/><path class="cls-2" d="M45,36.64c-.26,0-.23-.13-.16-.3h0C44.83,36.45,44.83,36.59,45,36.64Z"/></g></g></g></svg>