<svg xmlns="http://www.w3.org/2000/svg" viewBox="0 0 123.2 15.83"><defs><style>.cls-1{fill:#b69991;}</style></defs><g id="Layer_2" data-name="Layer 2"><g id="Layer_1-2" data-name="Layer 1"><path class="cls-1" d="M5,15.84c0,.89,0,1.58,0,2.09s0,.88,0,1.1,0,.37,0,.44l2,.33L7,20.56H1.61l-.05-.76,1.94-.33c0-.11,0-.31,0-.62s0-.71,0-1.22,0-1.11,0-1.79V9.92c0-.38,0-.77,0-1.18s-.05-.84-.09-1.3l-2,.49-.08-.87L5,5.35c0,.39,0,.9,0,1.53S5,8.4,5,9.56Z" transform="translate(-1.38 -5.12)"/><path class="cls-1" d="M9.52,20.61l-.1-.69a47.73,47.73,0,0,0,4-4,13.06,13.06,0,0,0,2.12-3.09,6.54,6.54,0,0,0,.64-2.77,3.48,3.48,0,0,0-.82-2.42,2.91,2.91,0,0,0-2.32-.92A4.14,4.14,0,0,0,9.45,8.82l-.51-.36a5.08,5.08,0,0,1,1.77-2.27,4.51,4.51,0,0,1,2.67-.84,5.11,5.11,0,0,1,2.37.53,4.06,4.06,0,0,1,1.6,1.5,4.34,4.34,0,0,1,.57,2.26,8.2,8.2,0,0,1-1.73,4.57,26.21,26.21,0,0,1-5.29,5.26l.15-.44h5.82l.39,0,.25-.05.87-2.3.77.07-.44,3.94a5.65,5.65,0,0,0-.64-.07l-.62,0-1,0h-5.1l-1,0C10.11,20.58,9.81,20.6,9.52,20.61Z" transform="translate(-1.38 -5.12)"/><path class="cls-1" d="M26.78,12.47l-.18-.23a5.19,5.19,0,0,1,3.18,1.1A3.35,3.35,0,0,1,31,16a3.86,3.86,0,0,1-.81,2.4,5.76,5.76,0,0,1-2.08,1.72,6.08,6.08,0,0,1-2.73.63,6.82,6.82,0,0,1-1.79-.21A2.8,2.8,0,0,1,22.38,20a1.17,1.17,0,0,1-.43-.9.76.76,0,0,1,.25-.55.78.78,0,0,1,.57-.24,1.71,1.71,0,0,1,.67.12,5,5,0,0,1,.76.51l1.48,1.23-1.4-.33a6.3,6.3,0,0,0,2.64-.19,3.85,3.85,0,0,0,1.84-1.2,3.09,3.09,0,0,0,.67-2,3,3,0,0,0-.93-2.31A3.57,3.57,0,0,0,26,13.24l-.77,0c-.25,0-.53,0-.81.08l-.11-.95a5.83,5.83,0,0,0,3.08-1,2.72,2.72,0,0,0,1-2.21,2.2,2.2,0,0,0-.76-1.8,3.26,3.26,0,0,0-2.1-.62,4,4,0,0,0-1.72.38,4.41,4.41,0,0,0-1.52,1.22L21.75,8a4.32,4.32,0,0,1,1.72-1.9A4.81,4.81,0,0,1,26,5.35a4.21,4.21,0,0,1,2.81.9,3,3,0,0,1,1.07,2.39,3.43,3.43,0,0,1-.84,2.26A5.5,5.5,0,0,1,26.78,12.47Z" transform="translate(-1.38 -5.12)"/><path class="cls-1" d="M34.64,16V14.59l5.08-.66v1.35Z" transform="translate(-1.38 -5.12)"/><path class="cls-1" d="M51.39,16.15c0,1.17,0,2,0,2.41s0,.74,0,.91L53,19.8l-.05.76H48.1L48,19.8l2-.33c0-.17,0-.48,0-.91V7.29h.64l-6.15,8,.05-.54h9.11v1.36H43.37l-.15-.72L51,5.48h.49c0,.61,0,1.2,0,1.77s0,1.15,0,1.75Z" transform="translate(-1.38 -5.12)"/><path class="cls-1" d="M59.66,20.79a6.38,6.38,0,0,1-1.72-.21A2.8,2.8,0,0,1,56.76,20a1.2,1.2,0,0,1-.42-.9.79.79,0,0,1,.82-.79,1.48,1.48,0,0,1,.65.12,5.17,5.17,0,0,1,.7.51l1.56,1.23-1.41-.33a6.27,6.27,0,0,0,2.63-.14,3.71,3.71,0,0,0,1.82-1.15,3,3,0,0,0,.66-1.93,3.17,3.17,0,0,0-.5-1.84,3.66,3.66,0,0,0-1.85-1.18,22.51,22.51,0,0,0-3.88-.86l.87-7.12h6.28l-.18,1.63H59.35l-.56,5.21-.66-1.05A13,13,0,0,1,63.71,13a3.66,3.66,0,0,1,1.64,3.15,3.79,3.79,0,0,1-.81,2.38,5.61,5.61,0,0,1-2.12,1.64A6.53,6.53,0,0,1,59.66,20.79Z" transform="translate(-1.38 -5.12)"/><path class="cls-1" d="M70.28,14.54a4.26,4.26,0,0,1,1.6-1.89A4.08,4.08,0,0,1,74.13,12a4.69,4.69,0,0,1,2.24.52,3.92,3.92,0,0,1,2.13,3.61,4.33,4.33,0,0,1-.65,2.31,5,5,0,0,1-1.72,1.71,4.36,4.36,0,0,1-2.33.65,5,5,0,0,1-2.6-.65,4.38,4.38,0,0,1-1.74-1.87,6.58,6.58,0,0,1-.61-3,10.59,10.59,0,0,1,.61-3.65,9.9,9.9,0,0,1,4.38-5.23,11.94,11.94,0,0,1,3.41-1.3l.33.94a10.38,10.38,0,0,0-3.79,1.83,8,8,0,0,0-2.39,3.05,10.06,10.06,0,0,0-.81,4.14A7.31,7.31,0,0,0,71,17.59a3.49,3.49,0,0,0,1.15,1.62,3,3,0,0,0,1.83.56,2.58,2.58,0,0,0,2-.89,3.46,3.46,0,0,0,.79-2.38,3.25,3.25,0,0,0-.86-2.31,3,3,0,0,0-2.28-.9,3.5,3.5,0,0,0-1.21.21,3.65,3.65,0,0,0-1.07.66,5.08,5.08,0,0,0-.93,1.12Z" transform="translate(-1.38 -5.12)"/><path class="cls-1" d="M82,16V14.59l5.08-.66v1.35Z" transform="translate(-1.38 -5.12)"/><path class="cls-1" d="M94,20.56H92.39v-.64L98.69,6.4v.81H91.26a.6.6,0,0,0-.28.07L90,9.54l-.74-.13L90,5.48c.26,0,.47,0,.64,0l.57,0h7.64l1,0,.1.69Z" transform="translate(-1.38 -5.12)"/><path class="cls-1" d="M106.86,20.79a5.71,5.71,0,0,1-2.49-.51,4,4,0,0,1-1.64-1.39,3.44,3.44,0,0,1-.59-2,3.54,3.54,0,0,1,1-2.52A5.15,5.15,0,0,1,105.66,13l1,.23a5.49,5.49,0,0,0-2.36,1.58,3.13,3.13,0,0,0-.7,1.94,3,3,0,0,0,.88,2.13,4.17,4.17,0,0,0,4.92.24,2.37,2.37,0,0,0,.81-1.91,2.71,2.71,0,0,0-.53-1.72,4.3,4.3,0,0,0-1.4-1.14c-.57-.31-1.17-.6-1.82-.88a14.33,14.33,0,0,1-1.83-.95,4.56,4.56,0,0,1-1.39-1.3,3.5,3.5,0,0,1-.53-2,3.4,3.4,0,0,1,.58-2,4.42,4.42,0,0,1,1.57-1.36,4.71,4.71,0,0,1,2.19-.51,4.62,4.62,0,0,1,2.12.48,4.2,4.2,0,0,1,1.51,1.32A3.16,3.16,0,0,1,111.28,9a4.09,4.09,0,0,1-.69,2.35,5.8,5.8,0,0,1-1.76,1.69l-.67-.33a5.85,5.85,0,0,0,1.26-1.62,4.24,4.24,0,0,0,.38-1.8,3.13,3.13,0,0,0-.76-2.2,2.76,2.76,0,0,0-2.18-.84,2.86,2.86,0,0,0-1.89.66,2.32,2.32,0,0,0-.79,1.86,2.64,2.64,0,0,0,.55,1.73,4.81,4.81,0,0,0,1.42,1.15c.58.31,1.18.61,1.82.89a17.42,17.42,0,0,1,1.83.93,4.63,4.63,0,0,1,1.41,1.25,3.09,3.09,0,0,1,.55,1.89,3.78,3.78,0,0,1-.61,2.12,4.22,4.22,0,0,1-1.71,1.49A5.64,5.64,0,0,1,106.86,20.79Z" transform="translate(-1.38 -5.12)"/><path class="cls-1" d="M123.18,11.6a4.47,4.47,0,0,1-1.6,1.88,4.14,4.14,0,0,1-2.31.68,4.56,4.56,0,0,1-2.22-.54,4,4,0,0,1-1.57-1.47A4,4,0,0,1,114.9,10a4.49,4.49,0,0,1,.62-2.25A5,5,0,0,1,117.2,6a4.43,4.43,0,0,1,2.45-.68,5.06,5.06,0,0,1,2.59.65A4.39,4.39,0,0,1,124,7.88a6.51,6.51,0,0,1,.61,3,10.31,10.31,0,0,1-.61,3.6,10.07,10.07,0,0,1-1.73,3,9.65,9.65,0,0,1-2.65,2.22A12,12,0,0,1,116.21,21l-.39-.95a10.57,10.57,0,0,0,3.81-1.84,7.87,7.87,0,0,0,2.37-3,9.67,9.67,0,0,0,.82-4.07,7,7,0,0,0-.4-2.53,3.56,3.56,0,0,0-1.13-1.62,3,3,0,0,0-1.84-.58,2.6,2.6,0,0,0-2,.91,3.49,3.49,0,0,0-.8,2.39,3.1,3.1,0,0,0,3.22,3.21,3.44,3.44,0,0,0,1.2-.21,3.74,3.74,0,0,0,1.07-.67,5,5,0,0,0,.94-1.11Z" transform="translate(-1.38 -5.12)"/></g></g></svg>