<svg xmlns="http://www.w3.org/2000/svg" viewBox="0 0 285.48 221.04"><defs><style>.cls-1{fill:#f2f3eb;stroke:#b69991;stroke-miterlimit:10;}.cls-2{fill:#b69991;}</style></defs><g id="Layer_2" data-name="Layer 2"><g id="Layer_1-2" data-name="Layer 1"><rect class="cls-1" x="0.5" y="6.67" width="284.48" height="213.87" rx="29.71"/><path class="cls-2" d="M142.74,2.83a8.56,8.56,0,0,1,.43-.91A4,4,0,0,1,147.94.24a4.06,4.06,0,0,1,2.66,4.31,8.71,8.71,0,0,1-1.91,4.34,24,24,0,0,1-5.79,5.3.24.24,0,0,1-.31,0A21.82,21.82,0,0,1,136.14,8a7.27,7.27,0,0,1-1.29-4,4,4,0,0,1,7.75-1.51Z"/></g></g></svg>