<svg xmlns="http://www.w3.org/2000/svg" viewBox="0 0 202.29 104.29"><defs><style>.cls-1{fill:#8a8e6d;}</style></defs><g id="Layer_2" data-name="Layer 2"><g id="Layer_1-2" data-name="Layer 1"><path class="cls-1" d="M26.14,13.83,16.45,38H14.11L2.72,8.66,0,7.9.11,5.83H10.73l.16,2.07-2.77.71,8.93,23.8H15.9L24.56,9.48ZM33.77,38,22.5,8.66,19.77,7.9l.11-2.07H30.94L31.1,7.9l-3.32.71,8.82,23.8H35.51L44.12,8.66,40.25,7.9l.17-2.07h10L50.6,7.9l-2.78.76L36.11,38Z"/><path class="cls-1" d="M62,38.24a11.52,11.52,0,0,1-5.69-1.42,10.42,10.42,0,0,1-4-4.06,12.41,12.41,0,0,1-1.5-6.23,13.55,13.55,0,0,1,1.58-6.7,11.76,11.76,0,0,1,4.14-4.39,10.16,10.16,0,0,1,5.5-1.5,8.46,8.46,0,0,1,6.65,2.84Q71,19.56,71,24.62v1H54.3V23.2H67.43l-.6.71V22.77a7.38,7.38,0,0,0-1.41-4.85,4.79,4.79,0,0,0-3.87-1.69,5.39,5.39,0,0,0-2.94.9,6.35,6.35,0,0,0-2.29,2.72,10.71,10.71,0,0,0-.87,4.61v.65a10.19,10.19,0,0,0,2.2,7,7.26,7.26,0,0,0,5.7,2.51,7.56,7.56,0,0,0,3.43-.77,9.4,9.4,0,0,0,2.94-2.45l1.36,1.26a10.68,10.68,0,0,1-3.87,4.22A10.1,10.1,0,0,1,62,38.24Z"/><path class="cls-1" d="M93.85,38.4,93,37.69l.06-3.54-.17,0a10.42,10.42,0,0,1-3.35,3.21,7.48,7.48,0,0,1-3.62.93,10.38,10.38,0,0,1-9.37-5.45,12,12,0,0,1-1.41-5.88,13.73,13.73,0,0,1,1-5.29,12.47,12.47,0,0,1,2.69-4.11,12.35,12.35,0,0,1,3.9-2.64,11.4,11.4,0,0,1,4.52-.93,12.91,12.91,0,0,1,3.1.39A7.19,7.19,0,0,1,93,15.52c0-.65,0-1.5,0-2.56s0-2.15,0-3.29,0-2.16,0-3-.05-1.5-.09-1.83L88.56,4l-.1-1.8,8-2.23,1,.76q-.1,3.38-.16,6.54c0,2.11,0,4.3,0,6.59l-.06,12.53c0,1.85,0,3.44.14,4.76s.15,2.26.19,2.81l3.48.87v1.8Zm-6.54-3.81a6.52,6.52,0,0,0,2.94-.68A8.84,8.84,0,0,0,93,31.48V19.77a6.07,6.07,0,0,0-2.61-2.61,7.24,7.24,0,0,0-3.16-.77,6.38,6.38,0,0,0-5.37,2.54A10.5,10.5,0,0,0,80,25.49a9.7,9.7,0,0,0,2.15,6.7A6.73,6.73,0,0,0,87.31,34.59Z"/><path class="cls-1" d="M123.21,38.4l-.82-.71,0-3.54-.16,0a10.52,10.52,0,0,1-3.35,3.21,7.48,7.48,0,0,1-3.62.93,10.54,10.54,0,0,1-5.53-1.45,10.34,10.34,0,0,1-3.84-4,12,12,0,0,1-1.42-5.88,13.92,13.92,0,0,1,1-5.29,12.66,12.66,0,0,1,2.7-4.11,12.23,12.23,0,0,1,3.9-2.64,11.36,11.36,0,0,1,4.52-.93,12.91,12.91,0,0,1,3.1.39,7.27,7.27,0,0,1,2.67,1.19c0-.65,0-1.5,0-2.56s0-2.15,0-3.29,0-2.16-.06-3,0-1.5-.08-1.83L117.92,4l-.11-1.8,8-2.23,1,.76c-.07,2.25-.13,4.43-.16,6.54s-.06,4.3-.06,6.59l0,12.53c0,1.85,0,3.44.14,4.76s.15,2.26.19,2.81l3.48.87v1.8Zm-6.54-3.81a6.55,6.55,0,0,0,2.94-.68,9,9,0,0,0,2.78-2.43V19.77a6,6,0,0,0-2.62-2.61,7.16,7.16,0,0,0-3.15-.77,6.38,6.38,0,0,0-5.37,2.54,10.5,10.5,0,0,0-1.93,6.56,9.65,9.65,0,0,0,2.15,6.7A6.73,6.73,0,0,0,116.67,34.59Z"/><path class="cls-1" d="M133.17,37.8l-.11-2,3.65-.77a4.09,4.09,0,0,0,.09-.76c0-.36,0-.94.08-1.74s.05-1.91.05-3.32V25.6c0-1.49,0-2.85-.11-4.09s-.16-2.19-.27-2.88l-3.65-.76v-1.8l7.74-2,.81.77c-.11,1.12-.19,2.23-.24,3.32s-.08,2.36-.08,3.81v6.86c0,1.67,0,3.05.08,4.14A14.23,14.23,0,0,0,141.4,35l3.65.77-.11,2Zm5.89-29.9A3.37,3.37,0,0,1,136.69,7a3,3,0,0,1-1-2.29,3,3,0,0,1,1-2.28,3.37,3.37,0,0,1,2.37-.93,3.17,3.17,0,0,1,2.34.93,3.08,3.08,0,0,1,.92,2.28A3.1,3.1,0,0,1,141.4,7,3.17,3.17,0,0,1,139.06,7.9Z"/><path class="cls-1" d="M148,37.8l-.11-2,3.38-.82c0-.25.06-.6.08-1s0-1,.08-1.8.06-1.76.06-3l.05-4.2c0-1.2-.05-2.39-.14-3.57s-.19-2.11-.3-2.8l-3.48-.76v-1.8l7.3-2,.92.87-.27,2.89.16.06a13.58,13.58,0,0,1,3.76-3,8.88,8.88,0,0,1,4-.93A7.41,7.41,0,0,1,170.19,18a11.11,11.11,0,0,1,1.11,5.28v6.05c0,1.31,0,2.49.08,3.54a11,11,0,0,0,.25,2.12l3.38.82-.17,2h-11l-.1-2,3.15-.82c0-.29.08-.65.11-1.09s.07-1,.09-1.66,0-1.51,0-2.53V23.86a7.73,7.73,0,0,0-.84-3.9,5.15,5.15,0,0,0-2.1-2.07,5.74,5.74,0,0,0-2.56-.62,6.58,6.58,0,0,0-3.35.9,8.15,8.15,0,0,0-2.64,2.47v8.17c0,1.67,0,3,.08,4.06s.12,1.75.19,2.15l3.38.82-.16,2Z"/><path class="cls-1" d="M189,50.22A16.39,16.39,0,0,1,181,48.58c-2-1.08-2.94-2.54-2.94-4.35a4.93,4.93,0,0,1,1.47-3.43,16.68,16.68,0,0,1,4.74-3.22l2.06.44a8.61,8.61,0,0,0-2.77,2.42,5,5,0,0,0-1,3,3.86,3.86,0,0,0,1.77,3.38,8.47,8.47,0,0,0,4.82,1.2,9.77,9.77,0,0,0,5.72-1.53,4.61,4.61,0,0,0,2.17-3.92,3.08,3.08,0,0,0-1.33-2.75,9.37,9.37,0,0,0-4.38-1.12l-5.83-.49L184.7,38a5.41,5.41,0,0,1-3.4-1.06,3.16,3.16,0,0,1-1.39-2.59,4.11,4.11,0,0,1,1.41-2.88,12.56,12.56,0,0,1,3.93-2.51L186,30a8,8,0,0,0-1.52,1.28,1.73,1.73,0,0,0-.49,1.12,1.62,1.62,0,0,0,.68,1.31,3.53,3.53,0,0,0,1.93.65l7,.71A11.12,11.12,0,0,1,199.3,37a5.19,5.19,0,0,1,2,4.36,7,7,0,0,1-1.63,4.52,11.07,11.07,0,0,1-4.42,3.19A16,16,0,0,1,189,50.22Zm.44-19.17a12.21,12.21,0,0,1-5.15-1,8.28,8.28,0,0,1-3.51-2.86A7.12,7.12,0,0,1,179.47,23a8.41,8.41,0,0,1,1.31-4.61,9.15,9.15,0,0,1,3.54-3.21,10.64,10.64,0,0,1,5-1.17,11,11,0,0,1,5,1.09,8.43,8.43,0,0,1,3.46,3,8.15,8.15,0,0,1,0,8.74,8.9,8.9,0,0,1-3.46,3.08A10.68,10.68,0,0,1,189.39,31.05Zm.27-2.18a4.29,4.29,0,0,0,3.54-1.64,6.77,6.77,0,0,0,1.31-4.35A7.79,7.79,0,0,0,193.06,18a4.57,4.57,0,0,0-3.78-1.85,4.47,4.47,0,0,0-3.65,1.75,6.89,6.89,0,0,0-1.42,4.52,7.07,7.07,0,0,0,1.5,4.68A4.88,4.88,0,0,0,189.66,28.87Zm12.63-10.95-6.48-.44-2.12-2.17,8.6-.88Z"/><path class="cls-1" d="M76.89,71.58a1.88,1.88,0,0,0,1.83-.89,2.16,2.16,0,0,0,0-2,4.73,4.73,0,0,0-2.09-2,8.72,8.72,0,0,0-4.33-.9,10.25,10.25,0,0,0-3.92.75,9.79,9.79,0,0,0-5.41,5.34,10.47,10.47,0,0,0-.82,4.21A8.19,8.19,0,0,0,63,80a10.26,10.26,0,0,0,2.35,3,10.74,10.74,0,0,0,3.18,1.91,9.44,9.44,0,0,0,3.32.67,13.42,13.42,0,0,0,5.86-1.2,15.93,15.93,0,0,0,4.48-3.17,26.56,26.56,0,0,0,3.58-4.48q1.6-2.51,3.18-5.08c1-1.71,2.15-3.4,3.32-5a22.21,22.21,0,0,1,3.92-4.25c.15-.15.16-.29,0-.41a.39.39,0,0,0-.49,0,26.9,26.9,0,0,1-5.15,2.5,15.55,15.55,0,0,1-5,.78,9.88,9.88,0,0,1-5-1.27,9.76,9.76,0,0,1-3.51-3.36,11,11,0,0,1-1.57-4.81A13.49,13.49,0,0,1,76.29,50a17.53,17.53,0,0,1-7.65-3.55q-3-2.51-3-7.21a8.94,8.94,0,0,1,1-4.07,10.2,10.2,0,0,1,2.69-3.28,13.38,13.38,0,0,1,4-2.17A14.92,14.92,0,0,1,78.24,29a17,17,0,0,1,7.84,1.94.43.43,0,0,1,.26.56c-.08.28-.34.29-.79,0A16.17,16.17,0,0,0,82,30.18a16,16,0,0,0-3.51-.41,13.52,13.52,0,0,0-4.52.75,12.33,12.33,0,0,0-3.69,2,9.91,9.91,0,0,0-2.5,3,7.5,7.5,0,0,0-.94,3.66A8.66,8.66,0,0,0,69.5,45.9a14.05,14.05,0,0,0,7.17,3.28,37,37,0,0,1,4.07-6.34A38.54,38.54,0,0,1,87,36.45a35.26,35.26,0,0,1,8-4.89,22.75,22.75,0,0,1,9.26-1.94c2.83,0,4.9.74,6.19,2.21a5.32,5.32,0,0,1,.9,5.48,11.78,11.78,0,0,1-2.73,4.63,20.81,20.81,0,0,1-4.44,3.55,31,31,0,0,1-5.53,2.61,41.1,41.1,0,0,1-6,1.68,46.21,46.21,0,0,1-5.93.79,42.88,42.88,0,0,1-5.3,0,19.6,19.6,0,0,0-1.12,6,9.56,9.56,0,0,0,.82,4.22,5.25,5.25,0,0,0,2.35,2.46,7.37,7.37,0,0,0,3.4.78,13.16,13.16,0,0,0,5.3-1.23,29.65,29.65,0,0,0,4.7-2.76q2.25-1.61,4.3-3.29A23.28,23.28,0,0,1,105.27,54c.09-.1.23-.09.41,0s.21.26.11.41a30.41,30.41,0,0,0-3.14,3.69q-1.49,2.05-2.76,4.07C99,63.6,98.3,64.84,97.65,66S96.46,68.05,96,68.75q-2.7,4.19-5.23,7.43a32.27,32.27,0,0,1-5.38,5.49,22.28,22.28,0,0,1-6.08,3.43A21.16,21.16,0,0,1,72,86.29a11.73,11.73,0,0,1-4.06-.71,10.3,10.3,0,0,1-3.48-2A10.44,10.44,0,0,1,62,80.25a10,10,0,0,1-.94-4.41,11,11,0,0,1,.86-4.33A11.42,11.42,0,0,1,64.24,68a10.54,10.54,0,0,1,3.47-2.35A11,11,0,0,1,72,64.79c2.74,0,4.75.54,6,1.61A5.65,5.65,0,0,1,80.29,70a5,5,0,0,1-.82,3.58,3.45,3.45,0,0,1-3,1.61,2.16,2.16,0,0,1-1.3-.41,1.58,1.58,0,0,1-.56-1.38,1.52,1.52,0,0,1,.67-1.31A2.77,2.77,0,0,1,76.89,71.58Zm5-21.87a29.88,29.88,0,0,0,7.46-.41A46.26,46.26,0,0,0,98,47,30.92,30.92,0,0,0,105.68,43a11.68,11.68,0,0,0,4.44-5.79,4.94,4.94,0,0,0-.56-4.74,5.23,5.23,0,0,0-4.44-1.9,11.57,11.57,0,0,0-4.56,1,27.16,27.16,0,0,0-4.74,2.61,37.77,37.77,0,0,0-4.59,3.7c-1.5,1.39-2.86,2.8-4.11,4.21a40.57,40.57,0,0,0-3.21,4.15A24.43,24.43,0,0,0,81.9,49.71Z"/><path class="cls-1" d="M100,85.62a3.69,3.69,0,0,1-2.61-1A4.74,4.74,0,0,1,96,82a9,9,0,0,1,.19-3.84,16.34,16.34,0,0,1,2-4.63l7.54-12.1h4.71L99.74,79c-1,1.69-1.34,3-1,4s.85,1.49,1.65,1.49q1.71,0,4-2.13t6.13-6.31c.69-.79,1.35-1.53,2-2.2s1.15-1.28,1.6-1.83,1-1.17,1.49-1.71h1.42q-3.36,3.87-5.86,6.79a63.63,63.63,0,0,1-4.48,4.78,21.17,21.17,0,0,1-3.55,2.8A6,6,0,0,1,100,85.62Zm9.26-32.4a2.56,2.56,0,0,1,.75-1.83,2.49,2.49,0,0,1,1.87-.79,2.55,2.55,0,0,1,1.83.79,2.51,2.51,0,0,1,.78,1.83,2.46,2.46,0,0,1-.78,1.86,2.59,2.59,0,0,1-1.83.75,2.56,2.56,0,0,1-2.62-2.61Z"/><path class="cls-1" d="M118.26,72.56,116.13,76l-1.38,2.2-.68,1.12c.25.05.48.09.68.11a3.81,3.81,0,0,0,.59,0A17.56,17.56,0,0,0,123,78a22.79,22.79,0,0,0,5.38-3.47,23.06,23.06,0,0,0,4.33-4.93h1.41A43.13,43.13,0,0,1,130.43,74a24.5,24.5,0,0,1-4.19,3.55,18.88,18.88,0,0,1-4.81,2.31,18.14,18.14,0,0,1-5.56.82,14.44,14.44,0,0,1-2.54-.22L98.17,104.29h-4.7l15.75-25.16c-.65-.3-1-.68-1-1.12a2.06,2.06,0,0,1,.44-1.42,5.73,5.73,0,0,1,1.53-1.42,13.22,13.22,0,0,1,2.28-1.2l14.26-22.84A28,28,0,0,1,134,42.69q3.74-2.61,6.57-2.61a3.68,3.68,0,0,1,1.38.29,5.32,5.32,0,0,1,1.31.79,3.76,3.76,0,0,1,1,1.19,3.41,3.41,0,0,1,.37,1.61A10.28,10.28,0,0,1,143,48.77a39.4,39.4,0,0,1-4,5.45,69.58,69.58,0,0,1-5.37,5.61c-2,1.86-3.95,3.62-5.87,5.26s-3.72,3.11-5.41,4.4S119.3,71.81,118.26,72.56Zm-7,3.28a2.82,2.82,0,0,0-1.5,1.08c-.3.48-.22.81.23,1Zm8.36-5.52c.84-.65,2-1.58,3.51-2.8s3.11-2.6,4.85-4.15,3.51-3.2,5.3-5,3.43-3.53,4.89-5.27a37.17,37.17,0,0,0,3.62-5A8.46,8.46,0,0,0,143.19,44a2.59,2.59,0,0,0-.82-2,2.48,2.48,0,0,0-1.64-.74q-1.87,0-4.33,2.8a61.67,61.67,0,0,0-5.26,7.09q-2.8,4.29-5.75,9.44T119.6,70.32Z"/><path class="cls-1" d="M131.77,85.62a3.65,3.65,0,0,1-2.61-1A4.81,4.81,0,0,1,127.77,82a9,9,0,0,1,.19-3.84,16.39,16.39,0,0,1,2-4.63l8.43-13.59h-3.35l.59-1h1.27A3.67,3.67,0,0,0,140.21,57L145,49.33a16.21,16.21,0,0,0,5.3-1L143.79,59h5l-.59,1h-5L131.55,79c-1,1.69-1.35,3-1.05,4s.85,1.49,1.64,1.49q1.73,0,4-2.13t6.12-6.31c.7-.79,1.36-1.53,2-2.2s1.16-1.28,1.61-1.83,1-1.17,1.49-1.71h1.42q-3.36,3.87-5.86,6.79a63.63,63.63,0,0,1-4.48,4.78,21.17,21.17,0,0,1-3.55,2.8A6,6,0,0,1,131.77,85.62Z"/></g></g></svg>