<svg xmlns="http://www.w3.org/2000/svg" viewBox="0 0 287.61 68.43"><defs><style>.cls-1{fill:#f2f3eb;}</style></defs><g id="Layer_2" data-name="Layer 2"><g id="Layer_1-2" data-name="Layer 1"><path class="cls-1" d="M29.74,23.43A17.12,17.12,0,0,0,21,26a30.91,30.91,0,0,0-8,6.75,37.8,37.8,0,0,0-6,9.66A32.3,32.3,0,0,0,4.42,53.71,18.07,18.07,0,0,0,5.06,60,11,11,0,0,0,7.3,64.19a8.27,8.27,0,0,0,3.3,2.27,10.58,10.58,0,0,0,3.75.7,13.82,13.82,0,0,0,4.94-1.09,21.61,21.61,0,0,0,4.88-2.85A28.6,28.6,0,0,0,28.59,59a32.9,32.9,0,0,0,3.6-5.24,28.53,28.53,0,0,0,2.45-5.84,21,21,0,0,0,.91-6A13.86,13.86,0,0,0,35,37.79a9.7,9.7,0,0,0-1.67-3.25,7.61,7.61,0,0,0-2.69-2.11,8.63,8.63,0,0,0-3.73-.76,9.13,9.13,0,0,0-4.36,1.06,11.93,11.93,0,0,0-3.42,2.69,12.25,12.25,0,0,0-2.21,3.64A10.56,10.56,0,0,0,16.11,43a6.48,6.48,0,0,0,.94,3.7,2.93,2.93,0,0,0,2.57,1.39,5,5,0,0,0,2.94-.91,8.5,8.5,0,0,0,2.15-2.12A9.84,9.84,0,0,0,26,42.54a6.85,6.85,0,0,0,.46-2.09c0-.48.08-.74.24-.76s.28.2.36.64a5.62,5.62,0,0,1-.42,2.48A11.51,11.51,0,0,1,25,45.75a9.88,9.88,0,0,1-2.57,2.42,5.89,5.89,0,0,1-3.33,1,4.59,4.59,0,0,1-1.82-.39,4.93,4.93,0,0,1-1.6-1.12,5.72,5.72,0,0,1-1.15-1.82,6.43,6.43,0,0,1-.46-2.54,10,10,0,0,1,1-4.27A14.39,14.39,0,0,1,18,35a15,15,0,0,1,4.15-3,11.27,11.27,0,0,1,5-1.15,9.58,9.58,0,0,1,4,.79,8.39,8.39,0,0,1,3,2.24A10.44,10.44,0,0,1,36,37.39a14.37,14.37,0,0,1,.66,4.45,21.93,21.93,0,0,1-.94,6.27,29.74,29.74,0,0,1-2.57,6.12,33,33,0,0,1-3.85,5.51,29.79,29.79,0,0,1-4.75,4.48,23.69,23.69,0,0,1-5.33,3,14.66,14.66,0,0,1-5.51,1.12,14.75,14.75,0,0,1-4.88-.85,12.22,12.22,0,0,1-4.42-2.69A13.67,13.67,0,0,1,1.21,60.1,17.76,17.76,0,0,1,0,53.17a24.27,24.27,0,0,1,1.21-7.51,32.26,32.26,0,0,1,3.33-7.15,39.38,39.38,0,0,1,4.94-6.33,35.49,35.49,0,0,1,6.08-5.08,31.74,31.74,0,0,1,6.76-3.4,20.54,20.54,0,0,1,6.87-1.24,14.85,14.85,0,0,1,6.91,1.43,9.47,9.47,0,0,1,4,3.54,7.54,7.54,0,0,1,1,4.57,8.54,8.54,0,0,1-1.84,4.57.35.35,0,0,1-.46.13.3.3,0,0,1-.15-.43A10.53,10.53,0,0,0,39.88,32,7.48,7.48,0,0,0,39,27.82a7.87,7.87,0,0,0-3.3-3.15A12.48,12.48,0,0,0,29.74,23.43Z"/><path class="cls-1" d="M52.69,48.26h3.82L47.85,62.5A4.38,4.38,0,0,0,47,65.77c.24.8.68,1.21,1.33,1.21a5.08,5.08,0,0,0,3.21-1.73c1.21-1.15,2.87-2.85,5-5.12.56-.64,1.1-1.24,1.6-1.78s.94-1,1.3-1.49.85-.94,1.21-1.39h1.15L57,61a50.54,50.54,0,0,1-3.63,3.88,17.35,17.35,0,0,1-2.88,2.27,4.91,4.91,0,0,1-2.48.76,3.1,3.1,0,0,1-1.94-.61,3.38,3.38,0,0,1-1.15-1.67,5.91,5.91,0,0,1-.24-2.48,9.66,9.66,0,0,1,.84-3.06A66.58,66.58,0,0,1,39.85,66a6.46,6.46,0,0,1-4.12,1.91,3,3,0,0,1-2.12-.79A3.91,3.91,0,0,1,32.49,65a7.33,7.33,0,0,1,.15-3.12,13.74,13.74,0,0,1,1.64-3.76l6.12-9.81h3.81L35.55,62.5a4.38,4.38,0,0,0-.85,3.27C35,66.57,35.39,67,36,67a3.51,3.51,0,0,0,1.87-.73,19.12,19.12,0,0,0,2.36-1.88c.85-.76,1.71-1.61,2.58-2.54S44.54,60,45.33,59s1.5-1.83,2.12-2.66,1.1-1.51,1.43-2Z"/><path class="cls-1" d="M82.37,55.47q-3.27,3.27-5.27,3.27a3.37,3.37,0,0,1-1.85-.48A3.28,3.28,0,0,1,74.1,57a4.19,4.19,0,0,1-.45-1.69,4.3,4.3,0,0,1,.24-1.79,63.13,63.13,0,0,0-5.54,6.94q-2.64,3.78-4.94,7.42H59.59l8.67-14.24a11.67,11.67,0,0,0,1.45-3.27c.16-.8,0-1.21-.61-1.21s-1.55.55-2.72,1.64-2.73,2.66-4.67,4.72H60.56a62.62,62.62,0,0,1,5.33-5.48,6,6,0,0,1,3.7-1.79,2.18,2.18,0,0,1,2.24,1.88q.48,1.88-1.15,5.69Q72.19,54,74.1,52a32.68,32.68,0,0,1,3.66-3.46h2.85a15.37,15.37,0,0,0-3.06,3.4,9.5,9.5,0,0,0-1.33,3A3.33,3.33,0,0,0,76.34,57a1.34,1.34,0,0,0,1.3.82,2.53,2.53,0,0,0,1.55-.66c.54-.45,1.16-1,1.84-1.7Z"/><path class="cls-1" d="M162.85,23a1.21,1.21,0,0,1,.85.06.4.4,0,0,1,.18.6l-8.69,14.78q-3.72,6.36-6.23,11c-1.68,3.07-3,5.62-3.85,7.63a15.5,15.5,0,0,0-1.45,4.79,9.62,9.62,0,0,0,.06,1.85,5.05,5.05,0,0,0,.51,1.69,3.2,3.2,0,0,0,1.06,1.21,3,3,0,0,0,1.76.46,5.35,5.35,0,0,0,3-1,18.37,18.37,0,0,0,3-2.61q1.55-1.63,3.21-3.75c1.11-1.41,2.34-2.91,3.67-4.48l.78.3q-2.47,3.27-4.51,5.66a39.57,39.57,0,0,1-3.75,3.94,15.35,15.35,0,0,1-3.21,2.3,5.87,5.87,0,0,1-4.94.39,5.34,5.34,0,0,1-2-1.18,6.25,6.25,0,0,1-1.45-2.15,7.71,7.71,0,0,1-.51-3.33,16.64,16.64,0,0,1,.93-4.66,35.48,35.48,0,0,1,2.88-6.18c.44-.72,1-1.62,1.58-2.69s1.38-2.4,2.33-4,2.09-3.53,3.42-5.82,2.93-5,4.78-8.14a98.59,98.59,0,0,0-7.32,8.69q-3.65,4.81-7.33,9.81t-7.42,9.78a99.16,99.16,0,0,1-7.6,8.72l-1.27,1.28-1.09-.06a17.76,17.76,0,0,0,2.87-5.12,61.67,61.67,0,0,0,2-6.57c.61-2.39,1.21-4.9,1.82-7.54s1.34-5.31,2.21-8a62.49,62.49,0,0,1,3.21-8,35.6,35.6,0,0,1,4.87-7.45,28.91,28.91,0,0,0-4.39,4.72q-2.15,2.85-4.24,6.21t-4.14,7.09q-2.07,3.72-4.24,7.29c-1.46,2.39-3,4.66-4.49,6.82A41.25,41.25,0,0,1,114.92,63,23.51,23.51,0,0,1,109.65,67a12.15,12.15,0,0,1-5.84,1.48,10.61,10.61,0,0,1-3.52-.57,8,8,0,0,1-2.81-1.67,7.53,7.53,0,0,1-1.85-2.66A9,9,0,0,1,95,60a7.59,7.59,0,0,1,.67-3.18,8.08,8.08,0,0,1,1.79-2.57,8.45,8.45,0,0,1,2.6-1.73,7.91,7.91,0,0,1,3.12-.63A7.35,7.35,0,0,1,108,53.2a4.8,4.8,0,0,1,1.79,3,4.38,4.38,0,0,1-.66,3,2.8,2.8,0,0,1-2.46,1.36,1.72,1.72,0,0,1-1.06-.34,1.29,1.29,0,0,1-.45-1.12,1.26,1.26,0,0,1,.54-1.06,2.26,2.26,0,0,1,1.34-.39,1.49,1.49,0,0,0,1.48-.79,1.93,1.93,0,0,0,0-1.72,4.16,4.16,0,0,0-1.7-1.73,6.68,6.68,0,0,0-3.51-.79,7.14,7.14,0,0,0-2.72.55,8.11,8.11,0,0,0-2.4,1.51A7.77,7.77,0,0,0,96.48,57a7.52,7.52,0,0,0,0,6.27,7.88,7.88,0,0,0,1.81,2.43,8.28,8.28,0,0,0,2.55,1.54,8.08,8.08,0,0,0,2.88.55,12.08,12.08,0,0,0,7.6-2.73,35.44,35.44,0,0,0,6.63-7,93.17,93.17,0,0,0,6.08-9.5Q127,43.35,130,38.33a94.44,94.44,0,0,1,6.21-9.2,24.57,24.57,0,0,1,6.9-6.36c.12,0,.24,0,.37.18s.14.26.06.3A66.8,66.8,0,0,0,139.3,34q-1.58,5.33-3,10.42t-3.12,9.9a39.82,39.82,0,0,1-4.66,9.17q4.29-5.15,8.66-11.11t8.66-11.6q4.29-5.62,8.57-10.35A43.8,43.8,0,0,1,162.85,23Z"/><path class="cls-1" d="M169.88,48.26a4.87,4.87,0,0,1,2.54.64,4.63,4.63,0,0,1,1.73,1.73A6.65,6.65,0,0,1,175,53.2a8.41,8.41,0,0,1-.24,3.12,3.16,3.16,0,0,0,.87.45,4.45,4.45,0,0,0,1.49.21,4,4,0,0,0,2.84-1.51h1.22a6,6,0,0,1-2.4,2,6.18,6.18,0,0,1-2.21.45,6.25,6.25,0,0,1-1.18-.21,4.64,4.64,0,0,1-.94-.39,16.5,16.5,0,0,1-1.75,3.54,21.51,21.51,0,0,1-2.79,3.51,17.62,17.62,0,0,1-3.36,2.7,6.91,6.91,0,0,1-3.6,1.09A5.54,5.54,0,0,1,159.46,67a6.27,6.27,0,0,1-2.09-2.94,8.69,8.69,0,0,1-.3-4.12,11,11,0,0,1,2-4.66,19.26,19.26,0,0,1,5.06-5.18A10.21,10.21,0,0,1,169.88,48.26Zm.61.79a6,6,0,0,0-3.88,1.67,20,20,0,0,0-3.82,4.75,14.78,14.78,0,0,0-1.78,4.3,9.6,9.6,0,0,0-.21,3.63,4.85,4.85,0,0,0,1.06,2.52,2.47,2.47,0,0,0,1.9.94,5.44,5.44,0,0,0,3.06-1.06,16.05,16.05,0,0,0,2.91-2.61,19.31,19.31,0,0,0,2.36-3.33,16.1,16.1,0,0,0,1.42-3.18.47.47,0,0,0-.12-.09l-.12-.09a3.48,3.48,0,0,1-1.12-1.61A4.15,4.15,0,0,1,172,53.2a2.62,2.62,0,0,1,.51-1.36,1.42,1.42,0,0,1,.91-.61,4,4,0,0,0-1.27-1.6A2.69,2.69,0,0,0,170.49,49.05Z"/><path class="cls-1" d="M199.25,53.65c.85-1.37,1.15-2.46.91-3.27s-.64-1.21-1.21-1.21a4.34,4.34,0,0,0-2.42,1.15,24.57,24.57,0,0,0-3.06,3q-1.6,1.82-3.3,4T187,61.59q-1.46,2.05-2.57,3.78c-.75,1.15-1.29,2-1.61,2.52H179l8.67-14.24a11.67,11.67,0,0,0,1.45-3.27c.16-.8,0-1.21-.61-1.21s-1.55.55-2.72,1.64-2.73,2.66-4.66,4.72H180a62.62,62.62,0,0,1,5.33-5.48,6,6,0,0,1,3.7-1.79,2.18,2.18,0,0,1,2.24,1.88q.48,1.88-1.15,5.69,1.57-1.94,2.81-3.36a26.22,26.22,0,0,1,2.31-2.36,8.27,8.27,0,0,1,2-1.39,4.53,4.53,0,0,1,2-.46,3.73,3.73,0,0,1,1.82.46,3.09,3.09,0,0,1,1.33,1.39,4.45,4.45,0,0,1,.43,2.3,8.73,8.73,0,0,1-.91,3.18,62.55,62.55,0,0,1,5-5.54,5.76,5.76,0,0,1,3.91-1.79,3.7,3.7,0,0,1,2,.58,3.29,3.29,0,0,1,1.33,1.69,5.2,5.2,0,0,1,.12,2.79,11.64,11.64,0,0,1-1.63,3.85l-3.27,5.33a4.38,4.38,0,0,0-.85,3.27c.24.8.69,1.21,1.33,1.21a5.08,5.08,0,0,0,3.21-1.73c1.21-1.15,2.87-2.85,5-5.12.56-.64,1.1-1.24,1.6-1.78s.94-1,1.31-1.49.84-.94,1.21-1.39h1.15L218.54,61a50.54,50.54,0,0,1-3.63,3.88A17.35,17.35,0,0,1,212,67.13a4.86,4.86,0,0,1-2.48.76,3.12,3.12,0,0,1-2-.7,3.73,3.73,0,0,1-1.24-2,6.67,6.67,0,0,1,0-3.09,12.6,12.6,0,0,1,1.76-4.06l2.72-4.42c.85-1.37,1.15-2.46.91-3.27s-.65-1.21-1.21-1.21a4.31,4.31,0,0,0-2.42,1.15,24.57,24.57,0,0,0-3.06,3q-1.6,1.82-3.3,4t-3.15,4.27q-1.46,2.05-2.58,3.78c-.74,1.15-1.28,2-1.6,2.52h-3.82Z"/><path class="cls-1" d="M235.35,52.56a5.2,5.2,0,0,1-1.54,1.88,15.34,15.34,0,0,1-2.67,1.7,30.84,30.84,0,0,1-3.36,1.45c-1.21.44-2.42.85-3.63,1.21a9.85,9.85,0,0,0-.46,3.06,6.44,6.44,0,0,0,.49,2.48A3.86,3.86,0,0,0,225.45,66a3.12,3.12,0,0,0,1.9.6,7.9,7.9,0,0,0,2.55-.48,13.45,13.45,0,0,0,3.21-1.76,38.35,38.35,0,0,0,4.18-3.48q2.36-2.2,5.45-5.66h1.09a73.35,73.35,0,0,1-5.57,6.05,36.73,36.73,0,0,1-4.7,3.88,18,18,0,0,1-3.9,2.09,9.66,9.66,0,0,1-3.21.64,6.46,6.46,0,0,1-3.82-1.12,6.29,6.29,0,0,1-2.27-2.94,8.09,8.09,0,0,1-.36-4.12,10.85,10.85,0,0,1,2-4.66,19.67,19.67,0,0,1,5-5.18,9.38,9.38,0,0,1,5.3-1.85,4.77,4.77,0,0,1,1.61.27,3.17,3.17,0,0,1,1.27.85,2.5,2.5,0,0,1,.6,1.42A4.14,4.14,0,0,1,235.35,52.56Zm-11,5.33a21.8,21.8,0,0,0,6.3-2.9,7,7,0,0,0,2.9-3.64,2.29,2.29,0,0,0-.06-1.91,1.26,1.26,0,0,0-1.09-.63,3.75,3.75,0,0,0-2.33,1,15.18,15.18,0,0,0-2.36,2.48,29.27,29.27,0,0,0-2,3A20.83,20.83,0,0,0,224.39,57.89Z"/><path class="cls-1" d="M242.31,55.53a62.62,62.62,0,0,1,5.33-5.48,6,6,0,0,1,3.7-1.79,2.18,2.18,0,0,1,2.24,1.88q.48,1.88-1.15,5.69,1.57-1.94,2.81-3.36a26.22,26.22,0,0,1,2.31-2.36,8.43,8.43,0,0,1,2-1.39,4.6,4.6,0,0,1,2-.46,3.68,3.68,0,0,1,2,.58,3.29,3.29,0,0,1,1.33,1.69,5.1,5.1,0,0,1,.12,2.79,11.64,11.64,0,0,1-1.63,3.85l-3.27,5.33a4.38,4.38,0,0,0-.85,3.27c.24.8.69,1.21,1.33,1.21a5.08,5.08,0,0,0,3.21-1.73c1.21-1.15,2.87-2.85,5-5.12.57-.64,1.1-1.24,1.61-1.78s.93-1,1.3-1.49.84-.94,1.21-1.39h1.15L269.29,61a50.54,50.54,0,0,1-3.63,3.88,17.35,17.35,0,0,1-2.88,2.27,4.86,4.86,0,0,1-2.48.76,3.12,3.12,0,0,1-2-.7,3.73,3.73,0,0,1-1.24-2,6.67,6.67,0,0,1,0-3.09,12.6,12.6,0,0,1,1.76-4.06l2.72-4.42c.85-1.37,1.15-2.46.91-3.27s-.64-1.21-1.21-1.21a4.34,4.34,0,0,0-2.42,1.15,24.57,24.57,0,0,0-3.06,3q-1.6,1.82-3.3,4t-3.15,4.27q-1.46,2.05-2.57,3.78c-.75,1.15-1.29,2-1.61,2.52h-3.82L250,53.65a11.67,11.67,0,0,0,1.45-3.27c.16-.8,0-1.21-.61-1.21s-1.55.55-2.72,1.64-2.73,2.66-4.67,4.72Z"/><path class="cls-1" d="M272.6,67.89a3,3,0,0,1-2.12-.79A3.92,3.92,0,0,1,269.35,65a7.19,7.19,0,0,1,.16-3.12,13.39,13.39,0,0,1,1.63-3.76l6.84-11h-2.72l.48-.79h1a3,3,0,0,0,2.67-1.57l3.87-6.24a13,13,0,0,0,4.3-.85l-5.26,8.66h4l-.48.79h-4.06L272.41,62.5a4.38,4.38,0,0,0-.85,3.27c.25.8.69,1.21,1.34,1.21a5.08,5.08,0,0,0,3.21-1.73c1.21-1.15,2.86-2.85,5-5.12.57-.64,1.1-1.24,1.61-1.78s.94-1,1.3-1.49.85-.94,1.21-1.39h1.15L281.59,61A50.45,50.45,0,0,1,278,64.86a17.33,17.33,0,0,1-2.87,2.27A4.91,4.91,0,0,1,272.6,67.89Z"/><path class="cls-1" d="M67.68,27.4a17.54,17.54,0,0,1-7.28-1.47,12,12,0,0,1-5.2-4.46,13.4,13.4,0,0,1-1.94-7.41,13.91,13.91,0,0,1,1-5.13,13,13,0,0,1,7.39-7.41A16.24,16.24,0,0,1,67.86.4a24,24,0,0,1,3.88.34,15.16,15.16,0,0,1,3.66,1l.31,5.71L74,7.68,72.68,3.75a5,5,0,0,0-2.32-1A15.58,15.58,0,0,0,67.5,2.5,10.47,10.47,0,0,0,61.56,4a8.79,8.79,0,0,0-3.3,4,13.86,13.86,0,0,0-1,5.33,13.8,13.8,0,0,0,1.42,6.56,9.81,9.81,0,0,0,3.84,4A11,11,0,0,0,68,25.3a12.53,12.53,0,0,0,3.15-.44,9,9,0,0,0,3.06-1.43L73.08,26V21.29c0-1,0-1.95,0-2.72a16.51,16.51,0,0,0-.13-1.74l-3-.45L70,14.77h8l.09,1.52-1.92.49v3.08c0,1.19,0,2.16,0,2.9s.06,1.47.09,2.19a14.45,14.45,0,0,1-4.1,1.78A16.77,16.77,0,0,1,67.68,27.4Z"/><path class="cls-1" d="M80,27l-.09-1.56,2.19-.58L91.24,1.43,93.52,0l9.55,24.86,2.23.58L105.17,27H97l-.09-1.56,2.72-.58L96.91,18l-.49-1.34-5-12.54.94-.85L87.45,16.69,87,18,84.5,24.86l2.73.58L87.14,27Zm6-8.43V16.38l2.41.09c1,0,2.3,0,3.79,0s2.76,0,3.82,0l2.39-.09v2.19c-1.16,0-2.27-.06-3.33-.07s-2,0-2.88,0-1.72,0-2.74,0S87.26,18.54,86,18.57Z"/><path class="cls-1" d="M125.92,27.18l-1.11-.09L123.56,27l-1.21,0H107.8l-.09-1.56,2.73-.58a9.09,9.09,0,0,0,.09-1c0-.49,0-1.19.06-2.1s0-2,0-3.41V6c0-.9,0-1.6,0-2.1a3.3,3.3,0,0,0-.13-.94l-2.73-.62L107.8.8h9.87l.09,1.65L114.05,3a2.37,2.37,0,0,0-.13.82c0,.47,0,1.15-.07,2.06s0,2.1,0,3.59v8.93c0,1.49,0,2.82,0,4s0,1.91.07,2.21l1.2.09c.42,0,.88,0,1.39,0h3.88c.65,0,1.22,0,1.69,0s1-.07,1.48-.13l2.27-4.24,1.83.4Z"/><path class="cls-1" d="M148.28,27.18l-1.11-.09L145.92,27l-1.21,0H130.16l-.09-1.56,2.73-.58a9.09,9.09,0,0,0,.09-1q0-.73.06-2.1c0-.91,0-2,0-3.41V6c0-.9,0-1.6,0-2.1A3.3,3.3,0,0,0,132.8,3l-2.73-.62L130.16.8H140l.09,1.65L136.41,3a2.37,2.37,0,0,0-.13.82c0,.47-.05,1.15-.07,2.06s0,2.1,0,3.59v8.93c0,1.49,0,2.82,0,4s0,1.91.07,2.21l1.2.09c.42,0,.88,0,1.39,0h3.88c.65,0,1.22,0,1.7,0s1-.07,1.47-.13l2.27-4.24,1.83.4Z"/><path class="cls-1" d="M171.45,27.22c-.89-.11-1.59-.18-2.1-.2l-1.52,0H152.52l-.08-1.56,2.67-.58a3.42,3.42,0,0,0,.11-1c0-.51,0-1.22.05-2.15s0-2,0-3.34V9.46c0-1.34,0-2.48,0-3.41s0-1.66-.05-2.17a2.8,2.8,0,0,0-.11-.93l-2.67-.58L152.52.8H168.1c.36,0,.75,0,1.18,0l1.59-.13.8,5.71-1.87.27L168.37,3a2.55,2.55,0,0,0-.72-.12l-.93,0h-5.54l-1.45,0A10.65,10.65,0,0,0,158.5,3c0,.11,0,.45,0,1s0,1.18,0,1.9,0,1.38,0,2V20.66c0,.51,0,1.05,0,1.61s0,1.08,0,1.54,0,.77,0,.91c.39,0,.79.07,1.21.09s.86.05,1.34.05h4.86l1.59,0c.43,0,.77,0,1-.07a4.67,4.67,0,0,0,.56-.09l2.32-4.15,1.83.36Zm-4.73-9.41-.58-3.08a2.74,2.74,0,0,0-.72-.14c-.32,0-.73,0-1.2,0h-3.66c-.36,0-.77,0-1.23,0l-1.49.09V12.41l1.49.06,1.23,0h3.66c.47,0,.88,0,1.2-.05s.57-.06.72-.09l.58-3.12h1.74v8.57Z"/><path class="cls-1" d="M177.16,27l-.09-1.56,2.72-.67c0-.21,0-.51,0-.91s0-.9,0-1.48,0-1.21,0-1.9,0-1.38,0-2.09V9.46c0-1.4,0-2.56,0-3.48s0-1.63,0-2.12a3.38,3.38,0,0,0-.11-.91L177,2.37,177.12.8h9.23a10,10,0,0,1,6.12,1.63,5.56,5.56,0,0,1,2.14,4.71,6.68,6.68,0,0,1-1.18,3.9,8,8,0,0,1-3.28,2.71,11.34,11.34,0,0,1-4.82,1h-2.9V12.85h2.76a6.59,6.59,0,0,0,4.51-1.38,4.92,4.92,0,0,0,1.57-3.88,4.78,4.78,0,0,0-1.37-3.71,5.71,5.71,0,0,0-4-1.25H183.1a1,1,0,0,0-.07.25c0,.1,0,.33,0,.67V18.39c0,1.43,0,2.56,0,3.39s0,1.47.07,1.92.06.8.09,1.07l2.67.67L185.77,27Zm20.58.4a7,7,0,0,1-3.19-.71,8.85,8.85,0,0,1-2.79-2.46,42.46,42.46,0,0,1-3.17-4.73L185.37,14l2.9-.67,4.69,7a24.83,24.83,0,0,0,2.37,3.12,8,8,0,0,0,2,1.65,7.33,7.33,0,0,0,2.15.76l0,1.43a3.87,3.87,0,0,1-.82.11Z"/><path class="cls-1" d="M219.83,3l-9.06,13.88.89-2.64v4.2c0,1.25,0,2.28,0,3.1s0,1.46,0,1.92,0,.8,0,1,0,.36,0,.45l3.12.53L214.83,27h-9.51l-.13-1.61,3.12-.53a1.75,1.75,0,0,0,.07-.45c0-.2,0-.54.07-1s.05-1.1.07-1.92,0-1.85,0-3.1v-4.2l.71,2.64L200.46,3l-2.23-.58,0-1.57h8.57L207,2.37,204.25,3l6.83,10.75h-.49L217.06,3l-3.12-.58L214,.8H222l.09,1.57Z"/></g></g></svg>