<svg xmlns="http://www.w3.org/2000/svg" viewBox="0 0 321.74 89.75"><defs><style>.cls-1{fill:#b69991;}</style></defs><g id="Layer_2" data-name="Layer 2"><g id="Layer_1-2" data-name="Layer 1"><path class="cls-1" d="M8,11l0-.48.82-.17a1.44,1.44,0,0,0,0-.3c0-.16,0-.38,0-.65s0-.63,0-1V5.64c0-.42,0-.77,0-1s0-.5,0-.66a1.23,1.23,0,0,0,0-.29L8,3.47,8,3h2.7l0,.48-.83.17a1.44,1.44,0,0,0,0,.25,4.67,4.67,0,0,0,0,.62c0,.28,0,.66,0,1.13V8.37c0,.46,0,.83,0,1.11a4.57,4.57,0,0,0,0,.62,1.83,1.83,0,0,0,0,.26l.83.17,0,.48Z" transform="translate(-1.1 -1.47)"/><path class="cls-1" d="M16,10.25a1.85,1.85,0,0,1-.7.63,1.83,1.83,0,0,1-.87.23,1.85,1.85,0,0,1-1.31-.49,1.93,1.93,0,0,1-.52-1.48l0-3.32h-1V5.57L13.3,4h.21l0,1.47V8.91A1.65,1.65,0,0,0,13.79,10a1.13,1.13,0,0,0,.89.37,1.51,1.51,0,0,0,.61-.13,1.8,1.8,0,0,0,.5-.35ZM13.09,5.82V5.19h2.5v.63Z" transform="translate(-1.1 -1.47)"/><path class="cls-1" d="M21.42,11.07,19.26,5.82l-.64-.19,0-.46H21l0,.46-.69.19L22,10.21h-.4l1.86-4.55.33.82-2,4.58Zm3.89,0-2-5.25-.7-.19,0-.46h2.28l0,.46-.71.19,1.64,4.39h-.33l1.66-4.4-.71-.19,0-.46h2.07l0,.46-.65.19-2.27,5.25Z" transform="translate(-1.1 -1.47)"/><path class="cls-1" d="M32,11.12a3,3,0,0,1-1.52-.38,2.61,2.61,0,0,1-1-1.07,3.5,3.5,0,0,1-.35-1.58,3.11,3.11,0,0,1,.39-1.58,2.77,2.77,0,0,1,1.06-1.06A2.85,2.85,0,0,1,32,5.07a2.81,2.81,0,0,1,1.45.36,2.57,2.57,0,0,1,1,1.05,3.39,3.39,0,0,1,.34,1.57,3.2,3.2,0,0,1-.37,1.55,3,3,0,0,1-1,1.11A2.61,2.61,0,0,1,32,11.12Zm.14-.57a1.33,1.33,0,0,0,.86-.3,2,2,0,0,0,.58-.82,3.14,3.14,0,0,0,.21-1.18,3.29,3.29,0,0,0-.51-1.91,1.59,1.59,0,0,0-1.36-.73,1.52,1.52,0,0,0-1.28.64,2.66,2.66,0,0,0-.5,1.69,3.37,3.37,0,0,0,.26,1.36,2.23,2.23,0,0,0,.71.92A1.71,1.71,0,0,0,32.09,10.55Z" transform="translate(-1.1 -1.47)"/><path class="cls-1" d="M41.36,10.14l.86.22v.41l-1.63.38L40.44,11l0-.84h0a2.83,2.83,0,0,1-.82.76,1.87,1.87,0,0,1-.88.21,2.19,2.19,0,0,1-1.52-.55,2.08,2.08,0,0,1-.61-1.65V7.72c0-.28,0-.54,0-.8s0-.51,0-.76L35.59,6V5.56l1.69-.47.2.21,0,.87c0,.3,0,.62,0,1V8.72A1.63,1.63,0,0,0,37.84,10a1.58,1.58,0,0,0,1.07.37,1.7,1.7,0,0,0,.79-.21,1.87,1.87,0,0,0,.73-.7V7.81c0-.2,0-.4,0-.6s0-.4,0-.59,0-.33,0-.46l-1-.19V5.56l1.77-.47.16.18c0,.27,0,.51,0,.7s0,.39,0,.58V8.11c0,.59,0,1,0,1.35S41.35,10,41.36,10.14Z" transform="translate(-1.1 -1.47)"/><path class="cls-1" d="M43.05,11l0-.46.89-.19c0-.1,0-.25,0-.44s0-.46,0-.81,0-.81,0-1.36V6c0-.35,0-.71,0-1.09s0-.74,0-1.07,0-.63,0-.86,0-.37,0-.43l-1-.14,0-.38,1.78-.53.22.18,0,1.16c0,.38,0,.81,0,1.28s0,1,0,1.68V8.1c0,.51,0,1,0,1.41s0,.71,0,.85l.88.19,0,.46Z" transform="translate(-1.1 -1.47)"/><path class="cls-1" d="M51.43,11.15,51.28,11l0-.91h0a3,3,0,0,1-.87.8,2,2,0,0,1-.92.23,2.74,2.74,0,0,1-1.41-.36,2.68,2.68,0,0,1-1-1,3,3,0,0,1-.35-1.46A3.62,3.62,0,0,1,47,7a3.12,3.12,0,0,1,.65-1,3.06,3.06,0,0,1,.94-.67,2.68,2.68,0,0,1,1.12-.24,3.54,3.54,0,0,1,.85.11,1.73,1.73,0,0,1,.73.36V4.85c0-.29,0-.58,0-.89s0-.57,0-.81,0-.39,0-.46l-1.08-.21,0-.41L52,1.54l.22.18c0,.56,0,1.11,0,1.66V5.07l0,3.14c0,.46,0,.87,0,1.21s0,.58,0,.72l.87.22v.41Zm-1.72-.83a1.87,1.87,0,0,0,.82-.19,2.43,2.43,0,0,0,.75-.66V6.57a1.76,1.76,0,0,0-.71-.74,2,2,0,0,0-.87-.22,1.69,1.69,0,0,0-1.43.67A2.71,2.71,0,0,0,47.76,8a2.43,2.43,0,0,0,.57,1.72A1.82,1.82,0,0,0,49.71,10.32Z" transform="translate(-1.1 -1.47)"/><path class="cls-1" d="M57.22,10.66c0-.32,0-.59,0-.81s0-.42,0-.61V6c0-.29,0-.61,0-1s0-.71,0-1.06,0-.66,0-.92,0-.43,0-.51l-1-.14,0-.38,1.75-.53.21.18c0,.38,0,.76,0,1.15s0,.84,0,1.34,0,1.13,0,1.88h0A2.58,2.58,0,0,1,59,5.35a2.18,2.18,0,0,1,1.11-.28,2.45,2.45,0,0,1,1.25.32,2.5,2.5,0,0,1,.93,1,3.15,3.15,0,0,1,.34,1.53,3.15,3.15,0,0,1-.46,1.71,3.23,3.23,0,0,1-1.21,1.14,3.31,3.31,0,0,1-1.61.4A4.92,4.92,0,0,1,58.18,11,5.08,5.08,0,0,1,57.22,10.66Zm2.39-.15A1.8,1.8,0,0,0,61,9.86a2.68,2.68,0,0,0,.57-1.79,2.19,2.19,0,0,0-.53-1.67,1.88,1.88,0,0,0-1.38-.56,1.92,1.92,0,0,0-.87.21,2.07,2.07,0,0,0-.73.63v3.39a2.52,2.52,0,0,0,.66.32A2.77,2.77,0,0,0,59.61,10.51Z" transform="translate(-1.1 -1.47)"/><path class="cls-1" d="M66.53,11.12a2.83,2.83,0,0,1-1.39-.34,2.57,2.57,0,0,1-1-1,3.12,3.12,0,0,1-.37-1.57,3.54,3.54,0,0,1,.38-1.69,3,3,0,0,1,1-1.09,2.52,2.52,0,0,1,1.36-.36,2,2,0,0,1,1.6.68,2.94,2.94,0,0,1,.59,2V8H64.46V7.39H68l-.14.14V7.28A1.88,1.88,0,0,0,67.44,6a1.26,1.26,0,0,0-1-.45,1.46,1.46,0,0,0-.79.24,1.75,1.75,0,0,0-.61.72,2.82,2.82,0,0,0-.23,1.2v.14a2.67,2.67,0,0,0,.56,1.8,1.83,1.83,0,0,0,1.44.65,1.86,1.86,0,0,0,.87-.2,2.19,2.19,0,0,0,.74-.62l.33.28a2.57,2.57,0,0,1-.94,1A2.47,2.47,0,0,1,66.53,11.12Z" transform="translate(-1.1 -1.47)"/><path class="cls-1" d="M75.33,11.12a3,3,0,0,1-1.52-.38,2.67,2.67,0,0,1-1-1.07,3.5,3.5,0,0,1-.35-1.58,3.11,3.11,0,0,1,.39-1.58A2.77,2.77,0,0,1,73.9,5.45a2.85,2.85,0,0,1,1.47-.38,2.81,2.81,0,0,1,1.45.36,2.57,2.57,0,0,1,1,1.05,3.39,3.39,0,0,1,.34,1.57,3.2,3.2,0,0,1-.37,1.55,3,3,0,0,1-1,1.11A2.61,2.61,0,0,1,75.33,11.12Zm.14-.57a1.31,1.31,0,0,0,.86-.3,2,2,0,0,0,.58-.82,3.14,3.14,0,0,0,.21-1.18,3.29,3.29,0,0,0-.51-1.91,1.59,1.59,0,0,0-1.36-.73A1.52,1.52,0,0,0,74,6.25a2.66,2.66,0,0,0-.5,1.69,3.37,3.37,0,0,0,.26,1.36,2.23,2.23,0,0,0,.71.92A1.73,1.73,0,0,0,75.47,10.55Z" transform="translate(-1.1 -1.47)"/><path class="cls-1" d="M84.74,10.14l.86.22v.41L84,11.15,83.82,11l0-.84h0a2.83,2.83,0,0,1-.82.76,1.87,1.87,0,0,1-.88.21,2.19,2.19,0,0,1-1.52-.55A2.08,2.08,0,0,1,80,8.91V7.72c0-.28,0-.54,0-.8s0-.51,0-.76L79,6V5.56l1.7-.47.19.21q0,.42,0,.87c0,.3,0,.62,0,1l0,1.59A1.63,1.63,0,0,0,81.22,10a1.58,1.58,0,0,0,1.07.37,1.77,1.77,0,0,0,.8-.21,1.91,1.91,0,0,0,.72-.7V7.81c0-.2,0-.4,0-.6s0-.4,0-.59,0-.33,0-.46l-1-.19V5.56l1.77-.47.16.18c0,.27,0,.51,0,.7s0,.39,0,.58V8.11c0,.59,0,1,0,1.35S84.73,10,84.74,10.14Z" transform="translate(-1.1 -1.47)"/><path class="cls-1" d="M86.5,11l0-.45.84-.2a1.29,1.29,0,0,0,0-.25c0-.12,0-.28,0-.48V7.8c0-.32,0-.64,0-1s0-.55-.06-.69L86.39,6V5.56l1.67-.47.17.18-.07,1.16,0,0a2.84,2.84,0,0,1,.85-1.09,1.4,1.4,0,0,1,.78-.28.77.77,0,0,1,.49.15.48.48,0,0,1,.2.42.53.53,0,0,1-.2.44.91.91,0,0,1-.54.15.87.87,0,0,1-.44-.11A1.7,1.7,0,0,1,89,5.86l.21.09a2.18,2.18,0,0,0-.51.5,4,4,0,0,0-.45.78V8.55q0,.3,0,.66t0,.66c0,.21,0,.37,0,.49l1.19.17,0,.48Z" transform="translate(-1.1 -1.47)"/><path class="cls-1" d="M96.57,14.13a3.77,3.77,0,0,1-1.92-.42,1.24,1.24,0,0,1-.71-1.08,1.32,1.32,0,0,1,.34-.88,4.29,4.29,0,0,1,1.15-.86l.49.14a2.33,2.33,0,0,0-.74.63,1.28,1.28,0,0,0-.26.77,1,1,0,0,0,.46.88,2.11,2.11,0,0,0,1.23.31,2.56,2.56,0,0,0,1.48-.39,1.22,1.22,0,0,0,.57-1,.83.83,0,0,0-.36-.74,2.47,2.47,0,0,0-1.16-.3L95.75,11l-.24,0a1.19,1.19,0,0,1-.78-.27.78.78,0,0,1-.34-.64,1,1,0,0,1,.33-.7,3.15,3.15,0,0,1,.93-.64l.16.29a2.29,2.29,0,0,0-.41.36.42.42,0,0,0-.13.28.41.41,0,0,0,.19.35,1.07,1.07,0,0,0,.53.19l1.68.16a2.85,2.85,0,0,1,1.4.46,1.3,1.3,0,0,1,.49,1.1,1.7,1.7,0,0,1-.4,1.11,2.67,2.67,0,0,1-1.07.8A3.89,3.89,0,0,1,96.57,14.13Zm.12-4.84A2.92,2.92,0,0,1,95.45,9a2.09,2.09,0,0,1-.86-.71,1.7,1.7,0,0,1-.31-1,2.14,2.14,0,0,1,.32-1.15,2.34,2.34,0,0,1,.85-.8,2.55,2.55,0,0,1,1.21-.29,2.67,2.67,0,0,1,1.22.27,2,2,0,0,1,.83.73,2.09,2.09,0,0,1,0,2.16,2.23,2.23,0,0,1-.84.77A2.42,2.42,0,0,1,96.69,9.29Zm.07-.48a1.18,1.18,0,0,0,.95-.42,1.66,1.66,0,0,0,.35-1.11A1.9,1.9,0,0,0,97.67,6a1.32,1.32,0,0,0-2,0,1.71,1.71,0,0,0-.38,1.15,1.77,1.77,0,0,0,.4,1.21A1.36,1.36,0,0,0,96.76,8.81ZM99.86,6l-1.57-.1-.53-.52,2.1-.21Z" transform="translate(-1.1 -1.47)"/><path class="cls-1" d="M100.61,11l0-.45.84-.2a1.29,1.29,0,0,0,0-.25c0-.12,0-.28,0-.48V7.8c0-.32,0-.64,0-1s0-.55-.06-.69L100.5,6V5.56l1.67-.47.17.18-.07,1.16,0,0a2.84,2.84,0,0,1,.85-1.09,1.4,1.4,0,0,1,.77-.28.8.8,0,0,1,.5.15.48.48,0,0,1,.2.42.53.53,0,0,1-.2.44.91.91,0,0,1-.54.15.87.87,0,0,1-.44-.11,1.7,1.7,0,0,1-.39-.27l.2.09a2.36,2.36,0,0,0-.5.5,3.2,3.2,0,0,0-.45.78V8.55q0,.3,0,.66t0,.66c0,.21,0,.37,0,.49l1.19.17,0,.48Z" transform="translate(-1.1 -1.47)"/><path class="cls-1" d="M108,11.12a2.77,2.77,0,0,1-1.38-.34,2.45,2.45,0,0,1-1-1,3.12,3.12,0,0,1-.37-1.57,3.43,3.43,0,0,1,.38-1.69,2.8,2.8,0,0,1,1-1.09A2.49,2.49,0,0,1,108,5.07a2,2,0,0,1,1.6.68,2.89,2.89,0,0,1,.59,2V8h-4.25V7.39h3.49l-.14.14V7.28A1.88,1.88,0,0,0,108.86,6a1.26,1.26,0,0,0-1-.45,1.43,1.43,0,0,0-.78.24,1.75,1.75,0,0,0-.61.72,2.82,2.82,0,0,0-.23,1.2v.14a2.62,2.62,0,0,0,.56,1.8,1.81,1.81,0,0,0,1.43.65,1.93,1.93,0,0,0,.88-.2,2.28,2.28,0,0,0,.74-.62l.33.28a2.52,2.52,0,0,1-1,1A2.42,2.42,0,0,1,108,11.12Z" transform="translate(-1.1 -1.47)"/><path class="cls-1" d="M113.4,11.12a2.18,2.18,0,0,1-.93-.2,1.78,1.78,0,0,1-.66-.54,1.16,1.16,0,0,1-.25-.71,1,1,0,0,1,.3-.73,2.7,2.7,0,0,1,1-.52l2.07-.73V6.94a1,1,0,0,0-.22-.64,1.41,1.41,0,0,0-.56-.46,2.09,2.09,0,0,0-.81-.16.65.65,0,0,0-.5.15,1.2,1.2,0,0,0-.16.62l0,.49a1.25,1.25,0,0,1-.75,0,.47.47,0,0,1-.32-.45.64.64,0,0,1,.19-.43,2.12,2.12,0,0,1,.49-.43,4.23,4.23,0,0,1,.67-.35,3.22,3.22,0,0,1,.74-.19,2.24,2.24,0,0,1,1.53.51A1.78,1.78,0,0,1,115.82,7l0,2.41c0,.14,0,.31,0,.48a1.29,1.29,0,0,0,.06.38l.86.16v.37l-.61.22-.32.11a.85.85,0,0,1-.24,0c-.27,0-.43-.15-.5-.45l-.12-.52h.18a3.73,3.73,0,0,1-.87.74A1.69,1.69,0,0,1,113.4,11.12Zm.28-.68a1.34,1.34,0,0,0,.65-.17,1.82,1.82,0,0,0,.6-.5V8.31l-1.71.47a.85.85,0,0,0-.47.27.72.72,0,0,0-.15.47.83.83,0,0,0,.33.63A1.12,1.12,0,0,0,113.68,10.44Z" transform="translate(-1.1 -1.47)"/><path class="cls-1" d="M121.69,10.25a1.92,1.92,0,0,1-1.57.86,1.86,1.86,0,0,1-1.31-.49,1.93,1.93,0,0,1-.52-1.48l0-3.32h-1V5.57L119,4h.2l0,1.47,0,3.41a1.7,1.7,0,0,0,.32,1.12,1.17,1.17,0,0,0,.9.37,1.55,1.55,0,0,0,.61-.13,2.15,2.15,0,0,0,.5-.35Zm-2.92-4.43V5.19h2.5v.63Z" transform="translate(-1.1 -1.47)"/><path class="cls-1" d="M124.67,14l0-.45.85-.21v-.21c0-.11,0-.24,0-.41s0-.37,0-.61,0-.53,0-.86l0-3.57c0-.27,0-.56,0-.86s0-.54-.06-.68L124.59,6V5.56l1.67-.47.19.21,0,.74h0a2.76,2.76,0,0,1,.85-.74,2.13,2.13,0,0,1,1-.23,2.38,2.38,0,0,1,1.36.38,2.51,2.51,0,0,1,.92,1A3.21,3.21,0,0,1,130.87,8a3.23,3.23,0,0,1-.41,1.63,3,3,0,0,1-2.64,1.52,3.71,3.71,0,0,1-.73-.08,5.13,5.13,0,0,1-.68-.18v1.08c0,.35,0,.65,0,.89s0,.42,0,.54l1.12.17,0,.49Zm3.2-3.5a1.82,1.82,0,0,0,1-.28,1.89,1.89,0,0,0,.7-.8,3,3,0,0,0,.27-1.26A2.78,2.78,0,0,0,129.64,7a2.14,2.14,0,0,0-.66-.84,1.55,1.55,0,0,0-1-.33,1.8,1.8,0,0,0-.86.22,2.53,2.53,0,0,0-.73.63v3.37a1.89,1.89,0,0,0,.68.34A2.64,2.64,0,0,0,127.87,10.52Z" transform="translate(-1.1 -1.47)"/><path class="cls-1" d="M131.89,11l0-.46.89-.19c0-.1,0-.25,0-.44s0-.46,0-.81,0-.81,0-1.36V6c0-.35,0-.71,0-1.09s0-.74,0-1.07,0-.63,0-.86,0-.37,0-.43l-1-.14,0-.38,1.78-.53.22.18,0,1.16c0,.38,0,.81,0,1.28s0,1,0,1.68V8.1c0,.51,0,1,0,1.41s0,.71,0,.85l.88.19,0,.46Z" transform="translate(-1.1 -1.47)"/><path class="cls-1" d="M138.37,11.12a2.77,2.77,0,0,1-1.38-.34,2.45,2.45,0,0,1-1-1,3.12,3.12,0,0,1-.37-1.57A3.43,3.43,0,0,1,136,6.52a2.8,2.8,0,0,1,1-1.09,2.49,2.49,0,0,1,1.35-.36,2,2,0,0,1,1.6.68,2.89,2.89,0,0,1,.59,2V8h-4.25V7.39h3.49l-.14.14V7.28A1.88,1.88,0,0,0,139.28,6a1.26,1.26,0,0,0-1-.45,1.43,1.43,0,0,0-.78.24,1.75,1.75,0,0,0-.61.72,2.68,2.68,0,0,0-.23,1.2v.14a2.62,2.62,0,0,0,.56,1.8,1.81,1.81,0,0,0,1.43.65,1.93,1.93,0,0,0,.88-.2,2.28,2.28,0,0,0,.74-.62l.33.28a2.52,2.52,0,0,1-1,1A2.42,2.42,0,0,1,138.37,11.12Z" transform="translate(-1.1 -1.47)"/><path class="cls-1" d="M143.82,11.12a2.18,2.18,0,0,1-.93-.2,1.78,1.78,0,0,1-.66-.54,1.16,1.16,0,0,1-.25-.71,1,1,0,0,1,.3-.73,2.7,2.7,0,0,1,1-.52l2.07-.73V6.94a1,1,0,0,0-.22-.64,1.41,1.41,0,0,0-.56-.46,2.09,2.09,0,0,0-.81-.16.65.65,0,0,0-.5.15,1.11,1.11,0,0,0-.16.62l0,.49a1.25,1.25,0,0,1-.75,0,.47.47,0,0,1-.32-.45A.64.64,0,0,1,142.2,6a2.12,2.12,0,0,1,.49-.43,4.23,4.23,0,0,1,.67-.35,3.22,3.22,0,0,1,.74-.19,2.24,2.24,0,0,1,1.53.51A1.78,1.78,0,0,1,146.24,7l0,2.41a4.1,4.1,0,0,0,0,.48,1.29,1.29,0,0,0,.06.38l.86.16v.37l-.61.22-.33.11a.74.74,0,0,1-.23,0c-.27,0-.43-.15-.5-.45l-.12-.52h.18a3.73,3.73,0,0,1-.87.74A1.69,1.69,0,0,1,143.82,11.12Zm.28-.68a1.34,1.34,0,0,0,.65-.17,1.82,1.82,0,0,0,.6-.5V8.31l-1.71.47a.85.85,0,0,0-.47.27.72.72,0,0,0-.15.47.83.83,0,0,0,.33.63A1.12,1.12,0,0,0,144.1,10.44Z" transform="translate(-1.1 -1.47)"/><path class="cls-1" d="M150.2,11.12a4.67,4.67,0,0,1-1-.11,3.59,3.59,0,0,1-.84-.31l-.07-1.42h.62l.26,1a1.77,1.77,0,0,0,1.11.34,1.25,1.25,0,0,0,.78-.24.79.79,0,0,0,.31-.65.89.89,0,0,0-.27-.65,3.55,3.55,0,0,0-1-.6,5.26,5.26,0,0,1-1.35-.82,1.28,1.28,0,0,1-.39-1,1.37,1.37,0,0,1,.28-.84,1.84,1.84,0,0,1,.76-.56,2.9,2.9,0,0,1,1.14-.2,4.81,4.81,0,0,1,.75,0,2.83,2.83,0,0,1,.64.16l.15,1.39h-.57l-.34-.92a1,1,0,0,0-.33-.13,1.86,1.86,0,0,0-.42,0,1.31,1.31,0,0,0-.8.23.75.75,0,0,0-.3.62.87.87,0,0,0,.32.69,5.61,5.61,0,0,0,1.1.65,4,4,0,0,1,1.26.81,1.33,1.33,0,0,1,.36.94,1.4,1.4,0,0,1-.61,1.15A2.47,2.47,0,0,1,150.2,11.12Z" transform="translate(-1.1 -1.47)"/><path class="cls-1" d="M159,10.14l.86.22v.41l-1.62.38-.15-.16v-.84h0a2.83,2.83,0,0,1-.82.76,1.84,1.84,0,0,1-.88.21,2.16,2.16,0,0,1-1.51-.55,2.05,2.05,0,0,1-.62-1.65V7.72c0-.28,0-.54,0-.8s0-.51,0-.76L153.22,6V5.56l1.7-.47.19.21q0,.42,0,.87c0,.3,0,.62,0,1l0,1.59a1.63,1.63,0,0,0,.42,1.27,1.6,1.6,0,0,0,1.07.37,1.77,1.77,0,0,0,.8-.21,1.91,1.91,0,0,0,.72-.7V7.81c0-.2,0-.4,0-.6s0-.4,0-.59a2.92,2.92,0,0,0,0-.46L157,6V5.56l1.76-.47.16.18c0,.27,0,.51,0,.7V8.11c0,.59,0,1,0,1.35S159,10,159,10.14Z" transform="translate(-1.1 -1.47)"/><path class="cls-1" d="M160.76,11l0-.45.85-.2s0-.13,0-.25,0-.28,0-.48,0-.45,0-.75V7.8c0-.32,0-.64,0-1s0-.55-.06-.69L160.65,6V5.56l1.66-.47.17.18-.07,1.16,0,0a2.93,2.93,0,0,1,.85-1.09,1.4,1.4,0,0,1,.78-.28.82.82,0,0,1,.5.15.5.5,0,0,1,.2.42.51.51,0,0,1-.21.44,1,1,0,0,1-1,0,1.7,1.7,0,0,1-.39-.27l.21.09a2.39,2.39,0,0,0-.51.5,4,4,0,0,0-.45.78V8.55q0,.3,0,.66t0,.66c0,.21,0,.37,0,.49l1.19.17,0,.48Z" transform="translate(-1.1 -1.47)"/><path class="cls-1" d="M168.1,11.12a2.81,2.81,0,0,1-1.39-.34,2.45,2.45,0,0,1-1-1,3.12,3.12,0,0,1-.37-1.57,3.54,3.54,0,0,1,.38-1.69,2.88,2.88,0,0,1,1-1.09,2.5,2.5,0,0,1,1.36-.36,2,2,0,0,1,1.6.68,2.94,2.94,0,0,1,.58,2V8H166V7.39h3.49l-.14.14V7.28A1.88,1.88,0,0,0,169,6a1.26,1.26,0,0,0-1-.45,1.43,1.43,0,0,0-.79.24,1.75,1.75,0,0,0-.61.72,2.82,2.82,0,0,0-.23,1.2v.14a2.67,2.67,0,0,0,.56,1.8,1.83,1.83,0,0,0,1.44.65,1.86,1.86,0,0,0,.87-.2A2.19,2.19,0,0,0,170,9.5l.33.28a2.57,2.57,0,0,1-.94,1A2.47,2.47,0,0,1,168.1,11.12Z" transform="translate(-1.1 -1.47)"/><path class="cls-1" d="M173.85,11l0-.46.91-.19a.72.72,0,0,0,0-.17c0-.08,0-.22,0-.43V8c0-.41,0-.79,0-1.13s0-.59-.06-.73L173.78,6V5.56l1.78-.47.15.17c0,.28,0,.56-.05.82s0,.59,0,1V8.76c0,.44,0,.8,0,1.08s0,.44,0,.52l.91.19,0,.46Zm1.37-7.59a.75.75,0,0,1-.53-.2.67.67,0,0,1,0-1,.76.76,0,0,1,.53-.21.73.73,0,0,1,.52.21.67.67,0,0,1,.22.51.67.67,0,0,1-.22.52A.72.72,0,0,1,175.22,3.42Z" transform="translate(-1.1 -1.47)"/><path class="cls-1" d="M177.34,5.83v-.4l1-.23h2.4v.63Zm3,5.18H177.5l0-.45.84-.2c0-.08,0-.16,0-.26s0-.22,0-.37V8.51l0-2.68V4.19a3.83,3.83,0,0,1,.26-1.47,2.16,2.16,0,0,1,.73-.93,1.89,1.89,0,0,1,1.09-.32,1.55,1.55,0,0,1,.86.23.69.69,0,0,1,.36.58.35.35,0,0,1-.11.26.37.37,0,0,1-.27.11.84.84,0,0,1-.62-.29L180,1.8l.26.08a.9.9,0,0,0-.82.53,2.93,2.93,0,0,0-.3,1.45V5.2l0,.63V8.37c0,.39,0,.76,0,1.14s0,.66,0,.85l1.12.16Z" transform="translate(-1.1 -1.47)"/><path class="cls-1" d="M186.61,11.07l-2.38-5.25-.64-.19,0-.46h2.42l0,.46-.85.19,2,4.39Zm3.4-5.9,0,.46-.64.19-2.3,4.93L186,13a2.47,2.47,0,0,1-.6.86,1.16,1.16,0,0,1-.76.25.88.88,0,0,1-.51-.14.47.47,0,0,1-.2-.39.52.52,0,0,1,.15-.35,1,1,0,0,1,.44-.25l1.18-.36-.55.7,1.48-2.89.15-.23,1.86-4.4-.85-.19,0-.46Z" transform="translate(-1.1 -1.47)"/><path class="cls-1" d="M193.35,11.12a3,3,0,0,1-1.53-.38,2.65,2.65,0,0,1-1-1.07,3.38,3.38,0,0,1-.36-1.58,3.11,3.11,0,0,1,.39-1.58,2.84,2.84,0,0,1,1.06-1.06,2.89,2.89,0,0,1,1.48-.38,2.81,2.81,0,0,1,1.45.36,2.57,2.57,0,0,1,1,1.05,3.52,3.52,0,0,1,.34,1.57,3.2,3.2,0,0,1-.37,1.55,3,3,0,0,1-1,1.11A2.56,2.56,0,0,1,193.35,11.12Zm.14-.57a1.34,1.34,0,0,0,.86-.3,2.1,2.1,0,0,0,.58-.82,3.14,3.14,0,0,0,.21-1.18,3.29,3.29,0,0,0-.51-1.91,1.61,1.61,0,0,0-1.36-.73,1.55,1.55,0,0,0-1.29.64,2.65,2.65,0,0,0-.49,1.69,3.37,3.37,0,0,0,.26,1.36,2.15,2.15,0,0,0,.71.92A1.69,1.69,0,0,0,193.49,10.55Z" transform="translate(-1.1 -1.47)"/><path class="cls-1" d="M202.76,10.14l.86.22v.41l-1.63.38-.15-.16v-.84h0a2.69,2.69,0,0,1-.81.76,1.87,1.87,0,0,1-.88.21,2.19,2.19,0,0,1-1.52-.55A2.08,2.08,0,0,1,198,8.91V7.72c0-.28,0-.54,0-.8s0-.51,0-.76L197,6V5.56l1.69-.47.19.21c0,.28,0,.57,0,.87s0,.62,0,1V8.72a1.67,1.67,0,0,0,.41,1.27,1.61,1.61,0,0,0,1.08.37,1.73,1.73,0,0,0,.79-.21,1.93,1.93,0,0,0,.73-.7V7.81c0-.2,0-.4,0-.6s0-.4,0-.59,0-.33,0-.46l-1-.19V5.56l1.76-.47.17.18c0,.27,0,.51,0,.7s0,.39,0,.58V8.11c0,.59,0,1,0,1.35S202.75,10,202.76,10.14Z" transform="translate(-1.1 -1.47)"/><path class="cls-1" d="M209.51,11.07l-2.16-5.25-.64-.19,0-.46H209l0,.46-.7.19,1.75,4.39h-.4l1.86-4.55.33.82-2,4.58Zm3.88,0-2-5.25-.7-.19,0-.46H213l0,.46-.72.19,1.65,4.39h-.33l1.65-4.4-.71-.19,0-.46h2.06l0,.46-.64.19-2.27,5.25Z" transform="translate(-1.1 -1.47)"/><path class="cls-1" d="M220,11.12a3,3,0,0,1-1.53-.38,2.58,2.58,0,0,1-1-1.07,3.38,3.38,0,0,1-.36-1.58,3.11,3.11,0,0,1,.39-1.58,2.77,2.77,0,0,1,1.06-1.06,2.89,2.89,0,0,1,1.48-.38,2.84,2.84,0,0,1,1.45.36,2.48,2.48,0,0,1,.95,1.05,3.4,3.4,0,0,1,.35,1.57,3.32,3.32,0,0,1-.37,1.55,3,3,0,0,1-1,1.11A2.56,2.56,0,0,1,220,11.12Zm.13-.57a1.31,1.31,0,0,0,.86-.3,2.11,2.11,0,0,0,.59-.82,3.14,3.14,0,0,0,.21-1.18,3.29,3.29,0,0,0-.51-1.91A1.62,1.62,0,0,0,220,5.61a1.54,1.54,0,0,0-1.28.64,2.65,2.65,0,0,0-.49,1.69,3.21,3.21,0,0,0,.26,1.36,2.15,2.15,0,0,0,.71.92A1.68,1.68,0,0,0,220.17,10.55Z" transform="translate(-1.1 -1.47)"/><path class="cls-1" d="M229.44,10.14l.86.22v.41l-1.62.38-.15-.16v-.84h0a2.81,2.81,0,0,1-.81.76,1.91,1.91,0,0,1-.89.21,2.16,2.16,0,0,1-1.51-.55,2.08,2.08,0,0,1-.62-1.65V7.72c0-.28,0-.54,0-.8s0-.51-.05-.76L223.67,6V5.56l1.7-.47.19.21q0,.42,0,.87c0,.3,0,.62,0,1V8.72a1.63,1.63,0,0,0,.41,1.27,1.61,1.61,0,0,0,1.08.37,1.73,1.73,0,0,0,.79-.21,1.91,1.91,0,0,0,.72-.7V7.21c0-.21,0-.4,0-.59a4.63,4.63,0,0,0-.05-.46l-1-.19V5.56l1.76-.47.16.18c0,.27,0,.51,0,.7V8.11c0,.59,0,1,0,1.35S229.43,10,229.44,10.14Z" transform="translate(-1.1 -1.47)"/><path class="cls-1" d="M231.14,11l0-.46.89-.19a2.44,2.44,0,0,0,0-.44c0-.19,0-.46,0-.81V5c0-.38,0-.74,0-1.07s0-.63,0-.86,0-.37,0-.43l-1-.14,0-.38,1.78-.53.22.18,0,1.16c0,.38,0,.81,0,1.28V5.84l0,2.26q0,.76,0,1.41c0,.43,0,.71,0,.85l.89.19,0,.46Z" transform="translate(-1.1 -1.47)"/><path class="cls-1" d="M239.52,11.15l-.15-.16v-.91h0a2.88,2.88,0,0,1-.87.8,1.93,1.93,0,0,1-.92.23,2.68,2.68,0,0,1-1.4-.36,2.63,2.63,0,0,1-1-1,3,3,0,0,1-.35-1.46,3.42,3.42,0,0,1,.24-1.3,3.07,3.07,0,0,1,1.59-1.7,2.64,2.64,0,0,1,1.11-.24,3.62,3.62,0,0,1,.86.11,1.79,1.79,0,0,1,.73.36c0-.17,0-.39,0-.67s0-.58,0-.89,0-.57,0-.81V2.69l-1.08-.21,0-.41,1.83-.53.22.18c0,.56,0,1.11,0,1.66s0,1.1,0,1.69V8.21c0,.46,0,.87,0,1.21s0,.58.05.72l.86.22v.41Zm-1.72-.83a1.79,1.79,0,0,0,.81-.19,2.56,2.56,0,0,0,.76-.66V6.57a1.72,1.72,0,0,0-.72-.74,2,2,0,0,0-.87-.22,1.7,1.7,0,0,0-1.43.67,2.71,2.71,0,0,0-.51,1.7,2.39,2.39,0,0,0,.58,1.72A1.82,1.82,0,0,0,237.8,10.32Z" transform="translate(-1.1 -1.47)"/><path class="cls-1" d="M244.73,11l0-.45.78-.2a3.66,3.66,0,0,0,0-.41c0-.2,0-.45,0-.76s0-.67,0-1.1V5c0-.38,0-.73,0-1.07s0-.62,0-.85,0-.39,0-.45l-1-.14,0-.38,1.76-.53.24.18,0,.94c0,.31,0,.62,0,.94s0,.65,0,1V9.1c0,.24,0,.44,0,.61s0,.32,0,.42a2.3,2.3,0,0,1,0,.23l.85.2,0,.45Zm5.75,0h-1.35c-.16-.22-.29-.39-.38-.49a3.58,3.58,0,0,0-.26-.29l-1.94-2.1h-.4V7.85l.56-.16,1.85-1.89-.9-.16,0-.47h2.67l0,.47-.9.16L247,8.09l.23-.45,1.86,2,.38.39.41.4.65.14Z" transform="translate(-1.1 -1.47)"/><path class="cls-1" d="M251,11l0-.46.92-.19a.72.72,0,0,0,0-.17c0-.08,0-.22,0-.43s0-.5,0-.88V8c0-.41,0-.79,0-1.13s0-.59-.05-.73L251,6V5.56l1.78-.47.15.17c0,.28,0,.56,0,.82s0,.59,0,1V8.76c0,.44,0,.8,0,1.08s0,.44,0,.52l.91.19,0,.46Zm1.37-7.59a.79.79,0,0,1-.54-.2.69.69,0,0,1,0-1A.8.8,0,0,1,252.4,2a.73.73,0,0,1,.52.21.71.71,0,0,1,0,1A.72.72,0,0,1,252.4,3.42Z" transform="translate(-1.1 -1.47)"/><path class="cls-1" d="M254.64,11l0-.45.85-.2a2.13,2.13,0,0,0,0-.27c0-.1,0-.25,0-.44s0-.45,0-.77l0-1.07c0-.31,0-.62,0-.95s0-.56-.06-.7L254.54,6V5.56l1.67-.47.19.21-.06.71h0a3.67,3.67,0,0,1,.95-.74,2.31,2.31,0,0,1,1-.21,2,2,0,0,1,.91.23,1.79,1.79,0,0,1,.73.76,2.69,2.69,0,0,1,.29,1.32V8.92c0,.34,0,.64,0,.9a4.65,4.65,0,0,0,.06.54l.85.2,0,.45h-2.56l0-.45.8-.2a2,2,0,0,0,0-.26,3.53,3.53,0,0,0,0-.39c0-.17,0-.39,0-.67V7.47a1.94,1.94,0,0,0-.23-1,1.37,1.37,0,0,0-.57-.53,1.57,1.57,0,0,0-.65-.15,1.75,1.75,0,0,0-.89.24,2.22,2.22,0,0,0-.71.66V8.76c0,.44,0,.79,0,1.05s0,.44,0,.55l.85.2,0,.45Z" transform="translate(-1.1 -1.47)"/><path class="cls-1" d="M266.79,11.15l-.15-.16,0-.91h0a3,3,0,0,1-.87.8,2,2,0,0,1-.92.23,2.74,2.74,0,0,1-1.41-.36,2.68,2.68,0,0,1-.95-1,2.92,2.92,0,0,1-.35-1.46,3.62,3.62,0,0,1,.23-1.3A3.12,3.12,0,0,1,263,6a3.06,3.06,0,0,1,.94-.67,2.68,2.68,0,0,1,1.12-.24,3.54,3.54,0,0,1,.85.11,1.73,1.73,0,0,1,.73.36V4.85c0-.29,0-.58,0-.89s0-.57,0-.81,0-.39,0-.46l-1.08-.21,0-.41,1.83-.53.22.18c0,.56,0,1.11,0,1.66V5.07l0,3.14c0,.46,0,.87,0,1.21s0,.58,0,.72l.87.22v.41Zm-1.72-.83a1.87,1.87,0,0,0,.82-.19,2.43,2.43,0,0,0,.75-.66V6.57a1.76,1.76,0,0,0-.71-.74,2,2,0,0,0-.87-.22,1.69,1.69,0,0,0-1.43.67,2.71,2.71,0,0,0-.51,1.7,2.43,2.43,0,0,0,.57,1.72A1.82,1.82,0,0,0,265.07,10.32Z" transform="translate(-1.1 -1.47)"/><path class="cls-1" d="M269.28,11l0-.46.88-.19a3.52,3.52,0,0,0,0-.44c0-.19,0-.46,0-.81s0-.81,0-1.36V6c0-.35,0-.71,0-1.09s0-.74,0-1.07,0-.63,0-.86V2.59l-1-.14,0-.38,1.78-.53.21.18c0,.39,0,.78,0,1.16s0,.81,0,1.28,0,1,0,1.68V8.1c0,.51,0,1,0,1.41s0,.71,0,.85l.89.19,0,.46Z" transform="translate(-1.1 -1.47)"/><path class="cls-1" d="M275.39,11.07,273,5.82l-.65-.19,0-.46h2.42l0,.46-.85.19,2,4.39Zm3.41-5.9,0,.46-.64.19-2.3,4.93L274.79,13a2.47,2.47,0,0,1-.6.86,1.15,1.15,0,0,1-.75.25.88.88,0,0,1-.51-.14.45.45,0,0,1-.2-.39.56.56,0,0,1,.14-.35,1.06,1.06,0,0,1,.45-.25l1.17-.36-.55.7,1.48-2.89.15-.23,1.86-4.4-.85-.19,0-.46Z" transform="translate(-1.1 -1.47)"/><path class="cls-1" d="M284.12,11.12a2.18,2.18,0,0,1-.93-.2,1.87,1.87,0,0,1-.66-.54,1.16,1.16,0,0,1-.25-.71,1,1,0,0,1,.31-.73,2.64,2.64,0,0,1,1-.52l2.07-.73V6.94a1,1,0,0,0-.21-.64,1.44,1.44,0,0,0-.57-.46,2.09,2.09,0,0,0-.81-.16.66.66,0,0,0-.5.15,1.12,1.12,0,0,0-.15.62l0,.49a1.26,1.26,0,0,1-.75,0,.47.47,0,0,1-.32-.45A.64.64,0,0,1,282.5,6a2.12,2.12,0,0,1,.49-.43,4.23,4.23,0,0,1,.67-.35,3.22,3.22,0,0,1,.74-.19,2.29,2.29,0,0,1,1.54.51,1.81,1.81,0,0,1,.6,1.37l0,2.41c0,.14,0,.31,0,.48a1.29,1.29,0,0,0,.06.38l.86.16v.37l-.61.22-.32.11a.85.85,0,0,1-.24,0c-.27,0-.43-.15-.5-.45l-.12-.52h.18a3.73,3.73,0,0,1-.87.74A1.69,1.69,0,0,1,284.12,11.12Zm.28-.68a1.34,1.34,0,0,0,.65-.17,1.82,1.82,0,0,0,.6-.5V8.31l-1.71.47a.85.85,0,0,0-.47.27.72.72,0,0,0-.15.47.83.83,0,0,0,.33.63A1.12,1.12,0,0,0,284.4,10.44Z" transform="translate(-1.1 -1.47)"/><path class="cls-1" d="M292.42,10.25a2,2,0,0,1-.7.63,1.92,1.92,0,0,1-2.19-.26A1.93,1.93,0,0,1,289,9.14l0-3.32h-.95V5.57L289.71,4h.2l0,1.47,0,3.41a1.7,1.7,0,0,0,.32,1.12,1.17,1.17,0,0,0,.9.37,1.55,1.55,0,0,0,.61-.13,2.15,2.15,0,0,0,.5-.35Zm-2.93-4.43V5.19H292v.63Z" transform="translate(-1.1 -1.47)"/><path class="cls-1" d="M296.94,10.25a1.85,1.85,0,0,1-.7.63,1.83,1.83,0,0,1-.87.23,1.85,1.85,0,0,1-1.31-.49,1.93,1.93,0,0,1-.52-1.48l0-3.32h-1V5.57L294.23,4h.21l0,1.47V8.91a1.7,1.7,0,0,0,.32,1.12,1.13,1.13,0,0,0,.89.37,1.51,1.51,0,0,0,.61-.13,1.8,1.8,0,0,0,.5-.35ZM294,5.82V5.19h2.5v.63Z" transform="translate(-1.1 -1.47)"/><path class="cls-1" d="M300.11,11.12a2.77,2.77,0,0,1-1.38-.34,2.53,2.53,0,0,1-1-1,3.22,3.22,0,0,1-.37-1.57,3.43,3.43,0,0,1,.39-1.69,2.8,2.8,0,0,1,1-1.09,2.49,2.49,0,0,1,1.35-.36,2,2,0,0,1,1.6.68,2.94,2.94,0,0,1,.59,2V8h-4.25V7.39h3.48l-.13.14V7.28A1.88,1.88,0,0,0,301,6a1.26,1.26,0,0,0-1-.45,1.43,1.43,0,0,0-.78.24,1.68,1.68,0,0,0-.61.72,2.68,2.68,0,0,0-.23,1.2v.14a2.62,2.62,0,0,0,.56,1.8,1.81,1.81,0,0,0,1.43.65,1.93,1.93,0,0,0,.88-.2A2.28,2.28,0,0,0,302,9.5l.32.28a2.5,2.5,0,0,1-.94,1A2.42,2.42,0,0,1,300.11,11.12Z" transform="translate(-1.1 -1.47)"/><path class="cls-1" d="M303.31,11l0-.45.85-.2a2.13,2.13,0,0,0,0-.27c0-.1,0-.25,0-.44V8.88l0-1.07c0-.31,0-.62,0-.95s0-.56-.06-.7L303.22,6V5.56l1.66-.47.2.21L305,6h0a3.7,3.7,0,0,1,1-.74,2.27,2.27,0,0,1,1-.21,2,2,0,0,1,.92.23,1.83,1.83,0,0,1,.72.76,2.69,2.69,0,0,1,.29,1.32V8.92c0,.34,0,.64,0,.9a4.65,4.65,0,0,0,.06.54l.85.2,0,.45h-2.56l0-.45.79-.2c0-.08,0-.16,0-.26s0-.22,0-.39V7.47a1.84,1.84,0,0,0-.23-1,1.31,1.31,0,0,0-.57-.53,1.57,1.57,0,0,0-.65-.15,1.71,1.71,0,0,0-.88.24,2.15,2.15,0,0,0-.72.66V8.76q0,.66,0,1.05c0,.25,0,.44,0,.55l.85.2,0,.45Z" transform="translate(-1.1 -1.47)"/><path class="cls-1" d="M315.47,11.15l-.15-.16v-.91h0a2.88,2.88,0,0,1-.87.8,2,2,0,0,1-.92.23,2.68,2.68,0,0,1-1.4-.36,2.63,2.63,0,0,1-1-1,3,3,0,0,1-.35-1.46A3.62,3.62,0,0,1,311,7a3,3,0,0,1,1.6-1.7,2.64,2.64,0,0,1,1.11-.24,3.54,3.54,0,0,1,.85.11,1.77,1.77,0,0,1,.74.36c0-.17,0-.39,0-.67s0-.58,0-.89,0-.57,0-.81V2.69l-1.09-.21,0-.41L316,1.54l.22.18c0,.56,0,1.11,0,1.66V5.07l0,3.14c0,.46,0,.87,0,1.21s0,.58.05.72l.86.22v.41Zm-1.73-.83a1.83,1.83,0,0,0,.82-.19,2.56,2.56,0,0,0,.76-.66V6.57a1.77,1.77,0,0,0-.72-.74,2,2,0,0,0-.87-.22,1.69,1.69,0,0,0-1.43.67,2.71,2.71,0,0,0-.51,1.7,2.43,2.43,0,0,0,.57,1.72A1.85,1.85,0,0,0,313.74,10.32Z" transform="translate(-1.1 -1.47)"/><path class="cls-1" d="M8,27.92a3,3,0,0,1-1.52-.38,2.61,2.61,0,0,1-1-1.07,3.37,3.37,0,0,1-.35-1.58,3.11,3.11,0,0,1,.39-1.58,2.74,2.74,0,0,1,1-1.06,2.89,2.89,0,0,1,1.48-.38,2.81,2.81,0,0,1,1.45.36,2.57,2.57,0,0,1,1,1.05,3.52,3.52,0,0,1,.34,1.57,3.2,3.2,0,0,1-.37,1.55,3,3,0,0,1-1,1.1A2.54,2.54,0,0,1,8,27.92Zm.14-.57a1.33,1.33,0,0,0,.86-.3,2.1,2.1,0,0,0,.58-.82,3.14,3.14,0,0,0,.21-1.18,3.29,3.29,0,0,0-.51-1.91A1.61,1.61,0,0,0,8,22.41a1.55,1.55,0,0,0-1.29.64,2.65,2.65,0,0,0-.49,1.69,3.37,3.37,0,0,0,.26,1.36,2.15,2.15,0,0,0,.71.92A1.69,1.69,0,0,0,8.18,27.35Z" transform="translate(-1.1 -1.47)"/><path class="cls-1" d="M17.45,26.94l.86.22v.41L16.68,28l-.15-.16V27h0a2.69,2.69,0,0,1-.81.76,1.87,1.87,0,0,1-.88.21,2.19,2.19,0,0,1-1.52-.55,2.08,2.08,0,0,1-.62-1.65V24.52c0-.28,0-.54,0-.8s0-.51,0-.76l-.93-.19v-.41l1.69-.47.19.21c0,.28,0,.57,0,.87s0,.62,0,1v1.59a1.63,1.63,0,0,0,.42,1.27,1.56,1.56,0,0,0,1.07.37,1.73,1.73,0,0,0,.79-.21,1.87,1.87,0,0,0,.73-.7V24.61c0-.2,0-.4,0-.61s0-.39,0-.58,0-.33,0-.46l-1-.19v-.41l1.76-.47.17.18c0,.27,0,.51,0,.7s0,.39,0,.58v1.56c0,.59,0,1,0,1.35S17.44,26.8,17.45,26.94Z" transform="translate(-1.1 -1.47)"/><path class="cls-1" d="M19.21,27.81l0-.45.85-.2a1.29,1.29,0,0,0,0-.25c0-.12,0-.28,0-.48s0-.45,0-.75V24.6c0-.32,0-.64,0-1S20,23.1,20,23l-.88-.19v-.41l1.67-.47.16.18-.07,1.16.05,0a2.93,2.93,0,0,1,.84-1.09,1.46,1.46,0,0,1,.78-.28A.8.8,0,0,1,23,22a.5.5,0,0,1,.2.42.51.51,0,0,1-.21.44.86.86,0,0,1-.53.15,1,1,0,0,1-.44-.11,1.7,1.7,0,0,1-.39-.27l.2.09a2.36,2.36,0,0,0-.5.5,3.2,3.2,0,0,0-.45.78v1.32q0,.3,0,.66c0,.24,0,.46,0,.66s0,.37,0,.49l1.19.17,0,.48Z" transform="translate(-1.1 -1.47)"/><path class="cls-1" d="M28.81,27.92a4.6,4.6,0,0,1-1-.11A3.59,3.59,0,0,1,27,27.5l-.07-1.42h.62l.26,1a1.76,1.76,0,0,0,1.1.34,1.25,1.25,0,0,0,.78-.24.77.77,0,0,0,.32-.65.86.86,0,0,0-.28-.65,3.14,3.14,0,0,0-1-.6,5.26,5.26,0,0,1-1.35-.82,1.29,1.29,0,0,1-.39-1,1.3,1.3,0,0,1,.28-.83,1.78,1.78,0,0,1,.76-.56,2.9,2.9,0,0,1,1.14-.2,4.89,4.89,0,0,1,.75.05,3,3,0,0,1,.64.16l.15,1.38h-.57l-.35-.91a1,1,0,0,0-.32-.13,1.88,1.88,0,0,0-.43-.05,1.28,1.28,0,0,0-.79.23.75.75,0,0,0-.3.62.86.86,0,0,0,.31.69,5.77,5.77,0,0,0,1.11.65,4.14,4.14,0,0,1,1.26.81,1.32,1.32,0,0,1,.35.94,1.39,1.39,0,0,1-.6,1.15A2.47,2.47,0,0,1,28.81,27.92Z" transform="translate(-1.1 -1.47)"/><path class="cls-1" d="M32,30.82l0-.45.85-.21a2,2,0,0,1,0-.21c0-.11,0-.24,0-.41s0-.37,0-.61v-.86l0-3.57c0-.27,0-.56,0-.86s-.05-.54-.07-.68l-.87-.19v-.41l1.67-.47.19.21-.06.74h0a2.88,2.88,0,0,1,.85-.74,2.16,2.16,0,0,1,1-.23,2.41,2.41,0,0,1,1.37.38,2.58,2.58,0,0,1,.92,1,3.34,3.34,0,0,1,.32,1.47,3.14,3.14,0,0,1-.41,1.63,2.93,2.93,0,0,1-1.1,1.11,3,3,0,0,1-1.53.41,3.81,3.81,0,0,1-.74-.08,5,5,0,0,1-.67-.18v1.08c0,.35,0,.65,0,.89s0,.42,0,.54l1.12.17,0,.49Zm3.2-3.5a1.86,1.86,0,0,0,1-.28,2,2,0,0,0,.7-.8A3.17,3.17,0,0,0,37.2,25,2.63,2.63,0,0,0,37,23.81a2,2,0,0,0-.65-.84,1.57,1.57,0,0,0-1-.33,1.83,1.83,0,0,0-.86.22,2.63,2.63,0,0,0-.72.63v3.37a1.84,1.84,0,0,0,.67.34A2.71,2.71,0,0,0,35.22,27.32Z" transform="translate(-1.1 -1.47)"/><path class="cls-1" d="M42.15,27.92a2.83,2.83,0,0,1-1.39-.34,2.57,2.57,0,0,1-1-1A3.22,3.22,0,0,1,39.4,25a3.43,3.43,0,0,1,.39-1.69,2.8,2.8,0,0,1,1-1.09,2.49,2.49,0,0,1,1.35-.36,2,2,0,0,1,1.6.68,2.94,2.94,0,0,1,.59,2v.23H40.09v-.57h3.48l-.13.14v-.25a1.88,1.88,0,0,0-.38-1.26,1.26,1.26,0,0,0-1-.45,1.43,1.43,0,0,0-.78.24,1.68,1.68,0,0,0-.61.72,2.68,2.68,0,0,0-.23,1.2v.14a2.62,2.62,0,0,0,.56,1.8,1.81,1.81,0,0,0,1.43.65,1.93,1.93,0,0,0,.88-.2,2.09,2.09,0,0,0,.73-.63l.33.29a2.5,2.5,0,0,1-.94,1A2.42,2.42,0,0,1,42.15,27.92Z" transform="translate(-1.1 -1.47)"/><path class="cls-1" d="M48.21,27.92a2.81,2.81,0,0,1-1.37-.34,2.53,2.53,0,0,1-1-1,3.46,3.46,0,0,1,0-3.19,2.88,2.88,0,0,1,1.08-1.11A3.21,3.21,0,0,1,49.45,22a1.32,1.32,0,0,1,.58.37.72.72,0,0,1,.2.48.53.53,0,0,1-.11.34.45.45,0,0,1-.35.13.81.81,0,0,1-.37-.08,2.3,2.3,0,0,1-.37-.33l-.62-.66.43.14a1.82,1.82,0,0,0-2,.91,2.79,2.79,0,0,0-.36,1.49,2.35,2.35,0,0,0,.58,1.71,1.85,1.85,0,0,0,1.42.61,2,2,0,0,0,.93-.2,2.21,2.21,0,0,0,.72-.61l.34.29a2.57,2.57,0,0,1-.94,1A2.52,2.52,0,0,1,48.21,27.92Z" transform="translate(-1.1 -1.47)"/><path class="cls-1" d="M51,27.81l0-.46.92-.19s0-.1,0-.17,0-.22,0-.43,0-.5,0-.88v-.86c0-.41,0-.79,0-1.13s0-.59,0-.73l-.92-.19v-.41l1.78-.47.15.17c0,.28,0,.56,0,.82s0,.59,0,.95v1.73c0,.44,0,.8,0,1.08s0,.44,0,.52l.91.19,0,.46Zm1.37-7.59a.79.79,0,0,1-.54-.2.69.69,0,0,1,0-1,.8.8,0,0,1,.54-.21.73.73,0,0,1,.52.21.71.71,0,0,1,0,1A.72.72,0,0,1,52.34,20.22Z" transform="translate(-1.1 -1.47)"/><path class="cls-1" d="M56.82,27.92a2.14,2.14,0,0,1-.92-.2,1.78,1.78,0,0,1-.66-.54,1.12,1.12,0,0,1-.25-.71,1,1,0,0,1,.3-.73,2.61,2.61,0,0,1,1-.53l2.06-.72v-.75a1,1,0,0,0-.21-.64,1.37,1.37,0,0,0-.57-.46,2,2,0,0,0-.8-.16.63.63,0,0,0-.5.15,1.11,1.11,0,0,0-.16.62l0,.49a1.26,1.26,0,0,1-.75,0,.46.46,0,0,1-.31-.45.67.67,0,0,1,.18-.43,2.35,2.35,0,0,1,.49-.43,4.71,4.71,0,0,1,.67-.35,3.18,3.18,0,0,1,.75-.19,2.24,2.24,0,0,1,1.53.51,1.81,1.81,0,0,1,.6,1.37l0,2.41c0,.14,0,.31,0,.48a1.61,1.61,0,0,0,.07.38l.86.16v.37l-.62.22-.32.11a.75.75,0,0,1-.24,0,.48.48,0,0,1-.49-.45L58.37,27h.17a3.92,3.92,0,0,1-.86.74A1.72,1.72,0,0,1,56.82,27.92Zm.29-.68a1.37,1.37,0,0,0,.65-.17,2,2,0,0,0,.59-.5V25.11l-1.71.47a.89.89,0,0,0-.47.27.77.77,0,0,0-.14.47.83.83,0,0,0,.33.63A1.12,1.12,0,0,0,57.11,27.24Z" transform="translate(-1.1 -1.47)"/><path class="cls-1" d="M61,27.81l0-.46.89-.19a3.52,3.52,0,0,0,0-.44c0-.19,0-.46,0-.81s0-.81,0-1.37v-1.7c0-.35,0-.71,0-1.09s0-.74,0-1.07,0-.63,0-.86v-.43l-1-.14,0-.38,1.77-.53.22.18c0,.39,0,.77,0,1.16s0,.81,0,1.28v1.68l0,2.26q0,.77,0,1.41c0,.43,0,.71,0,.85l.89.19,0,.46Z" transform="translate(-1.1 -1.47)"/><path class="cls-1" d="M71.94,28l-.15-.16,0-.91h0a3,3,0,0,1-.86.8,2,2,0,0,1-.93.23,2.56,2.56,0,0,1-2.35-1.36,2.92,2.92,0,0,1-.35-1.46,3.42,3.42,0,0,1,.23-1.3,3,3,0,0,1,.65-1,3.06,3.06,0,0,1,.94-.67,2.65,2.65,0,0,1,1.12-.24,3.61,3.61,0,0,1,.85.11,1.73,1.73,0,0,1,.73.36v-.67c0-.29,0-.58,0-.89s0-.57,0-.81,0-.39,0-.46l-1.08-.21,0-.41,1.84-.53.21.18c0,.56,0,1.11,0,1.66s0,1.1,0,1.69V25c0,.46,0,.87,0,1.21s0,.58,0,.72l.86.22v.41Zm-1.72-.83a1.79,1.79,0,0,0,.81-.19,2.45,2.45,0,0,0,.76-.66v-2.9a1.72,1.72,0,0,0-.72-.74,1.93,1.93,0,0,0-.86-.22,1.69,1.69,0,0,0-1.43.67,2.69,2.69,0,0,0-.52,1.7,2.43,2.43,0,0,0,.58,1.72A1.82,1.82,0,0,0,70.22,27.12Z" transform="translate(-1.1 -1.47)"/><path class="cls-1" d="M76.71,27.92a2.17,2.17,0,0,1-.92-.2,1.78,1.78,0,0,1-.66-.54,1.12,1.12,0,0,1-.25-.71,1,1,0,0,1,.3-.73,2.7,2.7,0,0,1,1-.53l2.07-.72v-.75A1.05,1.05,0,0,0,78,23.1a1.41,1.41,0,0,0-.56-.46,2.09,2.09,0,0,0-.81-.16.65.65,0,0,0-.5.15,1.11,1.11,0,0,0-.16.62l0,.49a1.28,1.28,0,0,1-.76,0,.46.46,0,0,1-.31-.45.67.67,0,0,1,.18-.43,2.43,2.43,0,0,1,.5-.43,3.83,3.83,0,0,1,.67-.35,3.22,3.22,0,0,1,.74-.19,2.24,2.24,0,0,1,1.53.51,1.81,1.81,0,0,1,.6,1.37l0,2.41a4.1,4.1,0,0,0,0,.48,1.29,1.29,0,0,0,.06.38l.86.16v.37l-.62.22a2.44,2.44,0,0,1-.32.11.75.75,0,0,1-.24,0c-.26,0-.42-.15-.49-.45L78.26,27h.18a3.73,3.73,0,0,1-.87.74A1.7,1.7,0,0,1,76.71,27.92Zm.29-.68a1.34,1.34,0,0,0,.65-.17,2.07,2.07,0,0,0,.6-.5V25.11l-1.71.47a.92.92,0,0,0-.48.27.77.77,0,0,0-.14.47.83.83,0,0,0,.33.63A1.12,1.12,0,0,0,77,27.24Z" transform="translate(-1.1 -1.47)"/><path class="cls-1" d="M83.32,27.87l-2.38-5.25-.64-.19,0-.46h2.42l0,.46-.84.19,2,4.39Zm3.4-5.9,0,.46-.64.19-2.3,4.93-1.1,2.27a2.61,2.61,0,0,1-.61.86,1.15,1.15,0,0,1-.75.25.88.88,0,0,1-.51-.14.47.47,0,0,1-.2-.39.52.52,0,0,1,.15-.35,1.07,1.07,0,0,1,.44-.26l1.18-.35-.55.7,1.47-2.89L83.5,27l1.85-4.4-.84-.19,0-.46Z" transform="translate(-1.1 -1.47)"/><path class="cls-1" d="M87.73,28a.73.73,0,0,1-.54-.21.69.69,0,0,1-.21-.52.65.65,0,0,1,.1-.36.69.69,0,0,1,.26-.25.83.83,0,0,1,.38-.1.74.74,0,0,1,.55.21.7.7,0,0,1,.2.5.72.72,0,0,1-.2.52A.73.73,0,0,1,87.73,28Z" transform="translate(-1.1 -1.47)"/><path class="cls-1" d="M98.71,19.73l.3,2.16-.53.07-.59-1.53a.75.75,0,0,0-.23,0H96.05c0,.08,0,.24,0,.51s0,.57,0,.91v3c0,.61,0,1.12,0,1.55s0,.7,0,.81l1.15.15,0,.5H93.91l0-.5L95,27.16c0-.11,0-.38,0-.81s0-.94,0-1.55V20.91a4.6,4.6,0,0,0,0-.51H93.41a.73.73,0,0,0-.22,0L92.6,22l-.53-.08.3-2.16.31,0,.28,0h5.15l.28,0Z" transform="translate(-1.1 -1.47)"/><path class="cls-1" d="M99.72,27.81l0-.45.84-.2a3.52,3.52,0,0,0,0-.45c0-.19,0-.46,0-.81s0-.8,0-1.36v-1.7c0-.31,0-.65,0-1s0-.72,0-1.06,0-.65,0-.9v-.47l-1-.14,0-.38,1.75-.53.22.18c0,.28,0,.56,0,.85s0,.59,0,.92,0,.7,0,1.11,0,.88,0,1.41h0a3.67,3.67,0,0,1,1-.74,2.3,2.3,0,0,1,1-.21,1.89,1.89,0,0,1,.92.24,1.92,1.92,0,0,1,.72.77,2.76,2.76,0,0,1,.29,1.35v1.49q0,.51,0,.9a3.78,3.78,0,0,0,0,.54l.85.2v.45h-2.56l0-.45.79-.2c0-.08,0-.16,0-.26s0-.22,0-.39,0-.39,0-.67V24.29a2.06,2.06,0,0,0-.22-1,1.28,1.28,0,0,0-.54-.54,1.41,1.41,0,0,0-.69-.17,1.72,1.72,0,0,0-.89.24,2.12,2.12,0,0,0-.71.66v2.08c0,.43,0,.79,0,1.07s0,.45,0,.53l.85.2,0,.45Z" transform="translate(-1.1 -1.47)"/><path class="cls-1" d="M109.35,27.92a2.11,2.11,0,0,1-.92-.2,1.9,1.9,0,0,1-.67-.54,1.17,1.17,0,0,1-.24-.71,1,1,0,0,1,.3-.73,2.61,2.61,0,0,1,1-.53l2.06-.72v-.75a1,1,0,0,0-.21-.64,1.37,1.37,0,0,0-.57-.46,2.09,2.09,0,0,0-.81-.16.62.62,0,0,0-.49.15,1.11,1.11,0,0,0-.16.62l0,.49a1.26,1.26,0,0,1-.75,0,.47.47,0,0,1-.32-.45.69.69,0,0,1,.19-.43,2.35,2.35,0,0,1,.49-.43,4.71,4.71,0,0,1,.67-.35,3.18,3.18,0,0,1,.75-.19,2.26,2.26,0,0,1,1.53.51,1.81,1.81,0,0,1,.6,1.37l0,2.41c0,.14,0,.31,0,.48a2.75,2.75,0,0,0,.06.38l.86.16v.37l-.61.22-.32.11a.85.85,0,0,1-.24,0c-.27,0-.43-.15-.49-.45l-.13-.52h.18a3.73,3.73,0,0,1-.87.74A1.69,1.69,0,0,1,109.35,27.92Zm.29-.68a1.4,1.4,0,0,0,.65-.17,2,2,0,0,0,.59-.5V25.11l-1.71.47a.89.89,0,0,0-.47.27.71.71,0,0,0-.14.47.85.85,0,0,0,.32.63A1.13,1.13,0,0,0,109.64,27.24Z" transform="translate(-1.1 -1.47)"/><path class="cls-1" d="M113.52,27.81l0-.45.85-.2c0-.08,0-.17,0-.27s0-.25,0-.44,0-.45,0-.77V24.61c0-.31,0-.62,0-.95s0-.56-.06-.7l-.88-.19v-.41l1.67-.47.19.21-.07.71h.05a3.67,3.67,0,0,1,.95-.74,2.31,2.31,0,0,1,1-.21,2,2,0,0,1,.91.23,1.85,1.85,0,0,1,.73.76,2.69,2.69,0,0,1,.28,1.32v1.54q0,.51,0,.9a4.65,4.65,0,0,0,.06.54l.84.2,0,.45h-2.56l0-.45.8-.2c0-.08,0-.16,0-.26a3.53,3.53,0,0,0,0-.39c0-.17,0-.39,0-.67V24.27a1.94,1.94,0,0,0-.23-1,1.43,1.43,0,0,0-.57-.53,1.57,1.57,0,0,0-.65-.15,1.75,1.75,0,0,0-.89.24,2.22,2.22,0,0,0-.71.66v2.08c0,.44,0,.79,0,1.05s0,.44,0,.55l.84.2,0,.45Z" transform="translate(-1.1 -1.47)"/><path class="cls-1" d="M121,27.81l0-.45.78-.2a3.66,3.66,0,0,0,0-.41c0-.2,0-.45,0-.76s0-.67,0-1.1V22.84c0-.35,0-.71,0-1.08s0-.73,0-1.07,0-.62,0-.86,0-.38,0-.44l-1-.14,0-.38,1.77-.53.23.18,0,.94c0,.31,0,.62,0,.94s0,.65,0,1V25.9c0,.24,0,.44,0,.61s0,.32,0,.42,0,.18,0,.23l.84.2,0,.45Zm5.76,0h-1.36c-.16-.23-.29-.39-.37-.49l-.27-.29-1.94-2.1h-.4l0-.28.56-.16,1.84-1.89-.9-.16,0-.47h2.66l0,.47-.9.16-2.49,2.29.23-.45,1.86,2,.38.39.41.4.65.14Z" transform="translate(-1.1 -1.47)"/><path class="cls-1" d="M132.44,27.87l-2.38-5.25-.64-.19,0-.46h2.42l0,.46-.85.19L133,27Zm3.4-5.9,0,.46-.65.19L133,27.55l-1.11,2.27a2.47,2.47,0,0,1-.6.86,1.15,1.15,0,0,1-.75.25.91.91,0,0,1-.52-.14.47.47,0,0,1-.2-.39.52.52,0,0,1,.15-.35,1.07,1.07,0,0,1,.44-.26l1.18-.35-.55.7,1.48-2.89.15-.23,1.86-4.4-.85-.19,0-.46Z" transform="translate(-1.1 -1.47)"/><path class="cls-1" d="M139.18,27.92a3,3,0,0,1-1.52-.38,2.61,2.61,0,0,1-1-1.07,3.37,3.37,0,0,1-.35-1.58,3.11,3.11,0,0,1,.39-1.58,2.77,2.77,0,0,1,1.06-1.06,3.07,3.07,0,0,1,2.92,0,2.57,2.57,0,0,1,1,1.05,3.39,3.39,0,0,1,.34,1.57,3.2,3.2,0,0,1-.37,1.55,3,3,0,0,1-1,1.1A2.54,2.54,0,0,1,139.18,27.92Zm.14-.57a1.33,1.33,0,0,0,.86-.3,2.1,2.1,0,0,0,.58-.82,3.14,3.14,0,0,0,.21-1.18,3.29,3.29,0,0,0-.51-1.91,1.61,1.61,0,0,0-1.36-.73,1.55,1.55,0,0,0-1.29.64,2.72,2.72,0,0,0-.49,1.69,3.37,3.37,0,0,0,.26,1.36,2.15,2.15,0,0,0,.71.92A1.69,1.69,0,0,0,139.32,27.35Z" transform="translate(-1.1 -1.47)"/><path class="cls-1" d="M148.59,26.94l.86.22v.41l-1.63.38-.15-.16V27h0a2.69,2.69,0,0,1-.81.76,1.87,1.87,0,0,1-.88.21,2.19,2.19,0,0,1-1.52-.55,2.08,2.08,0,0,1-.61-1.65V24.52c0-.28,0-.54,0-.8s0-.51-.05-.76l-.93-.19v-.41l1.69-.47.19.21c0,.28,0,.57,0,.87s0,.62,0,1v1.59a1.63,1.63,0,0,0,.42,1.27,1.56,1.56,0,0,0,1.07.37,1.73,1.73,0,0,0,.79-.21,1.87,1.87,0,0,0,.73-.7V24.61c0-.2,0-.4,0-.61s0-.39,0-.58,0-.33,0-.46l-1-.19v-.41l1.76-.47.17.18c0,.27,0,.51,0,.7s0,.39,0,.58v1.56c0,.59,0,1,0,1.35S148.58,26.8,148.59,26.94Z" transform="translate(-1.1 -1.47)"/><path class="cls-1" d="M152.81,22.63v-.4l1-.23h2.39v.63Zm3,5.18H153l0-.45.85-.2V26.9c0-.1,0-.22,0-.37V21a3.65,3.65,0,0,1,.26-1.47,2.07,2.07,0,0,1,.72-.93,1.89,1.89,0,0,1,1.09-.32,1.61,1.61,0,0,1,.87.23.7.7,0,0,1,.35.58.35.35,0,0,1-.11.26.37.37,0,0,1-.27.11.86.86,0,0,1-.62-.29l-.58-.56.25.08a.9.9,0,0,0-.82.53,2.93,2.93,0,0,0-.3,1.45V22l0,.63v2.54c0,.39,0,.76,0,1.14s0,.65,0,.85l1.12.16Z" transform="translate(-1.1 -1.47)"/><path class="cls-1" d="M159.89,27.92a3,3,0,0,1-1.52-.38,2.67,2.67,0,0,1-1-1.07,3.5,3.5,0,0,1-.35-1.58,3.11,3.11,0,0,1,.39-1.58,2.77,2.77,0,0,1,1.06-1.06,2.85,2.85,0,0,1,1.47-.38,2.81,2.81,0,0,1,1.45.36,2.57,2.57,0,0,1,1,1.05,3.39,3.39,0,0,1,.34,1.57,3.2,3.2,0,0,1-.37,1.55,2.87,2.87,0,0,1-1,1.1A2.54,2.54,0,0,1,159.89,27.92Zm.14-.57a1.31,1.31,0,0,0,.86-.3,2,2,0,0,0,.58-.82,3.14,3.14,0,0,0,.21-1.18,3.29,3.29,0,0,0-.51-1.91,1.59,1.59,0,0,0-1.36-.73,1.52,1.52,0,0,0-1.28.64,2.66,2.66,0,0,0-.5,1.69,3.37,3.37,0,0,0,.26,1.36A2.17,2.17,0,0,0,159,27,1.68,1.68,0,0,0,160,27.35Z" transform="translate(-1.1 -1.47)"/><path class="cls-1" d="M163.78,27.81l0-.45.85-.2c0-.05,0-.13,0-.25s0-.28,0-.48,0-.45,0-.75V24.6c0-.32,0-.64,0-1s0-.55-.06-.69l-.87-.19v-.41l1.67-.47.16.18-.07,1.16,0,0a2.93,2.93,0,0,1,.85-1.09,1.4,1.4,0,0,1,.78-.28.8.8,0,0,1,.5.15.5.5,0,0,1,.2.42.51.51,0,0,1-.21.44.88.88,0,0,1-.53.15,1,1,0,0,1-.45-.11,1.7,1.7,0,0,1-.39-.27l.21.09a2.65,2.65,0,0,0-.51.5,4,4,0,0,0-.45.78l0,1.32c0,.2,0,.42,0,.66s0,.46,0,.66,0,.37,0,.49l1.19.17,0,.48Z" transform="translate(-1.1 -1.47)"/><path class="cls-1" d="M173.4,27.92a2.17,2.17,0,0,1-.92-.2,1.78,1.78,0,0,1-.66-.54,1.12,1.12,0,0,1-.25-.71,1,1,0,0,1,.3-.73,2.61,2.61,0,0,1,1-.53l2.06-.72v-.75a1,1,0,0,0-.21-.64,1.37,1.37,0,0,0-.57-.46,2,2,0,0,0-.8-.16.65.65,0,0,0-.5.15,1.11,1.11,0,0,0-.16.62l0,.49a1.26,1.26,0,0,1-.75,0,.46.46,0,0,1-.31-.45.67.67,0,0,1,.18-.43,2.35,2.35,0,0,1,.49-.43,4.71,4.71,0,0,1,.67-.35,3.3,3.3,0,0,1,.75-.19,2.24,2.24,0,0,1,1.53.51,1.81,1.81,0,0,1,.6,1.37l0,2.41a4.26,4.26,0,0,0,0,.48,1.29,1.29,0,0,0,.06.38l.86.16v.37l-.62.22-.32.11a.75.75,0,0,1-.24,0,.48.48,0,0,1-.49-.45L175,27h.17a3.92,3.92,0,0,1-.86.74A1.72,1.72,0,0,1,173.4,27.92Zm.29-.68a1.37,1.37,0,0,0,.65-.17,2,2,0,0,0,.59-.5V25.11l-1.71.47a.93.93,0,0,0-.47.27.77.77,0,0,0-.14.47.83.83,0,0,0,.33.63A1.12,1.12,0,0,0,173.69,27.24Z" transform="translate(-1.1 -1.47)"/><path class="cls-1" d="M177.53,27.81l0-.46.89-.19a3.52,3.52,0,0,0,0-.44c0-.19,0-.46,0-.81s0-.81,0-1.37v-1.7c0-.35,0-.71,0-1.09s0-.74,0-1.07,0-.63,0-.86v-.43l-1-.14,0-.38,1.77-.53.22.18c0,.39,0,.77,0,1.16s0,.81,0,1.28,0,1,0,1.68l0,2.26q0,.77,0,1.41c0,.43,0,.71,0,.85l.89.19,0,.46Z" transform="translate(-1.1 -1.47)"/><path class="cls-1" d="M181.1,27.81l0-.46.89-.19a2.44,2.44,0,0,0,0-.44c0-.19,0-.46,0-.81s0-.81,0-1.37v-1.7c0-.35,0-.71,0-1.09s0-.74,0-1.07,0-.63,0-.86,0-.37,0-.43l-1-.14,0-.38,1.77-.53.22.18,0,1.16c0,.38,0,.81,0,1.28v1.68l0,2.26q0,.77,0,1.41c0,.43,0,.71,0,.85l.89.19,0,.46Z" transform="translate(-1.1 -1.47)"/><path class="cls-1" d="M191.45,27.05a1.92,1.92,0,0,1-.7.63,1.83,1.83,0,0,1-.87.23,1.89,1.89,0,0,1-1.32-.49,2,2,0,0,1-.52-1.48l.05-3.32h-1v-.25l1.61-1.54H189l0,1.47v3.41a1.65,1.65,0,0,0,.32,1.12,1.13,1.13,0,0,0,.89.37,1.55,1.55,0,0,0,.61-.13,2,2,0,0,0,.5-.35Zm-2.93-4.43V22H191v.63Z" transform="translate(-1.1 -1.47)"/><path class="cls-1" d="M191.85,27.81l0-.45.85-.2q0-.15,0-.45c0-.19,0-.46,0-.81s0-.8,0-1.36v-1.7c0-.31,0-.65,0-1s0-.72,0-1.06,0-.65,0-.9,0-.41,0-.47l-1-.14,0-.38,1.75-.53.22.18c0,.28,0,.56,0,.85s0,.59,0,.92,0,.7,0,1.11,0,.88,0,1.41h0a3.49,3.49,0,0,1,.94-.74,2.3,2.3,0,0,1,1-.21,1.89,1.89,0,0,1,.92.24,1.92,1.92,0,0,1,.72.77,2.65,2.65,0,0,1,.29,1.35v1.49q0,.51,0,.9c0,.26,0,.44.05.54l.85.2v.45h-2.56l0-.45.79-.2c0-.08,0-.16,0-.26a3.53,3.53,0,0,0,0-.39c0-.17,0-.39,0-.67V24.29a2,2,0,0,0-.22-1,1.28,1.28,0,0,0-.54-.54,1.38,1.38,0,0,0-.69-.17,1.72,1.72,0,0,0-.89.24,2.22,2.22,0,0,0-.71.66v2.08c0,.43,0,.79,0,1.07s0,.45,0,.53l.85.2,0,.45Z" transform="translate(-1.1 -1.47)"/><path class="cls-1" d="M202.1,27.92a2.83,2.83,0,0,1-1.39-.34,2.57,2.57,0,0,1-1-1,3.12,3.12,0,0,1-.37-1.57,3.54,3.54,0,0,1,.38-1.69,2.9,2.9,0,0,1,1-1.09,2.47,2.47,0,0,1,1.35-.36,2,2,0,0,1,1.6.68,2.94,2.94,0,0,1,.59,2v.23H200v-.57h3.49l-.14.14v-.25a1.88,1.88,0,0,0-.37-1.26,1.26,1.26,0,0,0-1-.45,1.46,1.46,0,0,0-.79.24,1.66,1.66,0,0,0-.6.72,2.67,2.67,0,0,0-.24,1.2v.14a2.67,2.67,0,0,0,.56,1.8,1.94,1.94,0,0,0,2.31.45,2.11,2.11,0,0,0,.74-.63l.33.29a2.5,2.5,0,0,1-.94,1A2.47,2.47,0,0,1,202.1,27.92Z" transform="translate(-1.1 -1.47)"/><path class="cls-1" d="M207.88,30.82l0-.45.84-.21a2,2,0,0,1,0-.21c0-.11,0-.24,0-.41s0-.37,0-.61v-.86l0-3.57c0-.27,0-.56,0-.86s-.05-.54-.06-.68l-.88-.19v-.41l1.67-.47.19.21,0,.74h0a2.73,2.73,0,0,1,.84-.74,2.16,2.16,0,0,1,1-.23,2.41,2.41,0,0,1,1.37.38,2.58,2.58,0,0,1,.92,1,3.44,3.44,0,0,1-.08,3.1A3,3,0,0,1,211,27.91a3.71,3.71,0,0,1-.73-.08,4.75,4.75,0,0,1-.68-.18v1.08c0,.35,0,.65,0,.89s0,.42,0,.54l1.12.17,0,.49Zm3.2-3.5a1.86,1.86,0,0,0,1-.28,1.89,1.89,0,0,0,.7-.8,2.86,2.86,0,0,0,.26-1.26,2.77,2.77,0,0,0-.21-1.17,2.14,2.14,0,0,0-.66-.84,1.55,1.55,0,0,0-1-.33,1.86,1.86,0,0,0-.86.22,2.63,2.63,0,0,0-.72.63v3.37a1.89,1.89,0,0,0,.68.34A2.64,2.64,0,0,0,211.08,27.32Z" transform="translate(-1.1 -1.47)"/><path class="cls-1" d="M215.17,27.81l0-.45.85-.2a1.29,1.29,0,0,0,0-.25c0-.12,0-.28,0-.48s0-.45,0-.75V24.6c0-.32,0-.64,0-1s-.05-.55-.06-.69l-.88-.19v-.41l1.67-.47.16.18-.07,1.16,0,0a3,3,0,0,1,.85-1.09,1.4,1.4,0,0,1,.78-.28.8.8,0,0,1,.5.15.5.5,0,0,1,.2.42.51.51,0,0,1-.21.44.86.86,0,0,1-.53.15,1,1,0,0,1-.44-.11,1.36,1.36,0,0,1-.39-.27l.2.09a2.36,2.36,0,0,0-.5.5,3.57,3.57,0,0,0-.46.78l0,1.32q0,.3,0,.66c0,.24,0,.46,0,.66s0,.37,0,.49l1.19.17,0,.48Z" transform="translate(-1.1 -1.47)"/><path class="cls-1" d="M221.91,27.92a2.14,2.14,0,0,1-.92-.2,1.9,1.9,0,0,1-.67-.54,1.17,1.17,0,0,1-.24-.71,1,1,0,0,1,.3-.73,2.61,2.61,0,0,1,1-.53l2.06-.72v-.75a1,1,0,0,0-.21-.64,1.37,1.37,0,0,0-.57-.46,2,2,0,0,0-.8-.16.63.63,0,0,0-.5.15,1.11,1.11,0,0,0-.16.62l0,.49a1.26,1.26,0,0,1-.75,0,.46.46,0,0,1-.31-.45.67.67,0,0,1,.18-.43,2.35,2.35,0,0,1,.49-.43,4.71,4.71,0,0,1,.67-.35,3.18,3.18,0,0,1,.75-.19,2.24,2.24,0,0,1,1.53.51,1.81,1.81,0,0,1,.6,1.37l0,2.41c0,.14,0,.31,0,.48a2.75,2.75,0,0,0,.06.38l.87.16v.37l-.62.22-.32.11a.85.85,0,0,1-.24,0,.48.48,0,0,1-.49-.45l-.13-.52h.18a3.73,3.73,0,0,1-.87.74A1.66,1.66,0,0,1,221.91,27.92Zm.29-.68a1.4,1.4,0,0,0,.65-.17,2,2,0,0,0,.59-.5V25.11l-1.71.47a.89.89,0,0,0-.47.27.71.71,0,0,0-.14.47.85.85,0,0,0,.32.63A1.13,1.13,0,0,0,222.2,27.24Z" transform="translate(-1.1 -1.47)"/><path class="cls-1" d="M228.51,27.87l-2.38-5.25-.64-.19,0-.46H228l0,.46-.85.19,2,4.39Zm3.41-5.9,0,.46-.64.19L229,27.55l-1.11,2.27a2.47,2.47,0,0,1-.6.86,1.15,1.15,0,0,1-.75.25.88.88,0,0,1-.51-.14.45.45,0,0,1-.2-.39.56.56,0,0,1,.14-.35,1.11,1.11,0,0,1,.45-.26l1.17-.35-.55.7,1.48-2.89.15-.23,1.86-4.4-.85-.19,0-.46Z" transform="translate(-1.1 -1.47)"/><path class="cls-1" d="M235.13,27.92a2.83,2.83,0,0,1-1.39-.34,2.57,2.57,0,0,1-1-1,3.22,3.22,0,0,1-.37-1.57,3.43,3.43,0,0,1,.39-1.69,2.8,2.8,0,0,1,1-1.09,2.49,2.49,0,0,1,1.35-.36,2,2,0,0,1,1.6.68,2.94,2.94,0,0,1,.59,2v.23h-4.25v-.57h3.48l-.13.14v-.25a1.88,1.88,0,0,0-.38-1.26,1.26,1.26,0,0,0-1-.45,1.48,1.48,0,0,0-.79.24,1.66,1.66,0,0,0-.6.72,2.67,2.67,0,0,0-.24,1.2v.14a2.67,2.67,0,0,0,.56,1.8,1.84,1.84,0,0,0,1.44.65,1.93,1.93,0,0,0,.88-.2,2.09,2.09,0,0,0,.73-.63l.33.29a2.5,2.5,0,0,1-.94,1A2.44,2.44,0,0,1,235.13,27.92Z" transform="translate(-1.1 -1.47)"/><path class="cls-1" d="M238.36,27.81l0-.45.85-.2c0-.05,0-.13,0-.25s0-.28,0-.48,0-.45,0-.75V24.6c0-.32,0-.64,0-1s0-.55-.06-.69l-.87-.19v-.41l1.67-.47.16.18L240,23.23l0,0a2.93,2.93,0,0,1,.85-1.09,1.4,1.4,0,0,1,.78-.28.8.8,0,0,1,.5.15.5.5,0,0,1,.2.42.51.51,0,0,1-.21.44.88.88,0,0,1-.53.15,1,1,0,0,1-.45-.11,1.7,1.7,0,0,1-.39-.27l.21.09a2.65,2.65,0,0,0-.51.5,4,4,0,0,0-.45.78l0,1.32c0,.2,0,.42,0,.66s0,.46,0,.66,0,.37,0,.49l1.19.17,0,.48Z" transform="translate(-1.1 -1.47)"/><path class="cls-1" d="M245.25,27.92a4.6,4.6,0,0,1-1-.11,3.59,3.59,0,0,1-.84-.31l-.07-1.42H244l.26,1a1.76,1.76,0,0,0,1.1.34,1.25,1.25,0,0,0,.78-.24.77.77,0,0,0,.32-.65.86.86,0,0,0-.28-.65,3.14,3.14,0,0,0-1-.6,5.26,5.26,0,0,1-1.35-.82,1.29,1.29,0,0,1-.39-1,1.3,1.3,0,0,1,.28-.83,1.78,1.78,0,0,1,.76-.56,2.9,2.9,0,0,1,1.14-.2,4.89,4.89,0,0,1,.75.05,3,3,0,0,1,.64.16l.15,1.38h-.57l-.35-.91a1,1,0,0,0-.32-.13,1.88,1.88,0,0,0-.43-.05,1.28,1.28,0,0,0-.79.23.75.75,0,0,0-.3.62.86.86,0,0,0,.31.69,5.77,5.77,0,0,0,1.11.65,4.14,4.14,0,0,1,1.26.81,1.32,1.32,0,0,1,.35.94,1.39,1.39,0,0,1-.6,1.15A2.47,2.47,0,0,1,245.25,27.92Z" transform="translate(-1.1 -1.47)"/><path class="cls-1" d="M248.5,30.08l-.18-.34a2.44,2.44,0,0,0,.76-.55,1.2,1.2,0,0,0,.28-.8.68.68,0,0,0-.06-.31.8.8,0,0,0-.15-.21l-.18-.19a.8.8,0,0,1-.15-.21.62.62,0,0,1-.07-.33.6.6,0,0,1,.19-.43.66.66,0,0,1,.49-.2.71.71,0,0,1,.4.13.85.85,0,0,1,.3.37,1.5,1.5,0,0,1,.11.6,2.38,2.38,0,0,1-.23,1,3.27,3.27,0,0,1-.63.89A2.44,2.44,0,0,1,248.5,30.08Z" transform="translate(-1.1 -1.47)"/><path class="cls-1" d="M256.43,27.87l-2.16-5.25-.64-.19,0-.46H256l0,.46-.7.19L257,27h-.39l1.86-4.55.32.82-2,4.58Zm3.88,0-2-5.25-.7-.19,0-.46h2.28l0,.46-.71.19L260.85,27h-.33l1.65-4.4-.71-.19,0-.46h2.06l0,.46-.64.19-2.27,5.25Z" transform="translate(-1.1 -1.47)"/><path class="cls-1" d="M266.84,27.92a2.78,2.78,0,0,1-1.39-.34,2.45,2.45,0,0,1-1-1,3.12,3.12,0,0,1-.37-1.57,3.54,3.54,0,0,1,.38-1.69,2.88,2.88,0,0,1,1-1.09,2.5,2.5,0,0,1,1.36-.36,2,2,0,0,1,1.6.68,2.94,2.94,0,0,1,.58,2v.23h-4.25v-.57h3.49l-.14.14v-.25a1.83,1.83,0,0,0-.38-1.26,1.25,1.25,0,0,0-1-.45,1.43,1.43,0,0,0-.79.24,1.75,1.75,0,0,0-.61.72,2.82,2.82,0,0,0-.23,1.2v.14a2.67,2.67,0,0,0,.56,1.8,1.81,1.81,0,0,0,1.44.65,1.89,1.89,0,0,0,.87-.2,2.11,2.11,0,0,0,.74-.63l.33.29a2.52,2.52,0,0,1-1,1A2.41,2.41,0,0,1,266.84,27.92Z" transform="translate(-1.1 -1.47)"/><path class="cls-1" d="M270,27.81l0-.46.89-.19c0-.1,0-.25,0-.44s0-.46,0-.81,0-.81,0-1.37v-1.7c0-.35,0-.71,0-1.09s0-.74,0-1.07,0-.63,0-.86,0-.37,0-.43l-1-.14,0-.38,1.78-.53.22.18,0,1.16c0,.38,0,.81,0,1.28s0,1,0,1.68V24.9c0,.51,0,1,0,1.41s0,.71.05.85l.88.19,0,.46Z" transform="translate(-1.1 -1.47)"/><path class="cls-1" d="M273.56,27.81l0-.46.89-.19a3.52,3.52,0,0,0,0-.44c0-.19,0-.46,0-.81s0-.81,0-1.37v-1.7c0-.35,0-.71,0-1.09s0-.74,0-1.07,0-.63,0-.86v-.43l-1-.14,0-.38,1.78-.53.21.18c0,.39,0,.77,0,1.16s0,.81,0,1.28,0,1,0,1.68V24.9c0,.51,0,1,0,1.41s0,.71,0,.85l.89.19,0,.46Z" transform="translate(-1.1 -1.47)"/><path class="cls-1" d="M282.19,27.87,280,22.62l-.64-.19,0-.46h2.3l0,.46-.7.19L282.79,27h-.4l1.86-4.55.33.82-2,4.58Zm3.88,0-2-5.25-.69-.19,0-.46h2.29l0,.46-.72.19L286.61,27h-.33l1.65-4.4-.71-.19,0-.46h2.06l0,.46-.64.19-2.27,5.25Z" transform="translate(-1.1 -1.47)"/><path class="cls-1" d="M289.82,27.81l0-.46.92-.19s0-.1,0-.17,0-.22,0-.43,0-.5,0-.88v-.86c0-.41,0-.79,0-1.13s0-.59-.05-.73l-.92-.19v-.41l1.78-.47.15.17c0,.28,0,.56-.05.82s0,.59,0,.95v1.73c0,.44,0,.8,0,1.08s0,.44,0,.52l.92.19,0,.46Zm1.37-7.59a.77.77,0,0,1-.54-.2.69.69,0,0,1,0-1,.78.78,0,0,1,.54-.21.69.69,0,0,1,.51.21.71.71,0,0,1,0,1A.69.69,0,0,1,291.19,20.22Z" transform="translate(-1.1 -1.47)"/><path class="cls-1" d="M295.64,27.92a4.67,4.67,0,0,1-1-.11,3.59,3.59,0,0,1-.84-.31l-.06-1.42h.61l.26,1a1.77,1.77,0,0,0,1.11.34,1.25,1.25,0,0,0,.78-.24.76.76,0,0,0,.31-.65.89.89,0,0,0-.27-.65,3.22,3.22,0,0,0-1-.6,5.35,5.35,0,0,1-1.34-.82,1.29,1.29,0,0,1-.39-1,1.35,1.35,0,0,1,.27-.83,1.81,1.81,0,0,1,.77-.56,2.82,2.82,0,0,1,1.13-.2,4.73,4.73,0,0,1,.75.05,2.83,2.83,0,0,1,.64.16l.16,1.38h-.58l-.34-.91a1,1,0,0,0-.33-.13,1.86,1.86,0,0,0-.42-.05,1.31,1.31,0,0,0-.8.23.75.75,0,0,0-.3.62.87.87,0,0,0,.32.69,5.77,5.77,0,0,0,1.11.65,3.94,3.94,0,0,1,1.25.81,1.33,1.33,0,0,1,.36.94,1.37,1.37,0,0,1-.61,1.15A2.45,2.45,0,0,1,295.64,27.92Z" transform="translate(-1.1 -1.47)"/><path class="cls-1" d="M298.88,27.81l0-.45.84-.2a3.52,3.52,0,0,0,0-.45c0-.19,0-.46,0-.81s0-.8,0-1.36v-1.7c0-.31,0-.65,0-1s0-.72,0-1.06,0-.65,0-.9v-.47l-1-.14,0-.38,1.75-.53.22.18c0,.28,0,.56,0,.85s0,.59,0,.92,0,.7,0,1.11,0,.88,0,1.41h0a3.67,3.67,0,0,1,.95-.74,2.27,2.27,0,0,1,1-.21,1.8,1.8,0,0,1,1.64,1,2.76,2.76,0,0,1,.29,1.35v1.49q0,.51,0,.9a3.78,3.78,0,0,0,.05.54l.85.2,0,.45h-2.55l0-.45.79-.2c0-.08,0-.16,0-.26s0-.22,0-.39V24.29a2.06,2.06,0,0,0-.21-1,1.28,1.28,0,0,0-.54-.54,1.42,1.42,0,0,0-.7-.17,1.71,1.71,0,0,0-.88.24,2.12,2.12,0,0,0-.71.66v2.08c0,.43,0,.79,0,1.07s0,.45,0,.53l.85.2,0,.45Z" transform="translate(-1.1 -1.47)"/><path class="cls-1" d="M309.14,27.92a2.81,2.81,0,0,1-1.39-.34,2.45,2.45,0,0,1-1-1,3.12,3.12,0,0,1-.37-1.57,3.54,3.54,0,0,1,.38-1.69,2.88,2.88,0,0,1,1-1.09,2.5,2.5,0,0,1,1.36-.36,2,2,0,0,1,1.6.68,2.94,2.94,0,0,1,.58,2v.23h-4.25v-.57h3.49l-.14.14v-.25a1.88,1.88,0,0,0-.37-1.26,1.27,1.27,0,0,0-1-.45,1.43,1.43,0,0,0-.79.24,1.75,1.75,0,0,0-.61.72,2.82,2.82,0,0,0-.23,1.2v.14a2.67,2.67,0,0,0,.56,1.8,1.81,1.81,0,0,0,1.44.65,1.89,1.89,0,0,0,.87-.2,2.11,2.11,0,0,0,.74-.63l.33.29a2.52,2.52,0,0,1-.95,1A2.41,2.41,0,0,1,309.14,27.92Z" transform="translate(-1.1 -1.47)"/><path class="cls-1" d="M314.55,27.92a4.67,4.67,0,0,1-1-.11,3.59,3.59,0,0,1-.84-.31l-.07-1.42h.62l.26,1a1.77,1.77,0,0,0,1.11.34,1.25,1.25,0,0,0,.78-.24.76.76,0,0,0,.31-.65.89.89,0,0,0-.27-.65,3.34,3.34,0,0,0-1-.6,5.26,5.26,0,0,1-1.35-.82,1.29,1.29,0,0,1-.39-1,1.36,1.36,0,0,1,.28-.83,1.84,1.84,0,0,1,.76-.56,2.9,2.9,0,0,1,1.14-.2,4.81,4.81,0,0,1,.75.05,2.83,2.83,0,0,1,.64.16l.15,1.38h-.57l-.34-.91a1,1,0,0,0-.33-.13,1.86,1.86,0,0,0-.42-.05,1.31,1.31,0,0,0-.8.23.75.75,0,0,0-.3.62.87.87,0,0,0,.32.69,5.94,5.94,0,0,0,1.1.65,4,4,0,0,1,1.26.81,1.33,1.33,0,0,1,.36.94,1.4,1.4,0,0,1-.61,1.15A2.47,2.47,0,0,1,314.55,27.92Z" transform="translate(-1.1 -1.47)"/><path class="cls-1" d="M317.8,30.08l-.17-.34a2.28,2.28,0,0,0,.75-.55,1.21,1.21,0,0,0,.29-.8.57.57,0,0,0-.07-.31.8.8,0,0,0-.15-.21l-.17-.19a.83.83,0,0,1-.16-.21.62.62,0,0,1-.07-.33.6.6,0,0,1,.19-.43.66.66,0,0,1,.49-.2.76.76,0,0,1,.41.13.91.91,0,0,1,.29.37,1.5,1.5,0,0,1,.11.6,2.38,2.38,0,0,1-.23,1,3.24,3.24,0,0,1-.62.89A2.47,2.47,0,0,1,317.8,30.08Z" transform="translate(-1.1 -1.47)"/><path class="cls-1" d="M62.82,44.72a2.18,2.18,0,0,1-.93-.2,1.87,1.87,0,0,1-.66-.54,1.18,1.18,0,0,1-.25-.71,1,1,0,0,1,.31-.73,2.64,2.64,0,0,1,1-.53l2.07-.72v-.75a1,1,0,0,0-.21-.64,1.44,1.44,0,0,0-.57-.46,1.92,1.92,0,0,0-.81-.16.66.66,0,0,0-.5.15,1.12,1.12,0,0,0-.15.62l0,.49a1.26,1.26,0,0,1-.75,0,.47.47,0,0,1-.32-.45.64.64,0,0,1,.19-.43,2.12,2.12,0,0,1,.49-.43,4.23,4.23,0,0,1,.67-.35,3.22,3.22,0,0,1,.74-.19,2.24,2.24,0,0,1,1.53.51,1.78,1.78,0,0,1,.61,1.37l0,2.41c0,.14,0,.31,0,.48a1.29,1.29,0,0,0,.06.38l.86.16v.37l-.61.22-.32.11a.85.85,0,0,1-.24,0c-.27,0-.43-.15-.5-.45l-.12-.52h.18a3.73,3.73,0,0,1-.87.74A1.69,1.69,0,0,1,62.82,44.72ZM63.1,44a1.34,1.34,0,0,0,.65-.17,2,2,0,0,0,.6-.5V41.91l-1.71.47a.85.85,0,0,0-.47.27.72.72,0,0,0-.15.47.83.83,0,0,0,.33.63A1.12,1.12,0,0,0,63.1,44Z" transform="translate(-1.1 -1.47)"/><path class="cls-1" d="M67,44.61l0-.45.85-.2c0-.08,0-.17,0-.27s0-.25,0-.44,0-.45,0-.77V41.41c0-.31,0-.62,0-.95s0-.56-.06-.7l-.88-.19v-.41l1.67-.47.19.21-.07.71h0a3.88,3.88,0,0,1,1-.74,2.3,2.3,0,0,1,1-.21,2,2,0,0,1,.92.23,1.83,1.83,0,0,1,.72.76A2.58,2.58,0,0,1,72.59,41v1.54q0,.51,0,.9c0,.27,0,.45,0,.54l.85.2,0,.45H70.94l0-.45.79-.2c0-.08,0-.16,0-.26a3.53,3.53,0,0,0,0-.39c0-.17,0-.39,0-.67V41.07a1.94,1.94,0,0,0-.23-1,1.43,1.43,0,0,0-.57-.53,1.61,1.61,0,0,0-.65-.15,1.72,1.72,0,0,0-.89.24,2.22,2.22,0,0,0-.71.66v2.08c0,.44,0,.79,0,1s0,.44,0,.55l.85.2,0,.45Z" transform="translate(-1.1 -1.47)"/><path class="cls-1" d="M79.14,44.75,79,44.58v-.9h0a2.88,2.88,0,0,1-.87.8,1.93,1.93,0,0,1-.92.23,2.59,2.59,0,0,1-2.36-1.36,3,3,0,0,1-.35-1.46,3.42,3.42,0,0,1,.24-1.3,3.07,3.07,0,0,1,1.59-1.7,2.64,2.64,0,0,1,1.11-.24,3.62,3.62,0,0,1,.86.11,1.73,1.73,0,0,1,.73.36c0-.17,0-.39,0-.67s0-.58,0-.89,0-.57,0-.81,0-.39,0-.46l-1.08-.21,0-.41,1.83-.53.22.18c0,.56,0,1.11,0,1.66s0,1.1,0,1.69v3.14c0,.46,0,.87,0,1.21s0,.58,0,.72l.86.22v.41Zm-1.72-.83a1.79,1.79,0,0,0,.81-.19,2.45,2.45,0,0,0,.76-.66v-2.9a1.72,1.72,0,0,0-.72-.74,1.93,1.93,0,0,0-.87-.22,1.67,1.67,0,0,0-1.42.67,2.63,2.63,0,0,0-.52,1.7A2.39,2.39,0,0,0,76,43.3,1.82,1.82,0,0,0,77.42,43.92Z" transform="translate(-1.1 -1.47)"/><path class="cls-1" d="M84.35,44.61l0-.45.78-.2a3.66,3.66,0,0,0,0-.41c0-.2,0-.45,0-.76s0-.67,0-1.1v-2c0-.35,0-.71,0-1.08s0-.73,0-1.07,0-.62,0-.86,0-.38,0-.44l-1-.14,0-.38,1.77-.53.23.18,0,.94c0,.31,0,.62,0,.94s0,.65,0,1V42.7c0,.24,0,.44,0,.61s0,.32,0,.42,0,.18,0,.23l.84.2,0,.45Zm5.76,0H88.75c-.16-.23-.29-.39-.37-.49l-.27-.29-1.94-2.1h-.4l0-.28.56-.16,1.84-1.89-.9-.16,0-.47H90l0,.47-.9.16-2.49,2.29.23-.45,1.86,2,.38.39.41.4.65.14Z" transform="translate(-1.1 -1.47)"/><path class="cls-1" d="M90.65,44.61l0-.46.91-.19a.72.72,0,0,0,0-.17c0-.08,0-.22,0-.43V41.62c0-.41,0-.79,0-1.13a7.24,7.24,0,0,0,0-.73l-.92-.19v-.41l1.78-.47.15.17c0,.28,0,.56-.05.82s0,.59,0,1v1.73c0,.44,0,.8,0,1.08s0,.44,0,.52l.91.19,0,.46ZM92,37a.75.75,0,0,1-.53-.2.67.67,0,0,1,0-1,.76.76,0,0,1,.53-.21.73.73,0,0,1,.52.21.71.71,0,0,1,0,1A.72.72,0,0,1,92,37Z" transform="translate(-1.1 -1.47)"/><path class="cls-1" d="M94.26,44.61l0-.45.85-.2a2.13,2.13,0,0,0,0-.27c0-.11,0-.25,0-.44v-.77l0-1.07c0-.31,0-.62,0-.95s0-.56-.06-.7l-.87-.19v-.41l1.66-.47.2.21-.07.71h0a3.7,3.7,0,0,1,1-.74,2.27,2.27,0,0,1,1-.21,2,2,0,0,1,.92.23,1.83,1.83,0,0,1,.72.76A2.69,2.69,0,0,1,99.87,41v1.54c0,.34,0,.64,0,.9A4.65,4.65,0,0,0,100,44l.85.2,0,.45H98.21l0-.45L99,44c0-.08,0-.16,0-.26s0-.22,0-.39V41.07a1.84,1.84,0,0,0-.23-1,1.31,1.31,0,0,0-.57-.53,1.57,1.57,0,0,0-.65-.15,1.69,1.69,0,0,0-.88.24,2.15,2.15,0,0,0-.72.66v2.08q0,.66,0,1c0,.25,0,.44,0,.55l.85.2,0,.45Z" transform="translate(-1.1 -1.47)"/><path class="cls-1" d="M106.42,44.75l-.15-.17v-.9h0a2.88,2.88,0,0,1-.87.8,2,2,0,0,1-.92.23,2.68,2.68,0,0,1-1.4-.36,2.63,2.63,0,0,1-1-1,3,3,0,0,1-.35-1.46,3.62,3.62,0,0,1,.23-1.3,3.12,3.12,0,0,1,.65-1,3,3,0,0,1,.95-.67,2.64,2.64,0,0,1,1.11-.24,3.54,3.54,0,0,1,.85.11,1.77,1.77,0,0,1,.74.36c0-.17,0-.39,0-.67s0-.58,0-.89,0-.57,0-.81,0-.39,0-.46l-1.08-.21,0-.41,1.83-.53.22.18c0,.56,0,1.11,0,1.66v1.69l0,3.14c0,.46,0,.87,0,1.21s0,.58,0,.72l.86.22v.41Zm-1.73-.83a1.83,1.83,0,0,0,.82-.19,2.56,2.56,0,0,0,.76-.66v-2.9a1.77,1.77,0,0,0-.72-.74,2,2,0,0,0-.87-.22,1.69,1.69,0,0,0-1.43.67,2.69,2.69,0,0,0-.51,1.7,2.43,2.43,0,0,0,.57,1.72A1.85,1.85,0,0,0,104.69,43.92Z" transform="translate(-1.1 -1.47)"/><path class="cls-1" d="M113.8,44.72a2.11,2.11,0,0,1-.92-.2,1.9,1.9,0,0,1-.67-.54,1.17,1.17,0,0,1-.24-.71,1,1,0,0,1,.3-.73,2.61,2.61,0,0,1,1-.53l2.06-.72v-.75a1,1,0,0,0-.21-.64,1.37,1.37,0,0,0-.57-.46,1.89,1.89,0,0,0-.81-.16.62.62,0,0,0-.49.15,1.11,1.11,0,0,0-.16.62l0,.49a1.26,1.26,0,0,1-.75,0,.47.47,0,0,1-.32-.45.69.69,0,0,1,.19-.43,2.35,2.35,0,0,1,.49-.43,4.71,4.71,0,0,1,.67-.35,3.18,3.18,0,0,1,.75-.19,2.26,2.26,0,0,1,1.53.51,1.81,1.81,0,0,1,.6,1.37l0,2.41c0,.14,0,.31,0,.48a2.75,2.75,0,0,0,.06.38l.86.16v.37l-.61.22-.32.11a.85.85,0,0,1-.24,0c-.27,0-.43-.15-.49-.45l-.13-.52h.18a3.73,3.73,0,0,1-.87.74A1.66,1.66,0,0,1,113.8,44.72Zm.29-.68a1.4,1.4,0,0,0,.65-.17,2,2,0,0,0,.59-.5V41.91l-1.71.47a.89.89,0,0,0-.47.27.71.71,0,0,0-.14.47.85.85,0,0,0,.32.63A1.13,1.13,0,0,0,114.09,44Z" transform="translate(-1.1 -1.47)"/><path class="cls-1" d="M122.1,43.85a1.92,1.92,0,0,1-.7.63,1.83,1.83,0,0,1-.87.23,1.89,1.89,0,0,1-1.32-.49,2,2,0,0,1-.52-1.48l0-3.32h-1v-.25l1.61-1.54h.21l0,1.47,0,3.41a1.65,1.65,0,0,0,.33,1.12,1.13,1.13,0,0,0,.89.37,1.55,1.55,0,0,0,.61-.13,2,2,0,0,0,.5-.35Zm-2.93-4.43v-.63h2.5v.63Z" transform="translate(-1.1 -1.47)"/><path class="cls-1" d="M126.62,43.85a1.92,1.92,0,0,1-1.57.86,1.85,1.85,0,0,1-1.31-.49,1.93,1.93,0,0,1-.52-1.48l0-3.32h-1v-.25l1.62-1.54h.2l0,1.47v3.41a1.7,1.7,0,0,0,.32,1.12,1.15,1.15,0,0,0,.9.37,1.55,1.55,0,0,0,.61-.13,1.9,1.9,0,0,0,.49-.35Zm-2.92-4.43v-.63h2.5v.63Z" transform="translate(-1.1 -1.47)"/><path class="cls-1" d="M129.8,44.72a2.78,2.78,0,0,1-1.39-.34,2.45,2.45,0,0,1-1-1,3.12,3.12,0,0,1-.37-1.57,3.43,3.43,0,0,1,.38-1.69,2.8,2.8,0,0,1,1-1.09,2.5,2.5,0,0,1,1.36-.36,2,2,0,0,1,1.59.68,2.88,2.88,0,0,1,.59,2v.23h-4.25V41h3.49l-.14.14v-.25a1.88,1.88,0,0,0-.38-1.26,1.25,1.25,0,0,0-1-.45,1.43,1.43,0,0,0-.79.24,1.75,1.75,0,0,0-.61.72,2.82,2.82,0,0,0-.23,1.2v.14a2.67,2.67,0,0,0,.56,1.8,1.81,1.81,0,0,0,1.43.65,1.93,1.93,0,0,0,.88-.2,2.21,2.21,0,0,0,.74-.63l.33.29a2.59,2.59,0,0,1-.95,1A2.41,2.41,0,0,1,129.8,44.72Z" transform="translate(-1.1 -1.47)"/><path class="cls-1" d="M133,44.61l0-.45.84-.2q0-.12,0-.27c0-.11,0-.25,0-.44s0-.45,0-.77V41.41c0-.31,0-.62,0-.95s-.05-.56-.07-.7l-.87-.19v-.41l1.67-.47.19.21-.07.71h0a3.88,3.88,0,0,1,1-.74,2.3,2.3,0,0,1,1-.21,2,2,0,0,1,.92.23,1.83,1.83,0,0,1,.72.76A2.69,2.69,0,0,1,138.6,41v1.54q0,.51,0,.9c0,.27,0,.45.05.54l.85.2,0,.45H137l0-.45.79-.2c0-.08,0-.16,0-.26s0-.22,0-.39,0-.39,0-.67V41.07a1.84,1.84,0,0,0-.24-1,1.35,1.35,0,0,0-.56-.53,1.61,1.61,0,0,0-.65-.15,1.72,1.72,0,0,0-.89.24,2.12,2.12,0,0,0-.71.66v2.08c0,.44,0,.79,0,1s0,.44,0,.55l.85.2,0,.45Z" transform="translate(-1.1 -1.47)"/><path class="cls-1" d="M144.51,43.85a2,2,0,0,1-.7.63,1.92,1.92,0,0,1-2.19-.26,1.93,1.93,0,0,1-.52-1.48l0-3.32h-.95v-.25l1.61-1.54h.2l0,1.47,0,3.41a1.7,1.7,0,0,0,.32,1.12,1.17,1.17,0,0,0,.9.37,1.55,1.55,0,0,0,.61-.13,2.15,2.15,0,0,0,.5-.35Zm-2.93-4.43v-.63h2.5v.63Z" transform="translate(-1.1 -1.47)"/><path class="cls-1" d="M144.85,44.61l0-.46.92-.19s0-.1,0-.17,0-.22,0-.43,0-.5,0-.88v-.86c0-.41,0-.79,0-1.13s0-.59-.05-.73l-.92-.19v-.41l1.78-.47.15.17c0,.28,0,.56-.05.82s0,.59,0,1v1.73c0,.44,0,.8,0,1.08s0,.44,0,.52l.92.19,0,.46ZM146.21,37a.76.76,0,0,1-.53-.2.69.69,0,0,1,0-1,.77.77,0,0,1,.53-.21.7.7,0,0,1,.52.21.71.71,0,0,1,0,1A.69.69,0,0,1,146.21,37Z" transform="translate(-1.1 -1.47)"/><path class="cls-1" d="M151.45,44.72a3,3,0,0,1-1.52-.38,2.61,2.61,0,0,1-1-1.07,3.37,3.37,0,0,1-.35-1.58,3.09,3.09,0,0,1,.39-1.58A2.77,2.77,0,0,1,150,39.05a3.07,3.07,0,0,1,2.92,0,2.57,2.57,0,0,1,1,1,3.39,3.39,0,0,1,.34,1.57,3.2,3.2,0,0,1-.37,1.55,2.87,2.87,0,0,1-1,1.1A2.54,2.54,0,0,1,151.45,44.72Zm.14-.57a1.33,1.33,0,0,0,.86-.3A2,2,0,0,0,153,43a3.14,3.14,0,0,0,.21-1.18,3.29,3.29,0,0,0-.51-1.91,1.61,1.61,0,0,0-1.36-.73,1.55,1.55,0,0,0-1.29.64,2.72,2.72,0,0,0-.49,1.69,3.37,3.37,0,0,0,.26,1.36,2.21,2.21,0,0,0,.71.92A1.71,1.71,0,0,0,151.59,44.15Z" transform="translate(-1.1 -1.47)"/><path class="cls-1" d="M155.31,44.61l0-.45.85-.2c0-.08,0-.17,0-.27s0-.25,0-.44,0-.45,0-.77V41.41c0-.31,0-.62,0-.95s-.05-.56-.06-.7l-.88-.19v-.41l1.67-.47.19.21-.07.71h0a3.88,3.88,0,0,1,1-.74,2.3,2.3,0,0,1,1-.21,2,2,0,0,1,.92.23,1.92,1.92,0,0,1,.73.76,2.69,2.69,0,0,1,.28,1.32v1.54q0,.51,0,.9c0,.27,0,.45.05.54l.85.2,0,.45h-2.55l0-.45L160,44c0-.08,0-.16,0-.26a3.53,3.53,0,0,0,0-.39c0-.17,0-.39,0-.67V41.07a1.94,1.94,0,0,0-.23-1,1.43,1.43,0,0,0-.57-.53,1.61,1.61,0,0,0-.65-.15,1.72,1.72,0,0,0-.89.24,2.22,2.22,0,0,0-.71.66v2.08c0,.44,0,.79,0,1s0,.44,0,.55l.85.2,0,.45Z" transform="translate(-1.1 -1.47)"/><path class="cls-1" d="M167.8,44.67l-2.38-5.25-.64-.19,0-.46h2.42l0,.46-.85.19,2,4.39Zm3.41-5.9,0,.46-.64.19-2.3,4.93-1.11,2.27a2.47,2.47,0,0,1-.6.86,1.15,1.15,0,0,1-.75.25.88.88,0,0,1-.51-.14.45.45,0,0,1-.2-.39.56.56,0,0,1,.14-.35,1.19,1.19,0,0,1,.45-.26l1.17-.35-.55.7,1.48-2.89.15-.23,1.86-4.4-.85-.19,0-.46Z" transform="translate(-1.1 -1.47)"/><path class="cls-1" d="M174.54,44.72a3,3,0,0,1-1.52-.38,2.67,2.67,0,0,1-1-1.07,3.5,3.5,0,0,1-.35-1.58,3.09,3.09,0,0,1,.39-1.58,2.77,2.77,0,0,1,1.06-1.06,2.85,2.85,0,0,1,1.47-.38A2.81,2.81,0,0,1,176,39a2.57,2.57,0,0,1,1,1,3.39,3.39,0,0,1,.34,1.57A3.2,3.2,0,0,1,177,43.2a2.87,2.87,0,0,1-1,1.1A2.54,2.54,0,0,1,174.54,44.72Zm.14-.57a1.31,1.31,0,0,0,.86-.3,2,2,0,0,0,.58-.82,3.14,3.14,0,0,0,.21-1.18,3.29,3.29,0,0,0-.51-1.91,1.59,1.59,0,0,0-1.36-.73,1.52,1.52,0,0,0-1.28.64,2.66,2.66,0,0,0-.5,1.69,3.37,3.37,0,0,0,.26,1.36,2.3,2.3,0,0,0,.71.92A1.73,1.73,0,0,0,174.68,44.15Z" transform="translate(-1.1 -1.47)"/><path class="cls-1" d="M184,43.74l.86.22v.41l-1.63.38-.15-.17,0-.83h0a2.83,2.83,0,0,1-.82.76,1.87,1.87,0,0,1-.88.21,2.19,2.19,0,0,1-1.52-.55,2.08,2.08,0,0,1-.61-1.65V41.32c0-.28,0-.54,0-.8s0-.52,0-.76l-.93-.19v-.41l1.7-.47.19.21,0,.87c0,.3,0,.62,0,1l0,1.59a1.63,1.63,0,0,0,.42,1.27,1.6,1.6,0,0,0,1.07.37,1.77,1.77,0,0,0,.8-.21,1.91,1.91,0,0,0,.72-.7V41.41c0-.2,0-.4,0-.61s0-.39,0-.58,0-.33,0-.46l-1-.19v-.41l1.77-.47.16.18c0,.27,0,.51,0,.7s0,.39,0,.58v1.56c0,.59,0,1,.05,1.35S183.94,43.6,184,43.74Z" transform="translate(-1.1 -1.47)"/><path class="cls-1" d="M188.3,44.61l0-.45.85-.2a2.49,2.49,0,0,0,0-.45c0-.19,0-.47,0-.81V38.62c0-.36,0-.72,0-1.06s0-.65,0-.9,0-.41,0-.47l-1-.14,0-.38,1.75-.53.22.18c0,.28,0,.56,0,.85s0,.59,0,.92,0,.7,0,1.11v1.41h0a3.65,3.65,0,0,1,.94-.74,2.31,2.31,0,0,1,1-.21,1.88,1.88,0,0,1,.91.24,2,2,0,0,1,.73.77A2.76,2.76,0,0,1,193.9,41v1.49q0,.51,0,.9c0,.26,0,.44,0,.54l.85.2v.45h-2.56l0-.45L193,44c0-.08,0-.16,0-.26a3.53,3.53,0,0,0,0-.39c0-.17,0-.39,0-.67V41.08a2,2,0,0,0-.21-1,1.28,1.28,0,0,0-.54-.54,1.42,1.42,0,0,0-.7-.17,1.72,1.72,0,0,0-.89.24,2.22,2.22,0,0,0-.71.66v2.08c0,.43,0,.79,0,1.07s0,.45,0,.53l.85.2,0,.45Z" transform="translate(-1.1 -1.47)"/><path class="cls-1" d="M197.92,44.72a2.17,2.17,0,0,1-.92-.2,1.78,1.78,0,0,1-.66-.54,1.12,1.12,0,0,1-.25-.71,1,1,0,0,1,.3-.73,2.61,2.61,0,0,1,1-.53l2.06-.72v-.75a1,1,0,0,0-.21-.64,1.37,1.37,0,0,0-.57-.46,1.84,1.84,0,0,0-.8-.16.65.65,0,0,0-.5.15,1.11,1.11,0,0,0-.16.62l0,.49a1.26,1.26,0,0,1-.75,0,.46.46,0,0,1-.31-.45.67.67,0,0,1,.18-.43,2.64,2.64,0,0,1,.49-.43,4.71,4.71,0,0,1,.67-.35,3.3,3.3,0,0,1,.75-.19,2.24,2.24,0,0,1,1.53.51,1.81,1.81,0,0,1,.6,1.37l0,2.41a4.1,4.1,0,0,0,0,.48,1.29,1.29,0,0,0,.06.38l.86.16v.37l-.62.22a2.44,2.44,0,0,1-.32.11.75.75,0,0,1-.24,0,.48.48,0,0,1-.49-.45l-.12-.52h.18a3.94,3.94,0,0,1-.87.74A1.72,1.72,0,0,1,197.92,44.72Zm.29-.68a1.37,1.37,0,0,0,.65-.17,2,2,0,0,0,.59-.5V41.91l-1.71.47a.93.93,0,0,0-.47.27.77.77,0,0,0-.14.47.83.83,0,0,0,.33.63A1.12,1.12,0,0,0,198.21,44Z" transform="translate(-1.1 -1.47)"/><path class="cls-1" d="M204.54,44.67l-2.39-5.25-.65-.19,0-.46H204l0,.46-.84.19,2,4.39h-.35l1.8-4.4-.84-.19,0-.46h2.2l0,.46-.64.19-2.43,5.25Z" transform="translate(-1.1 -1.47)"/><path class="cls-1" d="M211.14,44.72a2.77,2.77,0,0,1-1.38-.34,2.53,2.53,0,0,1-1-1,3.22,3.22,0,0,1-.36-1.57,3.43,3.43,0,0,1,.38-1.69,2.8,2.8,0,0,1,1-1.09,2.49,2.49,0,0,1,1.35-.36,2,2,0,0,1,1.6.68,2.93,2.93,0,0,1,.59,2v.23h-4.25V41h3.49l-.14.14v-.25a1.88,1.88,0,0,0-.38-1.26,1.26,1.26,0,0,0-1-.45,1.43,1.43,0,0,0-.78.24,1.68,1.68,0,0,0-.61.72,2.68,2.68,0,0,0-.23,1.2v.14a2.62,2.62,0,0,0,.56,1.8,1.81,1.81,0,0,0,1.43.65,1.93,1.93,0,0,0,.88-.2,2.21,2.21,0,0,0,.74-.63l.32.29a2.5,2.5,0,0,1-.94,1A2.42,2.42,0,0,1,211.14,44.72Z" transform="translate(-1.1 -1.47)"/><path class="cls-1" d="M219.63,47.73a3.73,3.73,0,0,1-1.91-.42,1.24,1.24,0,0,1-.71-1.08,1.36,1.36,0,0,1,.33-.88,4.55,4.55,0,0,1,1.16-.86l.49.14a2.44,2.44,0,0,0-.74.62A1.33,1.33,0,0,0,218,46a1,1,0,0,0,.45.88,2.11,2.11,0,0,0,1.23.31,2.6,2.6,0,0,0,1.49-.39,1.22,1.22,0,0,0,.57-1,.83.83,0,0,0-.36-.74,2.47,2.47,0,0,0-1.16-.3l-1.4-.11-.23-.06a1.23,1.23,0,0,1-.79-.26.8.8,0,0,1-.33-.64,1,1,0,0,1,.33-.7,3.15,3.15,0,0,1,.93-.64l.16.29a2.38,2.38,0,0,0-.42.36.47.47,0,0,0-.13.28.42.42,0,0,0,.2.35,1,1,0,0,0,.53.19l1.68.16a2.85,2.85,0,0,1,1.4.46,1.31,1.31,0,0,1,.49,1.1,1.7,1.7,0,0,1-.4,1.11,2.67,2.67,0,0,1-1.07.8A3.9,3.9,0,0,1,219.63,47.73Zm.13-4.84a2.92,2.92,0,0,1-1.24-.25,2,2,0,0,1-.86-.71,1.72,1.72,0,0,1-.31-1,2.13,2.13,0,0,1,.31-1.15,2.37,2.37,0,0,1,.86-.8,2.55,2.55,0,0,1,1.21-.29A2.67,2.67,0,0,1,221,39a2,2,0,0,1,.83.73,2,2,0,0,1,.3,1.08,1.92,1.92,0,0,1-.31,1.08,2.13,2.13,0,0,1-.83.77A2.45,2.45,0,0,1,219.76,42.89Zm.06-.48a1.19,1.19,0,0,0,1-.42,1.67,1.67,0,0,0,.34-1.11,1.9,1.9,0,0,0-.39-1.26,1.31,1.31,0,0,0-2,0,1.71,1.71,0,0,0-.38,1.15,1.77,1.77,0,0,0,.4,1.21A1.35,1.35,0,0,0,219.82,42.41Zm3.11-2.82-1.57-.09-.54-.52,2.11-.21Z" transform="translate(-1.1 -1.47)"/><path class="cls-1" d="M223.6,44.61l0-.46.92-.19s0-.1,0-.17,0-.22,0-.43,0-.5,0-.88v-.86c0-.41,0-.79,0-1.13s0-.59-.05-.73l-.92-.19v-.41l1.78-.47.15.17c0,.28,0,.56-.05.82s0,.59,0,1v1.73c0,.44,0,.8,0,1.08s0,.44,0,.52l.92.19,0,.46ZM225,37a.79.79,0,0,1-.54-.2.69.69,0,0,1,0-1,.8.8,0,0,1,.54-.21.69.69,0,0,1,.51.21.71.71,0,0,1,0,1A.69.69,0,0,1,225,37Z" transform="translate(-1.1 -1.47)"/><path class="cls-1" d="M229.72,44.67l-2.39-5.25-.64-.19,0-.46h2.43l0,.46-.85.19,2,4.39h-.36l1.81-4.4-.85-.19,0-.46h2.2l0,.46-.64.19-2.43,5.25Z" transform="translate(-1.1 -1.47)"/><path class="cls-1" d="M236.33,44.72a2.81,2.81,0,0,1-1.39-.34,2.45,2.45,0,0,1-1-1,3.12,3.12,0,0,1-.37-1.57,3.54,3.54,0,0,1,.38-1.69A2.88,2.88,0,0,1,235,39a2.5,2.5,0,0,1,1.36-.36,2,2,0,0,1,1.6.68,2.93,2.93,0,0,1,.58,2v.23h-4.25V41h3.49l-.14.14v-.25a1.88,1.88,0,0,0-.37-1.26,1.27,1.27,0,0,0-1-.45,1.43,1.43,0,0,0-.79.24,1.75,1.75,0,0,0-.61.72,2.82,2.82,0,0,0-.23,1.2v.14a2.67,2.67,0,0,0,.56,1.8,1.83,1.83,0,0,0,1.44.65,1.89,1.89,0,0,0,.87-.2,2.11,2.11,0,0,0,.74-.63l.33.29a2.59,2.59,0,0,1-.95,1A2.41,2.41,0,0,1,236.33,44.72Z" transform="translate(-1.1 -1.47)"/><path class="cls-1" d="M239.53,44.61l0-.45.85-.2c0-.08,0-.17,0-.27s0-.25,0-.44,0-.45,0-.77V41.41c0-.31,0-.62,0-.95s-.05-.56-.06-.7l-.88-.19v-.41l1.67-.47.19.21-.07.71h0a3.88,3.88,0,0,1,1-.74,2.3,2.3,0,0,1,1-.21,2,2,0,0,1,.92.23,1.83,1.83,0,0,1,.72.76,2.58,2.58,0,0,1,.29,1.32v1.54q0,.51,0,.9c0,.27,0,.45.05.54l.85.2,0,.45h-2.55l0-.45.79-.2c0-.08,0-.16,0-.26a3.53,3.53,0,0,0,0-.39c0-.17,0-.39,0-.67V41.07a1.94,1.94,0,0,0-.23-1,1.43,1.43,0,0,0-.57-.53,1.61,1.61,0,0,0-.65-.15,1.72,1.72,0,0,0-.89.24,2.22,2.22,0,0,0-.71.66v2.08c0,.44,0,.79,0,1s0,.44,0,.55l.85.2,0,.45Z" transform="translate(-1.1 -1.47)"/><path class="cls-1" d="M255.07,43.74l.86.22v.41l-1.62.38-.16-.17,0-.83h0a2.83,2.83,0,0,1-.82.76,1.84,1.84,0,0,1-.88.21,2.19,2.19,0,0,1-1.52-.55,2.08,2.08,0,0,1-.61-1.65V41.32c0-.28,0-.54,0-.8s0-.52-.05-.76l-.93-.19v-.41l1.7-.47.19.21q0,.42,0,.87c0,.3,0,.62,0,1l0,1.59a1.63,1.63,0,0,0,.42,1.27,1.6,1.6,0,0,0,1.07.37,1.77,1.77,0,0,0,.8-.21,1.91,1.91,0,0,0,.72-.7V41.41c0-.2,0-.4,0-.61s0-.39,0-.58a2.92,2.92,0,0,0,0-.46l-1-.19v-.41l1.77-.47.16.18c0,.27,0,.51,0,.7v2.14c0,.59,0,1,0,1.35S255.06,43.6,255.07,43.74Z" transform="translate(-1.1 -1.47)"/><path class="cls-1" d="M259,44.72a4.67,4.67,0,0,1-1-.11,3.59,3.59,0,0,1-.84-.31l-.06-1.42h.61l.26,1a1.77,1.77,0,0,0,1.11.34,1.25,1.25,0,0,0,.78-.24.76.76,0,0,0,.31-.65.89.89,0,0,0-.27-.65,3.22,3.22,0,0,0-1-.6,5.35,5.35,0,0,1-1.34-.82,1.29,1.29,0,0,1-.39-1,1.35,1.35,0,0,1,.27-.83,1.81,1.81,0,0,1,.77-.56,2.82,2.82,0,0,1,1.13-.2,4.73,4.73,0,0,1,.75,0,2.83,2.83,0,0,1,.64.16l.16,1.38h-.58l-.34-.91a1,1,0,0,0-.33-.13,1.86,1.86,0,0,0-.42,0,1.31,1.31,0,0,0-.8.23.75.75,0,0,0-.3.62.87.87,0,0,0,.32.69,5.77,5.77,0,0,0,1.11.65,3.94,3.94,0,0,1,1.25.81,1.33,1.33,0,0,1,.36.94,1.37,1.37,0,0,1-.61,1.15A2.47,2.47,0,0,1,259,44.72Z" transform="translate(-1.1 -1.47)"/><path class="cls-1" d="M263.22,44.75a.73.73,0,0,1-.54-.21.69.69,0,0,1-.21-.52.74.74,0,0,1,.09-.36.81.81,0,0,1,.27-.25.8.8,0,0,1,.38-.1.72.72,0,0,1,.54.21.67.67,0,0,1,.21.5.69.69,0,0,1-.21.52A.69.69,0,0,1,263.22,44.75Z" transform="translate(-1.1 -1.47)"/><path class="cls-1" d="M8.41,81.73,5.85,87.87H5.11L1.85,80l-.75-.22,0-.69H4.6l.05.69L3.89,80l2.38,6h-.6l2.16-5.56Zm2.17,6.14L7.29,80l-.75-.22,0-.69h3.58l.05.69L9.29,80l2.4,6h-.53l2.23-6-1-.22.05-.69h2.93l0,.69-.76.22-3.3,7.86Z" transform="translate(-1.1 -1.47)"/><path class="cls-1" d="M18.52,88a3.28,3.28,0,0,1-1.66-.42,3,3,0,0,1-1.15-1.15,3.34,3.34,0,0,1-.42-1.69,3.49,3.49,0,0,1,.46-1.82A3.37,3.37,0,0,1,17,81.65a3,3,0,0,1,1.59-.42,2.47,2.47,0,0,1,2,.82,3.12,3.12,0,0,1,.67,2.09v.33h-4.4v-.74H19.9l-.21.31v-.45a1.89,1.89,0,0,0-.33-1.17,1.12,1.12,0,0,0-.93-.43,1.25,1.25,0,0,0-.72.22,1.57,1.57,0,0,0-.52.67A2.8,2.8,0,0,0,17,84v.27A2.56,2.56,0,0,0,17.57,86a1.92,1.92,0,0,0,1.53.66,2.09,2.09,0,0,0,.91-.19,2.53,2.53,0,0,0,.81-.64l.43.38a3,3,0,0,1-1.14,1.3A3.11,3.11,0,0,1,18.52,88Z" transform="translate(-1.1 -1.47)"/><path class="cls-1" d="M24.85,87.83l-.05-.66,1-.22a3.71,3.71,0,0,0,0-.52c0-.26,0-.57,0-.94s0-.76,0-1.17V82.45c0-.35,0-.7,0-1.07s0-.7,0-1,0-.62,0-.87,0-.45,0-.59l-1.09-.14,0-.58,2.6-.69.37.24c0,.42,0,.82,0,1.23s0,.85,0,1.34,0,1.1,0,1.82v2.25c0,.66,0,1.23,0,1.72s0,.78.05.87l1,.22,0,.66Z" transform="translate(-1.1 -1.47)"/><path class="cls-1" d="M32.77,88A3.58,3.58,0,0,1,31,87.52a3,3,0,0,1-1.19-1.17,3.67,3.67,0,0,1,.05-3.54,3.2,3.2,0,0,1,1.28-1.17,3.59,3.59,0,0,1,1.7-.41,3.48,3.48,0,0,1,1.7.41,3,3,0,0,1,1.13,1.16,3.73,3.73,0,0,1,0,3.46,3.27,3.27,0,0,1-1.19,1.23A3.09,3.09,0,0,1,32.77,88Zm.15-.87a1,1,0,0,0,.71-.25,1.72,1.72,0,0,0,.46-.76,3.51,3.51,0,0,0,.17-1.14,4.22,4.22,0,0,0-.45-2.08,1.32,1.32,0,0,0-1.19-.8,1.15,1.15,0,0,0-1,.61,2.94,2.94,0,0,0-.39,1.62,4.35,4.35,0,0,0,.22,1.44,2.58,2.58,0,0,0,.61,1A1.26,1.26,0,0,0,32.92,87.08Z" transform="translate(-1.1 -1.47)"/><path class="cls-1" d="M40.56,88a3.55,3.55,0,0,1-1.78-.43,3,3,0,0,1-1.19-1.17,3.67,3.67,0,0,1,0-3.54,3.2,3.2,0,0,1,1.28-1.17,3.59,3.59,0,0,1,1.7-.41,3.41,3.41,0,0,1,1.69.41,3,3,0,0,1,1.14,1.16,3.73,3.73,0,0,1,0,3.46,3.27,3.27,0,0,1-1.19,1.23A3.11,3.11,0,0,1,40.56,88Zm.15-.87a1,1,0,0,0,.71-.25,1.72,1.72,0,0,0,.46-.76,3.51,3.51,0,0,0,.17-1.14,4.22,4.22,0,0,0-.45-2.08,1.32,1.32,0,0,0-1.19-.8,1.15,1.15,0,0,0-1,.61A2.94,2.94,0,0,0,39,84.28a4.35,4.35,0,0,0,.22,1.44,2.46,2.46,0,0,0,.61,1A1.26,1.26,0,0,0,40.71,87.08Z" transform="translate(-1.1 -1.47)"/><path class="cls-1" d="M44.81,87.83l0-.64.84-.24a5.3,5.3,0,0,0,.06-.54c0-.26,0-.57,0-.92V81.37c0-.36,0-.7,0-1s0-.61,0-.86,0-.45,0-.59l-1.1-.14,0-.58,2.58-.69.37.24c0,.3,0,.59-.05.88s0,.61,0,.93,0,.7,0,1.11v1.42l0,3.46c0,.25,0,.48,0,.67s0,.36,0,.49,0,.22,0,.27l.92.24,0,.64Zm7.6,0H50.18a6,6,0,0,0-.43-.54c-.12-.15-.24-.28-.36-.41l-1.86-2h-.39l0-.49.49-.12,2.17-2.06-1-.17,0-.65h3.19l0,.65-1,.18-2.54,2.17.16-.62L51,86.19l.49.52.36.35.61.13Z" transform="translate(-1.1 -1.47)"/><path class="cls-1" d="M55.44,82.25v-.62l1.07-.28,1,0h2.28v.87Zm4,5.58H55.62l0-.64.92-.24,0-.39V80.77a4.06,4.06,0,0,1,.35-1.72,2.79,2.79,0,0,1,1-1.17,2.29,2.29,0,0,1,1.38-.43,2.17,2.17,0,0,1,1.16.29.87.87,0,0,1,.46.75.54.54,0,0,1-.17.43.68.68,0,0,1-.47.15,1.24,1.24,0,0,1-.8-.35L58.59,78l.54.09a.81.81,0,0,0-.73.54,3.88,3.88,0,0,0-.26,1.59v1.17l0,.88,0,2.07q0,.7,0,1.44c0,.48,0,.88,0,1.2l1.22.24Z" transform="translate(-1.1 -1.47)"/><path class="cls-1" d="M63.87,88a3.53,3.53,0,0,1-1.78-.43,3.07,3.07,0,0,1-1.2-1.17,3.46,3.46,0,0,1-.43-1.72A3.28,3.28,0,0,1,61,82.81a3.18,3.18,0,0,1,1.27-1.17,3.63,3.63,0,0,1,1.71-.41,3.41,3.41,0,0,1,1.69.41,3,3,0,0,1,1.14,1.16,3.73,3.73,0,0,1,0,3.46,3.27,3.27,0,0,1-1.19,1.23A3.11,3.11,0,0,1,63.87,88Zm.15-.87a1.06,1.06,0,0,0,.71-.25,1.72,1.72,0,0,0,.46-.76,3.52,3.52,0,0,0,.16-1.14,4.22,4.22,0,0,0-.44-2.08,1.33,1.33,0,0,0-1.19-.8,1.17,1.17,0,0,0-1,.61,3,3,0,0,0-.38,1.62,4.35,4.35,0,0,0,.22,1.44,2.46,2.46,0,0,0,.61,1A1.26,1.26,0,0,0,64,87.08Z" transform="translate(-1.1 -1.47)"/><path class="cls-1" d="M68.06,87.83l0-.64.93-.24a1.83,1.83,0,0,0,0-.25q0-.2,0-.51c0-.22,0-.47,0-.76l0-1.12c0-.31,0-.6,0-.86a5.48,5.48,0,0,0-.11-.74l-1-.2V81.9l2.39-.64.33.24-.06,1.19h.05a2.94,2.94,0,0,1,.87-1.13,1.61,1.61,0,0,1,.89-.3,1.09,1.09,0,0,1,.67.21.76.76,0,0,1,.27.64.81.81,0,0,1-.3.67,1.07,1.07,0,0,1-.71.24,1.38,1.38,0,0,1-.59-.12,2.06,2.06,0,0,1-.57-.4l.36,0a2.44,2.44,0,0,0-.46.45,3.44,3.44,0,0,0-.41.65l0,1.23c0,.33,0,.64,0,.92s0,.52,0,.73,0,.34,0,.42l1.29.21,0,.67Z" transform="translate(-1.1 -1.47)"/><path class="cls-1" d="M76.84,87.89l-2.55-5.67-.7-.23,0-.64h3.31L77,82l-.73.23,1.68,3.93h-.46l1.82-4,.5.95-2.35,4.76Zm4.58,0L79,82.22,78.23,82l0-.64h3.32l0,.64-.78.23,1.59,3.93H82l1.67-3.93L82.92,82l0-.64h2.47l0,.64-.7.23L82,87.89Z" transform="translate(-1.1 -1.47)"/><path class="cls-1" d="M88.07,88a2.37,2.37,0,0,1-1.16-.28,2.11,2.11,0,0,1-.73-.69,1.43,1.43,0,0,1-.25-.77,1.2,1.2,0,0,1,.32-.87,2.47,2.47,0,0,1,1-.57l2.32-.72v-.61a1,1,0,0,0-.21-.61,1.67,1.67,0,0,0-.55-.46,1.53,1.53,0,0,0-.74-.18.5.5,0,0,0-.39.13.88.88,0,0,0-.14.5l-.06.8a1.77,1.77,0,0,1-1.11,0A.63.63,0,0,1,86,83a.82.82,0,0,1,.27-.55,3.43,3.43,0,0,1,.67-.54,5.75,5.75,0,0,1,.86-.43,3.25,3.25,0,0,1,.82-.22,3.09,3.09,0,0,1,2,.59,2,2,0,0,1,.75,1.59l0,2.2a5.54,5.54,0,0,0,0,.62,1.21,1.21,0,0,0,.08.39l1,.18v.57l-.88.37a2.71,2.71,0,0,1-.46.15,1.43,1.43,0,0,1-.39.06.76.76,0,0,1-.74-.57l-.22-.65.28.06a4.28,4.28,0,0,1-.94.85A1.67,1.67,0,0,1,88.07,88Zm.64-1.19a1.2,1.2,0,0,0,.48-.11,1.24,1.24,0,0,0,.42-.32V84.84l-1.23.27a.87.87,0,0,0-.51.25.68.68,0,0,0-.16.48.9.9,0,0,0,.29.64A1,1,0,0,0,88.71,86.76Z" transform="translate(-1.1 -1.47)"/><path class="cls-1" d="M92.85,87.83l0-.64.92-.24a1.83,1.83,0,0,0,0-.25q0-.2,0-.51c0-.22,0-.47,0-.76l0-1.12c0-.31,0-.6,0-.86s-.06-.51-.1-.74l-1-.2V81.9l2.4-.64.32.24-.06,1.19h0a3,3,0,0,1,.88-1.13,1.56,1.56,0,0,1,.89-.3,1,1,0,0,1,.66.21.76.76,0,0,1,.27.64.8.8,0,0,1-.29.67,1.12,1.12,0,0,1-.72.24,1.45,1.45,0,0,1-.59-.12,2.06,2.06,0,0,1-.57-.4l.36,0a2.77,2.77,0,0,0-.46.45,3.41,3.41,0,0,0-.4.65v1.23c0,.33,0,.64,0,.92s0,.52,0,.73,0,.34,0,.42l1.3.21-.05.67Z" transform="translate(-1.1 -1.47)"/><path class="cls-1" d="M103.69,88l-.34-.21v-1l0,0a2.52,2.52,0,0,1-.87.88,2,2,0,0,1-1,.25,2.75,2.75,0,0,1-1.47-.4A3,3,0,0,1,99,86.45a3.34,3.34,0,0,1-.39-1.64,3.57,3.57,0,0,1,.3-1.49,3.43,3.43,0,0,1,.81-1.13,3.73,3.73,0,0,1,1.14-.7,3.45,3.45,0,0,1,1.26-.25,3.91,3.91,0,0,1,.67.07,1.6,1.6,0,0,1,.56.2v-.65c0-.25,0-.5,0-.76s0-.49,0-.7,0-.36,0-.46l-1.13-.18,0-.59,2.62-.69.36.24c0,.61-.06,1.19-.08,1.73s0,1.11,0,1.7v3.44c0,.5,0,.92,0,1.25s.06.57.08.74l1,.22v.6Zm-1.61-1.33a1.4,1.4,0,0,0,.63-.16,1.73,1.73,0,0,0,.61-.55V82.71a1.42,1.42,0,0,0-.57-.5,1.54,1.54,0,0,0-.65-.15,1.52,1.52,0,0,0-1.26.61,2.62,2.62,0,0,0-.48,1.66,2.67,2.67,0,0,0,.5,1.74A1.54,1.54,0,0,0,102.08,86.68Z" transform="translate(-1.1 -1.47)"/><path class="cls-1" d="M114.54,86.68a1.88,1.88,0,0,1-.8.94,2.24,2.24,0,0,1-1.21.34,2.28,2.28,0,0,1-1.62-.58,2.22,2.22,0,0,1-.64-1.75l0-3.39h-1v-.43l2.3-1.9H112l0,2,0,3.56a1.31,1.31,0,0,0,.32,1,1.19,1.19,0,0,0,.87.3,1.39,1.39,0,0,0,.57-.12,1.46,1.46,0,0,0,.49-.31Zm-3.33-4.44v-.88h2.91v.88Z" transform="translate(-1.1 -1.47)"/><path class="cls-1" d="M118.3,88a3.55,3.55,0,0,1-1.78-.43,3,3,0,0,1-1.19-1.17,3.67,3.67,0,0,1,0-3.54,3.2,3.2,0,0,1,1.28-1.17,3.59,3.59,0,0,1,1.7-.41,3.41,3.41,0,0,1,1.69.41,3,3,0,0,1,1.14,1.16,3.73,3.73,0,0,1,0,3.46A3.27,3.27,0,0,1,120,87.49,3.11,3.11,0,0,1,118.3,88Zm.15-.87a1,1,0,0,0,.71-.25,1.72,1.72,0,0,0,.46-.76,3.51,3.51,0,0,0,.17-1.14,4.22,4.22,0,0,0-.45-2.08,1.32,1.32,0,0,0-1.19-.8,1.15,1.15,0,0,0-1,.61,2.94,2.94,0,0,0-.39,1.62,4.35,4.35,0,0,0,.22,1.44,2.46,2.46,0,0,0,.61,1A1.26,1.26,0,0,0,118.45,87.08Z" transform="translate(-1.1 -1.47)"/><path class="cls-1" d="M127.93,88a5.44,5.44,0,0,1-1.19-.14,3.68,3.68,0,0,1-1-.35l-.08-1.7h.88l.31,1.07a2.14,2.14,0,0,0,1.18.34,1.25,1.25,0,0,0,.74-.2.67.67,0,0,0,.27-.55.8.8,0,0,0-.27-.61,3.57,3.57,0,0,0-1.09-.57,4.15,4.15,0,0,1-1.51-.88,1.59,1.59,0,0,1-.43-1.15,1.64,1.64,0,0,1,.35-1,2.37,2.37,0,0,1,1-.7,3.9,3.9,0,0,1,1.47-.25,6,6,0,0,1,.93.08,2.89,2.89,0,0,1,.78.23l.16,1.67h-.86l-.34-1a1.5,1.5,0,0,0-.36-.15,2,2,0,0,0-.42,0,1.18,1.18,0,0,0-.76.22.64.64,0,0,0-.29.55.77.77,0,0,0,.33.63,5.7,5.7,0,0,0,1.2.62,4.06,4.06,0,0,1,1.39.87,1.56,1.56,0,0,1,.41,1.1A1.7,1.7,0,0,1,130,87.4,3.49,3.49,0,0,1,127.93,88Z" transform="translate(-1.1 -1.47)"/><path class="cls-1" d="M134.9,88a3.27,3.27,0,0,1-1.65-.42,3.05,3.05,0,0,1-1.16-1.15,3.44,3.44,0,0,1-.41-1.69,3.49,3.49,0,0,1,.46-1.82,3.42,3.42,0,0,1,1.2-1.22,3,3,0,0,1,1.59-.42,2.45,2.45,0,0,1,2,.82,3.13,3.13,0,0,1,.68,2.09v.33h-4.4v-.74h3.11l-.21.31v-.45a1.83,1.83,0,0,0-.34-1.17,1.1,1.1,0,0,0-.93-.43,1.24,1.24,0,0,0-.71.22,1.5,1.5,0,0,0-.52.67,2.8,2.8,0,0,0-.19,1.11v.27A2.56,2.56,0,0,0,134,86a1.91,1.91,0,0,0,1.52.66,2.13,2.13,0,0,0,.92-.19,2.53,2.53,0,0,0,.81-.64l.43.38a3,3,0,0,1-1.14,1.3A3.12,3.12,0,0,1,134.9,88Z" transform="translate(-1.1 -1.47)"/><path class="cls-1" d="M141.83,88a3.3,3.3,0,0,1-1.66-.42A3,3,0,0,1,139,86.38a3.34,3.34,0,0,1-.42-1.69,3.5,3.5,0,0,1,.47-1.82,3.27,3.27,0,0,1,1.2-1.22,3,3,0,0,1,1.59-.42,2.46,2.46,0,0,1,2,.82,3.13,3.13,0,0,1,.68,2.09v.33h-4.4v-.74h3.1L143,84v-.45a1.89,1.89,0,0,0-.33-1.17,1.1,1.1,0,0,0-.93-.43,1.22,1.22,0,0,0-.71.22,1.5,1.5,0,0,0-.52.67,2.79,2.79,0,0,0-.2,1.11v.27a2.56,2.56,0,0,0,.58,1.75,1.91,1.91,0,0,0,1.52.66,2.06,2.06,0,0,0,.91-.19,2.33,2.33,0,0,0,.81-.64l.44.38a3,3,0,0,1-1.14,1.3A3.12,3.12,0,0,1,141.83,88Z" transform="translate(-1.1 -1.47)"/><path class="cls-1" d="M145.25,87.83l-.05-.66,1-.22a1.83,1.83,0,0,0,0-.25q0-.2,0-.51c0-.22,0-.47,0-.76l0-1.12c0-.31,0-.6,0-.86a5.51,5.51,0,0,0-.1-.74l-1-.2V81.9l2.54-.64.34.25q0,.46-.06.93t0,1.08v1.87c0,.37,0,.7,0,1A2.32,2.32,0,0,0,148,87l1,.22,0,.66Zm1.89-8a1.14,1.14,0,0,1-.84-.32,1.09,1.09,0,0,1,.84-1.85A1,1,0,0,1,148,78a1.13,1.13,0,0,1,0,1.53A1.05,1.05,0,0,1,147.14,79.88Z" transform="translate(-1.1 -1.47)"/><path class="cls-1" d="M149.56,87.83l0-.64.92-.24a1.85,1.85,0,0,0,0-.24q0-.19,0-.51c0-.21,0-.47,0-.77l0-1.12q0-.48,0-.87a5.57,5.57,0,0,0-.11-.73l-.95-.2V81.9l2.42-.64.36.25-.09.83.05,0a3.3,3.3,0,0,1,1-.85,2.48,2.48,0,0,1,1.16-.28,2.09,2.09,0,0,1,1.1.3,2.2,2.2,0,0,1,.8.9,3.22,3.22,0,0,1,.3,1.46v1.54c0,.34,0,.66,0,.95a2.51,2.51,0,0,0,.06.57l.92.24,0,.64H154l0-.64.86-.24a1.92,1.92,0,0,0,.05-.34c0-.15,0-.32,0-.52s0-.4,0-.61V84.11a2.12,2.12,0,0,0-.19-.94,1.27,1.27,0,0,0-.48-.54,1.35,1.35,0,0,0-.66-.17,1.6,1.6,0,0,0-.77.19,1.68,1.68,0,0,0-.62.54v2.2c0,.38,0,.71,0,1a2.08,2.08,0,0,0,.07.56l.92.24-.05.64Z" transform="translate(-1.1 -1.47)"/><path class="cls-1" d="M161.27,91.22a5.23,5.23,0,0,1-2.35-.44,1.33,1.33,0,0,1-.86-1.18,1.22,1.22,0,0,1,.48-.93,4.1,4.1,0,0,1,1.38-.75l.62.09a2.29,2.29,0,0,0-.63.61,1.28,1.28,0,0,0-.23.72.93.93,0,0,0,.45.82,2.26,2.26,0,0,0,1.26.3,2.56,2.56,0,0,0,1.42-.37,1.11,1.11,0,0,0,.56-.94.69.69,0,0,0-.31-.62,2.23,2.23,0,0,0-1-.27l-1.76-.15L160.1,88a1.85,1.85,0,0,1-1.09-.29.83.83,0,0,1-.41-.74,1.17,1.17,0,0,1,.44-.85,3.59,3.59,0,0,1,1.22-.65l.22.27a1.76,1.76,0,0,0-.31.26.41.41,0,0,0-.12.27.36.36,0,0,0,.14.29.69.69,0,0,0,.38.14l2.14.21a2.92,2.92,0,0,1,1.65.57,1.52,1.52,0,0,1,.54,1.23,1.89,1.89,0,0,1-.48,1.25,3.1,3.1,0,0,1-1.29.89A4.9,4.9,0,0,1,161.27,91.22Zm.09-5.18a3.57,3.57,0,0,1-1.51-.29,2.42,2.42,0,0,1-1-.83,2,2,0,0,1-.37-1.21,2.23,2.23,0,0,1,.39-1.29,2.76,2.76,0,0,1,1.05-.88,3.3,3.3,0,0,1,1.49-.33,3.14,3.14,0,0,1,1.46.33,2.7,2.7,0,0,1,1,.88,2.14,2.14,0,0,1,.37,1.25,2.09,2.09,0,0,1-.37,1.22,2.51,2.51,0,0,1-1,.85A3.46,3.46,0,0,1,161.36,86Zm.11-.77a1,1,0,0,0,.8-.41,1.91,1.91,0,0,0,.3-1.13,2.19,2.19,0,0,0-.33-1.27,1,1,0,0,0-.86-.47,1,1,0,0,0-.82.44,2.37,2.37,0,0,0,0,2.38A1,1,0,0,0,161.47,85.27Zm3.61-2.78-1.93-.18-.55-.65,2.48-.28Z" transform="translate(-1.1 -1.47)"/><path class="cls-1" d="M171.51,87.89l-2.69-5.67-.69-.23,0-.64h3.48l0,.64-.92.23,1.79,3.93Zm4-6.54.05.64-.7.23-2.57,5.18-1.18,2.46a2.83,2.83,0,0,1-.76,1.07,1.49,1.49,0,0,1-.87.29,1.15,1.15,0,0,1-.74-.23.67.67,0,0,1-.27-.55.81.81,0,0,1,.23-.54,1.63,1.63,0,0,1,.72-.38l1.62-.46-.89.7,1.75-3.28.18-.33,1.71-3.93L172.9,82l0-.64Z" transform="translate(-1.1 -1.47)"/><path class="cls-1" d="M179.27,88a3.52,3.52,0,0,1-1.77-.43,3.07,3.07,0,0,1-1.2-1.17,3.67,3.67,0,0,1,0-3.54,3.27,3.27,0,0,1,1.28-1.17,3.59,3.59,0,0,1,1.7-.41,3.45,3.45,0,0,1,1.7.41,3,3,0,0,1,1.13,1.16,3.43,3.43,0,0,1,.41,1.71,3.52,3.52,0,0,1-.43,1.75A3.35,3.35,0,0,1,181,87.49,3.12,3.12,0,0,1,179.27,88Zm.15-.87a1.07,1.07,0,0,0,.72-.25,1.82,1.82,0,0,0,.46-.76,3.52,3.52,0,0,0,.16-1.14,4.22,4.22,0,0,0-.45-2.08,1.31,1.31,0,0,0-1.18-.8,1.17,1.17,0,0,0-1,.61,2.94,2.94,0,0,0-.39,1.62,4.35,4.35,0,0,0,.23,1.44,2.36,2.36,0,0,0,.61,1A1.24,1.24,0,0,0,179.42,87.08Z" transform="translate(-1.1 -1.47)"/><path class="cls-1" d="M190.36,86.58l1,.22v.6L189,88l-.35-.21,0-1h0a2.62,2.62,0,0,1-.91.91,2,2,0,0,1-1,.26,2.35,2.35,0,0,1-1.71-.65,2.62,2.62,0,0,1-.67-2V84.08c0-.2,0-.41,0-.64l-.06-.73-1-.2V81.9l2.49-.64.35.25c0,.3,0,.65-.05,1s0,.8,0,1.22l0,1.38a1.62,1.62,0,0,0,.37,1.18,1.34,1.34,0,0,0,1,.37,1.47,1.47,0,0,0,.67-.18,1.61,1.61,0,0,0,.6-.59V83.74q0-.28,0-.54c0-.18,0-.34-.06-.49l-1.08-.2V81.9l2.53-.64.34.24c0,.21,0,.43,0,.65s0,.45,0,.7,0,.52,0,.83v1.15c0,.33,0,.66,0,1A7.33,7.33,0,0,0,190.36,86.58Z" transform="translate(-1.1 -1.47)"/><path class="cls-1" d="M198.39,88a3.55,3.55,0,0,1-1.78-.43,3,3,0,0,1-1.19-1.17,3.67,3.67,0,0,1,.05-3.54,3.2,3.2,0,0,1,1.28-1.17,3.56,3.56,0,0,1,1.7-.41,3.41,3.41,0,0,1,1.69.41,3,3,0,0,1,1.14,1.16,3.73,3.73,0,0,1,0,3.46,3.27,3.27,0,0,1-1.19,1.23A3.11,3.11,0,0,1,198.39,88Zm.15-.87a1,1,0,0,0,.71-.25,1.72,1.72,0,0,0,.46-.76,3.51,3.51,0,0,0,.17-1.14,4.22,4.22,0,0,0-.45-2.08,1.32,1.32,0,0,0-1.19-.8,1.15,1.15,0,0,0-1,.61,2.94,2.94,0,0,0-.39,1.62,4.35,4.35,0,0,0,.22,1.44,2.46,2.46,0,0,0,.61,1A1.26,1.26,0,0,0,198.54,87.08Z" transform="translate(-1.1 -1.47)"/><path class="cls-1" d="M202.57,87.83l0-.64.92-.24a1.85,1.85,0,0,0,0-.24q0-.19,0-.51c0-.21,0-.47,0-.77V84.31q0-.48,0-.87a5.58,5.58,0,0,0-.1-.73l-1-.2V81.9l2.42-.64.36.25-.09.83,0,0a3.45,3.45,0,0,1,1-.85,2.44,2.44,0,0,1,1.15-.28,2.1,2.1,0,0,1,1.11.3,2.27,2.27,0,0,1,.8.9,3.36,3.36,0,0,1,.29,1.46v1.54c0,.34,0,.66,0,.95a2.51,2.51,0,0,0,.06.57l.92.24-.05.64H207l0-.64.86-.24a2.11,2.11,0,0,0,0-.34c0-.15,0-.32,0-.52v-2a2.13,2.13,0,0,0-.18-.94,1.36,1.36,0,0,0-.49-.54,1.29,1.29,0,0,0-.65-.17,1.57,1.57,0,0,0-.77.19,1.79,1.79,0,0,0-.63.54v2.2c0,.38,0,.71,0,1a2.25,2.25,0,0,0,.06.56l.92.24,0,.64Z" transform="translate(-1.1 -1.47)"/><path class="cls-1" d="M217.61,88a3.53,3.53,0,0,1-1.78-.43,3,3,0,0,1-1.19-1.17,3.6,3.6,0,0,1,.05-3.54A3.2,3.2,0,0,1,216,81.64a3.56,3.56,0,0,1,1.7-.41,3.41,3.41,0,0,1,1.69.41,3,3,0,0,1,1.14,1.16,3.73,3.73,0,0,1,0,3.46,3.27,3.27,0,0,1-1.19,1.23A3.11,3.11,0,0,1,217.61,88Zm.15-.87a1.06,1.06,0,0,0,.71-.25,1.72,1.72,0,0,0,.46-.76,3.51,3.51,0,0,0,.17-1.14,4.22,4.22,0,0,0-.45-2.08,1.32,1.32,0,0,0-1.19-.8,1.17,1.17,0,0,0-1,.61,3,3,0,0,0-.38,1.62,4.35,4.35,0,0,0,.22,1.44,2.46,2.46,0,0,0,.61,1A1.26,1.26,0,0,0,217.76,87.08Z" transform="translate(-1.1 -1.47)"/><path class="cls-1" d="M228.7,86.58l1,.22v.6l-2.33.61L227,87.8v-1h0a2.64,2.64,0,0,1-.92.91,2,2,0,0,1-1,.26,2.38,2.38,0,0,1-1.71-.65,2.66,2.66,0,0,1-.67-2V84.08c0-.2,0-.41,0-.64s0-.48,0-.73l-1-.2V81.9l2.48-.64.36.25c0,.3,0,.65-.06,1s0,.8,0,1.22v1.38a1.58,1.58,0,0,0,.37,1.18,1.31,1.31,0,0,0,1,.37,1.5,1.5,0,0,0,.68-.18,1.61,1.61,0,0,0,.6-.59v-1.6c0-.2,0-.4,0-.59a4.63,4.63,0,0,0,0-.54c0-.18,0-.34,0-.49l-1.09-.2V81.9l2.53-.64.34.24c0,.21,0,.43,0,.65s0,.45,0,.7,0,.52,0,.83v1.15c0,.33,0,.66,0,1S228.67,86.37,228.7,86.58Z" transform="translate(-1.1 -1.47)"/><path class="cls-1" d="M230.23,87.83l0-.64.93-.24a1.83,1.83,0,0,0,0-.25q0-.2,0-.51c0-.22,0-.47,0-.76V84.31c0-.31,0-.6,0-.86a5.48,5.48,0,0,0-.11-.74l-.95-.2V81.9l2.39-.64.33.24-.06,1.19h0a3,3,0,0,1,.87-1.13,1.61,1.61,0,0,1,.89-.3,1.09,1.09,0,0,1,.67.21.76.76,0,0,1,.27.64.81.81,0,0,1-.3.67,1.07,1.07,0,0,1-.71.24,1.38,1.38,0,0,1-.59-.12,2.06,2.06,0,0,1-.57-.4l.36,0a2.77,2.77,0,0,0-.46.45,3,3,0,0,0-.4.65v1.23c0,.33,0,.64,0,.92s0,.52,0,.73,0,.34,0,.42l1.29.21,0,.67Z" transform="translate(-1.1 -1.47)"/><path class="cls-1" d="M241.88,87.89l-2.55-5.67-.7-.23,0-.64H242l0,.64-.73.23L243,86.15h-.46l1.82-4,.5.95-2.35,4.76Zm4.58,0L244,82.22l-.72-.23,0-.64h3.31l0,.64-.77.23,1.59,3.93h-.4l1.66-3.93L248,82l0-.64h2.47l0,.64-.7.23-2.73,5.67Z" transform="translate(-1.1 -1.47)"/><path class="cls-1" d="M254.06,88a3.28,3.28,0,0,1-1.66-.42,3,3,0,0,1-1.15-1.15,3.34,3.34,0,0,1-.42-1.69,3.49,3.49,0,0,1,.46-1.82,3.37,3.37,0,0,1,1.21-1.22,3,3,0,0,1,1.59-.42,2.46,2.46,0,0,1,2,.82,3.12,3.12,0,0,1,.67,2.09v.33h-4.4v-.74h3.11l-.21.31v-.45a1.89,1.89,0,0,0-.33-1.17A1.12,1.12,0,0,0,254,82a1.25,1.25,0,0,0-.72.22,1.57,1.57,0,0,0-.52.67,2.8,2.8,0,0,0-.19,1.11v.27a2.56,2.56,0,0,0,.57,1.75,1.92,1.92,0,0,0,1.53.66,2.09,2.09,0,0,0,.91-.19,2.53,2.53,0,0,0,.81-.64l.43.38a3,3,0,0,1-1.14,1.3A3.11,3.11,0,0,1,254.06,88Z" transform="translate(-1.1 -1.47)"/><path class="cls-1" d="M262.87,88l-.34-.21v-1l0,0a2.52,2.52,0,0,1-.87.88,2,2,0,0,1-1,.25,2.8,2.8,0,0,1-1.47-.4,2.9,2.9,0,0,1-1.06-1.11,3.24,3.24,0,0,1-.4-1.64,3.57,3.57,0,0,1,.3-1.49,3.43,3.43,0,0,1,.81-1.13,3.73,3.73,0,0,1,1.14-.7,3.45,3.45,0,0,1,1.26-.25,3.91,3.91,0,0,1,.67.07,1.53,1.53,0,0,1,.56.2v-.65c0-.25,0-.5,0-.76s0-.49,0-.7,0-.36,0-.46l-1.13-.18,0-.59,2.61-.69.36.24c0,.61-.06,1.19-.08,1.73s0,1.11,0,1.7v3.44c0,.5,0,.92,0,1.25s.06.57.08.74l1,.22v.6Zm-1.6-1.33a1.39,1.39,0,0,0,.62-.16,1.73,1.73,0,0,0,.61-.55V82.71a1.42,1.42,0,0,0-.57-.5,1.51,1.51,0,0,0-.65-.15,1.54,1.54,0,0,0-1.26.61,3.17,3.17,0,0,0,0,3.4A1.51,1.51,0,0,0,261.27,86.68Z" transform="translate(-1.1 -1.47)"/><path class="cls-1" d="M271.08,88l-.35-.21,0-1-.05,0a2.36,2.36,0,0,1-.87.88,2,2,0,0,1-.95.25,2.81,2.81,0,0,1-1.48-.4,3,3,0,0,1-1.06-1.11,3.34,3.34,0,0,1-.39-1.64,3.74,3.74,0,0,1,.29-1.49,3.32,3.32,0,0,1,.82-1.13,3.81,3.81,0,0,1,1.13-.7,3.54,3.54,0,0,1,1.27-.25,3.8,3.8,0,0,1,.66.07,1.66,1.66,0,0,1,.57.2c0-.18,0-.39,0-.65s0-.5,0-.76,0-.49,0-.7,0-.36,0-.46l-1.13-.18,0-.59,2.62-.69.35.24c0,.61-.05,1.19-.07,1.73s0,1.11,0,1.7l0,3.44c0,.5,0,.92.05,1.25s.05.57.07.74l1,.22v.6Zm-1.61-1.33a1.4,1.4,0,0,0,.63-.16,1.7,1.7,0,0,0,.6-.55V82.71a1.33,1.33,0,0,0-.56-.5,1.57,1.57,0,0,0-.65-.15,1.52,1.52,0,0,0-1.26.61,3.19,3.19,0,0,0,0,3.4A1.52,1.52,0,0,0,269.47,86.68Z" transform="translate(-1.1 -1.47)"/><path class="cls-1" d="M273.89,87.83l-.05-.66,1-.22a1.83,1.83,0,0,0,0-.25q0-.2,0-.51c0-.22,0-.47,0-.76l0-1.12c0-.31,0-.6,0-.86a5.48,5.48,0,0,0-.11-.74l-1-.2V81.9l2.54-.64.34.25c0,.31-.05.62-.07.93s0,.67,0,1.08v1.87c0,.37,0,.7,0,1a2.74,2.74,0,0,0,.07.56l1,.22-.05.66Zm1.88-8a1.13,1.13,0,0,1-.83-.32,1.1,1.1,0,0,1,0-1.53,1.09,1.09,0,0,1,.83-.32,1,1,0,0,1,.82.32,1.13,1.13,0,0,1,0,1.53A1.08,1.08,0,0,1,275.77,79.88Z" transform="translate(-1.1 -1.47)"/><path class="cls-1" d="M278.2,87.83l-.05-.64.92-.24a1.85,1.85,0,0,0,0-.24q0-.19,0-.51c0-.21,0-.47,0-.77V84.31q0-.48,0-.87a5.58,5.58,0,0,0-.1-.73l-.95-.2V81.9l2.42-.64.36.25-.09.83,0,0a3.45,3.45,0,0,1,1-.85,2.44,2.44,0,0,1,1.15-.28,2.1,2.1,0,0,1,1.11.3,2.17,2.17,0,0,1,.79.9,3.22,3.22,0,0,1,.3,1.46v1.54c0,.34,0,.66,0,.95a2.51,2.51,0,0,0,.06.57l.92.24-.05.64h-3.49l0-.64.86-.24a2.11,2.11,0,0,0,0-.34c0-.15,0-.32,0-.52v-2a2.13,2.13,0,0,0-.18-.94,1.36,1.36,0,0,0-.49-.54,1.31,1.31,0,0,0-.65-.17,1.54,1.54,0,0,0-.77.19,1.79,1.79,0,0,0-.63.54v2.2c0,.38,0,.71,0,1a2.62,2.62,0,0,0,.07.56l.92.24,0,.64Z" transform="translate(-1.1 -1.47)"/><path class="cls-1" d="M289.91,91.22a5.28,5.28,0,0,1-2.36-.44,1.32,1.32,0,0,1-.85-1.18,1.24,1.24,0,0,1,.47-.93,4.16,4.16,0,0,1,1.39-.75l.62.09a2,2,0,0,0-.63.61,1.28,1.28,0,0,0-.23.72,1,1,0,0,0,.44.82,2.27,2.27,0,0,0,1.27.3,2.58,2.58,0,0,0,1.42-.37,1.1,1.1,0,0,0,.55-.94.7.7,0,0,0-.3-.62,2.24,2.24,0,0,0-1.05-.27l-1.75-.15-.17-.07a1.88,1.88,0,0,1-1.09-.29.85.85,0,0,1-.41-.74,1.15,1.15,0,0,1,.45-.85,3.49,3.49,0,0,1,1.22-.65l.22.27a1.87,1.87,0,0,0-.32.26.45.45,0,0,0-.11.27.35.35,0,0,0,.13.29.69.69,0,0,0,.39.14l2.14.21a2.91,2.91,0,0,1,1.64.57,1.49,1.49,0,0,1,.55,1.23,1.89,1.89,0,0,1-.48,1.25,3.23,3.23,0,0,1-1.29.89A5,5,0,0,1,289.91,91.22ZM290,86a3.62,3.62,0,0,1-1.52-.29,2.55,2.55,0,0,1-1-.83,2.08,2.08,0,0,1-.36-1.21,2.23,2.23,0,0,1,.39-1.29,2.65,2.65,0,0,1,1-.88,3.34,3.34,0,0,1,1.5-.33,3.1,3.1,0,0,1,1.45.33,2.66,2.66,0,0,1,1,.88,2.22,2.22,0,0,1,.37,1.25,2.17,2.17,0,0,1-.37,1.22,2.51,2.51,0,0,1-1,.85A3.49,3.49,0,0,1,290,86Zm.1-.77a.93.93,0,0,0,.8-.41,1.91,1.91,0,0,0,.3-1.13,2.27,2.27,0,0,0-.32-1.27A1,1,0,0,0,290,82a.93.93,0,0,0-.81.44,2,2,0,0,0-.32,1.18,2,2,0,0,0,.34,1.2A1,1,0,0,0,290.1,85.27Zm3.61-2.78-1.93-.18-.55-.65,2.48-.28Z" transform="translate(-1.1 -1.47)"/><path class="cls-1" d="M302.51,88l-.34-.21,0-1-.05,0a2.52,2.52,0,0,1-.87.88,2,2,0,0,1-1,.25,2.8,2.8,0,0,1-1.47-.4,3,3,0,0,1-1.06-1.11,3.34,3.34,0,0,1-.39-1.64,3.57,3.57,0,0,1,.29-1.49,3.43,3.43,0,0,1,.81-1.13,3.73,3.73,0,0,1,1.14-.7,3.53,3.53,0,0,1,1.26-.25,3.91,3.91,0,0,1,.67.07,1.66,1.66,0,0,1,.57.2c0-.18,0-.39,0-.65s0-.5,0-.76,0-.49,0-.7,0-.36,0-.46l-1.13-.18,0-.59,2.61-.69.36.24c0,.61-.05,1.19-.07,1.73s0,1.11,0,1.7l0,3.44c0,.5,0,.92.05,1.25s.05.57.07.74l1,.22v.6Zm-1.6-1.33a1.36,1.36,0,0,0,.62-.16,1.73,1.73,0,0,0,.61-.55V82.71a1.46,1.46,0,0,0-.56-.5,1.58,1.58,0,0,0-.66-.15,1.51,1.51,0,0,0-1.25.61,3.14,3.14,0,0,0,0,3.4A1.52,1.52,0,0,0,300.91,86.68Z" transform="translate(-1.1 -1.47)"/><path class="cls-1" d="M307.85,88a2.3,2.3,0,0,1-1.15-.28A2.15,2.15,0,0,1,306,87a1.43,1.43,0,0,1-.25-.77,1.21,1.21,0,0,1,.33-.87,2.35,2.35,0,0,1,1-.57l2.32-.72v-.61a1,1,0,0,0-.21-.61,1.67,1.67,0,0,0-.55-.46,1.6,1.6,0,0,0-.75-.18.52.52,0,0,0-.39.13,1,1,0,0,0-.14.5l-.06.8a1.77,1.77,0,0,1-1.11,0,.63.63,0,0,1-.44-.61.82.82,0,0,1,.27-.55,3.51,3.51,0,0,1,.68-.54,5.65,5.65,0,0,1,.85-.43,3.25,3.25,0,0,1,.82-.22,3.09,3.09,0,0,1,2,.59,2,2,0,0,1,.76,1.59l-.05,2.2c0,.25,0,.46,0,.62a1.55,1.55,0,0,0,.08.39l1,.18v.57l-.88.37a2.45,2.45,0,0,1-.46.15,1.36,1.36,0,0,1-.38.06.76.76,0,0,1-.75-.57l-.22-.65.28.06a4.25,4.25,0,0,1-.93.85A1.7,1.7,0,0,1,307.85,88Zm.64-1.19a1.13,1.13,0,0,0,.48-.11,1.18,1.18,0,0,0,.43-.32V84.84l-1.24.27a.87.87,0,0,0-.51.25.73.73,0,0,0-.16.48.9.9,0,0,0,.29.64A1,1,0,0,0,308.49,86.76Z" transform="translate(-1.1 -1.47)"/><path class="cls-1" d="M315.52,87.89l-2.69-5.67-.7-.23.05-.64h3.47l.05.64-.92.23,1.78,3.93Zm4-6.54,0,.64-.7.23-2.57,5.18-1.17,2.46a2.83,2.83,0,0,1-.77,1.07,1.44,1.44,0,0,1-.87.29,1.12,1.12,0,0,1-.73-.23.66.66,0,0,1-.28-.55.78.78,0,0,1,.24-.54,1.64,1.64,0,0,1,.71-.38l1.62-.46-.89.7,1.76-3.28.17-.33,1.71-3.93L316.9,82l.05-.64Z" transform="translate(-1.1 -1.47)"/><path class="cls-1" d="M321.58,88a1.26,1.26,0,0,1-.61-.16,1.14,1.14,0,0,1-.44-.43,1.17,1.17,0,0,1-.16-.62,1.13,1.13,0,0,1,.16-.61,1.24,1.24,0,0,1,1.05-.61,1.22,1.22,0,0,1,.64.17,1.19,1.19,0,0,1,.45.44,1.13,1.13,0,0,1,.16.61,1.19,1.19,0,0,1-.35.86A1.25,1.25,0,0,1,321.58,88Zm-.37-3.29-.74-5.42a2.49,2.49,0,0,1,0-1,1.23,1.23,0,0,1,.4-.63,1,1,0,0,1,.67-.23,1.09,1.09,0,0,1,.7.23,1.22,1.22,0,0,1,.39.63,2.31,2.31,0,0,1,0,1L322,84.69Z" transform="translate(-1.1 -1.47)"/></g></g></svg>