<svg xmlns="http://www.w3.org/2000/svg" viewBox="0 0 199.95 14.73"><defs><style>.cls-1{fill:#f2f3eb;}</style></defs><g id="Layer_2" data-name="Layer 2"><g id="Layer_1-2" data-name="Layer 1"><path class="cls-1" d="M.74,15.18V14.1H11.42v1.08Zm.44-4.71V9.39H11.85v1.08Zm.93,8.86,3-14.09H6.17L3.22,19.33Zm4.32,0,3-14.09h1.11l-3,14.09Z" transform="translate(-0.74 -4.81)"/><path class="cls-1" d="M24.24,8.46,19.89,19.4h-1L14,6.39l-1.2-.31.05-.84h4.29l.05.84L16,6.37l4,10.8H19.7L23.64,6.59ZM27.52,19.4l-4.8-13-1.2-.31.05-.84H26l.07.84-1.44.29,3.88,10.8h-.33L32.08,6.39l-1.7-.31.07-.84h4.3l0,.84-1.2.31-5.11,13Z" transform="translate(-0.74 -4.81)"/><path class="cls-1" d="M46.41,19.45a10.7,10.7,0,0,0-1.13-.11H36.23l0-.84,1.44-.31a2.15,2.15,0,0,0,.06-.53c0-.27,0-.66,0-1.15s0-1.1,0-1.8V9.9c0-.72,0-1.33,0-1.84s0-.89,0-1.16a1.88,1.88,0,0,0-.06-.51l-1.44-.31,0-.84h8.38c.19,0,.4,0,.63,0l.86-.07.43,3.07-1,.14-.77-2a1.59,1.59,0,0,0-.38-.06H40.11l-.66.06c0,.07,0,.25,0,.54s0,.64,0,1,0,.75,0,1.08v6.89c0,.27,0,.56,0,.86s0,.58,0,.83,0,.41,0,.49l.65,0q.33,0,.72,0h2.61l.85,0c.24,0,.42,0,.56,0l.3-.05,1.24-2.23,1,.19Zm-2.55-5.07-.31-1.65a1.35,1.35,0,0,0-.38-.07,5.92,5.92,0,0,0-.65,0h-2l-.66,0-.8.05V11.48l.8,0h2.63l.65,0,.38,0,.31-1.68h.94v4.6Z" transform="translate(-0.74 -4.81)"/><path class="cls-1" d="M49.43,5.24H55a8.8,8.8,0,0,1,5.88,1.81A6.36,6.36,0,0,1,63,12.13a7,7,0,0,1-1,3.74,6.8,6.8,0,0,1-2.71,2.55,8.49,8.49,0,0,1-4,.91H49.43l0-.84,1.44-.31c0-.16.06-.58.09-1.24s0-1.41,0-2.24V9.9q0-1.39,0-2.37a9.43,9.43,0,0,0-.09-1.14l-1.44-.31Zm3.26,1.23c0,.16,0,.35,0,.58s0,.57,0,1,0,1,0,1.84v4.8c0,.49,0,1,0,1.36s0,.79,0,1.11,0,.59.05.81l1.47.16c.41,0,.83.06,1.24.06a5.51,5.51,0,0,0,4.08-1.4,5.39,5.39,0,0,0,1.39-4,9,9,0,0,0-.38-2.75A5.64,5.64,0,0,0,59.39,8a4.94,4.94,0,0,0-1.93-1.29,7.58,7.58,0,0,0-2.73-.45c-.32,0-.64,0-1,0A7,7,0,0,0,52.69,6.47Z" transform="translate(-0.74 -4.81)"/><path class="cls-1" d="M65.65,5.24h5.57A8.8,8.8,0,0,1,77.1,7.05a6.36,6.36,0,0,1,2.11,5.08,7,7,0,0,1-1,3.74,6.73,6.73,0,0,1-2.71,2.55,8.49,8.49,0,0,1-4,.91H65.65l-.05-.84L67,18.18a10.16,10.16,0,0,0,.09-1.24c0-.66,0-1.41,0-2.24V9.9q0-1.39,0-2.37A7.59,7.59,0,0,0,67,6.39L65.6,6.08Zm3.27,1.23c0,.16,0,.35,0,.58s0,.57,0,1,0,1,0,1.84v4.8c0,.49,0,1,0,1.36s0,.79,0,1.11,0,.59,0,.81l1.47.16c.41,0,.83.06,1.24.06a5.5,5.5,0,0,0,4.08-1.4,5.4,5.4,0,0,0,1.4-4,9,9,0,0,0-.39-2.75A5.64,5.64,0,0,0,75.61,8a4.94,4.94,0,0,0-1.93-1.29A7.58,7.58,0,0,0,71,6.27c-.32,0-.64,0-1,0A6.69,6.69,0,0,0,68.92,6.47Z" transform="translate(-0.74 -4.81)"/><path class="cls-1" d="M81.87,19.33l-.05-.84,1.44-.31a1.46,1.46,0,0,0,.06-.53q0-.41,0-1.14c0-.49,0-1.09,0-1.81V9.9c0-.74,0-1.35,0-1.85s0-.88,0-1.15a1.3,1.3,0,0,0-.06-.51l-1.44-.31.05-.84H86.6l.05.84-1.47.31c0,.05,0,.2-.06.44s0,.6,0,1.09,0,1.15,0,2v4.8c0,.8,0,1.44,0,1.94s0,.86,0,1.09l.06.45,1.47.31-.05.84Z" transform="translate(-0.74 -4.81)"/><path class="cls-1" d="M99.87,16.21V10.33c0-1,0-1.76,0-2.32s0-1,0-1.2a3.81,3.81,0,0,0,0-.42l-1.61-.31,0-.84h4.41l.08.84-1.47.31s0,.18,0,.42-.05.66-.06,1.22,0,1.32,0,2.3V17.8q0,.78,0,1.62h-1L91.54,7.33h.31v6.91c0,1,0,1.75,0,2.3s0,1,.07,1.2,0,.39,0,.44l1.63.31-.07.84H89.1L89,18.49l1.47-.31c0-.05,0-.19.05-.42s0-.63,0-1.19,0-1.34,0-2.33V9.87c0-.8,0-1.43,0-1.89s0-.82,0-1.06a3.62,3.62,0,0,0-.07-.53L89,6.08l.08-.84h3.14l7.92,11Z" transform="translate(-0.74 -4.81)"/><path class="cls-1" d="M112.9,19.54a9.32,9.32,0,0,1-3.91-.79,6.47,6.47,0,0,1-2.8-2.4,7.21,7.21,0,0,1-1-4,7.59,7.59,0,0,1,.51-2.76,7.06,7.06,0,0,1,4-4A8.83,8.83,0,0,1,113,5a13.32,13.32,0,0,1,2.09.18,8.39,8.39,0,0,1,2,.54l.17,3.07-.94.12-.69-2.11a2.84,2.84,0,0,0-1.25-.52,8.67,8.67,0,0,0-1.54-.16,5.7,5.7,0,0,0-3.19.82,4.58,4.58,0,0,0-1.77,2.15,7.38,7.38,0,0,0-.56,2.87,7.41,7.41,0,0,0,.77,3.52,5.17,5.17,0,0,0,2.07,2.17,5.85,5.85,0,0,0,2.95.74,6.8,6.8,0,0,0,1.69-.24,4.86,4.86,0,0,0,1.64-.77l-.6,1.37V16.26c0-.56,0-1.05,0-1.47s0-.72-.07-.93l-1.61-.24.05-.87h4.29l0,.82-1,.26v1.66c0,.64,0,1.16,0,1.56s0,.79,0,1.17a7.75,7.75,0,0,1-2.21,1A9,9,0,0,1,112.9,19.54Z" transform="translate(-0.74 -4.81)"/><path class="cls-1" d="M120.63,19.33l0-.84,1.46-.31a2.15,2.15,0,0,0,.06-.53q0-.41,0-1.14c0-.49,0-1.09,0-1.81V9.9c0-.74,0-1.35,0-1.85s0-.88,0-1.15a1.88,1.88,0,0,0-.06-.51l-1.46-.31,0-.84h4.75l0,.84L124,6.39a2.31,2.31,0,0,0-.06.44c0,.24,0,.6-.05,1.09s0,1.15,0,2v4.8c0,.8,0,1.44,0,1.94s0,.86.05,1.09a3,3,0,0,0,.06.45l1.46.31,0,.84Zm3-6.6v-1.3c.3,0,.78,0,1.43.05s1.43,0,2.36,0,1.67,0,2.31,0,1.09,0,1.36-.05v1.3c-.37,0-.84-.06-1.43-.07s-1.33,0-2.24,0-1.74,0-2.34,0S124,12.7,123.6,12.73Zm5.71,6.6-.05-.84,1.47-.31a1.88,1.88,0,0,0,.07-.45c0-.23,0-.59,0-1.09s0-1.14,0-1.94V9.9c0-.83,0-1.49,0-2s0-.85,0-1.09a1.51,1.51,0,0,0-.07-.44l-1.47-.31.05-.84h4.8l0,.84-1.47.31a1.28,1.28,0,0,0-.08.42c0,.24,0,.6-.05,1.08s0,1.16,0,2v4.8c0,.81,0,1.47,0,1.95s0,.85.05,1.08a1.73,1.73,0,0,0,.08.45l1.47.31,0,.84Z" transform="translate(-0.74 -4.81)"/><path class="cls-1" d="M135.43,19.33l-.05-.84,1.18-.31,4.94-12.6,1.22-.77,5.14,13.37,1.2.31-.07.84h-4.42l0-.84,1.47-.31-1.44-3.7-.27-.72L141.6,7l.5-.46-2.64,7.23-.26.71-1.32,3.68,1.46.31-.05.84Zm3.24-4.54V13.62l1.3.05,2,0,2.06,0,1.28-.05v1.17l-1.79,0h-3Z" transform="translate(-0.74 -4.81)"/><path class="cls-1" d="M154.36,19.54a9.28,9.28,0,0,1-2.12-.25,6.7,6.7,0,0,1-1.76-.63l-.12-3,.88-.1.63,2a5,5,0,0,0,1.32.6,5.21,5.21,0,0,0,1.56.22,3,3,0,0,0,1.95-.6,2,2,0,0,0,.76-1.66,2,2,0,0,0-.51-1.42,4.67,4.67,0,0,0-1.3-1c-.54-.29-1.11-.57-1.71-.85a13.24,13.24,0,0,1-1.7-.94,4.33,4.33,0,0,1-1.32-1.27,3.24,3.24,0,0,1-.52-1.86,3.31,3.31,0,0,1,.64-2,4.1,4.1,0,0,1,1.74-1.35A6.06,6.06,0,0,1,155.3,5a11.53,11.53,0,0,1,1.21.06,8.06,8.06,0,0,1,1.06.18,5.54,5.54,0,0,1,.87.29l.17,2.86-.89.09-.65-1.92a3.62,3.62,0,0,0-2-.5,3.15,3.15,0,0,0-2,.62,2,2,0,0,0-.77,1.61,2.23,2.23,0,0,0,.51,1.49,4.79,4.79,0,0,0,1.32,1q.81.45,1.71.87a15.38,15.38,0,0,1,1.7.93,4.76,4.76,0,0,1,1.32,1.24,3,3,0,0,1,.52,1.77,3.42,3.42,0,0,1-.64,2A4.29,4.29,0,0,1,156.92,19,6.13,6.13,0,0,1,154.36,19.54Z" transform="translate(-0.74 -4.81)"/><path class="cls-1" d="M172.26,5.15l.53,3.79-.94.12-1-2.69a2,2,0,0,0-.4-.06h-2l-.84,0c0,.13,0,.43,0,.89s0,1,0,1.61v5.23c0,1,0,2,0,2.71s0,1.22,0,1.42l2,.26,0,.89h-5.74l-.05-.89,2-.26c0-.2,0-.67,0-1.42s0-1.66,0-2.71V7.21c0-.46,0-.76,0-.89l-.81,0H163a2,2,0,0,0-.38.06l-1,2.71-.94-.14.53-3.79.54,0,.49,0h9.05l.49,0Z" transform="translate(-0.74 -4.81)"/><path class="cls-1" d="M172.5,19.33l0-.84,1.17-.31,4.94-12.6,1.23-.77,5.13,13.37,1.2.31-.07.84h-4.41l-.05-.84,1.46-.31-1.44-3.7-.26-.72L178.67,7l.5-.46-2.64,7.23-.26.71L175,18.18l1.46.31,0,.84Zm3.24-4.54V13.62l1.3.05,2,0,2,0,1.28-.05v1.17l-1.78,0h-3Z" transform="translate(-0.74 -4.81)"/><path class="cls-1" d="M195.11,19.54a9.32,9.32,0,0,1-3.91-.79,6.47,6.47,0,0,1-2.8-2.4,7.21,7.21,0,0,1-1-4,7.59,7.59,0,0,1,.51-2.76,7,7,0,0,1,4-4A8.83,8.83,0,0,1,195.2,5a13.32,13.32,0,0,1,2.09.18,8.39,8.39,0,0,1,2,.54l.17,3.07-.94.12-.7-2.11a2.75,2.75,0,0,0-1.24-.52A8.67,8.67,0,0,0,195,6.15a5.7,5.7,0,0,0-3.19.82A4.66,4.66,0,0,0,190,9.12a7.56,7.56,0,0,0-.55,2.87,7.41,7.41,0,0,0,.77,3.52,5.21,5.21,0,0,0,2.06,2.17,5.91,5.91,0,0,0,3,.74,6.8,6.8,0,0,0,1.69-.24,4.86,4.86,0,0,0,1.64-.77l-.6,1.37V16.26c0-.56,0-1.05,0-1.47s0-.72-.07-.93l-1.61-.24.05-.87h4.29l0,.82-1,.26v1.66c0,.64,0,1.16,0,1.56s0,.79.05,1.17a7.88,7.88,0,0,1-2.21,1A9,9,0,0,1,195.11,19.54Z" transform="translate(-0.74 -4.81)"/></g></g></svg>