<svg xmlns="http://www.w3.org/2000/svg" viewBox="0 0 115.6 106.08"><defs><style>.cls-1{opacity:0.48;}.cls-2{fill:#b69991;}</style></defs><g id="Layer_2" data-name="Layer 2"><g id="Layer_1-2" data-name="Layer 1"><g class="cls-1"><path class="cls-2" d="M115.41,73.18c-.07-1.83-.17-3.66-.29-5.48q-.47-6.8-1-13.57a28.38,28.38,0,0,0-.41-3.68c0-.19-.17-.58-.34-.28-.31.53-.47.08-.62,0-1.8-1.23-3.59-2.49-5.39-3.73-3-2.08-6-4.17-9.16-6.05a.74.74,0,0,1-.36-.56,5.58,5.58,0,0,0-.85-2.1c-.25-.35-.54-.75-1-.76a3.23,3.23,0,0,1-1.64-.6,14.35,14.35,0,0,0-4.31-1.41,5.77,5.77,0,0,0-1.49-.12,2.61,2.61,0,0,0-2.39,2.11,18.32,18.32,0,0,1-.66,2c-.24.51-.66.39-1,.4s-.39-.35-.45-.61a20.18,20.18,0,0,1-.26-3.11c-.17-2.24-1.29-3.62-3.32-3.94a6.82,6.82,0,0,0-1.28-.06c-.31,0-.43-.08-.39-.4.07-.78.09-1.57.18-2.35a75.2,75.2,0,0,0,.33-8.75,2.4,2.4,0,0,0-1.51-2.41c-3.47-1.62-7-3.12-10.49-4.62-.42-.18-.54-.27-.22-.72a5.34,5.34,0,0,0,.36-5.85c-.36-.73-.82-1.35-1.78-1.28A.93.93,0,0,1,65.15,5a14,14,0,0,0-4.94-1.75c-2.28-.42-3.31.23-4,2.46a10.41,10.41,0,0,1-.51,1.55c-.23.5-.63.43-1,.42s-.4-.34-.46-.61A23.32,23.32,0,0,1,54,4C53.82,1.93,52.82.56,51.05.17A8.35,8.35,0,0,0,48.5,0c-1.63.12-3.22.54-4.87.53a2.84,2.84,0,0,0-2.52,2A5.07,5.07,0,0,0,41,4.49c0,.15.12.35-.1.44s-.25-.1-.37-.18a12.83,12.83,0,0,0-2.85-1.59A2.52,2.52,0,0,0,34,5.63a8.27,8.27,0,0,0,1.33,4.58,15.66,15.66,0,0,0,1.64,2.17c-3.47.18-6.82.42-10.17.72a40.21,40.21,0,0,0-4.25.41c-.34.07-.8.25-.68.56a4,4,0,0,1,0,1.68c0,2.45.14,4.89.24,7.34q.33,7.52.57,15c.19,5.46.33,10.93.5,16.39.06,2,.11,3.9.19,5.84.05,1,.08,1-.89.91-2.42-.23-3.78,1-3.92,3.4,0,.64-.06,1.28-.15,1.92,0,.27,0,.65-.43.71s-.58-.23-.69-.56-.26-.81-.4-1.21C16.34,64,15.59,63.64,14,63.8,12.17,64,10.65,65,9,65.46a1,1,0,0,0-.47.42,4.22,4.22,0,0,0,0,5.21c.22.29.31.42-.07.64-2.45,1.41-4.71,3.12-7.08,4.66-.68.44-1.3.84-.85,1.79a1.05,1.05,0,0,1,0,.5C.32,81.62.12,84.56.05,87.51q-.18,7.41.28,14.82a4.14,4.14,0,0,0,.27,1.39.83.83,0,0,0,1.38.35.82.82,0,0,1,.71-.21l1.06.09c3.23.17,6.47.17,9.7.19l18.18.09a5,5,0,0,0,3.51-.81,70.9,70.9,0,0,0,7.07-7.73c.13-.16.3-.32.26-.56-.15-.88.15-1.75.06-2.62,0-.32,0-.51.42-.4a8,8,0,0,0,2.34.17,1.18,1.18,0,0,1,.93.41c1.25,1.33,2.5,2.64,3.77,3.94,1.91,1.93,3.83,3.84,5.76,5.75a28.88,28.88,0,0,1,2.12,2c.61.77,1.91.4,2.27,1.49,0,.07.25.1.39.11a9.61,9.61,0,0,0,1.78.08L75,105.39l8.61-.45q9.42-.56,18.85-1.13c2.11-.13,4.21-.39,6.32-.49a41.15,41.15,0,0,1,5.32-.29c.55,0,1.22-.43,1.24-.84.05-1.14.1-2.27.12-3.41,0-1.71,0-3.43,0-5.14C115.65,86.82,115.66,80,115.41,73.18ZM96.36,38a4.58,4.58,0,0,1,.76,3.17,6.15,6.15,0,0,1-1.38,3.07h0l.15.44h0c.37.25.57,0,.77-.26A5.12,5.12,0,0,0,97.94,41l7.61,5.76a60.81,60.81,0,0,0-11.37.7,3.65,3.65,0,0,0,1.45-2h0l0-1.28,0-.05a2.14,2.14,0,0,1-.66-2.44.66.66,0,0,0,0-.55c-.88-1.4.58-2.28.8-3.43C95.72,37.28,96.2,37.72,96.36,38Zm-8.75,6.12L89.2,44c1.31-.06,2.61-.16,3.91-.18.66,0,1.38,0,1.64.84a1.81,1.81,0,0,1-.89,2.07,5.39,5.39,0,0,1-1.92.69,18.47,18.47,0,0,1-4.45.31C88.48,46.5,88.68,45.34,87.61,44.07Zm-.49-7.43a1.67,1.67,0,0,1,1.52-1,7.46,7.46,0,0,1,2.64.47,33.22,33.22,0,0,1,3.2,1.19c.38.16.5.33.33.75-.25.63-.43,1.29-.66,2a4.44,4.44,0,0,0-2.88-.82,41.85,41.85,0,0,0-4.34.1c-.29,0-.57,0-1,0A13.19,13.19,0,0,0,87.12,36.64Zm-1.74,3.5c.24-.19.48-.1.7-.09l5.9.26a2.16,2.16,0,0,1,1.4.45,1.24,1.24,0,0,1,.38,1.41c-.15.54-.52.7-1.06.73-2.32.16-4.63.37-7,.55l-.83,0C85.61,42.37,86.28,41.34,85.38,40.14ZM87,46.44a2.53,2.53,0,0,1-2.32,1.15c-2,.07-4,0-6,0a31.74,31.74,0,0,0,5.07-2.56,3.09,3.09,0,0,1,2.51-.45A1.16,1.16,0,0,1,87,46.44Zm-2.18-4.59a5,5,0,0,1-1.72,2.65,19.5,19.5,0,0,1-6.33,3.25c1.85-2.16,3.64-4.26,5.46-6.34a2.54,2.54,0,0,1,1.28-.87C84.48,40.3,85.11,40.92,84.85,41.85ZM69.48,45.57c-2.35-2.12-4.47-4.34-4.75-7.71a3.92,3.92,0,0,1,.1-1.19,1.37,1.37,0,0,1,1.83-1.09,10.08,10.08,0,0,1,4.75,3.16C68.5,40.44,68.57,42.87,69.48,45.57ZM29.68,68a3.19,3.19,0,0,0-1.27-1.14,8.29,8.29,0,0,1,3.27-2.28,1.07,1.07,0,0,1,1.59,1,6.17,6.17,0,0,1-1.55,4.32c-.37.49-.82.93-1.23,1.39-.1.11-.23.22-.37.14s0-.25,0-.36A4,4,0,0,0,29.68,68Zm-4.1-2.72c0-.52,0-1,0-1.57a1,1,0,0,1,.75-1,1.11,1.11,0,0,1,1.17.5,2,2,0,0,1,.24,1.9,14.38,14.38,0,0,1-1,2.34,2.45,2.45,0,0,0-.28,1.09,6.57,6.57,0,0,1-1.69,4.27c-.21.26-.35.29-.53,0a.76.76,0,0,0-.08-.11c-.3-.37-.77-.7-.85-1.11s.52-.66.79-1A7.91,7.91,0,0,0,25.58,65.25ZM42.22,16.1a7,7,0,0,0,1.45.58h0a.61.61,0,0,1,.63.24h-.63c-3.57.37-7.15.55-10.7,1a3,3,0,0,0-2.86,3.29c.07,3.06.24,6.12.37,9.18.06,1.52.15,3,.19,4.56.12,4.54.2,9.08.34,13.61.15,4.73.35,9.45.55,14.18,0,.55-.06.89-.67,1.1a13.49,13.49,0,0,0-1.8,1c-.16-.11-.1-.27-.1-.4,0-4.61-.22-9.22-.46-13.82q-.45-8.17-.73-16.37c-.13-3.85-.31-7.69-.68-11.52-.09-.95-.22-1.89-.25-2.84a2.28,2.28,0,0,1,2-2.64c1.88-.45,3.82-.4,5.72-.71,1.71-.28,3.44-.44,5.12-.82A3.26,3.26,0,0,1,42.22,16.1Zm-2.12-5a3.4,3.4,0,0,1,1-2.55,1.14,1.14,0,0,1,1.18-.32c.43.14.49.54.53.92a9.18,9.18,0,0,0,1.54,4.59A4.54,4.54,0,0,0,46,15.26c.14.08.33.15.27.37a.41.41,0,0,1-.41.32C43.32,16,40.06,14.52,40.1,11.12ZM25.54,74.7a.92.92,0,0,1,.86-.23c2.11.61,4.32.52,6.55.86a3,3,0,0,1-2.13.89c-2.08-.09-4.17-.16-6.25-.21-.15,0-.32.07-.51-.11A8.54,8.54,0,0,0,25.54,74.7Zm-.89-1.26a6.08,6.08,0,0,0,2.65-4.8c0-.34.06-.71.44-.82a.87.87,0,0,1,.92.42,2.94,2.94,0,0,1,.3,3.21A3.94,3.94,0,0,1,24.65,73.44Zm7.26-1.89c2.23,0,4.46-.15,6.69-.23h.68c-.76.51-1.29,1.22-2.46.92a16,16,0,0,0-5.53,0l-.88.09A1.88,1.88,0,0,1,31.91,71.55Zm3.75-11.88c0,3.21-.17,6.41-.22,9.62,0,.5-.2.58-.64.55-1.3-.1-1.5-.43-1-1.67.56-1.5.87-3-.36-4.34a.87.87,0,0,1-.11-.55q-.23-5.88-.46-11.75C32.54,44.74,32.26,38,32,31.17c-.14-3-.35-6-.51-9a2.9,2.9,0,0,1,.15-1.56c1.2.62,2.27,1.42,3.49,2,.26.11.16.36.16.56,0,3.16.06,6.32.15,9.48C35.65,41.61,35.79,50.64,35.66,59.67ZM35.2,21c-.69-.46-1.41-.87-2.12-1.29,3.1-.5,6.13-1,9.17-1.49,1.06-.17,2.11-.36,3.16-.54a1.08,1.08,0,0,1,.56,0c1.72.69,3.58,1,5.2,1.91a1,1,0,0,1,.17.2c-1.77.16-3.49.29-5.2.45l-9.92,1A1.47,1.47,0,0,1,35.2,21ZM50.43,17.9a15.88,15.88,0,0,0-2.71-.55h0a1.13,1.13,0,0,1-.86-.24H54.4c1.13-.05,2.26-.11,3.4-.11a9.77,9.77,0,0,1,5.25,1.9,4,4,0,0,1,1.87,3.58c0,4.06-.07,8.12-.12,12.18a.65.65,0,0,1-.1.4A4,4,0,0,0,64,39c.11.5.05.65-.48.68-2.68.12-5.36.27-8,.43-.47,0-.35-.28-.35-.51,0-1.35-.08-2.71-.13-4.06-.15-4.13-.29-8.26-.45-12.39A5.28,5.28,0,0,0,50.43,17.9ZM48.5,16.24A.7.7,0,0,1,49,16a37.16,37.16,0,0,0,5.08-2.56,3,3,0,0,1,2.3-.47A1.24,1.24,0,0,1,57,15.11a3.18,3.18,0,0,1-2.4.88c-1.54.06-3.08.08-4.63.12h0A4,4,0,0,1,48.5,16.24Zm9.28-3.84c1.95-.07,3.79-.15,5.63-.2.66,0,1.31.09,1.54.87A1.83,1.83,0,0,1,64.18,15a6.6,6.6,0,0,1-3,.93,15.13,15.13,0,0,1-3.53.14A2.55,2.55,0,0,0,57.78,12.4Zm6.43,29.07a1,1,0,0,1,1,.53,11.31,11.31,0,0,0,2.47,2.83c.21.18.42.36.76.67-2.8.06-5.41-.15-8-.23a64.65,64.65,0,0,0-9.54.19,1,1,0,0,1-.68-.12l-4.49-2.9c-.05,0-.07-.1-.14-.21,1.8-.09,3.54-.23,5.29-.26C55.33,41.89,59.77,41.62,64.21,41.47Zm6-.29A2.6,2.6,0,0,1,71.18,40c.71-.49,1.34-.2,1.48.67.1.58.13,1.18.28,1.75a6.93,6.93,0,0,0,2.9,4.47c.11.07.36.08.24.34a.52.52,0,0,1-.65.31,7.06,7.06,0,0,1-3.36-1A4.34,4.34,0,0,1,70.25,41.18Zm5.14,4.64a8.24,8.24,0,0,1-1.78-5,5.62,5.62,0,0,0-.91-2.43,6.7,6.7,0,0,1-1-3.17,2.36,2.36,0,0,1,.65-1.54A1.46,1.46,0,0,1,74,33.24a1.33,1.33,0,0,1,.91,1.32c0,.64,0,1.28,0,1.81A10.36,10.36,0,0,0,77.32,44c.72.82.72.83,0,1.68l-.14.16C76.25,47,76.26,47,75.39,45.82ZM79,32.51c2.81-.12,3.73.67,4,3.46a21.92,21.92,0,0,0,.3,3.33c.07.25-.1.39-.32.47a5.23,5.23,0,0,0-2.16,1.79c-.85,1-1.69,2-2.58,3a15.07,15.07,0,0,1-2.18-5.33A12,12,0,0,1,76,36a4.36,4.36,0,0,0-.86-3.31C76.47,32.67,77.72,32.56,79,32.51ZM77.52,20.23c0,3,.44,6,.73,9,0,.54,0,1.1.08,1.63.12.73-.25.87-.86.91-1.41.09-2.8.42-4.23.46a2.86,2.86,0,0,0-2.45,2.68c0,.47,0,.95,0,1.42h0c.13.14.21.32.08.47s-.19-.06-.24-.17a10.1,10.1,0,0,0-4-2c-.48-.09-.43-.4-.43-.73,0-2.9,0-5.8,0-8.7A19,19,0,0,0,66,20.9c-.1-.39.12-.37.37-.39,1.8-.13,3.6-.28,5.4-.4s3.41-.22,5.12-.32C77.25,19.76,77.51,19.74,77.52,20.23ZM71.37,17c.69-.45,1.24-.1,1.83.2,1.1.55,2.22,1.07,3.33,1.61.2.1.47.12.6.4A111.64,111.64,0,0,0,65.86,19a1.27,1.27,0,0,1-1.12-.44,6,6,0,0,0-1.49-1.11,1.4,1.4,0,0,1,.81-.14l6.48-.19A1.71,1.71,0,0,0,71.37,17Zm-1.1-1.3-6.59.74h0a1,1,0,0,1-.76.1c.12-.19.31-.19.47-.25a3.57,3.57,0,0,0,2.44-2.54c.06-.34.24-.27.45-.16ZM57.32,5a1.85,1.85,0,0,1,2.15-1A22,22,0,0,1,64.8,5.72c.32.14.32.34.22.63-.19.53-.36,1.08-.53,1.62h0c.05.14-.07.37.16.41s.25-.13.3-.26c.23-.54.44-1.09.66-1.65.09-.21.1-.51.4-.52a.69.69,0,0,1,.56.39,4.73,4.73,0,0,1,.61,3.82,5.63,5.63,0,0,1-1,2.09c-.2.27-.35.36-.56,0a2.21,2.21,0,0,0-.53-.57.42.42,0,0,1-.17-.59,2.35,2.35,0,0,0-.67-2.83c-1.52-.85-3.16-.68-4.8-.66-1,0-2.08,0-3.22,0A13.83,13.83,0,0,0,57.32,5Zm2.47,3.57c.74,0,1.47.07,2.21.09a2.52,2.52,0,0,1,1.59.51,1.16,1.16,0,0,1,.35,1.35,1,1,0,0,1-1,.72c-2.21.15-4.4.35-6.6.52l-1.26.08c.76-1.11,1.33-2.18.42-3.46Zm-5,.57c.46.38.33.92.12,1.38a6.07,6.07,0,0,1-2.16,2.75,23.19,23.19,0,0,1-4.84,2.52,1,1,0,0,1-.8.09c1.28-1.48,2.54-3,3.81-4.4a15,15,0,0,1,1.82-2,2.5,2.5,0,0,1,.58-.4A1.31,1.31,0,0,1,54.81,9.15ZM50.5,1a2.61,2.61,0,0,1,2.56,2.43c.28,1.42,0,2.9.44,4.31a.33.33,0,0,1-.23.4c-1.35.47-2.06,1.64-2.93,2.63-.54.63-1.09,1.26-1.62,1.9-.21.27-.32.35-.54,0a13.19,13.19,0,0,1-2-8.36A4.19,4.19,0,0,0,45.28,1C47.1,1.12,48.8.74,50.5,1ZM41.94,3.44a2,2,0,0,1,.92-1.6,1.35,1.35,0,0,1,2.24,1,18.83,18.83,0,0,1,0,2,10.45,10.45,0,0,0,2.14,7.26c.3.38.94.63.87,1.11s-.55.73-.85,1.11c-.81,1-.79,1-1.59,0a8.09,8.09,0,0,1-1.89-5.1A5,5,0,0,0,43,7,6.68,6.68,0,0,1,41.94,3.44ZM35.07,7.3A5.06,5.06,0,0,1,35,5.18,1.39,1.39,0,0,1,36.83,4a10.1,10.1,0,0,1,4.85,3.22,3.61,3.61,0,0,0-2.45,2.93,5.71,5.71,0,0,0,.51,3.72c-.1,0-.15.06-.17.05C37.52,12.06,35.69,10.08,35.07,7.3ZM24.24,14.63c2-.07,4.07-.18,6.11-.22,2.54,0,5.08-.09,7.61-.3a3,3,0,0,1,2.3.9c-1.43.08-2.74.13-4,.22-2.49.16-5,.34-7.43.71-.12,0-.26,0-.35.05-1.06.65-1.93.15-2.8-.41-.46-.29-.95-.52-1.42-.77Zm-1.8.13L26,17c.19.12.27.26.14.47-.89,1.42-.66,3-.49,4.51s.28,3.22.35,4.83c.16,3.47.23,6.94.33,10.41.17,5.84.49,11.67.81,17.51.11,2.16.12,4.32.2,6.48,0,.44-.08.65-.55.48a.54.54,0,0,0-.21,0c-1,0-.94,0-1-1-.33-6.52-.63-13.05-1-19.57-.28-4.86-.6-9.72-1-14.57C23.22,22.59,23,18.73,22.44,14.76ZM19.17,67.28c.21-1.38-.12-2.84.56-4.14a1.9,1.9,0,0,1,1.77-1c1.18,0,2.36,0,3.54,0l.08.19a3.46,3.46,0,0,0-.54,2.73,10.43,10.43,0,0,1-1.29,5.68c-.23.46-.38.52-.71.1s-.92-1.09-1.38-1.63c-.27-.31-.55-.6-.8-.92S19.1,67.69,19.17,67.28Zm-1.11,1.23c.42-.37.85-.17,1.24.09a6.68,6.68,0,0,1,1.27,1.33l3.06,3.56a11.75,11.75,0,0,1-3.79-1.82,4.7,4.7,0,0,1-1.79-2C17.9,69.26,17.68,68.85,18.06,68.51Zm.5,3.3a33.41,33.41,0,0,0,3.14,1.64h0c.18,0,.31.08.57.27a11.38,11.38,0,0,1-2.14-.08l-.16,0c-.68,0-1.37,0-2.06,0a2,2,0,0,1-1.52-.65.91.91,0,0,1-.25-1,.94.94,0,0,1,.86-.54A2.67,2.67,0,0,1,18.56,71.81ZM17.22,68a2.35,2.35,0,0,0,.34,2.48l-6-.46a.61.61,0,0,1-.57-.55.88.88,0,0,1,.27-.91,1.34,1.34,0,0,1,.78-.31C13.77,68.1,15.48,68,17.22,68Zm-1.71,5.77A10.72,10.72,0,0,1,11,73a1.34,1.34,0,0,1-.74-.91c-.18-.67,0-1.07.72-1.19a3.51,3.51,0,0,1,.92,0c1.15,0,2.31.1,3.55.16A2.15,2.15,0,0,0,15.51,73.72Zm-3.92-8.34a14.27,14.27,0,0,1,2.49-.83,1.56,1.56,0,0,1,2.06,1.12c.17.49.35,1,.53,1.48-2,.18-4.09-.42-6,.45C9.94,65.52,9.8,66.11,11.59,65.38ZM8.42,68.27a3.21,3.21,0,0,1,.53-2c.23-.34.46-.4.63.08a5.39,5.39,0,0,0,.61,1.42c.07.11.12.2,0,.32A2.16,2.16,0,0,0,10.06,70c.12.39-.33.61-.55.82s-.36-.21-.47-.38A3.57,3.57,0,0,1,8.42,68.27Zm-.83,5.18L9,72.32c.2-.18.39-.3.5.1s.42.6.68,1a13.29,13.29,0,0,0-2.25.19h0l-.66.27A.49.49,0,0,1,7.59,73.45Zm-1.48,1.2c.46-.32,1.11-.1,1.67-.15a52.63,52.63,0,0,1,5.33,0,3.19,3.19,0,0,1,.46.09,5.37,5.37,0,0,0-2.18,1.57c-.15.19-.38.15-.59.16-2.56.11-5.1.35-7.73.69C4.12,76.16,5.08,75.35,6.11,74.65Zm4.44,27.93q-3.87.09-7.76.26c-.47,0-.59-.1-.63-.56C1.64,97.13,1.4,92,1.08,86.79c-.12-1.84,0-3.7,0-5.55H.92c0-.72,0-1.43,0-2.14a1.33,1.33,0,0,1,1.4-1.4c2.56.09,5.12.24,7.69.18.3,0,.37.09.3.38-1.14,4.25-.39,8.54-.2,12.82.1,2.15.29,4.31.47,6.46.12,1.49.28,3,.45,4.46C11.08,102.42,11,102.57,10.55,102.58Zm9.39-.78c.07.56,0,.75-.61.74-2,0-3.94,0-5.92,0-.49,0-.64-.16-.69-.64-.39-3.77-.86-7.54-1.22-11.32a85.16,85.16,0,0,1-.61-8.74,8.6,8.6,0,0,1,2-5.88,3.42,3.42,0,0,1,2.93-1.41c2.38.15,4.77.25,7.21.21-1.93.73-2.57,2.31-2.84,4.13-.13.94-.21,1.88-.3,2.83-.32,3.26-.51,6.54-.53,9.82A77.8,77.8,0,0,0,19.94,101.8Zm12,.64c-1.66,0-3.33,0-5,0v.09c-1.59,0-3.18,0-4.77,0-.46,0-.65-.08-.71-.59-.22-2.22-.37-4.45-.49-6.68-.19-3.75-.24-7.5-.17-11.25a48.55,48.55,0,0,1,.29-5c.14-1.17.2-1.2,1.34-1.23,2.92-.07,5.84-.13,8.76-.25.67,0,.8.15.73.77a79.81,79.81,0,0,0-.38,10.6,85.79,85.79,0,0,0,.94,12.91C32.61,102.33,32.46,102.45,32,102.44Zm3.32-1.82c-.34.33-.63.7-.95,1.06l-.19-.12c-.3-3-.61-6.07-.89-9.11-.42-4.49-.56-9-.93-13.49-.09-1.14.16-1.77,1.13-2.2l.18-.11c1-.68,1.18-.62,1.3.64.1,1,.12,2,.14,3,.06,3.33.1,6.65.18,10s.17,6.46.27,9.68A.8.8,0,0,1,35.3,100.62ZM37,99a42.94,42.94,0,0,1-.25-5.19c-.12-4.63-.49-9.25-.53-13.89A19.82,19.82,0,0,0,36,77c-.33-1.94-1.2-2.68-3.16-2.83H28c-.31,0-.46,0-.1-.27a1.32,1.32,0,0,0,.37-.21,3.33,3.33,0,0,1,2.84-.76c1.73.15,3.47.1,5.19.37A1.8,1.8,0,0,1,38,75.12c.07.78.1,1.56.12,2.35l.48,18c0,.19,0,.38,0,.57C38.76,97.84,38.66,98,37,99Zm4.63-3.63c-.5.32-.94.73-1.41,1.09-.1.09-.21.24-.36.17s-.12-.25-.13-.39v-.21c-.12-4.73-.2-9.45-.35-14.18-.08-2.2,0-4.41-.25-6.61a3,3,0,0,0-.3-1.31c-.37-.61-.13-.9.37-1.22s1.22-.87,1.81-1.31a.51.51,0,0,1,.13.47c-.08,3-.09,6,.1,9,.27,4.45.47,8.91.88,13.36A1,1,0,0,1,41.63,95.4Zm2.53-4.25a1.43,1.43,0,0,0-.5,0c-1.19.21-1.19.21-1.23-1-.18-6.11-.27-12.21-.19-18.32,0-1.26-.44-1.74-1.71-1.83C39.7,70,38.86,70,38,69.91c-1,0-.94.15-.89-1,.15-3.51.22-7,.24-10.27-.07-5.47-.17-10.68-.44-15.87q-.44-8.47-1.13-16.92c-.08-1-.17-1.94-.29-2.9-.05-.38,0-.49.43-.5,3.61-.17,7.22-.34,10.82-.54,1.9-.1,3.79-.26,5.68-.43.52,0,.72.15.83.62a9.32,9.32,0,0,1,.25,2c0,5.21,0,10.41,0,15.62,0,.53-.22.6-.67.65-2.76.26-5.54.35-8.3.69a2.84,2.84,0,0,0-.86.3c-.16.09-.31.17-.17.37a1.5,1.5,0,0,1,.11,1.17,51.29,51.29,0,0,0,.11,6.2c0,1.23.14,2.46.18,3.7.18,5.27.32,10.54.5,15.81.21,6.11.33,12.21.41,18.32,0,1.11,0,2.23.13,3.34C45,90.91,44.89,91.26,44.16,91.15Zm5-44.88a4.82,4.82,0,0,0-.81,3.53c.1,1.94.07,3.89.07,5.84,0,7.67.6,15.34.43,23-.11,5-.29,10-.27,15.11L46.8,92.41c-.15-.12-.12-.22,0-.35a1.76,1.76,0,0,0,.29-1.22c0-5.44-.21-10.88-.51-16.31-.17-3-.3-6-.47-9-.25-4.51-.57-9-1-13.5-.28-3.21-.47-6.43-1-9.72L49,45.84C49.08,45.94,49.31,46,49.11,46.27Zm5.31,28.55c0,5.09,0,10.17-.08,15.26,0,2.7-.17,5.41-.26,8.09-.21.11-.3,0-.4-.12-1-.86-2.08-1.73-3.13-2.58a.91.91,0,0,1-.41-.84c.09-2,.18-4,.21-6,0-4.54.21-9.08.14-13.62-.08-5.75-.41-11.49-.78-17.23,0-.09,0-.19,0-.28-.05-2.83-.12-5.66-.15-8.49,0-1.83.49-2.28,2.28-2.43,3.78-.33,7.56,0,11.34-.1A26.84,26.84,0,0,0,68.61,46a1.11,1.11,0,0,1,.93.23,18.26,18.26,0,0,0,2.53,1.59h0l.31.15a3.14,3.14,0,0,1-1.61,0L57,47.75h-.93c-1.64,0-2.44.79-2.4,2.42.07,2.23.22,4.46.34,6.69.06,1.28.15,2.56.19,3.84C54.35,65.41,54.44,70.11,54.42,74.82Zm5.84,9c0,6.46-.39,12.92-.61,19.48-1.28-1.13-2.46-2.2-3.65-3.24-.32-.28-.19-.62-.18-.93.31-6,.36-12,.36-18,0-4.84-.11-9.69-.27-14.54-.17-5-.46-10.06-.7-15.1,0-.35-.06-.7-.1-1.07.34-.07.5.18.7.31,1,.65,1.91,1.34,2.9,2a2.82,2.82,0,0,1,1.43,2.65C60.17,64.82,60.32,74.3,60.26,83.79Zm-.2-31.9L56.45,49.4a.76.76,0,0,1,.57-.1l13.89.15a18.9,18.9,0,0,0,3.76-.31,1.51,1.51,0,0,1,1.08.17,17.54,17.54,0,0,1,3.53,2.36c-2.3.13-4.41.22-6.51.37-3.69.26-7.38.56-11.07.83-.46,0-1,.26-1.13-.52C60.54,52.17,60.25,52,60.06,51.89ZM80.73,88.11c-.1,4.68-.24,9.36-.23,14,0,.5-.09.69-.65.71q-8.75.42-17.5.91c-.43,0-.39-.17-.4-.45-.07-1.72.15-3.42.21-5.13.15-4.53.25-9.07.14-13.61,0-1.21,0-2.42-.07-3.63-.11-5.37-.44-10.73-.82-16.08-.24-3.39-.51-6.77-.91-10.14-.06-.44,0-.54.49-.56,5.49-.18,11-.39,16.45-.59.81,0,1.62,0,2.42-.13.52-.05.73.18.84.63a11.6,11.6,0,0,1,.36,2.82V69.66C81.11,75.81,80.87,82,80.73,88.11ZM98.2,55.67c-.38,6-.32,12-.48,18q-.21,7.44-.43,14.89-.18,6.48-.35,13c0,.37,0,.61-.51.63q-6.84.27-13.68.58c-.52,0-.7-.09-.67-.65.15-2.78.29-5.55.37-8.33.28-9.25.25-18.49.12-27.74,0-3.4,0-6.79-.21-10.19A7,7,0,0,0,77.51,49h0c-.18,0-.32-.06-.56-.25h6.83c2.21-.33,4.45,0,6.67-.23a.63.63,0,0,1,.46.13,23.15,23.15,0,0,0,4.45,2.37A4.35,4.35,0,0,1,98.2,55.67ZM97.9,51a10.28,10.28,0,0,0-5.13-2.12,3.71,3.71,0,0,1-.48-.1c-.06,0-.1-.09-.21-.18,4.77-.36,9.48-.66,14.21-.57a3.1,3.1,0,0,1,1.93.67c1.29,1,2.63,1.86,4,2.79-3.43-.16-6.84-.18-10.26-.26l-3.28,0A1,1,0,0,1,97.9,51Zm16,18.19c-.16,6.49-.3,13-.46,19.46-.1,4.14-.39,8.26-.38,12.4,0,.45-.19.49-.55.5-1.45,0-2.9.06-4.35.1-2.87.09-5.75.18-8.62.3-.62,0-.81-.1-.78-.76.4-7.74.56-15.49.65-23.24.08-6.77.16-13.55.06-20.32A18.13,18.13,0,0,0,99,53.13c-.14-.54.19-.47.5-.49,2.32-.1,4.65-.18,7-.3,1.8-.08,3.6-.21,5.41-.29.28,0,.48-.33.69-.23.39.18.82.28.86.94C113.81,58.24,114,63.73,113.87,69.22Z"/><path class="cls-2" d="M64.49,8l-.28.29C64.49,8.35,64.39,8.06,64.49,8Z"/><path class="cls-2" d="M48.39,17.25l5,0a1.71,1.71,0,0,0,1-.11,1.7,1.7,0,0,1-.71.05c-1.8,0-3.6,0-5.41,0-.18,0-.48-.22-.56.17C47.92,17.17,48.16,17.25,48.39,17.25Z"/><path class="cls-2" d="M78.18,48.91l4.91,0c.24,0,.48.07.69-.11a1.7,1.7,0,0,1-.71,0c-1.66,0-3.32,0-5,0-.19,0-.49-.2-.57.18C77.7,48.82,78,48.91,78.18,48.91Z"/><path class="cls-2" d="M28.74,74c-.29,0-.61.13-.88-.12.07.39.38.19.56.19,1.48.06,3-.06,4.43.07A28.19,28.19,0,0,0,28.74,74Z"/><path class="cls-2" d="M20,73.61l.16,0a5,5,0,0,0,1,0c.18,0,.48.19.55-.19h0C21.15,73.75,20.54,73.47,20,73.61Z"/><path class="cls-2" d="M70.77,47.93c.44,0,.91.25,1.3-.16h0C71.66,48.06,71.19,47.8,70.77,47.93Z"/><path class="cls-2" d="M50,16.11h0c-.32-.12-.69.12-1-.15C49.26,16.34,49.63,16.13,50,16.11Z"/><path class="cls-2" d="M95.63,45.49c.28-.23,0-.63.26-.86C95.45,44.81,95.83,45.24,95.63,45.49Z"/><path class="cls-2" d="M95.74,44.19l-.14,0C95.66,44.27,95.7,44.27,95.74,44.19Z"/><path class="cls-2" d="M43.67,16.68v.24C43.77,16.85,43.77,16.76,43.67,16.68Z"/><path class="cls-2" d="M63.39,16.25c0,.28.15.18.29.15h0Z"/><path class="cls-2" d="M7.89,73.6h0c-.11,0-.24,0-.3-.15C7.57,73.72,7.74,73.65,7.89,73.6Z"/><path class="cls-2" d="M70.64,36.64c.26,0,.23-.13.16-.3h0C70.77,36.45,70.77,36.59,70.64,36.64Z"/></g></g></g></svg>