<svg xmlns="http://www.w3.org/2000/svg" viewBox="0 0 222.28 17.22"><defs><style>.cls-1{fill:#b69991;}</style></defs><g id="Layer_2" data-name="Layer 2"><g id="Layer_1-2" data-name="Layer 1"><path class="cls-1" d="M.11,15.08l0-.6L1,14.23,4.85,4.29l.86-.54,4,10.48.91.25,0,.6H7.35l0-.6,1.12-.25-1.14-3-.21-.55L5,5.32l.39-.43L3.2,10.75,3,11.31,2,14.23l1.12.25,0,.6Zm2.45-3.6v-.86l1,0,1.67,0,1.64,0,1,0v.86l-1.47,0H4.12Z" transform="translate(-0.07 -2.12)"/><path class="cls-1" d="M15.22,15.22a3.89,3.89,0,0,1-1.85-.45A3.34,3.34,0,0,1,12,13.41a4.38,4.38,0,0,1-.51-2.19A4.39,4.39,0,0,1,12.05,9,4.12,4.12,0,0,1,13.5,7.52a3.94,3.94,0,0,1,2-.55,3.82,3.82,0,0,1,1.34.2,1.86,1.86,0,0,1,.77.49,1,1,0,0,1,.25.62.63.63,0,0,1-.14.42.55.55,0,0,1-.46.18.92.92,0,0,1-.46-.11,4,4,0,0,1-.49-.45l-.77-.86.53.19a2.51,2.51,0,0,0-1.6.13,2.74,2.74,0,0,0-1.29,1.13,4,4,0,0,0-.5,2.12,3.29,3.29,0,0,0,.79,2.37,2.61,2.61,0,0,0,2,.83A2.87,2.87,0,0,0,16.8,14a3.17,3.17,0,0,0,1-.85l.45.37A3.54,3.54,0,0,1,17,14.79,3.41,3.41,0,0,1,15.22,15.22Z" transform="translate(-0.07 -2.12)"/><path class="cls-1" d="M22.76,15.22a3.92,3.92,0,0,1-1.85-.45,3.4,3.4,0,0,1-1.35-1.36,4.38,4.38,0,0,1-.51-2.19A4.39,4.39,0,0,1,19.59,9,4.21,4.21,0,0,1,21,7.52a4,4,0,0,1,2-.55,3.8,3.8,0,0,1,1.33.2,1.8,1.8,0,0,1,.77.49,1,1,0,0,1,.25.62.63.63,0,0,1-.14.42.53.53,0,0,1-.46.18.88.88,0,0,1-.45-.11,3.34,3.34,0,0,1-.5-.45l-.77-.86.53.19a2.51,2.51,0,0,0-1.6.13,2.74,2.74,0,0,0-1.29,1.13,4,4,0,0,0-.5,2.12A3.29,3.29,0,0,0,21,13.4a2.62,2.62,0,0,0,2,.83A2.81,2.81,0,0,0,24.34,14a3.17,3.17,0,0,0,1-.85l.45.37a3.54,3.54,0,0,1-1.26,1.31A3.41,3.41,0,0,1,22.76,15.22Z" transform="translate(-0.07 -2.12)"/><path class="cls-1" d="M30.49,15.22a3.92,3.92,0,0,1-2.06-.52,3.52,3.52,0,0,1-1.36-1.47,4.7,4.7,0,0,1-.48-2.16,4.21,4.21,0,0,1,.53-2.13A3.78,3.78,0,0,1,28.54,7.5a3.91,3.91,0,0,1,2-.53,3.63,3.63,0,0,1,2,.51A3.33,3.33,0,0,1,33.77,8.9a4.7,4.7,0,0,1,.46,2.15,4.47,4.47,0,0,1-.5,2.11,4,4,0,0,1-1.34,1.5A3.33,3.33,0,0,1,30.49,15.22Zm.17-.72a2,2,0,0,0,1.24-.43,2.71,2.71,0,0,0,.84-1.15,4.07,4.07,0,0,0,.31-1.64,4.29,4.29,0,0,0-.74-2.62,2.31,2.31,0,0,0-1.93-1,2.28,2.28,0,0,0-1.86.89,3.72,3.72,0,0,0-.71,2.37,4.46,4.46,0,0,0,.37,1.89,2.94,2.94,0,0,0,1,1.25A2.57,2.57,0,0,0,30.66,14.5Z" transform="translate(-0.07 -2.12)"/><path class="cls-1" d="M43.12,14l1.18.32v.52l-2.08.47L42.05,15l0-1.12,0,0a3.93,3.93,0,0,1-1.11,1,2.53,2.53,0,0,1-1.2.29,3.06,3.06,0,0,1-2.05-.74,2.81,2.81,0,0,1-.85-2.22V10.6c0-.4,0-.78,0-1.15s0-.72,0-1.06l-1.27-.26V7.61L37.6,7l.22.26,0,1.19c0,.39,0,.81,0,1.26V12a2.23,2.23,0,0,0,.59,1.78,2.16,2.16,0,0,0,1.5.52A2.56,2.56,0,0,0,42.05,13V10.7c0-.28,0-.56,0-.85s0-.56,0-.82,0-.47-.06-.64l-1.37-.26V7.61L42.84,7l.19.22c0,.4,0,.74,0,1s0,.53,0,.76v2.08c0,.87,0,1.53,0,2S43.11,13.78,43.12,14Z" transform="translate(-0.07 -2.12)"/><path class="cls-1" d="M45.59,15.08l0-.58,1.16-.27c0-.11,0-.24,0-.38s0-.35,0-.61,0-.62,0-1.07l0-1.47c0-.43,0-.87,0-1.34s-.06-.79-.08-1l-1.2-.26V7.61L47.57,7l.23.26-.09,1h0a4.82,4.82,0,0,1,1.32-1A3.25,3.25,0,0,1,50.4,7a2.66,2.66,0,0,1,1.24.32,2.6,2.6,0,0,1,1,1A3.64,3.64,0,0,1,53,10.1v2.15c0,.46,0,.87,0,1.23s0,.62.07.75l1.16.27,0,.58H51l0-.58L52,14.23q0-.15,0-.33c0-.13,0-.3,0-.53s0-.53,0-.93V10.19a2.63,2.63,0,0,0-.33-1.43A1.88,1.88,0,0,0,50.93,8a2.24,2.24,0,0,0-.9-.22,2.46,2.46,0,0,0-1.28.35,3.4,3.4,0,0,0-1,1V12c0,.65,0,1.14,0,1.48s0,.6,0,.76L49,14.5l0,.58Z" transform="translate(-0.07 -2.12)"/><path class="cls-1" d="M61.05,14.12a2.73,2.73,0,0,1-.95.81,2.5,2.5,0,0,1-1.11.28,2.42,2.42,0,0,1-1.74-.67,2.61,2.61,0,0,1-.69-2l0-4.63H55.28V7.66l2.08-2h.23l0,1.92,0,4.7A2.44,2.44,0,0,0,58,13.81a1.51,1.51,0,0,0,1.24.54,2,2,0,0,0,.87-.19,2.62,2.62,0,0,0,.69-.49Zm-4-6.18v-.8h3.37v.8Z" transform="translate(-0.07 -2.12)"/><path class="cls-1" d="M73.85,12.81V7.94c0-.79,0-1.4,0-1.82s0-.71,0-.89a1.92,1.92,0,0,0,0-.3L72.5,4.69l0-.6h3.37l0,.6-1.13.24s0,.13,0,.3,0,.48,0,.9,0,1,0,1.81v6c0,.4,0,.81,0,1.25h-.68l-6.6-9.56h.13v5.67c0,.77,0,1.37,0,1.78s0,.72.05.88,0,.28,0,.31l1.26.25,0,.6H65.52l0-.6,1.13-.25a1.89,1.89,0,0,0,0-.29c0-.15,0-.44,0-.86s0-1,0-1.82V7.7c0-.66,0-1.17,0-1.53s0-.64,0-.82a3,3,0,0,0,0-.42l-1.13-.24,0-.6H67.9L74,12.81Z" transform="translate(-0.07 -2.12)"/><path class="cls-1" d="M80.59,15.22A2.84,2.84,0,0,1,79.35,15a2.43,2.43,0,0,1-.9-.7,1.55,1.55,0,0,1-.33-1,1.31,1.31,0,0,1,.4-1,3.62,3.62,0,0,1,1.38-.73l2.8-1V9.5a1.48,1.48,0,0,0-.3-.91A2,2,0,0,0,81.61,8a2.71,2.71,0,0,0-1.13-.22,1,1,0,0,0-.73.21,1.6,1.6,0,0,0-.23.89l0,.6a1.36,1.36,0,0,1-.94,0,.58.58,0,0,1-.41-.57,1,1,0,0,1,.24-.58A2.53,2.53,0,0,1,79,7.69a4.29,4.29,0,0,1,.88-.46,4.83,4.83,0,0,1,1-.26,2.93,2.93,0,0,1,2,.7,2.42,2.42,0,0,1,.79,1.85l0,3.4c0,.18,0,.39,0,.64a3.87,3.87,0,0,0,.08.52l1.18.23v.47l-.79.26-.41.13a1,1,0,0,1-.3.05c-.34,0-.54-.19-.62-.59L82.72,14l.23,0a5.63,5.63,0,0,1-1.2,1A2.35,2.35,0,0,1,80.59,15.22Zm.28-.82a2,2,0,0,0,1-.24,2.81,2.81,0,0,0,.86-.75v-2l-2.51.73a1.24,1.24,0,0,0-.64.38,1,1,0,0,0-.2.65,1.15,1.15,0,0,0,.47.88A1.59,1.59,0,0,0,80.87,14.4Z" transform="translate(-0.07 -2.12)"/><path class="cls-1" d="M86.24,15.08l0-.58,1.16-.27c0-.11,0-.22,0-.34s0-.31,0-.57,0-.65,0-1.15l0-1.49q0-.42,0-.87c0-.31,0-.59-.06-.85s0-.45-.07-.57l-1.2-.26V7.61L88.22,7l.23.26-.1,1,.06,0a3.57,3.57,0,0,1,1.19-1A2.76,2.76,0,0,1,90.84,7a2.51,2.51,0,0,1,1.24.35,2.77,2.77,0,0,1,1,1.06,3.84,3.84,0,0,1,.41,1.87v2c0,.46,0,.87,0,1.22s0,.61.07.76l1.16.27,0,.58H91.5l0-.58,1.05-.27,0-.33c0-.13,0-.3,0-.53s0-.53,0-.93V10.23a3,3,0,0,0-.29-1.4,1.89,1.89,0,0,0-1.68-1,2.55,2.55,0,0,0-1.2.31,3,3,0,0,0-1,1V12c0,.63,0,1.13,0,1.48s0,.6,0,.76l1.12.27,0,.58Zm10.33,0,0-.58,1.09-.27,0-.32c0-.12,0-.3,0-.53s0-.54,0-.94l0-2.25a2.53,2.53,0,0,0-.32-1.39,2,2,0,0,0-1.66-1,2.46,2.46,0,0,0-1.33.38,3.63,3.63,0,0,0-1.09,1.14l-.26-.64a4.4,4.4,0,0,1,1.38-1.33A3.16,3.16,0,0,1,96,7a2.67,2.67,0,0,1,1.33.35,2.55,2.55,0,0,1,1,1A3.35,3.35,0,0,1,98.67,10l0,2.21c0,.46,0,.87,0,1.22a7,7,0,0,0,.06.76l1.16.27,0,.58Z" transform="translate(-0.07 -2.12)"/><path class="cls-1" d="M105.07,15.22a3.9,3.9,0,0,1-1.86-.45,3.41,3.41,0,0,1-1.34-1.35,4.26,4.26,0,0,1-.51-2.16A4.75,4.75,0,0,1,101.88,9a3.67,3.67,0,0,1,1.35-1.48,3.27,3.27,0,0,1,1.82-.5,2.75,2.75,0,0,1,2.14.92,4,4,0,0,1,.8,2.73v.28h-5.9v-.75h5l-.17.15V10a2.73,2.73,0,0,0-.52-1.79,1.82,1.82,0,0,0-1.46-.62,2.07,2.07,0,0,0-1.1.33,2.62,2.62,0,0,0-.88,1,3.67,3.67,0,0,0-.34,1.7v.15a3.7,3.7,0,0,0,.78,2.53,2.53,2.53,0,0,0,2,.89,2.6,2.6,0,0,0,1.21-.27,3.17,3.17,0,0,0,1-.87l.43.38a3.51,3.51,0,0,1-1.27,1.32A3.17,3.17,0,0,1,105.07,15.22Z" transform="translate(-0.07 -2.12)"/><path class="cls-1" d="M110.68,8.64a.84.84,0,0,1-.64-.25.87.87,0,0,1-.14-1.06.72.72,0,0,1,.31-.29,1,1,0,0,1,.47-.11.93.93,0,0,1,.67.24.81.81,0,0,1,.25.61.83.83,0,0,1-.25.61A.9.9,0,0,1,110.68,8.64Zm0,6.62A.84.84,0,0,1,110,15a.86.86,0,0,1-.26-.63.8.8,0,0,1,.12-.43.89.89,0,0,1,.31-.3,1,1,0,0,1,.47-.11,1,1,0,0,1,.67.23.83.83,0,0,1,.25.61.86.86,0,0,1-.92.88Z" transform="translate(-0.07 -2.12)"/><path class="cls-1" d="M125.56,12.81V7.94c0-.79,0-1.4,0-1.82s0-.71,0-.89a1.92,1.92,0,0,0,0-.3l-1.26-.24,0-.6h3.37l0,.6-1.13.24s0,.13,0,.3,0,.48,0,.9,0,1,0,1.81v6c0,.4,0,.81,0,1.25h-.68l-6.6-9.56h.13v5.67c0,.77,0,1.37,0,1.78s0,.72,0,.88,0,.28,0,.31l1.25.25,0,.6h-3.41l0-.6,1.13-.25a1.89,1.89,0,0,0,0-.29c0-.15,0-.44,0-.86s0-1,0-1.82V7.7c0-.66,0-1.17,0-1.53s0-.64,0-.82a3,3,0,0,0-.05-.42l-1.13-.24,0-.6h2.38l6.08,8.72Z" transform="translate(-0.07 -2.12)"/><path class="cls-1" d="M132.3,15.22a2.84,2.84,0,0,1-1.24-.26,2.43,2.43,0,0,1-.9-.7,1.55,1.55,0,0,1-.33-1,1.31,1.31,0,0,1,.4-1,3.65,3.65,0,0,1,1.37-.73l2.81-1V9.5a1.48,1.48,0,0,0-.3-.91,2,2,0,0,0-.79-.63,2.73,2.73,0,0,0-1.14-.22.94.94,0,0,0-.72.21,1.6,1.6,0,0,0-.23.89l0,.6a1.36,1.36,0,0,1-.94,0,.58.58,0,0,1-.41-.57,1,1,0,0,1,.24-.58,2.53,2.53,0,0,1,.63-.57,4.48,4.48,0,0,1,.87-.46,5.09,5.09,0,0,1,1-.26,2.93,2.93,0,0,1,2,.7,2.46,2.46,0,0,1,.79,1.85l0,3.4c0,.18,0,.39,0,.64a3.87,3.87,0,0,0,.08.52l1.18.23v.47l-.79.26-.41.13a1,1,0,0,1-.3.05c-.34,0-.54-.19-.62-.59l-.13-.68.23,0a5.63,5.63,0,0,1-1.2,1A2.35,2.35,0,0,1,132.3,15.22Zm.28-.82a2,2,0,0,0,1-.24,2.81,2.81,0,0,0,.86-.75v-2l-2.51.73a1.2,1.2,0,0,0-.64.38,1,1,0,0,0-.2.65,1.15,1.15,0,0,0,.47.88A1.59,1.59,0,0,0,132.58,14.4Z" transform="translate(-0.07 -2.12)"/><path class="cls-1" d="M144.42,15.26l-.16-.22V13.8h-.05a4,4,0,0,1-1.2,1.09,2.74,2.74,0,0,1-1.29.32,3.75,3.75,0,0,1-1.93-.5,3.45,3.45,0,0,1-1.31-1.37,4.1,4.1,0,0,1-.47-2,5.06,5.06,0,0,1,.31-1.77,4.4,4.4,0,0,1,.86-1.4,3.94,3.94,0,0,1,1.27-.92A3.54,3.54,0,0,1,142,7a5.48,5.48,0,0,1,1.24.16,2.54,2.54,0,0,1,1.06.54V6.71c0-.4,0-.82,0-1.25s0-.83,0-1.17,0-.57,0-.67l-1.5-.28,0-.52,2.34-.7.28.23c0,.77,0,1.54,0,2.29s0,1.54,0,2.35l0,4.3c0,.64,0,1.2.05,1.68s.05.81.06,1l1.18.32v.52Zm-2.43-1a2.58,2.58,0,0,0,1.17-.25,3.7,3.7,0,0,0,1.1-.94V9.07a2.55,2.55,0,0,0-1-1.1A2.74,2.74,0,0,0,142,7.65a2.4,2.4,0,0,0-2,.94A3.84,3.84,0,0,0,139.2,11a3.28,3.28,0,0,0,.82,2.38A2.61,2.61,0,0,0,142,14.21Z" transform="translate(-0.07 -2.12)"/><path class="cls-1" d="M147.77,15.08l0-.6,1.25-.25c0-.05,0-.12,0-.22s0-.29,0-.57,0-.7,0-1.27V11.05c0-.61,0-1.16,0-1.65s0-.83-.07-1l-1.26-.26V7.61L150,7l.16.2c0,.39,0,.77-.06,1.13s0,.79,0,1.29V12c0,.63,0,1.14,0,1.52s0,.62,0,.72l1.25.25,0,.6Zm1.76-10.47a1,1,0,0,1-.65-.25.83.83,0,0,1-.3-.66.84.84,0,0,1,.3-.66,1,1,0,0,1,.65-.26.93.93,0,0,1,.64.26.85.85,0,0,1,.28.66.84.84,0,0,1-.28.66A.92.92,0,0,1,149.53,4.61Z" transform="translate(-0.07 -2.12)"/><path class="cls-1" d="M156,15.15,152.75,8l-.88-.26,0-.58H155l0,.58L153.88,8l2.77,6.24Zm4.59-8,0,.58-.87.26-3.13,6.8-1.52,3.1a3.37,3.37,0,0,1-.79,1.14,1.55,1.55,0,0,1-1,.34,1.12,1.12,0,0,1-.64-.18.56.56,0,0,1-.26-.49.64.64,0,0,1,.17-.41,1.19,1.19,0,0,1,.56-.34l1.52-.47-.68,1,2-3.91.18-.29L158.74,8l-1.16-.26,0-.58Z" transform="translate(-0.07 -2.12)"/><path class="cls-1" d="M164.19,15.22A2.84,2.84,0,0,1,163,15a2.43,2.43,0,0,1-.9-.7,1.55,1.55,0,0,1-.33-1,1.31,1.31,0,0,1,.4-1,3.62,3.62,0,0,1,1.38-.73l2.8-1V9.5a1.48,1.48,0,0,0-.3-.91,2,2,0,0,0-.79-.63,2.71,2.71,0,0,0-1.13-.22,1,1,0,0,0-.73.21,1.6,1.6,0,0,0-.23.89l0,.6a1.36,1.36,0,0,1-.94,0,.58.58,0,0,1-.41-.57,1,1,0,0,1,.24-.58,2.53,2.53,0,0,1,.63-.57,4.29,4.29,0,0,1,.88-.46,4.83,4.83,0,0,1,1-.26,2.93,2.93,0,0,1,2,.7,2.42,2.42,0,0,1,.79,1.85l0,3.4c0,.18,0,.39,0,.64a3.87,3.87,0,0,0,.08.52l1.18.23v.47l-.79.26-.41.13a1,1,0,0,1-.3.05c-.34,0-.54-.19-.62-.59l-.13-.68.23,0a5.63,5.63,0,0,1-1.2,1A2.35,2.35,0,0,1,164.19,15.22Zm.28-.82a2,2,0,0,0,1-.24,2.81,2.81,0,0,0,.86-.75v-2l-2.51.73a1.24,1.24,0,0,0-.64.38,1,1,0,0,0-.2.65,1.15,1.15,0,0,0,.47.88A1.59,1.59,0,0,0,164.47,14.4Z" transform="translate(-0.07 -2.12)"/><path class="cls-1" d="M169.82,15.08l0-.58,1.16-.27a4.22,4.22,0,0,0,.05-.6c0-.26,0-.63,0-1.1s0-1.12,0-1.95V8.26c0-.42,0-.89,0-1.41s0-1,0-1.51,0-.9,0-1.24,0-.55,0-.61l-1.38-.19,0-.48,2.21-.7.28.23,0,1.18c0,.4,0,.82,0,1.28s0,1,0,1.52V8.24l0,0a5,5,0,0,1,1.3-1A3.1,3.1,0,0,1,174.63,7a2.52,2.52,0,0,1,2.23,1.36,3.78,3.78,0,0,1,.39,1.84v2.08c0,.46,0,.87,0,1.22s.05.61.07.76l1.16.27,0,.58h-3.31l0-.58,1.08-.27,0-.33c0-.13,0-.3,0-.53s0-.53,0-.93V10.21a2.81,2.81,0,0,0-.3-1.39,2,2,0,0,0-1.74-1,2.46,2.46,0,0,0-1.28.35,3.4,3.4,0,0,0-1,1V12q0,.91,0,1.5c0,.4,0,.64.05.74l1.16.27,0,.58Z" transform="translate(-0.07 -2.12)"/><path class="cls-1" d="M189.7,15.24a7.36,7.36,0,0,1-3-.61,5,5,0,0,1-2.18-1.88,5.58,5.58,0,0,1-.82-3.14,6,6,0,0,1,.38-2.1,5.55,5.55,0,0,1,1.15-1.82,5.37,5.37,0,0,1,1.89-1.29,6.67,6.67,0,0,1,2.63-.48,10.85,10.85,0,0,1,1.61.14,7.12,7.12,0,0,1,1.55.42L193,6.82l-.68.1-.52-1.63a2.11,2.11,0,0,0-1-.41,6.31,6.31,0,0,0-1.26-.14A4.54,4.54,0,0,0,187,5.4a3.78,3.78,0,0,0-1.41,1.71,5.85,5.85,0,0,0-.44,2.24,5.83,5.83,0,0,0,.61,2.8,4.06,4.06,0,0,0,1.66,1.7,4.86,4.86,0,0,0,2.37.57,6,6,0,0,0,1.44-.2,3.78,3.78,0,0,0,1.39-.64l-.51,1.06v-2c0-.47,0-.87,0-1.2s0-.57,0-.73l-1.24-.17,0-.63H194l0,.6-.78.18V12c0,.56,0,1,0,1.32s0,.61,0,.88a5.43,5.43,0,0,1-1.7.75A7,7,0,0,1,189.7,15.24Z" transform="translate(-0.07 -2.12)"/><path class="cls-1" d="M198.47,15.22a2.77,2.77,0,0,1-1.23-.26,2.28,2.28,0,0,1-.9-.7,1.56,1.56,0,0,1-.34-1,1.32,1.32,0,0,1,.41-1,3.49,3.49,0,0,1,1.37-.73l2.81-1V9.5a1.48,1.48,0,0,0-.3-.91,2,2,0,0,0-.8-.63,2.68,2.68,0,0,0-1.13-.22,1,1,0,0,0-.73.21,1.61,1.61,0,0,0-.22.89l0,.6a1.39,1.39,0,0,1-.95,0,.57.57,0,0,1-.4-.57,1,1,0,0,1,.23-.58,2.94,2.94,0,0,1,.63-.57,4.57,4.57,0,0,1,.88-.46,5,5,0,0,1,1-.26,2.89,2.89,0,0,1,2,.7,2.43,2.43,0,0,1,.8,1.85l0,3.4a5.33,5.33,0,0,0,0,.64,4.38,4.38,0,0,0,.07.52l1.18.23v.47l-.78.26-.41.13a1,1,0,0,1-.3.05c-.34,0-.55-.19-.62-.59l-.13-.68.22,0a5.18,5.18,0,0,1-1.2,1A2.32,2.32,0,0,1,198.47,15.22Zm.28-.82a2.06,2.06,0,0,0,1-.24,2.93,2.93,0,0,0,.86-.75v-2l-2.51.73a1.2,1.2,0,0,0-.64.38,1,1,0,0,0-.2.65,1.12,1.12,0,0,0,.47.88A1.58,1.58,0,0,0,198.75,14.4Z" transform="translate(-0.07 -2.12)"/><path class="cls-1" d="M204.05,15.08l0-.6,1.22-.25a4.22,4.22,0,0,0,.05-.6c0-.25,0-.61,0-1.09s0-1.13,0-2V8.26c0-.48,0-1,0-1.52s0-1,0-1.51,0-.87,0-1.19,0-.5,0-.55l-1.39-.19,0-.48,2.24-.7.28.23,0,1.6q0,.8,0,1.77c0,.65,0,1.41,0,2.3l0,3.14c0,.68,0,1.3,0,1.88s0,1,0,1.19l1.22.25,0,.6Z" transform="translate(-0.07 -2.12)"/><path class="cls-1" d="M208.81,15.08l0-.6,1.25-.25c0-.05,0-.12,0-.22s0-.29,0-.57,0-.7,0-1.27V11.05c0-.61,0-1.16,0-1.65s0-.83-.07-1l-1.26-.26V7.61L211,7l.16.2c0,.39,0,.77-.06,1.13s0,.79,0,1.29V12c0,.63,0,1.14,0,1.52s0,.62,0,.72l1.25.25,0,.6Zm1.75-10.47a1,1,0,0,1-.65-.25.83.83,0,0,1-.3-.66.84.84,0,0,1,.3-.66,1,1,0,0,1,.65-.26.93.93,0,0,1,.64.26.85.85,0,0,1,.28.66.84.84,0,0,1-.28.66A.92.92,0,0,1,210.56,4.61Z" transform="translate(-0.07 -2.12)"/><path class="cls-1" d="M213.65,15.08l0-.58,1.16-.27a4.47,4.47,0,0,0,0-.6c0-.26,0-.63,0-1.1s0-1.12,0-1.95V8.26c0-.42,0-.89,0-1.41s0-1,0-1.51,0-.9,0-1.24,0-.55,0-.61l-1.38-.19,0-.48,2.21-.7.28.23,0,1.18c0,.4,0,.82,0,1.28s0,1,0,1.52,0,1.19,0,1.91l.05,0a5,5,0,0,1,1.3-1A3.1,3.1,0,0,1,218.46,7a2.52,2.52,0,0,1,2.23,1.36,3.78,3.78,0,0,1,.39,1.84v2.08c0,.46,0,.87,0,1.22s0,.61.07.76l1.17.27,0,.58H219l0-.58,1.08-.27q0-.15,0-.33c0-.13,0-.3,0-.53s0-.53,0-.93V10.21a2.81,2.81,0,0,0-.3-1.39,1.91,1.91,0,0,0-.76-.76,2,2,0,0,0-1-.25,2.43,2.43,0,0,0-1.27.35,3.31,3.31,0,0,0-1,1V12q0,.91,0,1.5c0,.4,0,.64,0,.74l1.16.27,0,.58Z" transform="translate(-0.07 -2.12)"/></g></g></svg>