<svg xmlns="http://www.w3.org/2000/svg" viewBox="0 0 202.2 49.94"><defs><style>.cls-1{fill:#8a8e6d;}</style></defs><g id="Layer_2" data-name="Layer 2"><g id="Layer_1-2" data-name="Layer 1"><path class="cls-1" d="M5.64,11.94l0-.52.83-.2a1.28,1.28,0,0,0,0-.28c0-.15,0-.36,0-.65V9.18l0-3.39c0-.4,0-.73,0-1s0-.46,0-.6a1.44,1.44,0,0,0,0-.25l-.9-.19,0-.52h5.13l.39,0,.51,0,.28,1.9-.62.08L10.78,4a.87.87,0,0,0-.22,0H8a3.93,3.93,0,0,0-.45,0v.24c0,.11,0,.26,0,.44V9c0,.54,0,1,0,1.28s0,.54,0,.68a1.23,1.23,0,0,0,0,.27l1.2.17,0,.55ZM10.25,9l-.2-1.07a1,1,0,0,0-.26,0l-.43,0H7.72l-.45,0V7.13l.38,0H9.82a.88.88,0,0,0,.23,0l.2-1h.56V9Z" transform="translate(-0.4 -1.67)"/><path class="cls-1" d="M15.57,12.05a3.17,3.17,0,0,1-1.66-.41,2.9,2.9,0,0,1-1.09-1.16,3.77,3.77,0,0,1-.38-1.71,3.4,3.4,0,0,1,.42-1.72A3,3,0,0,1,14,5.91a3.13,3.13,0,0,1,1.6-.42,3,3,0,0,1,1.57.4,2.77,2.77,0,0,1,1,1.13,3.83,3.83,0,0,1,.37,1.7,3.48,3.48,0,0,1-.4,1.68,3.24,3.24,0,0,1-1.09,1.2A2.74,2.74,0,0,1,15.57,12.05Zm.14-.62a1.49,1.49,0,0,0,.94-.32,2.38,2.38,0,0,0,.63-.89,3.44,3.44,0,0,0,.23-1.28A3.49,3.49,0,0,0,17,6.88a1.72,1.72,0,0,0-1.47-.8,1.69,1.69,0,0,0-1.4.69,3,3,0,0,0-.53,1.83,3.55,3.55,0,0,0,.28,1.48,2.46,2.46,0,0,0,.77,1A1.9,1.9,0,0,0,15.71,11.43Z" transform="translate(-0.4 -1.67)"/><path class="cls-1" d="M19.77,11.94l0-.49.92-.23a2.07,2.07,0,0,0,0-.26c0-.13,0-.3,0-.52s0-.49,0-.81V8.45c0-.34,0-.68,0-1s-.05-.59-.07-.74l-.94-.21V6l1.8-.5.18.19L21.57,7l0,0a3.09,3.09,0,0,1,.92-1.18,1.59,1.59,0,0,1,.85-.3.89.89,0,0,1,.54.16.55.55,0,0,1,.21.46.54.54,0,0,1-.22.47,1,1,0,0,1-.58.17,1.14,1.14,0,0,1-.48-.12,1.79,1.79,0,0,1-.42-.3l.22.1A2.53,2.53,0,0,0,22.1,7a3.88,3.88,0,0,0-.49.84l0,1.44c0,.22,0,.45,0,.71s0,.5,0,.72,0,.4,0,.52l1.28.2,0,.52Z" transform="translate(-0.4 -1.67)"/><path class="cls-1" d="M28.47,11.55c0-.34,0-.64,0-.87s0-.46,0-.67V6.54c0-.3,0-.65,0-1s0-.77,0-1.15,0-.71,0-1V2.81l-1.1-.15,0-.41,1.9-.58.23.19c0,.42,0,.83,0,1.25s0,.91,0,1.45,0,1.23,0,2l.05,0a2.84,2.84,0,0,1,.93-.83,2.43,2.43,0,0,1,1.2-.3,2.66,2.66,0,0,1,1.36.36,2.55,2.55,0,0,1,1,1,3.35,3.35,0,0,1,.38,1.65,3.44,3.44,0,0,1-.5,1.85,3.56,3.56,0,0,1-3.06,1.67,5.16,5.16,0,0,1-1.23-.14A5.34,5.34,0,0,1,28.47,11.55Zm2.59-.16a1.92,1.92,0,0,0,1.53-.7,2.87,2.87,0,0,0,.62-1.94,2.37,2.37,0,0,0-.57-1.81,2.15,2.15,0,0,0-2.44-.38,2.12,2.12,0,0,0-.79.68v3.67a2.48,2.48,0,0,0,.71.35A3,3,0,0,0,31.06,11.39Z" transform="translate(-0.4 -1.67)"/><path class="cls-1" d="M38.56,12.05a3,3,0,0,1-1.5-.37A2.67,2.67,0,0,1,36,10.6a3.47,3.47,0,0,1-.4-1.7A3.75,3.75,0,0,1,36,7.07a3.06,3.06,0,0,1,1.1-1.18,2.62,2.62,0,0,1,1.46-.4,2.27,2.27,0,0,1,1.74.74,3.19,3.19,0,0,1,.63,2.15v.25h-4.6V8H40.1L40,8.16V7.89a2.07,2.07,0,0,0-.41-1.37A1.38,1.38,0,0,0,38.44,6a1.59,1.59,0,0,0-.85.26,1.84,1.84,0,0,0-.66.78,2.93,2.93,0,0,0-.25,1.3v.15a2.83,2.83,0,0,0,.61,2,1.94,1.94,0,0,0,1.55.7,2,2,0,0,0,.95-.21,2.37,2.37,0,0,0,.8-.68l.36.31a2.87,2.87,0,0,1-1,1.1A2.64,2.64,0,0,1,38.56,12.05Z" transform="translate(-0.4 -1.67)"/><path class="cls-1" d="M42,11.94l0-.51,1-.21a3.73,3.73,0,0,0,0-.47c0-.21,0-.5,0-.88S43,9,43,8.39V6.54c0-.37,0-.76,0-1.17s0-.8,0-1.17,0-.67,0-.92,0-.41,0-.47l-1.09-.15,0-.41,1.92-.58.24.19q0,.64,0,1.26c0,.42,0,.88,0,1.39s0,1.11,0,1.83V8.78q0,.83,0,1.53c0,.46,0,.77,0,.91l1,.21,0,.51Z" transform="translate(-0.4 -1.67)"/><path class="cls-1" d="M49.14,12.05a3.16,3.16,0,0,1-1.65-.41,2.9,2.9,0,0,1-1.09-1.16A3.65,3.65,0,0,1,46,8.77a3.4,3.4,0,0,1,.42-1.72,2.93,2.93,0,0,1,1.15-1.14,3.11,3.11,0,0,1,1.6-.42,3,3,0,0,1,1.57.4,2.75,2.75,0,0,1,1,1.13,3.7,3.7,0,0,1,.38,1.7,3.48,3.48,0,0,1-.41,1.68,3.21,3.21,0,0,1-1.08,1.2A2.75,2.75,0,0,1,49.14,12.05Zm.15-.62a1.44,1.44,0,0,0,.93-.32,2.18,2.18,0,0,0,.63-.89,3.25,3.25,0,0,0,.23-1.28,3.49,3.49,0,0,0-.55-2.06,1.72,1.72,0,0,0-1.48-.8,1.68,1.68,0,0,0-1.39.69,2.88,2.88,0,0,0-.53,1.83,3.55,3.55,0,0,0,.28,1.48,2.38,2.38,0,0,0,.77,1A1.88,1.88,0,0,0,49.29,11.43Z" transform="translate(-0.4 -1.67)"/><path class="cls-1" d="M56,12l-2.6-5.7-.69-.2,0-.49H55.4l0,.49-.91.2,2.13,4.76-.39,0,2-4.78-.92-.2,0-.49h2.39l0,.49-.7.2L56.4,12Z" transform="translate(-0.4 -1.67)"/><path class="cls-1" d="M63.17,12.05a3,3,0,0,1-1.5-.37A2.59,2.59,0,0,1,60.6,10.6a3.37,3.37,0,0,1-.4-1.7,3.75,3.75,0,0,1,.41-1.83,3.06,3.06,0,0,1,1.1-1.18,2.62,2.62,0,0,1,1.46-.4,2.25,2.25,0,0,1,1.74.74,3.19,3.19,0,0,1,.63,2.15v.25h-4.6V8h3.78l-.15.15V7.89a2.07,2.07,0,0,0-.41-1.37A1.37,1.37,0,0,0,63.06,6a1.63,1.63,0,0,0-.86.26,1.84,1.84,0,0,0-.66.78,3.07,3.07,0,0,0-.25,1.3v.15a2.83,2.83,0,0,0,.61,2,2,2,0,0,0,1.56.7A2,2,0,0,0,64.4,11a2.37,2.37,0,0,0,.8-.68l.36.31a2.87,2.87,0,0,1-1,1.1A2.64,2.64,0,0,1,63.17,12.05Z" transform="translate(-0.4 -1.67)"/><path class="cls-1" d="M71.81,12.08l-.16-.17v-1h0a3.32,3.32,0,0,1-.94.86,2.06,2.06,0,0,1-1,.25,2.94,2.94,0,0,1-1.52-.39,2.87,2.87,0,0,1-1-1.09A3.2,3.2,0,0,1,66.75,9,3.82,3.82,0,0,1,67,7.57a3.33,3.33,0,0,1,.7-1.11,3.47,3.47,0,0,1,1-.73,3,3,0,0,1,1.21-.25,4.22,4.22,0,0,1,.93.11,2,2,0,0,1,.79.39c0-.18,0-.42,0-.73s0-.62,0-1,0-.63,0-.88V2.91l-1.17-.22,0-.44,2-.58.24.19c0,.61,0,1.21,0,1.8s0,1.2,0,1.83V8.9c0,.5,0,.94,0,1.31s0,.63,0,.78l.93.23v.45ZM70,11.18a2,2,0,0,0,.88-.2,2.72,2.72,0,0,0,.82-.72V7.12a1.88,1.88,0,0,0-.78-.8,2,2,0,0,0-.94-.24,1.85,1.85,0,0,0-1.55.72,3,3,0,0,0-.55,1.85,2.58,2.58,0,0,0,.62,1.86A2,2,0,0,0,70,11.18Z" transform="translate(-0.4 -1.67)"/><path class="cls-1" d="M80.63,12.05A3.16,3.16,0,0,1,79,11.64a2.9,2.9,0,0,1-1.09-1.16,3.65,3.65,0,0,1-.39-1.71,3.3,3.3,0,0,1,.43-1.72,3,3,0,0,1,1.14-1.14,3.16,3.16,0,0,1,1.6-.42,2.93,2.93,0,0,1,1.57.4,2.77,2.77,0,0,1,1,1.13,3.7,3.7,0,0,1,.37,1.7,3.48,3.48,0,0,1-.4,1.68,3.15,3.15,0,0,1-1.09,1.2A2.74,2.74,0,0,1,80.63,12.05Zm.15-.62a1.48,1.48,0,0,0,.93-.32,2.18,2.18,0,0,0,.63-.89,3.44,3.44,0,0,0,.23-1.28A3.42,3.42,0,0,0,82,6.88a1.72,1.72,0,0,0-1.47-.8,1.67,1.67,0,0,0-1.39.69,2.89,2.89,0,0,0-.54,1.83,3.55,3.55,0,0,0,.29,1.48,2.3,2.3,0,0,0,.77,1A1.86,1.86,0,0,0,80.78,11.43Z" transform="translate(-0.4 -1.67)"/><path class="cls-1" d="M84.81,11.94l0-.49.92-.23c0-.07,0-.17,0-.28s0-.28,0-.48,0-.49,0-.83l0-1.16c0-.34,0-.68,0-1s0-.61-.07-.76l-1-.21V6l1.81-.5.21.22-.07.77,0,0a3.5,3.5,0,0,1,1-.8,2.36,2.36,0,0,1,1.06-.24,2.1,2.1,0,0,1,1,.26,2,2,0,0,1,.78.81A2.91,2.91,0,0,1,90.88,8V9.67c0,.37,0,.69,0,1a5.17,5.17,0,0,0,.06.57l.92.23,0,.49H89.09l0-.49.86-.23c0-.07,0-.17,0-.27s0-.25,0-.43,0-.42,0-.72V8.1A2,2,0,0,0,89.73,7a1.46,1.46,0,0,0-.62-.57,1.67,1.67,0,0,0-.7-.17,1.87,1.87,0,0,0-1,.26,2.42,2.42,0,0,0-.78.72V9.49c0,.48,0,.87,0,1.14s0,.48,0,.59l.92.23,0,.49Z" transform="translate(-0.4 -1.67)"/><path class="cls-1" d="M95.92,12.05a3,3,0,0,1-1.5-.37,2.67,2.67,0,0,1-1.08-1.08,3.47,3.47,0,0,1-.4-1.7,3.75,3.75,0,0,1,.42-1.83,3,3,0,0,1,1.09-1.18,2.67,2.67,0,0,1,1.47-.4,2.23,2.23,0,0,1,1.73.74,3.14,3.14,0,0,1,.64,2.15v.25H93.68V8h3.78l-.15.15V7.89a2.07,2.07,0,0,0-.4-1.37A1.39,1.39,0,0,0,95.8,6,1.59,1.59,0,0,0,95,6.3a1.84,1.84,0,0,0-.66.78A2.93,2.93,0,0,0,94,8.38v.15a2.83,2.83,0,0,0,.61,2,1.94,1.94,0,0,0,1.55.7,2.08,2.08,0,0,0,1-.21,2.46,2.46,0,0,0,.8-.68l.36.31a2.82,2.82,0,0,1-1,1.1A2.6,2.6,0,0,1,95.92,12.05Z" transform="translate(-0.4 -1.67)"/><path class="cls-1" d="M101.79,12.05a4.72,4.72,0,0,1-1.06-.12,3.85,3.85,0,0,1-.91-.33l-.08-1.55h.67l.28,1.07a1.93,1.93,0,0,0,1.2.37,1.39,1.39,0,0,0,.85-.26.85.85,0,0,0,.34-.7,1,1,0,0,0-.3-.71,3.69,3.69,0,0,0-1.11-.65,5.59,5.59,0,0,1-1.46-.89,1.4,1.4,0,0,1-.42-1.06,1.49,1.49,0,0,1,.29-.9,2,2,0,0,1,.83-.61,3.17,3.17,0,0,1,1.23-.22,5.76,5.76,0,0,1,.82.06,2.84,2.84,0,0,1,.7.18l.16,1.49h-.62l-.37-1a1.5,1.5,0,0,0-.36-.14A2.16,2.16,0,0,0,102,6a1.37,1.37,0,0,0-.86.25.79.79,0,0,0-.32.67,1,1,0,0,0,.34.75,6,6,0,0,0,1.2.7,4.41,4.41,0,0,1,1.36.88,1.44,1.44,0,0,1,.39,1,1.53,1.53,0,0,1-.66,1.25A2.71,2.71,0,0,1,101.79,12.05Z" transform="translate(-0.4 -1.67)"/><path class="cls-1" d="M110.74,12,108.4,6.3l-.7-.2,0-.49h2.49l0,.49-.76.2,1.9,4.76-.43,0,2-4.94.35.89-2.19,5ZM115,12l-2.21-5.7L112,6.1l0-.49h2.48l0,.49-.77.2,1.77,4.76-.35,0L117,6.3l-.77-.2,0-.49h2.24l0,.49-.7.2L115.33,12Z" transform="translate(-0.4 -1.67)"/><path class="cls-1" d="M119,11.94l0-.49.91-.23a2.51,2.51,0,0,0,0-.48c0-.21,0-.5,0-.88V5.45c0-.4,0-.78,0-1.16s0-.7,0-1,0-.44,0-.51l-1.1-.15,0-.41,1.9-.58.24.19,0,.93c0,.31,0,.64,0,1s0,.75,0,1.2,0,1,0,1.52l0,0a3.47,3.47,0,0,1,1-.8A2.36,2.36,0,0,1,123,5.49a1.94,1.94,0,0,1,1,.27,2,2,0,0,1,.79.83,3,3,0,0,1,.31,1.46V9.67c0,.37,0,.69,0,1a5.8,5.8,0,0,0,.06.58l.92.23,0,.49h-2.77l0-.49.86-.23c0-.07,0-.17,0-.27s0-.25,0-.43,0-.42,0-.72V8.11A2.21,2.21,0,0,0,124,7a1.45,1.45,0,0,0-.59-.59,1.52,1.52,0,0,0-.75-.19,1.93,1.93,0,0,0-1,.26,2.49,2.49,0,0,0-.77.72V9.49c0,.47,0,.86,0,1.16s0,.5,0,.57l.92.23,0,.49Z" transform="translate(-0.4 -1.67)"/><path class="cls-1" d="M130.28,12.05a3.16,3.16,0,0,1-1.65-.41,2.9,2.9,0,0,1-1.09-1.16,3.65,3.65,0,0,1-.38-1.71,3.4,3.4,0,0,1,.42-1.72,2.93,2.93,0,0,1,1.15-1.14,3.11,3.11,0,0,1,1.6-.42,3,3,0,0,1,1.57.4,2.75,2.75,0,0,1,1,1.13,3.7,3.7,0,0,1,.38,1.7,3.59,3.59,0,0,1-.4,1.68,3.24,3.24,0,0,1-1.09,1.2A2.75,2.75,0,0,1,130.28,12.05Zm.15-.62a1.44,1.44,0,0,0,.93-.32,2.18,2.18,0,0,0,.63-.89,3.25,3.25,0,0,0,.23-1.28,3.49,3.49,0,0,0-.55-2.06,1.72,1.72,0,0,0-1.48-.8,1.68,1.68,0,0,0-1.39.69,3,3,0,0,0-.53,1.83,3.55,3.55,0,0,0,.28,1.48,2.38,2.38,0,0,0,.77,1A1.9,1.9,0,0,0,130.43,11.43Z" transform="translate(-0.4 -1.67)"/><path class="cls-1" d="M139.9,12l-2.34-5.7-.7-.2,0-.49h2.49l0,.49-.76.2,1.9,4.76-.43,0,2-4.94.35.89-2.19,5Zm4.21,0L141.9,6.3l-.76-.2,0-.49h2.48l0,.49-.77.2,1.78,4.76-.36,0,1.79-4.78-.77-.2,0-.49h2.24l0,.49-.7.2L144.49,12Z" transform="translate(-0.4 -1.67)"/><path class="cls-1" d="M151.31,12.05a3.16,3.16,0,0,1-1.65-.41,2.83,2.83,0,0,1-1.09-1.16,3.65,3.65,0,0,1-.39-1.71,3.4,3.4,0,0,1,.42-1.72,3.07,3.07,0,0,1,1.15-1.14,3.16,3.16,0,0,1,1.6-.42,2.93,2.93,0,0,1,1.57.4A2.77,2.77,0,0,1,154,7a3.7,3.7,0,0,1,.37,1.7,3.48,3.48,0,0,1-.4,1.68,3.24,3.24,0,0,1-1.09,1.2A2.74,2.74,0,0,1,151.31,12.05Zm.15-.62a1.48,1.48,0,0,0,.93-.32,2.18,2.18,0,0,0,.63-.89,3.44,3.44,0,0,0,.23-1.28,3.49,3.49,0,0,0-.56-2.06,1.72,1.72,0,0,0-1.47-.8,1.67,1.67,0,0,0-1.39.69,2.89,2.89,0,0,0-.54,1.83,3.72,3.72,0,0,0,.28,1.48,2.46,2.46,0,0,0,.77,1A1.91,1.91,0,0,0,151.46,11.43Z" transform="translate(-0.4 -1.67)"/><path class="cls-1" d="M161.5,11l.94.23v.45l-1.77.41-.16-.17,0-.91h-.05a2.86,2.86,0,0,1-.88.82,2.06,2.06,0,0,1-1,.23,2.39,2.39,0,0,1-1.64-.59,2.27,2.27,0,0,1-.67-1.8V8.37c0-.3,0-.59,0-.87s0-.56-.05-.82l-1-.21V6l1.84-.5.2.22c0,.31,0,.63,0,1s0,.67,0,1V9.45a1.75,1.75,0,0,0,.45,1.37,1.67,1.67,0,0,0,1.16.4,1.89,1.89,0,0,0,.86-.22,2.08,2.08,0,0,0,.79-.75V8.47c0-.22,0-.44,0-.66s0-.43,0-.63a4.93,4.93,0,0,0-.05-.5l-1.08-.21V6l1.91-.5.18.19c0,.3,0,.55,0,.77s0,.42,0,.62V8.79c0,.64,0,1.12,0,1.46S161.49,10.84,161.5,11Z" transform="translate(-0.4 -1.67)"/><path class="cls-1" d="M163.34,11.94l0-.51,1-.21a2.47,2.47,0,0,0,0-.47c0-.21,0-.5,0-.88V5.37c0-.41,0-.8,0-1.17s0-.67,0-.92,0-.41,0-.47l-1.1-.15,0-.41,1.93-.58.24.19,0,1.26c0,.42,0,.88,0,1.39V6.34l0,2.44q0,.83,0,1.53c0,.46,0,.77.05.91l1,.21,0,.51Z" transform="translate(-0.4 -1.67)"/><path class="cls-1" d="M172.42,12.08l-.16-.17,0-1h-.05a3.19,3.19,0,0,1-.94.86,2,2,0,0,1-1,.25,2.94,2.94,0,0,1-1.52-.39,2.87,2.87,0,0,1-1-1.09A3.2,3.2,0,0,1,167.36,9a3.82,3.82,0,0,1,.25-1.42,3.33,3.33,0,0,1,.7-1.11,3.47,3.47,0,0,1,1-.73,3,3,0,0,1,1.21-.25,4.22,4.22,0,0,1,.93.11,2,2,0,0,1,.79.39c0-.18,0-.42,0-.73s0-.62,0-1,0-.63,0-.88V2.91l-1.17-.22,0-.44,2-.58.24.19c0,.61,0,1.21,0,1.8s0,1.2,0,1.83V8.9c0,.5,0,.94,0,1.31s0,.63.05.78l.93.23v.45Zm-1.86-.9a2,2,0,0,0,.88-.2,2.72,2.72,0,0,0,.82-.72V7.12a1.88,1.88,0,0,0-.78-.8,2,2,0,0,0-.94-.24A1.85,1.85,0,0,0,169,6.8a3,3,0,0,0-.55,1.85,2.63,2.63,0,0,0,.62,1.86A2,2,0,0,0,170.56,11.18Z" transform="translate(-0.4 -1.67)"/><path class="cls-1" d="M178,11.94l0-.51,1-.21a2.47,2.47,0,0,0,0-.47c0-.21,0-.5,0-.88V5.37c0-.41,0-.8,0-1.17s0-.67,0-.92,0-.41,0-.47l-1.1-.15,0-.41,1.93-.58.24.19q0,.64,0,1.26c0,.42,0,.88,0,1.39V6.34l0,2.44q0,.83,0,1.53c0,.46,0,.77.05.91l1,.21,0,.51Z" transform="translate(-0.4 -1.67)"/><path class="cls-1" d="M181.8,11.94l0-.51,1-.21s0-.1,0-.18,0-.24,0-.46,0-.54,0-.95V8.69c0-.44,0-.85,0-1.22s0-.64-.06-.79l-1-.21V6l1.93-.5.16.18c0,.3,0,.6,0,.89s0,.64,0,1V9.49c0,.48,0,.88,0,1.17s0,.49,0,.56l1,.21,0,.51Zm1.49-8.23a.84.84,0,0,1-.58-.22.72.72,0,0,1-.25-.56.73.73,0,0,1,.25-.56.85.85,0,0,1,.58-.23.8.8,0,0,1,.56.23.75.75,0,0,1,.23.56.73.73,0,0,1-.23.56A.79.79,0,0,1,183.29,3.71Z" transform="translate(-0.4 -1.67)"/><path class="cls-1" d="M185.79,11.94l0-.49.84-.23c0-.08,0-.23,0-.44s0-.48,0-.82,0-.73,0-1.19V5.37c0-.4,0-.79,0-1.15s0-.68,0-.93,0-.41,0-.48l-1.09-.15,0-.41,1.91-.58.25.19,0,1c0,.34,0,.68,0,1s0,.71,0,1.08V9.86c0,.26,0,.48,0,.67s0,.34,0,.45,0,.2,0,.24l.91.23,0,.49Zm6.24,0h-1.47c-.18-.25-.31-.43-.41-.54s-.19-.21-.29-.31l-2.1-2.28h-.43v-.3l.61-.17,2-2-1-.18,0-.5h2.89l0,.5-1,.18-2.7,2.48.25-.49,2,2.14a5.06,5.06,0,0,0,.41.43c.17.17.32.32.45.43l.69.15Z" transform="translate(-0.4 -1.67)"/><path class="cls-1" d="M195.69,12.05a3,3,0,0,1-1.51-.37,2.65,2.65,0,0,1-1.07-1.08,3.37,3.37,0,0,1-.4-1.7,3.86,3.86,0,0,1,.41-1.83,3.14,3.14,0,0,1,1.1-1.18,2.63,2.63,0,0,1,1.47-.4,2.23,2.23,0,0,1,1.73.74,3.19,3.19,0,0,1,.64,2.15v.25h-4.61V8h3.78l-.15.15V7.89a2.07,2.07,0,0,0-.41-1.37,1.37,1.37,0,0,0-1.1-.48,1.57,1.57,0,0,0-.85.26,1.71,1.71,0,0,0-.66.78,2.92,2.92,0,0,0-.26,1.3v.15a2.88,2.88,0,0,0,.61,2,2,2,0,0,0,1.56.7,2.11,2.11,0,0,0,.95-.21,2.57,2.57,0,0,0,.8-.68l.35.31a2.73,2.73,0,0,1-1,1.1A2.63,2.63,0,0,1,195.69,12.05Z" transform="translate(-0.4 -1.67)"/><path class="cls-1" d="M41.49,29.31a2,2,0,0,1-.76.69,1.89,1.89,0,0,1-.94.25,2,2,0,0,1-1.43-.54,2.1,2.1,0,0,1-.56-1.6l0-3.6h-1v-.26l1.75-1.68h.22l0,1.6,0,3.69a1.83,1.83,0,0,0,.35,1.22,1.24,1.24,0,0,0,1,.4,1.59,1.59,0,0,0,.66-.14,2,2,0,0,0,.54-.38Zm-3.17-4.8v-.68H41v.68Z" transform="translate(-0.4 -1.67)"/><path class="cls-1" d="M45.06,30.26a3.16,3.16,0,0,1-1.65-.41,2.86,2.86,0,0,1-1.09-1.17A3.6,3.6,0,0,1,41.93,27a3.29,3.29,0,0,1,.43-1.71,3.07,3.07,0,0,1,1.14-1.15,3.26,3.26,0,0,1,1.6-.41,3,3,0,0,1,1.58.4,2.69,2.69,0,0,1,1,1.13,3.7,3.7,0,0,1,.37,1.7,3.48,3.48,0,0,1-.4,1.68,3.15,3.15,0,0,1-1.09,1.2A2.74,2.74,0,0,1,45.06,30.26Zm.15-.62a1.41,1.41,0,0,0,.93-.33,2.08,2.08,0,0,0,.63-.88A3.44,3.44,0,0,0,47,27.15a3.54,3.54,0,0,0-.55-2.07A1.72,1.72,0,0,0,45,24.29a1.67,1.67,0,0,0-1.39.69A2.89,2.89,0,0,0,43,26.81a3.58,3.58,0,0,0,.29,1.48,2.3,2.3,0,0,0,.77,1A1.86,1.86,0,0,0,45.21,29.64Z" transform="translate(-0.4 -1.67)"/><path class="cls-1" d="M52.07,30.14l0-.49.92-.22A4.14,4.14,0,0,0,53,29c0-.21,0-.5,0-.88s0-.86,0-1.47V24.75c0-.34,0-.7,0-1.1s0-.78,0-1.15,0-.7,0-1,0-.44,0-.51l-1.09-.15,0-.42,1.89-.57.24.19c0,.31,0,.61,0,.92s0,.65,0,1,0,.76,0,1.21,0,.95,0,1.52l0,0a3.33,3.33,0,0,1,1-.8,2.36,2.36,0,0,1,1.06-.24,2,2,0,0,1,1.78,1.09,3,3,0,0,1,.31,1.47v1.62c0,.36,0,.69,0,1s0,.47.06.58l.92.22v.49H56.37l0-.49.86-.22q0-.12,0-.27c0-.11,0-.25,0-.43s0-.42,0-.72V26.32A2.21,2.21,0,0,0,57,25.25a1.46,1.46,0,0,0-.58-.6,1.67,1.67,0,0,0-.76-.18,1.78,1.78,0,0,0-1,.26,2.29,2.29,0,0,0-.77.72V27.7c0,.47,0,.86,0,1.16s0,.49,0,.57l.91.22,0,.49Z" transform="translate(-0.4 -1.67)"/><path class="cls-1" d="M63.32,30.26a3.17,3.17,0,0,1-1.66-.41,2.86,2.86,0,0,1-1.09-1.17A3.71,3.71,0,0,1,60.19,27a3.39,3.39,0,0,1,.42-1.71,3.1,3.1,0,0,1,1.15-1.15,3.23,3.23,0,0,1,1.6-.41,3,3,0,0,1,1.57.4,2.71,2.71,0,0,1,1,1.13,3.83,3.83,0,0,1,.37,1.7,3.59,3.59,0,0,1-.4,1.68,3.24,3.24,0,0,1-1.09,1.2A2.74,2.74,0,0,1,63.32,30.26Zm.14-.62a1.44,1.44,0,0,0,.94-.33,2.27,2.27,0,0,0,.63-.88,3.44,3.44,0,0,0,.23-1.28,3.54,3.54,0,0,0-.56-2.07,1.71,1.71,0,0,0-1.47-.79,1.69,1.69,0,0,0-1.4.69,3,3,0,0,0-.53,1.83,3.59,3.59,0,0,0,.28,1.48,2.46,2.46,0,0,0,.77,1A1.9,1.9,0,0,0,63.46,29.64Z" transform="translate(-0.4 -1.67)"/><path class="cls-1" d="M67.49,30.14l0-.49.92-.22a2.19,2.19,0,0,0,0-.29c0-.11,0-.27,0-.48s0-.48,0-.83V26.68c0-.34,0-.68,0-1s0-.61-.06-.77l-1-.2v-.45l1.81-.5.21.22-.08.77,0,0a3.6,3.6,0,0,1,1-.8,2.4,2.4,0,0,1,1.07-.24,2,2,0,0,1,1,.26,2,2,0,0,1,.79.81,2.89,2.89,0,0,1,.31,1.43v1.68c0,.36,0,.69,0,1a5.5,5.5,0,0,0,.06.57l.92.22,0,.49H71.78l0-.49.86-.22q0-.12,0-.27c0-.11,0-.25,0-.43s0-.42,0-.72v-1.7a2,2,0,0,0-.26-1.1,1.38,1.38,0,0,0-.61-.57,1.72,1.72,0,0,0-.71-.17,1.82,1.82,0,0,0-1,.26,2.39,2.39,0,0,0-.77.72V27.7c0,.48,0,.86,0,1.14s0,.47,0,.59l.92.22,0,.49Z" transform="translate(-0.4 -1.67)"/><path class="cls-1" d="M78.74,30.26a3.16,3.16,0,0,1-1.65-.41A2.86,2.86,0,0,1,76,28.68,3.6,3.6,0,0,1,75.61,27,3.29,3.29,0,0,1,76,25.26a3.07,3.07,0,0,1,1.14-1.15,3.26,3.26,0,0,1,1.6-.41,3,3,0,0,1,1.58.4,2.69,2.69,0,0,1,1,1.13,3.7,3.7,0,0,1,.37,1.7,3.48,3.48,0,0,1-.4,1.68,3.15,3.15,0,0,1-1.09,1.2A2.74,2.74,0,0,1,78.74,30.26Zm.15-.62a1.41,1.41,0,0,0,.93-.33,2.08,2.08,0,0,0,.63-.88,3.44,3.44,0,0,0,.23-1.28,3.54,3.54,0,0,0-.55-2.07,1.72,1.72,0,0,0-1.48-.79,1.67,1.67,0,0,0-1.39.69,2.88,2.88,0,0,0-.53,1.83A3.59,3.59,0,0,0,77,28.29a2.3,2.3,0,0,0,.77,1A1.86,1.86,0,0,0,78.89,29.64Z" transform="translate(-0.4 -1.67)"/><path class="cls-1" d="M83,30.14l0-.49.92-.22c0-.05,0-.14,0-.26s0-.3,0-.52,0-.49,0-.82V26.66c0-.34,0-.69,0-1s0-.59-.06-.75l-1-.2v-.45l1.81-.5.17.19-.07,1.26.05,0A3.08,3.08,0,0,1,85.7,24a1.53,1.53,0,0,1,.85-.31.85.85,0,0,1,.54.17.54.54,0,0,1,.21.46.55.55,0,0,1-.22.47,1,1,0,0,1-.58.16,1.07,1.07,0,0,1-.48-.12,1.66,1.66,0,0,1-.42-.29l.22.1a2.53,2.53,0,0,0-.55.54,3.64,3.64,0,0,0-.48.84v1.44c0,.21,0,.45,0,.71s0,.49,0,.72,0,.39,0,.52l1.29.2,0,.51Z" transform="translate(-0.4 -1.67)"/><path class="cls-1" d="M97,29.2l.93.23v.45l-1.76.41L96,30.12l0-.91h0a2.75,2.75,0,0,1-.88.82,2.05,2.05,0,0,1-1,.23,2.38,2.38,0,0,1-1.65-.6,2.28,2.28,0,0,1-.67-1.79V26.57c0-.29,0-.58,0-.86s0-.56,0-.83l-1-.2v-.45l1.84-.5.21.22c0,.31,0,.62,0,.95s0,.67,0,1v1.71A1.76,1.76,0,0,0,93.15,29a1.67,1.67,0,0,0,1.16.4,1.86,1.86,0,0,0,.86-.22,2.08,2.08,0,0,0,.79-.75V26.68c0-.22,0-.44,0-.66s0-.43,0-.63,0-.37-.05-.51l-1.08-.2v-.45l1.91-.5.18.19c0,.3,0,.55,0,.76s0,.42,0,.63V27c0,.63,0,1.12,0,1.46S97,29.05,97,29.2Z" transform="translate(-0.4 -1.67)"/><path class="cls-1" d="M101.25,30.26a4.72,4.72,0,0,1-1.06-.12,3.85,3.85,0,0,1-.91-.34l-.08-1.54h.67l.28,1.07a1.93,1.93,0,0,0,1.2.37,1.39,1.39,0,0,0,.85-.26.85.85,0,0,0,.34-.7.94.94,0,0,0-.3-.71,3.88,3.88,0,0,0-1.11-.66,5.35,5.35,0,0,1-1.46-.88,1.4,1.4,0,0,1-.42-1.06,1.49,1.49,0,0,1,.29-.9,2,2,0,0,1,.83-.61,3.17,3.17,0,0,1,1.23-.22,5.76,5.76,0,0,1,.82.06,2.84,2.84,0,0,1,.7.18l.16,1.49h-.62l-.37-1a1.18,1.18,0,0,0-.36-.14,1.66,1.66,0,0,0-.46-.05,1.35,1.35,0,0,0-.86.25.79.79,0,0,0-.32.67.91.91,0,0,0,.34.74,5.48,5.48,0,0,0,1.2.71,4.41,4.41,0,0,1,1.36.88,1.43,1.43,0,0,1,.38,1,1.53,1.53,0,0,1-.65,1.26A2.71,2.71,0,0,1,101.25,30.26Z" transform="translate(-0.4 -1.67)"/><path class="cls-1" d="M110.2,30.2l-2.34-5.69-.7-.2,0-.49h2.49l0,.49-.76.2,1.9,4.76-.43,0,2-4.94.36.89-2.19,5Zm4.21,0-2.21-5.69-.76-.2,0-.49H114l0,.49-.77.2L115,29.27l-.35,0,1.79-4.78-.77-.2,0-.49h2.24l0,.49-.7.2-2.46,5.69Z" transform="translate(-0.4 -1.67)"/><path class="cls-1" d="M118.47,30.14l0-.5,1-.21a.74.74,0,0,0,0-.18c0-.09,0-.24,0-.46V26.9c0-.44,0-.85,0-1.22s0-.64-.06-.8l-1-.2v-.45l1.93-.5.16.18c0,.3,0,.6,0,.89s0,.64,0,1V27.7c0,.48,0,.87,0,1.17s0,.48,0,.56l1,.21,0,.5ZM120,21.92a.84.84,0,0,1-.58-.22.72.72,0,0,1-.25-.57.71.71,0,0,1,.25-.55.85.85,0,0,1,.58-.23.8.8,0,0,1,.56.23.74.74,0,0,1,.24.55.75.75,0,0,1-.24.57A.79.79,0,0,1,120,21.92Z" transform="translate(-0.4 -1.67)"/><path class="cls-1" d="M126.85,29.31a2.06,2.06,0,0,1-.75.69,2.05,2.05,0,0,1-2.37-.29,2.07,2.07,0,0,1-.57-1.6l0-3.6h-1v-.26l1.75-1.68h.22l0,1.6v3.69a1.83,1.83,0,0,0,.34,1.22,1.26,1.26,0,0,0,1,.4,1.58,1.58,0,0,0,.65-.14,1.93,1.93,0,0,0,.55-.38Zm-3.17-4.8v-.68h2.71v.68Z" transform="translate(-0.4 -1.67)"/><path class="cls-1" d="M127.28,30.14l0-.49.92-.22a4.14,4.14,0,0,0,0-.48c0-.21,0-.5,0-.88s0-.86,0-1.47V24.75c0-.34,0-.7,0-1.1s0-.78,0-1.15,0-.7,0-1V21l-1.1-.15,0-.42,1.9-.57.23.19c0,.31,0,.61,0,.92s0,.65,0,1,0,.76,0,1.21,0,.95,0,1.52l.05,0a3.45,3.45,0,0,1,1-.8,2.4,2.4,0,0,1,1.07-.24,2.09,2.09,0,0,1,1,.26,2.11,2.11,0,0,1,.79.83,3.14,3.14,0,0,1,.31,1.47v1.62c0,.36,0,.69,0,1s0,.47.06.58l.92.22,0,.49h-2.77l-.05-.49.86-.22q0-.12,0-.27c0-.11,0-.25,0-.43V26.32a2.1,2.1,0,0,0-.23-1.07,1.4,1.4,0,0,0-.58-.6,1.67,1.67,0,0,0-.76-.18,1.82,1.82,0,0,0-1,.26,2.39,2.39,0,0,0-.77.72V27.7c0,.47,0,.86,0,1.16s0,.49,0,.57l.92.22,0,.49Z" transform="translate(-0.4 -1.67)"/><path class="cls-1" d="M141,33.52a4.14,4.14,0,0,1-2.08-.45,1.34,1.34,0,0,1-.77-1.18,1.43,1.43,0,0,1,.37-.95,5,5,0,0,1,1.25-.93l.53.15a2.59,2.59,0,0,0-.8.68,1.4,1.4,0,0,0-.28.85,1.07,1.07,0,0,0,.49.94,2.26,2.26,0,0,0,1.33.34,2.74,2.74,0,0,0,1.61-.43,1.31,1.31,0,0,0,.62-1.12.9.9,0,0,0-.39-.8,2.59,2.59,0,0,0-1.26-.33l-1.51-.12-.25-.05a1.37,1.37,0,0,1-.86-.29.88.88,0,0,1-.36-.69,1.14,1.14,0,0,1,.36-.77,3.29,3.29,0,0,1,1-.69l.17.32a2.37,2.37,0,0,0-.45.38.5.5,0,0,0-.14.31.46.46,0,0,0,.21.38,1.24,1.24,0,0,0,.58.2l1.82.18a3.13,3.13,0,0,1,1.51.5,1.41,1.41,0,0,1,.53,1.19,1.86,1.86,0,0,1-.43,1.2,2.78,2.78,0,0,1-1.16.86A4,4,0,0,1,141,33.52Zm.13-5.24a3.09,3.09,0,0,1-1.34-.28,2.13,2.13,0,0,1-.93-.76,1.86,1.86,0,0,1-.34-1.1,2.35,2.35,0,0,1,.34-1.24,2.43,2.43,0,0,1,.93-.87,2.73,2.73,0,0,1,1.31-.32,3,3,0,0,1,1.32.29,2.2,2.2,0,0,1,.9.8,2.1,2.1,0,0,1,.33,1.16,2.16,2.16,0,0,1-.33,1.18,2.43,2.43,0,0,1-.91.83A2.58,2.58,0,0,1,141.15,28.28Zm.08-.52a1.26,1.26,0,0,0,1-.45,1.79,1.79,0,0,0,.38-1.21,2.1,2.1,0,0,0-.42-1.37,1.44,1.44,0,0,0-2.17,0,1.83,1.83,0,0,0-.41,1.25,1.91,1.91,0,0,0,.43,1.3A1.46,1.46,0,0,0,141.23,27.76Zm3.36-3.05-1.71-.11-.57-.56,2.28-.22Z" transform="translate(-0.4 -1.67)"/><path class="cls-1" d="M145.31,30.14l0-.5,1-.21s0-.1,0-.18,0-.24,0-.46,0-.54,0-1V26.9c0-.44,0-.85,0-1.22s0-.64-.06-.8l-1-.2v-.45l1.93-.5.16.18c0,.3,0,.6-.05.89s0,.64,0,1V27.7c0,.48,0,.87,0,1.17s0,.48,0,.56l1,.21,0,.5Zm1.49-8.22a.84.84,0,0,1-.58-.22.72.72,0,0,1-.25-.57.71.71,0,0,1,.25-.55.85.85,0,0,1,.58-.23.8.8,0,0,1,.56.23.74.74,0,0,1,.24.55.75.75,0,0,1-.24.57A.79.79,0,0,1,146.8,21.92Z" transform="translate(-0.4 -1.67)"/><path class="cls-1" d="M149.09,24.53V24.1l1.07-.25h2.59v.68Zm3.23,5.61h-3l0-.49.92-.22c0-.08,0-.17,0-.28v-6.4a4,4,0,0,1,.28-1.59,2.26,2.26,0,0,1,.79-1,2,2,0,0,1,1.18-.35,1.67,1.67,0,0,1,.94.25.75.75,0,0,1,.38.63.36.36,0,0,1-.12.28.4.4,0,0,1-.29.12.91.91,0,0,1-.67-.32l-.64-.6.28.09a1,1,0,0,0-.89.57,3.14,3.14,0,0,0-.32,1.57v2.14l0,2.76c0,.41,0,.82,0,1.22s0,.71,0,.92l1.21.18Z" transform="translate(-0.4 -1.67)"/><path class="cls-1" d="M158.07,29.31a2,2,0,0,1-.75.69,2.05,2.05,0,0,1-2.37-.29,2.07,2.07,0,0,1-.57-1.6l.05-3.6h-1v-.26l1.75-1.68h.22l0,1.6v3.69a1.78,1.78,0,0,0,.35,1.22,1.23,1.23,0,0,0,1,.4,1.58,1.58,0,0,0,.65-.14,1.93,1.93,0,0,0,.55-.38Zm-3.17-4.8v-.68h2.71v.68Z" transform="translate(-0.4 -1.67)"/><path class="cls-1" d="M160.75,30.26a4.7,4.7,0,0,1-1.05-.12,3.93,3.93,0,0,1-.92-.34l-.07-1.54h.67l.28,1.07a1.89,1.89,0,0,0,1.2.37,1.36,1.36,0,0,0,.84-.26.83.83,0,0,0,.34-.7.94.94,0,0,0-.29-.71,3.88,3.88,0,0,0-1.11-.66,5.19,5.19,0,0,1-1.46-.88,1.41,1.41,0,0,1-.43-1.06,1.44,1.44,0,0,1,.3-.9,2,2,0,0,1,.83-.61,3.17,3.17,0,0,1,1.23-.22,5.76,5.76,0,0,1,.82.06,2.87,2.87,0,0,1,.69.18l.17,1.49h-.63l-.37-1a1.22,1.22,0,0,0-.35-.14,1.71,1.71,0,0,0-.46-.05,1.33,1.33,0,0,0-.86.25.8.8,0,0,0-.33.67,1,1,0,0,0,.34.74,6,6,0,0,0,1.2.71,4.48,4.48,0,0,1,1.37.88,1.47,1.47,0,0,1,.38,1,1.51,1.51,0,0,1-.66,1.26A2.69,2.69,0,0,1,160.75,30.26Z" transform="translate(-0.4 -1.67)"/><path class="cls-1" d="M164.28,32.6l-.19-.37a2.29,2.29,0,0,0,.81-.6,1.26,1.26,0,0,0,.31-.86.83.83,0,0,0-.06-.34,1.88,1.88,0,0,0-.16-.23l-.2-.2a1.06,1.06,0,0,1-.17-.23.68.68,0,0,1-.07-.35.69.69,0,0,1,.2-.47.73.73,0,0,1,.54-.21.72.72,0,0,1,.44.14,1,1,0,0,1,.31.4,1.49,1.49,0,0,1,.12.64,2.54,2.54,0,0,1-.25,1.08,3.58,3.58,0,0,1-.67,1A2.76,2.76,0,0,1,164.28,32.6Z" transform="translate(-0.4 -1.67)"/><path class="cls-1" d="M.49,51.61l0-.49.92-.22s0-.13,0-.24,0-.25,0-.44,0-.4,0-.66v-.93l0-3.86c0-.3,0-.61,0-1s0-.57-.07-.73L.4,42.88v-.44l1.81-.5.21.22-.06.8h0a3.08,3.08,0,0,1,.92-.8,2.26,2.26,0,0,1,1.05-.25,2.61,2.61,0,0,1,1.48.41,2.81,2.81,0,0,1,1,1.13,3.58,3.58,0,0,1,.35,1.6,3.51,3.51,0,0,1-.44,1.76A3.32,3.32,0,0,1,5.56,48a3.24,3.24,0,0,1-1.66.44,3.77,3.77,0,0,1-.8-.09,4.53,4.53,0,0,1-.73-.2v1.17c0,.39,0,.71,0,1s0,.45,0,.59l1.22.18,0,.53ZM4,47.82a2,2,0,0,0,1.1-.31,2.13,2.13,0,0,0,.76-.86,3.31,3.31,0,0,0,.28-1.37A2.89,2.89,0,0,0,5.87,44a2.35,2.35,0,0,0-.71-.92,1.76,1.76,0,0,0-1.07-.35,1.84,1.84,0,0,0-.93.24,2.5,2.5,0,0,0-.79.68v3.64a2,2,0,0,0,.73.38A2.85,2.85,0,0,0,4,47.82Z" transform="translate(-0.4 -1.67)"/><path class="cls-1" d="M8.31,48.35l0-.5,1-.21a2.83,2.83,0,0,0,0-.47c0-.21,0-.51,0-.89s0-.87,0-1.47V43c0-.38,0-.77,0-1.18s0-.8,0-1.16,0-.68,0-.93,0-.41,0-.47l-1.1-.14,0-.42,1.93-.58.24.2,0,1.26c0,.41,0,.87,0,1.38s0,1.12,0,1.83l0,2.45c0,.55,0,1.06,0,1.52s0,.77.05.92l1,.21,0,.5Z" transform="translate(-0.4 -1.67)"/><path class="cls-1" d="M15.34,48.47a3,3,0,0,1-1.51-.37A2.71,2.71,0,0,1,12.76,47a3.43,3.43,0,0,1-.4-1.71,3.86,3.86,0,0,1,.41-1.83,3.06,3.06,0,0,1,1.1-1.18,2.7,2.7,0,0,1,1.47-.39,2.21,2.21,0,0,1,1.73.74,3.18,3.18,0,0,1,.64,2.14v.26H13.1v-.63h3.78l-.15.15v-.26a2.06,2.06,0,0,0-.41-1.37,1.38,1.38,0,0,0-1.1-.49,1.57,1.57,0,0,0-.85.26,1.76,1.76,0,0,0-.66.78,3,3,0,0,0-.26,1.3v.15a2.91,2.91,0,0,0,.61,2,2,2,0,0,0,1.56.7,2.11,2.11,0,0,0,1-.21,2.71,2.71,0,0,0,.8-.68l.35.31a2.84,2.84,0,0,1-1,1.09A2.63,2.63,0,0,1,15.34,48.47Z" transform="translate(-0.4 -1.67)"/><path class="cls-1" d="M21.23,48.47a2.22,2.22,0,0,1-1-.22,2,2,0,0,1-.72-.58,1.3,1.3,0,0,1-.26-.77,1.07,1.07,0,0,1,.32-.79,2.67,2.67,0,0,1,1.09-.57l2.23-.79v-.81a1.11,1.11,0,0,0-.23-.7,1.49,1.49,0,0,0-.61-.49,2.07,2.07,0,0,0-.88-.18.76.76,0,0,0-.54.16,1.27,1.27,0,0,0-.17.67l0,.54a1.29,1.29,0,0,1-.81,0,.48.48,0,0,1-.34-.48.7.7,0,0,1,.2-.47A2.47,2.47,0,0,1,20,42.5a3.61,3.61,0,0,1,.73-.38,3.78,3.78,0,0,1,.8-.21,2.37,2.37,0,0,1,1.66.56A1.91,1.91,0,0,1,23.86,44l0,2.61a4.79,4.79,0,0,0,0,.52,1.39,1.39,0,0,0,.07.41l.93.18v.4l-.67.24-.35.12a.92.92,0,0,1-.26,0c-.28,0-.46-.16-.53-.49l-.13-.56.19,0a3.88,3.88,0,0,1-.94.81A1.87,1.87,0,0,1,21.23,48.47Zm.31-.74a1.47,1.47,0,0,0,.71-.18,2.14,2.14,0,0,0,.64-.55V45.42L21,45.94a.84.84,0,0,0-.51.28.87.87,0,0,0-.16.52.91.91,0,0,0,.36.68A1.19,1.19,0,0,0,21.54,47.73Z" transform="translate(-0.4 -1.67)"/><path class="cls-1" d="M28.15,48.47a4.27,4.27,0,0,1-1.06-.13,3.59,3.59,0,0,1-.91-.33l-.07-1.54h.67l.28,1.07a2,2,0,0,0,1.2.37,1.38,1.38,0,0,0,.84-.26.85.85,0,0,0,.34-.71,1,1,0,0,0-.29-.71A4.1,4.1,0,0,0,28,45.58a5.52,5.52,0,0,1-1.45-.88,1.39,1.39,0,0,1-.43-1.06,1.44,1.44,0,0,1,.3-.91,2,2,0,0,1,.83-.6,3.11,3.11,0,0,1,1.23-.22,7.34,7.34,0,0,1,.81.05,2.84,2.84,0,0,1,.7.18l.16,1.5h-.62l-.37-1a1.18,1.18,0,0,0-.36-.14,1.58,1.58,0,0,0-.45-.06,1.34,1.34,0,0,0-.86.26.78.78,0,0,0-.33.66.92.92,0,0,0,.34.75,6.11,6.11,0,0,0,1.2.7,4.28,4.28,0,0,1,1.36.89,1.44,1.44,0,0,1,.39,1A1.51,1.51,0,0,1,29.82,48,2.7,2.7,0,0,1,28.15,48.47Z" transform="translate(-0.4 -1.67)"/><path class="cls-1" d="M34.78,48.47a3,3,0,0,1-1.51-.37A2.78,2.78,0,0,1,32.2,47a3.43,3.43,0,0,1-.4-1.71,3.86,3.86,0,0,1,.41-1.83,3.14,3.14,0,0,1,1.1-1.18,2.7,2.7,0,0,1,1.47-.39,2.2,2.2,0,0,1,1.73.74,3.13,3.13,0,0,1,.64,2.14v.26H32.54v-.63h3.78l-.15.15v-.26a2.06,2.06,0,0,0-.41-1.37,1.38,1.38,0,0,0-1.1-.49,1.57,1.57,0,0,0-.85.26,1.76,1.76,0,0,0-.66.78,3,3,0,0,0-.25,1.3v.15a2.91,2.91,0,0,0,.6,2,2,2,0,0,0,1.56.7,2.11,2.11,0,0,0,.95-.21,2.71,2.71,0,0,0,.8-.68l.35.31a2.77,2.77,0,0,1-1,1.09A2.63,2.63,0,0,1,34.78,48.47Z" transform="translate(-0.4 -1.67)"/><path class="cls-1" d="M45,48.35l0-.5,1-.21c0-.1,0-.2,0-.3s0-.26,0-.46,0-.48,0-.84V44.81c0-.57,0-1,0-1.35s0-.57-.05-.73h-5V42.3L42,42h4.45L47,42l0,.9v3.83c0,.22,0,.41,0,.55s0,.26,0,.35l1,.21,0,.5Zm-3.95,0,0-.49.92-.22c0-.13,0-.28,0-.45s0-.4,0-.68V41.42a3.63,3.63,0,0,1,.46-1.93,2.87,2.87,0,0,1,1.2-1.12A3.57,3.57,0,0,1,45.24,38a2.43,2.43,0,0,1,1.43.37,1,1,0,0,1,.54.83.56.56,0,0,1-.14.39.55.55,0,0,1-.44.16,1,1,0,0,1-.41-.09,1.74,1.74,0,0,1-.45-.39l-.83-.87.83.19a2.51,2.51,0,0,0-1.36.11,2.11,2.11,0,0,0-1.07.85,2.77,2.77,0,0,0-.41,1.6v5l0,.75,0,.75,1,.22,0,.49Z" transform="translate(-0.4 -1.67)"/><path class="cls-1" d="M49,48.35l0-.49.92-.22a2.33,2.33,0,0,0,0-.29c0-.11,0-.27,0-.48s0-.49,0-.83V44.88c0-.33,0-.67,0-1s0-.6-.06-.76l-1-.21v-.44l1.81-.5.2.22-.07.77h0a4,4,0,0,1,1-.8A2.39,2.39,0,0,1,53,41.91,2,2,0,0,1,54.74,43a3,3,0,0,1,.31,1.43v1.67c0,.37,0,.7,0,1a5.46,5.46,0,0,0,.06.58l.91.22,0,.49H53.25l0-.49.86-.22q0-.12,0-.27c0-.11,0-.25,0-.43V44.51a2,2,0,0,0-.25-1.09,1.44,1.44,0,0,0-.61-.57,1.6,1.6,0,0,0-.71-.17,1.82,1.82,0,0,0-1,.26,2.47,2.47,0,0,0-.77.71v2.26c0,.48,0,.86,0,1.14s0,.47,0,.59l.92.22,0,.49Z" transform="translate(-0.4 -1.67)"/><path class="cls-1" d="M62.14,48.5,62,48.32l0-1h0a2.94,2.94,0,0,1-.94.86,2,2,0,0,1-1,.26,3,3,0,0,1-1.52-.4,2.84,2.84,0,0,1-1-1.08,3.26,3.26,0,0,1-.37-1.58A3.8,3.8,0,0,1,57.33,44a3.33,3.33,0,0,1,.7-1.11,3.08,3.08,0,0,1,1-.73,2.91,2.91,0,0,1,1.2-.26,3.71,3.71,0,0,1,.93.12,2.15,2.15,0,0,1,.79.38c0-.17,0-.42,0-.72s0-.63,0-1,0-.62,0-.88v-.5l-1.17-.22,0-.45,2-.58.24.2c0,.61,0,1.21,0,1.8v1.83l0,3.4c0,.51,0,.94,0,1.32s0,.62.05.77l.93.24v.44Zm-1.86-.9a1.84,1.84,0,0,0,.88-.21,2.81,2.81,0,0,0,.82-.71V43.54a1.91,1.91,0,0,0-.78-.81,2.14,2.14,0,0,0-.94-.23,1.85,1.85,0,0,0-1.55.72,2.92,2.92,0,0,0-.55,1.84,2.67,2.67,0,0,0,.62,1.87A2,2,0,0,0,60.28,47.6Z" transform="translate(-0.4 -1.67)"/><path class="cls-1" d="M72.19,47.52a2.08,2.08,0,0,1-1.7.94,2,2,0,0,1-1.43-.54,2.12,2.12,0,0,1-.56-1.6l0-3.6h-1v-.27l1.75-1.67h.22l0,1.6,0,3.69a1.85,1.85,0,0,0,.35,1.22,1.25,1.25,0,0,0,1,.39,1.45,1.45,0,0,0,.66-.14,1.73,1.73,0,0,0,.54-.37ZM69,42.72V42h2.71v.68Z" transform="translate(-0.4 -1.67)"/><path class="cls-1" d="M72.62,48.35l0-.49.92-.22a4.14,4.14,0,0,0,0-.48c0-.21,0-.51,0-.88s0-.87,0-1.47V43c0-.34,0-.7,0-1.1s0-.78,0-1.15,0-.7,0-1,0-.44,0-.51l-1.09-.14,0-.42,1.89-.58.24.2c0,.3,0,.61,0,.92s0,.65,0,1,0,.76,0,1.2,0,1,0,1.53h0a3.67,3.67,0,0,1,1-.8,2.39,2.39,0,0,1,1.07-.23,2,2,0,0,1,1,.26,2,2,0,0,1,.78.83,3,3,0,0,1,.32,1.47v1.61c0,.37,0,.69,0,1a4.41,4.41,0,0,0,0,.59l.92.22v.49H76.92l0-.49.86-.22,0-.27c0-.11,0-.25,0-.43s0-.43,0-.72V44.53a2.25,2.25,0,0,0-.23-1.08,1.43,1.43,0,0,0-.58-.59,1.67,1.67,0,0,0-.76-.18,1.8,1.8,0,0,0-1,.26,2.36,2.36,0,0,0-.77.71v2.26c0,.47,0,.86,0,1.16s0,.49,0,.57l.92.22,0,.49Z" transform="translate(-0.4 -1.67)"/><path class="cls-1" d="M83.73,48.47a3,3,0,0,1-1.5-.37A2.71,2.71,0,0,1,81.16,47a3.43,3.43,0,0,1-.41-1.71,3.75,3.75,0,0,1,.42-1.83,3.06,3.06,0,0,1,1.1-1.18,2.69,2.69,0,0,1,1.46-.39,2.23,2.23,0,0,1,1.74.74,3.18,3.18,0,0,1,.63,2.14v.26H81.5v-.63h3.77l-.14.15v-.26a2.06,2.06,0,0,0-.41-1.37,1.38,1.38,0,0,0-1.11-.49,1.59,1.59,0,0,0-.85.26,1.9,1.9,0,0,0-.66.78,3.1,3.1,0,0,0-.25,1.3v.15a2.86,2.86,0,0,0,.61,2,2,2,0,0,0,1.55.7,2,2,0,0,0,.95-.21,2.49,2.49,0,0,0,.8-.68l.36.31a2.84,2.84,0,0,1-1,1.09A2.64,2.64,0,0,1,83.73,48.47Z" transform="translate(-0.4 -1.67)"/><path class="cls-1" d="M90,48.35l0-.5,1-.21a1.64,1.64,0,0,0,0-.18c0-.09,0-.24,0-.46s0-.54,0-1v-.93q0-.68,0-1.23c0-.37,0-.63-.06-.79l-1-.21v-.44l1.92-.5.17.17c0,.31,0,.61,0,.9s0,.63,0,1v1.87q0,.72,0,1.17c0,.29,0,.48,0,.56l1,.21,0,.5Zm1.48-8.22a.83.83,0,0,1-.57-.23.7.7,0,0,1-.26-.56.72.72,0,0,1,.26-.55.78.78,0,0,1,.57-.23.79.79,0,0,1,.8.78.74.74,0,0,1-.23.56A.81.81,0,0,1,91.45,40.13Z" transform="translate(-0.4 -1.67)"/><path class="cls-1" d="M93.88,48.35l0-.49.92-.22a2.33,2.33,0,0,0,0-.29c0-.11,0-.27,0-.48s0-.49,0-.83V44.88c0-.33,0-.67,0-1s0-.6-.06-.76l-1-.21v-.44l1.81-.5.2.22-.07.77h0a4,4,0,0,1,1-.8,2.39,2.39,0,0,1,1.07-.23,2.05,2.05,0,0,1,1,.25,2.08,2.08,0,0,1,.79.82,3,3,0,0,1,.31,1.43v1.67c0,.37,0,.7,0,1a5.46,5.46,0,0,0,.06.58l.92.22,0,.49H98.17l0-.49.86-.22c0-.08,0-.17,0-.27s0-.25,0-.43V44.51a2,2,0,0,0-.25-1.09,1.44,1.44,0,0,0-.61-.57,1.57,1.57,0,0,0-.71-.17,1.82,1.82,0,0,0-1,.26,2.47,2.47,0,0,0-.77.71v2.26c0,.48,0,.86,0,1.14s0,.47,0,.59l.92.22,0,.49Z" transform="translate(-0.4 -1.67)"/><path class="cls-1" d="M101.75,42.73V42.3l1.07-.25h2.59v.68ZM105,48.35h-3l0-.49.92-.22c0-.08,0-.17,0-.28V41a3.94,3.94,0,0,1,.28-1.59,2.31,2.31,0,0,1,.78-1,2.08,2.08,0,0,1,1.19-.35,1.61,1.61,0,0,1,.93.25.74.74,0,0,1,.39.62.37.37,0,0,1-.12.29.4.4,0,0,1-.3.11.88.88,0,0,1-.66-.31l-.64-.61.28.09a1,1,0,0,0-.89.57,3.18,3.18,0,0,0-.32,1.58v2.13l0,2.76v1.23c0,.41,0,.71,0,.92l1.21.18Z" transform="translate(-0.4 -1.67)"/><path class="cls-1" d="M109.43,48.47a3.17,3.17,0,0,1-1.66-.42,2.69,2.69,0,0,1-1.08-1.16,3.65,3.65,0,0,1-.39-1.71,3.39,3.39,0,0,1,.42-1.71,3.1,3.1,0,0,1,1.15-1.15,3.13,3.13,0,0,1,1.6-.41,3,3,0,0,1,1.57.39,2.74,2.74,0,0,1,1,1.14,3.66,3.66,0,0,1,.37,1.69,3.49,3.49,0,0,1-.4,1.69A3.24,3.24,0,0,1,111,48,2.74,2.74,0,0,1,109.43,48.47Zm.14-.62a1.44,1.44,0,0,0,.94-.33,2.3,2.3,0,0,0,.63-.89,3.38,3.38,0,0,0,.23-1.27,3.54,3.54,0,0,0-.56-2.07,1.71,1.71,0,0,0-1.47-.79,1.69,1.69,0,0,0-1.4.69,3,3,0,0,0-.53,1.83,3.62,3.62,0,0,0,.28,1.48,2.5,2.5,0,0,0,.77,1A1.84,1.84,0,0,0,109.57,47.85Z" transform="translate(-0.4 -1.67)"/><path class="cls-1" d="M113.63,48.35l0-.49.91-.22a2.65,2.65,0,0,0,0-.27c0-.13,0-.3,0-.51s0-.49,0-.82V44.87c0-.35,0-.69,0-1s0-.59-.07-.75l-.94-.21v-.44l1.8-.5.18.19-.07,1.26h0a3.25,3.25,0,0,1,.92-1.18,1.59,1.59,0,0,1,.85-.3.89.89,0,0,1,.54.16.56.56,0,0,1,.21.46.55.55,0,0,1-.22.48,1,1,0,0,1-.58.16,1,1,0,0,1-.48-.12,2.42,2.42,0,0,1-.42-.29l.22.1a2.72,2.72,0,0,0-.55.53,4,4,0,0,0-.49.85l0,1.43c0,.22,0,.46,0,.71s0,.5,0,.72,0,.4,0,.53l1.29.19,0,.52Z" transform="translate(-0.4 -1.67)"/><path class="cls-1" d="M118.82,48.35l0-.49.92-.22a2.13,2.13,0,0,0,0-.27c0-.09,0-.25,0-.46V46l0-1.17c0-.22,0-.44,0-.67s0-.45,0-.66a3.17,3.17,0,0,0,0-.45l-1-.21v-.44l1.8-.5.21.22-.07.8h0a3,3,0,0,1,1-.82,2.25,2.25,0,0,1,1-.24,2.06,2.06,0,0,1,1,.27,2.22,2.22,0,0,1,.81.85,3,3,0,0,1,.33,1.48v1.57c0,.37,0,.69,0,1s0,.48.06.59l.9.22,0,.49H123l0-.49.81-.22,0-.27c0-.11,0-.25,0-.43V44.51a2.22,2.22,0,0,0-.22-1.06,1.32,1.32,0,0,0-.55-.59,1.55,1.55,0,0,0-.73-.18,1.81,1.81,0,0,0-.91.23,2.22,2.22,0,0,0-.76.74v2.26c0,.48,0,.86,0,1.14s0,.47,0,.59l.89.22,0,.49Zm8.25,0,0-.49.85-.22a2.13,2.13,0,0,0,0-.27c0-.11,0-.25,0-.43s0-.43,0-.72V44.51a2.22,2.22,0,0,0-.23-1.08,1.45,1.45,0,0,0-.6-.58,1.49,1.49,0,0,0-.69-.17,1.9,1.9,0,0,0-1,.27,2.7,2.7,0,0,0-.83.85l-.23-.53a3.57,3.57,0,0,1,1.09-1.05,2.52,2.52,0,0,1,1.22-.31,2.16,2.16,0,0,1,1.09.28,2,2,0,0,1,.79.83,2.75,2.75,0,0,1,.3,1.35v1.71c0,.37,0,.69,0,1a4.41,4.41,0,0,0,.05.59l.92.22,0,.49Z" transform="translate(-0.4 -1.67)"/><path class="cls-1" d="M133.25,48.47a2.22,2.22,0,0,1-1-.22,2,2,0,0,1-.72-.58,1.3,1.3,0,0,1-.26-.77,1.07,1.07,0,0,1,.32-.79,2.69,2.69,0,0,1,1.08-.57l2.24-.79v-.81a1.11,1.11,0,0,0-.23-.7,1.49,1.49,0,0,0-.61-.49,2.07,2.07,0,0,0-.88-.18.76.76,0,0,0-.54.16,1.27,1.27,0,0,0-.17.67l0,.54a1.29,1.29,0,0,1-.81,0,.48.48,0,0,1-.34-.48.7.7,0,0,1,.2-.47,2.47,2.47,0,0,1,.53-.46,3.61,3.61,0,0,1,.73-.38,3.78,3.78,0,0,1,.8-.21,2.37,2.37,0,0,1,1.66.56,1.91,1.91,0,0,1,.66,1.48l0,2.61a4.79,4.79,0,0,0,0,.52,1.39,1.39,0,0,0,.07.41l.93.18v.4l-.67.24-.35.12a.92.92,0,0,1-.26,0c-.28,0-.46-.16-.53-.49l-.13-.56.19,0a3.88,3.88,0,0,1-.94.81A1.87,1.87,0,0,1,133.25,48.47Zm.31-.74a1.47,1.47,0,0,0,.71-.18,2.14,2.14,0,0,0,.64-.55V45.42l-1.85.52a.84.84,0,0,0-.51.28.87.87,0,0,0-.16.52.91.91,0,0,0,.36.68A1.19,1.19,0,0,0,133.56,47.73Z" transform="translate(-0.4 -1.67)"/><path class="cls-1" d="M142.25,47.52a2.11,2.11,0,0,1-1.71.94,2,2,0,0,1-1.42-.54,2.12,2.12,0,0,1-.56-1.6l0-3.6h-1v-.27l1.75-1.67h.23l0,1.6,0,3.69a1.85,1.85,0,0,0,.35,1.22,1.22,1.22,0,0,0,1,.39,1.45,1.45,0,0,0,.66-.14,2,2,0,0,0,.54-.37Zm-3.17-4.8V42h2.71v.68Z" transform="translate(-0.4 -1.67)"/><path class="cls-1" d="M142.62,48.35l0-.5,1-.21a.74.74,0,0,0,0-.18c0-.09,0-.24,0-.46s0-.54,0-1v-.93q0-.68,0-1.23c0-.37,0-.63-.06-.79l-1-.21v-.44l1.93-.5.16.17c0,.31,0,.61,0,.9s0,.63,0,1v1.87c0,.48,0,.87,0,1.17s0,.48,0,.56l1,.21,0,.5Zm1.48-8.22a.85.85,0,0,1-.58-.23.69.69,0,0,1-.25-.56.71.71,0,0,1,.25-.55.81.81,0,0,1,.58-.23.75.75,0,0,1,.56.23.74.74,0,0,1,.24.55.71.71,0,0,1-.24.56A.79.79,0,0,1,144.1,40.13Z" transform="translate(-0.4 -1.67)"/><path class="cls-1" d="M149.77,48.47a3.16,3.16,0,0,1-1.65-.42A2.78,2.78,0,0,1,147,46.89a3.77,3.77,0,0,1-.38-1.71,3.39,3.39,0,0,1,.42-1.71,3,3,0,0,1,1.15-1.15,3.13,3.13,0,0,1,1.6-.41,3,3,0,0,1,1.57.39,2.8,2.8,0,0,1,1,1.14,3.79,3.79,0,0,1,.37,1.69,3.6,3.6,0,0,1-.4,1.69,3.24,3.24,0,0,1-1.09,1.2A2.75,2.75,0,0,1,149.77,48.47Zm.15-.62a1.44,1.44,0,0,0,.94-.33,2.3,2.3,0,0,0,.63-.89,3.38,3.38,0,0,0,.23-1.27,3.54,3.54,0,0,0-.56-2.07,1.71,1.71,0,0,0-1.47-.79,1.69,1.69,0,0,0-1.4.69,3,3,0,0,0-.53,1.83A3.62,3.62,0,0,0,148,46.5a2.5,2.5,0,0,0,.77,1A1.84,1.84,0,0,0,149.92,47.85Z" transform="translate(-0.4 -1.67)"/><path class="cls-1" d="M154,48.35l0-.49.92-.22a2.33,2.33,0,0,0,0-.29c0-.11,0-.27,0-.48s0-.49,0-.83V44.88c0-.33,0-.67,0-1s0-.6-.06-.76l-1-.21v-.44l1.81-.5.2.22-.07.77h0a4.21,4.21,0,0,1,1-.8,2.39,2.39,0,0,1,1.07-.23,2.05,2.05,0,0,1,1,.25,2.08,2.08,0,0,1,.79.82,3,3,0,0,1,.31,1.43v1.67c0,.37,0,.7,0,1a5.46,5.46,0,0,0,.06.58l.92.22,0,.49h-2.77l0-.49.86-.22c0-.08,0-.17,0-.27s0-.25,0-.43V44.51a2,2,0,0,0-.25-1.09,1.44,1.44,0,0,0-.61-.57,1.57,1.57,0,0,0-.71-.17,1.82,1.82,0,0,0-1,.26,2.47,2.47,0,0,0-.77.71v2.26c0,.48,0,.86,0,1.14s0,.47,0,.59l.92.22,0,.49Z" transform="translate(-0.4 -1.67)"/><path class="cls-1" d="M165.48,48c0-.34,0-.63,0-.87s0-.46,0-.67V43c0-.31,0-.66,0-1s0-.77,0-1.15,0-.71,0-1v-.56l-1.1-.14,0-.42,1.9-.58.23.2c0,.41,0,.83,0,1.25s0,.9,0,1.45,0,1.23,0,2h0a3,3,0,0,1,.94-.82,2.43,2.43,0,0,1,1.2-.3,2.65,2.65,0,0,1,1.36.35,2.61,2.61,0,0,1,1,1,3.35,3.35,0,0,1,.38,1.65,3.44,3.44,0,0,1-.5,1.85A3.49,3.49,0,0,1,169.5,48a3.63,3.63,0,0,1-1.74.44,5.17,5.17,0,0,1-1.23-.15A5.34,5.34,0,0,1,165.48,48Zm2.59-.16a1.94,1.94,0,0,0,1.53-.69,3,3,0,0,0,.62-1.94,2.36,2.36,0,0,0-.58-1.82,2,2,0,0,0-1.49-.6,2.06,2.06,0,0,0-.94.22,2.33,2.33,0,0,0-.8.68v3.68a3,3,0,0,0,.72.35A3.25,3.25,0,0,0,168.07,47.8Z" transform="translate(-0.4 -1.67)"/><path class="cls-1" d="M175.57,48.47a3,3,0,0,1-1.5-.37A2.8,2.8,0,0,1,173,47a3.54,3.54,0,0,1-.4-1.71,3.75,3.75,0,0,1,.42-1.83,3.06,3.06,0,0,1,1.1-1.18,2.69,2.69,0,0,1,1.46-.39,2.23,2.23,0,0,1,1.74.74,3.18,3.18,0,0,1,.63,2.14v.26h-4.61v-.63h3.78l-.14.15v-.26a2.06,2.06,0,0,0-.41-1.37,1.38,1.38,0,0,0-1.11-.49,1.59,1.59,0,0,0-.85.26,1.9,1.9,0,0,0-.66.78,3,3,0,0,0-.25,1.3v.15a2.86,2.86,0,0,0,.61,2,2,2,0,0,0,1.55.7,2.08,2.08,0,0,0,1-.21,2.59,2.59,0,0,0,.8-.68L178,47a2.79,2.79,0,0,1-1,1.09A2.58,2.58,0,0,1,175.57,48.47Z" transform="translate(-0.4 -1.67)"/><path class="cls-1" d="M179,48.35l0-.5,1-.21a2.83,2.83,0,0,0,0-.47c0-.21,0-.51,0-.89s0-.87,0-1.47V43c0-.38,0-.77,0-1.18s0-.8,0-1.16,0-.68,0-.93,0-.41,0-.47l-1.09-.14,0-.42,1.92-.58.24.2,0,1.26c0,.41,0,.87,0,1.38s0,1.12,0,1.83V45.2c0,.55,0,1.06,0,1.52s0,.77,0,.92l1,.21,0,.5Z" transform="translate(-0.4 -1.67)"/><path class="cls-1" d="M186.15,48.47a3.16,3.16,0,0,1-1.65-.42,2.78,2.78,0,0,1-1.09-1.16,3.65,3.65,0,0,1-.39-1.71,3.39,3.39,0,0,1,.43-1.71,3,3,0,0,1,1.15-1.15,3.34,3.34,0,0,1,3.17,0,2.71,2.71,0,0,1,1,1.14,3.66,3.66,0,0,1,.37,1.69,3.49,3.49,0,0,1-.4,1.69,3.15,3.15,0,0,1-1.09,1.2A2.72,2.72,0,0,1,186.15,48.47Zm.15-.62a1.39,1.39,0,0,0,.93-.33,2.11,2.11,0,0,0,.63-.89,3.2,3.2,0,0,0,.23-1.27,3.54,3.54,0,0,0-.55-2.07,1.72,1.72,0,0,0-1.48-.79,1.68,1.68,0,0,0-1.39.69,2.88,2.88,0,0,0-.53,1.83,3.62,3.62,0,0,0,.28,1.48,2.41,2.41,0,0,0,.77,1A1.8,1.8,0,0,0,186.3,47.85Z" transform="translate(-0.4 -1.67)"/><path class="cls-1" d="M192.91,48.41l-2.34-5.69-.7-.21,0-.49h2.49l0,.49-.76.21,1.9,4.76h-.43l2-4.93.35.89-2.19,5Zm4.21,0-2.21-5.69-.76-.21,0-.49h2.48l0,.49-.77.21,1.77,4.76h-.35l1.79-4.77-.77-.21,0-.49h2.24l0,.49-.7.21-2.46,5.69Z" transform="translate(-0.4 -1.67)"/><path class="cls-1" d="M201.8,48.5a.82.82,0,0,1-.59-.22.78.78,0,0,1-.23-.57.74.74,0,0,1,.4-.66.8.8,0,0,1,.4-.11.81.81,0,0,1,.6.23.72.72,0,0,1,.22.54.76.76,0,0,1-.8.79Z" transform="translate(-0.4 -1.67)"/></g></g></svg>