<svg xmlns="http://www.w3.org/2000/svg" viewBox="0 0 278.83 32.13"><defs><style>.cls-1{fill:#8a8e6d;}.cls-2{fill:none;stroke:#b69991;stroke-miterlimit:10;}</style></defs><g id="Layer_2" data-name="Layer 2"><g id="Layer_1-2" data-name="Layer 1"><path class="cls-1" d="M7.25,22.44l-2.6,6.35H4L.8,20.88l-.74-.21,0-.62H3.25l0,.62-.76.21,2.4,6.25H4.49l2.27-5.91Zm2.11,6.35L6.21,20.88l-.76-.21,0-.62H8.76l0,.62-.9.21,2.4,6.25H9.88l2.3-6.25-1-.21,0-.62H14l.05.62-.76.21-3.24,7.91Z" transform="translate(-0.06)"/><path class="cls-1" d="M17.16,28.87a3.27,3.27,0,0,1-1.6-.4,2.83,2.83,0,0,1-1.12-1.13A3.41,3.41,0,0,1,14,25.65a3.55,3.55,0,0,1,.45-1.81,3.27,3.27,0,0,1,1.15-1.21,2.9,2.9,0,0,1,1.54-.42,2.38,2.38,0,0,1,1.88.8,3.15,3.15,0,0,1,.66,2.11v.3H15.25v-.7H18.6l-.2.25V24.6A2,2,0,0,0,18,23.35a1.2,1.2,0,0,0-1-.45,1.43,1.43,0,0,0-.76.23,1.73,1.73,0,0,0-.58.71A3,3,0,0,0,15.5,25v.22a2.65,2.65,0,0,0,.58,1.82,1.94,1.94,0,0,0,1.54.67,2.11,2.11,0,0,0,.92-.2,2.51,2.51,0,0,0,.81-.66l.4.37a2.84,2.84,0,0,1-1.09,1.22A3,3,0,0,1,17.16,28.87Z" transform="translate(-0.06)"/><path class="cls-1" d="M28.33,27.73a2,2,0,0,1-.78.83,2.13,2.13,0,0,1-1.12.31,2,2,0,0,1-2.14-2.25l0-3.47h-1v-.36L25.38,21h.36l0,1.82,0,3.62A1.52,1.52,0,0,0,26,27.46a1.18,1.18,0,0,0,.91.34,1.38,1.38,0,0,0,.6-.13,1.5,1.5,0,0,0,.51-.33Zm-3.26-4.58v-.8H27.9v.8Z" transform="translate(-0.06)"/><path class="cls-1" d="M28.66,28.75l-.05-.58.92-.24a1.83,1.83,0,0,0,0-.25c0-.13,0-.3,0-.52s0-.47,0-.77V25.25a9,9,0,0,0,0-.92,6.52,6.52,0,0,0-.09-.74l-.95-.21v-.54l2.18-.6.26.23-.06,1.21,0,0a2.77,2.77,0,0,1,.88-1.14,1.6,1.6,0,0,1,.88-.3,1,1,0,0,1,.61.18.67.67,0,0,1,.25.57.72.72,0,0,1-.27.6,1,1,0,0,1-.66.2,1.26,1.26,0,0,1-.55-.11,1.8,1.8,0,0,1-.5-.36l.29.08a2.14,2.14,0,0,0-.49.47,3.35,3.35,0,0,0-.43.73l0,1.3,0,.84c0,.27,0,.51,0,.71s0,.37,0,.46l1.29.21-.05.61Z" transform="translate(-0.06)"/><path class="cls-1" d="M40.81,27.61l.95.23v.54l-2.12.53-.27-.19v-1l0,0a2.48,2.48,0,0,1-.9.88,2,2,0,0,1-1,.25,2.36,2.36,0,0,1-1.69-.63,2.5,2.5,0,0,1-.67-1.89V25.07c0-.23,0-.47,0-.72s0-.5,0-.76l-1-.21v-.54l2.24-.6.31.26c0,.29,0,.63,0,1s0,.75,0,1.14l0,1.52a1.65,1.65,0,0,0,.4,1.24,1.45,1.45,0,0,0,1,.39,1.61,1.61,0,0,0,.74-.2,1.83,1.83,0,0,0,.67-.66V25.28c0-.22,0-.43,0-.63s0-.39,0-.58,0-.34,0-.48l-1.09-.21v-.54l2.29-.6.28.23c0,.24,0,.48,0,.69s0,.45,0,.68V25.7c0,.44,0,.83,0,1.15S40.79,27.43,40.81,27.61Z" transform="translate(-0.06)"/><path class="cls-1" d="M42.41,28.75l0-.59,1-.23a3.45,3.45,0,0,0,0-.49q0-.36,0-.93c0-.37,0-.8,0-1.27V23.37c0-.36,0-.72,0-1.1s0-.74,0-1.08,0-.63,0-.88,0-.43,0-.54l-1.1-.15,0-.53,2.35-.64.32.22,0,1.24c0,.41,0,.87,0,1.36s0,1.11,0,1.82V25.4c0,.62,0,1.17,0,1.65a7.36,7.36,0,0,0,.05.88l1,.23,0,.59Z" transform="translate(-0.06)"/><path class="cls-1" d="M49.42,28.81l-2.64-5.66-.7-.24.05-.58h3.15l0,.58-.92.24,1.92,4.22Zm3.89-6.48,0,.58-.7.24-2.53,5.23L49,30.84a2.77,2.77,0,0,1-.74,1,1.42,1.42,0,0,1-.85.28,1,1,0,0,1-.66-.2.63.63,0,0,1-.24-.5.65.65,0,0,1,.2-.48,1.33,1.33,0,0,1,.63-.33l1.48-.45L48,30.9l1.69-3.22.16-.29,1.82-4.24-.92-.24.05-.58Z" transform="translate(-0.06)"/><path class="cls-1" d="M59,28.87a2.25,2.25,0,0,1-1.09-.26,1.94,1.94,0,0,1-.73-.65,1.35,1.35,0,0,1-.25-.77,1.17,1.17,0,0,1,.33-.84,2.24,2.24,0,0,1,1.05-.56L60.56,25v-.68a1,1,0,0,0-.22-.64,1.57,1.57,0,0,0-.57-.47,1.69,1.69,0,0,0-.78-.18.6.6,0,0,0-.46.14,1,1,0,0,0-.15.56l0,.71a1.58,1.58,0,0,1-1,0,.57.57,0,0,1-.41-.57.77.77,0,0,1,.24-.51,3,3,0,0,1,.63-.51,5.48,5.48,0,0,1,.8-.41,4.08,4.08,0,0,1,.82-.23,2.78,2.78,0,0,1,1.86.59,2,2,0,0,1,.7,1.55l0,2.35c0,.21,0,.4,0,.57a2.12,2.12,0,0,0,.07.4l1,.17v.52l-.8.31-.41.15a1.55,1.55,0,0,1-.34.05.67.67,0,0,1-.67-.54l-.19-.62.25,0a4.35,4.35,0,0,1-.93.84A1.78,1.78,0,0,1,59,28.87Zm.52-1a1.25,1.25,0,0,0,.57-.13,1.79,1.79,0,0,0,.5-.4V25.79l-1.45.35a.89.89,0,0,0-.51.28.68.68,0,0,0-.16.48.89.89,0,0,0,.31.66A1.07,1.07,0,0,0,59.49,27.84Z" transform="translate(-0.06)"/><path class="cls-1" d="M63.61,32l0-.58.92-.24c0-.05,0-.14,0-.27s0-.31,0-.53,0-.47,0-.77,0-.63,0-1l0-3.43a8.12,8.12,0,0,0,0-.86,6.24,6.24,0,0,0-.09-.74l-.95-.21v-.54l2.19-.6.3.26-.09.83h0a3.23,3.23,0,0,1,.91-.83,2.08,2.08,0,0,1,1.09-.3,2.6,2.6,0,0,1,1.4.4,2.71,2.71,0,0,1,1,1.09,3.45,3.45,0,0,1,.37,1.64,3.56,3.56,0,0,1-.44,1.78,3.38,3.38,0,0,1-1.22,1.27,3.44,3.44,0,0,1-1.8.46,4.06,4.06,0,0,1-.67-.06,6.48,6.48,0,0,1-.64-.17v1.06c0,.36,0,.67,0,.95s0,.46,0,.56l1.22.21,0,.61Zm3.69-4a1.83,1.83,0,0,0,1-.26,1.79,1.79,0,0,0,.66-.79,3.18,3.18,0,0,0,.25-1.29A2.85,2.85,0,0,0,69,24.43a2,2,0,0,0-.64-.81,1.59,1.59,0,0,0-.93-.28,1.73,1.73,0,0,0-.78.19,2.19,2.19,0,0,0-.66.57v3.51a2.1,2.1,0,0,0,.62.3A2.27,2.27,0,0,0,67.3,28Z" transform="translate(-0.06)"/><path class="cls-1" d="M71.69,32l0-.58.92-.24c0-.05,0-.14,0-.27s0-.31,0-.53,0-.47,0-.77,0-.63,0-1l0-3.43c0-.29,0-.58,0-.86s-.06-.53-.1-.74l-1-.21v-.54l2.2-.6.29.26-.09.83h0a3.19,3.19,0,0,1,.9-.83,2.12,2.12,0,0,1,1.1-.3,2.62,2.62,0,0,1,1.4.4,2.78,2.78,0,0,1,1,1.09,3.45,3.45,0,0,1,.37,1.64,3.57,3.57,0,0,1-.45,1.78,3.31,3.31,0,0,1-1.22,1.27,3.44,3.44,0,0,1-1.8.46,3.85,3.85,0,0,1-.66-.06,6.48,6.48,0,0,1-.64-.17v1.06c0,.36,0,.67,0,.95s0,.46,0,.56l1.21.21,0,.61Zm3.69-4a1.85,1.85,0,0,0,1-.26A1.79,1.79,0,0,0,77,27a3.36,3.36,0,0,0,.25-1.29A3,3,0,0,0,77,24.43a2,2,0,0,0-.65-.81,1.56,1.56,0,0,0-.92-.28,1.73,1.73,0,0,0-.78.19,2.19,2.19,0,0,0-.66.57v3.51a2,2,0,0,0,.62.3A2.27,2.27,0,0,0,75.38,28Z" transform="translate(-0.06)"/><path class="cls-1" d="M79.81,28.75l0-.58.92-.24a1.83,1.83,0,0,0,0-.25c0-.13,0-.3,0-.52s0-.47,0-.77V25.25a9,9,0,0,0,0-.92,6.52,6.52,0,0,0-.09-.74l-1-.21v-.54l2.18-.6.26.23-.06,1.21.05,0A2.77,2.77,0,0,1,83,22.56a1.6,1.6,0,0,1,.88-.3,1,1,0,0,1,.61.18.67.67,0,0,1,.25.57.72.72,0,0,1-.27.6,1,1,0,0,1-.66.2,1.26,1.26,0,0,1-.55-.11,1.8,1.8,0,0,1-.5-.36l.29.08a2.14,2.14,0,0,0-.49.47,3.35,3.35,0,0,0-.43.73l0,1.3c0,.29,0,.56,0,.84s0,.51,0,.71,0,.37,0,.46l1.29.21,0,.61Z" transform="translate(-0.06)"/><path class="cls-1" d="M88.39,28.87a3.25,3.25,0,0,1-1.6-.4,2.83,2.83,0,0,1-1.12-1.13,3.41,3.41,0,0,1-.41-1.69,3.65,3.65,0,0,1,.44-1.81,3.37,3.37,0,0,1,1.16-1.21,2.88,2.88,0,0,1,1.54-.42,2.38,2.38,0,0,1,1.88.8,3.21,3.21,0,0,1,.65,2.11v.3H86.47v-.7h3.35l-.19.25V24.6a2,2,0,0,0-.36-1.25,1.2,1.2,0,0,0-1-.45,1.43,1.43,0,0,0-.76.23,1.66,1.66,0,0,0-.58.71A3,3,0,0,0,86.73,25v.22a2.65,2.65,0,0,0,.58,1.82,1.93,1.93,0,0,0,1.54.67,2.11,2.11,0,0,0,.92-.2,2.62,2.62,0,0,0,.81-.66l.4.37a2.9,2.9,0,0,1-1.09,1.22A3,3,0,0,1,88.39,28.87Z" transform="translate(-0.06)"/><path class="cls-1" d="M95.17,28.87a3.22,3.22,0,0,1-1.58-.39,2.83,2.83,0,0,1-1.14-1.11A3.31,3.31,0,0,1,92,25.68a3.48,3.48,0,0,1,.45-1.75,3.28,3.28,0,0,1,1.23-1.25,3.39,3.39,0,0,1,1.77-.47,3.34,3.34,0,0,1,1.12.17,1.83,1.83,0,0,1,.72.46.84.84,0,0,1,.25.59.58.58,0,0,1-.62.62,1,1,0,0,1-.44-.09,2,2,0,0,1-.45-.35l-.86-.83.59.16a1.57,1.57,0,0,0-1,.12,1.92,1.92,0,0,0-.84.81,3,3,0,0,0-.32,1.46,2.52,2.52,0,0,0,.58,1.79,1.94,1.94,0,0,0,1.46.62,2.12,2.12,0,0,0,.93-.2,2.46,2.46,0,0,0,.79-.66l.42.36a3,3,0,0,1-1.09,1.22A2.87,2.87,0,0,1,95.17,28.87Z" transform="translate(-0.06)"/><path class="cls-1" d="M98.25,28.75l0-.59,1-.23a1.62,1.62,0,0,0,0-.23q0-.16,0-.48c0-.22,0-.49,0-.83V25.34c0-.35,0-.68,0-1a6.31,6.31,0,0,0-.09-.77l-1-.21v-.54l2.31-.6.28.24c0,.31-.05.61-.07.91s0,.65,0,1.05V26.3c0,.42,0,.77,0,1.07a4.67,4.67,0,0,0,0,.56l1,.23,0,.59Zm1.74-8a1,1,0,0,1-.74-.29,1,1,0,0,1,0-1.38,1,1,0,0,1,.74-.29,1,1,0,0,1,.72.29,1,1,0,0,1,0,1.38A1,1,0,0,1,100,20.72Z" transform="translate(-0.06)"/><path class="cls-1" d="M104.85,28.87a2.29,2.29,0,0,1-1.1-.26A1.9,1.9,0,0,1,103,28a1.37,1.37,0,0,1-.26-.77,1.17,1.17,0,0,1,.33-.84,2.35,2.35,0,0,1,1.05-.56l2.28-.75v-.68a1.07,1.07,0,0,0-.21-.64,1.57,1.57,0,0,0-.57-.47,1.73,1.73,0,0,0-.79-.18.62.62,0,0,0-.46.14,1.06,1.06,0,0,0-.14.56l-.05.71a1.59,1.59,0,0,1-1,0,.58.58,0,0,1-.41-.57.79.79,0,0,1,.25-.51,3,3,0,0,1,.62-.51,5.12,5.12,0,0,1,.81-.41,4,4,0,0,1,.81-.23,2.78,2.78,0,0,1,1.86.59,2,2,0,0,1,.71,1.55l0,2.35a5.06,5.06,0,0,0,0,.57,1.53,1.53,0,0,0,.07.4l1,.17v.52l-.8.31-.42.15a1.47,1.47,0,0,1-.34.05.66.66,0,0,1-.66-.54l-.2-.62.26,0a4.15,4.15,0,0,1-.94.84A1.75,1.75,0,0,1,104.85,28.87Zm.52-1a1.24,1.24,0,0,0,.56-.13,1.55,1.55,0,0,0,.5-.4V25.79l-1.45.35a.89.89,0,0,0-.51.28.73.73,0,0,0-.16.48.9.9,0,0,0,.32.66A1,1,0,0,0,105.37,27.84Z" transform="translate(-0.06)"/><path class="cls-1" d="M114.36,27.73a2,2,0,0,1-.78.83,2.13,2.13,0,0,1-1.12.31,2,2,0,0,1-2.14-2.25l0-3.47h-1v-.36L111.41,21h.36l0,1.82,0,3.62a1.52,1.52,0,0,0,.32,1.05,1.18,1.18,0,0,0,.91.34,1.38,1.38,0,0,0,.6-.13,1.5,1.5,0,0,0,.51-.33Zm-3.26-4.58v-.8h2.83v.8Z" transform="translate(-0.06)"/><path class="cls-1" d="M117.89,28.87a3.25,3.25,0,0,1-1.6-.4,2.83,2.83,0,0,1-1.12-1.13,3.41,3.41,0,0,1-.41-1.69,3.55,3.55,0,0,1,.45-1.81,3.27,3.27,0,0,1,1.15-1.21,2.9,2.9,0,0,1,1.54-.42,2.38,2.38,0,0,1,1.88.8,3.15,3.15,0,0,1,.66,2.11v.3H116v-.7h3.34l-.19.25V24.6a2,2,0,0,0-.36-1.25,1.2,1.2,0,0,0-1-.45,1.43,1.43,0,0,0-.76.23,1.73,1.73,0,0,0-.58.71,3,3,0,0,0-.21,1.19v.22a2.65,2.65,0,0,0,.58,1.82,1.93,1.93,0,0,0,1.54.67,2.11,2.11,0,0,0,.92-.2,2.62,2.62,0,0,0,.81-.66l.4.37a2.9,2.9,0,0,1-1.09,1.22A3,3,0,0,1,117.89,28.87Z" transform="translate(-0.06)"/><path class="cls-1" d="M127.07,28.81l-2.63-5.66-.7-.24.05-.58h3.15l0,.58-.92.24L128,27.37Zm3.9-6.48.05.58-.7.24-2.53,5.23-1.17,2.46a2.89,2.89,0,0,1-.74,1,1.42,1.42,0,0,1-.85.28,1,1,0,0,1-.66-.2.63.63,0,0,1-.24-.5.65.65,0,0,1,.2-.48,1.33,1.33,0,0,1,.63-.33l1.48-.45-.77.73,1.69-3.22.16-.29,1.82-4.24-.92-.24.05-.58Z" transform="translate(-0.06)"/><path class="cls-1" d="M134.66,28.87a3.37,3.37,0,0,1-1.72-.42,2.85,2.85,0,0,1-1.15-1.16,3.44,3.44,0,0,1-.42-1.71,3.34,3.34,0,0,1,.46-1.79,3.23,3.23,0,0,1,1.22-1.16,3.42,3.42,0,0,1,1.67-.42,3.21,3.21,0,0,1,1.65.42,2.87,2.87,0,0,1,1.09,1.15,3.6,3.6,0,0,1,.39,1.71,3.39,3.39,0,0,1-.43,1.71,3.34,3.34,0,0,1-1.14,1.22A3,3,0,0,1,134.66,28.87Zm.15-.77a1.21,1.21,0,0,0,.79-.28,1.86,1.86,0,0,0,.52-.8,3.68,3.68,0,0,0,.19-1.2,3.87,3.87,0,0,0-.49-2.07,1.45,1.45,0,0,0-1.29-.79,1.33,1.33,0,0,0-1.15.63,3,3,0,0,0-.44,1.69,4,4,0,0,0,.24,1.45,2.29,2.29,0,0,0,.67,1A1.4,1.4,0,0,0,134.81,28.1Z" transform="translate(-0.06)"/><path class="cls-1" d="M145.4,27.61l.95.23v.54l-2.12.53-.26-.19v-1l0,0a2.56,2.56,0,0,1-.9.88,2,2,0,0,1-1,.25,2.33,2.33,0,0,1-1.68-.63,2.46,2.46,0,0,1-.67-1.89V25.07c0-.23,0-.47,0-.72s0-.5-.05-.76l-1-.21v-.54l2.23-.6.32.26c0,.29,0,.63-.06,1s0,.75,0,1.14v1.52a1.65,1.65,0,0,0,.4,1.24,1.42,1.42,0,0,0,1.05.39,1.65,1.65,0,0,0,.74-.2,1.83,1.83,0,0,0,.67-.66V25.28c0-.22,0-.43,0-.63s0-.39,0-.58,0-.34,0-.48l-1.08-.21v-.54l2.28-.6.28.23c0,.24,0,.48,0,.69V25.7c0,.44,0,.83,0,1.15S145.38,27.43,145.4,27.61Z" transform="translate(-0.06)"/><path class="cls-1" d="M147.06,28.75l0-.58.92-.24a1.83,1.83,0,0,0,0-.25c0-.13,0-.3,0-.52s0-.47,0-.77l0-1.14c0-.32,0-.63,0-.92s-.06-.53-.1-.74l-.94-.21v-.54l2.17-.6.27.23-.06,1.21,0,0a2.77,2.77,0,0,1,.88-1.14,1.58,1.58,0,0,1,.88-.3,1,1,0,0,1,.61.18A.7.7,0,0,1,152,23a.72.72,0,0,1-.27.6,1,1,0,0,1-.67.2,1.22,1.22,0,0,1-.54-.11,2,2,0,0,1-.51-.36l.3.08a2.14,2.14,0,0,0-.49.47,3.35,3.35,0,0,0-.43.73v1.3c0,.29,0,.56,0,.84s0,.51,0,.71,0,.37,0,.46l1.29.21,0,.61Z" transform="translate(-0.06)"/><path class="cls-1" d="M155.58,28.75l0-.58.84-.24a3.25,3.25,0,0,0,.05-.51q0-.36,0-.87c0-.34,0-.71,0-1.11V22.26c0-.38,0-.73,0-1.07s0-.63,0-.88,0-.43,0-.54l-1.09-.15,0-.53,2.31-.64.32.22c0,.32,0,.63,0,.94s0,.62,0,1,0,.7,0,1.1v4.86c0,.25,0,.48,0,.67s0,.35,0,.47,0,.21,0,.26l.91.24,0,.58Zm7.07,0h-1.94c-.17-.23-.31-.41-.41-.53l-.33-.38-2-2.13h-.4l0-.41.53-.15,2.11-2-1-.17,0-.6h3.07l0,.6-1,.17-2.59,2.29.19-.57,2.16,2.34c.15.16.31.32.46.49l.39.37.64.14Z" transform="translate(-0.06)"/><path class="cls-1" d="M163,28.75l0-.59,1-.23a1.76,1.76,0,0,1,0-.23c0-.11,0-.27,0-.48s0-.49,0-.83V25.34c0-.35,0-.68,0-1a6.31,6.31,0,0,0-.09-.77l-1-.21v-.54l2.31-.6.28.24c0,.31,0,.61-.07.91s0,.65,0,1.05V26.3c0,.42,0,.77,0,1.07a3.92,3.92,0,0,0,.06.56l1,.23,0,.59Zm1.73-8a1,1,0,0,1-.73-.29,1,1,0,0,1,0-1.38,1,1,0,0,1,.73-.29,1,1,0,0,1,.72.29,1,1,0,0,1,0,1.38A1,1,0,0,1,164.74,20.72Z" transform="translate(-0.06)"/><path class="cls-1" d="M167.16,28.75l0-.58.92-.24a2.36,2.36,0,0,0,0-.26c0-.12,0-.28,0-.49s0-.47,0-.79l0-1.14a9,9,0,0,0,0-.91,6.44,6.44,0,0,0-.09-.75l-1-.21v-.54l2.19-.6.3.26-.08.8h.05a3.46,3.46,0,0,1,1-.83,2.43,2.43,0,0,1,1.12-.27,2.1,2.1,0,0,1,1.07.29,2.23,2.23,0,0,1,.79.87,3.1,3.1,0,0,1,.3,1.44v1.6c0,.34,0,.66,0,.95a2.43,2.43,0,0,0,.06.57l.92.24,0,.58h-3.21l0-.58.86-.24c0-.07,0-.18,0-.31s0-.3,0-.49,0-.4,0-.65V25a2.06,2.06,0,0,0-.21-1,1.34,1.34,0,0,0-.53-.55,1.42,1.42,0,0,0-.67-.17,1.66,1.66,0,0,0-.85.22,1.94,1.94,0,0,0-.68.6v2.2c0,.43,0,.79,0,1.07a2.85,2.85,0,0,0,.07.56l.92.24,0,.58Z" transform="translate(-0.06)"/><path class="cls-1" d="M180.73,28.91l-.28-.19v-1l0,0a2.62,2.62,0,0,1-.88.88,2.15,2.15,0,0,1-1,.25,2.77,2.77,0,0,1-1.49-.4A3,3,0,0,1,176,27.39a3.29,3.29,0,0,1-.39-1.62,3.85,3.85,0,0,1,.28-1.47,3.5,3.5,0,0,1,.77-1.11,3.55,3.55,0,0,1,1.1-.72,3.37,3.37,0,0,1,1.24-.24,4,4,0,0,1,.76.08,1.92,1.92,0,0,1,.65.26c0-.18,0-.4,0-.67s0-.54,0-.83,0-.54,0-.77,0-.38,0-.47l-1.14-.19,0-.55,2.37-.64.31.22c0,.62,0,1.2,0,1.76s0,1.14,0,1.74v3.42c0,.51,0,.93,0,1.27s0,.59.07.75l.95.23v.54ZM179,27.76a1.56,1.56,0,0,0,.71-.18,2,2,0,0,0,.68-.61V23.76a1.46,1.46,0,0,0-.64-.62A1.72,1.72,0,0,0,179,23a1.61,1.61,0,0,0-1.36.65,2.72,2.72,0,0,0-.51,1.73,2.68,2.68,0,0,0,.54,1.78A1.7,1.7,0,0,0,179,27.76Z" transform="translate(-0.06)"/><path class="cls-1" d="M183.54,28.75l0-.58.92-.24a2.36,2.36,0,0,0,0-.26c0-.12,0-.28,0-.49s0-.47,0-.79l0-1.14a9,9,0,0,0,0-.91,6.25,6.25,0,0,0-.1-.75l-.94-.21v-.54l2.19-.6.3.26-.08.8h0a3.46,3.46,0,0,1,1-.83,2.4,2.4,0,0,1,1.12-.27,2.12,2.12,0,0,1,1.07.29,2.23,2.23,0,0,1,.79.87,3.1,3.1,0,0,1,.3,1.44v1.6c0,.34,0,.66,0,.95a2.43,2.43,0,0,0,.06.57l.92.24-.05.58h-3.21l0-.58.86-.24a2.24,2.24,0,0,1,0-.31c0-.14,0-.3,0-.49V25a2.07,2.07,0,0,0-.2-1,1.41,1.41,0,0,0-.53-.55,1.45,1.45,0,0,0-.67-.17,1.72,1.72,0,0,0-.86.22,2,2,0,0,0-.67.6v2.2c0,.43,0,.79,0,1.07a2.85,2.85,0,0,0,.07.56l.92.24,0,.58Z" transform="translate(-0.06)"/><path class="cls-1" d="M195.18,28.87a3.25,3.25,0,0,1-1.6-.4,2.83,2.83,0,0,1-1.12-1.13,3.41,3.41,0,0,1-.41-1.69,3.65,3.65,0,0,1,.44-1.81,3.37,3.37,0,0,1,1.16-1.21,2.88,2.88,0,0,1,1.54-.42,2.38,2.38,0,0,1,1.88.8,3.21,3.21,0,0,1,.65,2.11v.3h-4.46v-.7h3.35l-.19.25V24.6a2,2,0,0,0-.36-1.25,1.2,1.2,0,0,0-1-.45,1.43,1.43,0,0,0-.76.23,1.66,1.66,0,0,0-.58.71,3,3,0,0,0-.21,1.19v.22a2.65,2.65,0,0,0,.58,1.82,1.93,1.93,0,0,0,1.54.67,2.11,2.11,0,0,0,.92-.2,2.62,2.62,0,0,0,.81-.66l.4.37a2.9,2.9,0,0,1-1.09,1.22A3,3,0,0,1,195.18,28.87Z" transform="translate(-0.06)"/><path class="cls-1" d="M201.13,28.87a4.9,4.9,0,0,1-1.13-.13,3.33,3.33,0,0,1-1-.35L199,26.76h.8l.32,1.07a2,2,0,0,0,1.17.34A1.21,1.21,0,0,0,202,28a.71.71,0,0,0,.29-.61.87.87,0,0,0-.27-.64,3.21,3.21,0,0,0-1.09-.6,4.49,4.49,0,0,1-1.5-.88A1.56,1.56,0,0,1,199,24.1a1.53,1.53,0,0,1,.34-1,2.21,2.21,0,0,1,.94-.67,3.62,3.62,0,0,1,1.38-.25,4.43,4.43,0,0,1,.87.09,3,3,0,0,1,.74.21l.16,1.59h-.77l-.34-1a1.42,1.42,0,0,0-.35-.14,2,2,0,0,0-.43-.05,1.26,1.26,0,0,0-.81.24.72.72,0,0,0-.3.59.82.82,0,0,0,.34.68A6.6,6.6,0,0,0,202,25a4.14,4.14,0,0,1,1.37.87,1.55,1.55,0,0,1,.39,1.07,1.61,1.61,0,0,1-.73,1.37A3.17,3.17,0,0,1,201.13,28.87Z" transform="translate(-0.06)"/><path class="cls-1" d="M207.13,28.87a4.9,4.9,0,0,1-1.13-.13,3.44,3.44,0,0,1-1-.35L205,26.76h.8l.31,1.07a2,2,0,0,0,1.17.34A1.26,1.26,0,0,0,208,28a.73.73,0,0,0,.28-.61.87.87,0,0,0-.27-.64,3.21,3.21,0,0,0-1.09-.6,4.49,4.49,0,0,1-1.5-.88A1.56,1.56,0,0,1,205,24.1a1.48,1.48,0,0,1,.35-1,2.11,2.11,0,0,1,.93-.67,3.62,3.62,0,0,1,1.38-.25,4.36,4.36,0,0,1,.87.09,3,3,0,0,1,.74.21l.17,1.59h-.78l-.34-1a1.27,1.27,0,0,0-.35-.14,2,2,0,0,0-.43-.05,1.26,1.26,0,0,0-.81.24.72.72,0,0,0-.3.59.82.82,0,0,0,.34.68A7,7,0,0,0,208,25a4.14,4.14,0,0,1,1.37.87,1.55,1.55,0,0,1,.39,1.07,1.61,1.61,0,0,1-.73,1.37A3.17,3.17,0,0,1,207.13,28.87Z" transform="translate(-0.06)"/><path class="cls-1" d="M210.82,31.52l-.23-.49a2.79,2.79,0,0,0,1-.69,1.35,1.35,0,0,0,.33-.89.89.89,0,0,0-.09-.43,2.09,2.09,0,0,0-.24-.28l-.28-.25a1.44,1.44,0,0,1-.24-.3,1,1,0,0,1-.09-.45.84.84,0,0,1,.29-.66,1,1,0,0,1,.73-.27,1.11,1.11,0,0,1,.55.15,1.09,1.09,0,0,1,.44.5,2,2,0,0,1,.16.87,3.2,3.2,0,0,1-.27,1.28,3.45,3.45,0,0,1-.8,1.12A4,4,0,0,1,210.82,31.52Z" transform="translate(-0.06)"/><path class="cls-1" d="M222,27.73a2,2,0,0,1-.78.83,2.13,2.13,0,0,1-1.12.31,2,2,0,0,1-2.14-2.25l0-3.47h-1v-.36L219,21h.36l0,1.82,0,3.62a1.52,1.52,0,0,0,.32,1.05,1.18,1.18,0,0,0,.91.34,1.38,1.38,0,0,0,.6-.13,1.5,1.5,0,0,0,.51-.33Zm-3.26-4.58v-.8h2.83v.8Z" transform="translate(-0.06)"/><path class="cls-1" d="M222.29,28.75l0-.58.92-.24a3.64,3.64,0,0,0,0-.5c0-.24,0-.54,0-.92s0-.8,0-1.27V22.33c0-.37,0-.73,0-1.08s0-.65,0-.92,0-.45,0-.56l-1.1-.15,0-.53,2.32-.64.32.22,0,.91c0,.31,0,.63,0,1s0,.75,0,1.19,0,1,0,1.56h.05a3.46,3.46,0,0,1,1-.83,2.34,2.34,0,0,1,1.11-.27,2,2,0,0,1,1.06.3,2.25,2.25,0,0,1,.8.87,3.16,3.16,0,0,1,.3,1.46v1.57c0,.34,0,.66,0,.95s0,.48.05.57l.92.24,0,.58h-3.21l-.05-.58.86-.24c0-.07,0-.18,0-.31s0-.3,0-.49,0-.4,0-.65V25a2.08,2.08,0,0,0-.2-1,1.26,1.26,0,0,0-.52-.55,1.37,1.37,0,0,0-.69-.18,1.7,1.7,0,0,0-.84.22,1.94,1.94,0,0,0-.68.6v2.2c0,.44,0,.8,0,1.09a2.47,2.47,0,0,0,.07.54l.9.24,0,.58Z" transform="translate(-0.06)"/><path class="cls-1" d="M233.05,28.87a2.29,2.29,0,0,1-1.1-.26,1.9,1.9,0,0,1-.72-.65,1.37,1.37,0,0,1-.26-.77,1.17,1.17,0,0,1,.33-.84,2.35,2.35,0,0,1,1-.56l2.28-.75v-.68a1.07,1.07,0,0,0-.21-.64,1.57,1.57,0,0,0-.57-.47,1.73,1.73,0,0,0-.79-.18.62.62,0,0,0-.46.14,1.17,1.17,0,0,0-.14.56l-.05.71a1.59,1.59,0,0,1-1,0,.58.58,0,0,1-.41-.57.79.79,0,0,1,.25-.51,3,3,0,0,1,.62-.51,5.12,5.12,0,0,1,.81-.41,4,4,0,0,1,.81-.23,2.78,2.78,0,0,1,1.86.59,2,2,0,0,1,.71,1.55l0,2.35c0,.21,0,.4,0,.57a1.53,1.53,0,0,0,.07.4l1,.17v.52l-.8.31-.42.15a1.47,1.47,0,0,1-.34.05.67.67,0,0,1-.66-.54l-.2-.62.26,0a4.15,4.15,0,0,1-.94.84A1.72,1.72,0,0,1,233.05,28.87Zm.52-1a1.21,1.21,0,0,0,.56-.13,1.55,1.55,0,0,0,.5-.4V25.79l-1.45.35a1,1,0,0,0-.51.28.73.73,0,0,0-.15.48.89.89,0,0,0,.31.66A1,1,0,0,0,233.57,27.84Z" transform="translate(-0.06)"/><path class="cls-1" d="M237.72,28.75l-.05-.58.92-.24a2.36,2.36,0,0,0,0-.26c0-.12,0-.28,0-.49s0-.47,0-.79V25.25a9,9,0,0,0,0-.91,6.44,6.44,0,0,0-.09-.75l-1-.21v-.54l2.19-.6.3.26-.08.8h.05a3.46,3.46,0,0,1,1-.83,2.43,2.43,0,0,1,1.12-.27,2.1,2.1,0,0,1,1.07.29,2.23,2.23,0,0,1,.79.87,3.1,3.1,0,0,1,.3,1.44v1.6c0,.34,0,.66,0,.95a2.43,2.43,0,0,0,.06.57l.92.24,0,.58h-3.21l0-.58.86-.24c0-.07,0-.18,0-.31s0-.3,0-.49,0-.4,0-.65V25a2.06,2.06,0,0,0-.21-1,1.34,1.34,0,0,0-.53-.55,1.42,1.42,0,0,0-.67-.17,1.66,1.66,0,0,0-.85.22,2,2,0,0,0-.68.6v2.2c0,.43,0,.79,0,1.07a2.4,2.4,0,0,0,.06.56l.92.24,0,.58Z" transform="translate(-0.06)"/><path class="cls-1" d="M246.1,28.75l0-.58.84-.24a3.25,3.25,0,0,0,0-.51q0-.36,0-.87c0-.34,0-.71,0-1.11V23.37c0-.37,0-.74,0-1.11s0-.73,0-1.07,0-.63,0-.88,0-.43,0-.54l-1.09-.15,0-.53,2.31-.64.32.22c0,.32,0,.63,0,.94s0,.62,0,1,0,.7,0,1.1v4.86c0,.25,0,.48,0,.67s0,.35,0,.47,0,.21,0,.26l.91.24,0,.58Zm7.07,0h-1.94c-.17-.23-.31-.41-.41-.53l-.33-.38-2-2.13h-.4l0-.41.53-.15,2.11-2-1-.17,0-.6h3.07l0,.6-1,.17-2.59,2.29.19-.57,2.16,2.34c.15.16.31.32.46.49l.39.37.64.14Z" transform="translate(-0.06)"/><path class="cls-1" d="M256.21,28.81l-2.64-5.66-.69-.24,0-.58h3.16l0,.58-.92.24,1.91,4.22Zm3.9-6.48,0,.58-.7.24-2.53,5.23-1.17,2.46a2.89,2.89,0,0,1-.73,1,1.47,1.47,0,0,1-.86.28,1.06,1.06,0,0,1-.66-.2.63.63,0,0,1-.24-.5.69.69,0,0,1,.2-.48,1.33,1.33,0,0,1,.63-.33l1.48-.45-.77.73,1.69-3.22.16-.29,1.83-4.24-.92-.24,0-.58Z" transform="translate(-0.06)"/><path class="cls-1" d="M263.79,28.87a3.4,3.4,0,0,1-1.72-.42,2.92,2.92,0,0,1-1.15-1.16,3.78,3.78,0,0,1,0-3.5,3.26,3.26,0,0,1,1.23-1.16,3.38,3.38,0,0,1,1.66-.42,3.16,3.16,0,0,1,1.65.42,2.9,2.9,0,0,1,1.1,1.15,3.71,3.71,0,0,1,.38,1.71,3.49,3.49,0,0,1-.42,1.71,3.37,3.37,0,0,1-1.15,1.22A3,3,0,0,1,263.79,28.87Zm.15-.77a1.26,1.26,0,0,0,.8-.28,1.84,1.84,0,0,0,.51-.8,3.44,3.44,0,0,0,.19-1.2,4,4,0,0,0-.48-2.07,1.45,1.45,0,0,0-1.3-.79,1.34,1.34,0,0,0-1.15.63,3,3,0,0,0-.43,1.69,4.28,4.28,0,0,0,.23,1.45,2.29,2.29,0,0,0,.67,1A1.43,1.43,0,0,0,263.94,28.1Z" transform="translate(-0.06)"/><path class="cls-1" d="M274.54,27.61l.95.23v.54l-2.12.53-.27-.19,0-1-.05,0a2.41,2.41,0,0,1-.9.88,2,2,0,0,1-1,.25,2.38,2.38,0,0,1-1.69-.63,2.5,2.5,0,0,1-.67-1.89V25.07c0-.23,0-.47,0-.72s0-.5-.05-.76l-1-.21v-.54l2.24-.6.31.26c0,.29,0,.63-.05,1s0,.75,0,1.14l0,1.52a1.65,1.65,0,0,0,.4,1.24,1.45,1.45,0,0,0,1.05.39,1.61,1.61,0,0,0,.74-.2,1.83,1.83,0,0,0,.67-.66V25.28c0-.22,0-.43,0-.63s0-.39,0-.58,0-.34,0-.48l-1.08-.21v-.54l2.28-.6.28.23c0,.24,0,.48,0,.69s0,.45,0,.68V25.7c0,.44,0,.83,0,1.15S274.52,27.43,274.54,27.61Z" transform="translate(-0.06)"/><path class="cls-1" d="M277.81,28.9a1.09,1.09,0,0,1-.54-.14,1,1,0,0,1-.38-.37,1,1,0,0,1-.14-.53,1,1,0,0,1,.14-.54,1,1,0,0,1,.38-.37,1,1,0,0,1,.54-.14,1.06,1.06,0,0,1,.94.51,1,1,0,0,1,.14.54,1,1,0,0,1-.31.73A1,1,0,0,1,277.81,28.9Zm-.32-3.06-.61-6a2,2,0,0,1,.07-.77.89.89,0,0,1,.34-.49.79.79,0,0,1,.52-.17.84.84,0,0,1,.55.17.93.93,0,0,1,.33.49,1.71,1.71,0,0,1,.07.77l-.61,6Z" transform="translate(-0.06)"/><line class="cls-2" x1="10.56" y1="0.5" x2="269.18" y2="0.5"/></g></g></svg>