<svg xmlns="http://www.w3.org/2000/svg" viewBox="0 0 143.47 30.48"><defs><style>.cls-1{fill:#b69991;}.cls-2{fill:#f2f3eb;}</style></defs><g id="Layer_2" data-name="Layer 2"><g id="Layer_1-2" data-name="Layer 1"><rect class="cls-1" width="143.47" height="30.48" rx="15.24"/><path class="cls-2" d="M19.67,19a6.88,6.88,0,0,0,.08-.91c0-.5,0-1.13,0-1.87V13c0-.8,0-1.45,0-2a5.77,5.77,0,0,0-.08-.87L18.52,10l0-.77h4.66A4.88,4.88,0,0,1,26,9.85,2.23,2.23,0,0,1,27,11.79a2.17,2.17,0,0,1-.83,1.72,3.55,3.55,0,0,1-2.15.8l-.11-.15a4.73,4.73,0,0,1,2.7.79,2.29,2.29,0,0,1,.94,1.95,2.62,2.62,0,0,1-1.25,2.3,6.06,6.06,0,0,1-3.43.84H18.56l0-.77Zm2-2.24c0,.53,0,1,0,1.41s0,.69,0,.81l.6.08a5.58,5.58,0,0,0,.64.05,3.15,3.15,0,0,0,1.95-.51,1.78,1.78,0,0,0,.65-1.51,1.87,1.87,0,0,0-.7-1.6A3.51,3.51,0,0,0,22.72,15h-.83a3.64,3.64,0,0,0-.48,0V14L22,14h.63a2.6,2.6,0,0,0,1.74-.52A1.87,1.87,0,0,0,25,12a1.81,1.81,0,0,0-.57-1.43,2.54,2.54,0,0,0-1.69-.5h-1q0,.13,0,.81c0,.45,0,1,0,1.54Z"/><path class="cls-2" d="M31.9,20.19a2.86,2.86,0,0,1-1.37-.32,2.49,2.49,0,0,1-.91-.81,1.73,1.73,0,0,1-.31-1,1.42,1.42,0,0,1,.41-1.05A3,3,0,0,1,31,16.34l2.85-.92v-.85a1.32,1.32,0,0,0-.27-.81,2,2,0,0,0-.71-.58,2.17,2.17,0,0,0-1-.22.77.77,0,0,0-.58.17,1.26,1.26,0,0,0-.18.7l-.06.89a2.07,2.07,0,0,1-1.25-.05.73.73,0,0,1-.5-.71,1,1,0,0,1,.3-.65,3.69,3.69,0,0,1,.78-.63,5.62,5.62,0,0,1,1-.51,4.66,4.66,0,0,1,1-.28,3.48,3.48,0,0,1,2.33.73,2.45,2.45,0,0,1,.87,1.93l0,2.94c0,.26,0,.5,0,.71a2,2,0,0,0,.09.49l1.2.23v.64l-1,.39a4.63,4.63,0,0,1-.52.18,1.76,1.76,0,0,1-.42.06.83.83,0,0,1-.83-.66l-.25-.78.32,0a5.44,5.44,0,0,1-1.17,1A2.16,2.16,0,0,1,31.9,20.19Zm.65-1.27a1.57,1.57,0,0,0,.7-.17,2.2,2.2,0,0,0,.63-.5V16.34l-1.81.45a1.18,1.18,0,0,0-.64.34.9.9,0,0,0-.2.6,1.09,1.09,0,0,0,.39.82A1.33,1.33,0,0,0,32.55,18.92Z"/><path class="cls-2" d="M37.73,20l-.06-.72L38.82,19c0-.07,0-.17,0-.33s0-.36,0-.62,0-.58,0-1l0-1.42c0-.4,0-.78,0-1.14a8.93,8.93,0,0,0-.12-.93l-1.18-.26v-.69l2.74-.74.36.32-.09,1h.06a4.24,4.24,0,0,1,1.27-1,3,3,0,0,1,1.39-.33,2.55,2.55,0,0,1,1.33.36,2.6,2.6,0,0,1,1,1.08A3.73,3.73,0,0,1,46,15.12v2c0,.43,0,.83,0,1.19a3.61,3.61,0,0,0,.07.72l1.15.29,0,.72h-4l0-.72L44.22,19c0-.1,0-.24,0-.4a5.21,5.21,0,0,0,0-.6c0-.24,0-.51,0-.82V15.36A2.48,2.48,0,0,0,44,14.12a1.62,1.62,0,0,0-.65-.69,1.81,1.81,0,0,0-.85-.21,2.17,2.17,0,0,0-1.06.27,2.31,2.31,0,0,0-.84.75V17c0,.53,0,1,0,1.33a3.33,3.33,0,0,0,.08.71l1.15.29-.06.72Z"/><path class="cls-2" d="M48.19,20l0-.72,1-.29a3.71,3.71,0,0,0,.06-.64c0-.3,0-.67,0-1.09s0-.89,0-1.38v-4c0-.47,0-.91,0-1.33s0-.79,0-1.1,0-.54,0-.68l-1.37-.18,0-.67,2.88-.79.41.27c0,.4,0,.79,0,1.17s0,.78,0,1.2,0,.88,0,1.37v1.65l0,4.42c0,.32,0,.6,0,.84s0,.44,0,.59,0,.26,0,.33l1.15.29-.06.72ZM57,20H54.6c-.21-.28-.39-.5-.52-.66s-.27-.32-.41-.46l-2.44-2.67h-.5l0-.52.66-.18L54,13l-1.22-.23.06-.74H56.7l0,.74L55.52,13l-3.24,2.84.24-.7,2.7,2.92.58.61c.19.2.36.36.48.47l.79.16Z"/><path class="cls-2" d="M70.48,9.11l.43,3.07-.92.09-.76-2.09a2,2,0,0,0-.36,0H67.38l-.5,0c0,.1,0,.33,0,.69s0,.8,0,1.3v3.7c0,.76,0,1.42,0,2s0,1,0,1.18l1.59.22-.06.81h-5l-.06-.81L64.92,19c0-.21,0-.6,0-1.18s0-1.23,0-2v-5c0-.36,0-.59,0-.69l-.48,0H62.93a2,2,0,0,0-.36,0l-.74,2.13-.93-.11.39-3.09.47,0,.53,0,.55,0h6.1l.55,0,.53,0Z"/><path class="cls-2" d="M71.72,20l0-.72L72.82,19a3.14,3.14,0,0,0,0-.32c0-.16,0-.37,0-.65s0-.59,0-1l0-1.42c0-.41,0-.79-.05-1.15a8.71,8.71,0,0,0-.12-.92l-1.18-.26v-.69l2.72-.74.33.28-.08,1.52.06,0a3.64,3.64,0,0,1,1.1-1.43,2.06,2.06,0,0,1,1.1-.37,1.27,1.27,0,0,1,.76.23.83.83,0,0,1,.31.71.87.87,0,0,1-.33.74,1.27,1.27,0,0,1-.83.26,1.74,1.74,0,0,1-.69-.14,2.26,2.26,0,0,1-.62-.45l.37.09a2.87,2.87,0,0,0-.61.6,4,4,0,0,0-.54.9l0,1.63q0,.54,0,1c0,.34,0,.63,0,.89s0,.45,0,.58l1.61.25-.06.76Z"/><path class="cls-2" d="M81.38,20.19A2.89,2.89,0,0,1,80,19.87a2.46,2.46,0,0,1-.9-.81,1.75,1.75,0,0,1-.32-1,1.46,1.46,0,0,1,.41-1.05,3,3,0,0,1,1.31-.71l2.85-.92v-.85a1.32,1.32,0,0,0-.27-.81,2,2,0,0,0-.71-.58,2.14,2.14,0,0,0-1-.22.73.73,0,0,0-.57.17,1.34,1.34,0,0,0-.19.7l0,.89a2.07,2.07,0,0,1-1.25-.05.73.73,0,0,1-.51-.71,1,1,0,0,1,.3-.65,4.28,4.28,0,0,1,.78-.63,5.62,5.62,0,0,1,1-.51,4.74,4.74,0,0,1,1-.28,3.47,3.47,0,0,1,2.32.73,2.49,2.49,0,0,1,.88,1.93l0,2.94c0,.26,0,.5,0,.71a1.7,1.7,0,0,0,.08.49l1.2.23v.64l-1,.39a4.5,4.5,0,0,1-.51.18,1.91,1.91,0,0,1-.43.06.83.83,0,0,1-.83-.66l-.24-.78.31,0a5.41,5.41,0,0,1-1.16,1A2.19,2.19,0,0,1,81.38,20.19ZM82,18.92a1.54,1.54,0,0,0,.7-.17,2.2,2.2,0,0,0,.63-.5V16.34l-1.81.45a1.18,1.18,0,0,0-.64.34.9.9,0,0,0-.2.6,1.09,1.09,0,0,0,.39.82A1.33,1.33,0,0,0,82,18.92Z"/><path class="cls-2" d="M87.21,20l-.06-.72L88.3,19c0-.07,0-.17,0-.33s0-.36,0-.62,0-.58,0-1l0-1.42c0-.4,0-.78,0-1.14a8.93,8.93,0,0,0-.12-.93l-1.18-.26v-.69l2.74-.74.37.32-.1,1h.06a4.37,4.37,0,0,1,1.27-1,3.06,3.06,0,0,1,1.39-.33,2.59,2.59,0,0,1,1.34.36,2.65,2.65,0,0,1,1,1.08,3.73,3.73,0,0,1,.38,1.79v2c0,.43,0,.83,0,1.19a3.36,3.36,0,0,0,.08.72l1.14.29,0,.72h-4l0-.72L93.7,19c0-.1,0-.24,0-.4s0-.37,0-.6,0-.51,0-.82V15.36a2.6,2.6,0,0,0-.26-1.24,1.7,1.7,0,0,0-.66-.69,1.8,1.8,0,0,0-.84-.21,2.18,2.18,0,0,0-1.07.27,2.48,2.48,0,0,0-.84.75V17c0,.53,0,1,0,1.33a4.19,4.19,0,0,0,.08.71l1.15.29-.06.72Z"/><path class="cls-2" d="M100.69,20.19A6.16,6.16,0,0,1,99.28,20a4.38,4.38,0,0,1-1.21-.43l-.1-2h1l.39,1.33a2.62,2.62,0,0,0,1.46.42,1.51,1.51,0,0,0,1-.28.88.88,0,0,0,.36-.75,1.1,1.1,0,0,0-.34-.81,4.27,4.27,0,0,0-1.36-.75,5.58,5.58,0,0,1-1.87-1.09,2,2,0,0,1-.53-1.4A1.9,1.9,0,0,1,98.47,13a2.92,2.92,0,0,1,1.17-.83,4.52,4.52,0,0,1,1.72-.3,5.82,5.82,0,0,1,1.09.1,4.07,4.07,0,0,1,.92.27l.21,2h-1L102.19,13a1.62,1.62,0,0,0-.44-.18,2.42,2.42,0,0,0-.54-.06,1.64,1.64,0,0,0-1,.29.92.92,0,0,0-.38.74,1,1,0,0,0,.43.85,8.45,8.45,0,0,0,1.5.8,5.25,5.25,0,0,1,1.71,1.08,2,2,0,0,1,.49,1.34,2,2,0,0,1-.92,1.71A3.9,3.9,0,0,1,100.69,20.19Z"/><path class="cls-2" d="M104.93,13.07v-.68l1.33-.34,1.3,0H110v1Zm4.62,7h-4.4l-.05-.72,1.14-.29c0-.14,0-.28,0-.44s0-.34,0-.55v-2l0-3v-2a5,5,0,0,1,.4-2.08,3.16,3.16,0,0,1,1.11-1.39,2.86,2.86,0,0,1,1.64-.49,2.5,2.5,0,0,1,1.33.34,1,1,0,0,1,.53.88.62.62,0,0,1-.19.48.73.73,0,0,1-.49.17,1.38,1.38,0,0,1-.94-.42l-.91-.87.55.11a1.07,1.07,0,0,0-1,.68,4.7,4.7,0,0,0-.34,2v1.59l0,1L108,16c0,.56,0,1.13,0,1.7s0,1,0,1.37l1.52.27Z"/><path class="cls-2" d="M114.88,20.19a4,4,0,0,1-2-.5,3.6,3.6,0,0,1-1.39-1.4,4.25,4.25,0,0,1-.51-2.11,4.49,4.49,0,0,1,.55-2.27A4.05,4.05,0,0,1,113,12.4a3.5,3.5,0,0,1,1.92-.51,2.94,2.94,0,0,1,2.34,1,3.91,3.91,0,0,1,.82,2.63v.37h-5.57V15h4.19l-.24.32v-.47A2.46,2.46,0,0,0,116,13.3a1.5,1.5,0,0,0-1.23-.56,1.76,1.76,0,0,0-1,.29,2.09,2.09,0,0,0-.72.89,3.59,3.59,0,0,0-.27,1.48v.28a3.3,3.3,0,0,0,.73,2.27,2.41,2.41,0,0,0,1.91.84,2.67,2.67,0,0,0,1.16-.25,3.25,3.25,0,0,0,1-.83l.5.47a3.65,3.65,0,0,1-1.36,1.51A3.55,3.55,0,0,1,114.88,20.19Z"/><path class="cls-2" d="M119.23,20l-.06-.72,1.15-.29c0-.05,0-.16,0-.32s0-.37,0-.65,0-.59,0-1l0-1.42c0-.41,0-.79-.05-1.15a8.71,8.71,0,0,0-.12-.92l-1.18-.26v-.69l2.72-.74.33.28-.07,1.52,0,0a3.74,3.74,0,0,1,1.1-1.43,2.09,2.09,0,0,1,1.1-.37,1.27,1.27,0,0,1,.76.23.83.83,0,0,1,.32.71.85.85,0,0,1-.34.74,1.25,1.25,0,0,1-.83.26,1.72,1.72,0,0,1-.68-.14,2.46,2.46,0,0,1-.63-.45l.37.09a2.87,2.87,0,0,0-.61.6,4,4,0,0,0-.54.9l0,1.63c0,.36,0,.71,0,1s0,.63,0,.89,0,.45,0,.58l1.61.25-.05.76Z"/></g></g></svg>