<svg xmlns="http://www.w3.org/2000/svg" viewBox="0 0 179.8 30.48"><defs><style>.cls-1{fill:#74785c;}.cls-2{fill:#f2f3eb;}</style></defs><g id="Layer_2" data-name="Layer 2"><g id="Layer_1-2" data-name="Layer 1"><rect class="cls-1" width="179.8" height="30.48" rx="15.24"/><path class="cls-2" d="M17.52,10h3.64l.05.67-1,.24q0,.09,0,.36c0,.17,0,.42,0,.73s0,.75,0,1.29v2.19a3.86,3.86,0,0,0,.31,1.6,2,2,0,0,0,.82.92,2.68,2.68,0,0,0,1.27.29,2.37,2.37,0,0,0,1.22-.3,1.89,1.89,0,0,0,.78-.94,4.29,4.29,0,0,0,.27-1.66V13.62c0-.51,0-1,0-1.34s0-.68,0-.91a1.73,1.73,0,0,0-.05-.42l-1.11-.24.05-.67h3.22l.05.67L26,11a2.24,2.24,0,0,0,0,.34c0,.2,0,.48,0,.86s0,.86,0,1.47v2a4.74,4.74,0,0,1-.45,2.19,3,3,0,0,1-1.25,1.31,3.74,3.74,0,0,1-1.82.44,3.86,3.86,0,0,1-2.83-1,3.72,3.72,0,0,1-1-2.79v-2.4c0-.54,0-1,0-1.32s0-.59,0-.76a2.85,2.85,0,0,0,0-.3l-1-.24Z"/><path class="cls-2" d="M28,22.85l0-.61,1-.26c0-.05,0-.15,0-.29s0-.33,0-.57,0-.5,0-.82,0-.68,0-1.08l0-3.67c0-.32,0-.62,0-.93a6.84,6.84,0,0,0-.1-.78l-1-.22V13l2.35-.64.32.27-.1.89.05,0a3.38,3.38,0,0,1,1-.89,2.3,2.3,0,0,1,1.18-.32,2.78,2.78,0,0,1,1.5.42A3,3,0,0,1,35.18,14a3.73,3.73,0,0,1,.39,1.75,3.84,3.84,0,0,1-.47,1.91,3.59,3.59,0,0,1-3.24,1.85,3.8,3.8,0,0,1-.72-.07,5.13,5.13,0,0,1-.68-.18v1.14q0,.57,0,1a4.86,4.86,0,0,0,0,.6l1.3.22,0,.65Zm4-4.27a1.93,1.93,0,0,0,1-.28,1.89,1.89,0,0,0,.7-.84,3.46,3.46,0,0,0,.27-1.38,3.13,3.13,0,0,0-.24-1.35,2,2,0,0,0-.69-.86,1.7,1.7,0,0,0-1-.3,1.85,1.85,0,0,0-.83.2,2.25,2.25,0,0,0-.71.61v3.76a2.21,2.21,0,0,0,.67.33A2.54,2.54,0,0,0,31.91,18.58Z"/><path class="cls-2" d="M36.59,19.36l-.05-.63,1-.24a2.58,2.58,0,0,0,0-.53q0-.39,0-1c0-.41,0-.86,0-1.37v-2c0-.38,0-.78,0-1.18s0-.79,0-1.15,0-.68,0-.95,0-.46,0-.58l-1.17-.16,0-.57,2.51-.68.35.24,0,1.32c0,.44,0,.93,0,1.46s0,1.19,0,2l0,2.47c0,.67,0,1.26,0,1.78a8.7,8.7,0,0,0,.05.94l1,.24,0,.63Z"/><path class="cls-2" d="M44.75,19.49a3.75,3.75,0,0,1-1.85-.44,3.28,3.28,0,0,1-1.23-1.25A3.7,3.7,0,0,1,41.23,16a3.58,3.58,0,0,1,.49-1.92A3.39,3.39,0,0,1,43,12.81a3.62,3.62,0,0,1,1.78-.45,3.43,3.43,0,0,1,1.77.45A3,3,0,0,1,47.75,14a3.8,3.8,0,0,1,.41,1.83,3.7,3.7,0,0,1-.45,1.83A3.52,3.52,0,0,1,46.48,19,3.24,3.24,0,0,1,44.75,19.49Zm.16-.83a1.28,1.28,0,0,0,.85-.3,1.88,1.88,0,0,0,.55-.85,3.64,3.64,0,0,0,.2-1.29A4.29,4.29,0,0,0,46,14a1.58,1.58,0,0,0-1.39-.84,1.41,1.41,0,0,0-1.23.68,3.08,3.08,0,0,0-.47,1.81,4.38,4.38,0,0,0,.25,1.55,2.41,2.41,0,0,0,.72,1.07A1.54,1.54,0,0,0,44.91,18.66Z"/><path class="cls-2" d="M51.85,19.49a2.37,2.37,0,0,1-1.18-.28,2,2,0,0,1-.78-.69,1.48,1.48,0,0,1-.27-.82,1.28,1.28,0,0,1,.35-.91,2.64,2.64,0,0,1,1.13-.6l2.44-.8v-.73a1.1,1.1,0,0,0-.23-.69,1.69,1.69,0,0,0-.61-.5,1.92,1.92,0,0,0-.84-.19.62.62,0,0,0-.49.15,1.05,1.05,0,0,0-.16.6l-.05.76a1.73,1.73,0,0,1-1.07,0,.62.62,0,0,1-.43-.61.82.82,0,0,1,.26-.56,3.08,3.08,0,0,1,.66-.54,5.87,5.87,0,0,1,.87-.43,4.15,4.15,0,0,1,.87-.25,3,3,0,0,1,2,.63,2.1,2.1,0,0,1,.76,1.66l0,2.52a5.82,5.82,0,0,0,0,.61,2.24,2.24,0,0,0,.07.42l1,.19V19l-.85.33a2.37,2.37,0,0,1-.45.15,1.34,1.34,0,0,1-.36.06.73.73,0,0,1-.72-.57l-.2-.67.27,0a4.71,4.71,0,0,1-1,.9A1.86,1.86,0,0,1,51.85,19.49Zm.55-1.1a1.26,1.26,0,0,0,.6-.14,1.65,1.65,0,0,0,.54-.43V16.19L52,16.57a1,1,0,0,0-.55.29.79.79,0,0,0-.17.52.94.94,0,0,0,.34.7A1.09,1.09,0,0,0,52.4,18.39Z"/><path class="cls-2" d="M62.48,19.54l-.3-.21,0-1-.05,0a2.73,2.73,0,0,1-.95.94,2.15,2.15,0,0,1-1,.27,3,3,0,0,1-1.59-.42,3.1,3.1,0,0,1-1.13-1.17A3.46,3.46,0,0,1,57,16.17a4,4,0,0,1,.3-1.57,3.53,3.53,0,0,1,.83-1.2,3.61,3.61,0,0,1,2.51-1,3.86,3.86,0,0,1,.81.09,2.09,2.09,0,0,1,.7.27c0-.19,0-.43,0-.71s0-.58,0-.89,0-.58,0-.83,0-.41,0-.5L60.88,9.6l0-.59,2.54-.68.33.24c0,.65,0,1.28,0,1.88s0,1.22,0,1.86V16c0,.54,0,1,0,1.36s0,.63.07.8l1,.25V19ZM60.67,18.3a1.61,1.61,0,0,0,.76-.19,2.31,2.31,0,0,0,.74-.65V14a1.68,1.68,0,0,0-.69-.66,1.85,1.85,0,0,0-.81-.19,1.76,1.76,0,0,0-1.46.69,3,3,0,0,0-.54,1.86,2.9,2.9,0,0,0,.58,1.91A1.81,1.81,0,0,0,60.67,18.3Z"/><path class="cls-2" d="M69.77,18.47a6.48,6.48,0,0,0,.06-.77c0-.44,0-1,0-1.61V13.33q0-1,0-1.68a5.35,5.35,0,0,0-.06-.75l-1-.19,0-.67h4a4.1,4.1,0,0,1,2.41.58,2,2,0,0,1,.1,3.14,3.07,3.07,0,0,1-1.85.68l-.09-.13a4.15,4.15,0,0,1,2.32.68,2,2,0,0,1,.81,1.67,2.26,2.26,0,0,1-1.08,2,5.2,5.2,0,0,1-2.94.72H68.82l0-.66Zm1.68-1.92c0,.46,0,.86,0,1.22s0,.58,0,.69l.52.07a3.81,3.81,0,0,0,.54,0,2.74,2.74,0,0,0,1.68-.44,1.54,1.54,0,0,0,.56-1.29,1.59,1.59,0,0,0-.6-1.37A3,3,0,0,0,72.39,15h-.72a2.73,2.73,0,0,0-.41,0v-.88l.51,0h.54a2.18,2.18,0,0,0,1.49-.46,1.58,1.58,0,0,0,.53-1.27,1.55,1.55,0,0,0-.5-1.23,2.15,2.15,0,0,0-1.44-.42h-.91c0,.07,0,.3,0,.69s0,.82,0,1.32Z"/><path class="cls-2" d="M84.68,18.14l1,.25V19l-2.27.57-.28-.21v-1l-.05,0a2.7,2.7,0,0,1-1,.95,2.27,2.27,0,0,1-1,.26,2.52,2.52,0,0,1-1.81-.68,2.62,2.62,0,0,1-.72-2V15.43c0-.26,0-.52,0-.78s0-.54-.06-.81l-1.07-.22V13l2.39-.64.34.27c0,.32,0,.68-.06,1.07s0,.81,0,1.24l0,1.61a1.78,1.78,0,0,0,.43,1.34,1.57,1.57,0,0,0,1.13.41,1.76,1.76,0,0,0,.79-.21,1.86,1.86,0,0,0,.71-.71V15l0-.62c0-.19,0-.36,0-.51l-1.16-.22V13l2.44-.64.3.24c0,.27,0,.51,0,.75s0,.47,0,.72v2c0,.48,0,.89,0,1.24S84.65,18,84.68,18.14Z"/><path class="cls-2" d="M86.52,19.36l0-.62.9-.25a2.92,2.92,0,0,0,0-.55q0-.39,0-.93c0-.37,0-.76,0-1.19V13.6c0-.39,0-.79,0-1.19s0-.78,0-1.14,0-.68,0-.95,0-.46,0-.58l-1.18-.16,0-.57,2.48-.68.35.24c0,.34,0,.67,0,1s0,.67,0,1,0,.75,0,1.17v1.42l0,3.79c0,.28,0,.52,0,.72s0,.38,0,.51,0,.23,0,.28l1,.25,0,.62Zm7.57,0H92l-.44-.57-.35-.4-2.1-2.28h-.43l0-.45.57-.15,2.25-2.2-1-.19,0-.63h3.29l0,.63-1,.19L90,15.76l.2-.6,2.32,2.5c.16.17.32.35.49.52l.41.4.69.15Z"/><path class="cls-2" d="M99.73,18.27a2.15,2.15,0,0,1-.85.89,2.27,2.27,0,0,1-1.19.33,2.17,2.17,0,0,1-2.3-2.41l0-3.72H94.33V13l2.24-2H97l0,2,0,3.87A1.59,1.59,0,0,0,97.24,18a1.29,1.29,0,0,0,1,.37,1.61,1.61,0,0,0,.64-.14,1.87,1.87,0,0,0,.55-.36Zm-3.5-4.91V12.5h3v.86Z"/><path class="cls-2" d="M100,19.36l0-.63,1.06-.24a1.83,1.83,0,0,0,0-.25c0-.12,0-.29,0-.52s0-.52,0-.88V15.71q0-.57,0-1.05a5.24,5.24,0,0,0-.1-.82l-1.06-.22V13l2.48-.64.3.26c0,.33-.06.65-.07,1s0,.7,0,1.12v2c0,.45,0,.83,0,1.15a4,4,0,0,0,0,.6l1.07.24,0,.63Zm1.85-8.6a1.08,1.08,0,0,1-.78-.31,1,1,0,0,1-.31-.74,1,1,0,0,1,.31-.74,1.08,1.08,0,0,1,.78-.31,1,1,0,0,1,.77.31,1,1,0,0,1,.3.74,1,1,0,0,1-1.07,1Z"/><path class="cls-2" d="M115.55,10l.37,2.64-.8.07-.65-1.79-.31,0h-1.27l-.43,0c0,.08,0,.28,0,.59s0,.69,0,1.12v3.18c0,.64,0,1.21,0,1.71s0,.82,0,1l1.37.19,0,.7h-4.32l0-.7,1.35-.19c0-.18,0-.51,0-1s0-1.07,0-1.71v-4.3c0-.31,0-.51,0-.59l-.4,0h-1.32l-.31,0-.64,1.83-.79-.1.33-2.65.41,0,.45,0,.47,0h5.24l.47,0,.46,0Z"/><path class="cls-2" d="M116.62,19.36l-.05-.62,1-.25s0-.13,0-.27,0-.32,0-.56,0-.5,0-.82l0-1.22c0-.35,0-.68,0-1s-.06-.57-.1-.79l-1-.22V13l2.33-.64.29.24-.06,1.3,0,0a3.2,3.2,0,0,1,1-1.22,1.66,1.66,0,0,1,.94-.32,1.07,1.07,0,0,1,.65.2.7.7,0,0,1,.27.61.74.74,0,0,1-.28.63,1.13,1.13,0,0,1-.72.23,1.41,1.41,0,0,1-.58-.13,2.23,2.23,0,0,1-.54-.38l.31.08a2.26,2.26,0,0,0-.52.51,3.73,3.73,0,0,0-.46.77l0,1.4,0,.9c0,.29,0,.54,0,.77s0,.38,0,.49l1.38.22,0,.65Z"/><path class="cls-2" d="M124.9,19.49a2.36,2.36,0,0,1-1.17-.28,2,2,0,0,1-.78-.69,1.48,1.48,0,0,1-.27-.82,1.28,1.28,0,0,1,.35-.91,2.64,2.64,0,0,1,1.13-.6l2.44-.8v-.73a1.1,1.1,0,0,0-.23-.69,1.78,1.78,0,0,0-.61-.5,1.92,1.92,0,0,0-.84-.19.62.62,0,0,0-.49.15,1.05,1.05,0,0,0-.16.6l0,.76a1.73,1.73,0,0,1-1.07,0,.63.63,0,0,1-.44-.61.87.87,0,0,1,.26-.56,3.43,3.43,0,0,1,.67-.54,5.87,5.87,0,0,1,.87-.43,3.84,3.84,0,0,1,.87-.25,3,3,0,0,1,2,.63,2.13,2.13,0,0,1,.76,1.66l0,2.52a5.66,5.66,0,0,0,0,.61,1.63,1.63,0,0,0,.07.42l1,.19V19l-.86.33a2.08,2.08,0,0,1-.44.15,1.35,1.35,0,0,1-.37.06.72.72,0,0,1-.71-.57l-.21-.67.27,0a4.28,4.28,0,0,1-1,.9A1.83,1.83,0,0,1,124.9,19.49Zm.56-1.1a1.26,1.26,0,0,0,.6-.14,1.76,1.76,0,0,0,.54-.43V16.19l-1.55.38a1,1,0,0,0-.55.29.79.79,0,0,0-.17.52.93.93,0,0,0,.33.7A1.13,1.13,0,0,0,125.46,18.39Z"/><path class="cls-2" d="M129.9,19.36l0-.62,1-.25s0-.15,0-.28,0-.31,0-.53,0-.5,0-.84l0-1.22c0-.34,0-.67,0-1s-.07-.58-.11-.8l-1-.22V13l2.35-.64.31.27-.07.86,0,0a3.51,3.51,0,0,1,1.09-.89,2.65,2.65,0,0,1,1.2-.29,2.27,2.27,0,0,1,1.14.31,2.33,2.33,0,0,1,.85.93,3.25,3.25,0,0,1,.33,1.54v1.71c0,.37,0,.72,0,1a2.2,2.2,0,0,0,.07.61l1,.25-.05.62h-3.44l0-.62.92-.25c0-.09,0-.2,0-.34s0-.32,0-.52,0-.43,0-.7V15.35a2.23,2.23,0,0,0-.22-1.08,1.39,1.39,0,0,0-.57-.58,1.49,1.49,0,0,0-.72-.19,1.89,1.89,0,0,0-.91.23,2.22,2.22,0,0,0-.72.65v2.36c0,.46,0,.84,0,1.15a3.46,3.46,0,0,0,.07.6l1,.25,0,.62Z"/><path class="cls-2" d="M141.48,19.49a5.64,5.64,0,0,1-1.22-.14,4,4,0,0,1-1-.37l-.08-1.74H140l.33,1.14a2.26,2.26,0,0,0,1.26.36,1.36,1.36,0,0,0,.83-.23.78.78,0,0,0,.31-.66,1,1,0,0,0-.29-.69,3.9,3.9,0,0,0-1.17-.64,4.68,4.68,0,0,1-1.6-.94,1.74,1.74,0,0,1-.1-2.24,2.61,2.61,0,0,1,1-.72,4,4,0,0,1,1.48-.26,5.07,5.07,0,0,1,.94.09,3.39,3.39,0,0,1,.79.23l.17,1.7h-.82l-.37-1.1a1.5,1.5,0,0,0-.38-.15,2.31,2.31,0,0,0-.46-.05,1.33,1.33,0,0,0-.86.25.77.77,0,0,0-.33.64.86.86,0,0,0,.37.72,7.77,7.77,0,0,0,1.28.69,4.13,4.13,0,0,1,1.47.93,1.65,1.65,0,0,1,.42,1.15,1.75,1.75,0,0,1-.78,1.47A3.43,3.43,0,0,1,141.48,19.49Z"/><path class="cls-2" d="M145.11,13.38v-.59l1.15-.29,1.11,0h2.09v.86Zm4,6H145.3l0-.62,1-.25c0-.12,0-.24,0-.37s0-.29,0-.48v-6a4.36,4.36,0,0,1,.34-1.79,2.7,2.7,0,0,1,1-1.19,2.43,2.43,0,0,1,1.4-.42,2.07,2.07,0,0,1,1.15.3.85.85,0,0,1,.46.75.51.51,0,0,1-.17.4.57.57,0,0,1-.42.16,1.24,1.24,0,0,1-.81-.37l-.78-.75.48.1a.92.92,0,0,0-.85.59,3.8,3.8,0,0,0-.29,1.69v2.23l0,2.47c0,.49,0,1,0,1.46s0,.88,0,1.18l1.3.24Z"/><path class="cls-2" d="M153.65,19.49a3.39,3.39,0,0,1-1.71-.43,3,3,0,0,1-1.2-1.21A3.62,3.62,0,0,1,150.3,16a3.82,3.82,0,0,1,.48-1.94A3.42,3.42,0,0,1,152,12.81a3,3,0,0,1,1.65-.45,2.55,2.55,0,0,1,2,.85,3.4,3.4,0,0,1,.7,2.26v.32h-4.77V15h3.58l-.2.27v-.39a2.08,2.08,0,0,0-.39-1.34,1.27,1.27,0,0,0-1.06-.49,1.5,1.5,0,0,0-.82.26,1.69,1.69,0,0,0-.61.76,3,3,0,0,0-.23,1.27v.24a2.85,2.85,0,0,0,.62,2,2.08,2.08,0,0,0,1.65.71,2.25,2.25,0,0,0,1-.21,2.72,2.72,0,0,0,.86-.71l.43.4a3,3,0,0,1-1.17,1.3A3,3,0,0,1,153.65,19.49Z"/><path class="cls-2" d="M157.38,19.36l0-.62,1-.25a2.06,2.06,0,0,0,0-.27c0-.14,0-.32,0-.56s0-.5,0-.82l0-1.22c0-.35,0-.68,0-1a6.54,6.54,0,0,0-.11-.79l-1-.22V13l2.33-.64.29.24-.07,1.3.05,0a3.11,3.11,0,0,1,.95-1.22,1.64,1.64,0,0,1,.94-.32,1.09,1.09,0,0,1,.65.2.7.7,0,0,1,.27.61.74.74,0,0,1-.28.63,1.13,1.13,0,0,1-.72.23,1.45,1.45,0,0,1-.59-.13,2.23,2.23,0,0,1-.54-.38l.32.08a2.26,2.26,0,0,0-.52.51,3.34,3.34,0,0,0-.46.77v1.4l0,.9c0,.29,0,.54,0,.77s0,.38,0,.49l1.38.22-.05.65Z"/></g></g></svg>