<svg xmlns="http://www.w3.org/2000/svg" viewBox="0 0 48.74 48.05"><defs><style>.cls-1{fill:#8a8e6d;}</style></defs><g id="Layer_2" data-name="Layer 2"><g id="Layer_1-2" data-name="Layer 1"><path class="cls-1" d="M4.06,20.37a2.5,2.5,0,0,0-2.5,2.5V45.55a2.51,2.51,0,0,0,2.5,2.5H30.2a2.51,2.51,0,0,0,2.5-2.5V22.87a2.5,2.5,0,0,0-2.5-2.5Z"/><path class="cls-1" d="M34.51,38.24l13.76,7.24a.32.32,0,0,0,.47-.28v-22a.32.32,0,0,0-.47-.28L34.51,30.18Z"/><path class="cls-1" d="M6.89,1.67a6.9,6.9,0,1,0,6.9,6.89A6.9,6.9,0,0,0,6.89,1.67Z"/><path class="cls-1" d="M27.36,17.12a8.56,8.56,0,1,1,8.56-8.56A8.57,8.57,0,0,1,27.36,17.12Z"/></g></g></svg>