<svg xmlns="http://www.w3.org/2000/svg" viewBox="0 0 226.73 68.93"><defs><style>.cls-1{fill:#8a8e6d;}</style></defs><g id="Layer_2" data-name="Layer 2"><g id="Layer_1-2" data-name="Layer 1"><path class="cls-1" d="M10.44,36.51a1.52,1.52,0,0,1,1,.37A1.32,1.32,0,0,1,11.84,38a1.44,1.44,0,0,1-.58,1,1.78,1.78,0,0,1-1.19.43c-.36,0-.5.12-.39.37a2.08,2.08,0,0,0,.45.67,4.24,4.24,0,0,0,3.12,1.1,6.5,6.5,0,0,0,2.07-.34,6.35,6.35,0,0,0,1.9-1,5.08,5.08,0,0,0,1.4-1.61,4.5,4.5,0,0,0,.55-2.26,6.82,6.82,0,0,0-.61-3,5.76,5.76,0,0,0-1.74-2.14A7.72,7.72,0,0,0,14.13,30a12.22,12.22,0,0,0-3.32-.43,9.46,9.46,0,0,0-3.67.73,10.34,10.34,0,0,0-3.17,2,10.08,10.08,0,0,0-2.26,3.11,9.23,9.23,0,0,0-.86,4,9.47,9.47,0,0,0,.92,4.24A9.76,9.76,0,0,0,4.12,46.8a10.42,10.42,0,0,0,6.75,2.53A11.81,11.81,0,0,0,18,47a30.75,30.75,0,0,0,6-5.86,62.22,62.22,0,0,0,5-7.39c1.5-2.6,2.87-4.92,4.09-7a20.64,20.64,0,0,1-4.61-1.31,14.4,14.4,0,0,1-3.66-2.17,9,9,0,0,1-2.42-3,8.67,8.67,0,0,1-.85-3.88A10.38,10.38,0,0,1,23,11.08a14.56,14.56,0,0,1,3.7-4.18,18.29,18.29,0,0,1,5.16-2.78,17.39,17.39,0,0,1,5.8-1,14.67,14.67,0,0,1,4.33.67.24.24,0,0,1,.21.36c-.06.21-.27.25-.64.13a8,8,0,0,0-1.83-.4q-.91-.09-1.89-.09a16.87,16.87,0,0,0-5.5.94,17.16,17.16,0,0,0-4.94,2.66,13.86,13.86,0,0,0-3.54,4,9.73,9.73,0,0,0-1.34,5,8.12,8.12,0,0,0,.82,3.63A9.11,9.11,0,0,0,25.58,23a12.38,12.38,0,0,0,3.48,2,18.1,18.1,0,0,0,4.46,1.1l2-3.26c.75-1.2,1.52-2.45,2.29-3.73s1.56-2.54,2.35-3.78S41.76,13,42.49,12a26.63,26.63,0,0,1,6.38-6.56,10.32,10.32,0,0,1,5.52-1.93A4.68,4.68,0,0,1,58.12,5,5.22,5.22,0,0,1,59,9.1a14.75,14.75,0,0,1-2.13,6.17,23,23,0,0,1-4.73,5.55A27.13,27.13,0,0,1,45.51,25a24.56,24.56,0,0,1-7.84,2.05q-3.12,5.37-6.08,9.61a45.46,45.46,0,0,1-6.13,7.21,24,24,0,0,1-6.72,4.51,19.15,19.15,0,0,1-7.81,1.56A11.91,11.91,0,0,1,7,49.27a10.62,10.62,0,0,1-3.51-2A10.47,10.47,0,0,1,1,44a9.53,9.53,0,0,1-1-4.37A10.22,10.22,0,0,1,1,35a11.19,11.19,0,0,1,2.59-3.41,11,11,0,0,1,3.42-2.08,10,10,0,0,1,3.57-.7,13.94,13.94,0,0,1,3.63.45,9.07,9.07,0,0,1,2.94,1.38,6.37,6.37,0,0,1,1.95,2.32,7.23,7.23,0,0,1,.7,3.3,5.87,5.87,0,0,1-.58,2.68,5.76,5.76,0,0,1-1.49,1.92,6.88,6.88,0,0,1-4.28,1.56,5.74,5.74,0,0,1-2.81-.7,3.74,3.74,0,0,1-1.77-2.11A2.33,2.33,0,0,1,9,37.43,1.67,1.67,0,0,1,10.44,36.51Zm37.3-25.34q-3.48,5.26-5.62,8.8t-3.84,6.22a21.3,21.3,0,0,0,7.08-2,26.24,26.24,0,0,0,6.13-4A22.75,22.75,0,0,0,56,14.93a15.55,15.55,0,0,0,2.2-5.83,4.73,4.73,0,0,0-.52-3.36,2.57,2.57,0,0,0-2.23-1.22A5.78,5.78,0,0,0,52.14,6,21.49,21.49,0,0,0,47.74,11.17Z"/><path class="cls-1" d="M39.62,49.39a3,3,0,0,1-2.14-.79,4,4,0,0,1-1.13-2.17,7.28,7.28,0,0,1,.16-3.14,13.23,13.23,0,0,1,1.65-3.79l6.89-11.11H42.31l.49-.79h1A3,3,0,0,0,46.52,26l3.91-6.29a13.31,13.31,0,0,0,4.33-.85L49.45,27.6h4.09l-.49.79H49L39.44,44c-.82,1.38-1.1,2.48-.86,3.29s.69,1.23,1.35,1.23a5.11,5.11,0,0,0,3.23-1.74q1.83-1.74,5-5.16.86-1,1.62-1.8c.5-.55.94-1.05,1.31-1.5s.85-1,1.22-1.4h1.16Q50.74,40,48.69,42.43A53.3,53.3,0,0,1,45,46.34a17.13,17.13,0,0,1-2.9,2.29A4.85,4.85,0,0,1,39.62,49.39Z"/><path class="cls-1" d="M74.29,36.88Q71,40.17,69,40.17a3.35,3.35,0,0,1-1.86-.49A3.23,3.23,0,0,1,66,38.43a4.29,4.29,0,0,1-.46-1.71,4.35,4.35,0,0,1,.25-1.8,65.07,65.07,0,0,0-5.59,7q-2.65,3.83-5,7.48H51.34L60.07,35a12,12,0,0,0,1.47-3.29c.16-.82,0-1.22-.61-1.22s-1.57.55-2.75,1.65-2.75,2.68-4.7,4.76H52.32a64,64,0,0,1,5.37-5.53,6,6,0,0,1,3.72-1.8,2.19,2.19,0,0,1,2.26,1.89q.49,1.91-1.16,5.74Q64,35.41,66,33.34a31.41,31.41,0,0,1,3.7-3.48h2.86a15.29,15.29,0,0,0-3.08,3.41,9.71,9.71,0,0,0-1.34,3,3.37,3.37,0,0,0,.12,2.13,1.35,1.35,0,0,0,1.31.83,2.57,2.57,0,0,0,1.56-.67q.82-.68,1.86-1.71Z"/><path class="cls-1" d="M86.2,34a5.3,5.3,0,0,1-1.56,1.89A15.46,15.46,0,0,1,82,37.55,29.52,29.52,0,0,1,78.57,39c-1.22.45-2.44.86-3.67,1.22a10.32,10.32,0,0,0-.45,3.09,6.58,6.58,0,0,0,.49,2.5,4,4,0,0,0,1.28,1.68,3.12,3.12,0,0,0,1.92.61,7.73,7.73,0,0,0,2.56-.49,13.3,13.3,0,0,0,3.24-1.77,38.08,38.08,0,0,0,4.21-3.51c1.59-1.48,3.42-3.39,5.5-5.71h1.1a74.85,74.85,0,0,1-5.62,6.11,37,37,0,0,1-4.73,3.9,18.57,18.57,0,0,1-3.94,2.11,9.52,9.52,0,0,1-3.24.64,6.41,6.41,0,0,1-3.84-1.13,6.33,6.33,0,0,1-2.29-3,8.19,8.19,0,0,1-.37-4.15,11.17,11.17,0,0,1,2-4.7,19.83,19.83,0,0,1,5-5.22,9.44,9.44,0,0,1,5.34-1.86,4.79,4.79,0,0,1,1.62.27A3.19,3.19,0,0,1,86,30.5a2.55,2.55,0,0,1,.61,1.43A4.28,4.28,0,0,1,86.2,34Zm-11,5.37a22.28,22.28,0,0,0,6.35-2.93,7.14,7.14,0,0,0,2.93-3.66,2.38,2.38,0,0,0-.06-1.93,1.3,1.3,0,0,0-1.1-.64,3.8,3.8,0,0,0-2.35,1,15.41,15.41,0,0,0-2.38,2.5,29.21,29.21,0,0,0-2.05,3A21.17,21.17,0,0,0,75.15,39.32Z"/><path class="cls-1" d="M103.66,29.61a4.43,4.43,0,0,1,3.39,1.16,3.78,3.78,0,0,1,1,2.81l2.51-4h3.84L105.67,44c-.81,1.38-1.1,2.48-.85,3.29s.69,1.23,1.34,1.23a5.11,5.11,0,0,0,3.24-1.74q1.83-1.74,5-5.16.85-1,1.62-1.8c.51-.55,1-1.05,1.31-1.5s.86-1,1.23-1.4h1.16c-1.84,2.11-3.43,4-4.8,5.55a51.31,51.31,0,0,1-3.66,3.91,17.53,17.53,0,0,1-2.9,2.29,4.88,4.88,0,0,1-2.5.76,3.1,3.1,0,0,1-2.66-1.46,5.12,5.12,0,0,1-.64-3.79,20.36,20.36,0,0,1-3.42,3.91A6.15,6.15,0,0,1,95,49.64a4.22,4.22,0,0,1-3-1.13,5.45,5.45,0,0,1-1.56-3,10.24,10.24,0,0,1,.15-4.16,13.62,13.62,0,0,1,2.17-4.7,19.86,19.86,0,0,1,5.1-5.22A10.3,10.3,0,0,1,103.66,29.61Zm.61.8a6.06,6.06,0,0,0-3.91,1.67,22.24,22.24,0,0,0-5.83,9.16A13,13,0,0,0,93.89,45a5.49,5.49,0,0,0,.52,2.59,1.62,1.62,0,0,0,1.5,1,3.61,3.61,0,0,0,2.19-.92,14.6,14.6,0,0,0,2.38-2.44A41.58,41.58,0,0,0,103,41.7l2.53-4a9.18,9.18,0,0,0,1.31-3,5.28,5.28,0,0,0,.06-2.29A2.48,2.48,0,0,0,106,31,2.63,2.63,0,0,0,104.27,30.41Z"/><path class="cls-1" d="M138,35c.85-1.38,1.16-2.48.91-3.29s-.65-1.22-1.22-1.22a4.37,4.37,0,0,0-2.44,1.16,24.87,24.87,0,0,0-3.08,3q-1.62,1.83-3.33,4.06c-1.14,1.48-2.2,2.92-3.17,4.3s-1.85,2.66-2.6,3.82-1.29,2-1.62,2.53h-3.84L126.37,35a11.65,11.65,0,0,0,1.46-3.29c.17-.82,0-1.22-.61-1.22s-1.56.55-2.74,1.65-2.75,2.68-4.71,4.76h-1.15A61.1,61.1,0,0,1,124,31.41a6,6,0,0,1,3.72-1.8A2.19,2.19,0,0,1,130,31.5q.5,1.91-1.16,5.74c1.06-1.3,2-2.43,2.84-3.39A28.12,28.12,0,0,1,134,31.47a8.88,8.88,0,0,1,2-1.4,4.66,4.66,0,0,1,2-.46,3.77,3.77,0,0,1,1.83.46,3.19,3.19,0,0,1,1.34,1.4,4.55,4.55,0,0,1,.43,2.32,8.86,8.86,0,0,1-.91,3.21,62.36,62.36,0,0,1,5-5.59,5.78,5.78,0,0,1,3.94-1.8,3.74,3.74,0,0,1,2,.58,3.42,3.42,0,0,1,1.35,1.71,5.37,5.37,0,0,1,.12,2.81,11.86,11.86,0,0,1-1.65,3.88L148.22,44a4.44,4.44,0,0,0-.85,3.29c.24.82.69,1.23,1.34,1.23A5.11,5.11,0,0,0,152,46.74q1.83-1.74,5-5.16.86-1,1.62-1.8c.51-.55,1-1.05,1.31-1.5s.86-1,1.22-1.4h1.17c-1.84,2.11-3.43,4-4.8,5.55a51.31,51.31,0,0,1-3.66,3.91,17.13,17.13,0,0,1-2.9,2.29,4.85,4.85,0,0,1-2.5.76,3.1,3.1,0,0,1-2-.7,3.81,3.81,0,0,1-1.25-2,6.8,6.8,0,0,1,0-3.12,13,13,0,0,1,1.77-4.09L149.69,35c.85-1.38,1.16-2.48.91-3.29s-.65-1.22-1.22-1.22a4.37,4.37,0,0,0-2.44,1.16,24.87,24.87,0,0,0-3.08,3q-1.62,1.83-3.33,4.06c-1.14,1.48-2.2,2.92-3.17,4.3s-1.84,2.66-2.6,3.82-1.29,2-1.61,2.53H129.3Z"/><path class="cls-1" d="M160.92,49.39a3,3,0,0,1-2.14-.79,3.87,3.87,0,0,1-1.12-2.17,7.11,7.11,0,0,1,.15-3.14,13.23,13.23,0,0,1,1.65-3.79l6.16-9.89h3.85L160.74,44c-.82,1.38-1.1,2.48-.86,3.29s.7,1.23,1.35,1.23a5.11,5.11,0,0,0,3.23-1.74q1.83-1.74,5-5.16.85-1,1.62-1.8c.5-.55.94-1.05,1.31-1.5s.85-1,1.22-1.4h1.16Q172,40,170,42.43a53.3,53.3,0,0,1-3.67,3.91,16.74,16.74,0,0,1-2.9,2.29A4.85,4.85,0,0,1,160.92,49.39Zm7.57-26.49a2.1,2.1,0,0,1,.61-1.5,2.1,2.1,0,0,1,3,0,2.06,2.06,0,0,1,.65,1.5,2,2,0,0,1-.65,1.52,2.17,2.17,0,0,1-3,0A2,2,0,0,1,168.49,22.9Z"/><path class="cls-1" d="M173.62,36.94A64,64,0,0,1,179,31.41a6,6,0,0,1,3.73-1.8A2.18,2.18,0,0,1,185,31.5q.5,1.91-1.16,5.74,1.59-2,2.84-3.39A29.74,29.74,0,0,1,189,31.47a8.92,8.92,0,0,1,2.05-1.4,4.61,4.61,0,0,1,2-.46,3.75,3.75,0,0,1,2,.58,3.41,3.41,0,0,1,1.34,1.71,5.27,5.27,0,0,1,.12,2.81,11.65,11.65,0,0,1-1.65,3.88L191.57,44c-.82,1.38-1.1,2.48-.86,3.29s.69,1.23,1.35,1.23a5.11,5.11,0,0,0,3.23-1.74q1.83-1.74,5-5.16.85-1,1.62-1.8c.5-.55.94-1.05,1.31-1.5s.85-1,1.22-1.4h1.16q-2.75,3.16-4.79,5.55a53.3,53.3,0,0,1-3.67,3.91,17.13,17.13,0,0,1-2.9,2.29,4.85,4.85,0,0,1-2.5.76,3.09,3.09,0,0,1-2-.7,3.75,3.75,0,0,1-1.25-2,6.54,6.54,0,0,1,0-3.12,12.55,12.55,0,0,1,1.77-4.09L193,35c.86-1.38,1.16-2.48.92-3.29s-.65-1.22-1.22-1.22a4.34,4.34,0,0,0-2.44,1.16,24.22,24.22,0,0,0-3.09,3q-1.62,1.83-3.32,4.06c-1.14,1.48-2.2,2.92-3.18,4.3s-1.84,2.66-2.59,3.82-1.3,2-1.62,2.53h-3.85L181.37,35a11.74,11.74,0,0,0,1.47-3.29c.16-.82,0-1.22-.61-1.22s-1.57.55-2.75,1.65-2.75,2.68-4.7,4.76Z"/><path class="cls-1" d="M194.56,68.93A4.69,4.69,0,0,1,191,67.61a4.24,4.24,0,0,1-1.29-3.08,5.88,5.88,0,0,1,1.1-3.45,12.75,12.75,0,0,1,3.09-3,29.36,29.36,0,0,1,4.76-2.68c1.85-.86,3.92-1.71,6.19-2.57.61-.24,1.25-.51,1.9-.79s1.32-.59,2-.92l2.93-4.58a18.68,18.68,0,0,1-3.05,2.29,5.83,5.83,0,0,1-2.93.77,4.23,4.23,0,0,1-2.59-1A5.08,5.08,0,0,1,201.36,46a8.43,8.43,0,0,1,.1-4.3,16.71,16.71,0,0,1,3-5.77,15.33,15.33,0,0,1,2.23-2.47,18.1,18.1,0,0,1,2.62-2,14.15,14.15,0,0,1,2.78-1.34,8.28,8.28,0,0,1,2.68-.49,4.41,4.41,0,0,1,3.39,1.16,3.79,3.79,0,0,1,1,2.81l2.5-4h3.85l-11,18.32a48.69,48.69,0,0,0,5.62-4.64,46.6,46.6,0,0,0,5.49-6.41h1.16A46.48,46.48,0,0,1,220,44.75a44.66,44.66,0,0,1-6.72,5.13l-2.63,4.33q-1.33,2.32-3,4.89A37.74,37.74,0,0,1,204,63.86a19.76,19.76,0,0,1-4.37,3.63A9.44,9.44,0,0,1,194.56,68.93Zm13.31-16.18-1.19.46c-.39.14-.77.29-1.13.46q-3.36,1.28-6.08,2.5a30.75,30.75,0,0,0-4.61,2.5,11.59,11.59,0,0,0-2.93,2.72,5.14,5.14,0,0,0-1,3.08,3.47,3.47,0,0,0,.36,1.65,3.56,3.56,0,0,0,.92,1.1,3.45,3.45,0,0,0,1.19.61,4.36,4.36,0,0,0,1.19.18,5,5,0,0,0,3.14-1.28,19.17,19.17,0,0,0,3.08-3.27c1-1.32,2-2.79,3.06-4.39s2-3.19,3-4.73Zm7.93-22.16a6.59,6.59,0,0,0-3.94,1.56,17.74,17.74,0,0,0-3.81,4.12A22.31,22.31,0,0,0,205,41.91a10,10,0,0,0-.64,3.82,3.1,3.1,0,0,0,.91,2.17,2.45,2.45,0,0,0,1.59.7q1.71,0,4.21-2.84A58.85,58.85,0,0,0,216.6,38a9.78,9.78,0,0,0,1.4-3.09,5.11,5.11,0,0,0,.06-2.32,2.75,2.75,0,0,0-.85-1.46A2.1,2.1,0,0,0,215.8,30.59Z"/><path class="cls-1" d="M91.16,21.81l-.91-.07-1,0c-.34,0-.67,0-1,0h-12l-.08-1.29,2.24-.47a5.64,5.64,0,0,0,.07-.79c0-.4,0-1,.06-1.72s0-1.68,0-2.81V4.44c0-.74,0-1.31,0-1.73a2.53,2.53,0,0,0-.11-.77L76.2,1.43,76.28.15h8.1l.07,1.35-3,.44a2.12,2.12,0,0,0-.11.68c0,.38,0,.94,0,1.69s0,1.73,0,3v7.33c0,1.22,0,2.32,0,3.28s0,1.57,0,1.82l1,.07c.34,0,.72,0,1.14,0h3.19c.53,0,1,0,1.39,0s.79-.06,1.21-.11l1.87-3.48,1.5.33Z"/><path class="cls-1" d="M94.65,21.67l-.08-1.29,2.2-.47a2.83,2.83,0,0,0,.09-.81c0-.41,0-1,0-1.74s0-1.67,0-2.77V7.26c0-1.13,0-2.07,0-2.82s0-1.35,0-1.76a2.33,2.33,0,0,0-.09-.77l-2.2-.48L94.65.15h7.22l.07,1.28-2.23.48a3.77,3.77,0,0,0-.1.66c0,.36-.06.92-.07,1.66s0,1.76,0,3v7.33c0,1.22,0,2.21,0,3s0,1.32.07,1.67a5.51,5.51,0,0,0,.1.68l2.23.47-.07,1.29Z"/><path class="cls-1" d="M113.6,21.78,105.72,1.91l-1.84-.48L104,.15h7l.07,1.28-2.24.48,6.38,16.46h-.51l6-16.46-2.56-.48.07-1.28h6.53l.07,1.28L123,1.91l-8,19.87Z"/><path class="cls-1" d="M142.45,21.85a16,16,0,0,0-1.72-.16c-.42,0-.83,0-1.25,0H126.91l-.07-1.29,2.2-.47a3.88,3.88,0,0,0,.09-.81c0-.41,0-1,0-1.76s0-1.67,0-2.75V7.26c0-1.1,0-2,0-2.81s0-1.36,0-1.77a3.12,3.12,0,0,0-.09-.77l-2.2-.48.07-1.28H139.7c.3,0,.62,0,1,0L142,0l.66,4.69-1.54.22-1.18-3a2.45,2.45,0,0,0-.58-.1h-6.51c-.33,0-.67.05-1,.1,0,.09,0,.37,0,.82s0,1,0,1.56,0,1.14,0,1.65V16.46c0,.42,0,.86,0,1.32s0,.89,0,1.27,0,.62,0,.75l1,.07c.34,0,.71,0,1.1,0h4l1.3,0a7.59,7.59,0,0,0,.84-.06,2.65,2.65,0,0,0,.46-.07l1.91-3.41,1.5.29Zm-3.88-7.74-.48-2.53a3.12,3.12,0,0,0-.59-.11c-.26,0-.59,0-1,0h-3l-1,0-1.23.08V9.68l1.23.05c.38,0,.72,0,1,0h3a9,9,0,0,0,1,0,4.12,4.12,0,0,0,.59-.07l.48-2.56H140v7Z"/></g></g></svg>