<svg xmlns="http://www.w3.org/2000/svg" viewBox="0 0 182.29 22.86"><defs><style>.cls-1{fill:#b69991;}.cls-2{fill:#f2f3eb;}</style></defs><g id="Layer_2" data-name="Layer 2"><g id="Layer_1-2" data-name="Layer 1"><rect class="cls-1" width="182.29" height="22.86" rx="11.43"/><path class="cls-2" d="M48.85,14.67A3.88,3.88,0,0,1,47,14.22,3.35,3.35,0,0,1,45.65,13a3.5,3.5,0,0,1-.47-1.82,3.77,3.77,0,0,1,.47-1.88A3.45,3.45,0,0,1,47,8a3.75,3.75,0,0,1,1.9-.48A3.6,3.6,0,0,1,50.69,8a3.12,3.12,0,0,1,1.24,1.23A3.6,3.6,0,0,1,52.38,11a3.53,3.53,0,0,1-1.14,2.71,3.89,3.89,0,0,1-1.14.71A3.43,3.43,0,0,1,48.85,14.67Zm.1-.81a1.61,1.61,0,0,0,1-.3,1.81,1.81,0,0,0,.61-.88,4,4,0,0,0,.21-1.38,4.66,4.66,0,0,0-.26-1.62,2.45,2.45,0,0,0-.7-1.08,1.59,1.59,0,0,0-1.07-.39,1.62,1.62,0,0,0-1.38.71,3.3,3.3,0,0,0-.5,1.93,4.2,4.2,0,0,0,.27,1.57,2.55,2.55,0,0,0,.75,1.06A1.65,1.65,0,0,0,49,13.86Z"/><path class="cls-2" d="M53.15,17.17l0-.51.73-.19s0-.12,0-.24,0-.27,0-.46,0-.41,0-.66,0-.54,0-.84l0-2.54c0-.24,0-.46,0-.66a4.78,4.78,0,0,0-.08-.58l-.76-.17V9.84L55,9.33l.28.2-.08.69h0A2.19,2.19,0,0,1,56,9.55a1.73,1.73,0,0,1,.89-.25,2.11,2.11,0,0,1,1.09.3,2.27,2.27,0,0,1,.79.86A2.7,2.7,0,0,1,59,11.79a2.86,2.86,0,0,1-1.35,2.47,2.94,2.94,0,0,1-1.5.39,2.69,2.69,0,0,1-.47-.05,1.64,1.64,0,0,1-.46-.12v.79c0,.28,0,.53,0,.76s0,.38,0,.44l1,.18,0,.52Zm3.06-3.28a1.28,1.28,0,0,0,.71-.2,1.24,1.24,0,0,0,.48-.59,2.37,2.37,0,0,0,.18-1,2.28,2.28,0,0,0-.17-1,1.46,1.46,0,0,0-.48-.6,1.19,1.19,0,0,0-1.22-.06,1.41,1.41,0,0,0-.46.39V13.6a1.38,1.38,0,0,0,.44.21A1.82,1.82,0,0,0,56.21,13.89Z"/><path class="cls-2" d="M62.49,14.66a2.64,2.64,0,0,1-1.32-.33,2.39,2.39,0,0,1-.92-.92,2.7,2.7,0,0,1-.33-1.35,2.86,2.86,0,0,1,.36-1.45,2.79,2.79,0,0,1,1-1,2.49,2.49,0,0,1,1.27-.34,2,2,0,0,1,1.57.65,2.53,2.53,0,0,1,.54,1.68v.26H61.11v-.6h2.48l-.17.25v-.35a1.54,1.54,0,0,0-.26-.94.89.89,0,0,0-.74-.34,1,1,0,0,0-.57.18,1.09,1.09,0,0,0-.42.53,2.26,2.26,0,0,0-.15.89v.21a2.08,2.08,0,0,0,.45,1.4,1.54,1.54,0,0,0,1.22.52,1.73,1.73,0,0,0,.73-.15,2,2,0,0,0,.64-.52l.35.31a2.37,2.37,0,0,1-.91,1A2.43,2.43,0,0,1,62.49,14.66Z"/><path class="cls-2" d="M65.26,14.56l0-.51.74-.19a1.54,1.54,0,0,0,0-.19,3.9,3.9,0,0,0,0-.4c0-.17,0-.38,0-.61v-.9q0-.39,0-.69a3.38,3.38,0,0,0-.08-.58l-.76-.17V9.84l1.93-.51.29.2-.07.66h0a2.78,2.78,0,0,1,.82-.67,1.92,1.92,0,0,1,.91-.23,1.62,1.62,0,0,1,.89.25,1.75,1.75,0,0,1,.63.71,2.58,2.58,0,0,1,.24,1.16v1.24c0,.26,0,.52,0,.75a1.71,1.71,0,0,0,0,.45l.73.19,0,.51H68.8l0-.51.69-.19a1.3,1.3,0,0,0,0-.27c0-.12,0-.25,0-.41V11.6a1.61,1.61,0,0,0-.15-.75,1,1,0,0,0-.38-.43,1,1,0,0,0-.52-.13,1.44,1.44,0,0,0-.62.14,1.59,1.59,0,0,0-.5.44v1.75c0,.3,0,.57,0,.8a2.07,2.07,0,0,0,0,.44l.74.19,0,.51Z"/><path class="cls-2" d="M77.34,14.6,74.65,8.33l-.6-.19,0-.53H77l0,.54-.73.18,2,4.8h-.42l1.84-4.8-.83-.18,0-.54h2.35l0,.53-.6.19L77.93,14.6Z"/><path class="cls-2" d="M81.24,14.56l0-.52.8-.18s0-.1,0-.2,0-.24,0-.41,0-.36,0-.59v-.9q0-.37,0-.69a3.38,3.38,0,0,0-.08-.58l-.79-.17V9.84l2-.51.28.2c0,.24,0,.49-.06.74s0,.53,0,.86v1.49c0,.29,0,.56,0,.79a1.45,1.45,0,0,0,.06.45l.79.18,0,.52Zm1.5-6.34A.89.89,0,0,1,82.08,8a.86.86,0,0,1,0-1.21.86.86,0,0,1,.66-.26.8.8,0,0,1,.65.26.88.88,0,0,1,0,1.21A.82.82,0,0,1,82.74,8.22Z"/><path class="cls-2" d="M86.64,14.66a1.82,1.82,0,0,1-.92-.23,1.69,1.69,0,0,1-.58-.54,1.15,1.15,0,0,1-.21-.62,1,1,0,0,1,.27-.69,1.85,1.85,0,0,1,.83-.46l1.84-.57v-.48a.8.8,0,0,0-.16-.49,1.36,1.36,0,0,0-1-.51.45.45,0,0,0-.32.1.77.77,0,0,0-.11.4l0,.64a1.43,1.43,0,0,1-.88,0,.51.51,0,0,1-.35-.49.67.67,0,0,1,.21-.44,3.52,3.52,0,0,1,.54-.43,6.16,6.16,0,0,1,.68-.34,3.29,3.29,0,0,1,.66-.18,2.42,2.42,0,0,1,1.58.48,1.56,1.56,0,0,1,.6,1.26l0,1.76c0,.2,0,.36,0,.49a1.13,1.13,0,0,0,.06.31l.77.15v.45l-.7.29a2.28,2.28,0,0,1-.36.13,1.88,1.88,0,0,1-.31,0,.59.59,0,0,1-.59-.45l-.18-.52.22,0a3.07,3.07,0,0,1-.74.68A1.34,1.34,0,0,1,86.64,14.66Zm.51-.95a1.09,1.09,0,0,0,.39-.08,1.15,1.15,0,0,0,.33-.26V12.18l-1,.21a.69.69,0,0,0-.41.21.55.55,0,0,0-.12.37.64.64,0,0,0,.23.51A.73.73,0,0,0,87.15,13.71Z"/><path class="cls-2" d="M98.57,8.33l-2.48,3.92.44-1.05v1.16c0,.2,0,.38,0,.55s0,.32,0,.45a2.58,2.58,0,0,0,0,.32.94.94,0,0,1,0,.16l.83.17,0,.55H94.28l0-.55.83-.17s0-.08,0-.16a2.58,2.58,0,0,0,0-.32c0-.13,0-.28,0-.45s0-.35,0-.55V11.2l.33,1.05L93.12,8.33l-.6-.18,0-.54h2.89l0,.54-.74.18L96.33,11h-.25l1.57-2.67-.83-.18,0-.54h2.29l0,.54Z"/><path class="cls-2" d="M101.52,14.66a2.84,2.84,0,0,1-1.42-.34,2.45,2.45,0,0,1-.95-.94A2.64,2.64,0,0,1,98.81,12a2.76,2.76,0,0,1,.38-1.46,2.68,2.68,0,0,1,1-.93,2.91,2.91,0,0,1,1.36-.33,2.6,2.6,0,0,1,1.35.34,2.28,2.28,0,0,1,.9.92,2.74,2.74,0,0,1,.33,1.36,2.81,2.81,0,0,1-.35,1.39,2.66,2.66,0,0,1-1,1A2.53,2.53,0,0,1,101.52,14.66Zm.12-.69a.84.84,0,0,0,.57-.21,1.19,1.19,0,0,0,.36-.59,2.88,2.88,0,0,0,.13-.92,3.38,3.38,0,0,0-.35-1.66,1.08,1.08,0,0,0-.95-.64,1,1,0,0,0-.82.49,2.41,2.41,0,0,0-.3,1.29,3.71,3.71,0,0,0,.17,1.15,1.91,1.91,0,0,0,.49.8A1,1,0,0,0,101.64,14Z"/><path class="cls-2" d="M110.36,13.57l.77.18v.47l-1.86.49-.27-.17v-.79l0,0a2.11,2.11,0,0,1-.73.73,1.62,1.62,0,0,1-.8.21,1.86,1.86,0,0,1-1.36-.52,2.13,2.13,0,0,1-.53-1.57v-1c0-.16,0-.33,0-.52s0-.38,0-.57l-.81-.17V9.84l2-.51.29.2c0,.23,0,.51,0,.83s0,.64,0,1l0,1.1a1.26,1.26,0,0,0,.3.94,1,1,0,0,0,.78.29,1.09,1.09,0,0,0,.54-.14,1.14,1.14,0,0,0,.48-.47V11.3l0-.43c0-.14,0-.26,0-.38l-.86-.17V9.84l2-.51.27.19c0,.17,0,.34,0,.52s0,.36,0,.55v1.58c0,.27,0,.53,0,.78S110.33,13.4,110.36,13.57Z"/><path class="cls-2" d="M115.62,13.65a1.51,1.51,0,0,1-.64.75,1.78,1.78,0,0,1-1,.27,1.89,1.89,0,0,1-1.3-.46,1.84,1.84,0,0,1-.5-1.4l0-2.7h-.83V9.76l1.84-1.51h.34l0,1.56,0,2.85a1.06,1.06,0,0,0,.24.77,1,1,0,0,0,.7.24,1.22,1.22,0,0,0,.46-.09,1.44,1.44,0,0,0,.39-.25ZM113,10.11v-.7h2.33v.7Z"/><path class="cls-2" d="M121.33,13.57l.77.18v.47l-1.86.49-.27-.17v-.79l0,0a2.11,2.11,0,0,1-.73.73,1.62,1.62,0,0,1-.8.21,1.86,1.86,0,0,1-1.36-.52,2.13,2.13,0,0,1-.53-1.57v-1c0-.16,0-.33,0-.52s0-.38,0-.57l-.81-.17V9.84l2-.51.29.2c0,.23,0,.51,0,.83s0,.64,0,1l0,1.1a1.26,1.26,0,0,0,.3.94,1,1,0,0,0,.78.29,1.09,1.09,0,0,0,.54-.14,1.14,1.14,0,0,0,.48-.47V11.3l0-.43c0-.14,0-.26,0-.38l-.86-.17V9.84l2-.51.27.19c0,.17,0,.34,0,.52s0,.36,0,.55v1.58c0,.27,0,.53,0,.78S121.3,13.4,121.33,13.57Z"/><path class="cls-2" d="M123.12,14.23c0-.27,0-.53,0-.77V9.31c0-.3,0-.58,0-.84s0-.47,0-.65a3.25,3.25,0,0,0,0-.39l-.87-.11,0-.46,2-.54.3.19c0,.32,0,.64,0,1s0,.7,0,1.12,0,.94,0,1.57h0a2.36,2.36,0,0,1,.7-.62,1.81,1.81,0,0,1,.93-.26,2.14,2.14,0,0,1,1.09.29,2.3,2.3,0,0,1,.81.83,2.63,2.63,0,0,1,.31,1.3,2.83,2.83,0,0,1-1.49,2.55,3.3,3.3,0,0,1-1.63.39,5.47,5.47,0,0,1-1.07-.11A5.66,5.66,0,0,1,123.12,14.23Zm2.37-.35a1.26,1.26,0,0,0,1-.46,2,2,0,0,0,.41-1.39,1.71,1.71,0,0,0-.4-1.3,1.36,1.36,0,0,0-1-.41,1.38,1.38,0,0,0-1,.49v2.73a1.46,1.46,0,0,0,.46.25A1.69,1.69,0,0,0,125.49,13.88Z"/><path class="cls-2" d="M131.75,14.66a2.64,2.64,0,0,1-1.32-.33,2.46,2.46,0,0,1-.92-.92,2.7,2.7,0,0,1-.33-1.35,2.77,2.77,0,0,1,.37-1.45,2.63,2.63,0,0,1,1-1,2.47,2.47,0,0,1,1.27-.34,2,2,0,0,1,1.57.65,2.58,2.58,0,0,1,.53,1.68v.26h-3.5v-.6h2.47l-.16.25v-.35a1.48,1.48,0,0,0-.27-.94.88.88,0,0,0-.74-.34,1,1,0,0,0-.57.18,1.13,1.13,0,0,0-.41.53,2.25,2.25,0,0,0-.16.89v.21a2.09,2.09,0,0,0,.46,1.4,1.52,1.52,0,0,0,1.21.52,1.7,1.7,0,0,0,.73-.15,1.88,1.88,0,0,0,.65-.52l.34.31a2.29,2.29,0,0,1-.9,1A2.46,2.46,0,0,1,131.75,14.66Z"/><path class="cls-2" d="M136,14.68a1,1,0,0,1-.5-.12,1.06,1.06,0,0,1-.35-.35,1,1,0,0,1-.13-.49,1,1,0,0,1,.13-.49,1.06,1.06,0,0,1,.35-.35,1,1,0,0,1,1,0,1,1,0,0,1,.36.35.92.92,0,0,1,.13.49.9.9,0,0,1-.28.68A1,1,0,0,1,136,14.68Zm-.3-2.62-.59-4.32a1.94,1.94,0,0,1,0-.77,1,1,0,0,1,.32-.5.8.8,0,0,1,.54-.18.85.85,0,0,1,.55.18,1,1,0,0,1,.31.5,1.93,1.93,0,0,1,0,.77l-.6,4.32Z"/></g></g></svg>