<svg xmlns="http://www.w3.org/2000/svg" viewBox="0 0 447.2 270.47"><defs><style>.cls-1{opacity:0.52;}.cls-2{fill:#8a8e6d;}</style></defs><g id="Layer_2" data-name="Layer 2"><g id="Layer_1-2" data-name="Layer 1"><g class="cls-1"><path class="cls-2" d="M85.48,249.63a19,19,0,0,1,4.7-8.66,17.87,17.87,0,0,1,11.29-5.22c1.33-.13,1.3.62,1.27,1.52a17.45,17.45,0,0,1-12.63,16.24c-.57.17-1.15.3-2.09.54,5.62,1.2,9.76,4,12.47,8.71a17.79,17.79,0,0,1,2.09,6.23c.19,1.3-.25,1.5-1.41,1.45-6.25-.24-12.51-5-14.85-11.27-.26-.72-.51-1.45-.85-2.41a17.63,17.63,0,0,1-15.63,13.69c-1.71.17-1.91-.57-1.61-1.95,1.64-7.54,6.11-12.34,13.64-14.22l.9-.23a19,19,0,0,1-9.35-4.71,18.32,18.32,0,0,1-5-8.91C65.25,250.79,57.87,253.82,52,254.18c-7.49.47-13.08-3.8-17.55-13.24-.59.6-.59,1.41-.87,2.09-2.86,6.72-8,10.32-15.18,11.14-1.16.13-1.4-.22-1.26-1.38a17.43,17.43,0,0,1,12.54-14.58,4,4,0,0,0,1.57-.62c-7.11-1.69-11.7-6-13.79-12.92-.75.25-.64,1-.84,1.47-2.57,6.65-7.4,10.48-14.43,11.58-1.51.23-2.22,0-2.16-1.86.27-7.49,5.69-13.94,13.77-16.12-.23-.64-.85-.51-1.3-.66-6.78-2.24-10.83-6.9-12.29-13.85-.43-2-.13-2.35,1.91-2q10.91,1.62,14.63,12c.12.32.26.65.38,1,.71-.06.52-.62.64-.95,2.59-7,7.56-11.11,15-12.06.89-.11,1.48-.14,1.67-1.31,1.16-7.27,5.33-12,12.32-14.34.46-.15,1.09,0,1.45-.7a17.77,17.77,0,0,1-13.56-13c-.65.48-.65,1.19-.86,1.79A17.57,17.57,0,0,1,18.86,187c-1.25.08-1.64-.24-1.63-1.53,0-7,5.27-13.94,12.2-16l2-.57c-1.17-.39-2.11-.65-3-1-6.33-2.59-9.92-7.36-11.1-14.05-.2-1.16.14-1.61,1.41-1.46,7.46.91,12.54,4.79,15.17,11.85.16.44.34.87.62,1.63.27-.71.43-1.16.6-1.6q4-10.65,15.34-11.89c1.35-.15,1.58.23,1.35,1.55-1.33,7.48-5.54,12.35-12.84,14.53-.32.09-.62.25-1.14.46,7.17,1.8,11.67,6.12,13.83,13.4.34-1,.55-1.59.79-2.19C55.08,173.46,60,169.73,67,168.71c1.51-.21,1.94.23,1.87,1.77a17.54,17.54,0,0,1-12.91,16c-.31.09-.73-.05-1,.5.55.2,1.07.4,1.6.58,6.8,2.25,10.74,7,12.15,13.93.31,1.57-.15,2-1.71,1.81a17.58,17.58,0,0,1-15-12.57c-.06-.2-.13-.41-.2-.65-.68.31-.61.94-.78,1.4-2.57,6.92-7.54,10.83-14.82,11.77-1,.14-1.6.3-1.79,1.47-1.16,7.38-5.46,12.09-12.51,14.38-.38.12-.85.08-1.08.6a17.94,17.94,0,0,1,8.55,4.55,19.26,19.26,0,0,1,5,8.6c3.17-8.93,9-13.75,18.34-13.37,7.17.29,12.79,5.22,15.61,13.49.33-.9.56-1.64.86-2.36,2.74-6.58,7.65-10.34,14.74-11.14,1.92-.22,2,0,1.65,2-1.56,7.58-6.14,12.3-14,14.45a19.7,19.7,0,0,1,9,4.78A18.48,18.48,0,0,1,85.48,249.63Zm-20-13.74C58.24,234.2,54,230,51.53,223.32c-2,7.84-6.62,12.46-14.48,14.37,7.31,1.74,11.83,5.89,14.12,12.86C52.92,242.8,57.47,238,65.43,235.89ZM19,220.45c-.57-.14-1.1-.07-1.08.93A15.37,15.37,0,0,0,32.6,236.7c.85.06,1.17-.23,1.12-1.1C33.14,226.35,26.63,221,19,220.45Zm50.11,18.09c.16.94.3,1.88.5,2.81a15.34,15.34,0,0,0,13.62,11.84c.78.05,1.74.37,1.68-1.08A15.34,15.34,0,0,0,70.76,237C69.54,236.92,68.89,237.16,69.13,238.54Zm-53.91-18C7.52,220.9.75,228.2.86,235.81c0,1.12.54,1.06,1.36,1A15.66,15.66,0,0,0,16.56,222C16.61,220.85,16.38,220.22,15.22,220.53Zm71,30.88c0,.75-.57,2,1.18,1.75,8.46-1,13.75-6.92,14.35-15.17.07-.88-.12-1.29-1.16-1.2C92.72,237.47,86.94,243.28,86.25,251.41ZM50.94,184.57A15.13,15.13,0,0,0,37,170c-1.33-.1-1.6.31-1.56,1.55A15.07,15.07,0,0,0,49.38,186C50.68,186.06,51.18,185.7,50.94,184.57Zm16.54,54c-.15-.58.56-1.61-1-1.6-7.58.08-14.69,7.55-14.39,15.17,0,.79.28,1,1.06,1A15.27,15.27,0,0,0,67.48,238.54ZM19.48,186c7.34-.67,13.64-5.77,14.24-14.95.05-.8-.12-1.24-1.07-1.16A15.17,15.17,0,0,0,18.28,184.7C18.23,185.71,18.53,186.19,19.48,186Zm15.85,49c-.39,1.46.28,1.77,1.81,1.56a14.93,14.93,0,0,0,13.37-13.63c.25-2.38,0-2.62-2.31-2.22C40.78,222,36,227.21,35.33,234.94Zm31.16-65a14.71,14.71,0,0,0-13.9,14.6c0,.86.15,1.29,1.19,1.22a14.82,14.82,0,0,0,13.93-14.56C67.74,170.22,67.47,169.75,66.49,170ZM36.42,202.29A15.26,15.26,0,0,0,50.8,188.87c.11-.72-.09-.93-.8-1-6.5-.47-14.31,6.66-14.55,13.28C35.42,202,35.63,202.43,36.42,202.29ZM19.34,218.56c.45-.05.86-.07,1.28-.12A14.86,14.86,0,0,0,33.33,205.6c.07-.7.28-1.39-.94-1.39-6.85,0-13.76,6.46-14.15,13.22C18.19,218.36,18.34,218.83,19.34,218.56Zm-17-14.35c-1.26-.28-1.25.48-1.08,1.45a15.34,15.34,0,0,0,14.1,13.05c.77.07,1.2.08,1.07-1A15.29,15.29,0,0,0,2.31,204.21Zm51.58-16.09c-.82-.18-1.25,0-1.14,1.09.68,6.77,7.09,13,14,13.49,1.24.1,1.56-.3,1.37-1.49A15.76,15.76,0,0,0,53.89,188.12Zm16.78,46.53a14.65,14.65,0,0,0,13.92-13.07c.09-1-.31-1.11-1.11-1.06a14.5,14.5,0,0,0-13.9,13C69.46,234.45,69.72,234.92,70.67,234.65ZM19.53,252.92a14.73,14.73,0,0,0,13.74-12.48c.2-1.14.16-1.75-1.32-1.67-6.74.37-12.9,6.06-13.66,12.71C18.17,252.57,18.25,253.31,19.53,252.92ZM36.48,168a14.63,14.63,0,0,0,13.78-12.79c.14-1.17-.23-1.4-1.34-1.33a14.7,14.7,0,0,0-13.61,12.92C35.17,167.94,35.59,168.16,36.48,168ZM83.3,254.9c-7,.45-12.27,5.47-13.54,12.51-.25,1.37.12,1.63,1.4,1.56a14.8,14.8,0,0,0,13.49-12.42C84.83,255.31,84.72,254.49,83.3,254.9Zm4.18,0c-1.23-.29-1.22.51-1.11,1.46.72,6.57,7.22,12.64,13.81,12.92,1,.05,1.34-.24,1.24-1.29C100.77,261.39,94.19,255.14,87.48,254.94ZM32.26,167.72c1.09.29,1.19-.34,1.11-1.29-.57-6.73-6.94-12.7-13.68-12.84-.94,0-1.18.15-1.07,1.18A14.57,14.57,0,0,0,32.26,167.72ZM67.1,233.83a5,5,0,0,0,0-.6C66,226,60.77,221.29,53.45,220.58c-1.25-.12-1.16.55-1.07,1.4a14.62,14.62,0,0,0,13.74,12.75C66.92,234.76,67.25,234.57,67.1,233.83Zm-17.93,19c.94.24,1.21-.19,1.1-1.24a14.81,14.81,0,0,0-13.54-12.79c-1,0-1.34.25-1.23,1.29C36.18,246.8,42.41,252.68,49.17,252.85Z"/><path class="cls-2" d="M361.72,249.63A19,19,0,0,0,357,241a17.87,17.87,0,0,0-11.29-5.22c-1.33-.13-1.3.62-1.27,1.52a17.45,17.45,0,0,0,12.63,16.24c.57.17,1.15.3,2.09.54-5.62,1.2-9.76,4-12.47,8.71a17.79,17.79,0,0,0-2.09,6.23c-.19,1.3.25,1.5,1.41,1.45,6.25-.24,12.52-5,14.85-11.27.27-.72.51-1.45.85-2.41a17.63,17.63,0,0,0,15.63,13.69c1.71.17,1.91-.57,1.61-1.95-1.64-7.54-6.11-12.34-13.64-14.22l-.9-.23a19,19,0,0,0,9.35-4.71,18.32,18.32,0,0,0,5-8.91c3.13,10.36,10.51,13.39,16.41,13.75,7.49.47,13.08-3.8,17.55-13.24.59.6.59,1.41.87,2.09,2.86,6.72,8,10.32,15.18,11.14,1.16.13,1.4-.22,1.27-1.38a17.45,17.45,0,0,0-12.55-14.58,4,4,0,0,1-1.57-.62c7.11-1.69,11.7-6,13.79-12.92.75.25.64,1,.84,1.47,2.58,6.65,7.4,10.48,14.43,11.58,1.51.23,2.22,0,2.16-1.86-.27-7.49-5.69-13.94-13.77-16.12.23-.64.85-.51,1.3-.66,6.78-2.24,10.83-6.9,12.29-13.85.43-2,.13-2.35-1.91-2q-10.91,1.62-14.63,12c-.12.32-.26.65-.38,1-.71-.06-.52-.62-.64-.95-2.59-7-7.56-11.11-15-12.06-.89-.11-1.48-.14-1.67-1.31-1.16-7.27-5.33-12-12.32-14.34-.46-.15-1.09,0-1.45-.7a17.77,17.77,0,0,0,13.56-13c.65.48.65,1.19.86,1.79A17.57,17.57,0,0,0,428.34,187c1.25.08,1.64-.24,1.63-1.53,0-7-5.27-13.94-12.19-16l-2-.57c1.17-.39,2.11-.65,3-1,6.33-2.59,9.93-7.36,11.1-14.05.2-1.16-.14-1.61-1.41-1.46-7.46.91-12.54,4.79-15.17,11.85-.16.44-.34.87-.62,1.63-.27-.71-.43-1.16-.6-1.6q-4-10.65-15.34-11.89c-1.35-.15-1.58.23-1.35,1.55,1.33,7.48,5.55,12.35,12.84,14.53.32.09.62.25,1.15.46-7.18,1.8-11.68,6.12-13.83,13.4-.35-1-.55-1.59-.8-2.19-2.65-6.63-7.54-10.36-14.59-11.38-1.51-.21-1.94.23-1.87,1.77a17.54,17.54,0,0,0,12.91,16c.31.09.73-.05,1,.5-.55.2-1.07.4-1.6.58-6.8,2.25-10.74,7-12.15,13.93-.31,1.57.15,2,1.71,1.81a17.58,17.58,0,0,0,15-12.57c.06-.2.13-.41.2-.65.68.31.61.94.78,1.4,2.57,6.92,7.54,10.83,14.82,11.77,1,.14,1.6.3,1.79,1.47,1.16,7.38,5.46,12.09,12.51,14.38.38.12.85.08,1.08.6a17.94,17.94,0,0,0-8.55,4.55,19.36,19.36,0,0,0-5,8.6c-3.17-8.93-9-13.75-18.34-13.37-7.17.29-12.79,5.22-15.61,13.49-.32-.9-.56-1.64-.86-2.36-2.74-6.58-7.64-10.34-14.74-11.14-1.92-.22-2,0-1.65,2,1.56,7.58,6.14,12.3,14,14.45a19.7,19.7,0,0,0-9,4.78A18.48,18.48,0,0,0,361.72,249.63Zm20-13.74c7.19-1.69,11.48-5.9,13.9-12.57,2,7.84,6.62,12.46,14.48,14.37-7.31,1.74-11.83,5.89-14.12,12.86C394.28,242.8,389.73,238,381.77,235.89Zm46.41-15.44c.57-.14,1.1-.07,1.08.93A15.37,15.37,0,0,1,414.6,236.7c-.85.06-1.17-.23-1.12-1.1C414.06,226.35,420.57,221,428.18,220.45Zm-50.11,18.09c-.16.94-.3,1.88-.5,2.81A15.34,15.34,0,0,1,364,253.19c-.78.05-1.74.37-1.68-1.08A15.34,15.34,0,0,1,376.44,237C377.66,236.92,378.31,237.16,378.07,238.54Zm53.91-18c7.7.37,14.47,7.67,14.36,15.28,0,1.12-.54,1.06-1.36,1A15.67,15.67,0,0,1,430.64,222C430.59,220.85,430.82,220.22,432,220.53Zm-71,30.88c0,.75.57,2-1.18,1.75-8.46-1-13.75-6.92-14.35-15.17-.07-.88.12-1.29,1.16-1.2C354.48,237.47,360.26,243.28,361,251.41Zm35.31-66.84A15.13,15.13,0,0,1,410.2,170c1.33-.1,1.6.31,1.56,1.55A15.07,15.07,0,0,1,397.82,186C396.52,186.06,396,185.7,396.26,184.57Zm-16.54,54c.15-.58-.56-1.61,1-1.6,7.58.08,14.69,7.55,14.39,15.17,0,.79-.27,1-1.06,1A15.28,15.28,0,0,1,379.72,238.54Zm48-52.59c-7.34-.67-13.64-5.77-14.24-14.95-.05-.8.12-1.24,1.07-1.16a15.19,15.19,0,0,1,14.38,14.86C429,185.71,428.67,186.19,427.72,186Zm-15.85,49c.4,1.46-.28,1.77-1.81,1.56a14.93,14.93,0,0,1-13.37-13.63c-.25-2.38,0-2.62,2.31-2.22C406.42,222,411.2,227.21,411.87,234.94Zm-31.16-65a14.71,14.71,0,0,1,13.9,14.6c0,.86-.15,1.29-1.18,1.22a14.83,14.83,0,0,1-13.94-14.56C379.46,170.22,379.73,169.75,380.71,170Zm30.07,32.31a15.26,15.26,0,0,1-14.38-13.42c-.11-.72.09-.93.8-1,6.51-.47,14.31,6.66,14.55,13.28C411.78,202,411.57,202.43,410.78,202.29Zm17.08,16.27c-.45-.05-.86-.07-1.28-.12a14.86,14.86,0,0,1-12.71-12.84c-.07-.7-.28-1.39.94-1.39,6.86,0,13.76,6.46,14.15,13.22C429,218.36,428.86,218.83,427.86,218.56Zm17-14.35c1.26-.28,1.25.48,1.08,1.45a15.34,15.34,0,0,1-14.1,13.05c-.77.07-1.2.08-1.07-1A15.29,15.29,0,0,1,444.89,204.21Zm-51.58-16.09c.82-.18,1.25,0,1.14,1.09-.68,6.77-7.09,13-13.95,13.49-1.24.1-1.56-.3-1.37-1.49A15.76,15.76,0,0,1,393.31,188.12Zm-16.78,46.53a14.65,14.65,0,0,1-13.92-13.07c-.09-1,.31-1.11,1.11-1.06a14.5,14.5,0,0,1,13.9,13C377.74,234.45,377.48,234.92,376.53,234.65Zm51.14,18.27a14.73,14.73,0,0,1-13.74-12.48c-.19-1.14-.16-1.75,1.32-1.67,6.74.37,12.9,6.06,13.66,12.71C429,252.57,429,253.31,427.67,252.92ZM410.72,168a14.63,14.63,0,0,1-13.78-12.79c-.14-1.17.23-1.4,1.34-1.33a14.7,14.7,0,0,1,13.61,12.92C412,167.94,411.61,168.16,410.72,168ZM363.9,254.9c7,.45,12.27,5.47,13.54,12.51.25,1.37-.12,1.63-1.4,1.56a14.8,14.8,0,0,1-13.49-12.42C362.38,255.31,362.48,254.49,363.9,254.9Zm-4.18,0c1.23-.29,1.22.51,1.11,1.46C360.11,263,353.61,269,347,269.32c-1,.05-1.34-.24-1.24-1.29C346.43,261.39,353,255.14,359.72,254.94Zm55.22-87.22c-1.09.29-1.19-.34-1.11-1.29.57-6.73,6.94-12.7,13.68-12.84.94,0,1.18.15,1.07,1.18A14.57,14.57,0,0,1,414.94,167.72ZM380.1,233.83a5,5,0,0,1,0-.6c1.09-7.21,6.29-11.94,13.61-12.65,1.25-.12,1.16.55,1.07,1.4a14.62,14.62,0,0,1-13.74,12.75C380.28,234.76,380,234.57,380.1,233.83Zm17.93,19c-.94.24-1.21-.19-1.1-1.24a14.81,14.81,0,0,1,13.54-12.79c1,0,1.34.25,1.23,1.29C411,246.8,404.8,252.68,398,252.85Z"/><path class="cls-2" d="M383.09,140.26a14.05,14.05,0,0,1,3.47-6.39,13.13,13.13,0,0,1,8.32-3.84c1-.1,1,.45.94,1.12a12.86,12.86,0,0,1-9.31,12c-.42.12-.85.22-1.54.4a12.92,12.92,0,0,1,10.73,11c.14,1-.19,1.1-1,1.07-4.61-.18-9.22-3.66-10.94-8.3-.2-.54-.38-1.07-.63-1.78a13.32,13.32,0,0,1-4.95,7.59,13.14,13.14,0,0,1-6.57,2.49c-1.26.14-1.41-.41-1.19-1.43,1.21-5.55,4.5-9.1,10.06-10.48l.66-.17a14.15,14.15,0,0,1-6.9-3.47,13.64,13.64,0,0,1-3.71-6.57c-2.31,7.64-7.75,9.86-12.1,10.13-5.52.35-9.64-2.8-12.94-9.76-.43.44-.43,1-.64,1.54-2.11,5-5.89,7.61-11.2,8.21-.85.1-1-.16-.92-1a12.86,12.86,0,0,1,9.25-10.75,3,3,0,0,0,1.15-.45,13.09,13.09,0,0,1-10.16-9.53c-.56.18-.48.71-.62,1.08a12.81,12.81,0,0,1-10.65,8.53c-1.11.18-1.63,0-1.58-1.36.2-5.53,4.19-10.28,10.15-11.89-.17-.47-.63-.38-1-.49a12.82,12.82,0,0,1-9.06-10.2c-.32-1.5-.1-1.74,1.4-1.52a12.7,12.7,0,0,1,10.79,8.86c.09.24.19.48.28.71.52,0,.38-.45.48-.7A12.75,12.75,0,0,1,344.23,106c.65-.08,1.09-.1,1.23-1a12.55,12.55,0,0,1,9.08-10.58c.34-.11.81,0,1.07-.52a13.08,13.08,0,0,1-10-9.6c-.48.36-.48.88-.63,1.32a12.93,12.93,0,0,1-11,8.44c-.92.06-1.21-.18-1.2-1.12a13,13,0,0,1,9-11.83l1.46-.43c-.86-.28-1.56-.47-2.22-.74a12.88,12.88,0,0,1-8.18-10.35c-.15-.86.1-1.19,1-1.08,5.5.67,9.25,3.53,11.18,8.74l.46,1.19c.2-.52.32-.85.44-1.17a12.77,12.77,0,0,1,11.31-8.77c1-.11,1.17.17,1,1.15-1,5.51-4.09,9.1-9.47,10.7-.23.07-.46.19-.84.34a13.3,13.3,0,0,1,10.19,9.88c.26-.71.41-1.17.59-1.61a12.78,12.78,0,0,1,10.76-8.39c1.11-.16,1.42.17,1.38,1.31a13,13,0,0,1-9.52,11.82c-.24.07-.54,0-.74.37l1.18.42a12.7,12.7,0,0,1,8.95,10.28c.24,1.15-.1,1.45-1.25,1.33a12.94,12.94,0,0,1-11.05-9.26c-.05-.16-.1-.31-.15-.49-.5.23-.45.7-.58,1a12.63,12.63,0,0,1-10.93,8.68c-.75.09-1.18.22-1.31,1.08-.86,5.44-4,8.91-9.23,10.6-.28.09-.63.06-.8.44a13.27,13.27,0,0,1,6.31,3.35,14.4,14.4,0,0,1,3.67,6.35c2.33-6.58,6.61-10.14,13.51-9.86,5.29.21,9.44,3.85,11.51,9.94.24-.66.42-1.2.64-1.73a12.61,12.61,0,0,1,10.86-8.22c1.42-.16,1.52,0,1.22,1.45-1.15,5.59-4.53,9.07-10.33,10.65a14.59,14.59,0,0,1,6.64,3.53A13.5,13.5,0,0,1,383.09,140.26Zm-14.78-10.13c-5.3-1.25-8.46-4.35-10.25-9.27-1.46,5.78-4.87,9.18-10.67,10.6,5.39,1.28,8.72,4.34,10.41,9.48C359.09,135.23,362.45,131.71,368.31,130.13ZM334.1,118.74c-.42-.1-.81,0-.8.69a11.34,11.34,0,0,0,10.81,11.3c.62,0,.86-.17.82-.82A11.39,11.39,0,0,0,334.1,118.74ZM371,132.08c.12.69.22,1.39.37,2.07a11.29,11.29,0,0,0,10,8.73c.57,0,1.28.28,1.24-.79A11.3,11.3,0,0,0,372.25,131C371.34,130.89,370.86,131.07,371,132.08ZM331.29,118.8a11.63,11.63,0,0,0-10.58,11.27c0,.82.4.78,1,.74a11.55,11.55,0,0,0,10.57-10.93C332.32,119,332.15,118.58,331.29,118.8Zm52.38,22.77c0,.55-.43,1.45.86,1.29,6.24-.76,10.14-5.1,10.58-11.18.05-.65-.09-1-.86-.89A11.39,11.39,0,0,0,383.67,141.57Zm-26-49.28a11.16,11.16,0,0,0-10.28-10.77c-1-.07-1.18.23-1.15,1.14a11.13,11.13,0,0,0,10.28,10.66C357.44,93.39,357.81,93.13,357.63,92.29Zm12.2,39.79c-.12-.42.41-1.19-.76-1.17-5.59.05-10.83,5.56-10.6,11.18,0,.58.2.75.78.72A11.27,11.27,0,0,0,369.83,132.08ZM334.44,93.31c5.41-.49,10.05-4.25,10.49-11,0-.58-.08-.9-.78-.85a11.2,11.2,0,0,0-10.6,11C333.52,93.13,333.73,93.49,334.44,93.31Zm11.68,36.12c-.29,1.08.21,1.31,1.34,1.15a11,11,0,0,0,9.86-10.05c.18-1.76,0-1.94-1.71-1.64C350.14,119.86,346.62,123.73,346.12,129.43Zm23-47.9A10.85,10.85,0,0,0,358.85,92.3c0,.64.11,1,.87.9A10.94,10.94,0,0,0,370,82.46C370,81.71,369.82,81.37,369.09,81.53Zm-22.16,23.82a11.25,11.25,0,0,0,10.6-9.89c.08-.53-.07-.69-.59-.72-4.8-.36-10.55,4.9-10.73,9.79C346.19,105.16,346.34,105.46,346.93,105.35Zm-12.59,12c.32,0,.63,0,.93-.09a11,11,0,0,0,9.38-9.46c.05-.52.2-1-.7-1-5.05,0-10.14,4.77-10.43,9.75C333.49,117.2,333.6,117.55,334.34,117.35Zm-12.57-10.58c-.92-.21-.91.36-.79,1.07a11.31,11.31,0,0,0,10.4,9.62c.56.05.88.06.79-.72A11.3,11.3,0,0,0,321.77,106.77Zm38-11.86c-.6-.14-.92,0-.84.8a11.78,11.78,0,0,0,10.29,10c.91.07,1.15-.22,1-1.1A11.63,11.63,0,0,0,359.8,94.91Zm12.37,34.31a10.8,10.8,0,0,0,10.27-9.64c.07-.71-.23-.82-.82-.78a10.7,10.7,0,0,0-10.25,9.58C371.28,129.07,371.47,129.41,372.17,129.22Zm-37.7,13.46a10.85,10.85,0,0,0,10.13-9.2c.15-.83.12-1.29-1-1.23a11.06,11.06,0,0,0-10.07,9.37C333.47,142.43,333.53,143,334.47,142.68ZM347,80.06a10.8,10.8,0,0,0,10.16-9.43c.1-.86-.17-1-1-1a10.83,10.83,0,0,0-10,9.53C346,80,346.31,80.19,347,80.06Zm34.51,64.08a10.83,10.83,0,0,0-10,9.23c-.18,1,.1,1.2,1,1.15a10.91,10.91,0,0,0,9.94-9.16C382.61,144.45,382.53,143.84,381.48,144.14Zm3.09,0c-.91-.21-.9.38-.82,1.08a11.42,11.42,0,0,0,10.18,9.53c.77,0,1-.19.91-1C394.37,148.93,389.52,144.32,384.57,144.17Zm-40.71-64.3c.8.21.87-.25.81-1a10.81,10.81,0,0,0-10.08-9.46c-.69,0-.87.11-.79.86A10.74,10.74,0,0,0,343.86,79.87Zm25.69,48.74c0-.18,0-.31,0-.44a10.67,10.67,0,0,0-10-9.33c-.92-.09-.85.41-.79,1a10.78,10.78,0,0,0,10.13,9.39C369.41,129.3,369.65,129.16,369.55,128.61Zm-13.23,14c.7.18.9-.14.82-.91a10.92,10.92,0,0,0-10-9.43c-.77,0-1,.18-.92,1A10.87,10.87,0,0,0,356.32,142.63Z"/><path class="cls-2" d="M63.38,140.26a14.05,14.05,0,0,0-3.47-6.39A13.1,13.1,0,0,0,51.59,130c-1-.1-1,.45-.94,1.12a12.85,12.85,0,0,0,9.32,12c.41.12.84.22,1.54.4a12.92,12.92,0,0,0-10.74,11c-.14,1,.19,1.1,1,1.07,4.61-.18,9.23-3.66,10.95-8.3l.62-1.78a13.32,13.32,0,0,0,4.95,7.59,13.14,13.14,0,0,0,6.58,2.49c1.25.14,1.41-.41,1.18-1.43-1.2-5.55-4.5-9.1-10-10.48l-.67-.17a14.15,14.15,0,0,0,6.9-3.47A13.66,13.66,0,0,0,76,133.48c2.3,7.64,7.74,9.86,12.09,10.13,5.52.35,9.64-2.8,12.94-9.76.44.44.43,1,.64,1.54,2.11,5,5.89,7.61,11.2,8.21.85.1,1-.16.93-1a12.87,12.87,0,0,0-9.25-10.75,2.94,2.94,0,0,1-1.16-.45,13.09,13.09,0,0,0,10.16-9.53c.56.18.48.71.62,1.08a12.81,12.81,0,0,0,10.65,8.53c1.11.18,1.63,0,1.58-1.36-.19-5.53-4.19-10.28-10.14-11.89.16-.47.62-.38,1-.49a12.84,12.84,0,0,0,9.07-10.2c.31-1.5.09-1.74-1.41-1.52a12.7,12.7,0,0,0-10.79,8.86c-.09.24-.19.48-.28.71-.52,0-.38-.45-.47-.7A12.78,12.78,0,0,0,102.25,106c-.66-.08-1.1-.1-1.23-1a12.56,12.56,0,0,0-9.09-10.58c-.34-.11-.81,0-1.07-.52a13.08,13.08,0,0,0,10-9.6c.48.36.48.88.64,1.32a12.92,12.92,0,0,0,11,8.44c.92.06,1.21-.18,1.21-1.12a13,13,0,0,0-9-11.83l-1.46-.43c.86-.28,1.56-.47,2.22-.74a12.86,12.86,0,0,0,8.18-10.35c.15-.86-.1-1.19-1-1.08-5.49.67-9.24,3.53-11.18,8.74L101,78.47c-.19-.52-.31-.85-.44-1.17a12.76,12.76,0,0,0-11.31-8.77c-1-.11-1.17.17-1,1.15,1,5.51,4.08,9.1,9.46,10.7.24.07.46.19.85.34a13.3,13.3,0,0,0-10.2,9.88c-.26-.71-.41-1.17-.58-1.61A12.8,12.8,0,0,0,77,80.6c-1.12-.16-1.43.17-1.39,1.31a13,13,0,0,0,9.53,11.82c.23.07.53,0,.73.37l-1.18.42a12.7,12.7,0,0,0-9,10.28c-.24,1.15.11,1.45,1.25,1.33A13,13,0,0,0,88,96.87c0-.16.09-.31.15-.49.5.23.44.7.57,1a12.64,12.64,0,0,0,10.93,8.68c.75.09,1.18.22,1.31,1.08.86,5.44,4,8.91,9.23,10.6.28.09.63.06.8.44a13.27,13.27,0,0,0-6.31,3.35,14.29,14.29,0,0,0-3.66,6.35c-2.34-6.58-6.62-10.14-13.52-9.86-5.29.21-9.43,3.85-11.51,9.94-.24-.66-.42-1.2-.64-1.73a12.61,12.61,0,0,0-10.86-8.22c-1.42-.16-1.51,0-1.22,1.45,1.15,5.59,4.53,9.07,10.34,10.65A14.58,14.58,0,0,0,67,133.68,13.5,13.5,0,0,0,63.38,140.26Zm14.78-10.13c5.3-1.25,8.46-4.35,10.25-9.27,1.46,5.78,4.88,9.18,10.67,10.6-5.39,1.28-8.72,4.34-10.41,9.48C87.38,135.23,84,131.71,78.16,130.13Zm34.21-11.39c.42-.1.81,0,.8.69a11.34,11.34,0,0,1-10.81,11.3c-.62,0-.86-.17-.82-.82A11.39,11.39,0,0,1,112.37,118.74ZM75.43,132.08c-.12.69-.22,1.39-.37,2.07a11.29,11.29,0,0,1-10,8.73c-.57,0-1.28.28-1.24-.79A11.3,11.3,0,0,1,74.23,131C75.13,130.89,75.61,131.07,75.43,132.08Zm39.75-13.28a11.63,11.63,0,0,1,10.58,11.27c0,.82-.4.78-1,.74a11.55,11.55,0,0,1-10.57-10.93C114.15,119,114.32,118.58,115.18,118.8ZM62.81,141.57c0,.55.42,1.45-.87,1.29-6.24-.76-10.14-5.1-10.58-11.18,0-.65.09-1,.86-.89A11.4,11.4,0,0,1,62.81,141.57Zm26-49.28A11.16,11.16,0,0,1,99.12,81.52c1-.07,1.18.23,1.15,1.14A11.13,11.13,0,0,1,90,93.32C89,93.39,88.67,93.13,88.84,92.29ZM76.65,132.08c.11-.42-.42-1.19.75-1.17C83,131,88.23,136.47,88,142.09c0,.58-.2.75-.79.72A11.26,11.26,0,0,1,76.65,132.08ZM112,93.31c-5.41-.49-10-4.25-10.49-11,0-.58.08-.9.78-.85a11.2,11.2,0,0,1,10.6,11C113,93.13,112.74,93.49,112,93.31Zm-11.68,36.12c.29,1.08-.21,1.31-1.33,1.15a11,11,0,0,1-9.86-10.05c-.19-1.76,0-1.94,1.7-1.64C96.33,119.86,99.86,123.73,100.35,129.43Zm-23-47.9A10.85,10.85,0,0,1,87.62,92.3c0,.64-.1,1-.87.9A10.94,10.94,0,0,1,76.48,82.46C76.46,81.71,76.65,81.37,77.38,81.53Zm22.17,23.82a11.25,11.25,0,0,1-10.61-9.89c-.07-.53.07-.69.6-.72,4.79-.36,10.55,4.9,10.72,9.79C100.28,105.16,100.13,105.46,99.55,105.35Zm12.59,12c-.33,0-.64,0-.94-.09a11,11,0,0,1-9.38-9.46c0-.52-.2-1,.7-1,5,0,10.14,4.77,10.43,9.75C113,117.2,112.88,117.55,112.14,117.35Zm12.56-10.58c.92-.21.91.36.79,1.07a11.31,11.31,0,0,1-10.39,9.62c-.57.05-.89.06-.79-.72A11.28,11.28,0,0,1,124.7,106.77Zm-38-11.86c.6-.14.92,0,.84.8a11.78,11.78,0,0,1-10.29,10c-.91.07-1.15-.22-1-1.1A11.63,11.63,0,0,1,86.67,94.91ZM74.3,129.22A10.8,10.8,0,0,1,64,119.58c-.07-.71.23-.82.82-.78a10.69,10.69,0,0,1,10.25,9.58C75.19,129.07,75,129.41,74.3,129.22ZM112,142.68a10.85,10.85,0,0,1-10.13-9.2c-.15-.83-.12-1.29,1-1.23a11.06,11.06,0,0,1,10.07,9.37C113,142.43,112.94,143,112,142.68ZM99.5,80.06a10.8,10.8,0,0,1-10.16-9.43c-.1-.86.17-1,1-1a10.84,10.84,0,0,1,10,9.53C100.47,80,100.16,80.19,99.5,80.06ZM65,144.14a10.83,10.83,0,0,1,10,9.23c.18,1-.1,1.2-1,1.15A10.91,10.91,0,0,1,64,145.36C63.86,144.45,63.94,143.84,65,144.14Zm-3.09,0c.91-.21.9.38.82,1.08a11.41,11.41,0,0,1-10.18,9.53c-.77,0-1-.19-.91-1C52.1,148.93,57,144.32,61.9,144.17Zm40.71-64.3c-.8.21-.87-.25-.81-1a10.82,10.82,0,0,1,10.08-9.46c.69,0,.87.11.79.86A10.74,10.74,0,0,1,102.61,79.87ZM76.92,128.61c0-.18,0-.31,0-.44a10.67,10.67,0,0,1,10-9.33c.92-.09.85.41.79,1a10.77,10.77,0,0,1-10.13,9.39C77.06,129.3,76.82,129.16,76.92,128.61Zm13.23,14c-.69.18-.9-.14-.82-.91a10.92,10.92,0,0,1,10-9.43c.77,0,1,.18.91,1A10.87,10.87,0,0,1,90.15,142.63Z"/></g><g class="cls-1"><path class="cls-2" d="M64.41,67.1a13.05,13.05,0,0,1,3.24-6,12.31,12.31,0,0,1,7.78-3.6c.92-.09.89.43.88,1A12,12,0,0,1,67.6,69.77c-.4.12-.79.21-1.44.37a12,12,0,0,1,10,10.31c.14.89-.17,1-1,1A12,12,0,0,1,65,73.68c-.19-.5-.36-1-.59-1.67a12.14,12.14,0,0,1-10.77,9.44c-1.18.12-1.32-.39-1.12-1.34,1.13-5.2,4.22-8.51,9.41-9.81l.62-.15a13.15,13.15,0,0,1-6.45-3.25,12.78,12.78,0,0,1-3.48-6.14C50.46,67.9,45.37,70,41.3,70.24c-5.16.32-9-2.62-12.09-9.13-.41.41-.41,1-.61,1.44a12.08,12.08,0,0,1-10.46,7.68c-.8.09-1-.15-.87-1a12,12,0,0,1,8.65-10.05A2.88,2.88,0,0,0,27,58.8a12.24,12.24,0,0,1-9.51-8.91c-.51.17-.44.66-.58,1a11.94,11.94,0,0,1-9.95,8c-1,.17-1.53,0-1.48-1.27C5.66,52.44,9.39,48,15,46.49c-.16-.44-.59-.35-.9-.46A12,12,0,0,1,5.6,36.49c-.3-1.4-.09-1.62,1.31-1.42A11.87,11.87,0,0,1,17,43.36c.08.22.18.45.26.66.49,0,.36-.42.45-.66a11.94,11.94,0,0,1,10.35-8.31c.61-.07,1-.09,1.15-.9a11.74,11.74,0,0,1,8.5-9.89c.31-.1.75,0,1-.48a12.27,12.27,0,0,1-9.36-9c-.44.33-.44.82-.59,1.23a12.11,12.11,0,0,1-10.28,7.9c-.86.05-1.13-.17-1.13-1.06a12.16,12.16,0,0,1,8.41-11.06l1.37-.39c-.81-.27-1.46-.45-2.07-.7A12,12,0,0,1,17.4,1c-.14-.8.1-1.11,1-1A11.89,11.89,0,0,1,28.83,8.2c.12.3.23.6.43,1.12.18-.49.29-.8.41-1.1A12,12,0,0,1,40.25,0c.93-.1,1.09.16.93,1.07-.92,5.16-3.82,8.52-8.85,10a7.69,7.69,0,0,0-.79.32,12.43,12.43,0,0,1,9.53,9.23c.24-.67.38-1.09.55-1.51a12,12,0,0,1,10.06-7.84c1-.15,1.33.16,1.29,1.22a12.1,12.1,0,0,1-8.9,11.06c-.22.06-.5,0-.69.34.38.14.74.28,1.1.4a11.88,11.88,0,0,1,8.38,9.61c.21,1.08-.1,1.36-1.18,1.24a12.09,12.09,0,0,1-10.33-8.66c-.05-.14-.09-.29-.14-.45-.47.21-.42.65-.54,1a11.8,11.8,0,0,1-10.22,8.11c-.7.09-1.1.21-1.23,1-.8,5.09-3.76,8.34-8.63,9.92-.26.08-.58.05-.74.41a12.34,12.34,0,0,1,5.89,3.14,13.29,13.29,0,0,1,3.43,5.93c2.19-6.16,6.19-9.48,12.64-9.22,4.95.2,8.82,3.6,10.77,9.3.22-.62.38-1.13.59-1.63a11.8,11.8,0,0,1,10.16-7.68c1.32-.15,1.41,0,1.14,1.36-1.08,5.22-4.24,8.48-9.67,10A13.54,13.54,0,0,1,61,60.94,12.74,12.74,0,0,1,64.41,67.1ZM50.58,57.63A12.62,12.62,0,0,1,41,49c-1.37,5.4-4.56,8.59-10,9.91a12.47,12.47,0,0,1,9.73,8.86C42,62.39,45.1,59.11,50.58,57.63ZM18.59,47c-.4-.09-.76,0-.75.64A10.62,10.62,0,0,0,28,58.19c.58,0,.81-.16.77-.77A10.65,10.65,0,0,0,18.59,47ZM53.13,59.45c.12.65.21,1.3.35,1.94a10.56,10.56,0,0,0,9.39,8.16c.53,0,1.2.26,1.16-.74A10.57,10.57,0,0,0,54.26,58.4C53.42,58.34,53,58.5,53.13,59.45ZM16,47a10.87,10.87,0,0,0-9.9,10.54c0,.77.37.73.93.69A10.81,10.81,0,0,0,16.89,48C16.93,47.26,16.77,46.82,16,47Zm49,21.29c0,.52-.39,1.36.81,1.21,5.83-.71,9.48-4.77,9.9-10.46,0-.6-.09-.88-.81-.82A10.65,10.65,0,0,0,64.94,68.32ZM40.59,22.24A10.43,10.43,0,0,0,31,12.17c-.92-.07-1.1.21-1.07,1.07a10.39,10.39,0,0,0,9.61,10C40.41,23.27,40.76,23,40.59,22.24ZM52,59.45c-.11-.4.38-1.11-.71-1.1-5.22.06-10.13,5.21-9.91,10.46,0,.54.18.7.73.67A10.53,10.53,0,0,0,52,59.45ZM18.91,23.19c5.06-.46,9.4-4,9.81-10.31,0-.54-.08-.84-.73-.79a10.47,10.47,0,0,0-9.92,10.24C18,23,18.25,23.36,18.91,23.19ZM29.83,57c-.27,1,.19,1.22,1.25,1.08a10.32,10.32,0,0,0,9.22-9.4c.17-1.64,0-1.81-1.59-1.53C33.59,48,30.29,51.64,29.83,57ZM51.31,12.18a10.15,10.15,0,0,0-9.58,10.07c0,.59.1.89.82.84a10.23,10.23,0,0,0,9.61-10C52.18,12.35,52,12,51.31,12.18ZM30.58,34.46a10.53,10.53,0,0,0,9.92-9.25c.07-.5-.06-.65-.56-.68-4.48-.33-9.86,4.58-10,9.15C29.89,34.27,30,34.55,30.58,34.46ZM18.81,45.67c.31,0,.59,0,.88-.08a10.23,10.23,0,0,0,8.76-8.85c.05-.48.19-1-.65-1-4.72,0-9.48,4.46-9.75,9.12C18,45.54,18.12,45.87,18.81,45.67ZM7.06,35.78c-.86-.19-.85.34-.74,1a10.59,10.59,0,0,0,9.72,9c.53,0,.83,0,.74-.68A10.54,10.54,0,0,0,7.06,35.78ZM42.63,24.69c-.57-.13-.87,0-.79.75a11,11,0,0,0,9.62,9.3c.85.07,1.08-.21.95-1A10.88,10.88,0,0,0,42.63,24.69ZM54.19,56.77a10.11,10.11,0,0,0,9.61-9c.06-.66-.22-.76-.77-.73a10,10,0,0,0-9.58,9C53.36,56.63,53.54,57,54.19,56.77ZM18.94,69.37a10.17,10.17,0,0,0,9.47-8.61c.14-.78.11-1.2-.91-1.15a10.33,10.33,0,0,0-9.41,8.77C18,69.13,18.06,69.64,18.94,69.37ZM30.62,10.81A10.11,10.11,0,0,0,40.13,2c.09-.81-.16-1-.93-.92A10.13,10.13,0,0,0,29.82,10C29.72,10.78,30,10.93,30.62,10.81ZM62.9,70.73a10.1,10.1,0,0,0-9.33,8.63c-.17.94.08,1.12,1,1.07a10.19,10.19,0,0,0,9.3-8.56C64,71,63.88,70.45,62.9,70.73Zm2.89,0c-.85-.2-.84.35-.77,1a10.66,10.66,0,0,0,9.52,8.91c.72,0,.92-.17.85-.89C75,75.2,70.41,70.89,65.79,70.76ZM27.71,10.62c.75.2.82-.23.77-.88A10.11,10.11,0,0,0,19.05.89c-.65,0-.81.1-.74.8A10,10,0,0,0,27.71,10.62Zm24,45.58c0-.16,0-.28,0-.41a10,10,0,0,0-9.39-8.72c-.86-.09-.79.38-.73,1a10.08,10.08,0,0,0,9.47,8.79C51.61,56.85,51.84,56.72,51.74,56.2ZM39.37,69.32c.65.16.84-.13.76-.86a10.23,10.23,0,0,0-9.33-8.82c-.72,0-.93.18-.85.89A10.15,10.15,0,0,0,39.37,69.32Z"/><path class="cls-2" d="M382.79,67.1a13.05,13.05,0,0,0-3.24-6,12.31,12.31,0,0,0-7.78-3.6c-.92-.09-.89.43-.88,1a12,12,0,0,0,8.71,11.19c.4.12.79.21,1.44.37a12,12,0,0,0-10,10.31c-.14.89.17,1,1,1a12,12,0,0,0,10.23-7.77c.19-.5.36-1,.59-1.67a12.14,12.14,0,0,0,10.77,9.44c1.18.12,1.32-.39,1.12-1.34-1.13-5.2-4.22-8.51-9.41-9.81l-.62-.15a13.15,13.15,0,0,0,6.45-3.25,12.78,12.78,0,0,0,3.48-6.14c2.15,7.14,7.24,9.22,11.31,9.48,5.16.32,9-2.62,12.09-9.13.41.41.41,1,.61,1.44a12.08,12.08,0,0,0,10.46,7.68c.8.09,1-.15.87-1a12,12,0,0,0-8.65-10.05,3,3,0,0,1-1.08-.43,12.24,12.24,0,0,0,9.51-8.91c.52.17.44.66.58,1a11.94,11.94,0,0,0,9.95,8c1,.17,1.53,0,1.48-1.27-.18-5.17-3.91-9.62-9.49-11.12.16-.44.59-.35.9-.46a12,12,0,0,0,8.47-9.54c.3-1.4.09-1.62-1.31-1.42a11.87,11.87,0,0,0-10.09,8.29c-.08.22-.18.45-.26.66-.49,0-.36-.42-.45-.66a11.94,11.94,0,0,0-10.35-8.31c-.61-.07-1-.09-1.15-.9a11.73,11.73,0,0,0-8.5-9.89c-.31-.1-.75,0-1-.48a12.27,12.27,0,0,0,9.36-9c.44.33.44.82.59,1.23a12.11,12.11,0,0,0,10.28,7.9c.86.05,1.13-.17,1.13-1.06a12.16,12.16,0,0,0-8.41-11.06l-1.37-.39c.81-.27,1.46-.45,2.08-.7A12,12,0,0,0,429.8,1c.14-.8-.1-1.11-1-1A11.89,11.89,0,0,0,418.37,8.2c-.11.3-.23.6-.43,1.12-.18-.49-.29-.8-.41-1.1A12,12,0,0,0,407,0c-.93-.1-1.09.16-.93,1.07.92,5.16,3.82,8.52,8.85,10a7.69,7.69,0,0,1,.79.32,12.43,12.43,0,0,0-9.53,9.23c-.24-.67-.38-1.09-.55-1.51a12,12,0,0,0-10.06-7.84c-1-.15-1.33.16-1.29,1.22a12.1,12.1,0,0,0,8.9,11.06c.22.06.51,0,.69.34-.38.14-.74.28-1.1.4a11.88,11.88,0,0,0-8.38,9.61c-.21,1.08.1,1.36,1.18,1.24a12.09,12.09,0,0,0,10.33-8.66c0-.14.09-.29.14-.45.47.21.42.65.54,1a11.8,11.8,0,0,0,10.22,8.11c.7.09,1.1.21,1.23,1,.8,5.09,3.77,8.34,8.63,9.92.26.08.59.05.74.41a12.34,12.34,0,0,0-5.89,3.14A13.29,13.29,0,0,0,418,55.56c-2.19-6.16-6.19-9.48-12.64-9.22-4.95.2-8.82,3.6-10.77,9.3-.22-.62-.38-1.13-.59-1.63a11.8,11.8,0,0,0-10.16-7.68c-1.32-.15-1.41,0-1.14,1.36,1.08,5.22,4.24,8.48,9.67,10a13.54,13.54,0,0,0-6.21,3.29A12.74,12.74,0,0,0,382.79,67.1Zm13.83-9.47A12.62,12.62,0,0,0,406.2,49c1.37,5.4,4.56,8.59,10,9.91a12.47,12.47,0,0,0-9.73,8.86C405.24,62.39,402.1,59.11,396.62,57.63Zm32-10.65c.4-.09.76,0,.75.64a10.62,10.62,0,0,1-10.11,10.57c-.58,0-.81-.16-.77-.77A10.65,10.65,0,0,1,428.61,47ZM394.07,59.45c-.12.65-.21,1.3-.35,1.94a10.56,10.56,0,0,1-9.39,8.16c-.53,0-1.2.26-1.15-.74a10.56,10.56,0,0,1,9.76-10.41C393.78,58.34,394.23,58.5,394.07,59.45ZM431.24,47a10.88,10.88,0,0,1,9.9,10.54c0,.77-.38.73-.94.69A10.81,10.81,0,0,1,430.31,48C430.27,47.26,430.43,46.82,431.24,47Zm-49,21.29c0,.52.39,1.36-.81,1.21-5.83-.71-9.48-4.77-9.9-10.46,0-.6.09-.88.81-.82A10.64,10.64,0,0,1,382.26,68.32Zm24.35-46.08a10.43,10.43,0,0,1,9.61-10.07c.92-.07,1.1.21,1.07,1.07a10.39,10.39,0,0,1-9.61,10C406.79,23.27,406.44,23,406.61,22.24ZM395.2,59.45c.11-.4-.38-1.11.71-1.1,5.22.06,10.13,5.21,9.92,10.46,0,.54-.19.7-.74.67A10.53,10.53,0,0,1,395.2,59.45Zm33.09-36.26c-5.06-.46-9.4-4-9.81-10.31,0-.54.08-.84.74-.79a10.47,10.47,0,0,1,9.91,10.24C429.16,23,429,23.36,428.29,23.19ZM417.37,57c.27,1-.19,1.22-1.25,1.08a10.32,10.32,0,0,1-9.22-9.4c-.17-1.64,0-1.81,1.59-1.53C413.61,48,416.91,51.64,417.37,57ZM395.89,12.18a10.15,10.15,0,0,1,9.58,10.07c0,.59-.1.89-.82.84a10.23,10.23,0,0,1-9.61-10C395,12.35,395.21,12,395.89,12.18Zm20.73,22.28a10.53,10.53,0,0,1-9.92-9.25c-.07-.5.06-.65.56-.68,4.48-.33,9.86,4.58,10,9.15C417.31,34.27,417.16,34.55,416.62,34.46Zm11.77,11.21c-.31,0-.59,0-.88-.08a10.23,10.23,0,0,1-8.76-8.85c-.05-.48-.19-1,.65-1,4.72,0,9.48,4.46,9.75,9.12C429.19,45.54,429.08,45.87,428.39,45.67Zm11.75-9.89c.86-.19.85.34.74,1a10.59,10.59,0,0,1-9.72,9c-.53,0-.83,0-.74-.68A10.56,10.56,0,0,1,440.14,35.78ZM404.57,24.69c.57-.13.87,0,.79.75a11,11,0,0,1-9.62,9.3c-.85.07-1.07-.21-.95-1A10.88,10.88,0,0,1,404.57,24.69ZM393,56.77a10.11,10.11,0,0,1-9.61-9c-.06-.66.22-.76.77-.73a10,10,0,0,1,9.58,9C393.84,56.63,393.66,57,393,56.77Zm35.25,12.6a10.17,10.17,0,0,1-9.47-8.61c-.14-.78-.11-1.2.91-1.15a10.35,10.35,0,0,1,9.42,8.77C429.2,69.13,429.14,69.64,428.26,69.37ZM416.58,10.81A10.11,10.11,0,0,1,407.07,2c-.09-.81.16-1,.93-.92A10.13,10.13,0,0,1,417.38,10C417.48,10.78,417.19,10.93,416.58,10.81ZM384.3,70.73a10.09,10.09,0,0,1,9.33,8.63c.17.94-.08,1.12-1,1.07a10.19,10.19,0,0,1-9.3-8.56C383.25,71,383.32,70.45,384.3,70.73Zm-2.89,0c.85-.2.84.35.77,1a10.66,10.66,0,0,1-9.52,8.91c-.72,0-.92-.17-.85-.89C372.25,75.2,376.79,70.89,381.41,70.76Zm38.08-60.14c-.75.2-.82-.23-.77-.88A10.11,10.11,0,0,1,428.15.89c.65,0,.82.1.74.8A10,10,0,0,1,419.49,10.62Zm-24,45.58c0-.16,0-.28,0-.41a10,10,0,0,1,9.39-8.72c.86-.09.79.38.73,1a10.08,10.08,0,0,1-9.47,8.79C395.59,56.85,395.37,56.72,395.46,56.2Zm12.37,13.12c-.65.16-.84-.13-.76-.86a10.23,10.23,0,0,1,9.33-8.82c.72,0,.93.18.85.89A10.15,10.15,0,0,1,407.83,69.32Z"/></g></g></g></svg>