<svg xmlns="http://www.w3.org/2000/svg" viewBox="0 0 204.8 22.92"><defs><style>.cls-1{fill:#8a8e6d;}</style></defs><g id="Layer_2" data-name="Layer 2"><g id="Layer_1-2" data-name="Layer 1"><path class="cls-1" d="M.58,2.59H2.93L5.4,8H5.11L7.4,2.59H9.69l0,.54L9,3.3a4,4,0,0,0,0,.51c0,.26,0,.6,0,1l.07,2.11c0,.34,0,.65,0,.91s0,.48,0,.64,0,.27,0,.33L9.93,9l0,.54h-3l0-.54.75-.18a1.64,1.64,0,0,0,0-.27c0-.13,0-.33,0-.59s0-.57,0-1l0-4.08h.47L5.22,9.58H4.6L1.52,2.93H2.1V7c0,.63,0,1.07,0,1.34s0,.44,0,.5L3,9l0,.54H.41L.38,9l.82-.18c0-.06,0-.16,0-.33s0-.36,0-.59,0-.5,0-.77l0-2.28c0-.44,0-.78,0-1s0-.42,0-.52L.54,3.13Z" transform="translate(-0.38 -1.3)"/><path class="cls-1" d="M13.37,9.64a2.55,2.55,0,0,1-1.32-.34,2.34,2.34,0,0,1-.91-.91A2.6,2.6,0,0,1,10.8,7a2.87,2.87,0,0,1,.37-1.45,2.79,2.79,0,0,1,1-1,2.4,2.4,0,0,1,1.27-.34A2,2,0,0,1,15,4.93a2.52,2.52,0,0,1,.54,1.67v.26H12V6.27h2.48l-.17.25V6.17A1.48,1.48,0,0,0,14,5.23a.86.86,0,0,0-.74-.34,1.08,1.08,0,0,0-.57.17,1.21,1.21,0,0,0-.41.54,2.26,2.26,0,0,0-.15.89V6.7a2.08,2.08,0,0,0,.45,1.4,1.57,1.57,0,0,0,1.22.52,1.77,1.77,0,0,0,.73-.15A2,2,0,0,0,15.21,8l.34.31a2.34,2.34,0,0,1-.9,1A2.44,2.44,0,0,1,13.37,9.64Z" transform="translate(-0.38 -1.3)"/><path class="cls-1" d="M18.89,9.64a2.55,2.55,0,0,1-1.32-.34,2.34,2.34,0,0,1-.91-.91A2.6,2.6,0,0,1,16.32,7a2.87,2.87,0,0,1,.37-1.45,2.79,2.79,0,0,1,1-1,2.4,2.4,0,0,1,1.27-.34,2,2,0,0,1,1.57.65A2.52,2.52,0,0,1,21,6.6v.26H17.52V6.27H20l-.17.25V6.17a1.48,1.48,0,0,0-.27-.94.86.86,0,0,0-.74-.34,1.08,1.08,0,0,0-.57.17,1.21,1.21,0,0,0-.41.54,2.26,2.26,0,0,0-.15.89V6.7a2.08,2.08,0,0,0,.45,1.4,1.57,1.57,0,0,0,1.22.52,1.73,1.73,0,0,0,.73-.15A2,2,0,0,0,20.73,8l.34.31a2.34,2.34,0,0,1-.9,1A2.44,2.44,0,0,1,18.89,9.64Z" transform="translate(-0.38 -1.3)"/><path class="cls-1" d="M25.72,8.63a1.56,1.56,0,0,1-.64.75,1.78,1.78,0,0,1-1,.27,1.89,1.89,0,0,1-1.3-.46,1.84,1.84,0,0,1-.5-1.4l0-2.7h-.83V4.74l1.84-1.51h.34l0,1.56,0,2.84a1,1,0,0,0,.25.78.93.93,0,0,0,.69.24,1.22,1.22,0,0,0,.46-.09,1.44,1.44,0,0,0,.39-.25ZM23.06,5.09v-.7h2.33v.7Z" transform="translate(-0.38 -1.3)"/><path class="cls-1" d="M33.74,8.55l.77.17V9.2l-1.86.48-.27-.16v-.8h0a2.11,2.11,0,0,1-.73.73,1.62,1.62,0,0,1-.8.21,1.9,1.9,0,0,1-1.36-.52,2.13,2.13,0,0,1-.53-1.57v-1c0-.16,0-.33,0-.52s0-.38,0-.57l-.81-.17V4.82l2-.51.29.2c0,.23,0,.51,0,.83s0,.64,0,1v1.1a1.26,1.26,0,0,0,.29.94,1.09,1.09,0,0,0,.78.29,1.19,1.19,0,0,0,1-.61V6.28l0-.43a3.71,3.71,0,0,0,0-.38l-.86-.17V4.82l2-.51.27.19c0,.17,0,.34,0,.52s0,.36,0,.55V7.15c0,.27,0,.53,0,.77A5,5,0,0,0,33.74,8.55Z" transform="translate(-0.38 -1.3)"/><path class="cls-1" d="M37,9.64A4.31,4.31,0,0,1,36,9.53a3.38,3.38,0,0,1-.8-.28L35.18,7.9h.7l.25.85a1.74,1.74,0,0,0,.94.27.88.88,0,0,0,.59-.17.52.52,0,0,0,.21-.43.67.67,0,0,0-.21-.49,3,3,0,0,0-.87-.45,3.23,3.23,0,0,1-1.2-.7A1.35,1.35,0,0,1,35.53,5a1.91,1.91,0,0,1,.78-.56,3.26,3.26,0,0,1,1.17-.2,3.71,3.71,0,0,1,.74.07,2.18,2.18,0,0,1,.62.18L39,5.86h-.68L38,5a.71.71,0,0,0-.28-.11,1.24,1.24,0,0,0-.33,0,1,1,0,0,0-.61.17.5.5,0,0,0-.23.44.63.63,0,0,0,.26.5,5.6,5.6,0,0,0,1,.5,3.38,3.38,0,0,1,1.11.68,1.29,1.29,0,0,1,.32.88,1.36,1.36,0,0,1-.62,1.15A2.76,2.76,0,0,1,37,9.64Z" transform="translate(-0.38 -1.3)"/><path class="cls-1" d="M44.48,9.59,42.33,5.08l-.56-.19,0-.51h2.79l0,.51-.73.19L45.31,8.2H45l1.34-3.12-.74-.19,0-.51h2.08l0,.51-.56.19L44.94,9.59Z" transform="translate(-0.38 -1.3)"/><path class="cls-1" d="M47.86,9.54l0-.52.8-.18a1.8,1.8,0,0,0,0-.2c0-.1,0-.24,0-.41s0-.37,0-.6v-.9c0-.24,0-.47,0-.68a3.38,3.38,0,0,0-.08-.58l-.79-.17V4.82l2-.51.28.2c0,.24-.05.49-.06.74s0,.53,0,.86V7.6c0,.29,0,.56,0,.79a1.45,1.45,0,0,0,.06.45l.79.18,0,.52Zm1.5-6.34A.89.89,0,0,1,48.7,3a.82.82,0,0,1-.25-.61.82.82,0,0,1,.25-.6.87.87,0,0,1,.66-.27.84.84,0,0,1,.66.27A.91.91,0,0,1,50,3,.86.86,0,0,1,49.36,3.2Z" transform="translate(-0.38 -1.3)"/><path class="cls-1" d="M51.31,9.54l0-.51L52,8.84a1.23,1.23,0,0,0,0-.2c0-.1,0-.24,0-.41s0-.37,0-.6l0-.9c0-.24,0-.47,0-.68A3.38,3.38,0,0,0,52,5.47l-.76-.17V4.82l1.91-.51.26.19-.05.94,0,0a2.36,2.36,0,0,1,.7-.91,1.3,1.3,0,0,1,.71-.23.83.83,0,0,1,.52.16.59.59,0,0,1,.22.51.68.68,0,0,1-.23.54.93.93,0,0,1-.57.19,1.25,1.25,0,0,1-.48-.1,1.64,1.64,0,0,1-.45-.32l.29,0a1.78,1.78,0,0,0-.37.36,2.78,2.78,0,0,0-.32.51v1q0,.39,0,.72c0,.23,0,.42,0,.59s0,.27,0,.33l1,.17,0,.53Z" transform="translate(-0.38 -1.3)"/><path class="cls-1" d="M60,8.63a1.54,1.54,0,0,1-.63.75,1.84,1.84,0,0,1-1,.27,1.89,1.89,0,0,1-1.3-.46,1.84,1.84,0,0,1-.5-1.4l0-2.7h-.83V4.74l1.83-1.51H58l0,1.56,0,2.84a1,1,0,0,0,.25.78,1,1,0,0,0,.7.24,1.13,1.13,0,0,0,.45-.09,1.3,1.3,0,0,0,.39-.25ZM57.35,5.09v-.7h2.32v.7Z" transform="translate(-0.38 -1.3)"/><path class="cls-1" d="M65.71,8.55l.77.17V9.2l-1.86.48-.27-.16v-.8h0a2.19,2.19,0,0,1-.73.73,1.68,1.68,0,0,1-.8.21,1.87,1.87,0,0,1-1.36-.52,2.09,2.09,0,0,1-.54-1.57v-1a4.79,4.79,0,0,0,0-.52c0-.18,0-.38,0-.57L60,5.3V4.82l2-.51.28.2c0,.23,0,.51,0,.83s0,.64,0,1v1.1a1.31,1.31,0,0,0,.29.94,1.1,1.1,0,0,0,.79.29,1.27,1.27,0,0,0,.54-.14A1.34,1.34,0,0,0,64.33,8V6.76c0-.17,0-.33,0-.48s0-.29,0-.43,0-.27,0-.38l-.86-.17V4.82l2-.51.28.19c0,.17,0,.34,0,.52s0,.36,0,.55,0,.42,0,.67v.91c0,.27,0,.53,0,.77S65.69,8.38,65.71,8.55Z" transform="translate(-0.38 -1.3)"/><path class="cls-1" d="M68.89,9.64A1.77,1.77,0,0,1,68,9.41a1.72,1.72,0,0,1-.59-.54,1.22,1.22,0,0,1-.2-.62,1,1,0,0,1,.26-.69,1.85,1.85,0,0,1,.83-.46l1.85-.57V6.05A.81.81,0,0,0,70,5.56a1.24,1.24,0,0,0-.44-.37,1.28,1.28,0,0,0-.59-.14.42.42,0,0,0-.31.1.68.68,0,0,0-.11.4l0,.64a1.42,1.42,0,0,1-.88,0,.5.5,0,0,1-.35-.49.67.67,0,0,1,.21-.44A2.76,2.76,0,0,1,68,4.8a4.32,4.32,0,0,1,.68-.34,3.21,3.21,0,0,1,.65-.18,2.42,2.42,0,0,1,1.58.48A1.56,1.56,0,0,1,71.48,6l0,1.76c0,.19,0,.36,0,.49a1.1,1.1,0,0,0,.07.31l.77.14v.45l-.7.3a2.78,2.78,0,0,1-.37.13,1.76,1.76,0,0,1-.31,0,.6.6,0,0,1-.59-.45l-.18-.52.23,0a3.32,3.32,0,0,1-.75.68A1.31,1.31,0,0,1,68.89,9.64Zm.51-1a1,1,0,0,0,.38-.08,1.19,1.19,0,0,0,.34-.26V7.16l-1,.21a.69.69,0,0,0-.41.21A.51.51,0,0,0,68.6,8a.71.71,0,0,0,.23.51A.79.79,0,0,0,69.4,8.69Z" transform="translate(-0.38 -1.3)"/><path class="cls-1" d="M72.65,9.54l0-.52.77-.18a2.74,2.74,0,0,0,0-.41q0-.31,0-.75c0-.3,0-.61,0-.93V5.25c0-.27,0-.55,0-.84s0-.57,0-.83,0-.49,0-.69,0-.36,0-.47l-.88-.12,0-.46,2.07-.54.3.19,0,1c0,.32,0,.68,0,1.08s0,.87,0,1.44v1.8c0,.52,0,1,0,1.37a4.92,4.92,0,0,0,0,.69l.77.18,0,.52Z" transform="translate(-0.38 -1.3)"/><path class="cls-1" d="M76.05,9.54,76,9l.77-.18a2.74,2.74,0,0,0,0-.41q0-.31,0-.75c0-.3,0-.61,0-.93V5.25c0-.27,0-.55,0-.84s0-.57,0-.83,0-.49,0-.69,0-.36,0-.47l-.88-.12,0-.46L78,1.3l.3.19,0,1c0,.32,0,.68,0,1.08s0,.87,0,1.44v1.8c0,.52,0,1,0,1.37a4.92,4.92,0,0,0,0,.69L79,9l0,.52Z" transform="translate(-0.38 -1.3)"/><path class="cls-1" d="M81.86,9.59,79.71,5.08l-.55-.19,0-.51H82l0,.51-.73.19L82.69,8.2Zm3.21-5.21,0,.51-.55.19-2,4.12-.94,2A2.22,2.22,0,0,1,81,12a1.1,1.1,0,0,1-.69.23,1,1,0,0,1-.59-.17.57.57,0,0,1-.22-.44.67.67,0,0,1,.19-.44,1.28,1.28,0,0,1,.57-.3l1.29-.36-.71.55,1.4-2.62.14-.26,1.36-3.12L83,4.89l0-.51Z" transform="translate(-0.38 -1.3)"/><path class="cls-1" d="M91.63,8.63a1.59,1.59,0,0,1-.63.75,1.84,1.84,0,0,1-1,.27,1.89,1.89,0,0,1-1.3-.46,1.84,1.84,0,0,1-.5-1.4l0-2.7h-.83V4.74l1.83-1.51h.35l0,1.56,0,2.84a1,1,0,0,0,.25.78,1,1,0,0,0,.7.24A1.13,1.13,0,0,0,91,8.56a1.3,1.3,0,0,0,.39-.25ZM89,5.09v-.7H91.3v.7Z" transform="translate(-0.38 -1.3)"/><path class="cls-1" d="M94.63,9.64a3,3,0,0,1-1.42-.34,2.52,2.52,0,0,1-.95-.94A2.67,2.67,0,0,1,91.92,7a2.65,2.65,0,0,1,.38-1.46,2.68,2.68,0,0,1,1-.93,2.88,2.88,0,0,1,1.36-.33A2.7,2.7,0,0,1,96,4.61a2.3,2.3,0,0,1,.9.93,2.74,2.74,0,0,1,.33,1.36,2.81,2.81,0,0,1-.35,1.39,2.66,2.66,0,0,1-1,1A2.53,2.53,0,0,1,94.63,9.64ZM94.75,9a.84.84,0,0,0,.57-.21,1.36,1.36,0,0,0,.36-.6,2.77,2.77,0,0,0,.13-.91,3.49,3.49,0,0,0-.35-1.66,1.09,1.09,0,0,0-.95-.64,1,1,0,0,0-.82.49,2.41,2.41,0,0,0-.31,1.29,3.43,3.43,0,0,0,.18,1.15,1.91,1.91,0,0,0,.49.8A1,1,0,0,0,94.75,9Z" transform="translate(-0.38 -1.3)"/><path class="cls-1" d="M102.6,9.59l-2-4.51L100,4.89l0-.51h2.64l0,.51-.58.19,1.33,3.12h-.36L104.53,5l.4.76-1.87,3.79Zm3.65,0-2-4.51-.58-.19,0-.51h2.64l0,.51-.61.19,1.26,3.12h-.32l1.33-3.12-.61-.19,0-.51h2l0,.51-.56.19-2.18,4.51Z" transform="translate(-0.38 -1.3)"/><path class="cls-1" d="M109.64,9.54l0-.52.8-.18s0-.1,0-.2,0-.24,0-.41,0-.37,0-.6v-.9c0-.24,0-.47,0-.68a3.38,3.38,0,0,0-.08-.58l-.79-.17V4.82l2-.51.27.2c0,.24,0,.49,0,.74s0,.53,0,.86V7.6c0,.29,0,.56,0,.79a2.1,2.1,0,0,0,0,.45l.8.18,0,.52Zm1.5-6.34a.87.87,0,0,1-.66-.25.82.82,0,0,1-.25-.61.82.82,0,0,1,.25-.6.85.85,0,0,1,.66-.27.8.8,0,0,1,.65.27.85.85,0,0,1,.24.6.85.85,0,0,1-.24.61A.82.82,0,0,1,111.14,3.2Z" transform="translate(-0.38 -1.3)"/><path class="cls-1" d="M117.12,8.63a1.49,1.49,0,0,1-.63.75,1.84,1.84,0,0,1-1,.27,1.88,1.88,0,0,1-1.3-.46,1.81,1.81,0,0,1-.51-1.4l0-2.7h-.83V4.74l1.84-1.51h.34l0,1.56,0,2.84a1.07,1.07,0,0,0,.25.78,1,1,0,0,0,.7.24,1.22,1.22,0,0,0,.46-.09,1.39,1.39,0,0,0,.38-.25Zm-2.65-3.54v-.7h2.32v.7Z" transform="translate(-0.38 -1.3)"/><path class="cls-1" d="M117.33,9.54l0-.51.73-.19a1,1,0,0,0,0-.19c0-.1,0-.23,0-.4s0-.38,0-.62l0-.9c0-.25,0-.48,0-.68a3.38,3.38,0,0,0-.08-.58l-.76-.17V4.82l1.93-.51.29.2-.07.66h0a2.63,2.63,0,0,1,.81-.67,2,2,0,0,1,.92-.23,1.58,1.58,0,0,1,.88.25,1.7,1.7,0,0,1,.64.71,2.69,2.69,0,0,1,.23,1.16V7.63c0,.27,0,.52,0,.76a1.87,1.87,0,0,0,0,.45l.74.19,0,.51h-2.78l0-.51.69-.19a.91.91,0,0,0,0-.27c0-.12,0-.26,0-.41s0-.32,0-.49V6.58a1.61,1.61,0,0,0-.15-.75,1,1,0,0,0-.38-.43,1.07,1.07,0,0,0-.53-.13,1.27,1.27,0,0,0-.61.14,1.49,1.49,0,0,0-.5.44V7.6c0,.3,0,.57,0,.8a2.07,2.07,0,0,0,0,.44l.74.19,0,.51Z" transform="translate(-0.38 -1.3)"/><path class="cls-1" d="M126.87,9.64a2.55,2.55,0,0,1-1.32-.34,2.44,2.44,0,0,1-.92-.91A2.7,2.7,0,0,1,124.3,7a2.87,2.87,0,0,1,.37-1.45,2.79,2.79,0,0,1,1-1,2.4,2.4,0,0,1,1.27-.34,2,2,0,0,1,1.57.65A2.52,2.52,0,0,1,129,6.6v.26H125.5V6.27H128l-.17.25V6.17a1.48,1.48,0,0,0-.27-.94.86.86,0,0,0-.74-.34,1.08,1.08,0,0,0-.57.17,1.21,1.21,0,0,0-.41.54,2.26,2.26,0,0,0-.15.89V6.7a2.08,2.08,0,0,0,.45,1.4,1.57,1.57,0,0,0,1.22.52,1.69,1.69,0,0,0,.72-.15,1.88,1.88,0,0,0,.65-.52l.34.31a2.34,2.34,0,0,1-.9,1A2.46,2.46,0,0,1,126.87,9.64Z" transform="translate(-0.38 -1.3)"/><path class="cls-1" d="M131.68,9.64a4.31,4.31,0,0,1-.94-.11,3.38,3.38,0,0,1-.8-.28l-.06-1.35h.7l.25.85a1.72,1.72,0,0,0,.94.27.88.88,0,0,0,.59-.17.52.52,0,0,0,.21-.43.67.67,0,0,0-.21-.49,3,3,0,0,0-.87-.45,3.14,3.14,0,0,1-1.2-.7A1.35,1.35,0,0,1,130.23,5a1.91,1.91,0,0,1,.78-.56,3.26,3.26,0,0,1,1.17-.2,3.71,3.71,0,0,1,.74.07,2.18,2.18,0,0,1,.62.18l.13,1.33H133L132.71,5a.78.78,0,0,0-.28-.11,1.24,1.24,0,0,0-.33,0,.94.94,0,0,0-.61.17.5.5,0,0,0-.23.44.63.63,0,0,0,.26.5,5.6,5.6,0,0,0,1,.5,3.21,3.21,0,0,1,1.1.68,1.25,1.25,0,0,1,.33.88,1.36,1.36,0,0,1-.62,1.15A2.76,2.76,0,0,1,131.68,9.64Z" transform="translate(-0.38 -1.3)"/><path class="cls-1" d="M136.53,9.64a4.4,4.4,0,0,1-.95-.11,3.14,3.14,0,0,1-.79-.28l-.06-1.35h.7l.25.85a1.68,1.68,0,0,0,.93.27.88.88,0,0,0,.59-.17.5.5,0,0,0,.22-.43.64.64,0,0,0-.22-.49,3,3,0,0,0-.86-.45,3.2,3.2,0,0,1-1.21-.7,1.28,1.28,0,0,1-.34-.92,1.27,1.27,0,0,1,.28-.82,1.88,1.88,0,0,1,.79-.56,3.18,3.18,0,0,1,1.17-.2,3.78,3.78,0,0,1,.74.07,2.4,2.4,0,0,1,.62.18l.13,1.33h-.69L137.56,5a.83.83,0,0,0-.29-.11,1.24,1.24,0,0,0-.33,0,1,1,0,0,0-.61.17.53.53,0,0,0-.23.44.61.61,0,0,0,.27.5,5.41,5.41,0,0,0,.95.5,3.38,3.38,0,0,1,1.11.68,1.25,1.25,0,0,1,.33.88,1.34,1.34,0,0,1-.63,1.15A2.73,2.73,0,0,1,136.53,9.64Z" transform="translate(-0.38 -1.3)"/><path class="cls-1" d="M144.52,9.64a2.94,2.94,0,0,1-1.41-.34,2.39,2.39,0,0,1-1-.94A2.67,2.67,0,0,1,141.81,7a2.65,2.65,0,0,1,.39-1.46,2.55,2.55,0,0,1,1-.93,2.87,2.87,0,0,1,1.35-.33,2.67,2.67,0,0,1,1.35.33,2.33,2.33,0,0,1,.91.93,2.73,2.73,0,0,1,.32,1.36,2.81,2.81,0,0,1-.34,1.39,2.74,2.74,0,0,1-.95,1A2.56,2.56,0,0,1,144.52,9.64Zm.12-.69a.84.84,0,0,0,.57-.21,1.37,1.37,0,0,0,.37-.6,2.77,2.77,0,0,0,.13-.91,3.38,3.38,0,0,0-.36-1.66,1.06,1.06,0,0,0-.94-.64.94.94,0,0,0-.82.49,2.32,2.32,0,0,0-.31,1.29,3.43,3.43,0,0,0,.18,1.15,2,2,0,0,0,.48.8A1,1,0,0,0,144.64,9Z" transform="translate(-0.38 -1.3)"/><path class="cls-1" d="M153.36,8.55l.77.17V9.2l-1.86.48L152,9.52v-.8h0a2.19,2.19,0,0,1-.73.73,1.68,1.68,0,0,1-.8.21,1.89,1.89,0,0,1-1.36-.52,2.09,2.09,0,0,1-.54-1.57v-1c0-.16,0-.33,0-.52s0-.38,0-.57l-.8-.17V4.82l2-.51.28.2c0,.23,0,.51,0,.83s0,.64,0,1v1.1a1.26,1.26,0,0,0,.3.94,1.06,1.06,0,0,0,.78.29,1.27,1.27,0,0,0,.54-.14A1.34,1.34,0,0,0,152,8V6.76c0-.17,0-.33,0-.48s0-.29,0-.43,0-.27,0-.38L151,5.3V4.82l2-.51.28.19c0,.17,0,.34,0,.52s0,.36,0,.55,0,.42,0,.67v.91c0,.27,0,.53,0,.77S153.34,8.38,153.36,8.55Z" transform="translate(-0.38 -1.3)"/><path class="cls-1" d="M154.58,9.54l0-.51.73-.19a.75.75,0,0,0,0-.2c0-.1,0-.24,0-.41s0-.37,0-.6v-.9c0-.24,0-.47,0-.68a4.78,4.78,0,0,0-.08-.58l-.76-.17V4.82l1.9-.51.27.19,0,.94,0,0a2.46,2.46,0,0,1,.7-.91,1.35,1.35,0,0,1,.71-.23.86.86,0,0,1,.53.16.59.59,0,0,1,.22.51.66.66,0,0,1-.24.54.93.93,0,0,1-.57.19,1.2,1.2,0,0,1-.47-.1,1.64,1.64,0,0,1-.45-.32l.28,0a2,2,0,0,0-.36.36,2.33,2.33,0,0,0-.32.51v1c0,.26,0,.5,0,.72s0,.42,0,.59a2.16,2.16,0,0,0,0,.33l1,.17,0,.53Z" transform="translate(-0.38 -1.3)"/><path class="cls-1" d="M163.87,9.59l-2-4.51-.55-.19,0-.51h2.64l0,.51-.58.19,1.34,3.12h-.36L165.8,5l.4.76-1.87,3.79Zm3.65,0-2-4.51L165,4.89l0-.51h2.64l0,.51-.61.19,1.26,3.12H168l1.33-3.12-.62-.19,0-.51h2l0,.51-.56.19L168,9.59Z" transform="translate(-0.38 -1.3)"/><path class="cls-1" d="M173.57,9.64a2.55,2.55,0,0,1-1.32-.34,2.37,2.37,0,0,1-.92-.91A2.7,2.7,0,0,1,171,7a2.77,2.77,0,0,1,.37-1.45,2.63,2.63,0,0,1,1-1,2.38,2.38,0,0,1,1.27-.34,2,2,0,0,1,1.57.65,2.57,2.57,0,0,1,.53,1.67v.26h-3.5V6.27h2.47l-.16.25V6.17a1.48,1.48,0,0,0-.27-.94.88.88,0,0,0-.74-.34,1.06,1.06,0,0,0-.57.17,1.21,1.21,0,0,0-.41.54,2.25,2.25,0,0,0-.16.89V6.7a2.09,2.09,0,0,0,.46,1.4,1.55,1.55,0,0,0,1.21.52,1.73,1.73,0,0,0,.73-.15,2,2,0,0,0,.65-.52l.34.31a2.3,2.3,0,0,1-.91,1A2.4,2.4,0,0,1,173.57,9.64Z" transform="translate(-0.38 -1.3)"/><path class="cls-1" d="M180.6,9.68l-.28-.16,0-.76h0a2,2,0,0,1-.69.7,1.67,1.67,0,0,1-.77.2,2.29,2.29,0,0,1-1.17-.32,2.39,2.39,0,0,1-.85-.88,2.67,2.67,0,0,1-.31-1.31A2.84,2.84,0,0,1,176.75,6a2.64,2.64,0,0,1,.64-.9,3.2,3.2,0,0,1,.91-.56,2.75,2.75,0,0,1,1-.2,2.46,2.46,0,0,1,.53.06,1.32,1.32,0,0,1,.45.16c0-.14,0-.32,0-.52s0-.4,0-.61,0-.39,0-.55,0-.29,0-.37l-.9-.14,0-.48,2.08-.54.29.19q0,.74-.06,1.38t0,1.35V7a9.09,9.09,0,0,0,0,1q0,.39.06.6l.77.17V9.2Zm-1.28-1a1,1,0,0,0,.49-.13,1.34,1.34,0,0,0,.49-.44V5.47a1.16,1.16,0,0,0-.45-.41,1.39,1.39,0,0,0-.52-.11,1.21,1.21,0,0,0-1,.48,2.07,2.07,0,0,0-.39,1.33,2.08,2.08,0,0,0,.41,1.38A1.19,1.19,0,0,0,179.32,8.63Z" transform="translate(-0.38 -1.3)"/><path class="cls-1" d="M187.14,9.68l-.28-.16,0-.76h0a2,2,0,0,1-.69.7,1.67,1.67,0,0,1-.77.2,2.29,2.29,0,0,1-1.17-.32,2.32,2.32,0,0,1-.85-.88,2.67,2.67,0,0,1-.31-1.31A2.84,2.84,0,0,1,183.29,6a2.64,2.64,0,0,1,.64-.9,3.06,3.06,0,0,1,.91-.56,2.7,2.7,0,0,1,1-.2,2.48,2.48,0,0,1,.54.06,1.32,1.32,0,0,1,.45.16c0-.14,0-.32,0-.52s0-.4,0-.61,0-.39,0-.55,0-.29,0-.37l-.9-.14,0-.48,2.08-.54.29.19q0,.74-.06,1.38t0,1.35V7a9.09,9.09,0,0,0,0,1q0,.39.06.6l.77.17V9.2Zm-1.28-1a1.06,1.06,0,0,0,.49-.13,1.34,1.34,0,0,0,.49-.44V5.47a1.16,1.16,0,0,0-.45-.41,1.39,1.39,0,0,0-.52-.11,1.21,1.21,0,0,0-1,.48,2.07,2.07,0,0,0-.39,1.33,2.14,2.14,0,0,0,.4,1.38A1.23,1.23,0,0,0,185.86,8.63Z" transform="translate(-0.38 -1.3)"/><path class="cls-1" d="M189.38,9.54l0-.52.79-.18a1.23,1.23,0,0,0,0-.2c0-.1,0-.24,0-.41s0-.37,0-.6v-.9c0-.24,0-.47,0-.68a3.38,3.38,0,0,0-.08-.58l-.8-.17V4.82l2-.51.27.2c0,.24,0,.49,0,.74s0,.53,0,.86V7.6c0,.29,0,.56,0,.79a2.1,2.1,0,0,0,0,.45l.8.18,0,.52Zm1.5-6.34a.86.86,0,0,1-.66-.25.82.82,0,0,1-.25-.61.82.82,0,0,1,.25-.6.84.84,0,0,1,.66-.27.82.82,0,0,1,.65.27.85.85,0,0,1,.24.6.85.85,0,0,1-.24.61A.84.84,0,0,1,190.88,3.2Z" transform="translate(-0.38 -1.3)"/><path class="cls-1" d="M192.81,9.54l0-.51.74-.19a1.54,1.54,0,0,0,0-.19c0-.1,0-.23,0-.4s0-.38,0-.62v-.9c0-.25,0-.48,0-.68a4.71,4.71,0,0,0-.09-.58l-.75-.17V4.82l1.93-.51.28.2-.07.66h0a2.63,2.63,0,0,1,.81-.67,2,2,0,0,1,.92-.23,1.61,1.61,0,0,1,.88.25,1.75,1.75,0,0,1,.63.71,2.55,2.55,0,0,1,.24,1.16V7.63c0,.27,0,.52,0,.76a1.71,1.71,0,0,0,.05.45l.73.19,0,.51h-2.79l0-.51.68-.19a1.3,1.3,0,0,0,0-.27c0-.12,0-.26,0-.41V6.58a1.76,1.76,0,0,0-.14-.75,1,1,0,0,0-.39-.43,1,1,0,0,0-.52-.13,1.31,1.31,0,0,0-.62.14,1.46,1.46,0,0,0-.49.44V7.6c0,.3,0,.57,0,.8a1.43,1.43,0,0,0,.06.44l.73.19,0,.51Z" transform="translate(-0.38 -1.3)"/><path class="cls-1" d="M202.15,12.24a4.06,4.06,0,0,1-1.88-.35,1,1,0,0,1-.68-.94,1,1,0,0,1,.38-.74,3.59,3.59,0,0,1,1.1-.6l.49.07a2,2,0,0,0-.5.49,1,1,0,0,0-.18.58.75.75,0,0,0,.35.65,1.82,1.82,0,0,0,1,.24,2,2,0,0,0,1.13-.3.85.85,0,0,0,.45-.74.58.58,0,0,0-.25-.5,1.79,1.79,0,0,0-.83-.21l-1.4-.12-.13-.06a1.52,1.52,0,0,1-.87-.23.68.68,0,0,1-.33-.59.93.93,0,0,1,.36-.68,2.85,2.85,0,0,1,1-.52l.18.22a1.18,1.18,0,0,0-.26.21.32.32,0,0,0-.09.21.27.27,0,0,0,.11.23.59.59,0,0,0,.31.12l1.7.16a2.37,2.37,0,0,1,1.31.45,1.25,1.25,0,0,1,.44,1,1.52,1.52,0,0,1-.38,1,2.6,2.6,0,0,1-1,.71A3.87,3.87,0,0,1,202.15,12.24Zm.07-4.12A2.87,2.87,0,0,1,201,7.88a1.82,1.82,0,0,1-.81-.65,1.63,1.63,0,0,1-.29-1,1.75,1.75,0,0,1,.3-1,2.25,2.25,0,0,1,.84-.71,2.7,2.7,0,0,1,1.19-.26,2.57,2.57,0,0,1,1.16.26,2.22,2.22,0,0,1,.81.7,1.77,1.77,0,0,1,.29,1,1.74,1.74,0,0,1-.29,1,2,2,0,0,1-.81.68A2.8,2.8,0,0,1,202.22,8.12Zm.08-.62a.75.75,0,0,0,.64-.33,1.5,1.5,0,0,0,.24-.9,1.74,1.74,0,0,0-.26-1,.8.8,0,0,0-.69-.38.74.74,0,0,0-.65.35,1.58,1.58,0,0,0-.25.94,1.67,1.67,0,0,0,.26,1A.85.85,0,0,0,202.3,7.5Zm2.88-2.21-1.54-.14-.44-.52,2-.23Z" transform="translate(-0.38 -1.3)"/><path class="cls-1" d="M44.31,24.19A2.64,2.64,0,0,1,43,23.86a2.39,2.39,0,0,1-.92-.92,2.69,2.69,0,0,1-.33-1.34,2.74,2.74,0,0,1,.37-1.45,2.56,2.56,0,0,1,1-1,2.26,2.26,0,0,1,1.26-.34,2,2,0,0,1,1.57.65,2.5,2.5,0,0,1,.54,1.67v.26h-3.5v-.59h2.47l-.16.25v-.36a1.47,1.47,0,0,0-.27-.93.88.88,0,0,0-.74-.35,1,1,0,0,0-.57.18,1.24,1.24,0,0,0-.41.53,2.15,2.15,0,0,0-.16.89v.22a2,2,0,0,0,.46,1.39,1.52,1.52,0,0,0,1.21.52A1.73,1.73,0,0,0,45.5,23a2,2,0,0,0,.65-.52l.34.31a2.3,2.3,0,0,1-.91,1A2.39,2.39,0,0,1,44.31,24.19Z" transform="translate(-0.38 -1.3)"/><path class="cls-1" d="M49.44,24.15l-2.16-4.52-.55-.19,0-.51h2.79l0,.51-.73.19,1.43,3.13h-.34l1.34-3.13-.74-.19,0-.51h2.08l0,.51-.55.19L49.9,24.15Z" transform="translate(-0.38 -1.3)"/><path class="cls-1" d="M55.48,24.19a2.64,2.64,0,0,1-1.32-.33,2.39,2.39,0,0,1-.92-.92,2.69,2.69,0,0,1-.33-1.34,2.74,2.74,0,0,1,.37-1.45,2.56,2.56,0,0,1,1-1,2.29,2.29,0,0,1,1.27-.34,2,2,0,0,1,1.57.65,2.55,2.55,0,0,1,.53,1.67v.26h-3.5v-.59h2.47l-.16.25v-.36a1.47,1.47,0,0,0-.27-.93.88.88,0,0,0-.74-.35,1,1,0,0,0-.57.18,1.24,1.24,0,0,0-.41.53,2.32,2.32,0,0,0-.16.89v.22a2,2,0,0,0,.46,1.39,1.52,1.52,0,0,0,1.21.52,1.7,1.7,0,0,0,.73-.14,2,2,0,0,0,.65-.52l.34.31a2.34,2.34,0,0,1-.9,1A2.45,2.45,0,0,1,55.48,24.19Z" transform="translate(-0.38 -1.3)"/><path class="cls-1" d="M58.25,24.1l0-.51L59,23.4a1.23,1.23,0,0,0,0-.2c0-.09,0-.23,0-.4s0-.37,0-.61v-.9c0-.25,0-.48,0-.69a5.4,5.4,0,0,0-.08-.58l-.76-.16v-.49l1.93-.51.29.2-.08.67h0a2.67,2.67,0,0,1,.81-.68,2,2,0,0,1,.92-.22,1.66,1.66,0,0,1,.88.24,1.59,1.59,0,0,1,.63.72A2.52,2.52,0,0,1,63.82,21v1.23c0,.27,0,.52,0,.75a2.34,2.34,0,0,0,.05.46l.74.19,0,.51H61.8l0-.51.69-.19a1.45,1.45,0,0,0,0-.27c0-.12,0-.26,0-.42s0-.32,0-.48V21.14a1.69,1.69,0,0,0-.15-.76A1,1,0,0,0,62,20a1,1,0,0,0-.52-.14,1.28,1.28,0,0,0-.61.15,1.46,1.46,0,0,0-.5.43v1.76c0,.3,0,.56,0,.8a2.07,2.07,0,0,0,0,.44l.74.19,0,.51Z" transform="translate(-0.38 -1.3)"/><path class="cls-1" d="M69.11,23.19a1.53,1.53,0,0,1-.64.74,1.92,1.92,0,0,1-2.26-.19,1.77,1.77,0,0,1-.5-1.39l0-2.71h-.83V19.3l1.84-1.52h.34l0,1.57,0,2.84a1.07,1.07,0,0,0,.25.78,1,1,0,0,0,.7.24,1.22,1.22,0,0,0,.46-.09,1.67,1.67,0,0,0,.38-.25Zm-2.66-3.55V19h2.32v.69Z" transform="translate(-0.38 -1.3)"/><path class="cls-1" d="M74,24.15l-2.16-4.52-.55-.19,0-.51h2.78l0,.51-.74.19,1.44,3.13h-.35l1.34-3.13-.73-.19,0-.51h2.09l0,.51-.55.19-2.22,4.52Z" transform="translate(-0.38 -1.3)"/><path class="cls-1" d="M77.37,24.1l0-.52.79-.18a1.23,1.23,0,0,0,0-.2c0-.1,0-.24,0-.41s0-.37,0-.6v-.9c0-.24,0-.47,0-.68A5.25,5.25,0,0,0,78.1,20l-.8-.16v-.49l2-.51.27.2c0,.25,0,.5,0,.74s0,.54,0,.86v1.5c0,.29,0,.55,0,.79a2.1,2.1,0,0,0,0,.45l.8.18,0,.52Zm1.51-6.34a.86.86,0,0,1-.66-.25A.84.84,0,0,1,78,16.9a.85.85,0,0,1,.25-.61.87.87,0,0,1,.66-.26.84.84,0,0,1,.65.26.89.89,0,0,1,.24.61.87.87,0,0,1-.24.61A.84.84,0,0,1,78.88,17.76Z" transform="translate(-0.38 -1.3)"/><path class="cls-1" d="M82.78,24.19a1.77,1.77,0,0,1-.92-.22,1.65,1.65,0,0,1-.59-.55,1.19,1.19,0,0,1-.2-.61,1,1,0,0,1,.26-.7,1.94,1.94,0,0,1,.83-.45L84,21.09V20.6a.8.8,0,0,0-.17-.48,1.24,1.24,0,0,0-.44-.37,1.28,1.28,0,0,0-.59-.14.39.39,0,0,0-.31.1.68.68,0,0,0-.11.4l0,.64a1.42,1.42,0,0,1-.88,0,.51.51,0,0,1-.35-.5.64.64,0,0,1,.21-.43,2.43,2.43,0,0,1,.54-.43,4.32,4.32,0,0,1,.68-.34,2.29,2.29,0,0,1,.65-.18,2.48,2.48,0,0,1,1.58.47,1.6,1.6,0,0,1,.6,1.27l0,1.75c0,.2,0,.37,0,.5a1.1,1.1,0,0,0,.07.31l.77.14v.45l-.7.3-.37.12a1.15,1.15,0,0,1-.31,0,.6.6,0,0,1-.59-.45L84,23.22l.23.05a3.32,3.32,0,0,1-.75.68A1.38,1.38,0,0,1,82.78,24.19Zm.51-.94a.85.85,0,0,0,.38-.09A.91.91,0,0,0,84,22.9V21.72l-1,.21a.75.75,0,0,0-.41.2.53.53,0,0,0-.13.38.71.71,0,0,0,.23.51A.79.79,0,0,0,83.29,23.25Z" transform="translate(-0.38 -1.3)"/><path class="cls-1" d="M92.94,23.19a1.57,1.57,0,0,1-.63.74A1.94,1.94,0,0,1,90,23.74a1.8,1.8,0,0,1-.5-1.39l0-2.71h-.83V19.3l1.83-1.52h.35l0,1.57,0,2.84a1,1,0,0,0,.25.78,1,1,0,0,0,.7.24,1.17,1.17,0,0,0,.45-.09,1.53,1.53,0,0,0,.39-.25Zm-2.65-3.55V19h2.32v.69Z" transform="translate(-0.38 -1.3)"/><path class="cls-1" d="M93.14,24.1l0-.51.73-.19a2.37,2.37,0,0,0,0-.41c0-.21,0-.46,0-.76s0-.6,0-.93V19c0-.28,0-.56,0-.82s0-.5,0-.71,0-.37,0-.48L93,16.86l0-.46,2-.55.3.19q0,.38,0,.72c0,.23,0,.49,0,.76s0,.59,0,.95,0,.76,0,1.25h0a2.58,2.58,0,0,1,.8-.67,2,2,0,0,1,.92-.22,1.69,1.69,0,0,1,.88.24,1.72,1.72,0,0,1,.63.72A2.52,2.52,0,0,1,98.71,21v1.23c0,.27,0,.52,0,.75a2.67,2.67,0,0,0,0,.46l.73.19,0,.51H96.7l0-.51.68-.19q0-.09,0-.27c0-.12,0-.26,0-.42s0-.32,0-.48V21.14a1.69,1.69,0,0,0-.15-.76,1,1,0,0,0-.39-.42,1,1,0,0,0-.52-.14,1.31,1.31,0,0,0-.61.15,1.46,1.46,0,0,0-.5.43v1.76c0,.31,0,.58,0,.81a1.83,1.83,0,0,0,.06.43l.72.19,0,.51Z" transform="translate(-0.38 -1.3)"/><path class="cls-1" d="M102.69,24.19a2.64,2.64,0,0,1-1.32-.33,2.39,2.39,0,0,1-.92-.92,2.69,2.69,0,0,1-.33-1.34,2.74,2.74,0,0,1,.37-1.45,2.56,2.56,0,0,1,1-1,2.26,2.26,0,0,1,1.26-.34,2,2,0,0,1,1.57.65,2.5,2.5,0,0,1,.54,1.67v.26h-3.5v-.59h2.47l-.16.25v-.36a1.47,1.47,0,0,0-.27-.93.9.9,0,0,0-.74-.35,1,1,0,0,0-.57.18,1.24,1.24,0,0,0-.41.53,2.15,2.15,0,0,0-.16.89v.22a2,2,0,0,0,.46,1.39,1.52,1.52,0,0,0,1.21.52,1.73,1.73,0,0,0,.73-.14,2,2,0,0,0,.65-.52l.34.31a2.3,2.3,0,0,1-.91,1A2.39,2.39,0,0,1,102.69,24.19Z" transform="translate(-0.38 -1.3)"/><path class="cls-1" d="M107.74,24.1l0-.52.77-.18a2.37,2.37,0,0,0,0-.41c0-.21,0-.46,0-.76s0-.6,0-.93V19c0-.29,0-.56,0-.82s0-.49,0-.69,0-.36,0-.47l-.87-.12,0-.46,2.08-.55L110,16c0,.34,0,.66,0,1s0,.68,0,1.07,0,.88,0,1.45v1.8c0,.52,0,1,0,1.37a4.92,4.92,0,0,0,0,.69l.77.18,0,.52Z" transform="translate(-0.38 -1.3)"/><path class="cls-1" d="M111.12,24.1l0-.52.79-.18a1.23,1.23,0,0,0,0-.2c0-.1,0-.24,0-.41s0-.37,0-.6v-.9c0-.24,0-.47,0-.68a5.25,5.25,0,0,0-.08-.59l-.8-.16v-.49l2-.51.27.2c0,.25,0,.5,0,.74s0,.54,0,.86v1.5c0,.29,0,.55,0,.79a2.1,2.1,0,0,0,0,.45l.79.18,0,.52Zm1.51-6.34a.9.9,0,0,1-.67-.25.87.87,0,0,1-.24-.61.89.89,0,0,1,.24-.61.9.9,0,0,1,.67-.26.84.84,0,0,1,.65.26.89.89,0,0,1,.24.61.87.87,0,0,1-.24.61A.84.84,0,0,1,112.63,17.76Z" transform="translate(-0.38 -1.3)"/><path class="cls-1" d="M114.56,24.1l0-.51.74-.19a1.8,1.8,0,0,0,0-.2c0-.09,0-.23,0-.4s0-.37,0-.61v-.9c0-.25,0-.48,0-.69a5.4,5.4,0,0,0-.09-.58l-.76-.16v-.49l1.94-.51.28.2-.07.67h0a2.83,2.83,0,0,1,.82-.68,1.91,1.91,0,0,1,.91-.22,1.7,1.7,0,0,1,.89.24,1.72,1.72,0,0,1,.63.72,2.52,2.52,0,0,1,.24,1.16v1.23c0,.27,0,.52,0,.75a1.74,1.74,0,0,0,0,.46l.73.19,0,.51H118.1l0-.51.68-.19a1.3,1.3,0,0,0,0-.27c0-.12,0-.26,0-.42V21.14a1.69,1.69,0,0,0-.15-.76.92.92,0,0,0-.38-.42,1,1,0,0,0-.52-.14,1.32,1.32,0,0,0-.62.15,1.55,1.55,0,0,0-.5.43v1.76c0,.3,0,.56,0,.8a1.43,1.43,0,0,0,.06.44l.73.19,0,.51Z" transform="translate(-0.38 -1.3)"/><path class="cls-1" d="M121.42,24.1l0-.51.68-.19c0-.08,0-.22,0-.43s0-.45,0-.73,0-.56,0-.84V19.81c0-.28,0-.57,0-.86s0-.56,0-.82,0-.48,0-.68,0-.36,0-.47l-.87-.12,0-.46,2-.55.3.19c0,.24,0,.47,0,.71s0,.48,0,.74,0,.55,0,.88V19.5l0,2.76c0,.2,0,.38,0,.54s0,.28,0,.39a2,2,0,0,1,0,.21l.74.19,0,.51Zm6,0H125.7a5,5,0,0,0-.34-.43l-.29-.33-1.48-1.62h-.31v-.39l.39-.1,1.73-1.65-.78-.12,0-.53h2.53l0,.53-.79.14-2,1.73.13-.5,1.79,2a5,5,0,0,0,.39.4l.28.28.49.11Z" transform="translate(-0.38 -1.3)"/><path class="cls-1" d="M130.56,23.77q0-.4,0-.78c0-.25,0-.5,0-.76V19.81c0-.33,0-.65,0-1s0-.59,0-.84,0-.47,0-.65a3.25,3.25,0,0,0,0-.39l-.87-.11,0-.46,2-.55.3.19c0,.33,0,.65,0,1s0,.7,0,1.12,0,.95,0,1.57l0,0a2.13,2.13,0,0,1,.7-.62,1.81,1.81,0,0,1,.93-.26,2.14,2.14,0,0,1,1.09.29,2.23,2.23,0,0,1,.81.83,2.63,2.63,0,0,1,.3,1.3,2.88,2.88,0,0,1-.39,1.49,2.82,2.82,0,0,1-1.09,1.05,3.33,3.33,0,0,1-1.63.39,4.8,4.8,0,0,1-1.07-.11A6,6,0,0,1,130.56,23.77Zm2.37-.36a1.25,1.25,0,0,0,1-.45,2.12,2.12,0,0,0,.41-1.4,1.68,1.68,0,0,0-.4-1.29,1.32,1.32,0,0,0-1-.41,1.39,1.39,0,0,0-.57.12,1.68,1.68,0,0,0-.48.36v2.74a1.73,1.73,0,0,0,.47.24A1.67,1.67,0,0,0,132.93,23.41Z" transform="translate(-0.38 -1.3)"/><path class="cls-1" d="M139.2,24.19a2.64,2.64,0,0,1-1.32-.33,2.39,2.39,0,0,1-.92-.92,2.69,2.69,0,0,1-.33-1.34,2.74,2.74,0,0,1,.37-1.45,2.56,2.56,0,0,1,1-1,2.26,2.26,0,0,1,1.26-.34,2,2,0,0,1,1.57.65,2.5,2.5,0,0,1,.54,1.67v.26h-3.5v-.59h2.47l-.16.25v-.36a1.47,1.47,0,0,0-.27-.93.88.88,0,0,0-.74-.35,1,1,0,0,0-.57.18,1.24,1.24,0,0,0-.41.53A2.15,2.15,0,0,0,138,21v.22a2,2,0,0,0,.46,1.39,1.52,1.52,0,0,0,1.21.52,1.73,1.73,0,0,0,.73-.14,2,2,0,0,0,.65-.52l.34.31a2.3,2.3,0,0,1-.91,1A2.39,2.39,0,0,1,139.2,24.19Z" transform="translate(-0.38 -1.3)"/><path class="cls-1" d="M141.94,24.1l0-.52.77-.18a2.37,2.37,0,0,0,0-.41c0-.21,0-.46,0-.76s0-.6,0-.93V19c0-.29,0-.56,0-.82s0-.49,0-.69,0-.36,0-.47l-.87-.12,0-.46,2.08-.55.29.19c0,.34,0,.66,0,1s0,.68,0,1.07,0,.88,0,1.45v1.8c0,.52,0,1,0,1.37a4.92,4.92,0,0,0,0,.69l.77.18,0,.52Z" transform="translate(-0.38 -1.3)"/><path class="cls-1" d="M148.25,24.19a3,3,0,0,1-1.42-.33,2.52,2.52,0,0,1-1-.94,2.68,2.68,0,0,1-.34-1.37,2.72,2.72,0,0,1,.38-1.45,2.53,2.53,0,0,1,1-.93,2.91,2.91,0,0,1,1.36-.33,2.7,2.7,0,0,1,1.35.33,2.28,2.28,0,0,1,.9.92,2.78,2.78,0,0,1,.33,1.37,2.84,2.84,0,0,1-.35,1.39,2.63,2.63,0,0,1-.95,1A2.53,2.53,0,0,1,148.25,24.19Zm.12-.68a.84.84,0,0,0,.57-.21,1.27,1.27,0,0,0,.36-.6,2.77,2.77,0,0,0,.13-.91,3.38,3.38,0,0,0-.35-1.66,1.06,1.06,0,0,0-1-.64.93.93,0,0,0-.82.49,2.41,2.41,0,0,0-.3,1.29,3.75,3.75,0,0,0,.17,1.15,2,2,0,0,0,.49.8A1,1,0,0,0,148.37,23.51Z" transform="translate(-0.38 -1.3)"/><path class="cls-1" d="M153.89,24.15l-2-4.52-.56-.19,0-.51H154l0,.51-.58.19,1.34,3.13h-.36l1.44-3.16.4.76-1.87,3.79Zm3.65,0-2-4.52-.58-.19,0-.51h2.64l0,.51-.61.19,1.26,3.13H158l1.33-3.13-.62-.19,0-.51h2l0,.51-.56.19L158,24.15Z" transform="translate(-0.38 -1.3)"/><path class="cls-1" d="M162.37,24.22a.92.92,0,0,1-.49-.13.88.88,0,0,1-.35-.34.92.92,0,0,1-.13-.49,1,1,0,0,1,.48-.84.92.92,0,0,1,.49-.13,1,1,0,0,1,.51.13.93.93,0,0,1,.36.35,1,1,0,0,1,.13.49.92.92,0,0,1-.29.68A1,1,0,0,1,162.37,24.22Zm-.29-2.62-.6-4.32a1.91,1.91,0,0,1,0-.77,1,1,0,0,1,.31-.5.84.84,0,0,1,.54-.18.83.83,0,0,1,.55.18,1,1,0,0,1,.32.5,1.93,1.93,0,0,1,0,.77l-.59,4.32Z" transform="translate(-0.38 -1.3)"/></g></g></svg>