<svg xmlns="http://www.w3.org/2000/svg" viewBox="0 0 277.69 123.6"><defs><style>.cls-1{fill:#8a8e6d;}</style></defs><g id="Layer_2" data-name="Layer 2"><g id="Layer_1-2" data-name="Layer 1"><path class="cls-1" d="M176.08,115.87a7.07,7.07,0,0,1-.61,1.38,4.15,4.15,0,0,1-1,1.12s0,.11.06.08a4.34,4.34,0,0,0,1.64-2.56C176.17,115.83,176.1,115.81,176.08,115.87Z"/><path class="cls-1" d="M178.41,114.22a8.61,8.61,0,0,0-.42,1.24c-.14.47-.29.93-.46,1.39a4,4,0,0,1-1.62,2.23c-.07,0,0,.13.06.1a4,4,0,0,0,1.64-2.12c.2-.47.36-1,.52-1.43a13.26,13.26,0,0,0,.41-1.36C178.55,114.2,178.44,114.14,178.41,114.22Z"/><path class="cls-1" d="M180.59,112.79c-.63,2.53-2.07,4.82-2.39,7.42,0,.11.16.11.17,0,.32-2.59,1.81-4.84,2.32-7.39C180.7,112.76,180.6,112.73,180.59,112.79Z"/><path class="cls-1" d="M183.3,108.84a31.76,31.76,0,0,1-2.93,11.53c0,.09.12.15.16.06a46.56,46.56,0,0,0,2-5.67,18.32,18.32,0,0,0,.84-5.92C183.38,108.78,183.3,108.78,183.3,108.84Z"/><path class="cls-1" d="M185.44,107.55c-.36,2-.53,4.1-.93,6.13a30.16,30.16,0,0,1-1.78,6,.08.08,0,0,0,.14.06,29.67,29.67,0,0,0,1.84-6,44.26,44.26,0,0,0,.87-6.17C185.59,107.49,185.46,107.48,185.44,107.55Z"/><path class="cls-1" d="M189.21,104.68c0-.1-.17-.11-.17,0a44.92,44.92,0,0,1-.76,7.68,18.81,18.81,0,0,1-2.83,7.09c-.06.08.07.16.13.08a18.5,18.5,0,0,0,2.91-7.11,35.42,35.42,0,0,0,.62-4A20.55,20.55,0,0,0,189.21,104.68Z"/><path class="cls-1" d="M191.59,104.11a10.24,10.24,0,0,0-.7,3.3c-.13,1.25-.17,2.5-.27,3.76-.19,2.63-.64,5.23-2.29,7.38-.05.07.07.16.12.09a12.43,12.43,0,0,0,2.36-6.76c.12-1.25.16-2.51.26-3.76.06-.7.13-1.39.25-2.08s.3-1.25.4-1.88C191.73,104.09,191.63,104,191.59,104.11Z"/><path class="cls-1" d="M193.75,105c-.9,1.8-.67,4.14-.7,6.09,0,2.36-.23,4.83-1.81,6.71-.07.07,0,.18.1.11a9.56,9.56,0,0,0,1.9-6.06c0-1.14,0-2.28.08-3.42a14.85,14.85,0,0,1,.57-3.38A.08.08,0,0,0,193.75,105Z"/><path class="cls-1" d="M195.59,107.31c0-.58,0-1.16,0-1.75a8,8,0,0,0-.06-1.62c0-.06-.12-.06-.13,0a5.71,5.71,0,0,0,0,1.43c0,.55,0,1.1,0,1.65,0,1.15,0,2.3,0,3.45a17.89,17.89,0,0,1-1.41,6.81c0,.09.09.18.14.08a17.5,17.5,0,0,0,1.47-6.5C195.61,109.68,195.61,108.49,195.59,107.31Z"/><path class="cls-1" d="M198,103.57s-.09,0-.09,0c.11.85.29,1.68.34,2.54a19.4,19.4,0,0,1-.1,3,20,20,0,0,1-1.34,5.5c0,.08.1.13.13.06a20,20,0,0,0,1.39-5.48,19.15,19.15,0,0,0,.12-3A7.25,7.25,0,0,0,198,103.57Z"/><path class="cls-1" d="M200.49,105.8c0-.79,0-1.6-.1-2.38a.07.07,0,0,0-.15,0,17.65,17.65,0,0,0,0,2.3c0,.76.05,1.53,0,2.29a12.38,12.38,0,0,1-.81,4.59c-.05.13.16.18.21.06a12.31,12.31,0,0,0,.82-4.49C200.53,107.38,200.51,106.59,200.49,105.8Z"/><path class="cls-1" d="M202.37,104.5a.07.07,0,1,0-.13,0,22.28,22.28,0,0,0,0,2.71c0,.9,0,1.81,0,2.71a.1.1,0,1,0,.19,0v-2.71A20.43,20.43,0,0,0,202.37,104.5Z"/><path class="cls-1" d="M204.39,104.85a6.93,6.93,0,0,0,0-.91s-.11,0-.12,0c0,.3,0,.61,0,.91s0,.65,0,1v1.93a.1.1,0,0,0,.2,0v-1.93C204.4,105.5,204.4,105.17,204.39,104.85Z"/><path class="cls-1" d="M207.06,105.75a.06.06,0,0,0-.12,0c0,.45,0,.9-.09,1.35s-.11.9-.14,1.35c0,.14.21.14.22,0,0-.46.09-.91.15-1.37A4.7,4.7,0,0,0,207.06,105.75Z"/><path class="cls-1" d="M215.18,105.22c0-.07-.11-.07-.11,0a13.64,13.64,0,0,1-.26,2.12c-.14.68-.33,1.34-.5,2a.09.09,0,0,0,.18.05c.17-.69.36-1.39.5-2.09A6.69,6.69,0,0,0,215.18,105.22Z"/><path class="cls-1" d="M217.74,101.61c0-.1-.17-.11-.17,0,.06,2.42-1.18,4.64-1.09,7a.09.09,0,1,0,.18,0C216.59,106.25,218,104,217.74,101.61Z"/><path class="cls-1" d="M219.92,98.52c-.61,2.31-.28,4.79-1.27,7-.05.12.12.23.17.11,1-2.2.89-4.74,1.26-7.08A.08.08,0,0,0,219.92,98.52Z"/><path class="cls-1" d="M222.08,95.83a.09.09,0,0,0-.18,0c-.13,1.39-.16,2.79-.29,4.18s-.24,2.75-.27,4.13c0,.13.2.13.21,0,.06-1.38.2-2.75.33-4.13A25.4,25.4,0,0,0,222.08,95.83Z"/><path class="cls-1" d="M225.68,96.53c0-.1-.16-.06-.17,0a17.25,17.25,0,0,0,0,1.76c0,.59,0,1.17-.1,1.76a14.13,14.13,0,0,1-.77,3.51s.07.08.09,0a13.8,13.8,0,0,0,.83-3.48c.08-.62.13-1.24.15-1.87A6.67,6.67,0,0,0,225.68,96.53Z"/><path class="cls-1" d="M227.85,97.1a.09.09,0,0,0-.17,0,16.76,16.76,0,0,0-.06,1.74c0,.57-.06,1.14-.1,1.71-.09,1.14-.22,2.27-.37,3.41a.08.08,0,0,0,.15,0c.16-1.12.3-2.24.41-3.37q.07-.85.12-1.71A9.84,9.84,0,0,0,227.85,97.1Z"/><path class="cls-1" d="M230.91,96.72a.08.08,0,0,0-.15,0,14.52,14.52,0,0,1-.11,1.74c-.09.54-.22,1.08-.36,1.61a16.11,16.11,0,0,0-.62,3.15c0,.11.16.1.16,0a18.46,18.46,0,0,1,.72-3.36A7.26,7.26,0,0,0,230.91,96.72Z"/><path class="cls-1" d="M233.45,96.17c0-.1-.17-.07-.18,0,0,.61,0,1.24,0,1.86a18.22,18.22,0,0,1-.18,2.09,13,13,0,0,1-1.05,3.77c0,.09.08.16.12.08a13,13,0,0,0,1.13-3.86,19.46,19.46,0,0,0,.2-2A9.07,9.07,0,0,0,233.45,96.17Z"/><path class="cls-1" d="M235.52,98.67a11.6,11.6,0,0,0-.09-1.77c0-.08-.15-.09-.16,0a7.22,7.22,0,0,0,0,1.61c0,.61,0,1.23,0,1.85a7.6,7.6,0,0,1-.76,3.55.1.1,0,1,0,.18.1,7.5,7.5,0,0,0,.81-3.43C235.55,100,235.54,99.31,235.52,98.67Z"/><path class="cls-1" d="M238.1,98.18c0-.66,0-1.33-.12-2a.11.11,0,1,0-.21,0,11.25,11.25,0,0,0,.07,1.83c0,.71.09,1.43.1,2.14,0,1.27,0,2.88-.85,3.9-.08.1,0,.23.13.14a5.77,5.77,0,0,0,.95-3.72C238.18,99.72,238.14,99,238.1,98.18Z"/><path class="cls-1" d="M241.43,96.54a4.47,4.47,0,0,0-.13,1c0,.36-.06.72-.1,1.08a16.5,16.5,0,0,1-.33,2.22c0,.1.13.14.15,0a17,17,0,0,0,.35-2.14c0-.37.07-.74.11-1.12a5.71,5.71,0,0,0,.07-1.09C241.54,96.49,241.45,96.47,241.43,96.54Z"/><path class="cls-1" d="M243.36,97.26a.07.07,0,0,0-.13,0,7.19,7.19,0,0,0,0,1v3.31a.1.1,0,0,0,.19,0V98.3A7.19,7.19,0,0,0,243.36,97.26Z"/><path class="cls-1" d="M246.44,98.72a.08.08,0,0,0-.15,0,6.6,6.6,0,0,0-.17,1.17,6,6,0,0,0,0,1.2c0,.1.16.1.15,0a5.83,5.83,0,0,1,0-1.18C246.34,99.5,246.43,99.11,246.44,98.72Z"/><path class="cls-1" d="M249,99.39a1.16,1.16,0,0,0-.28.34,2.22,2.22,0,0,0-.2.41,3,3,0,0,0-.14.93.11.11,0,0,0,.22,0,2.46,2.46,0,0,1,.12-.85,1.8,1.8,0,0,1,.16-.38c.06-.13.15-.24.21-.36S249.1,99.35,249,99.39Z"/><path class="cls-1" d="M253.72,99.24c-.28.65-.47,1.34-.73,2,0,.08.08.11.11,0,.27-.65.5-1.32.72-2A.05.05,0,0,0,253.72,99.24Z"/><path class="cls-1" d="M255.88,98.87a2.44,2.44,0,0,0-.2.7c-.06.25-.11.49-.18.74a5.87,5.87,0,0,1-.53,1.45c-.05.08.08.15.12.07a5.55,5.55,0,0,0,.57-1.43c.07-.25.13-.5.19-.76s.06-.25.08-.37a2.38,2.38,0,0,0,.06-.37A.06.06,0,0,0,255.88,98.87Z"/><path class="cls-1" d="M258.55,98.16a.09.09,0,0,0-.17,0,4.68,4.68,0,0,0-.08.54,4,4,0,0,1-.09.48c-.07.34-.17.67-.27,1-.21.65-.46,1.29-.66,1.95,0,.12.16.18.2.05.21-.68.47-1.34.68-2a9.22,9.22,0,0,0,.28-1A2.74,2.74,0,0,0,258.55,98.16Z"/><path class="cls-1" d="M261.09,96.89c-.15.5-.21,1-.32,1.55s-.21.93-.34,1.39a25.62,25.62,0,0,1-1,2.84c0,.1.11.14.15,0a26.72,26.72,0,0,0,1-2.88c.14-.47.27-1,.37-1.44a7.47,7.47,0,0,0,.23-1.48C261.26,96.82,261.11,96.8,261.09,96.89Z"/><path class="cls-1" d="M263.59,94.55a.07.07,0,0,0-.14,0c-.05.65,0,1.3-.09,2a18.13,18.13,0,0,1-.31,2.07,21.06,21.06,0,0,1-1.22,3.88c0,.08.09.15.12.07a21.41,21.41,0,0,0,1.29-4A11.43,11.43,0,0,0,263.59,94.55Z"/><path class="cls-1" d="M265.73,94.56a0,0,0,0,0-.09,0c-.1.63-.08,1.27-.13,1.9a19.41,19.41,0,0,1-.33,2.14,23,23,0,0,1-1.2,3.89c0,.09.11.15.15.07a21.58,21.58,0,0,0,1.27-4,19.42,19.42,0,0,0,.32-2A7,7,0,0,0,265.73,94.56Z"/><path class="cls-1" d="M266.84,94.39a.08.08,0,1,0-.15,0,13.78,13.78,0,0,0,0,1.7c0,.7,0,1.4,0,2.09a12.36,12.36,0,0,1-.69,4.14c0,.08.1.12.14,0a11.84,11.84,0,0,0,.74-4c0-.71,0-1.41,0-2.11A15.63,15.63,0,0,0,266.84,94.39Z"/><path class="cls-1" d="M269.17,95.72a3.61,3.61,0,0,0-.52-1.73c-.06-.07-.19,0-.16.06a9.77,9.77,0,0,1,.45,1.77,11.21,11.21,0,0,1,.05,2.09,8,8,0,0,1-1.05,3.83c-.08.11.11.22.18.11a8,8,0,0,0,1.1-3.89A11.19,11.19,0,0,0,269.17,95.72Z"/><path class="cls-1" d="M270.75,95.29a3.09,3.09,0,0,0-.13-1h0a.08.08,0,0,0-.14,0,2.54,2.54,0,0,0,0,1c0,.53.09,1.06.12,1.59a10.69,10.69,0,0,1-.69,4.72c0,.1.11.19.15.09a11,11,0,0,0,.76-4.74C270.83,96.38,270.79,95.84,270.75,95.29Z"/><path class="cls-1" d="M273,97.51l-.09-1.23a9.5,9.5,0,0,0-.07-1.19c0-.08-.15-.08-.16,0a4.91,4.91,0,0,0,0,1.15l.09,1.27a18.64,18.64,0,0,1,.05,2.48c0,.15.22.15.23,0A17.09,17.09,0,0,0,273,97.51Z"/><path class="cls-1" d="M274.46,96.56a23.28,23.28,0,0,0-.22,2.89c0,.14.24.15.23,0-.06-1,.2-1.93.14-2.89A.08.08,0,1,0,274.46,96.56Z"/><path class="cls-1" d="M243.09,91.64a.57.57,0,0,0-.12.15l-.11.2c-.08.13-.17.26-.26.39a4.57,4.57,0,0,1-.62.7c-.06.06,0,.15.1.09a5.23,5.23,0,0,0,.64-.69c.09-.13.18-.26.26-.39a2,2,0,0,0,.11-.2.31.31,0,0,0,.07-.21A0,0,0,0,0,243.09,91.64Z"/><path class="cls-1" d="M245.07,91.48a11.37,11.37,0,0,1-1.82,3,.06.06,0,1,0,.09.08,9.46,9.46,0,0,0,1.06-1.45,6.75,6.75,0,0,0,.73-1.65A0,0,0,0,0,245.07,91.48Z"/><path class="cls-1" d="M246.66,91.12c-.25.89-.5,1.77-.83,2.63a22.94,22.94,0,0,1-1.17,2.58c0,.1.1.19.15.09a18.1,18.1,0,0,0,2-5.26A.07.07,0,0,0,246.66,91.12Z"/><path class="cls-1" d="M249,89.83c-.5,1.09-.93,2.23-1.34,3.36a24.09,24.09,0,0,0-1,3.53c0,.09.13.13.15,0a55.49,55.49,0,0,1,2.35-6.86C249.18,89.81,249,89.75,249,89.83Z"/><path class="cls-1" d="M250.64,89.68c-.14.53-.19,1.08-.31,1.61s-.24,1-.37,1.55c-.28,1-.58,2.09-.8,3.15,0,.12.16.17.18.05.23-1.08.53-2.14.81-3.21.14-.53.28-1.07.39-1.6a7.33,7.33,0,0,0,.22-1.54A.06.06,0,0,0,250.64,89.68Z"/><path class="cls-1" d="M252.41,89.85a.09.09,0,0,0-.17,0,9.32,9.32,0,0,0-.07,1.4c0,.54-.07,1.09-.13,1.63a9,9,0,0,1-.88,3.09.09.09,0,0,0,.16.09,9.09,9.09,0,0,0,.94-3c.08-.54.13-1.08.16-1.62A6.1,6.1,0,0,0,252.41,89.85Z"/><path class="cls-1" d="M254.07,89.32a4.58,4.58,0,0,0-.26,1.22c-.06.47-.09.95-.12,1.43,0,.93,0,1.85,0,2.78a.1.1,0,0,0,.21,0c0-.91,0-1.82,0-2.73a13,13,0,0,1,.1-1.39c.05-.43.15-.86.19-1.3C254.2,89.26,254.09,89.26,254.07,89.32Z"/><path class="cls-1" d="M256,88.79a.06.06,0,0,0-.11,0c-.12.86-.08,1.76-.12,2.63s-.08,1.74-.11,2.61c0,.13.2.13.21,0,0-.87.07-1.74.11-2.61A15.41,15.41,0,0,0,256,88.79Z"/><path class="cls-1" d="M257.8,89.32a.06.06,0,0,0-.12,0,8.24,8.24,0,0,1-.16,1.65c-.11.54-.26,1.06-.41,1.58a.09.09,0,0,0,.18,0A7.18,7.18,0,0,0,257.8,89.32Z"/><path class="cls-1" d="M245.8,82.45a6.29,6.29,0,0,0-.78.85c-.24.31-.47.63-.69,1,0,.06.06.11.09,0,.22-.32.45-.64.7-1s.48-.57.73-.85C245.88,82.46,245.83,82.41,245.8,82.45Z"/><path class="cls-1" d="M247,82.24a3.11,3.11,0,0,0-.48.92c-.16.35-.3.71-.45,1.06A13.35,13.35,0,0,1,245,86.4a.08.08,0,0,0,.14.09,13.31,13.31,0,0,0,1.08-2.13c.15-.36.3-.72.46-1.07a7.22,7.22,0,0,0,.45-1A.08.08,0,0,0,247,82.24Z"/><path class="cls-1" d="M248.85,81a12.9,12.9,0,0,1-.83,3.33c-.4,1-.87,2.07-1.18,3.15,0,.09.11.12.13,0,.35-1.12.86-2.16,1.29-3.24a7.35,7.35,0,0,0,.68-3.28C248.93,81,248.85,81,248.85,81Z"/><path class="cls-1" d="M251.22,79.56a.44.44,0,0,0-.16.27l-.06.09a0,0,0,0,0,0,.07c-.1.31-.19.63-.27,1-.17.67-.3,1.34-.44,2a14.42,14.42,0,0,1-1.3,4,.08.08,0,0,0,.14.08,13.21,13.21,0,0,0,1.28-3.65c.15-.65.28-1.31.43-2q.1-.48.24-1a2.91,2.91,0,0,1,.26-.77h0C251.38,79.61,251.31,79.5,251.22,79.56Z"/><path class="cls-1" d="M252.06,79.94c0-.12-.2-.12-.2,0a30.8,30.8,0,0,1-1.05,7.39c0,.09.11.12.13,0A24.7,24.7,0,0,0,252.06,79.94Z"/><path class="cls-1" d="M254.19,79.91a.07.07,0,0,0-.13,0,2.83,2.83,0,0,0,0,.77c0,.3,0,.61,0,.91a16.55,16.55,0,0,1-.28,2,11.78,11.78,0,0,1-1.3,3.54c-.05.08.08.16.13.08A11.54,11.54,0,0,0,254,83.59a14,14,0,0,0,.28-1.93c0-.32,0-.64,0-1A2.09,2.09,0,0,0,254.19,79.91Z"/><path class="cls-1" d="M255.88,79.91a8.45,8.45,0,0,0-.41,1.41c-.14.52-.28,1-.4,1.56a14.08,14.08,0,0,0-.48,3c0,.11.16.11.16,0a14.66,14.66,0,0,1,.55-3.07c.13-.48.26-1,.4-1.45a6.47,6.47,0,0,0,.3-1.44S255.91,79.85,255.88,79.91Z"/><path class="cls-1" d="M256.88,80.85a0,0,0,1,0-.09,0q0,.5-.09,1c0,.32-.08.65-.14,1,0,.12.17.17.19,0a8.42,8.42,0,0,0,.14-1A8.66,8.66,0,0,0,256.88,80.85Z"/><path class="cls-1" d="M224.3,51.94a23.51,23.51,0,0,1-1.1,2.33.06.06,0,1,0,.1.06A15.33,15.33,0,0,0,224.37,52S224.32,51.9,224.3,51.94Z"/><path class="cls-1" d="M225.54,52.64a5.12,5.12,0,0,0-.35.92c-.12.34-.22.68-.32,1-.2.68-.38,1.37-.59,2,0,.08.09.11.11,0,.22-.67.42-1.34.63-2,.1-.33.21-.66.32-1s.25-.65.32-1A.07.07,0,0,0,225.54,52.64Z"/><path class="cls-1" d="M227,54.27a2.89,2.89,0,0,0-.37,1c-.09.34-.16.7-.23,1.05a6.88,6.88,0,0,1-.66,2.12c0,.06.06.12.1.06a6.72,6.72,0,0,0,.68-2c.08-.36.15-.73.24-1.08s.26-.7.35-1A.06.06,0,0,0,227,54.27Z"/><path class="cls-1" d="M229.17,55c-.6.84-1.4,1.81-1.29,2.91,0,.09.14.09.13,0a2.78,2.78,0,0,1,.42-1.53c.25-.46.56-.88.81-1.33A0,0,0,0,0,229.17,55Z"/><path class="cls-1" d="M231,56.62a2.17,2.17,0,0,0-.19.44,3.33,3.33,0,0,0-.13.45,3.77,3.77,0,0,0-.07,1c0,.11.18.11.17,0a4,4,0,0,1,.07-.92c0-.15.07-.3.11-.44s.11-.29.15-.43A.06.06,0,0,0,231,56.62Z"/><path class="cls-1" d="M211.11,61.49a1,1,0,0,0-.17.24c0,.09-.09.18-.12.27a3.5,3.5,0,0,0-.12.63,3.27,3.27,0,0,0,0,1.08c0,.06.12,0,.11,0a4.27,4.27,0,0,1,0-1,2.9,2.9,0,0,1,.12-.6,2.31,2.31,0,0,1,.1-.28c0-.09.09-.17.13-.26S211.15,61.46,211.11,61.49Z"/><path class="cls-1" d="M212.29,62.23s-.1,0-.1,0a6.43,6.43,0,0,0,0,.76,5.66,5.66,0,0,1-.12.81,4.59,4.59,0,0,1-.61,1.48c0,.08.08.15.12.07a4.66,4.66,0,0,0,.63-1.51,5.32,5.32,0,0,0,.12-.8A2.2,2.2,0,0,0,212.29,62.23Z"/><path class="cls-1" d="M214.17,62.58c-.76,1.26-.73,2.82-1.27,4.17,0,.07.09.1.11,0,.57-1.34.62-2.83,1.27-4.14C214.31,62.57,214.21,62.51,214.17,62.58Z"/><path class="cls-1" d="M215.72,63.5c0-.07-.1,0-.11,0-.05.48,0,1-.11,1.44a15.4,15.4,0,0,1-.34,1.64c-.26,1.08-.58,2.14-.83,3.22a.08.08,0,0,0,.15,0c.27-1.13.62-2.23.9-3.36.13-.54.25-1.08.33-1.62A3.51,3.51,0,0,0,215.72,63.5Z"/><path class="cls-1" d="M217.55,63.87a.08.08,0,0,0-.15,0c-.1,1.19-.06,2.39-.19,3.57a11.58,11.58,0,0,1-.89,3.62c0,.09.09.17.14.08a11.52,11.52,0,0,0,.92-3.45A19.53,19.53,0,0,0,217.55,63.87Z"/><path class="cls-1" d="M219.33,64.75s-.13,0-.11,0c.76,2.37-.33,4.84-.55,7.21,0,.08.12.08.13,0,.14-1.32.53-2.59.73-3.9a10.73,10.73,0,0,0,.16-1.87A2.69,2.69,0,0,0,219.33,64.75Z"/><path class="cls-1" d="M221.21,63.66a8.31,8.31,0,0,0-.39,3.25,17.51,17.51,0,0,1-.17,3.62c0,.1.12.14.14,0a15.7,15.7,0,0,0,.23-3.36c0-.56,0-1.12,0-1.68a13.77,13.77,0,0,1,.27-1.82C221.33,63.65,221.24,63.6,221.21,63.66Z"/><path class="cls-1" d="M223.85,63.69c0-.07-.11-.07-.11,0-.07.63-.07,1.26-.14,1.89a9.55,9.55,0,0,1-.42,1.89c0,.08.11.12.14,0a9.32,9.32,0,0,0,.43-1.88A8.9,8.9,0,0,0,223.85,63.69Z"/><path class="cls-1" d="M225.83,63.69a.06.06,0,0,0-.1,0,1.79,1.79,0,0,0-.15.56,5.6,5.6,0,0,0-.07.59,8.42,8.42,0,0,0,0,1.23c0,.11.18.11.18,0a9.45,9.45,0,0,1,0-1.19c0-.2,0-.39.07-.58A3.85,3.85,0,0,0,225.83,63.69Z"/><path class="cls-1" d="M224.31,74.86c-.44.52-.53,1.37-1.25,1.6-.07,0,0,.12,0,.1a1.37,1.37,0,0,0,.77-.63,10.88,10.88,0,0,0,.52-1S224.34,74.83,224.31,74.86Z"/><path class="cls-1" d="M225.92,74.87a3.6,3.6,0,0,0-.32.75l-.33.84c-.22.55-.44,1.1-.63,1.66a.06.06,0,0,0,.11,0c.19-.56.41-1.11.64-1.66l.33-.81a3.24,3.24,0,0,0,.28-.79S225.94,74.83,225.92,74.87Z"/><path class="cls-1" d="M227.53,74.86c-.38.78-.69,1.61-1,2.42a8.31,8.31,0,0,0-.63,2.48.07.07,0,1,0,.13,0,8.26,8.26,0,0,1,.68-2.47,14.82,14.82,0,0,0,.94-2.39C227.65,74.84,227.56,74.8,227.53,74.86Z"/><path class="cls-1" d="M230.25,73.6a8.53,8.53,0,0,0-.56,1.56c-.19.59-.4,1.17-.62,1.75a25.5,25.5,0,0,1-1.54,3.36c0,.07.07.13.11.07a22.26,22.26,0,0,0,1.56-3.27c.23-.58.44-1.16.64-1.74a8.61,8.61,0,0,0,.51-1.71A.05.05,0,0,0,230.25,73.6Z"/><path class="cls-1" d="M232.54,71.62c0-.08-.15-.09-.16,0-.12.7-.08,1.45-.16,2.16a22.42,22.42,0,0,1-.44,2.58,11.68,11.68,0,0,1-1.92,4.44c-.06.08.07.18.13.11a11.93,11.93,0,0,0,2-4.42,19.79,19.79,0,0,0,.47-2.51A7.81,7.81,0,0,0,232.54,71.62Z"/><path class="cls-1" d="M234.69,71.6c0-.07-.15,0-.13.06a6.32,6.32,0,0,1,.08,2.17,21.24,21.24,0,0,1-1.56,5.79,6.42,6.42,0,0,1-1.2,1.91c-.06,0,0,.13.08.08a5.47,5.47,0,0,0,1.3-2,17.2,17.2,0,0,0,1.05-2.86,16.59,16.59,0,0,0,.58-3A4.56,4.56,0,0,0,234.69,71.6Z"/><path class="cls-1" d="M236.85,68.37c0-.06-.1-.06-.12,0a18.47,18.47,0,0,0-.13,3.07,33.3,33.3,0,0,1-.31,3.73,12.92,12.92,0,0,1-2.43,6.54.06.06,0,1,0,.09.08,12.15,12.15,0,0,0,2.55-6.39,34.5,34.5,0,0,0,.36-3.64A13.73,13.73,0,0,0,236.85,68.37Z"/><path class="cls-1" d="M238.84,68.75a.06.06,0,1,0-.12,0c-.26,2.5.05,5-.59,7.49-.53,2.07-1.68,3.93-2.14,6a.08.08,0,0,0,.16,0c.52-2.15,1.75-4,2.27-6.19a19.76,19.76,0,0,0,.44-3.42A24.8,24.8,0,0,0,238.84,68.75Z"/><path class="cls-1" d="M241,66.76a.09.09,0,0,0-.18,0c-.15,1.32-.08,2.67-.15,4s-.18,2.63-.34,3.95a52.43,52.43,0,0,1-1.65,7.93c0,.07.09.1.12,0a47,47,0,0,0,1.76-7.84c.17-1.29.29-2.57.37-3.86A26.91,26.91,0,0,0,241,66.76Z"/><path class="cls-1" d="M242.81,65.84s-.1,0-.11,0a7.64,7.64,0,0,0-.09,1.85c0,.67,0,1.33,0,2,0,1.39-.12,2.78-.23,4.17a58.15,58.15,0,0,1-1.29,8.6c0,.1.13.14.15,0a55.74,55.74,0,0,0,1.36-8.42c.12-1.39.2-2.79.25-4.18,0-.7,0-1.39.05-2.09A7.55,7.55,0,0,0,242.81,65.84Z"/><path class="cls-1" d="M245.71,63.53c0-.06-.07-.13-.12-.07-.68.87-.67,2.36-.7,3.42,0,1.43.1,2.86.05,4.29-.1,3.23-1.45,6.28-1.69,9.5,0,.06.09.06.09,0,.33-3.11,1.68-6,1.86-9.16.07-1.33,0-2.66,0-4a14.15,14.15,0,0,1,.1-2.06C245.36,64.8,245.6,64.18,245.71,63.53Z"/><path class="cls-1" d="M247.49,66.89c-.11-1.36-.18-2.74-.31-4.1a.1.1,0,0,0-.19,0,24.05,24.05,0,0,0,.22,3.88,25.45,25.45,0,0,1,.07,4,74.4,74.4,0,0,1-1.34,8c0,.08.11.12.13,0,.51-2.6,1.19-5.17,1.44-7.8A22.38,22.38,0,0,0,247.49,66.89Z"/><path class="cls-1" d="M249,66.17a23.49,23.49,0,0,0-.24-3c-.12-1-.16-2-.35-2.91,0-.11-.18-.08-.18,0a18.21,18.21,0,0,0,.3,3.12,25.54,25.54,0,0,1,.21,2.9c0,2-.47,3.92-.34,5.9,0,.13.21.13.2,0C248.52,70.16,249,68.18,249,66.17Z"/><path class="cls-1" d="M250,58.78c0-.08-.15,0-.14.06a20,20,0,0,1,.57,4.23c0,1.41-.06,2.82-.06,4.23a.11.11,0,1,0,.21,0c0-1.48.14-3,.13-4.45A9.11,9.11,0,0,0,250,58.78Z"/><path class="cls-1" d="M247,55.37c0-.08-.14-.06-.13,0,.07.73.26,1.45.37,2.18,0,.06.12,0,.11,0C247.23,56.82,247.09,56.1,247,55.37Z"/><path class="cls-1" d="M248.59,55.66a1.44,1.44,0,0,0-.58-.86.05.05,0,0,0-.07.07c.09.15.21.29.29.44a1.77,1.77,0,0,1,.18.45,10.13,10.13,0,0,1,.2,1.1c0,.13.22.07.2-.06A10.92,10.92,0,0,0,248.59,55.66Z"/><path class="cls-1" d="M194.69,74.31c-.23.29-.44.58-.68.86a7,7,0,0,1-.78.76s0,.13.09.08a7,7,0,0,0,.78-.76,5.06,5.06,0,0,0,.66-.88C194.79,74.32,194.72,74.27,194.69,74.31Z"/><path class="cls-1" d="M195.77,75.22a4.91,4.91,0,0,0-.49.68l-.5.73-1,1.47a.07.07,0,1,0,.12.07l1-1.47.5-.73a3.54,3.54,0,0,0,.45-.71S195.8,75.18,195.77,75.22Z"/><path class="cls-1" d="M197,75.41c-.31.65-.58,1.32-.93,2a12.5,12.5,0,0,1-1.25,1.82c-.05.06,0,.15.08.09a10.87,10.87,0,0,0,2.16-3.83S197.05,75.37,197,75.41Z"/><path class="cls-1" d="M199,75.76a2.3,2.3,0,0,0-.21.57c-.08.24-.17.47-.27.7-.19.44-.41.87-.64,1.3a26.41,26.41,0,0,0-1.26,2.49c0,.1.12.15.16.05a29,29,0,0,1,1.34-2.6,12.25,12.25,0,0,0,.62-1.26,3,3,0,0,0,.36-1.22A.06.06,0,0,0,199,75.76Z"/><path class="cls-1" d="M200.73,75.79c0-.07-.1-.07-.11,0-.26,2.26-1.45,4.23-2.36,6.28,0,.1.1.18.14.08.49-1.07,1.06-2.11,1.53-3.19A6.69,6.69,0,0,0,200.73,75.79Z"/><path class="cls-1" d="M202.24,75.41a14.85,14.85,0,0,0-.29,1.75c-.1.68-.21,1.37-.36,2a7.3,7.3,0,0,1-1.51,3.58.08.08,0,0,0,.11.11,7.29,7.29,0,0,0,1.58-3.48c.17-.71.3-1.42.4-2.14a12.78,12.78,0,0,0,.2-1.84A.07.07,0,0,0,202.24,75.41Z"/><path class="cls-1" d="M204.38,75.22c-.14.67-.19,1.36-.31,2s-.3,1.35-.48,2a39.28,39.28,0,0,1-1.38,3.9c0,.11.14.16.19,0a37.41,37.41,0,0,0,1.43-4c.2-.66.36-1.33.5-2a8,8,0,0,0,.23-2A.09.09,0,0,0,204.38,75.22Z"/><path class="cls-1" d="M207.06,74.17a.07.07,0,1,0-.13,0,34.15,34.15,0,0,1-.48,4.51c-.29,1.45-.66,2.87-1,4.3,0,.14.18.2.21.06.36-1.48.75-3,1-4.46A14,14,0,0,0,207.06,74.17Z"/><path class="cls-1" d="M209.06,73.6c0-.08-.14,0-.15,0-.07.71,0,1.43,0,2.14s-.09,1.59-.18,2.38a17.25,17.25,0,0,1-1,4.49c0,.1.12.14.16,0a17,17,0,0,0,1.07-4.45c.1-.79.16-1.59.2-2.39A12.78,12.78,0,0,0,209.06,73.6Z"/><path class="cls-1" d="M210.88,74c0-.09-.12-.16-.16-.07a7.05,7.05,0,0,0-.34,3.29A8.21,8.21,0,0,1,210,81c0,.11.12.21.17.1a7.6,7.6,0,0,0,.47-3.44A10.8,10.8,0,0,1,210.88,74Z"/><path class="cls-1" d="M212.68,74.21a5.4,5.4,0,0,0-.18-1.33.09.09,0,0,0-.17,0c0,.44.11.87.15,1.31s.05.92.05,1.38c0,.91,0,1.82,0,2.73a.09.09,0,0,0,.17,0c0-.93,0-1.85,0-2.78C212.72,75.09,212.71,74.65,212.68,74.21Z"/><path class="cls-1" d="M214.28,72.71a.06.06,0,0,0-.11,0,3.69,3.69,0,0,0,0,.88v2.74a.09.09,0,1,0,.18,0V73.59A3.69,3.69,0,0,0,214.28,72.71Z"/><path class="cls-1" d="M215.56,73.62a.07.07,0,0,0-.14,0c0,.3,0,.61,0,.91s0,.6,0,.9a.08.08,0,0,0,.16,0v-.9C215.57,74.23,215.58,73.92,215.56,73.62Z"/><path class="cls-1" d="M209.31,86.8c-.12.32-.22.65-.34,1s-.26.66-.41,1c0,.09.09.16.13.08.15-.33.29-.66.41-1a4.07,4.07,0,0,0,.28-1S209.33,86.76,209.31,86.8Z"/><path class="cls-1" d="M212.36,85.69c-.76,1.28-.65,2.88-1.46,4.14-.06.1.09.18.15.09a6.5,6.5,0,0,0,.75-2,11.64,11.64,0,0,1,.67-2.15C212.51,85.68,212.4,85.62,212.36,85.69Z"/><path class="cls-1" d="M214.54,85.89a5,5,0,0,0-.22.87c0,.28-.1.56-.16.84q-.18.86-.39,1.71c0,.12.15.17.19,0q.21-.87.39-1.74c.06-.29.11-.58.17-.87a4,4,0,0,0,.11-.85A0,0,0,0,0,214.54,85.89Z"/><path class="cls-1" d="M216.35,85.5a3.67,3.67,0,0,0-.56,1.3,5.51,5.51,0,0,0-.2,1.45.08.08,0,0,0,.15,0,6.13,6.13,0,0,1,.24-1.4c.12-.44.34-.85.46-1.29C216.45,85.51,216.39,85.46,216.35,85.5Z"/><path class="cls-1" d="M218.15,84.61a2.42,2.42,0,0,0-.23.58,5,5,0,0,0-.19.66,5.29,5.29,0,0,0-.15,1.32.07.07,0,0,0,.15,0,5.72,5.72,0,0,1,.17-1.3c0-.2.11-.39.16-.59a5,5,0,0,0,.18-.63C218.25,84.6,218.18,84.56,218.15,84.61Z"/><path class="cls-1" d="M220.83,84.75a1.08,1.08,0,0,0-.21.3,2.91,2.91,0,0,0-.18.35,4.07,4.07,0,0,0-.26.74,4.14,4.14,0,0,0-.09,1.57c0,.11.19.12.18,0a4.1,4.1,0,0,1,.37-2.22,3.3,3.3,0,0,1,.18-.32,2.58,2.58,0,0,0,.18-.32A.1.1,0,0,0,220.83,84.75Z"/><path class="cls-1" d="M145.58,107.74c-.47.75-.82,1.58-1.29,2.33,0,.06.06.12.1.06a24.12,24.12,0,0,0,1.24-2.36S145.6,107.7,145.58,107.74Z"/><path class="cls-1" d="M147.19,107.71a4.9,4.9,0,0,0-1.21,1.94,9.08,9.08,0,0,1-1.14,2.21c-.06.06,0,.16.09.09,1-1.24,1.19-3,2.34-4.16C147.33,107.74,147.25,107.66,147.19,107.71Z"/><path class="cls-1" d="M149.15,107.21a9.84,9.84,0,0,1-1,3.08,15.81,15.81,0,0,1-1.66,2.66c0,.06.06.15.11.09a17.12,17.12,0,0,0,1.74-2.79,8,8,0,0,0,1-3C149.28,107.13,149.16,107.13,149.15,107.21Z"/><path class="cls-1" d="M151.14,106.65c-.52,1.63-.76,3.45-1.82,4.85-.06.09.09.17.15.09a7.75,7.75,0,0,0,1.11-2.32,23.38,23.38,0,0,0,.69-2.58C151.29,106.6,151.16,106.56,151.14,106.65Z"/><path class="cls-1" d="M153.31,106.09a4.74,4.74,0,0,0-.41,1.22l-.3,1.36a9.15,9.15,0,0,1-.94,2.64c-.06.11.11.21.17.1a9.24,9.24,0,0,0,1-2.55c.1-.44.19-.88.3-1.31s.27-.93.34-1.41C153.44,106.07,153.35,106,153.31,106.09Z"/><path class="cls-1" d="M155.07,105.77a.08.08,0,1,0-.15,0,13.22,13.22,0,0,1-1.08,5.37c0,.1.1.18.14.08a12.8,12.8,0,0,0,.85-2.65A8.56,8.56,0,0,0,155.07,105.77Z"/><path class="cls-1" d="M156.14,106.13c0-.08-.13-.09-.12,0a16,16,0,0,1-.39,3.77c0,.11.15.15.17,0A11.66,11.66,0,0,0,156.14,106.13Z"/><path class="cls-1" d="M158.19,110.08a2.26,2.26,0,0,0-.09.58c0,.2,0,.4-.09.6a4,4,0,0,1-.36,1.16c0,.07.07.13.11.06a4.41,4.41,0,0,0,.39-1.16q.06-.3.09-.6a2.61,2.61,0,0,0,.06-.62A.06.06,0,0,0,158.19,110.08Z"/><path class="cls-1" d="M160.53,108.62c-.48,1.12-.52,2.42-1.26,3.43-.05.07.07.14.12.07a5.14,5.14,0,0,0,.77-1.64c.19-.6.34-1.2.51-1.81C160.69,108.59,160.56,108.53,160.53,108.62Z"/><path class="cls-1" d="M162.3,106.47c0-.07-.15-.09-.16,0a4,4,0,0,0,0,.49,4.9,4.9,0,0,1,0,.54,9.55,9.55,0,0,1-.18,1.07c-.16.68-.38,1.35-.53,2a.12.12,0,0,0,.23.06c.16-.71.38-1.4.55-2.11a7.57,7.57,0,0,0,.18-1.06A2.55,2.55,0,0,0,162.3,106.47Z"/><path class="cls-1" d="M164,106.65c-.09.58-.16,1.16-.27,1.74s-.22,1.13-.3,1.71c0,.12.18.12.2,0,.08-.59.2-1.17.32-1.75a8,8,0,0,0,.2-1.68C164.1,106.58,164,106.55,164,106.65Z"/><path class="cls-1" d="M167.32,106.3s-.08,0-.09,0a5.31,5.31,0,0,0-.07,1.2,11.44,11.44,0,0,1-.2,1.65,4,4,0,0,1-1.34,2.7.06.06,0,0,0,.06.11,3.73,3.73,0,0,0,1.44-2.62,14.51,14.51,0,0,0,.24-1.72A3.09,3.09,0,0,0,167.32,106.3Z"/><path class="cls-1" d="M169.88,105.22a38.19,38.19,0,0,1-.6,4,28.59,28.59,0,0,1-1.17,3.75c0,.08.1.12.13,0a27.84,27.84,0,0,0,1.25-3.88,16.15,16.15,0,0,0,.59-3.91C170.08,105.09,169.9,105.1,169.88,105.22Z"/><path class="cls-1" d="M172.23,105a.09.09,0,0,0-.17,0c-.06.48,0,1-.08,1.46s-.16,1.15-.27,1.72c-.21,1.06-.48,2.1-.73,3.14,0,.11.14.16.17,0,.27-1.08.56-2.16.78-3.24.11-.52.19-1,.25-1.56A5.51,5.51,0,0,0,172.23,105Z"/><path class="cls-1" d="M174.2,104.48c0-.06-.12-.06-.13,0a18.77,18.77,0,0,0,0,2.25,6,6,0,0,1-.38,2.26c0,.09.12.16.16.07a6,6,0,0,0,.42-2.21A13.42,13.42,0,0,0,174.2,104.48Z"/><path class="cls-1" d="M176.91,104.3a.07.07,0,0,0-.13,0c0,.52-.05,1-.12,1.55s-.17,1-.27,1.49c0,.13.16.18.19.06.11-.53.22-1,.3-1.58A5,5,0,0,0,176.91,104.3Z"/><path class="cls-1" d="M178.79,103.55a2.43,2.43,0,0,0-.56.92c-.14.36-.26.73-.39,1.09,0,.11.14.16.18,0,.12-.35.23-.71.37-1a4.87,4.87,0,0,1,.49-.93C178.93,103.57,178.84,103.51,178.79,103.55Z"/><path class="cls-1" d="M133.83,95.8a2.9,2.9,0,0,0-.27.41l-.31.42a6.51,6.51,0,0,1-.69.79c-.05,0,0,.13.09.08a7.26,7.26,0,0,0,.69-.78c.11-.14.21-.28.31-.43a3.23,3.23,0,0,0,.27-.44S133.86,95.76,133.83,95.8Z"/><path class="cls-1" d="M135.45,95.43a4.08,4.08,0,0,0-.45.85c-.14.31-.26.62-.38.93a8.2,8.2,0,0,1-1,1.85s.05.11.09.06a7.33,7.33,0,0,0,1-1.74c.13-.31.26-.63.4-.95s.33-.61.47-.93C135.57,95.45,135.5,95.37,135.45,95.43Z"/><path class="cls-1" d="M137.61,95.26c-.22.39-.37.83-.55,1.24s-.37.86-.58,1.28a9.07,9.07,0,0,1-1.59,2.33c-.07.08.05.19.12.12a9.54,9.54,0,0,0,1.61-2.32c.21-.42.4-.84.59-1.28a10,10,0,0,0,.51-1.32C137.73,95.24,137.64,95.2,137.61,95.26Z"/><path class="cls-1" d="M139.93,94.7c-.83,1.75-1,3.89-2.5,5.24-.07.06,0,.15.1.1,1.54-1.3,1.89-3.47,2.57-5.27C140.13,94.68,140,94.61,139.93,94.7Z"/><path class="cls-1" d="M142.65,93.09c-1.2,2.1-1.4,4.61-2.72,6.67-.06.1.09.18.15.09,1.32-2,1.71-4.5,2.7-6.69C142.82,93.08,142.7,93,142.65,93.09Z"/><path class="cls-1" d="M144.83,91.67c-.24,1.09-.27,2.24-.46,3.34a12,12,0,0,1-1,3.31.09.09,0,0,0,.16.09,12,12,0,0,0,1-3.29,18.13,18.13,0,0,0,.39-3.44A.05.05,0,0,0,144.83,91.67Z"/><path class="cls-1" d="M146.76,91.48c0-.08-.13,0-.14,0-.08.66-.05,1.33-.15,2s-.25,1.29-.4,1.92a25.55,25.55,0,0,0-.75,3.66c0,.14.19.13.21,0a27.73,27.73,0,0,1,.83-3.93c.15-.61.28-1.23.37-1.86A5.24,5.24,0,0,0,146.76,91.48Z"/><path class="cls-1" d="M148.94,91.5a.09.09,0,1,0-.17,0,16.63,16.63,0,0,1-.45,3.58c-.26,1.15-.59,2.28-.82,3.44a.1.1,0,0,0,.19,0c.24-1.2.59-2.37.86-3.56A10.71,10.71,0,0,0,148.94,91.5Z"/><path class="cls-1" d="M152.53,92.21c0-.06-.11-.07-.12,0a3.16,3.16,0,0,0,0,.69c0,.26,0,.53,0,.79a12.76,12.76,0,0,1-.34,1.72,19.17,19.17,0,0,1-1.19,3.11s0,.1.08,0a17.18,17.18,0,0,0,1.29-3.1,13.3,13.3,0,0,0,.35-1.64A3.8,3.8,0,0,0,152.53,92.21Z"/><path class="cls-1" d="M155.12,91.84a9.58,9.58,0,0,0-.26,1.4q-.12.67-.27,1.35a22.55,22.55,0,0,1-.76,2.67c0,.1.13.14.16,0a23.21,23.21,0,0,0,.8-2.7c.11-.47.21-.94.29-1.41a5.38,5.38,0,0,0,.16-1.33A.06.06,0,0,0,155.12,91.84Z"/><path class="cls-1" d="M156.91,91.66a7.85,7.85,0,0,0-.37,3.27c0,.1.16.1.16,0a10.05,10.05,0,0,1,.35-3.23A.07.07,0,0,0,156.91,91.66Z"/><path class="cls-1" d="M159.76,93.49a.07.07,0,0,0-.14,0c0,.42,0,.84,0,1.26a.09.09,0,0,0,.18,0C159.78,94.33,159.78,93.91,159.76,93.49Z"/><path class="cls-1" d="M182.22,69.27a7.54,7.54,0,0,1-.38.75,4.23,4.23,0,0,1-.52.68s0,.12.07.07a4,4,0,0,0,.53-.69,3.13,3.13,0,0,0,.38-.78S182.24,69.22,182.22,69.27Z"/><path class="cls-1" d="M183.66,68.9a2.92,2.92,0,0,0-.17.36c-.05.11-.11.21-.16.32s-.23.46-.35.69c-.24.46-.5.9-.77,1.34,0,.06.06.12.1.06q.42-.66.81-1.35c.12-.22.23-.44.34-.67s.11-.24.16-.37a1.4,1.4,0,0,0,.13-.34A.05.05,0,0,0,183.66,68.9Z"/><path class="cls-1" d="M185.09,69.25a8.26,8.26,0,0,0-.6,1.44,6.61,6.61,0,0,1-.68,1.45c-.06.09.09.17.15.08a6.59,6.59,0,0,0,.67-1.42c.19-.5.39-1,.59-1.49C185.25,69.23,185.13,69.19,185.09,69.25Z"/><path class="cls-1" d="M186.89,69.8c-.25.46-.45,1-.66,1.45s-.42,1-.61,1.45c0,.09.11.13.14,0,.2-.5.42-1,.64-1.49s.45-.92.63-1.4A.08.08,0,0,0,186.89,69.8Z"/><path class="cls-1" d="M188.73,70.14a1.89,1.89,0,0,0-.41.52,2.92,2.92,0,0,0-.27.63c-.16.46-.27.93-.46,1.38-.06.12.12.23.18.1.19-.42.3-.87.45-1.31a5.41,5.41,0,0,1,.24-.63,4.24,4.24,0,0,1,.36-.61S188.78,70.1,188.73,70.14Z"/><path class="cls-1" d="M191.08,70.7a6,6,0,0,0-1.48,2c0,.09.08.16.13.08a14.6,14.6,0,0,1,1.41-2S191.12,70.67,191.08,70.7Z"/><path class="cls-1" d="M193.22,72a1.29,1.29,0,0,1-.71.85.08.08,0,0,0,0,.11s.07,0,.12,0a1.36,1.36,0,0,0,.5-.39,1.25,1.25,0,0,0,.23-.57C193.34,71.94,193.24,71.91,193.22,72Z"/><path class="cls-1" d="M173,62.05a4.34,4.34,0,0,0-.3.7,7.32,7.32,0,0,0-.25.75,0,0,0,0,0,.08,0c.07-.25.15-.49.24-.73s.2-.48.29-.71C173.1,62,173,62,173,62.05Z"/><path class="cls-1" d="M175.18,61.87a7.61,7.61,0,0,0-.38.87c-.13.3-.28.6-.44.89a8.64,8.64,0,0,1-1.18,1.64c-.06.06,0,.16.1.1a9.27,9.27,0,0,0,1.21-1.66c.17-.3.32-.61.46-.92a2.91,2.91,0,0,0,.31-.9A0,0,0,0,0,175.18,61.87Z"/><path class="cls-1" d="M178.07,61.13a3.21,3.21,0,0,0-.38.68l-.35.69c-.25.5-.52,1-.78,1.48-.52,1-1.05,2-1.58,2.93,0,.07.07.14.11.07.55-1,1.1-1.93,1.64-2.9q.41-.73.78-1.47c.12-.23.24-.46.35-.7a2.74,2.74,0,0,0,.3-.73S178.11,61.08,178.07,61.13Z"/><path class="cls-1" d="M179.86,61.33a26.74,26.74,0,0,1-.88,3.3,20.81,20.81,0,0,1-1.47,3.18.07.07,0,1,0,.12.07,18,18,0,0,0,1.53-3.15,10.44,10.44,0,0,0,.81-3.39A.06.06,0,0,0,179.86,61.33Z"/><path class="cls-1" d="M181.82,60.6c-.1.53-.13,1.08-.23,1.61s-.22,1-.36,1.57c-.28,1-.62,2.08-.88,3.13,0,.14.18.2.21.06.28-1.06.62-2.11.91-3.18a9.52,9.52,0,0,0,.51-3.17C182,60.54,181.84,60.5,181.82,60.6Z"/><path class="cls-1" d="M183.83,59.34a25.27,25.27,0,0,0-.63,3.56,18.74,18.74,0,0,1-.82,3.48.06.06,0,0,0,.12,0,15.81,15.81,0,0,0,.92-3.53c.2-1.17.42-2.35.52-3.53C184,59.29,183.85,59.28,183.83,59.34Z"/><path class="cls-1" d="M186.36,59.51a5.16,5.16,0,0,0-.61,1.54c-.17.56-.33,1.12-.47,1.69-.29,1.14-.53,2.3-.78,3.45,0,.15.19.21.22.06.25-1.15.5-2.3.79-3.45.14-.56.3-1.13.47-1.68a9,9,0,0,0,.5-1.58C186.48,59.47,186.39,59.47,186.36,59.51Z"/><path class="cls-1" d="M188.13,60.78c-.44,1.4-.31,2.94-.91,4.3-.06.13.13.25.19.11a20.11,20.11,0,0,0,.9-4.36A.09.09,0,0,0,188.13,60.78Z"/><path class="cls-1" d="M189.17,59.72s-.08-.06-.09,0c0,.24,0,.49-.06.74s0,.51-.07.76a11.56,11.56,0,0,1-.27,1.56c0,.1.14.14.16,0a12.88,12.88,0,0,0,.26-1.51A8.33,8.33,0,0,0,189.17,59.72Z"/><path class="cls-1" d="M157.32,85a3.05,3.05,0,0,0-.6,1.07,5.79,5.79,0,0,0-.34,1.3.06.06,0,0,0,.11,0,5.9,5.9,0,0,1,.33-1.25,8.43,8.43,0,0,1,.55-1.08S157.35,85,157.32,85Z"/><path class="cls-1" d="M159.63,83.36a30.89,30.89,0,0,1-1.61,4.5c0,.06.06.12.09.06a16.85,16.85,0,0,0,.95-2.19,17.42,17.42,0,0,0,.69-2.34A.06.06,0,0,0,159.63,83.36Z"/><path class="cls-1" d="M162.71,81.72a16.35,16.35,0,0,0-1,3.51,16.72,16.72,0,0,1-1.19,3.71.07.07,0,0,0,.13.07,16.45,16.45,0,0,0,1.21-3.54c.15-.62.29-1.24.45-1.86s.35-1.23.5-1.85C162.83,81.7,162.74,81.66,162.71,81.72Z"/><path class="cls-1" d="M165.42,80.07a8.63,8.63,0,0,0-1.29,3.69c-.27,1.42-.44,2.87-.74,4.28,0,.13.16.18.19.06.58-2.62.61-5.55,1.95-7.94C165.57,80.09,165.47,80,165.42,80.07Z"/><path class="cls-1" d="M167,77.21s-.09,0-.08,0c1,3.61,0,7.24-.76,10.8,0,.1.14.14.16,0,.41-1.83.87-3.66,1.12-5.53A9.94,9.94,0,0,0,167,77.21Z"/><path class="cls-1" d="M170.06,74.71a.08.08,0,1,0-.16,0c-.15,2,0,3.94-.15,5.9a27.59,27.59,0,0,1-.94,6,.09.09,0,0,0,.17.05,27.42,27.42,0,0,0,1-5.83A43,43,0,0,0,170.06,74.71Z"/><path class="cls-1" d="M171.68,72.16c0-.09-.15-.07-.15,0,.09,2.08.35,4.14.38,6.22a44.87,44.87,0,0,1-.38,6.24c0,.09.14.11.15,0a45.1,45.1,0,0,0,.43-6.26A36.24,36.24,0,0,0,171.68,72.16Z"/><path class="cls-1" d="M173.45,71.44s-.09,0-.08,0a14.47,14.47,0,0,1,.67,5.39c-.08,1.81-.33,3.62-.34,5.43a.08.08,0,1,0,.15,0c0-1.9.33-3.79.42-5.69C174.35,74.92,174.36,72.92,173.45,71.44Z"/><path class="cls-1" d="M176.47,74.83q-.15-1.08-.39-2.16a8.05,8.05,0,0,0-.63-2.15s-.11,0-.11,0a16.91,16.91,0,0,0,.51,2.1c.16.71.29,1.43.39,2.15a32.14,32.14,0,0,1,.33,4.6.1.1,0,0,0,.19,0A33.29,33.29,0,0,0,176.47,74.83Z"/><path class="cls-1" d="M178.23,73.71a11.67,11.67,0,0,0-.6-3,.07.07,0,1,0-.13,0c.08.5.22,1,.31,1.47s.18,1.07.24,1.61c.1,1,.14,2,.14,3a.1.1,0,1,0,.19,0A30.38,30.38,0,0,0,178.23,73.71Z"/><path class="cls-1" d="M180,72.72a.06.06,0,0,0-.11,0c-.06,1,0,1.93,0,2.89a.1.1,0,0,0,.19,0C180,74.65,180,73.68,180,72.72Z"/><path class="cls-1" d="M175.35,84.05a4,4,0,0,0-.77,1.44c-.2.54-.36,1.1-.53,1.65,0,.11.13.15.17,0,.16-.53.31-1.07.51-1.59a8.38,8.38,0,0,1,.73-1.47A.07.07,0,0,0,175.35,84.05Z"/><path class="cls-1" d="M177.6,82.29s-.07-.05-.07,0a10.42,10.42,0,0,1-1.1,4.85c0,.06.07.12.1.06a9.21,9.21,0,0,0,.88-2.38A7.7,7.7,0,0,0,177.6,82.29Z"/><path class="cls-1" d="M179.85,80.47c-.32,1.56-.58,3.13-.93,4.68,0,.13.16.18.19.06.35-1.56.67-3.14.87-4.72C180,80.41,179.86,80.39,179.85,80.47Z"/><path class="cls-1" d="M182,78.86a.07.07,0,0,0-.14,0c-.07,1.86.13,3.8-.56,5.57,0,.11.13.15.17,0A12.3,12.3,0,0,0,182,78.86Z"/><path class="cls-1" d="M184.42,81.63c0-.32,0-.63,0-.95l0-.47a1.75,1.75,0,0,0,0-.46.05.05,0,0,0-.1,0,1.41,1.41,0,0,0,0,.46c0,.14,0,.29,0,.44,0,.32,0,.65,0,1,0,.64.09,1.28.13,1.93,0,.12.2.12.2,0C184.49,82.91,184.45,82.27,184.42,81.63Z"/><path class="cls-1" d="M164,52.29a9.1,9.1,0,0,0-.44.81c-.15.28-.3.55-.47.81,0,.06.06.12.1.06.17-.27.34-.54.49-.81a4.62,4.62,0,0,0,.42-.83C164.1,52.27,164,52.24,164,52.29Z"/><path class="cls-1" d="M166,52.3a7,7,0,0,1-.74,2A7.43,7.43,0,0,1,164,56.06c-.06.06,0,.16.1.1a7.94,7.94,0,0,0,1.3-1.8,5.3,5.3,0,0,0,.68-2S166,52.26,166,52.3Z"/><path class="cls-1" d="M167.39,52.66c-.35,1-.66,2.08-1.1,3.09a30.25,30.25,0,0,1-1.44,2.84c-.06.1.1.19.15.09a28.94,28.94,0,0,0,1.49-2.94,14.23,14.23,0,0,0,1-3.05A.07.07,0,0,0,167.39,52.66Z"/><path class="cls-1" d="M169.4,51.93c-1,2.3-1.78,4.68-2.58,7,0,.12.15.17.19.05.8-2.36,1.64-4.7,2.48-7.05C169.5,51.92,169.42,51.88,169.4,51.93Z"/><path class="cls-1" d="M171.92,50.68c-.4,1.41-.8,2.8-1.3,4.18s-1,2.72-1.44,4.12c0,.1.13.14.16,0,.43-1.39,1-2.75,1.46-4.11A21.32,21.32,0,0,0,172,50.7,0,0,0,0,0,171.92,50.68Z"/><path class="cls-1" d="M173.71,50.67c-.28,1.49-.53,3-.92,4.44a26.26,26.26,0,0,1-1.62,4.39c0,.09.1.18.15.08a25.82,25.82,0,0,0,2.52-8.89C173.85,50.61,173.72,50.6,173.71,50.67Z"/><path class="cls-1" d="M175.49,51.75a18.37,18.37,0,0,0-.74,3.77,11.56,11.56,0,0,1-1.05,3.79c-.06.11.1.2.15.09A11.09,11.09,0,0,0,175,55.7c.2-1.31.38-2.61.71-3.9A.09.09,0,0,0,175.49,51.75Z"/><path class="cls-1" d="M177.32,53.22c0,1.75-.93,3.33-1.12,5.06,0,.12.19.12.2,0,.19-1.73,1.1-3.31,1-5.06A.07.07,0,1,0,177.32,53.22Z"/><path class="cls-1" d="M176.6,47.24A11,11,0,0,0,176,50c0,.1.15.1.16,0a14.39,14.39,0,0,1,.53-2.69C176.75,47.2,176.63,47.17,176.6,47.24Z"/><path class="cls-1" d="M178.53,47.24c0-.05-.11-.06-.12,0,0,.23,0,.46,0,.69a6.32,6.32,0,0,1-.11.76,6.22,6.22,0,0,1-.43,1.41c-.06.12.12.23.18.1a6.12,6.12,0,0,0,.46-1.45,6.34,6.34,0,0,0,.07-.75A3.22,3.22,0,0,0,178.53,47.24Z"/><path class="cls-1" d="M166.86,44.88a4,4,0,0,0-.32.57c-.11.2-.21.4-.31.6-.2.4-.4.8-.63,1.18,0,.06.06.12.1.06.23-.38.44-.77.65-1.17l.3-.58c.11-.2.23-.39.32-.6A.06.06,0,0,0,166.86,44.88Z"/><path class="cls-1" d="M168.83,44.69c-.83,1.3-1,2.93-2,4.14-.06.08,0,.18.1.11,1-1.19,1.34-2.8,2-4.17A.08.08,0,0,0,168.83,44.69Z"/><path class="cls-1" d="M170.83,44.9a20.7,20.7,0,0,1-1.65,3.58c-.06.1.09.19.16.09a15.15,15.15,0,0,0,1.6-3.64A.06.06,0,1,0,170.83,44.9Z"/><path class="cls-1" d="M173.17,45.06a10,10,0,0,0-.54,1.71,7.2,7.2,0,0,1-.72,1.72c0,.08.07.14.12.07a6.72,6.72,0,0,0,.73-1.67c.19-.58.39-1.18.54-1.78C173.32,45,173.21,45,173.17,45.06Z"/><path class="cls-1" d="M174.83,46c-.32.7-.5,1.44-.75,2.17,0,.07.09.1.12,0,.25-.72.4-1.47.69-2.18C174.9,46,174.85,46,174.83,46Z"/><path class="cls-1" d="M144.66,31.33a2.83,2.83,0,0,0-.29.47c-.1.16-.19.33-.28.5-.18.34-.35.68-.55,1a.09.09,0,0,0,.15.09,9,9,0,0,0,.58-1l.25-.51a3.27,3.27,0,0,0,.24-.5A.06.06,0,0,0,144.66,31.33Z"/><path class="cls-1" d="M146.29,32.05a5.45,5.45,0,0,0-.57.7c-.19.28-.38.56-.55.85a5.43,5.43,0,0,0-.7,1.73.06.06,0,0,0,.11,0,5.64,5.64,0,0,1,.71-1.72c.17-.27.35-.54.53-.8s.39-.47.56-.72C146.42,32.07,146.33,32,146.29,32.05Z"/><path class="cls-1" d="M147.54,32.8a6.85,6.85,0,0,1-.9,2.29,9.53,9.53,0,0,1-1.44,2s0,.13.09.08a9.52,9.52,0,0,0,1.48-2.07,6,6,0,0,0,.88-2.31C147.66,32.75,147.54,32.73,147.54,32.8Z"/><path class="cls-1" d="M149.33,32.62c-.41,2.3-1.72,4.31-2.87,6.3a.06.06,0,1,0,.1.06c.61-1,1.25-2.06,1.8-3.14a9.63,9.63,0,0,0,1.1-3.21C149.47,32.56,149.35,32.54,149.33,32.62Z"/><path class="cls-1" d="M151.34,33a41.52,41.52,0,0,1-3.07,6.67c0,.06,0,.11.09.05A32.15,32.15,0,0,0,151.43,33C151.45,33,151.36,32.93,151.34,33Z"/><path class="cls-1" d="M153.06,32.62a.05.05,0,0,0-.1,0,10.45,10.45,0,0,0-.17,1.1c-.06.32-.13.65-.21,1a14.91,14.91,0,0,1-.63,2,34.06,34.06,0,0,1-1.89,3.89c-.05.08.08.16.12.08a30.44,30.44,0,0,0,2-3.91,15.13,15.13,0,0,0,.68-2.1A5.41,5.41,0,0,0,153.06,32.62Z"/><path class="cls-1" d="M155.11,33a16.9,16.9,0,0,1-3.78,8.27c-.06.07,0,.18.11.11a18.77,18.77,0,0,0,2.53-4A11.11,11.11,0,0,0,155.24,33C155.24,32.92,155.12,32.9,155.11,33Z"/><path class="cls-1" d="M157.64,34c-1.21,2.76-2,5.67-3.8,8.12-.06.09.08.17.14.08,1.81-2.42,2.75-5.34,3.79-8.14A.07.07,0,0,0,157.64,34Z"/><path class="cls-1" d="M159.6,32.61c-.49,1.54-.79,3.15-1.24,4.71A25.84,25.84,0,0,1,156.55,42c-.05.1.09.18.14.09a25.55,25.55,0,0,0,1.84-4.54,47.62,47.62,0,0,0,1.25-4.87A.09.09,0,0,0,159.6,32.61Z"/><path class="cls-1" d="M162.67,32.43c0-.1-.19-.08-.18,0,.11,2.17-1,4.33-1.85,6.24-.33.71-.68,1.42-1,2.12-.14.29-.28.58-.43.87-.05.11-.26.43-.18.47a.06.06,0,0,0-.06.1h0a.06.06,0,0,0,.06,0c.1,0,.18-.24.24-.32.17-.27.32-.56.47-.84.41-.76.8-1.54,1.17-2.32s.75-1.69,1.1-2.54A7.3,7.3,0,0,0,162.67,32.43Z"/><path class="cls-1" d="M165.54,31.19a.07.07,0,0,0-.14,0,22.63,22.63,0,0,1-1.1,6.2c-.61,1.93-1.48,4.26-3.2,5.49-.06,0,0,.14.06.1,1.73-1.14,2.62-3.36,3.25-5.24A17.89,17.89,0,0,0,165.54,31.19Z"/><path class="cls-1" d="M167.86,31a0,0,0,0,0-.09,0,23.06,23.06,0,0,1-1.22,5.87A32.56,32.56,0,0,1,164,42.35a.07.07,0,1,0,.13.07,30.85,30.85,0,0,0,2.67-5.48A13.21,13.21,0,0,0,167.86,31Z"/><path class="cls-1" d="M170.3,30.45c-1.15,3.6-1.27,7.52-3.25,10.82a.05.05,0,1,0,.09.06c2-3.29,2.25-7.21,3.25-10.85C170.41,30.42,170.32,30.4,170.3,30.45Z"/><path class="cls-1" d="M173,29.35a22.88,22.88,0,0,0-1.77,5,40.8,40.8,0,0,1-1.84,5.5c0,.07.07.13.1.06a40.78,40.78,0,0,0,1.83-5.25c.52-1.78,1.13-3.51,1.79-5.24C173.14,29.33,173,29.29,173,29.35Z"/><path class="cls-1" d="M175.28,27.22a.06.06,0,1,0-.12,0,25.64,25.64,0,0,1-.67,5.58,15,15,0,0,1-2,5.21c-.06.08.07.15.12.08a15.05,15.05,0,0,0,2.11-5.24A20.6,20.6,0,0,0,175.28,27.22Z"/><path class="cls-1" d="M177.13,26.11c-.16.68-.24,1.38-.38,2.06s-.28,1.29-.44,1.93c-.34,1.32-.72,2.62-1,3.95a.12.12,0,0,0,.24.06c.31-1.35.7-2.68,1-4a16.18,16.18,0,0,0,.73-4A.08.08,0,0,0,177.13,26.11Z"/><path class="cls-1" d="M179.51,24.12a19.45,19.45,0,0,0-1.28,4.16,24.58,24.58,0,0,0-.58,4.35c0,.13.19.13.2,0a25.71,25.71,0,0,1,.67-4.35c.31-1.39.76-2.74,1.09-4.12C179.62,24.1,179.53,24.06,179.51,24.12Z"/><path class="cls-1" d="M180.75,25.57c-.38,1.66-.13,3.47-.92,5-.06.11.11.21.17.1.8-1.55.68-3.42.88-5.11C180.89,25.52,180.77,25.5,180.75,25.57Z"/><path class="cls-1" d="M181.31,26.12a4.25,4.25,0,0,0-.19,1.46c0,.07.12.07.11,0a4.92,4.92,0,0,1,.17-1.43A0,0,0,0,0,181.31,26.12Z"/><path class="cls-1" d="M155.31,27.19a2.75,2.75,0,0,0-.14.3c0,.11-.1.21-.14.32s-.19.49-.3.74-.18.42-.28.62-.11.28-.21.34,0,.14.06.11a.69.69,0,0,0,.26-.3,4.68,4.68,0,0,0,.3-.64c.11-.25.22-.5.32-.75l.12-.36a1.93,1.93,0,0,0,.11-.34A.06.06,0,0,0,155.31,27.19Z"/><path class="cls-1" d="M157.94,25.94a.06.06,0,0,0-.12,0,8.67,8.67,0,0,1-.49,2.57,7.82,7.82,0,0,1-.52,1.23c-.12.23-.29.59-.57.65-.09,0-.05.15,0,.13.27-.05.46-.33.6-.55a5.5,5.5,0,0,0,.59-1.28,10.19,10.19,0,0,0,.42-1.53A3,3,0,0,0,157.94,25.94Z"/><path class="cls-1" d="M160.18,24.69c-.18,2-1.09,3.81-1.49,5.75,0,.12.17.18.19,0,.41-1.94,1.42-3.78,1.4-5.8C160.28,24.62,160.19,24.62,160.18,24.69Z"/><path class="cls-1" d="M163.37,24.49a.07.07,0,0,0-.14,0,17.91,17.91,0,0,1-1.12,4.66c0,.14.18.2.21.06.23-.81.53-1.6.76-2.4A5.35,5.35,0,0,0,163.37,24.49Z"/><path class="cls-1" d="M165.41,24.13c-.1.36-.15.74-.22,1.11s-.13.77-.21,1.16c-.14.75-.31,1.5-.51,2.23,0,.13.16.19.19.06.21-.75.38-1.52.53-2.28.07-.37.14-.74.2-1.12a8.87,8.87,0,0,0,.14-1.14A.06.06,0,0,0,165.41,24.13Z"/><path class="cls-1" d="M168.25,24.13c0-.09-.14-.06-.15,0a9.55,9.55,0,0,1-.1,1.19c-.07.37-.15.73-.25,1.08-.2.74-.45,1.46-.58,2.21,0,.14.18.19.21.06a23.33,23.33,0,0,1,.62-2.32,8.88,8.88,0,0,0,.24-1.14A3.13,3.13,0,0,0,168.25,24.13Z"/><path class="cls-1" d="M170.45,24.31a10,10,0,0,0-.55,3.63.09.09,0,0,0,.17,0,6.69,6.69,0,0,1,.13-1.84c.11-.59.28-1.16.39-1.75A.07.07,0,0,0,170.45,24.31Z"/><path class="cls-1" d="M172.58,22.86a.07.07,0,0,0-.14,0,6.73,6.73,0,0,1,.07,1.9,9.86,9.86,0,0,0-.07,1.88c0,.09.15.09.14,0a10.43,10.43,0,0,1,.12-1.94A4.26,4.26,0,0,0,172.58,22.86Z"/><path class="cls-1" d="M175.53,21.68a4.58,4.58,0,0,0-.08-1,.05.05,0,0,0-.1,0,3.57,3.57,0,0,0,0,1l0,1a7.06,7.06,0,0,1-.22,2,.09.09,0,1,0,.18.05,6.93,6.93,0,0,0,.24-2C175.55,22.38,175.54,22,175.53,21.68Z"/><path class="cls-1" d="M177.84,20.36a.09.09,0,1,0-.18,0c-.07.65-.15,1.29-.28,1.94a11.45,11.45,0,0,0-.26,1.85c0,.11.16.1.17,0a11.6,11.6,0,0,1,.32-1.93A6.5,6.5,0,0,0,177.84,20.36Z"/><path class="cls-1" d="M179.44,18.69a.08.08,0,0,0-.13,0,.85.85,0,0,0-.06.45c0,.19,0,.38,0,.57,0,.4,0,.8-.07,1.2a14.91,14.91,0,0,1-.42,2.31.08.08,0,0,0,.16.05,10.43,10.43,0,0,0,.5-2.28,11.89,11.89,0,0,0,.1-1.2v-.57A.94.94,0,0,0,179.44,18.69Z"/><path class="cls-1" d="M180.73,19.07c0-.11-.2-.09-.19,0,0,.75.15,1.48.15,2.23a8.64,8.64,0,0,1-.33,2.26.1.1,0,0,0,.19.05,8.74,8.74,0,0,0,.36-2.27A9.75,9.75,0,0,0,180.73,19.07Z"/><path class="cls-1" d="M182.15,18.89c0-.08-.17-.05-.14,0,.46,1.67-.33,3.35-.19,5,0,.1.17.11.16,0C181.89,22.26,182.8,20.56,182.15,18.89Z"/><path class="cls-1" d="M142.3,15.28a4.12,4.12,0,0,1-.53,1.26c0,.05,0,.1.09.05a3.32,3.32,0,0,0,.55-1.28C142.42,15.25,142.32,15.22,142.3,15.28Z"/><path class="cls-1" d="M144.11,16a7.83,7.83,0,0,0-.49,1,4,4,0,0,1-.58,1c0,.05,0,.14.08.08a3.91,3.91,0,0,0,.6-.95c.08-.17.16-.35.23-.52s.18-.35.26-.53A.06.06,0,0,0,144.11,16Z"/><path class="cls-1" d="M145.93,16.72a25.14,25.14,0,0,0-1.65,3.62c0,.07.09.1.12,0a34,34,0,0,1,1.6-3.6C146,16.72,146,16.67,145.93,16.72Z"/><path class="cls-1" d="M147.37,16c-.2.5-.31,1-.47,1.55s-.27,1-.41,1.44c-.29,1-.6,2-1,3,0,.08.1.12.13,0,.35-1,.67-2,1-3,.14-.48.28-1,.41-1.44s.31-1,.4-1.57A0,0,0,0,0,147.37,16Z"/><path class="cls-1" d="M148.79,16.37a34.64,34.64,0,0,1-.84,4.27,35.66,35.66,0,0,0-1,4.21c0,.1.13.14.14,0a35,35,0,0,1,1-4.27,14.61,14.61,0,0,0,.76-4.24C148.92,16.31,148.8,16.29,148.79,16.37Z"/><path class="cls-1" d="M151,16.16a17.25,17.25,0,0,0-1,4.5,14.86,14.86,0,0,1-1.34,4.72c-.05.07.07.14.11.07a13.51,13.51,0,0,0,1.39-4.51,42,42,0,0,1,1-4.72C151.12,16.14,151,16.08,151,16.16Z"/><path class="cls-1" d="M152.33,15.12a0,0,0,1,0-.09,0c-.16,1.51-.15,3-.35,4.56a30.32,30.32,0,0,1-1,4.62.09.09,0,0,0,.18.05,29.76,29.76,0,0,0,1-4.5A20.85,20.85,0,0,0,152.33,15.12Z"/><path class="cls-1" d="M154.52,13.48a.07.07,0,0,0-.13,0,20.26,20.26,0,0,0-.08,2.34c0,1-.11,1.91-.23,2.86a12.64,12.64,0,0,1-1.48,5.26c0,.06.06.12.1.06a12,12,0,0,0,1.54-5c.14-1,.22-2,.27-2.95A12.08,12.08,0,0,0,154.52,13.48Z"/><path class="cls-1" d="M156.15,11.35a.07.07,0,0,0-.14,0c-1.24,3.61.13,7.53-.9,11.19,0,.09.11.12.13,0C156.31,18.88,155.12,15,156.15,11.35Z"/><path class="cls-1" d="M158.16,14.69c0-1.83,0-3.71-.21-5.53a.07.07,0,0,0-.13,0,47.42,47.42,0,0,0,.11,5.33,27.93,27.93,0,0,1-.32,5.48c0,.12.17.18.19.05A27.15,27.15,0,0,0,158.16,14.69Z"/><path class="cls-1" d="M159.76,7.16c0-.09-.15,0-.14,0a24,24,0,0,1,0,8.45c0,.11.16.17.18,0A20,20,0,0,0,159.76,7.16Z"/><path class="cls-1" d="M161.23,8.86a11.76,11.76,0,0,0-.58-4,.06.06,0,0,0-.12,0c.1.72.27,1.42.35,2.15s.12,1.34.14,2c0,1.38,0,2.76,0,4.13a.07.07,0,1,0,.13,0C161.23,11.71,161.28,10.28,161.23,8.86Z"/><path class="cls-1" d="M141.57,11.85a4.83,4.83,0,0,1-.22.64,3.51,3.51,0,0,1-.33.6c-.06.09.08.17.14.08a4.77,4.77,0,0,0,.34-.63,2.54,2.54,0,0,0,.19-.65C141.7,11.81,141.6,11.77,141.57,11.85Z"/><path class="cls-1" d="M143.22,12c-.11.27-.24.54-.36.81s-.24.54-.37.81c0,.06.06.11.09,0q.21-.4.39-.81c.12-.27.23-.55.33-.83C143.31,12,143.24,12,143.22,12Z"/><path class="cls-1" d="M89.39,29.35c-.29.42-.57.85-.89,1.25,0,.07,0,.16.09.09a8.66,8.66,0,0,0,.91-1.27A.07.07,0,1,0,89.39,29.35Z"/><path class="cls-1" d="M90.85,29c-.55.9-.59,2-1.26,2.88,0,.05,0,.11.07.07a13.68,13.68,0,0,0,1.28-2.9C91,29,90.88,28.93,90.85,29Z"/><path class="cls-1" d="M92.29,29.37c-.08.3-.1.62-.16.93a9.81,9.81,0,0,1-.26,1.07,3.28,3.28,0,0,1-1,1.77s0,.1,0,.07a3.31,3.31,0,0,0,1-1.68,11.43,11.43,0,0,0,.3-1.15,4.21,4.21,0,0,0,.12-1A0,0,0,0,0,92.29,29.37Z"/><path class="cls-1" d="M93.66,29c0-.07-.1-.06-.12,0a3.81,3.81,0,0,0-.07.59c0,.22-.07.44-.11.65-.09.44-.19.87-.32,1.3-.23.84-.5,1.68-.75,2.52,0,0,.07.07.09,0,.28-.86.6-1.71.84-2.58.12-.43.23-.86.31-1.3A3.49,3.49,0,0,0,93.66,29Z"/><path class="cls-1" d="M95.18,29.36a3.49,3.49,0,0,0-.38,1.35c-.1.58-.17,1.17-.24,1.76a13.4,13.4,0,0,1-.83,3.75c0,.06.07.12.1.06a13.05,13.05,0,0,0,.85-3.59c.09-.62.17-1.23.27-1.84s.26-1,.33-1.47C95.28,29.33,95.21,29.32,95.18,29.36Z"/><path class="cls-1" d="M97.12,29.17v0c0-.09-.14-.07-.16,0a8.58,8.58,0,0,0-.24,1.76c-.07.66-.12,1.33-.2,2a12.22,12.22,0,0,1-1,4c0,.08.08.15.11.07,1.13-2.31,1-4.92,1.41-7.4,0,0,0,0,0,0a1.81,1.81,0,0,0,0-.4Z"/><path class="cls-1" d="M98.37,27c0-.08-.19,0-.16.07a10.6,10.6,0,0,1,.21,5.13c-.23,1.66-.62,3.29-.92,4.94,0,.09.13.13.14,0,.34-1.77.77-3.52,1-5.3A9.18,9.18,0,0,0,98.37,27Z"/><path class="cls-1" d="M100.29,30c-.1-2.08-.58-4.12-.67-6.21,0-.07-.11-.09-.12,0-.31,2,.45,4.12.58,6.12.14,2.24,0,4.48-.06,6.72a.08.08,0,0,0,.16,0C100.2,34.41,100.4,32.21,100.29,30Z"/><path class="cls-1" d="M102,28.12a28,28,0,0,0-1.51-5.79.06.06,0,0,0-.11,0,53.91,53.91,0,0,1,1.4,5.6,34.82,34.82,0,0,1,.55,5.94.09.09,0,0,0,.17,0A36.08,36.08,0,0,0,102,28.12Z"/><path class="cls-1" d="M103.74,26.09c-.44-1.75-1.07-3.44-1.4-5.21,0-.09-.16-.07-.15,0,.39,3.32,2.63,6.68,1.63,10.09,0,.09.12.13.15,0A9.23,9.23,0,0,0,103.74,26.09Z"/><path class="cls-1" d="M104,19.59c0-.07-.17,0-.14.06.44,1.27.84,2.55,1.17,3.85s.61,2.63,1,3.92c0,.13.22.07.19-.05C105.44,24.8,105.09,22,104,19.59Z"/><path class="cls-1" d="M100.23,17.62a4.2,4.2,0,0,0-.27,1.07,8.47,8.47,0,0,0-.1,1.12.06.06,0,1,0,.12,0,8.34,8.34,0,0,1,.11-1.11c.06-.35.16-.69.25-1C100.35,17.6,100.26,17.56,100.23,17.62Z"/><path class="cls-1" d="M102,17.3c0-.08-.1-.11-.13,0a3.51,3.51,0,0,0-.21,1.64c0,.12.21.12.19,0A4.19,4.19,0,0,1,102,17.3Z"/><path class="cls-1" d="M104.57,13.12c-.06.18-.1.39-.15.57s-.09.4-.14.6a4,4,0,0,0-.09,1.19c0,.08.14.08.13,0a4.12,4.12,0,0,1,.12-1.21c0-.19.1-.38.14-.58a2.61,2.61,0,0,0,.08-.56C104.66,13.08,104.59,13.08,104.57,13.12Z"/><path class="cls-1" d="M105.81,14c-.13.66-.2,1.33-.33,2s-.27,1.32-.39,2c0,.08.11.12.13,0,.13-.68.29-1.35.43-2a10.1,10.1,0,0,0,.31-2C106,14,105.82,13.93,105.81,14Z"/><path class="cls-1" d="M107.58,13.67c0-.09-.15-.09-.15,0,0,2.43-.87,4.8-.71,7.23,0,.07.12.07.12,0C106.71,18.46,107.72,16.11,107.58,13.67Z"/><path class="cls-1" d="M109.18,14a.06.06,0,0,0-.1,0A9.62,9.62,0,0,0,109,16.1c0,.78-.1,1.55-.17,2.33-.15,1.66-.34,3.33-.62,5,0,.06.08.09.09,0,.31-1.61.55-3.23.7-4.85.08-.83.14-1.66.19-2.49A6.91,6.91,0,0,0,109.18,14Z"/><path class="cls-1" d="M111.18,12.94c0-.08-.12-.06-.13,0,0,1.57.24,3.15.27,4.71a10.49,10.49,0,0,1-.81,4.83c0,.08.09.15.13.07a10.5,10.5,0,0,0,.88-4.66A35.74,35.74,0,0,0,111.18,12.94Z"/><path class="cls-1" d="M113.15,11.66c0-.07-.12,0-.1,0a27,27,0,0,1,.68,4.65A10.85,10.85,0,0,1,113,21c0,.09.09.17.13.08a10.64,10.64,0,0,0,.77-4.7A13,13,0,0,0,113.15,11.66Z"/><path class="cls-1" d="M114.86,14.33c-.26-1.49-.56-3-.79-4.46,0-.08-.12,0-.13,0a18.6,18.6,0,0,0,.64,4.12,10.29,10.29,0,0,1,0,4.52.1.1,0,0,0,.2.06A10,10,0,0,0,114.86,14.33Z"/><path class="cls-1" d="M115.33,8.78c0-.08-.13,0-.12,0a41.44,41.44,0,0,1,.33,6.3.1.1,0,0,0,.19,0A26.36,26.36,0,0,0,115.33,8.78Z"/><path class="cls-1" d="M116.8,9.6a19.08,19.08,0,0,0-.4-2.26c0-.06-.09,0-.1,0a10.12,10.12,0,0,0,.29,2.19,18,18,0,0,1,.25,2.33c0,.07.1.07.11,0A9.13,9.13,0,0,0,116.8,9.6Z"/><path class="cls-1" d="M120.1,11.86c-.14.91-.4,1.79-.55,2.7,0,.07.1.11.11,0,.17-.91.45-1.8.54-2.72C120.2,11.81,120.1,11.8,120.1,11.86Z"/><path class="cls-1" d="M121.53,11.67a10.93,10.93,0,0,0-.24,1.27l-.24,1.34a13.37,13.37,0,0,1-.78,2.62c0,.06.07.12.11.05a12.92,12.92,0,0,0,.79-2.59c.1-.46.18-.92.26-1.38s.18-.86.22-1.29C121.66,11.62,121.55,11.61,121.53,11.67Z"/><path class="cls-1" d="M123.52,11.31a15.35,15.35,0,0,0-.37,1.79c-.1.59-.2,1.18-.32,1.77a19.87,19.87,0,0,1-.94,3.48c0,.08.09.11.12,0a20.81,20.81,0,0,0,1-3.53,33.06,33.06,0,0,0,.63-3.53C123.64,11.26,123.54,11.26,123.52,11.31Z"/><path class="cls-1" d="M124.9,11.49c0-.05-.11-.05-.12,0-.1.61-.08,1.25-.12,1.87s-.11,1.32-.19,2c-.17,1.36-.4,2.72-.62,4.08,0,.11.15.16.17.05.22-1.33.45-2.65.62-4,.09-.66.16-1.33.22-2A9.75,9.75,0,0,0,124.9,11.49Z"/><path class="cls-1" d="M126.9,12.41a.07.07,0,0,0-.14,0c0,1,0,2.08-.15,3.11a4.21,4.21,0,0,1-1.08,2.82s0,.1.06.07c.84-.54,1-1.77,1.18-2.67A14.84,14.84,0,0,0,126.9,12.41Z"/><path class="cls-1" d="M128.76,15.63a6.08,6.08,0,0,0-.36,1.17c-.11.41-.21.82-.31,1.23-.2.83-.39,1.66-.59,2.49a.05.05,0,1,0,.1,0c.22-.82.43-1.65.65-2.47.1-.41.21-.82.32-1.23a8,8,0,0,0,.3-1.19C128.88,15.6,128.79,15.58,128.76,15.63Z"/><path class="cls-1" d="M130.55,14.58a17.94,17.94,0,0,1-.6,3.32,13.62,13.62,0,0,1-1.19,3.15c0,.07.07.13.11.06A13.84,13.84,0,0,0,130.11,18a12.53,12.53,0,0,0,.57-3.37A.07.07,0,1,0,130.55,14.58Z"/><path class="cls-1" d="M132.56,14.73a4.94,4.94,0,0,0-.35,1.62c-.09.66-.15,1.33-.24,2a7.72,7.72,0,0,1-1.24,3.61c-.07.09.08.17.14.08a7.76,7.76,0,0,0,1.27-3.52c.09-.61.15-1.21.23-1.81,0-.36.09-.72.15-1.07a6.17,6.17,0,0,0,.14-.86C132.66,14.7,132.58,14.68,132.56,14.73Z"/><path class="cls-1" d="M134,14.74c-.55,2.58-.29,5.27-1.3,7.76,0,.1.13.14.17,0,1-2.44,1-5.19,1.23-7.78C134.11,14.7,134,14.69,134,14.74Z"/><path class="cls-1" d="M135.6,14.94a20.38,20.38,0,0,1-1.27,7.18c-.05.1.11.19.16.09a14.16,14.16,0,0,0,1-3.56,20.92,20.92,0,0,0,.27-3.71A.07.07,0,0,0,135.6,14.94Z"/><path class="cls-1" d="M137.78,16.32a2.66,2.66,0,0,0-.42,1.16,14.11,14.11,0,0,0-.22,1.57c-.11,1.09-.14,2.18-.31,3.26,0,.14.19.2.21.06.16-1,.2-2,.3-3.06,0-.54.11-1.08.21-1.62s.27-.85.37-1.28C137.94,16.33,137.84,16.26,137.78,16.32Z"/><path class="cls-1" d="M139.33,16.2a0,0,0,1,0-.09,0c-.11,1-.11,1.94-.19,2.9s-.16,1.92-.22,2.88a.1.1,0,0,0,.19,0c0-1,.14-1.92.22-2.88A15.63,15.63,0,0,0,139.33,16.2Z"/><path class="cls-1" d="M141.15,17.48c0-.05-.06-.1-.1-.05a2.92,2.92,0,0,0-.46,1.71c0,.64,0,1.29,0,1.94a.11.11,0,0,0,.22,0c0-.61-.05-1.21,0-1.82a5.63,5.63,0,0,1,.1-.91C141,18.05,141.07,17.77,141.15,17.48Z"/><path class="cls-1" d="M117.64,16.37s0,0,0,0a4.59,4.59,0,0,1-.18,1.52,9.45,9.45,0,0,1-.81,1.81c-.59,1.08-1.29,2.09-1.92,3.15,0,.05.06.11.09.05.68-1.13,1.44-2.21,2.06-3.37a8.79,8.79,0,0,0,.75-1.76A2.14,2.14,0,0,0,117.64,16.37Z"/><path class="cls-1" d="M118.83,18.54c-.25.62-.4,1.28-.67,1.9s-.57,1.18-.88,1.75a37,37,0,0,0-1.72,3.38c0,.09.1.12.14,0a38.29,38.29,0,0,1,1.86-3.6,17.84,17.84,0,0,0,.85-1.76,5.16,5.16,0,0,0,.52-1.7C118.94,18.49,118.85,18.49,118.83,18.54Z"/><path class="cls-1" d="M119.92,20.88c-.21.64-.37,1.29-.6,1.92s-.57,1.41-.9,2.1c-.61,1.26-1.3,2.49-2,3.72a.09.09,0,0,0,.15.08c.69-1.29,1.42-2.57,2-3.9A13.31,13.31,0,0,0,120,20.9C120,20.84,119.93,20.83,119.92,20.88Z"/><path class="cls-1" d="M121.38,22.7c-.51,1.49-.89,3-1.47,4.5a21.31,21.31,0,0,1-2.17,4.32c0,.07.07.14.12.07A21,21,0,0,0,120,27.31a19.66,19.66,0,0,0,1.41-4.61S121.39,22.67,121.38,22.7Z"/><path class="cls-1" d="M123.35,23.23c-.55,3.54-2.54,6.56-3.65,9.92,0,.11.13.16.17.05,1.1-3.33,3.26-6.39,3.57-10C123.44,23.2,123.36,23.18,123.35,23.23Z"/><path class="cls-1" d="M124.79,24.12a9.59,9.59,0,0,0-.58,2c-.19.8-.37,1.6-.57,2.4a18.33,18.33,0,0,1-1.76,4.8c0,.08.09.16.14.08a18.69,18.69,0,0,0,1.74-4.62c.2-.81.39-1.61.58-2.42a20.8,20.8,0,0,0,.55-2.2C124.9,24.11,124.82,24.06,124.79,24.12Z"/><path class="cls-1" d="M127.06,23.43c0-.07-.1-.07-.1,0a22.49,22.49,0,0,1-1.1,5.68c-.58,1.8-1.31,3.55-2,5.31,0,.09.12.14.15,0,.73-1.81,1.51-3.61,2.11-5.48A14.67,14.67,0,0,0,127.06,23.43Z"/><path class="cls-1" d="M128.92,24.67c-.36,1.39-.59,2.83-.9,4.24s-.63,2.82-.93,4.24c0,.12.17.18.19.05.3-1.44.63-2.88.95-4.32s.67-2.78.84-4.19C129.08,24.61,128.94,24.59,128.92,24.67Z"/><path class="cls-1" d="M130.91,25.39c-.26,1.54-.24,3.13-.46,4.67a12.27,12.27,0,0,1-1.35,4.52c-.06.09.09.18.15.08a12.26,12.26,0,0,0,1.38-4.47,28.49,28.49,0,0,0,.42-4.78C131.05,25.33,130.92,25.31,130.91,25.39Z"/><path class="cls-1" d="M132.84,25.23a.06.06,0,0,0-.11,0c-.12,1.63-.33,3.24-.59,4.86a30.07,30.07,0,0,0-.52,4.53.09.09,0,0,0,.17,0,34.11,34.11,0,0,1,.59-4.82A20.09,20.09,0,0,0,132.84,25.23Z"/><path class="cls-1" d="M134.46,24.69a.05.05,0,1,0-.1,0c-.14,2.88.43,5.87-.74,8.62-.05.1.1.19.14.09a11.43,11.43,0,0,0,.78-4.17C134.59,27.72,134.54,26.2,134.46,24.69Z"/><path class="cls-1" d="M136.26,24.48a.05.05,0,0,0-.1,0,12,12,0,0,1,.2,4.5,17.27,17.27,0,0,1-1.12,4.65c-.05.11.1.2.15.09a17.47,17.47,0,0,0,1.16-4.67,15.76,15.76,0,0,0,.14-2.66A4.21,4.21,0,0,0,136.26,24.48Z"/><path class="cls-1" d="M138.42,28.61c0-.62-.13-1.24-.2-1.86s-.05-1.15-.13-1.72c0-.07-.12-.06-.14,0A5.51,5.51,0,0,0,138,26.6c.06.6.14,1.19.2,1.79a6,6,0,0,1-.45,3.47.1.1,0,0,0,.18.1A5.82,5.82,0,0,0,138.42,28.61Z"/><path class="cls-1" d="M140.23,25.76a0,0,0,0,0-.08,0,3.62,3.62,0,0,0-.13,1l-.09,1.06c-.07.71-.14,1.42-.22,2.13,0,.14.22.14.23,0,.07-.71.14-1.42.2-2.13l.09-1.06A3.57,3.57,0,0,0,140.23,25.76Z"/><path class="cls-1" d="M142.12,27c-.07.23-.1.47-.15.71s-.09.43-.13.65a7,7,0,0,0-.12,1.37.1.1,0,0,0,.19,0,7.18,7.18,0,0,1,.12-1.39c0-.23.07-.45.11-.67a3.51,3.51,0,0,0,.09-.65A.06.06,0,0,0,142.12,27Z"/><path class="cls-1" d="M106,31.53a4.93,4.93,0,0,0-.19,1.43c0,.37,0,.74,0,1.12a.06.06,0,0,0,.12,0c0-.36,0-.73,0-1.09a6.12,6.12,0,0,1,.16-1.42A.06.06,0,0,0,106,31.53Z"/><path class="cls-1" d="M107.91,28.1a0,0,0,0,0-.09,0,12.08,12.08,0,0,1-.36,6.84c0,.06.07.09.09,0a11.34,11.34,0,0,0,.74-3.49A6.92,6.92,0,0,0,107.91,28.1Z"/><path class="cls-1" d="M109.57,25.75c0-.09-.17-.07-.16,0,.26,2.72.73,5.63-.18,8.29,0,.1.13.14.16,0A12.57,12.57,0,0,0,110,30,19.91,19.91,0,0,0,109.57,25.75Z"/><path class="cls-1" d="M111.53,24c0-.06-.11-.05-.11,0,.16,1.5.33,3,.37,4.5a34.37,34.37,0,0,1-.23,4.53c0,.12.18.12.19,0A28,28,0,0,0,111.53,24Z"/><path class="cls-1" d="M114.12,28.45A10.79,10.79,0,0,0,113,24.82c0-.08-.2,0-.17.07a19.62,19.62,0,0,1,1,3.35,6.08,6.08,0,0,1-.28,3.63c0,.1.1.19.15.09A5.87,5.87,0,0,0,114.12,28.45Z"/><path class="cls-1" d="M97.26,40.17a1.54,1.54,0,0,1,.35-.64c0-.05,0-.11-.07-.07a1.56,1.56,0,0,0-.38,1.5c0,.07.13,0,.11,0A1.58,1.58,0,0,1,97.26,40.17Z"/><path class="cls-1" d="M99,39.3a3.42,3.42,0,0,0-.26.84c-.08.31-.15.62-.23.93a10.92,10.92,0,0,1-.61,1.83c0,.06.07.12.1.06a10.5,10.5,0,0,0,.61-1.79c.09-.31.16-.62.24-.93a5.16,5.16,0,0,0,.23-.92A0,0,0,0,0,99,39.3Z"/><path class="cls-1" d="M100.94,39.12c-.55,1.47-.68,3.05-1.26,4.51,0,.07.09.1.12,0,.59-1.45.77-3,1.26-4.51C101.09,39.07,101,39,100.94,39.12Z"/><path class="cls-1" d="M103.05,37c0-.07-.11-.07-.11,0a23.66,23.66,0,0,1-.52,3.83,25.32,25.32,0,0,0-.59,3.57c0,.1.14.09.15,0a26.93,26.93,0,0,1,.66-3.78A12,12,0,0,0,103.05,37Z"/><path class="cls-1" d="M104.84,37.33a0,0,0,0,0-.09,0c-.09,1.24-.2,2.47-.34,3.71a25.4,25.4,0,0,0-.23,3.69.07.07,0,0,0,.15,0,24,24,0,0,1,.24-3.69A21,21,0,0,0,104.84,37.33Z"/><path class="cls-1" d="M107.28,37.86a28.2,28.2,0,0,0-.58,5.43c0,.11.16.11.17,0a37.65,37.65,0,0,1,.5-5.41A0,0,0,1,0,107.28,37.86Z"/><path class="cls-1" d="M110,36.78a17.79,17.79,0,0,0-.93,6c0,.09.15.09.14,0a20.31,20.31,0,0,1,.87-6C110.09,36.74,110,36.72,110,36.78Z"/><path class="cls-1" d="M111.88,36.07c0-.06-.08-.06-.09,0-.07,2.17.18,4.39-.56,6.48,0,.08.1.11.13,0A17.19,17.19,0,0,0,111.88,36.07Z"/><path class="cls-1" d="M113.87,35.34a0,0,0,1,0-.09,0c0,1,0,2,0,3s-.09,2-.19,3c0,.13.18.13.19,0A29,29,0,0,0,113.87,35.34Z"/><path class="cls-1" d="M115.58,35.69a9.86,9.86,0,0,0-.08-1.44.05.05,0,0,0-.1,0,7.26,7.26,0,0,0,0,1.32c0,.52,0,1,0,1.57a6.28,6.28,0,0,1-.36,2.69c0,.06,0,.1.08.05a5.38,5.38,0,0,0,.47-2.57C115.61,36.77,115.6,36.23,115.58,35.69Z"/><path class="cls-1" d="M117.34,36.25a.09.09,0,0,0-.17,0c0,.53,0,1.08,0,1.62V39.5a.11.11,0,0,0,.21,0V37.87C117.36,37.33,117.39,36.78,117.34,36.25Z"/><path class="cls-1" d="M118,72.89a4.43,4.43,0,0,0-.43.69,7.19,7.19,0,0,0-.32.76s.06.07.07,0a6.26,6.26,0,0,1,.32-.75c.12-.24.25-.47.38-.7C118,72.89,118,72.87,118,72.89Z"/><path class="cls-1" d="M119,73.25a19.59,19.59,0,0,1-.91,4.15c0,.07.09.11.12,0a14.53,14.53,0,0,0,.9-4.17A.06.06,0,0,0,119,73.25Z"/><path class="cls-1" d="M120.82,74.88c-.52,2.06-1.35,4.16-1.27,6.33,0,.06.11.06.1,0-.07-2.17.8-4.23,1.26-6.31C120.93,74.84,120.84,74.82,120.82,74.88Z"/><path class="cls-1" d="M122.09,79.93a6.24,6.24,0,0,0-.4,1.64c0,.1.15.1.16,0a5.91,5.91,0,0,1,.33-1.61C122.2,79.9,122.11,79.88,122.09,79.93Z"/><path class="cls-1" d="M124,74.88a0,0,0,0,0-.07,0c0,1.06,0,2.1-.16,3.16a29.7,29.7,0,0,1-.58,3.5.06.06,0,1,0,.11,0,29.11,29.11,0,0,0,.61-3.48c.07-.6.13-1.19.16-1.78A5.34,5.34,0,0,0,124,74.88Z"/><path class="cls-1" d="M122.46,75.42c-.17,1.15-.38,2.28-.55,3.43,0,.05.07.07.08,0,.17-1.15.43-2.28.53-3.44C122.53,75.39,122.47,75.38,122.46,75.42Z"/><path class="cls-1" d="M125.88,73.43c-.42,2.95-.16,6-1.1,8.84a.06.06,0,0,0,.12,0,18.51,18.51,0,0,0,.79-4.31c.14-1.51.22-3,.28-4.56C126,73.4,125.89,73.38,125.88,73.43Z"/><path class="cls-1" d="M128.2,72.18c-.07,3.5-.62,7-.57,10.47,0,.12.2.12.19,0-.06-3.5.57-7,.52-10.47A.07.07,0,0,0,128.2,72.18Z"/><path class="cls-1" d="M130.51,71.64a.07.07,0,0,0-.14,0c-.12,1.83,0,3.68-.06,5.52a29.75,29.75,0,0,1-.66,5.65c0,.09.11.13.13,0a30.55,30.55,0,0,0,.7-5.48A54.76,54.76,0,0,0,130.51,71.64Z"/><path class="cls-1" d="M132.28,69.81c0-.06-.1,0-.08,0A12.77,12.77,0,0,1,133,75.8a33.89,33.89,0,0,1-.84,5.93c0,.09.12.13.14,0a33.52,33.52,0,0,0,.87-6.14A11,11,0,0,0,132.28,69.81Z"/><path class="cls-1" d="M136.35,74a28.87,28.87,0,0,0-1-6.53c0-.09-.15,0-.14,0a54,54,0,0,1,.89,6.32c.12,2.08.09,4.45-1,6.27a.06.06,0,1,0,.1.06C136.33,78.37,136.42,76,136.35,74Z"/><path class="cls-1" d="M138.88,71.65a12.84,12.84,0,0,0-.39-2.75,3.32,3.32,0,0,0-1-1.83s-.11,0-.08.08a9.32,9.32,0,0,1,1.26,4.91c.08,1.79,0,3.57,0,5.36a.1.1,0,0,0,.19,0C138.85,75.49,139,73.57,138.88,71.65Z"/><path class="cls-1" d="M140.07,66.56c0-.09-.14,0-.13,0,.48,3.57,1.57,7,1.6,10.64a.1.1,0,0,0,.19,0C141.71,73.62,140.79,70.08,140.07,66.56Z"/><path class="cls-1" d="M144.42,69.78c-.24-.93-.53-1.85-.84-2.76a15.48,15.48,0,0,0-1-2.63s-.1,0-.09,0a22.91,22.91,0,0,0,.89,2.65c.3.88.58,1.77.82,2.67a23.15,23.15,0,0,1,.78,5.68.08.08,0,0,0,.16,0A22.91,22.91,0,0,0,144.42,69.78Z"/><path class="cls-1" d="M147.47,71.42c-.88-1.88-.79-4-1.27-6a15,15,0,0,0-2.53-5.74c0-.07-.16,0-.11.09A16.22,16.22,0,0,1,146,65.89c.35,1.81.22,4,1.31,5.6A.07.07,0,1,0,147.47,71.42Z"/><path class="cls-1" d="M149.15,66.44a24.57,24.57,0,0,0-.72-2.4A45.84,45.84,0,0,1,147,59.33c0-.12-.21-.07-.19.05A46.91,46.91,0,0,0,148.2,64c.26.76.51,1.53.7,2.32s.27,1.62.45,2.42c0,.06.09,0,.09,0A7.52,7.52,0,0,0,149.15,66.44Z"/><path class="cls-1" d="M150.84,62.09a20.21,20.21,0,0,1-.82-2.75c0-.11-.19-.07-.17,0a21.7,21.7,0,0,0,.8,2.72c.31.89.57,1.79.87,2.69,0,0,.1,0,.09,0A12.7,12.7,0,0,0,150.84,62.09Z"/><path class="cls-1" d="M153,60.76c-.09-.29-.18-.59-.26-.88a.09.09,0,1,0-.18,0c.08.29.17.59.26.88s.22.61.33.91a0,0,0,1,0,.08,0C153.15,61.38,153.09,61.07,153,60.76Z"/><path class="cls-1" d="M154.71,58.05a.09.09,0,0,0-.15.09,6.53,6.53,0,0,1,.73,2c0,.08.15.06.14,0A5.49,5.49,0,0,0,154.71,58.05Z"/><path class="cls-1" d="M135.77,59.87c-.06-.13-.13-.26-.2-.39s-.28-.51-.44-.76a8.81,8.81,0,0,0-1-1.38s-.09,0-.07,0c.34.46.68.92,1,1.41.14.24.28.48.41.72l.2.39a1.72,1.72,0,0,0,.2.38.07.07,0,0,0,.12,0A2.39,2.39,0,0,0,135.77,59.87Z"/><path class="cls-1" d="M137.15,59A19.5,19.5,0,0,0,135,55.69c-.07-.08-.18,0-.12.11A18.23,18.23,0,0,1,137,59.2a33.17,33.17,0,0,0,1.84,3.43.05.05,0,1,0,.09-.05C138.38,61.38,137.77,60.18,137.15,59Z"/><path class="cls-1" d="M139.48,58a15.13,15.13,0,0,0-2.68-3.18.06.06,0,1,0-.08.09A15.5,15.5,0,0,1,139.28,58a13.41,13.41,0,0,1,1.56,3.7c0,.07.15.06.14,0A8.68,8.68,0,0,0,139.48,58Z"/><path class="cls-1" d="M138.61,51.7c-.09-.06-.18.08-.09.15,2.29,1.65,2.83,4.65,4.7,6.64a.05.05,0,0,0,.08-.06C141.66,56.27,140.91,53.32,138.61,51.7Z"/><path class="cls-1" d="M143.43,53.21a35,35,0,0,0-3.18-3.48.08.08,0,0,0-.12.12,34.13,34.13,0,0,1,3.07,3.4A36.74,36.74,0,0,1,145.73,57c0,.08.15,0,.11-.06A17.13,17.13,0,0,0,143.43,53.21Z"/><path class="cls-1" d="M145.8,52.6a30.38,30.38,0,0,0-3.2-3.6c-.08-.08-.21,0-.13.13,2.14,2.15,4.5,4.62,5.05,7.72,0,.08.15.06.14,0A8.69,8.69,0,0,0,145.8,52.6Z"/><path class="cls-1" d="M147.7,51.23a26.36,26.36,0,0,0-2.21-2.95c-.08-.08-.2,0-.13.13a25.22,25.22,0,0,1,2.2,3c.66,1,1.19,2.09,1.77,3.15a.08.08,0,0,0,.14-.06A17.48,17.48,0,0,0,147.7,51.23Z"/><path class="cls-1" d="M148.75,47.94c-.06-.1-.22,0-.15.09.53.81,1,1.64,1.52,2.49s.92,1.7,1.4,2.54c0,0,.12,0,.09,0A31,31,0,0,0,148.75,47.94Z"/><path class="cls-1" d="M153.38,50.59c-.14-.23-.28-.46-.43-.69a12.2,12.2,0,0,1-.76-1.43c-.05-.12-.22,0-.17.11a11,11,0,0,0,.77,1.44c.14.23.29.44.45.66a5.11,5.11,0,0,0,.45.59.05.05,0,0,0,.09-.06C153.66,51,153.51,50.8,153.38,50.59Z"/><path class="cls-1" d="M132.53,45.13l-.57-.69c-.37-.44-.75-.9-1.09-1.37-.06-.09-.21,0-.14.08.33.47.69.92,1.05,1.37l.55.66.3.34a1.57,1.57,0,0,0,.3.33.05.05,0,0,0,.08-.06A3.48,3.48,0,0,0,132.53,45.13Z"/><path class="cls-1" d="M134.53,44.75l-.61-1.1a6.1,6.1,0,0,0-1.41-1.82,1,1,0,0,0-.82-.21,0,0,0,0,0,0,.09c.62-.08,1.12.6,1.43,1,.46.66.82,1.37,1.21,2.06a3.19,3.19,0,0,0,.57.87c.05,0,.13,0,.1-.08C134.88,45.31,134.69,45,134.53,44.75Z"/><path class="cls-1" d="M136.64,44.88a19.76,19.76,0,0,0-1.47-2.25c-.52-.72-1.06-1.41-1.61-2.1-.06-.07-.16,0-.1.1.55.7,1.1,1.41,1.62,2.14s1,1.45,1.44,2.18A.07.07,0,0,0,136.64,44.88Z"/><path class="cls-1" d="M135.36,40c-.06-.07-.17,0-.1.1a18.23,18.23,0,0,1,2.9,3.76,0,0,0,1,0,.08,0A14.33,14.33,0,0,0,135.36,40Z"/><path class="cls-1" d="M138.62,40c-.05-.07-.16,0-.11.06a5.71,5.71,0,0,1,.91,1.79c0,.06.1,0,.09,0A5.15,5.15,0,0,0,138.62,40Z"/><path class="cls-1" d="M140.09,38.91c-.07-.1-.23,0-.16.09l1.67,2.5a0,0,0,0,0,.07,0C141.16,40.6,140.65,39.74,140.09,38.91Z"/><path class="cls-1" d="M87.43,75.23c-.49.71-.48,1.61-.92,2.34,0,.06.06.11.09.05.43-.73.45-1.62.89-2.35C87.52,75.23,87.46,75.19,87.43,75.23Z"/><path class="cls-1" d="M89.22,75.6c-.24.6-.32,1.26-.51,1.88a3.62,3.62,0,0,1-.92,1.71c-.05,0,0,.1.07.06a3.59,3.59,0,0,0,.94-1.64,12.36,12.36,0,0,0,.51-2A0,0,0,1,0,89.22,75.6Z"/><path class="cls-1" d="M91.12,74.51a0,0,0,0,0-.09,0c-.08.55-.1,1.11-.2,1.66a12.7,12.7,0,0,1-.4,1.7,24.23,24.23,0,0,1-1.23,3.3c0,.09.09.16.13.07a26.24,26.24,0,0,0,1.27-3.33,15.68,15.68,0,0,0,.42-1.8A5.06,5.06,0,0,0,91.12,74.51Z"/><path class="cls-1" d="M92.93,74.33c0-.07-.1,0-.11,0-.06.57-.06,1.14-.14,1.71s-.21,1.22-.36,1.82c-.27,1.11-.61,2.21-1,3.31,0,.1.13.14.16,0,.38-1.15.74-2.3,1-3.47.14-.59.25-1.18.34-1.77A5.78,5.78,0,0,0,92.93,74.33Z"/><path class="cls-1" d="M95.3,74.33c0-.09-.14-.06-.15,0-.07.56,0,1.14-.08,1.7s-.12,1.21-.22,1.8a26.9,26.9,0,0,1-.8,3.33c0,.12.15.17.19,0a26.47,26.47,0,0,0,.83-3.52c.08-.55.15-1.1.2-1.66A8.24,8.24,0,0,0,95.3,74.33Z"/><path class="cls-1" d="M97.64,74.51c0-.06-.12-.06-.13,0a12.19,12.19,0,0,0-.12,1.82c-.06.67-.13,1.34-.2,2a32.44,32.44,0,0,0-.25,3.94.1.1,0,0,0,.19,0,34.61,34.61,0,0,1,.27-3.94c.07-.65.14-1.3.19-1.95A7,7,0,0,0,97.64,74.51Z"/><path class="cls-1" d="M99.48,74.5a8.44,8.44,0,0,0-.39,2.12C99,77.38,99,78.14,99,78.9c0,1.55,0,3.1,0,4.66,0,.09.14.09.14,0,.07-1.5,0-3,.06-4.5,0-.77,0-1.53.12-2.29s.25-1.48.37-2.22A.08.08,0,0,0,99.48,74.5Z"/><path class="cls-1" d="M102.51,75.07a.06.06,0,1,0-.12,0c-.14,1.4,0,2.84-.06,4.25s-.07,2.82-.15,4.24c0,.1.17.1.17,0,.08-1.42.13-2.83.16-4.24A37.66,37.66,0,0,0,102.51,75.07Z"/><path class="cls-1" d="M105.06,80.07a6.91,6.91,0,0,1-.49-1.9q0-.48-.06-1a6.61,6.61,0,0,0,0-.89c0-.06-.1,0-.11,0a2.88,2.88,0,0,0-.07.93,7.42,7.42,0,0,0,.08,1,6.54,6.54,0,0,0,.5,1.88C104.94,80.3,105.12,80.19,105.06,80.07Z"/><path class="cls-1" d="M106.83,76.86s-.11,0-.09,0a9.08,9.08,0,0,1,.15,2.33.07.07,0,0,0,.15,0A6.25,6.25,0,0,0,106.83,76.86Z"/><path class="cls-1" d="M105.65,90.76c-.3.71-.5,1.45-.74,2.17,0,.08.1.11.13,0,.24-.72.48-1.44.71-2.17C105.77,90.73,105.67,90.71,105.65,90.76Z"/><path class="cls-1" d="M107.46,90.22a20.16,20.16,0,0,1-.62,2.55c-.28.83-.6,1.66-.86,2.5a.08.08,0,0,0,.16,0c.27-.85.59-1.69.88-2.54a8.23,8.23,0,0,0,.53-2.53C107.55,90.18,107.47,90.17,107.46,90.22Z"/><path class="cls-1" d="M109.54,90.06s-.08-.07-.09,0c-.13.5-.14,1-.23,1.53s-.19,1-.31,1.47c-.24,1-.52,2-.76,2.95a.08.08,0,0,0,.16.05c.24-1,.53-2,.77-3,.12-.5.23-1,.32-1.52A5.49,5.49,0,0,0,109.54,90.06Z"/><path class="cls-1" d="M111.43,90.4c-.41,2.35-.59,4.71-1.12,7,0,.11.14.15.17,0a50.94,50.94,0,0,0,1-7.06C111.53,90.36,111.44,90.35,111.43,90.4Z"/><path class="cls-1" d="M113.77,90.4c-.87,2.49-.54,5.23-1.3,7.76,0,.11.15.16.18,0,.76-2.53.55-5.23,1.23-7.78C113.91,90.36,113.79,90.33,113.77,90.4Z"/><path class="cls-1" d="M115.38,90.78c-.1,2.17-.25,4.32-.56,6.48,0,.11.16.15.17,0a37.49,37.49,0,0,0,.53-6.52A.07.07,0,0,0,115.38,90.78Z"/><path class="cls-1" d="M118.28,89a29.55,29.55,0,0,1-.92,7.2.08.08,0,0,0,.15,0A22.8,22.8,0,0,0,118.4,89C118.39,88.9,118.28,88.9,118.28,89Z"/><path class="cls-1" d="M120.38,87.53a.06.06,0,0,0-.11,0c-.11,2.1.14,4.21.14,6.32a.1.1,0,0,0,.19,0C120.6,91.74,120.43,89.63,120.38,87.53Z"/><path class="cls-1" d="M122.34,90.62a13.78,13.78,0,0,0-.31-2.57c0-.09-.18-.08-.16,0,.11.87.24,1.72.29,2.6s.06,1.76.06,2.64a.09.09,0,0,0,.18,0C122.4,92.41,122.4,91.51,122.34,90.62Z"/><path class="cls-1" d="M123.62,86.61c0-.06-.1,0-.09,0a20,20,0,0,1,.29,2.45c0,.8,0,1.61,0,2.41a.09.09,0,0,0,.17,0A16,16,0,0,0,123.62,86.61Z"/><path class="cls-1" d="M125.82,88.55a7.51,7.51,0,0,0-.56-2.86c0-.08-.14,0-.13,0,.11.49.27,1,.36,1.47a12.72,12.72,0,0,1,.16,1.5c0,1,0,2,0,3a.09.09,0,0,0,.17,0C125.83,90.64,125.88,89.59,125.82,88.55Z"/><path class="cls-1" d="M127.24,85.89a.06.06,0,1,0-.11,0,13.38,13.38,0,0,1,.33,2.44c0,.8,0,1.61,0,2.42a.07.07,0,0,0,.15,0A14.08,14.08,0,0,0,127.24,85.89Z"/><path class="cls-1" d="M129.32,86.85c0-.34-.06-.69-.07-1s0-.68,0-1c0,0-.1,0-.11,0a3.22,3.22,0,0,0-.05,1c0,.36,0,.71.07,1.07.06.71.13,1.41.12,2.12a.1.1,0,0,0,.19,0C129.46,88.26,129.38,87.56,129.32,86.85Z"/><path class="cls-1" d="M131.42,86c-.06-.39-.11-.78-.2-1.17,0-.07-.13-.06-.13,0,0,.39.11.78.17,1.17s.11.8.18,1.2c0,.1.18.06.16,0C131.53,86.75,131.47,86.36,131.42,86Z"/><path class="cls-1" d="M133.39,84.24a.08.08,0,0,0-.13,0,.86.86,0,0,0,0,.39V85.9a.1.1,0,0,0,.21,0V84.64A.78.78,0,0,0,133.39,84.24Z"/><path class="cls-1" d="M135.22,84.91a.23.23,0,0,1-.07-.07h0v0l0,0a.08.08,0,0,0,0,0v0s0,0,0,0l0-.09a.06.06,0,0,0,0,0h0v-.19h0a.15.15,0,0,0,0-.07s0,0,0-.07a.1.1,0,0,0-.16,0,.16.16,0,0,0,0,.07s0,0,0,0,0,.09,0,.13a.58.58,0,0,0,0,.23.73.73,0,0,0,.22.39.11.11,0,0,0,.17,0A.14.14,0,0,0,135.22,84.91Z"/><path class="cls-1" d="M76.77,90.22a7.4,7.4,0,0,1-.55,1.25c0,.06.06.12.09.06a4.36,4.36,0,0,0,.54-1.28C76.86,90.19,76.78,90.17,76.77,90.22Z"/><path class="cls-1" d="M78.74,88.06c-.4,1.12-.37,2.39-1.08,3.41,0,.06.06.13.1.06a10.52,10.52,0,0,0,1.08-3.45C78.86,88,78.77,88,78.74,88.06Z"/><path class="cls-1" d="M81.17,86.08a0,0,0,0,0-.06,0,13.65,13.65,0,0,1-.94,4.68c0,.08.11.12.14,0A11.59,11.59,0,0,0,81.17,86.08Z"/><path class="cls-1" d="M82.64,86.08c0-.07-.11-.07-.11,0a17.6,17.6,0,0,1-.73,4.32.06.06,0,1,0,.12,0A12.45,12.45,0,0,0,82.64,86.08Z"/><path class="cls-1" d="M84.63,84.82c0-.07-.11-.07-.11,0,0,1.94-.59,3.83-.54,5.78a.05.05,0,0,0,.1,0C84.05,88.65,84.73,86.76,84.63,84.82Z"/><path class="cls-1" d="M87,85s-.08,0-.08,0c0,1,.06,2,0,3a7.21,7.21,0,0,1-.58,3c0,.09.08.16.12.08a7.16,7.16,0,0,0,.61-3A17.91,17.91,0,0,0,87,85Z"/><path class="cls-1" d="M89.32,85.18c0-.06-.1-.07-.1,0-.08,1.11-.06,2.23-.17,3.34a11.88,11.88,0,0,1-.77,3.32c0,.09.12.16.16.07a12,12,0,0,0,.79-3.22A15.26,15.26,0,0,0,89.32,85.18Z"/><path class="cls-1" d="M91.3,86.62c0-.06-.09-.06-.1,0-.09,1.07,0,2.15,0,3.21a16.28,16.28,0,0,1-.34,3.27c0,.1.13.15.15.05A16.33,16.33,0,0,0,91.33,90,28.63,28.63,0,0,0,91.3,86.62Z"/><path class="cls-1" d="M93.85,89.33c0-.09-.15-.09-.14,0a7.93,7.93,0,0,1-.19,2.33c0,.11.14.15.17,0A6.74,6.74,0,0,0,93.85,89.33Z"/><path class="cls-1" d="M96.42,89.88a4,4,0,0,1-.36,1.4c0,.09.09.18.14.08a3.33,3.33,0,0,0,.36-1.48C96.56,89.78,96.43,89.79,96.42,89.88Z"/><path class="cls-1" d="M58,93.1a10.71,10.71,0,0,0-.56,1l-.54,1c0,.07.07.14.11.07.19-.33.37-.67.54-1s.37-.66.53-1C58.09,93.1,58,93.06,58,93.1Z"/><path class="cls-1" d="M60.16,91.49a11.13,11.13,0,0,1-1.83,5c0,.07.07.14.12.07a8.56,8.56,0,0,0,1.23-2.43,9.27,9.27,0,0,0,.55-2.66A0,0,0,0,0,60.16,91.49Z"/><path class="cls-1" d="M62.13,90.58c-.75,2-.88,4.15-1.64,6.14,0,.08.1.11.13,0,.76-2,1-4.11,1.61-6.14C62.26,90.54,62.15,90.52,62.13,90.58Z"/><path class="cls-1" d="M64.48,89.47a3.25,3.25,0,0,0-.72,1.23,11.05,11.05,0,0,0-.44,1.69,15.28,15.28,0,0,1-.86,3.4c0,.1.11.2.16.09a14.17,14.17,0,0,0,.83-3.21,14.91,14.91,0,0,1,.4-1.63,7.39,7.39,0,0,1,.74-1.49A.07.07,0,0,0,64.48,89.47Z"/><path class="cls-1" d="M66.46,89.12c-.89,1.95-1,4.16-1.82,6.15,0,.09.11.13.14,0,.8-2,1.1-4.12,1.8-6.14C66.6,89.1,66.49,89.05,66.46,89.12Z"/><path class="cls-1" d="M68.21,88.61a.07.07,0,0,0-.14,0A24.55,24.55,0,0,1,67,94.91a.08.08,0,0,0,.15,0A19.86,19.86,0,0,0,68.21,88.61Z"/><path class="cls-1" d="M70,87.71c0-.07-.1-.07-.1,0-.13,2.19.1,4.61-.92,6.64,0,.09.08.16.13.08a9.26,9.26,0,0,0,.81-3.19A18.12,18.12,0,0,0,70,87.71Z"/><path class="cls-1" d="M72.17,86.79c0-.06-.11,0-.11,0C72,87.88,72,89,71.83,90s-.32,2.18-.51,3.27c0,.08.12.12.14,0,.2-1.11.41-2.22.56-3.34A12.21,12.21,0,0,0,72.17,86.79Z"/><path class="cls-1" d="M74,87.35a.05.05,0,0,0-.1,0c-.1,1.53.26,3.26-.57,4.65-.06.09.09.18.15.09C74.3,90.7,74.07,88.89,74,87.35Z"/><path class="cls-1" d="M75.24,87.53c0-.07-.11-.07-.11,0-.07.72-.08,1.45-.15,2.18s-.15,1.43-.21,2.15c0,.07.1.07.11,0,.06-.72.15-1.43.23-2.15A12.27,12.27,0,0,0,75.24,87.53Z"/><path class="cls-1" d="M59.63,69.28a7,7,0,0,0-.74,2.54c0,.05.08.05.09,0a7.47,7.47,0,0,1,.7-2.52S59.65,69.24,59.63,69.28Z"/><path class="cls-1" d="M60.52,69.64c-.08.37-.11.75-.17,1.12a11.36,11.36,0,0,1-.24,1.16,8.46,8.46,0,0,1-.89,2.21c0,.08.09.16.14.08A8.82,8.82,0,0,0,60.25,72c.1-.39.18-.8.25-1.2a5,5,0,0,0,.09-1.15A0,0,0,0,0,60.52,69.64Z"/><path class="cls-1" d="M62.14,70.18a18.67,18.67,0,0,0-.62,3.48,23.84,23.84,0,0,1-.67,3.74.07.07,0,0,0,.13,0,24.17,24.17,0,0,0,.67-3.51c.16-1.24.37-2.48.57-3.72A0,0,0,0,0,62.14,70.18Z"/><path class="cls-1" d="M63.83,69.82s-.06,0,0,0a7.79,7.79,0,0,1,.14,3.81A18.79,18.79,0,0,1,63,77.58a0,0,0,0,0,.09,0,19.72,19.72,0,0,0,.9-4A7.33,7.33,0,0,0,63.83,69.82Z"/><path class="cls-1" d="M66,69.47a0,0,0,1,0-.07,0c-.14,1.35,0,2.73-.08,4.09a24.68,24.68,0,0,1-.48,4.2.06.06,0,1,0,.11,0A25.3,25.3,0,0,0,66,73.72,28.71,28.71,0,0,0,66,69.47Z"/><path class="cls-1" d="M67.66,69.27a.06.06,0,0,0-.12,0,16.86,16.86,0,0,1,.17,7c0,.1.12.14.14,0a17,17,0,0,0,.3-3.57A12,12,0,0,0,67.66,69.27Z"/><path class="cls-1" d="M69.91,72.26c0-.53-.06-1.06-.07-1.59s0-1,0-1.56c0-.06-.1-.08-.11,0a7.16,7.16,0,0,0-.08,1.46c0,.55,0,1.1.07,1.65.06,1.07.14,2.15.14,3.23a.11.11,0,0,0,.22,0C70.05,74.37,70,73.32,69.91,72.26Z"/><path class="cls-1" d="M67.48,62.79a.06.06,0,0,0-.12,0,5.77,5.77,0,0,0,0,.72v.72a.06.06,0,0,0,.11,0c0-.24,0-.48,0-.72S67.5,63,67.48,62.79Z"/><path class="cls-1" d="M68.55,62.79c0-.06-.09-.06-.09,0,0,.6,0,1.2,0,1.81v1.8a.05.05,0,1,0,.1,0V64.6C68.56,64,68.58,63.39,68.55,62.79Z"/><path class="cls-1" d="M69.82,62.25a.06.06,0,0,0-.11,0c0,1.61.31,3.29-.18,4.86,0,.07.09.09.11,0C70.15,65.57,69.87,63.86,69.82,62.25Z"/><path class="cls-1" d="M71.71,65.85c0-1.32,0-2.65-.08-4a.06.06,0,1,0-.12,0,25,25,0,0,0,0,4c.06,1.33.12,2.65.13,4a.08.08,0,1,0,.15,0C71.83,68.5,71.77,67.18,71.71,65.85Z"/><path class="cls-1" d="M73.46,65.07c-.11-.67-.23-1.34-.35-2A18.38,18.38,0,0,0,72.7,61a0,0,0,0,0-.09,0,13.36,13.36,0,0,0,.31,2c.12.64.24,1.29.34,1.93a26,26,0,0,1,.39,4.22.09.09,0,0,0,.17,0A27.32,27.32,0,0,0,73.46,65.07Z"/><path class="cls-1" d="M75.18,63.57c-.16-.51-.33-1-.5-1.51s-.32-1.1-.52-1.63c0-.06-.13-.06-.12,0a17,17,0,0,0,.9,3,9.22,9.22,0,0,1,.52,3.29c0,.11.16.11.17,0A9.1,9.1,0,0,0,75.18,63.57Z"/><path class="cls-1" d="M77,62.35a18.08,18.08,0,0,0-1-2.68c0-.09-.19,0-.16.07.27.89.7,1.73,1,2.61a11.54,11.54,0,0,1,.64,2.79c0,.08.14.08.14,0A11.46,11.46,0,0,0,77,62.35Z"/><path class="cls-1" d="M78.15,60.87a2.45,2.45,0,0,0-.58-1.37s-.11,0-.09,0c.08.24.2.47.28.72A5.71,5.71,0,0,1,78,61a8.46,8.46,0,0,0,.38,1.48c0,.12.26.07.2-.06A9.78,9.78,0,0,1,78.15,60.87Z"/><path class="cls-1" d="M72.43,72a1.92,1.92,0,0,0-.14.63c0,.2-.05.4-.06.6a9.81,9.81,0,0,0,0,1.33c0,.11.19.11.18,0a11.25,11.25,0,0,1,0-1.3c0-.22,0-.43.07-.65a1.67,1.67,0,0,0,0-.59A.05.05,0,0,0,72.43,72Z"/><path class="cls-1" d="M74.54,70.89a.08.08,0,0,0-.16,0,5.08,5.08,0,0,0,0,.87v.93l0,1.84a.07.07,0,0,0,.14,0l0-1.84c0-.31,0-.62,0-.93A4.24,4.24,0,0,0,74.54,70.89Z"/><path class="cls-1" d="M69.43,50.52s0-.05-.05,0a3.26,3.26,0,0,0-.2,1.83c0,.05.09,0,.09,0A3.85,3.85,0,0,1,69.43,50.52Z"/><path class="cls-1" d="M70.44,50.68c-.07.4-.11.82-.16,1.23s-.12.87-.22,1.29c0,.08.11.12.13,0a20,20,0,0,0,.35-2.55A.05.05,0,0,0,70.44,50.68Z"/><path class="cls-1" d="M71.62,50.32a.05.05,0,0,0-.1,0,5.89,5.89,0,0,0,0,.84c0,.29,0,.57-.09.86a9.22,9.22,0,0,0-.08,1.74.07.07,0,0,0,.13,0,9.24,9.24,0,0,1,.1-1.74c0-.29.06-.57.08-.86A2.16,2.16,0,0,0,71.62,50.32Z"/><path class="cls-1" d="M73.31,51.62a5.23,5.23,0,0,0-.07-1.12s-.07,0-.09,0a4.33,4.33,0,0,0,0,1.08c0,.37,0,.75,0,1.12a8.85,8.85,0,0,1-.22,2.3c0,.11.15.16.17,0a9,9,0,0,0,.24-2.26C73.34,52.4,73.32,52,73.31,51.62Z"/><path class="cls-1" d="M74.86,50.33s-.07,0-.08,0a26.94,26.94,0,0,0,0,3,8.24,8.24,0,0,1-.43,3c0,.08.1.12.14,0a8.16,8.16,0,0,0,.46-2.9A26.44,26.44,0,0,0,74.86,50.33Z"/><path class="cls-1" d="M76.41,51.24l0-1.05a4.43,4.43,0,0,0-.06-1s-.09,0-.11,0a7.42,7.42,0,0,0,0,1.94c0,.68,0,1.37.06,2a13.73,13.73,0,0,1-.43,4.14c0,.07.09.1.11,0a13.33,13.33,0,0,0,.51-4C76.47,52.66,76.44,52,76.41,51.24Z"/><path class="cls-1" d="M78.16,52.12c-.1-1.7-.68-3.33-.76-5a.05.05,0,1,0-.1,0c-.12,1.7.57,3.35.67,5s0,3.62,0,5.43a.07.07,0,1,0,.13,0C78.15,55.74,78.28,53.93,78.16,52.12Z"/><path class="cls-1" d="M78.31,45.44c0-.07-.12,0-.11,0,.33,1.76.78,3.5,1.09,5.27a32.37,32.37,0,0,1,.51,5.55.08.08,0,0,0,.15,0A44.31,44.31,0,0,0,78.31,45.44Z"/><path class="cls-1" d="M79.93,44c0-.06-.12-.05-.11,0a42.65,42.65,0,0,0,1.11,5.71,29,29,0,0,1,.88,6.21.05.05,0,0,0,.1,0C81.91,51.88,80.58,48,79.93,44Z"/><path class="cls-1" d="M83.17,50.07C83,49,82.7,48,82.46,47c-.19-.85-.36-1.7-.59-2.54a4.39,4.39,0,0,0-.86-1.9c-.06,0-.16,0-.11.09a15.37,15.37,0,0,1,1.41,4.46c.21.92.49,1.82.65,2.75a19.83,19.83,0,0,1,.28,3.77c0,.09.14.09.14,0A20.62,20.62,0,0,0,83.17,50.07Z"/><path class="cls-1" d="M84.49,47c-.45-1.42-.94-2.86-1.48-4.24,0-.08-.15,0-.13,0a37.58,37.58,0,0,0,1.38,4.12,12.92,12.92,0,0,1,.79,4.35c0,.08.12.08.13,0A12.39,12.39,0,0,0,84.49,47Z"/><path class="cls-1" d="M86,46.68a10,10,0,0,0-1-2.34c0-.06-.15,0-.12,0,.16.4.36.79.52,1.19s.31.79.45,1.19a15.31,15.31,0,0,1,.65,2.5c0,.09.15,0,.14,0A15.81,15.81,0,0,0,86,46.68Z"/><path class="cls-1" d="M89,44.73s-.08,0-.08,0a13.19,13.19,0,0,0,0,1.54c0,.51,0,1,0,1.53a.06.06,0,1,0,.11,0V46.27A13.19,13.19,0,0,0,89,44.73Z"/><path class="cls-1" d="M90.77,44.37a.06.06,0,1,0-.12,0c-.06.66-.07,1.33-.11,2s-.08,1.31-.09,2a.08.08,0,1,0,.16,0c0-.66.06-1.31.11-2A13.36,13.36,0,0,0,90.77,44.37Z"/><path class="cls-1" d="M92.76,45.27c0-.07-.12-.07-.12,0,0,.37,0,.73,0,1.1a3.4,3.4,0,0,1-.18,1.05c0,.1.12.14.16,0A5.38,5.38,0,0,0,92.76,45.27Z"/><path class="cls-1" d="M94.58,43.83a.08.08,0,1,0-.15,0c-.07,1,0,2.05,0,3.07a.1.1,0,1,0,.19,0C94.61,45.88,94.65,44.85,94.58,43.83Z"/><path class="cls-1" d="M80.27,59.72s-.07,0-.06,0a5.76,5.76,0,0,1-.19,2,0,0,0,0,0,.08,0A5.62,5.62,0,0,0,80.27,59.72Z"/><path class="cls-1" d="M83,58.64a0,0,0,1,0-.09,0,11,11,0,0,1-1.46,4.83c0,.09.08.17.13.08a12.61,12.61,0,0,0,1.06-2.37A6.3,6.3,0,0,0,83,58.64Z"/><path class="cls-1" d="M85.16,58.44s-.09,0-.09,0c0,.56,0,1.11-.15,1.67A14.78,14.78,0,0,1,84.48,62a15,15,0,0,1-1.41,3.29.07.07,0,1,0,.12.07A15.24,15.24,0,0,0,84.64,62a15.46,15.46,0,0,0,.46-1.9A4.76,4.76,0,0,0,85.16,58.44Z"/><path class="cls-1" d="M86.89,59a7.82,7.82,0,0,0-.65,1.77c-.18.63-.35,1.27-.5,1.91-.3,1.3-.56,2.61-.85,3.91,0,.06.08.08.09,0,.3-1.27.57-2.55.88-3.82.15-.62.31-1.24.49-1.85s.46-1.27.61-1.91A0,0,0,0,0,86.89,59Z"/><path class="cls-1" d="M89,59.34c-.94,2.75-1,5.71-1.82,8.49,0,.08.11.12.14,0,.85-2.77,1-5.7,1.8-8.48C89.17,59.3,89.05,59.27,89,59.34Z"/><path class="cls-1" d="M91.56,59.15a10.5,10.5,0,0,0-.89,4.19A17.2,17.2,0,0,1,89.92,68c0,.08.11.12.14,0a15.87,15.87,0,0,0,.76-4.33c.07-.78.14-1.55.26-2.32a11.62,11.62,0,0,1,.6-2.19C91.7,59.13,91.59,59.08,91.56,59.15Z"/><path class="cls-1" d="M93.91,59.52c-.76,2.34-.41,4.85-.91,7.23,0,.07.1.11.12,0,.53-2.38.27-4.86.9-7.23A.06.06,0,0,0,93.91,59.52Z"/><path class="cls-1" d="M96.18,59.16s-.1,0-.1,0a18.07,18.07,0,0,1-.75,5.76c0,.09.12.13.15,0a12.33,12.33,0,0,0,.66-2.87A10.06,10.06,0,0,0,96.18,59.16Z"/><path class="cls-1" d="M97.82,59.9a.07.07,0,0,0-.13,0,25.89,25.89,0,0,1-.18,3.41c0,.09.11.13.13,0A16.61,16.61,0,0,0,97.82,59.9Z"/><path class="cls-1" d="M100,61.25c0-.33,0-.66,0-1a.07.07,0,0,0-.14,0c0,.33,0,.66,0,1v1a.09.09,0,0,0,.18,0Z"/><path class="cls-1" d="M101.79,60.44a.06.06,0,0,0-.12,0,4,4,0,0,0,.15,1.84c0,.11.21.06.17-.05A4.65,4.65,0,0,1,101.79,60.44Z"/><path class="cls-1" d="M37.41,78.11a5.64,5.64,0,0,0-.58.78c-.18.27-.36.55-.53.84,0,.08.08.15.12.07q.24-.43.51-.84c.18-.27.38-.53.55-.8C37.51,78.12,37.45,78.07,37.41,78.11Z"/><path class="cls-1" d="M39.58,77.56a4.16,4.16,0,0,0-.58,1c-.16.36-.31.73-.46,1.1a7.45,7.45,0,0,1-1.32,2.26s0,.14.08.08a7.2,7.2,0,0,0,1.31-2.13c.16-.37.31-.74.48-1.11s.38-.73.56-1.11C39.67,77.57,39.62,77.52,39.58,77.56Z"/><path class="cls-1" d="M41.17,77.2a9.49,9.49,0,0,0-.43,1.16c-.15.41-.29.82-.42,1.24-.28.82-.54,1.65-.79,2.49a.08.08,0,0,0,.16,0c.25-.82.51-1.63.78-2.44.13-.4.27-.8.4-1.19s.32-.82.44-1.25C41.33,77.18,41.21,77.12,41.17,77.2Z"/><path class="cls-1" d="M43.18,76.31a7.88,7.88,0,0,0-.51,1.58c-.14.56-.27,1.12-.4,1.68-.26,1.14-.5,2.28-.75,3.42,0,.1.13.15.15,0,.26-1.11.5-2.23.76-3.35.13-.54.26-1.08.4-1.61a16.85,16.85,0,0,0,.44-1.73S43.21,76.26,43.18,76.31Z"/><path class="cls-1" d="M44.92,75.23c0-.09-.14-.06-.15,0,0,.62,0,1.24-.08,1.87s-.17,1.34-.3,2c-.24,1.24-.57,2.46-.89,3.68a.09.09,0,0,0,.17,0c.35-1.29.7-2.57,1-3.88A11.57,11.57,0,0,0,44.92,75.23Z"/><path class="cls-1" d="M47.13,74.51c-.31,1.07-.45,2.21-.65,3.3A24,24,0,0,0,46,81.39c0,.11.16.11.16,0a25.6,25.6,0,0,1,.52-3.69c.11-.58.23-1.15.34-1.73a7.82,7.82,0,0,0,.21-1.44A.07.07,0,0,0,47.13,74.51Z"/><path class="cls-1" d="M49.05,74.51a.05.05,0,0,0-.1,0c-.06.46-.06.93-.08,1.4s-.06,1-.11,1.55c-.09,1-.24,2-.35,3,0,.05.08.06.09,0a29.77,29.77,0,0,0,.46-3A12.14,12.14,0,0,0,49.05,74.51Z"/><path class="cls-1" d="M50.68,74.69c0-.06-.11-.06-.11,0-.07.46-.06.93-.1,1.39s-.09.91-.14,1.37a16,16,0,0,0-.14,2.85c0,.09.15.09.14,0a16,16,0,0,1,.17-2.85c.06-.46.12-.91.16-1.37A5.88,5.88,0,0,0,50.68,74.69Z"/><path class="cls-1" d="M52.49,74.72c0-.06-.09-.11-.12,0a5.49,5.49,0,0,0-.36,1.7,15.87,15.87,0,0,0,0,1.95c0,.12.2.13.2,0A10.91,10.91,0,0,1,52.49,74.72Z"/><path class="cls-1" d="M54.28,74.72s-.06-.09-.08,0a4.66,4.66,0,0,0-.29,2c0,.73.07,1.46.08,2.19a.07.07,0,0,0,.14,0c0-.69-.05-1.39-.05-2.08A11,11,0,0,1,54.28,74.72Z"/><path class="cls-1" d="M55.91,75.61a.05.05,0,1,0-.1,0c0,.78,0,1.56,0,2.35a.07.07,0,0,0,.14,0C55.94,77.17,55.94,76.39,55.91,75.61Z"/><path class="cls-1" d="M57.76,75.79c0-.1-.16-.13-.18,0A10.43,10.43,0,0,0,57.41,77a8.07,8.07,0,0,0,0,1.3c0,.13.22.13.21,0a7.67,7.67,0,0,1,0-1.27C57.67,76.63,57.75,76.21,57.76,75.79Z"/><path class="cls-1" d="M50.69,70.37c0-.07-.12-.09-.13,0l-.06.35c0,.12,0,.24,0,.36s-.07.48-.11.72.17.18.19.06.08-.49.12-.74,0-.24,0-.36Z"/><path class="cls-1" d="M52.13,68.91c0-.06-.11,0-.12,0,0,.32,0,.65,0,1s0,.72-.1,1.07a14,14,0,0,1-.41,1.92c0,.07.09.1.12,0a11.45,11.45,0,0,0,.49-2A5.44,5.44,0,0,0,52.13,68.91Z"/><path class="cls-1" d="M53.75,68.91a.06.06,0,0,0-.11,0c-.11.68-.06,1.39-.11,2.07,0,.35-.05.69-.09,1s-.15.71-.18,1.07c0,.09.12.09.14,0A5.51,5.51,0,0,0,53.63,72c0-.33.09-.67.11-1A9.31,9.31,0,0,0,53.75,68.91Z"/><path class="cls-1" d="M55.38,68.19a.06.06,0,0,0-.12,0,9.45,9.45,0,0,0-.08,1.06c0,.39,0,.79-.07,1.18a19.41,19.41,0,0,0,0,2.29.07.07,0,1,0,.14,0c0-.76,0-1.53.1-2.29A9.9,9.9,0,0,0,55.38,68.19Z"/><path class="cls-1" d="M57.09,68.76a5,5,0,0,0-.06-.94.09.09,0,0,0-.17,0,3.29,3.29,0,0,0,0,.94l0,.94a6.18,6.18,0,0,1-.23,1.91c0,.14.18.2.23.06a6.46,6.46,0,0,0,.24-1.91C57.12,69.43,57.1,69.09,57.09,68.76Z"/><path class="cls-1" d="M39.4,87.33c-.41.85-.82,1.7-1.29,2.51a.07.07,0,1,0,.12.07,19.44,19.44,0,0,0,1.23-2.56S39.42,87.3,39.4,87.33Z"/><path class="cls-1" d="M41.55,85.69c-.22.43-.39.89-.58,1.33l-.63,1.39a16.23,16.23,0,0,0-1,2.71c0,.09.12.13.14,0a16.6,16.6,0,0,1,1-2.81c.21-.44.41-.89.61-1.34a7.66,7.66,0,0,0,.51-1.27C41.66,85.68,41.58,85.64,41.55,85.69Z"/><path class="cls-1" d="M44.09,84.81c-.77,2-1.08,4.22-2.18,6.12,0,.06.06.12.1.06,1.12-1.9,1.51-4.09,2.15-6.16C44.18,84.78,44.1,84.76,44.09,84.81Z"/><path class="cls-1" d="M46.41,83.92a17.05,17.05,0,0,1-1.62,6.46c0,.08.08.15.12.07a15,15,0,0,0,1.63-6.53A.07.07,0,1,0,46.41,83.92Z"/><path class="cls-1" d="M48.68,83s-.08,0-.09,0a9.29,9.29,0,0,0-.06,1.29c0,.63-.08,1.26-.16,1.89a7.14,7.14,0,0,1-1.06,3.29c-.07.09.07.16.13.08a7.21,7.21,0,0,0,1.11-3.32c.09-.61.15-1.21.18-1.82A4.16,4.16,0,0,0,48.68,83Z"/><path class="cls-1" d="M50.89,82.65c0-.1-.16-.1-.16,0-.06,1.31-.07,2.63-.24,3.93a9.08,9.08,0,0,1-1.18,3.81c-.05.06.06.12.1.06a8.23,8.23,0,0,0,1.25-3.73A21.3,21.3,0,0,0,50.89,82.65Z"/><path class="cls-1" d="M52.66,83c0-.06-.09,0-.1,0,0,.48,0,1,0,1.45s-.07,1.2-.15,1.8a7.67,7.67,0,0,1-.91,3,.06.06,0,0,0,.1.06,7.48,7.48,0,0,0,1-3.1c.08-.57.13-1.14.16-1.71A5.75,5.75,0,0,0,52.66,83Z"/><path class="cls-1" d="M54.66,83.74a.07.07,0,1,0-.13,0c0,.66,0,1.31-.13,2a11,11,0,0,1-.4,2,.06.06,0,0,0,.11,0,11.16,11.16,0,0,0,.46-2A7.46,7.46,0,0,0,54.66,83.74Z"/><path class="cls-1" d="M56.71,84.08a11.87,11.87,0,0,0-.39,2.36.09.09,0,1,0,.17,0c0-.79.27-1.55.33-2.34C56.83,84,56.72,84,56.71,84.08Z"/><path class="cls-1" d="M59.17,84.13c0-.07-.07-.13-.11-.06a3.49,3.49,0,0,0-.56,2.37c0,.09.14.09.14,0A4,4,0,0,1,59.17,84.13Z"/><path class="cls-1" d="M67.91,82.08a1.89,1.89,0,0,0-.11.47l-.09.51c-.07.34-.13.68-.19,1,0,.1.14.14.16,0,.06-.35.13-.69.19-1,0-.17.07-.33.1-.5a1.36,1.36,0,0,0,0-.49A.06.06,0,0,0,67.91,82.08Z"/><path class="cls-1" d="M69.51,81.5a1.65,1.65,0,0,0,0-.31c0-.06-.12-.07-.13,0a4.1,4.1,0,0,0,0,.61c0,.22,0,.44,0,.66,0,.43-.09.85-.13,1.28,0,.06.09.07.11,0a7.71,7.71,0,0,0,.21-1.26c0-.22,0-.43,0-.64S69.52,81.62,69.51,81.5Z"/><path class="cls-1" d="M71.82,81.39c0-.1-.13-.1-.14,0,0,.33,0,.66,0,1v1a.09.09,0,1,0,.18,0v-1A8.19,8.19,0,0,0,71.82,81.39Z"/><path class="cls-1" d="M9.42,86.41s-.05.09-.07.13l-.06.13c0,.1-.09.19-.13.29l-.3.53a.07.07,0,1,0,.11.07,5.86,5.86,0,0,0,.3-.55l.13-.27.06-.15a.33.33,0,0,0,0-.15A.05.05,0,0,0,9.42,86.41Z"/><path class="cls-1" d="M11.22,86a5,5,0,0,0-.5.79c-.15.28-.29.56-.41.85,0,.07.07.13.1.06a9.12,9.12,0,0,1,.41-.83c.16-.27.34-.53.49-.8C11.34,86.06,11.26,86,11.22,86Z"/><path class="cls-1" d="M12.67,85.87c-.41.5-.56,1.2-1.08,1.63,0,0,0,.09.06.06a2.39,2.39,0,0,0,.6-.77c.17-.28.32-.58.49-.87C12.77,85.88,12.71,85.83,12.67,85.87Z"/><path class="cls-1" d="M14.64,85c-.36.72-.69,1.46-1.08,2.17,0,.06.06.12.1.06A21.91,21.91,0,0,0,14.74,85,.06.06,0,0,0,14.64,85Z"/><path class="cls-1" d="M16.45,85.17a8,8,0,0,1-.71,1.61,0,0,0,0,0,.07,0,5.78,5.78,0,0,0,.74-1.64A.05.05,0,0,0,16.45,85.17Z"/><path class="cls-1" d="M18.6,83.88a7.11,7.11,0,0,0-.92,2.54c0,.1.13.14.16,0,.12-.43.22-.86.36-1.28A8,8,0,0,1,18.73,84C18.77,83.87,18.66,83.81,18.6,83.88Z"/><path class="cls-1" d="M21.5,83c-.66,1.09-.91,2.37-1.65,3.42-.07.09.09.19.16.09a23.89,23.89,0,0,0,1.6-3.44C21.65,83,21.54,82.91,21.5,83Z"/><path class="cls-1" d="M23.31,83.34c-.38.72-.67,1.47-1,2.2a17,17,0,0,1-1.16,2.14c-.05.07.06.13.11.06a23.55,23.55,0,0,0,2.17-4.35C23.44,83.33,23.34,83.28,23.31,83.34Z"/><path class="cls-1" d="M25.67,82.63c-1.1,1.79-1.4,3.92-2.36,5.77a.06.06,0,1,0,.1.06c1-1.86,1.29-4,2.33-5.79C25.77,82.63,25.7,82.59,25.67,82.63Z"/><path class="cls-1" d="M27.08,82.81a24.08,24.08,0,0,1-.89,3.36c-.37,1.11-.78,2.2-1.06,3.33,0,0,.06.07.07,0,.31-1.14.75-2.25,1.15-3.37a13.22,13.22,0,0,0,.87-3.32C27.23,82.75,27.1,82.73,27.08,82.81Z"/><path class="cls-1" d="M28.71,83.19a24.49,24.49,0,0,1-2.19,7c0,.11.13.16.18.05.91-2.23,2.16-4.59,2.15-7.07A.07.07,0,0,0,28.71,83.19Z"/><path class="cls-1" d="M30.7,82.64c-.34,1.5-.6,3-1.07,4.46a25.28,25.28,0,0,1-1.83,4.36c0,.09.09.17.14.08a26.39,26.39,0,0,0,1.85-4.31,18.09,18.09,0,0,0,1-4.58C30.83,82.58,30.72,82.57,30.7,82.64Z"/><path class="cls-1" d="M33.05,81.91c-.41,1.45-.56,3-.92,4.42a7.34,7.34,0,0,1-2.13,4c-.06,0,0,.12.08.08a7.25,7.25,0,0,0,2.15-3.86c.41-1.53.63-3.1.94-4.65C33.18,81.87,33.07,81.84,33.05,81.91Z"/><path class="cls-1" d="M34.84,82.65a27.19,27.19,0,0,1-.61,3.59,5.75,5.75,0,0,1-1.71,3.19c-.1.07,0,.24.1.17a5.84,5.84,0,0,0,1.76-3.13A14.06,14.06,0,0,0,35,82.65C35,82.55,34.85,82.55,34.84,82.65Z"/><path class="cls-1" d="M36.47,83.51a12.64,12.64,0,0,0-.71,2.65c-.18.93-.34,1.87-.58,2.79a.1.1,0,0,0,.19,0c.24-.91.4-1.83.58-2.74a27.62,27.62,0,0,1,.67-2.68C36.65,83.49,36.51,83.42,36.47,83.51Z"/><path class="cls-1" d="M38.11,82.82a24.33,24.33,0,0,1-.76,3.78.1.1,0,1,0,.19.05,13.46,13.46,0,0,0,.68-3.82C38.22,82.77,38.12,82.75,38.11,82.82Z"/><path class="cls-1" d="M24,73.24c-.07.16-.11.33-.18.49s-.14.36-.22.53a8.82,8.82,0,0,1-.51,1c0,.06.06.12.1.06a10.15,10.15,0,0,0,.51-1c.08-.17.15-.34.22-.51a4.36,4.36,0,0,0,.17-.51S24.06,73.19,24,73.24Z"/><path class="cls-1" d="M25.31,73.6c-.79,1.55-1.1,3.29-1.81,4.87,0,.06.06.11.08,0,.73-1.57,1.05-3.31,1.8-4.87C25.41,73.6,25.33,73.55,25.31,73.6Z"/><path class="cls-1" d="M27.28,73.61c-.16.53-.26,1.08-.41,1.61s-.35,1.11-.56,1.65C25.9,78,25.42,79,24.93,80.09c0,.08.07.14.11.07.5-1,1-2.11,1.4-3.2a11.82,11.82,0,0,0,.95-3.34A.06.06,0,0,0,27.28,73.61Z"/><path class="cls-1" d="M28.53,73.42a15.29,15.29,0,0,0-.2,1.64c-.09.68-.18,1.36-.3,2a7.89,7.89,0,0,1-1.28,3.52c-.05.06,0,.15.08.09a7.64,7.64,0,0,0,1.33-3.42c.13-.65.23-1.32.31-2a16.52,16.52,0,0,0,.2-1.86C28.67,73.36,28.54,73.34,28.53,73.42Z"/><path class="cls-1" d="M30.17,72.53c-.89,2.43-.59,5.12-1.46,7.58,0,.08.1.12.13,0,.88-2.44.71-5.1,1.43-7.59C30.29,72.49,30.19,72.46,30.17,72.53Z"/><path class="cls-1" d="M31.91,72c0-.07-.12,0-.13,0a28.55,28.55,0,0,1-.45,4.42c-.28,1.41-.61,2.8-.8,4.23,0,.07.1.11.11,0,.25-1.49.63-3,.93-4.45A12.44,12.44,0,0,0,31.91,72Z"/><path class="cls-1" d="M33.54,70.92a.07.07,0,0,0-.14,0c0,1.41.11,2.82.09,4.24s-.06,3.06-1,4.2c-.05.06,0,.14.08.08a6.59,6.59,0,0,0,1-3.93C33.71,74,33.61,72.44,33.54,70.92Z"/><path class="cls-1" d="M35,71.46a.07.07,0,0,0-.15,0c-.06.62,0,1.25,0,1.87a7.46,7.46,0,0,1-.21,1.89.1.1,0,0,0,.19.06,7,7,0,0,0,.22-1.88A18,18,0,0,0,35,71.46Z"/><path class="cls-1" d="M9.41,75.78a4.9,4.9,0,0,0-.13.55l-.14.53c-.1.36-.21.72-.29,1.08,0,.08.11.11.12,0,.09-.37.19-.73.3-1.1.05-.18.1-.36.14-.55a2.36,2.36,0,0,0,.1-.53A.05.05,0,0,0,9.41,75.78Z"/><path class="cls-1" d="M10.84,76.69A9.42,9.42,0,0,1,10,79.91a.06.06,0,1,0,.1.06,7.41,7.41,0,0,0,.62-1.58,6.51,6.51,0,0,0,.29-1.7C11,76.61,10.85,76.62,10.84,76.69Z"/><path class="cls-1" d="M12.28,76.13c-.14.8-.31,1.57-.52,2.35s-.42,1.56-.57,2.35c0,.09.12.12.14,0,.29-1.58.93-3.11,1.08-4.72C12.42,76.08,12.29,76.06,12.28,76.13Z"/><path class="cls-1" d="M13.36,76.5c-.1.4-.12.83-.18,1.24s-.11.79-.17,1.19c-.11.82-.24,1.63-.37,2.44,0,.08.11.12.13,0,.15-.83.29-1.65.42-2.48.06-.39.11-.78.17-1.17a8.68,8.68,0,0,0,.13-1.25A.07.07,0,0,0,13.36,76.5Z"/><path class="cls-1" d="M15.3,74.71a.07.07,0,0,0-.13,0c-.16,2.16.08,4.37-.57,6.47a.09.09,0,1,0,.18,0,12.71,12.71,0,0,0,.5-3.18C15.34,76.94,15.35,75.82,15.3,74.71Z"/><path class="cls-1" d="M16.54,72.72s-.09-.06-.09,0c.05,2.55,1.24,5,.52,7.56,0,.1.12.14.14,0C17.83,77.81,16.82,75.22,16.54,72.72Z"/><path class="cls-1" d="M18.55,71.28a.07.07,0,0,0-.14,0c.1,2.47.61,4.91.56,7.4,0,.07.1.07.11,0A48.2,48.2,0,0,0,18.55,71.28Z"/><path class="cls-1" d="M19.46,70.19c0-.1-.14-.09-.15,0a7.88,7.88,0,0,0,.43,2.8c.26.94.58,1.87.84,2.82,0,.09.16,0,.14,0A28.89,28.89,0,0,1,19.46,70.19Z"/><path class="cls-1" d="M20.88,70.16s-.13,0-.11,0a7.72,7.72,0,0,1,.72,3.23c0,.09.12.09.13,0A5.88,5.88,0,0,0,20.88,70.16Z"/><path class="cls-1" d="M22,70c0-.07-.15,0-.13,0a6.08,6.08,0,0,1,.37,2.15c0,.07.1.07.11,0A4.58,4.58,0,0,0,22,70Z"/><path class="cls-1" d="M272.53,91.49c-3.61-2.14-7.84-2-11.69-.7.56-2.52,0-5.24-2.6-5.7,1.1-2.79,2.16-6.09-.33-8.43-1.84-1.73-4.73-1.49-7-.37q.65-1.1,1.2-2.22A24.15,24.15,0,0,0,254.46,67a20,20,0,0,0-3.59-14.5,21.41,21.41,0,0,0-19-8.63,13.8,13.8,0,0,0-9.34,5.11c-4.22-2.62-9.53.74-12.22,4.29-3,4-2.85,9.17-.77,13.51a7.88,7.88,0,0,0-4.48-.13c-2.77.66-5.46,2.29-8.35,2.24-.47-2.61-2.59-3.9-5.12-4.08a10,10,0,0,0-2.84-11.07A7.14,7.14,0,0,0,184.53,52a21.48,21.48,0,0,0-2.66,0c-.37,0-.78.08-1.17.09a9.17,9.17,0,0,0,1.6-8,6.93,6.93,0,0,0-5.45-4.78,21.7,21.7,0,0,0,3-2.71,21.62,21.62,0,0,0,5.07-10.44c.79-4.05,1.1-8.4-.92-12.14a14.66,14.66,0,0,0-8.52-6.84,15.5,15.5,0,0,0-10.92.68,8.17,8.17,0,0,0-1.86-5.6A7.66,7.66,0,0,0,156.79,0C151.44.05,146,2.89,142,6.28a16,16,0,0,0-4.36,5.43,5.93,5.93,0,0,0-3.52-1.34,8.16,8.16,0,0,0-3.51.81,5.89,5.89,0,0,0-5.39-5.51A8.71,8.71,0,0,0,119.93,7s0-.1-.05-.15a5.77,5.77,0,0,0-.8-1.15A6.77,6.77,0,0,0,117,4.17a8.94,8.94,0,0,0-5.42-.66c-3.58.55-7.64,2.2-9.3,5.66a7.73,7.73,0,0,0-.49,4.9,5.43,5.43,0,0,0-5,.75,2.46,2.46,0,0,0-.61.85c-2.73-1-6.54,1-8.79,2.91a9.45,9.45,0,0,0-3.5,6.26,10.38,10.38,0,0,0,2.54,7.85,29.25,29.25,0,0,0,6,5.23,7.22,7.22,0,0,0-2.58.86,6.29,6.29,0,0,0-2.64,3.4c-.09-2.54-2.75-4.47-5.07-5a12.91,12.91,0,0,0-8.13,1.36c-4.48,2.24-9.8,6.85-8.7,12.49a8.21,8.21,0,0,0,3.64,5.06,8.38,8.38,0,0,0-4.13,1.79c-1.87,1.68-1.78,4.31-.63,6.36a3.69,3.69,0,0,0-1,0,10.1,10.1,0,0,0-4.28,1.84c-1-3.54-6.57-2.27-9-.8a7.35,7.35,0,0,0-3.46,3.93,3.08,3.08,0,0,0,0,1.76,10.45,10.45,0,0,0-4.24.94,14.42,14.42,0,0,0-4.92,3.22,5.24,5.24,0,0,0,.57-3.06A6.45,6.45,0,0,0,35.59,68a8.58,8.58,0,0,0-8.7-1.56,4.46,4.46,0,0,0-2.26,2.11,10.89,10.89,0,0,0-5.82-3,13.24,13.24,0,0,0-8.74,1.26,8.78,8.78,0,0,0-4.79,6.65,11.81,11.81,0,0,0,2.47,8.23A10.87,10.87,0,0,0,10,83.86C6.19,85.11,2.69,88,.07,90.78c-.19.2.06.55.3.4l.15-.1a.19.19,0,0,0,.13,0c3.22-.58,6.3-1.77,9.55-2.24,2.93-.43,6.25-.64,9,.79,1.92,1,3.38,2.66,5.36,3.61a8.8,8.8,0,0,0,6.66.51c1.2-.43,2.57-1.65,3.89-1.16s2.32,1.38,3.7,1.58c3.43.5,6.91-.78,10.35-.72a5,5,0,0,1,3,.73,14.88,14.88,0,0,1,1.8,1.92c2,2.11,4.36,2.82,7.18,3A25.27,25.27,0,0,0,71,97.88c2.7-.91,5.25-2.23,7.91-3.23a13,13,0,0,1,3-.47A15.21,15.21,0,0,1,88,95.59a32,32,0,0,0,4.88,2,13.33,13.33,0,0,0,5.76-.06c1.78-.33,3.59-.73,5.36-.15a18.1,18.1,0,0,1,3.44,1.85,9.44,9.44,0,0,0,8.21.93,35.31,35.31,0,0,0,5.81-2.55,40.52,40.52,0,0,1,5.76-2.84c1.28,2.67,2.74,5.66,5.39,7.12a12.64,12.64,0,0,0,11.37,0c-1.22,2.84-3.33,5.51-2.67,8.74.72,3.54,3.67,4.88,7,4.47,1.74-.21,3.37-.8,5.08-1.14,1.38-.27,2.27.52,3.35,1.19a3.54,3.54,0,0,0,3.79-.37c.48-.36,1.13-1.26,1.83-1.09.54.14,1.18,1.15,1.53,1.58a25.19,25.19,0,0,0,3.42,3.73A18.27,18.27,0,0,0,172,122a23.45,23.45,0,0,0,11,1.47,40.33,40.33,0,0,0,12.56-3,20.12,20.12,0,0,0,5.32-3.24c1.55-1.32,2.92-2.82,4.49-4.11a6.4,6.4,0,0,1,3-1.7,4.18,4.18,0,0,1,2.17.6,6.57,6.57,0,0,0,4.73.85,10.7,10.7,0,0,0,3.9-2.73,8.24,8.24,0,0,0,2.38-3.54.67.67,0,0,0,.36.48c2.7,1.43,5.59.7,8.42.11a11.33,11.33,0,0,1,5.37.08,8,8,0,0,0,4.22.28,2.53,2.53,0,0,0,1.59-2.51c5.06.14,10.09-.74,15.15-.17a59.18,59.18,0,0,0,7.28.69,20.39,20.39,0,0,0,6.27-1.21c2.53-.85,6.07-2,7.15-4.75C278.74,96.32,275.07,93,272.53,91.49Zm3.15,8.13c-1.43,2.16-4.71,3-7,3.7-4.23,1.31-8.28.46-12.57,0a51.79,51.79,0,0,0-7.37,0c-2.62.12-5.27.16-7.89.35a.73.73,0,0,0-.69.91c.15.58.44,1.37-.13,1.8a2.23,2.23,0,0,1-1.46.23,18.4,18.4,0,0,1-3.78-.9c-4-1.18-8.12.89-12.21,0a.78.78,0,0,0-.83.38c0-.09-.13-.15-.18,0a14,14,0,0,1-3,3.2,8.61,8.61,0,0,1-3.65,2.29c-2.85.6-4.92-2.48-7.83-1.24-3.52,1.51-5.79,5.07-9,7.1-3.55,2.26-8,3.21-12.06,3.81a27.17,27.17,0,0,1-11-.14,17,17,0,0,1-8.73-5.58c-.79-1-1.61-2.45-2.83-3a3.07,3.07,0,0,0-3.3.77,2.73,2.73,0,0,1-2.08.89c-.64,0-.94-.5-1.43-.84a4.92,4.92,0,0,0-3.46-.77c-2.86.48-7.68,2.67-9.67-.69-2.31-3.91,2-7.09,2.31-10.85.06-.86-1.2-.95-1.44-.19,0,0,0,.07,0,.11a24.51,24.51,0,0,1-6,1,10.3,10.3,0,0,1-5.36-1.62c-2.43-1.62-3.07-4.65-4.75-6.88a.82.82,0,0,0-1.07-.27c-1.77.85-3.56,1.62-5.31,2.55a44.53,44.53,0,0,1-5.56,2.7,9.69,9.69,0,0,1-5.35.8,11.5,11.5,0,0,1-3.58-1.68A13.17,13.17,0,0,0,104,95.9a11,11,0,0,0-4.81,0c-2.2.37-4.28.72-6.46,0-1.82-.56-3.46-1.6-5.24-2.26a15.21,15.21,0,0,0-6.14-1.09,10.44,10.44,0,0,0-3.69.85c-.59.15-1.17.3-1.75.47-1.5.46-2.92,1.21-4.38,1.79a23.32,23.32,0,0,1-9,1.6c-3.05,0-5.58-.5-7.8-2.7-1.39-1.39-2.5-2.36-4.55-2.55-3.43-.3-6.79.91-10.21.73a8.47,8.47,0,0,1-3.68-1.46,3.69,3.69,0,0,0-3.49-.17,11,11,0,0,1-4.09,1.27,7.14,7.14,0,0,1-3.48-.82c-1.92-1-3.61-2.35-5.56-3.28-2.78-1.32-6-1.23-8.93-.82a28.68,28.68,0,0,0-8,2.11,51.58,51.58,0,0,1,4.68-2.93,17.83,17.83,0,0,1,3.85-1.55,11.13,11.13,0,0,1,1.26-.23,5,5,0,0,0,2.35-.1h.61c.84,0,1.05-1.33.2-1.48a11,11,0,0,0-3.79,0c-3-1.69-4.82-5.8-4.75-9,.11-5.17,5.86-7.62,10.39-7.11a10.22,10.22,0,0,1,3.7,1.14,12.33,12.33,0,0,1,3,2.74,1,1,0,0,0,1.63-.68c-.08-1.45,1.33-2.51,2.59-2.84a6.73,6.73,0,0,1,4.32.54,5.65,5.65,0,0,1,3.16,3c.66,1.74.16,3.85-.5,5.52-.11.3.31.51.51.3s.2-.22.3-.33a.24.24,0,0,0,.38.28,17,17,0,0,1,5.85-3.52c2-.67,4.52-1.25,6.39.08a1,1,0,0,0,1-1.64,3.56,3.56,0,0,0-.6-.34,1.72,1.72,0,0,1-1-2.2,5.9,5.9,0,0,1,2.74-2.71c2.33-1.32,5.37-2,7,.59a.57.57,0,0,0,.88.11,6.73,6.73,0,0,1,3.54-1.81,3.18,3.18,0,0,1,1.88-.06c.57.23.74.91,1,1.42a.4.4,0,0,0,.72-.09,2.25,2.25,0,0,0,.12-.4l.13.09a.18.18,0,0,0,.27-.21C66.23,65,65.16,64,64.74,62.72a3.22,3.22,0,0,1,1.54-3.85,8,8,0,0,1,6.5-.69c1.06.44,1.52-1.29.47-1.72-2.44-1-5.27-2.59-6.12-5.28a6.49,6.49,0,0,1,1.33-5.73A15.86,15.86,0,0,1,74,40.89a12.29,12.29,0,0,1,6.65-1.51,7.42,7.42,0,0,1,3,1A18.86,18.86,0,0,1,86.15,43a.58.58,0,0,0,.95-.23.29.29,0,0,0,.42,0,7.35,7.35,0,0,1,3.08-2.82,10.8,10.8,0,0,1,4.08-.53.82.82,0,0,0,.41-1.52c-4.78-3.49-11.82-8.11-9-15,1-2.54,7.14-7.33,10.1-5.48a5.12,5.12,0,0,0,1.36,1.82c.49.42,1.47,0,1.2-.7a5,5,0,0,0-1.32-2c0-.33.2-.64.71-.9a4.59,4.59,0,0,1,3.4-.13.57.57,0,0,0,.56-.1c0,.08,0,.16.08.24.09.27.57.25.53-.07a8.76,8.76,0,0,1,1.11-6.16A9.7,9.7,0,0,1,109,6a11.16,11.16,0,0,1,5.56-.36,4.63,4.63,0,0,1,2.21,1,3.48,3.48,0,0,1,.73,1.05,4.77,4.77,0,0,0,.69,1,4.63,4.63,0,0,0-.39.59,3.47,3.47,0,0,0,.42,3.81.16.16,0,0,0,.26-.15c-1-3,2-4.95,4.58-5.29a5.42,5.42,0,0,1,3.91.76c1.41,1,1.58,2.85,1.55,4.46a1.05,1.05,0,0,0,1.57.9,9.28,9.28,0,0,1,3.66-1.69,4,4,0,0,1,3.6,1.64.83.83,0,0,0,1.37-.36c1.42-4.26,5.91-7.39,9.73-9.31,3.28-1.65,8.79-3.7,12.14-1.1,2,1.54,1.94,4.23,1.86,6.49a1,1,0,0,0,1.47.85c5.59-4.21,14.39-2,17.86,3.91,1.94,3.28,1.77,7.14,1.13,10.78a21.47,21.47,0,0,1-4,9.53c-2.57,3.34-6.26,5.64-10,7.52-.66.33-.2,1.45.5,1.2a29.15,29.15,0,0,0,5.94-2.89c2.4.65,4.35,1.93,4.94,4.54s-.55,5.21-2,7.33a.89.89,0,0,0,.76,1.33c.78-.07,1.43-.35,2.23-.4s1.36-.09,2-.11a6.48,6.48,0,0,1,4.08,1c3.5,2.53,4.08,7.58,2.17,11.21a.87.87,0,0,0,.75,1.29c2.38-.22,4.79.28,4.94,3.11a.81.81,0,0,0,.78.78c2.75.32,5.4-1,8-1.74a9.45,9.45,0,0,1,4-.57,5.84,5.84,0,0,1,3.7,2.52c.58.74,1.75-.21,1.28-1a6.76,6.76,0,0,0-1.64-1.89,25.94,25.94,0,0,1-1.76-5.32,10.57,10.57,0,0,1,1.63-7.77c2.11-3.11,7.32-6.92,11-4a.84.84,0,0,0,1.29-.16c4-5.89,11.46-5.94,17.45-3.41,7.1,3,12.46,10.18,11.66,18.13a24.65,24.65,0,0,1-2,7.48c-1.09,2.47-2.63,4.7-3.78,7.13a.63.63,0,0,0,1,.77,17.37,17.37,0,0,0,2.18-2.65c2.31-1,5.41-1.87,7.13.41,1.6,2.11-.18,5.11-.75,7.29a.83.83,0,0,0,1,1c3-.45,2.36,3.49,1.66,5.19-.29.69.6,1.08,1.11.86,3.42-1.46,7.32-2.05,10.78-.38C273,93.32,277.54,96.8,275.68,99.62Z"/></g></g></svg>