<svg xmlns="http://www.w3.org/2000/svg" viewBox="0 0 323.24 67.29"><defs><style>.cls-1{fill:#b69991;}</style></defs><g id="Layer_2" data-name="Layer 2"><g id="Layer_1-2" data-name="Layer 1"><path class="cls-1" d="M317.24,55.54a9.75,9.75,0,0,1,2.23-4.29.14.14,0,0,0-.22-.17,16.24,16.24,0,0,0-2.12,2.85c0-.07,0-.14,0-.21l0-.57a22.42,22.42,0,0,1,2.76-4.37.11.11,0,0,0-.17-.13c-.63.81-1.49,1.72-2.21,2.71a12,12,0,0,1,2.75-4.74c.09-.09-.07-.2-.15-.11a16.14,16.14,0,0,0-2.64,3.41,14.8,14.8,0,0,1,2.8-6.82c.1-.12-.09-.26-.19-.14a14.42,14.42,0,0,0-3.1,5.47c0-.14,0-.28,0-.43v-.21a14,14,0,0,1,2.66-7,.11.11,0,0,0-.17-.13,13.93,13.93,0,0,0-2.48,3.86,14.65,14.65,0,0,1,2.77-7.17c.07-.1-.08-.21-.15-.11a15.68,15.68,0,0,0-2.62,4.51,14.86,14.86,0,0,1,1.77-6.47c0-.07-.08-.13-.12-.06A19,19,0,0,0,316.73,39l0-.5c0-.32,0-.64-.05-1,0-.09,0-.18,0-.27A19.22,19.22,0,0,1,318,33.73c.05-.09-.1-.17-.15-.09-.45.77-.93,1.56-1.32,2.4l0-.43a54.75,54.75,0,0,0-.93-6.61s0,0,0,0a.1.1,0,0,0-.09,0,.09.09,0,0,0-.06,0,.11.11,0,0,0,0,.06c.15,1,.26,2,.34,3,0,.32.06.65.08,1s.06.89.08,1.34c-.32-1.08-.69-2.15-.94-3.25,0-.09-.17-.08-.15,0a26.28,26.28,0,0,0,.53,3c.16.67.41,1.31.63,2,0,.45,0,.9,0,1.35l0,.06a24.69,24.69,0,0,0-1.8-4.63c-.05-.11-.22,0-.17.07a35.56,35.56,0,0,1,1.7,6.85,27.16,27.16,0,0,0-2.19-4.62c-.07-.12-.27,0-.2.11,1.33,2.52,1.85,5.24,2.71,7.92v.58a28.88,28.88,0,0,0-2.1-4.42c-.05-.09-.2,0-.15.07A24.23,24.23,0,0,1,316,46.67a.16.16,0,0,0,.05.11c0,.15,0,.3,0,.45a32.35,32.35,0,0,0-2.28-5.42.08.08,0,0,0-.14.06A55.35,55.35,0,0,1,316.15,50c0,.47,0,.93,0,1.39,0,.2,0,.4,0,.59a23.9,23.9,0,0,0-1.73-5,.13.13,0,0,0-.25.1,23.25,23.25,0,0,1,1.48,5.79c.16,1.54.3,3.09.48,4.62-.32-1.06-.61-2.14-.86-3.25-.58-2.61-1.18-5.2-1.9-7.77-.24-.87-.49-1.75-.72-2.65,0-.18-.09-.36-.13-.54l-.27-1.08c-.12-.55-.24-1.1-.35-1.65,0-.19-.07-.37-.11-.55s-.06-.37-.1-.56c-.06-.37-.12-.74-.17-1.11,0-.18-.05-.37-.07-.55l-.06-.56a26,26,0,0,1-.13-2.78c0-.19,0-.37,0-.56a19.09,19.09,0,0,1,.4-3.28c0-.18.09-.36.13-.54l.15-.54c.05-.18.11-.36.17-.53.11.28.22.57.34.85l.35.86a.43.43,0,0,0,0,.07.34.34,0,0,0,.16.1l.07.09,0,0h0a.33.33,0,0,0,.52-.16s0,0,0-.06a12.46,12.46,0,0,1,.14-1.37,27.15,27.15,0,0,1,.82-3.43c.11-.36.22-.71.32-1.06.06-.18.11-.35.16-.53s.11-.35.16-.53l.15-.53c.1-.35.2-.71.28-1.06,0,.3,0,.59,0,.89a16.66,16.66,0,0,0,1.22,6.13,19,19,0,0,0,1.4,2.73c.21.35.44.69.66,1l.35.52a8.75,8.75,0,0,1,.5.8,7.22,7.22,0,0,1,.39.79c.06.13.11.27.16.4a7.92,7.92,0,0,1,.24.79,3.24,3.24,0,0,1,.09.4c0,.14,0,.27.08.41s0,.27.05.41,0,.56.05.85a16.09,16.09,0,0,1-.08,1.8.32.32,0,0,0,.06.22l.07.06a.16.16,0,0,0,.09,0h.1l.1,0a.16.16,0,0,0,.08-.06.28.28,0,0,0,.06-.09l.05-.06c.12-.27.24-.51.37-.75s.24-.4.36-.58l0,0h0l.21-.3c.15-.2.31-.39.48-.58l.25-.28a26,26,0,0,1-.31,7.32,24.28,24.28,0,0,1-1.06,3.43c-.21.56-.44,1.11-.67,1.67-.12.27-.24.55-.35.82l-.36.82c-.25.59-.52,1.19-.79,1.8s-.52,1.24-.77,1.87l-.36,1c-.11.32-.22.64-.32,1a19.41,19.41,0,0,0-.5,2C317.46,58.12,317.33,56.83,317.24,55.54Z"/><path class="cls-1" d="M312.25,57.23c-1.47-1.33-2.88-2.73-4.26-4.16-.06-.06-.17,0-.11.09,1.25,1.46,2.55,2.89,3.86,4.29.49.53,1,1.07,1.49,1.61-.64-.45-1.32-.87-2-1.27-1.74-1.92-3.85-3.55-5.65-5.42-.1-.1-.27,0-.18.14,1.29,1.36,2.51,2.87,3.83,4.24-.5-.24-1-.47-1.51-.68-1.23-1.16-2.5-2.27-3.74-3.42-.07-.07-.2.05-.13.13.91.92,1.79,1.87,2.68,2.81-.52-.2-1-.39-1.53-.55l-.18-.06-3-2.65c-.13-.12-.28.09-.16.2.75.7,1.48,1.42,2.2,2.14l-1-.28-3.12-2.45c-.11-.09-.24.08-.13.17l2.25,2-1-.23c-1.46-1.2-3-2.34-4.44-3.54-.11-.1-.24.08-.13.17,1.18,1,2.33,2.11,3.51,3.15l-1-.2h0A45.27,45.27,0,0,1,294.05,50c-.09-.08-.19.06-.11.14,1.18,1.09,2.4,2.16,3.69,3.14l-1.58-.3c-1.28-1.12-2.61-2.17-3.88-3.29-.11-.09-.24.08-.14.18,1.08.95,2.11,2,3.16,2.93l-1.38-.29a44.25,44.25,0,0,1-3.58-2.81c-.09-.08-.19.06-.11.14q1.32,1.27,2.73,2.46l-.79-.19a19.83,19.83,0,0,1-3.38-2.7c-.08-.07-.22,0-.14.11a17.85,17.85,0,0,0,2.3,2.3l-.87-.22a13,13,0,0,1-2.82-2.54c-.07-.08-.19,0-.13.11A9.13,9.13,0,0,0,289,51.36L284.9,50.3h-.06a.16.16,0,0,0-.13.13.07.07,0,0,0,0,0,.13.13,0,0,0,.08.08l1,.41,2,.8c.87.35,1.75.67,2.63,1a19.82,19.82,0,0,0-3.41.32c-.09,0-.1.17,0,.18,1.26.08,2.53,0,3.79.1.74,0,1.48.1,2.21.16l.9.21a22,22,0,0,0-4,.59.1.1,0,0,0,0,.19c1.54,0,3.08-.2,4.62-.2.85,0,1.69,0,2.54.08l1,.2a26.08,26.08,0,0,0-5.43.87c-.12,0-.1.21,0,.19a32.54,32.54,0,0,1,5.4-.47c1.42,0,2.82.18,4.22.33l.47.13,1,.29a23.31,23.31,0,0,0-9.07.83c-.1,0-.05.17,0,.16a47.5,47.5,0,0,1,6.31-.5,34.55,34.55,0,0,1,5.82.64A24.65,24.65,0,0,0,297,58c-.14,0-.07.25.07.24a56.06,56.06,0,0,1,6.59-.62,20.48,20.48,0,0,1,5.42.74q-.61,0-1.23.06a26.6,26.6,0,0,0-6.25,1.28c-.13.05-.07.26.06.23a30.58,30.58,0,0,1,5.55-.81,12.27,12.27,0,0,1,4.8.45l.55.36a23,23,0,0,0-8.24,1c-.13,0-.07.25.06.23A24.62,24.62,0,0,1,314,61l.62.51a18.92,18.92,0,0,0-8.95,1.07c-.13,0-.05.24.08.2a19.35,19.35,0,0,1,5.76-.74,25.47,25.47,0,0,1,4.29.6l.38.4c.11.13.22.25.32.38a13.83,13.83,0,0,0-3.17-.25,38.1,38.1,0,0,0-5.94.41.13.13,0,0,0,0,.26,40,40,0,0,1,5.47-.1,12.54,12.54,0,0,1,4.35.81l.08.13c.13.24.27.48.41.72a12.18,12.18,0,0,0-5.84-.57c-.13,0-.1.21,0,.21a13.16,13.16,0,0,1,6.23,1.24l.11,0,.5.81a9.93,9.93,0,0,0-3.54-.32c-.39,0-.78.06-1.17.11l-.6.07a25.65,25.65,0,0,1-4.24.32,15.91,15.91,0,0,1-4.16-1L304,65.91c-.36-.1-.71-.2-1.06-.27a7,7,0,0,0-2.07-.18l.67-.59c.34-.29.68-.56,1.05-.82l.37-.25c.25-.15.52-.3.8-.44a.49.49,0,0,0,.23-.59h0a.36.36,0,0,0-.11-.14.23.23,0,0,0-.12-.06,7.54,7.54,0,0,0-.9-.18,11.61,11.61,0,0,0-2.21,0l-.46,0h-.4c-.26,0-.51,0-.76,0a14.8,14.8,0,0,1-4.64-1.2l-.74-.29c-.25-.1-.51-.2-.78-.29l-.39-.14a10.06,10.06,0,0,0-2.45-.54,5,5,0,0,0-2,.23H288l.17-.25a2.5,2.5,0,0,1,.18-.24,4.15,4.15,0,0,1,.38-.44,4.47,4.47,0,0,1,1.69-1.07l.28-.09a5.61,5.61,0,0,1,.59-.13l.32,0a3.16,3.16,0,0,1,.32,0,.38.38,0,0,0,.26-.12.44.44,0,0,0,.1-.19.74.74,0,0,0,0-.21.5.5,0,0,0-.08-.2l-.05,0A.57.57,0,0,0,292,57l-1.05-.47c-.7-.31-1.39-.65-2.07-1-.34-.18-.68-.36-1-.55-1-.56-2-1.17-2.93-1.82l-.94-.67-1.11-.83a17.32,17.32,0,0,0-3.43-2.19,12.12,12.12,0,0,0,3.52-.58l.78-.21a18.46,18.46,0,0,1,3.87-.66h.52c.35,0,.7,0,1.06,0l.53.06.54.08.54.11a15.41,15.41,0,0,1,1.72.48.44.44,0,0,0,.55-.28.49.49,0,0,0,0-.12.56.56,0,0,0,0-.12,4.34,4.34,0,0,0-.23-.43,4.73,4.73,0,0,0-.52-.75l-.3-.32a13.08,13.08,0,0,1,1.54.78l.59.37,1.17.75a17.23,17.23,0,0,0,1.49.89,19.88,19.88,0,0,0,3,1,13.1,13.1,0,0,1,1.49.64l.37.19.36.19.36.2.35.19c.28.15.52-.16.47-.41a2.26,2.26,0,0,0,0-.45l0-.21a1.42,1.42,0,0,0-.05-.22,3.76,3.76,0,0,0-.33-.84,3.68,3.68,0,0,0-.23-.44,3.74,3.74,0,0,0-.27-.42l.71.34c.47.24.94.49,1.4.76.7.4,1.37.83,2,1.29q.66.47,1.29,1a30.56,30.56,0,0,1,2.41,2.13,31.25,31.25,0,0,1,2.15,2.32c.23.28.45.56.67.85s.4.54.59.81C313.11,58,312.67,57.62,312.25,57.23Z"/><path class="cls-1" d="M299,38.38h0l-.16-.19h0Z"/><path class="cls-1" d="M301.71,41.19l0,0-.11-.1h0Z"/><path class="cls-1" d="M304.83,44l-.34-.29h0Z"/><path class="cls-1" d="M300.76,40.27h0l-.18-.19h0Z"/><path class="cls-1" d="M302.84,42.22h0l-.23-.2h0Z"/><path class="cls-1" d="M303.33,42.66h0l-.24-.22h0Z"/><path class="cls-1" d="M304.32,43.52h0l-.28-.24h0Z"/><path class="cls-1" d="M303.82,43.09h0l-.26-.23h0Z"/><path class="cls-1" d="M301.22,40.72h0l-.17-.17h0Z"/><path class="cls-1" d="M298.54,37.86h0l-.14-.17h0C298.45,37.75,298.49,37.81,298.54,37.86Z"/><path class="cls-1" d="M300.31,39.82h0l-.19-.2h0Z"/><path class="cls-1" d="M304.83,44a8.6,8.6,0,0,0,1.13-.82l.68.58,1.17,1,.77.7.75.7c.37.36.74.72,1.09,1.09s.7.75,1,1.14.64.8.95,1.21l.29.42.4.62,0,.59a5.91,5.91,0,0,0-1.19-1.3.1.1,0,0,0-.14.14,12.2,12.2,0,0,1,1.32,2v.18c-.23-.33-.47-.64-.72-1a.15.15,0,0,0-.24.19c.37.51.7,1,1,1.57a6.53,6.53,0,0,0,.14.77,32.87,32.87,0,0,0-3.07-4.51c-.44-.54-.9-1.08-1.38-1.6a36.1,36.1,0,0,0-3.08-3l-.89-.78Z"/><path class="cls-1" d="M313.66,52.21h0s0-.09,0-.13Z"/><path class="cls-1" d="M299.42,38.88h0l-.18-.2h0Z"/><path class="cls-1" d="M299.87,39.35h0l-.18-.2h0A1.8,1.8,0,0,0,299.87,39.35Z"/><path class="cls-1" d="M302.34,41.77h0l-.2-.18h0Z"/><path class="cls-1" d="M319,65.66l-.79-1.58c0-.53.07-1,.13-1.56q.33.84.63,1.68l.39,1.13c.12.38.24.76.34,1.15.06.19.11.39.16.59a1,1,0,0,0-.11.17C319.54,66.71,319.29,66.19,319,65.66Z"/><path class="cls-1" d="M294.61,26.85h0a5.67,5.67,0,0,0,.52-.58l0-.05q1.13.18,2.22.42v0a.24.24,0,0,0,.06.09l.51.67-.83-.18c-.43-.09-.86-.16-1.29-.23S295,26.89,294.61,26.85Z"/><path class="cls-1" d="M296.13,24.33l.12-.44a11.89,11.89,0,0,1,2.24.21,8.37,8.37,0,0,1,1.29.59,13,13,0,0,1,1.36.87l.15.11A14.49,14.49,0,0,0,296.13,24.33Z"/><path class="cls-1" d="M297.52,23.44v.06a7.65,7.65,0,0,0-1.16-.14c0-.12,0-.25.05-.38.44,0,.87.1,1.3.17l-.06,0,0,0h0l0,.05a.37.37,0,0,0-.05.11A.43.43,0,0,0,297.52,23.44Z"/><path class="cls-1" d="M296.46,22.06c0-.15,0-.29,0-.44a9.9,9.9,0,0,1,1.93.23,3.9,3.9,0,0,1,.46.12l.44.14.18.07C298.46,22.11,297.46,22.06,296.46,22.06Z"/><path class="cls-1" d="M297.39,26.38q-1-.28-2-.51c0-.08.1-.15.14-.23.85.12,1.69.24,2.53.39l-.37.08a.4.4,0,0,0-.18.1.27.27,0,0,0-.08.07Z"/><path class="cls-1" d="M296.45,22.44c1.23,0,2.45,0,3.68,0l0,0c-.4.08-.81.17-1.21.28-.25.06-.51.13-.76.21a10.35,10.35,0,0,0-1.76-.35A1.34,1.34,0,0,0,296.45,22.44Z"/><path class="cls-1" d="M295.74,25.29a5.05,5.05,0,0,0,.24-.53,16.41,16.41,0,0,1,4.94,1.06,10.24,10.24,0,0,0-2.21.1C297.73,25.67,296.74,25.45,295.74,25.29Z"/><path class="cls-1" d="M287.89,29.18a3.55,3.55,0,0,1,0-.65.1.1,0,0,0,0-.05l.44-.18.13-.07a23.51,23.51,0,0,0,.12,2.37l-.76.54c0-.4,0-.82,0-1.22C287.88,29.68,287.88,29.43,287.89,29.18Z"/><path class="cls-1" d="M288.92,28.11l.16.07.12.05a15.38,15.38,0,0,0,.31,1.8h0a.34.34,0,0,0-.15.06l-.46.33C288.87,29.65,288.89,28.88,288.92,28.11Z"/><path class="cls-1" d="M287,28.8l.48-.14c0,.36.06.77.08,1.08a8.14,8.14,0,0,0,.12,1.56,5.43,5.43,0,0,1-1.06.56c0-.25.07-.51.1-.76C286.79,30.33,286.89,29.57,287,28.8Z"/><path class="cls-1" d="M290.76,28.44h.38l.33,0a6.34,6.34,0,0,0,0,1.57c-.14.36-.27.74-.39,1.11l-.15.5C290.85,30.53,290.8,29.48,290.76,28.44Z"/><path class="cls-1" d="M289.82,28.4l.25,0h.24c.1,1.26.25,2.51.43,3.76v0c-.05.19-.1.37-.14.56a.08.08,0,0,0,0,0l-.15-.57,0-.06A22.52,22.52,0,0,1,289.82,28.4Z"/><path class="cls-1" d="M291.9,28.32h0l.33-.08c-.17.33-.33.66-.48,1v-.08C291.79,28.88,291.86,28.6,291.9,28.32Z"/><path class="cls-1" d="M288.74,3.27c0-.23,0-.45,0-.67s0-.52,0-.78,0-.67.08-1S288.9.28,289,0a13.85,13.85,0,0,0,3.31,9.08.12.12,0,0,0,.19-.16,22.28,22.28,0,0,1-3-7c0,.11.07.21.1.31a15.15,15.15,0,0,0,.61,1.58,25.21,25.21,0,0,0,2.34,4l.33.47c.28.39.58.77.88,1.14l.68.81.54.62.95,1.12c.39.48.77,1,1.11,1.48,1.38,2.05,2.35,6.15-.64,7.24,0-.12,0-.24-.07-.36a14.92,14.92,0,0,0-3.17-7.36c-.08-.11-.24,0-.17.13a16.71,16.71,0,0,1,1.35,2.8l-.54-.74-.32-.41c-.21-.26-.43-.51-.66-.77s-.41-.77-.62-1.16a.09.09,0,0,0-.17.08l.15.4-.11-.11-.05-.05c-.45-.45-.92-.89-1.41-1.31-.39-1.3-.78-2.58-1.09-3.85l-.18-.76A23.69,23.69,0,0,1,288.74,3.27Zm8,10.7a6.33,6.33,0,0,0-1.64-2.17c-.05-.05-.14,0-.09.1a7.37,7.37,0,0,1,1.39,2.21C296.49,14.34,296.85,14.18,296.74,14Zm.17,1.67a14.77,14.77,0,0,0-2.07-3.11.08.08,0,0,0-.12.09,26.1,26.1,0,0,1,1.73,3.21C296.58,16.13,297.05,15.93,296.91,15.64Zm-.45,3a.29.29,0,0,0,.58-.08c-.14-2-1.73-3.84-2.77-5.46,0-.07-.18,0-.14.09C295,14.91,296.22,16.73,296.46,18.65Z"/><path class="cls-1" d="M288.36,8.5l0,0v0h0Z"/><path class="cls-1" d="M285.84,3.67l.3.32.4.47.21.26L287,5l.14.2.26.4a8.62,8.62,0,0,1,.76,1.59,1.7,1.7,0,0,1,0,.22l.09.47a1.92,1.92,0,0,1-.22.18,17.56,17.56,0,0,0-1-2.2c-.06-.1-.21,0-.16.06a18.26,18.26,0,0,1,.81,2.36l-.52.23c-.25-.75-.46-1.51-.69-2.27,0-.09-.19,0-.17.05.13.8.33,1.57.51,2.36l-.16.06-.24-.18-.19-.14A9,9,0,0,1,285.77,7a.11.11,0,0,0-.21,0c.05.37.13.73.21,1.1l-.21-.16,0,0c0-.1-.07-.2-.1-.29v0l-.09-.31a11.74,11.74,0,0,1-.25-2.83c0-.1,0-.21,0-.31V3.83c0-.32,0-.63,0-1C285.31,3.14,285.58,3.4,285.84,3.67Z"/><path class="cls-1" d="M278.85,19.22l-.12-.49-.21-1-.09-.51a3,3,0,0,1-.07-.32l0-.18c-.09-.48-.19-.94-.31-1.4-.06-.22-.12-.44-.19-.66A14.65,14.65,0,0,0,276.17,11c-.11-.18-.23-.37-.36-.55l-.39-.53A14.59,14.59,0,0,0,273,7.53l.35.15a29.53,29.53,0,0,1,5.34,5,.08.08,0,0,0,.13-.1,19.36,19.36,0,0,0-3.51-3.89,17.2,17.2,0,0,1,3.2,2.2,27.14,27.14,0,0,1,4.9,5.89c.08.42.16.85.25,1.27l.09.52c.08.39.17.78.25,1.17-.11-.16-.23-.31-.35-.47s-.16,0-.13.07c.22.46.45.9.69,1.34s.28,1,.47,1.53c-.54-.79-1.05-1.59-1.52-2.42-.05-.09-.2,0-.15.06a31.39,31.39,0,0,0,3.16,5.59,10.78,10.78,0,0,0,.91,1.27c.23.25.46.49.7.71a4.89,4.89,0,0,1-2.57.44,3.87,3.87,0,0,1-.75-.21c-.17-.07-.35-.15-.54-.25l-.44-.28-.21-.16a9,9,0,0,1-1.21-1.18l-.41-.51-.07-.09-.09-.12c-.19-.25-.36-.5-.53-.74a13.23,13.23,0,0,1-1-1.77l0-.07a17.26,17.26,0,0,1-.74-1.92c0-.11-.07-.22-.1-.34C279,19.86,278.93,19.54,278.85,19.22Zm6.07,7a44.32,44.32,0,0,1-3-4.7.07.07,0,0,0-.14.05,20.47,20.47,0,0,0,2.7,5A.26.26,0,0,0,284.92,26.26Zm-1.87-1.18c-.46-1.17-1.33-2.14-1.81-3.31,0-.08-.15-.05-.13,0a11.93,11.93,0,0,0,1.55,3.5C282.79,25.53,283.14,25.31,283.05,25.08Zm-.43-4a16.16,16.16,0,0,0,3.72,6.11c.23.23.56-.14.38-.38a47.86,47.86,0,0,1-4-5.78C282.69,20.92,282.59,21,282.62,21Zm-1.45,2.2a9.55,9.55,0,0,0-.64-1.28.11.11,0,0,0-.2.08,9.39,9.39,0,0,0,.52,1.33C280.93,23.58,281.27,23.43,281.17,23.23Z"/><path class="cls-1" d="M280.42,7.62l.3.23h0a7.46,7.46,0,0,1,.94.74c.17.46.31.92.45,1.39q-.18-.33-.39-.66c-.05-.09-.18,0-.14.08.29.59.58,1.2.82,1.82a3.11,3.11,0,0,1-.33.29c-.35-.68-.73-1.35-1.14-2-.08-.12-.29,0-.22.13.37.69.7,1.38,1,2.1a.87.87,0,0,1-.47.1l-.15-.17c-.3-.54-.57-1.1-.83-1.66a.12.12,0,0,0-.22.09c.11.29.23.58.36.86l-.16-.16-.46-.42A10.49,10.49,0,0,1,279.54,9c0-.15,0-.3-.05-.45,0-.31-.05-.62-.08-.92s0-.62-.07-.92Z"/><path class="cls-1" d="M285.56,21.64l-.15-.48a37,37,0,0,1-.87-3.95c0-.16-.05-.32-.08-.48s0-.31-.07-.46c-.05-.31-.1-.61-.15-.89s-.09-.57-.13-.83c-.11-.67-.23-1.32-.37-2s-.32-1.39-.52-2.07a23.59,23.59,0,0,0-1.4-3.73c.64,1,1.27,1.9,2,2.79a54.85,54.85,0,0,1,3.54,4.76c0,.06.14,0,.1-.06a56.2,56.2,0,0,0-3.23-5c-.63-.93-1.2-1.94-1.85-2.87.93.84,1.9,1.65,2.88,2.45l.66.53.66.54c.65.53,1.3,1.06,1.93,1.61l0,0,0,0c.85.73,1.68,1.48,2.47,2.27.33.34.67.69,1,1.06s.51.58.75.88a13.29,13.29,0,0,1,.94,1.29,11.5,11.5,0,0,1,.66,1.13l.12.24.21.48a8.7,8.7,0,0,1,.47,1.5l.09.51a6.94,6.94,0,0,1,0,1.82c0,.1,0,.19,0,.29a4.84,4.84,0,0,1-4.8,4.32,5.16,5.16,0,0,1-2-1A9.69,9.69,0,0,1,285.56,21.64Zm6.73-3.47a28.63,28.63,0,0,1,1.94,3.4c.13.26.55.1.42-.17a12,12,0,0,0-2.26-3.3A.06.06,0,0,0,292.29,18.17ZM294,19.6c.11.25.51.07.38-.16a12.77,12.77,0,0,0-1.55-2.24.09.09,0,0,0-.15.11A16.79,16.79,0,0,1,294,19.6Zm-6.08-5.33c.1.19.41.07.32-.13a17.06,17.06,0,0,0-3.67-5c-.06,0-.15,0-.1.1A22.93,22.93,0,0,1,287.92,14.27ZM287,10.7a.11.11,0,0,0-.18.13c.64.88,1.21,1.79,1.77,2.72.11.17.36,0,.26-.19C288.26,12.44,287.63,11.57,287,10.7Zm7.44,12.14A13.37,13.37,0,0,0,291.79,19s-.05,0,0,0c.32.69.78,1.31,1.14,2s.69,1.37,1,2.06C294.07,23.38,294.59,23.16,294.43,22.84Zm-.37,1.62a31,31,0,0,0-2.83-4.77c0-.05-.13,0-.1.06.76,1.64,1.47,3.37,2.37,4.94C293.69,25,294.21,24.83,294.06,24.46ZM293,25.4a26.66,26.66,0,0,0-2.48-5.13c-.06-.09-.21,0-.16.1.77,1.72,1.46,3.47,2.18,5.21A.25.25,0,0,0,293,25.4Zm-1.09.31c-.72-1.74-1.5-3.45-2.23-5.18a.07.07,0,0,0-.13,0c.56,1.8,1.15,3.59,1.84,5.34A.28.28,0,0,0,291.9,25.71Zm-1.33-.5c-.68-1.51-1.29-3-1.85-4.58,0-.06-.13,0-.12,0A24,24,0,0,0,290,25.43C290.19,25.76,290.72,25.54,290.57,25.21Zm-1.35-.65a21.9,21.9,0,0,1-1.55-4.33.07.07,0,0,0-.13,0,16.19,16.19,0,0,0,1.14,4.54A.29.29,0,0,0,289.22,24.56Zm-2-.62a.26.26,0,0,0,.47-.2,19.15,19.15,0,0,1-1.21-3.61.1.1,0,0,0-.19,0A14.6,14.6,0,0,0,287.21,23.94Z"/><path class="cls-1" d="M304.83,44l-.34-.29-.17-.15-.28-.24-.22-.19-.26-.23-.23-.2-.24-.22-.25-.22-.23-.2-.27-.25-.2-.18-.43-.4-.15-.14-.34-.33-.18-.17c-.09-.09-.18-.19-.28-.28l-.19-.19c-.08-.09-.17-.17-.26-.26l-.19-.2-.25-.27a1.8,1.8,0,0,1-.19-.2l-.26-.27-.18-.21-.25-.29-.17-.19-.28-.33c-.05,0-.09-.11-.14-.17s-.27-.33-.41-.5l-.43-.57-.42-.58c-.28-.38-.55-.77-.82-1.17l-.39-.59-.38-.61c-.12-.2-.25-.4-.37-.61l-.36-.61-.27-.46-.28-.48a.75.75,0,0,0-.07-.12c0-.28,0-.56-.05-.84.26.43.51.86.79,1.28.07.11.25,0,.2-.12-.3-.68-.65-1.35-1-2v-.11l.14.24c.17.3.33.6.51.89.07.11.23,0,.19-.11-.15-.44-.34-.87-.53-1.3a4.06,4.06,0,0,0-.25-.6l0-.32c.12.32.24.63.37.94s.25.58.38.86c.27.57.57,1.12.88,1.67.16.27.32.54.49.81.34.53.69,1.06,1.06,1.57L298,35c.38.5.78,1,1.19,1.48l.62.71c.42.48.85.94,1.28,1.4l.65.67.66.66c1.13,1.12,2.34,2.17,3.55,3.22h0A8.6,8.6,0,0,1,304.83,44Z"/><path class="cls-1" d="M38,12.35c0,.3,0,.6.07.91,0,.6.06,1.21.07,1.81,0,.31,0,.61,0,.91,0,.61,0,1.22,0,1.83-.48.74-1,1.48-1.41,2.23s-1,1.62-1.46,2.44q.15-1,.21-2a.14.14,0,0,0-.27,0,38.55,38.55,0,0,1-1,4l-.09.18c-.4.78-.78,1.57-1.14,2.38,0,.06,0,.12-.08.19a36.72,36.72,0,0,1,1.28-6,.13.13,0,0,0-.25-.09,32.51,32.51,0,0,0-2.28,9.55,11.28,11.28,0,0,0-.26,1.26c0,.32-.08.65-.09,1a9.11,9.11,0,0,0,.12,2,4.1,4.1,0,0,1-.73-.17,4.2,4.2,0,0,1-.65-.26l-.3-.16-.27-.19a3.76,3.76,0,0,1-.71-.67,2.56,2.56,0,0,1-.2-.26,4.43,4.43,0,0,1-.35-.56c-.08-.15-.15-.32-.22-.49l-.09-.21a8.29,8.29,0,0,1-.25-.85V31a9.76,9.76,0,0,1,.06-4.06c0-.13.07-.26.1-.39l.09-.32c0-.17.1-.33.16-.49a35,35,0,0,1,3.62-6.59c.34-.53.67-1.06,1-1.6l.31-.54c.4-.71.77-1.43,1.1-2.16a25.08,25.08,0,0,0,1.1-3c.09-.29.17-.59.24-.88a30.4,30.4,0,0,1-1.12,6.32c0,.13.16.2.2.07A31.06,31.06,0,0,0,36.07,5.66c0-.3,0-.61,0-.91l.26.71c.08.23.17.47.25.71.25.7.48,1.42.68,2.14.07.24.14.49.2.73s.12.49.17.74.11.5.15.75C37.88,11.14,38,11.74,38,12.35ZM29.79,31.92a.4.4,0,0,0,.8.08,38,38,0,0,1,2.28-10.48c.07-.17-.19-.26-.27-.09A31.11,31.11,0,0,0,29.79,31.92Zm.52-8.66a40.56,40.56,0,0,0-1.69,5,.33.33,0,1,0,.64.14,52.32,52.32,0,0,1,1.26-5.08A.11.11,0,0,0,30.31,23.26Z"/><path class="cls-1" d="M50.61,17c.11-.53.19-1.06.27-1.59,0-.11-.16-.15-.18,0a17.31,17.31,0,0,1-.77,2.34,4,4,0,0,1-.92,0c.26-1.19.55-2.38.91-3.53.07-.21-.26-.33-.33-.12-.41,1.19-.83,2.36-1.23,3.55L48,17.52l-.12-.81a15.35,15.35,0,0,1,.56-2,.17.17,0,0,0-.32-.12c-.15.32-.28.64-.41,1-.06-.44-.13-.87-.2-1.31l1-1.21c1-1.21,1.9-2.42,2.87-3.62.13.9.27,1.85.35,2.8a12.09,12.09,0,0,1,0,2.76c0,.26-.08.5-.14.74C51.21,16.13,50.9,16.54,50.61,17Z"/><path class="cls-1" d="M41.7,10.21c0-.13-.21-.11-.23,0-.1,1-.21,1.9-.38,2.84l-.17.27c-.23-.1-.47-.2-.7-.32A28.75,28.75,0,0,0,41,9c0-.19-.25-.21-.28,0a30.86,30.86,0,0,1-1,3.72,2.92,2.92,0,0,1-.32-.21c0-.17,0-.35,0-.53.23-.82.51-1.62.81-2.42.06-.16-.19-.25-.26-.09-.22.47-.43.95-.64,1.42-.07-.58-.16-1.16-.27-1.73l0,0,.69-.76c.69-.74,1.39-1.45,2.14-2.14.17.72.35,1.44.48,2.17.07.36.13.73.17,1.09,0,.18,0,.37,0,.55s0,.36,0,.55L41.75,12l-.09.14A14.91,14.91,0,0,0,41.7,10.21Z"/><path class="cls-1" d="M44.1,36.29c.36-.42.7-.85,1-1.3l.31-.45a2.39,2.39,0,0,0,.13-.21,23.87,23.87,0,0,0,4.71-9.14.09.09,0,0,0-.17-.06,37.67,37.67,0,0,1-2.32,4.52c.06-.21.12-.41.17-.61a20.53,20.53,0,0,0,.51-3.55c0-.5,0-1,.06-1.51a28.34,28.34,0,0,1,2.12-4.52c.35-.6.73-1.18,1.13-1.75a21,21,0,0,1,5.76-5.51l.29-.17c-1.73,2.67-4,5.2-5,8.27a.1.1,0,0,0,.19.07,18.78,18.78,0,0,1,3.17-4.8c-.15.34-.3.67-.43,1-.2.49-.38,1-.55,1.49s-.22.69-.32,1a32.77,32.77,0,0,0-1,4.42c-.14,1-.25,2.09-.38,3.13,0,.17,0,.34-.07.51s-.09.63-.14.94-.14.76-.22,1.13-.18.74-.29,1.11c-.06.18-.11.36-.18.54s-.13.36-.2.54A9.18,9.18,0,0,1,52,32.49a8.94,8.94,0,0,1-2.34,2.83,1.88,1.88,0,0,1-.24.18A5.33,5.33,0,0,1,44.1,36.29Zm7.3-10c0-.12-.15-.2-.19-.07a31.36,31.36,0,0,1-4.83,8.3c-.31.38.3.8.61.44A21.91,21.91,0,0,0,51.4,26.3Zm-1.73,7.76a18.45,18.45,0,0,0,2.69-5.73.09.09,0,0,0-.17-.06,36.55,36.55,0,0,1-3,5.46A.28.28,0,0,0,49.67,34.06Z"/><path class="cls-1" d="M27.62,34.47a2,2,0,0,0,.19.22,29.86,29.86,0,0,0-2.93,2.2.35.35,0,0,0-.06-.14.53.53,0,0,0-.25-.24l-.09,0-.35-.1C25.29,35.73,26.44,35.09,27.62,34.47Z"/><path class="cls-1" d="M27.06,33.62l.18.31a35.28,35.28,0,0,0-3.64,2.29l-.05,0c-.31-.1-.6-.21-.9-.33a17.55,17.55,0,0,1,2.12-1.28c.36-.18.74-.35,1.12-.51S26.66,33.76,27.06,33.62Z"/><path class="cls-1" d="M29.56,38.48c.9-.3,1.79-.62,2.68-.94a3.94,3.94,0,0,0,.91,1.16l.23.17a13.06,13.06,0,0,0-2.76,1l-.54.26-.3.16-.28.15-.86.49a8.62,8.62,0,0,1,.39-1c.07-.15.15-.3.23-.45l.27-.45A.66.66,0,0,0,29.56,38.48Z"/><path class="cls-1" d="M30.92,36.32l.42,0,.43,0,.06.2.12.32c-1.06.4-2.1.84-3.14,1.3h-.18l-.52,0a8.86,8.86,0,0,0-1,.12c-.33,0-.66.11-1,.19a31.17,31.17,0,0,1,4.27-2.37A5.17,5.17,0,0,0,30.92,36.32Z"/><path class="cls-1" d="M29.45,35.9A28.32,28.32,0,0,0,24.76,39a16.46,16.46,0,0,0-2.09,1.07l-.78.43c.18-.24.37-.48.57-.71a43,43,0,0,1,5.88-4.6A5,5,0,0,0,29.45,35.9Z"/><path class="cls-1" d="M31.43,48.21,31,47.92c.85-1,1.65-2,2.4-3.08.12-.18.24-.37.37-.55.33-.15.65-.31,1-.48C33.72,45.33,32.6,46.79,31.43,48.21Z"/><path class="cls-1" d="M35,42.34l.06-.11,0,0Z"/><path class="cls-1" d="M31.8,48.48c.81-.85,1.59-1.73,2.33-2.64S35.59,44,36.28,43l.14-.08A47.24,47.24,0,0,1,32.5,49Z"/><path class="cls-1" d="M46.83,22.64a20.08,20.08,0,0,1-.1,2.52c0,.22,0,.44-.08.67a23.67,23.67,0,0,1-.9,4.11c-.07.23-.15.45-.22.68a18.82,18.82,0,0,1-.82,2,15.44,15.44,0,0,1-1,1.78,12.07,12.07,0,0,1-.78,1.06,7,7,0,0,1-6.69,2.76,4.66,4.66,0,0,1-1-.31,3.56,3.56,0,0,1-.7-.41l-.17-.13a3.91,3.91,0,0,1-.87-1.07,7.7,7.7,0,0,1-.43-6.13A28.52,28.52,0,0,1,36,23.58c.32-.57.66-1.13,1-1.68l.69-1.09.51-.77c.34-.51.7-1,1.06-1.55l.55-.78,1.12-1.59c.37-.53.74-1.07,1.1-1.61.55-.81,1.08-1.63,1.58-2.47.29-.48.56-1,.83-1.47-.21,1.09-.37,2.19-.56,3.26A58.12,58.12,0,0,1,42.19,21a.11.11,0,0,0,.2.07,40,40,0,0,0,1.86-6.45c.47-2.11,1-4.23,1.46-6.35A62.67,62.67,0,0,0,46.45,18C46.63,19.53,46.78,21.08,46.83,22.64ZM45,28.25a.09.09,0,1,0-.17,0,24.7,24.7,0,0,1-.7,2.69c-.09.3.38.46.46.17A10.54,10.54,0,0,0,45,28.25Zm-2.5,5.91a10.51,10.51,0,0,0,1-5.86c0-.11-.18-.09-.2,0A17.52,17.52,0,0,1,42,33.88C41.87,34.19,42.37,34.45,42.54,34.16Zm-2,1.67a27.29,27.29,0,0,0,1.68-7.42c0-.11-.16-.12-.18,0a41.07,41.07,0,0,1-2.17,7.19C39.73,36,40.4,36.26,40.57,35.83ZM38,36.74a25.19,25.19,0,0,0,2.48-8.08c0-.18-.26-.25-.31-.07-.78,2.72-1.81,5.28-2.85,7.9C37.17,36.93,37.81,37.13,38,36.74Zm-2.37-.51c-.2.44.51.82.75.4A30.26,30.26,0,0,0,39.5,27c0-.13-.2-.18-.23-.05A62.68,62.68,0,0,1,35.65,36.23ZM37.42,24.4A26.6,26.6,0,0,0,34,31.92c-.14.51.6.8.77.29.91-2.6,1.84-5.16,2.83-7.73C37.6,24.39,37.47,24.33,37.42,24.4Zm1,1.11a.13.13,0,0,0-.24-.09c-1.26,3-2.49,6.1-3.47,9.26-.17.53.64.83.81.3C36.5,31.82,37.39,28.64,38.43,25.51Zm6.34-10.77a33.06,33.06,0,0,1-1.43,6,.09.09,0,0,0,.16.06,21.41,21.41,0,0,0,1.73-6.07C45.27,14.49,44.81,14.44,44.77,14.74Z"/><path class="cls-1" d="M45.15,38.28l.28.06A29,29,0,0,1,48.25,41a15.09,15.09,0,0,1,3.43,5.4l-1.17-1-.57-.46a25.19,25.19,0,0,0-5.81-7A6.5,6.5,0,0,0,45.15,38.28Z"/><path class="cls-1" d="M40.29,39.3a29.52,29.52,0,0,1,4.27,4.39,26.46,26.46,0,0,0-3-2.78c-.61-.47-1.25-.92-1.91-1.34a3.66,3.66,0,0,0,.46-.18A1.76,1.76,0,0,0,40.29,39.3Z"/><path class="cls-1" d="M41.22,38.8A26,26,0,0,1,46,43a.53.53,0,0,0,0,.25l.12.34c0,.11.07.22.09.33s.11.44.15.65,0,.21,0,.32l0,.32c0,.17,0,.34,0,.51a27,27,0,0,0-5.66-6.7Z"/><path class="cls-1" d="M41.94,38.31l.31-.23.41-.34,0,0A35.24,35.24,0,0,1,49,44.18c-.5-.37-1-.74-1.54-1.09l-.65-.42a.6.6,0,0,0-.16-.08.57.57,0,0,0-.26,0A13.81,13.81,0,0,0,41.94,38.31Z"/><path class="cls-1" d="M25.37,53.41a44.11,44.11,0,0,0,4.32-4c.46-.49.9-1,1.33-1.49l.41.29c-.5.6-1,1.2-1.52,1.79-.1.11.08.28.19.18.59-.55,1.15-1.12,1.7-1.7l.7.5a27.62,27.62,0,0,1-2.09,2.42c-.6.63-1.23,1.24-1.88,1.83s-1.31,1.15-2,1.68a35.48,35.48,0,0,1-4.34,2.93q-.75.44-1.53.84c-.52.26-1.05.51-1.58.75s-1.11.48-1.68.69l-.85.31c-.85.3-1.71.56-2.58.82l-.87.25-.86.25-.87.25c-.58.17-1.15.34-1.73.53s-1.14.37-1.7.58c-.85.32-1.69.67-2.5,1.07-1.51.74-3,1.52-4.47,2.32l-.61.33L0,67c.1-.15.2-.3.29-.45.28-.18.55-.43.8-.59.54-.33,1.11-.6,1.68-.88a.12.12,0,0,0-.07-.22,8.22,8.22,0,0,0-1.5.49L1,65.48l.23-.37a22.33,22.33,0,0,1,3.14-1.35c.16,0,.08-.31-.08-.27A15.69,15.69,0,0,0,2,64.18a45.1,45.1,0,0,1,7.65-3.56l.75-.24c1.34-.39,2.65-.72,3.94-1.1l1.27-.38a23,23,0,0,0,5-2.16A40.64,40.64,0,0,0,25.37,53.41Z"/></g></g></svg>