<svg xmlns="http://www.w3.org/2000/svg" viewBox="0 0 73.28 14.61"><defs><style>.cls-1{fill:#8a8e6d;}</style></defs><g id="Layer_2" data-name="Layer 2"><g id="Layer_1-2" data-name="Layer 1"><path class="cls-1" d="M6.87,19.35a4.85,4.85,0,0,1-2.9-.9A5.71,5.71,0,0,1,2,15.93a9.58,9.58,0,0,1-.68-3.73,9.09,9.09,0,0,1,.73-3.73,6.23,6.23,0,0,1,2-2.55A4.62,4.62,0,0,1,6.91,5a4.44,4.44,0,0,1,2.74.9,5.91,5.91,0,0,1,1.85,2.5,9.58,9.58,0,0,1,.67,3.7,9.49,9.49,0,0,1-.69,3.7,6.46,6.46,0,0,1-1.9,2.61A4.26,4.26,0,0,1,6.87,19.35Zm.09-1a2.43,2.43,0,0,0,1.74-.71,4.83,4.83,0,0,0,1.16-2,9.21,9.21,0,0,0,.43-3,10.34,10.34,0,0,0-1-4.87A2.88,2.88,0,0,0,6.75,6,2.82,2.82,0,0,0,4.22,7.53a8.39,8.39,0,0,0-.92,4.29,11.72,11.72,0,0,0,.45,3.42A5.2,5.2,0,0,0,5,17.52,2.66,2.66,0,0,0,7,18.33Z" transform="translate(-1.35 -4.76)"/><path class="cls-1" d="M18.34,14.63c0,.79,0,1.43,0,1.91s0,.84.05,1.07a4.17,4.17,0,0,0,0,.44l1.88.31-.05.78H15l0-.78,1.83-.31a5.65,5.65,0,0,0,0-.6c0-.3,0-.69,0-1.16s0-1,0-1.66V9.52c0-.4,0-.8,0-1.21s-.05-.82-.09-1.22l-1.92.45-.07-.9L18.42,5c0,.41,0,.93-.05,1.57s0,1.49,0,2.59Z" transform="translate(-1.35 -4.76)"/><path class="cls-1" d="M23.93,19.38A1.28,1.28,0,0,1,23,19a1.27,1.27,0,0,1-.2-1.53,1.22,1.22,0,0,1,.46-.44,1.34,1.34,0,0,1,.65-.17,1.26,1.26,0,0,1,1,.36,1.19,1.19,0,0,1,.36.88,1.23,1.23,0,0,1-1.28,1.26Z" transform="translate(-1.35 -4.76)"/><path class="cls-1" d="M32.79,19.35a4.87,4.87,0,0,1-2.9-.9A5.69,5.69,0,0,1,28,15.93a9.4,9.4,0,0,1-.68-3.73A9.09,9.09,0,0,1,28,8.47a6.34,6.34,0,0,1,2-2.55A4.62,4.62,0,0,1,32.84,5a4.39,4.39,0,0,1,2.73.9,6,6,0,0,1,1.86,2.5,9.59,9.59,0,0,1,.66,3.7,9.49,9.49,0,0,1-.69,3.7,6.37,6.37,0,0,1-1.9,2.61A4.26,4.26,0,0,1,32.79,19.35Zm.1-1a2.43,2.43,0,0,0,1.73-.71,5,5,0,0,0,1.17-2,9.5,9.5,0,0,0,.42-3,10.34,10.34,0,0,0-1-4.87A2.88,2.88,0,0,0,32.67,6a2.83,2.83,0,0,0-2.53,1.53,8.4,8.4,0,0,0-.91,4.29,11.72,11.72,0,0,0,.45,3.42A5.19,5.19,0,0,0,31,17.52,2.7,2.7,0,0,0,32.89,18.33Z" transform="translate(-1.35 -4.76)"/><path class="cls-1" d="M44.27,14.63c0,.79,0,1.43,0,1.91s0,.84.05,1.07a3.36,3.36,0,0,0,0,.44l1.87.31,0,.78H40.87l0-.78,1.83-.31a4.86,4.86,0,0,0,0-.6c0-.3,0-.69,0-1.16s0-1,0-1.66V9.52c0-.4,0-.8,0-1.21s-.05-.82-.08-1.22l-1.93.45-.07-.9L44.34,5c0,.41,0,.93-.05,1.57s0,1.49,0,2.59Z" transform="translate(-1.35 -4.76)"/><path class="cls-1" d="M49.85,19.38a1.3,1.3,0,0,1-.94-.36,1.22,1.22,0,0,1-.36-.9,1.18,1.18,0,0,1,.16-.63,1.25,1.25,0,0,1,.47-.44,1.39,1.39,0,0,1,1.6.19,1.19,1.19,0,0,1,.36.88,1.22,1.22,0,0,1-.36.9A1.26,1.26,0,0,1,49.85,19.38Z" transform="translate(-1.35 -4.76)"/><path class="cls-1" d="M53.68,19.19l-.1-.71a43.72,43.72,0,0,0,3.67-3.63,11.84,11.84,0,0,0,2-2.84,6,6,0,0,0,.6-2.56,3.13,3.13,0,0,0-.75-2.19A2.7,2.7,0,0,0,57,6.43a3.75,3.75,0,0,0-3.28,1.92L53.11,8a4.89,4.89,0,0,1,1.71-2.18A4.38,4.38,0,0,1,57.38,5a4.73,4.73,0,0,1,2.23.51A3.87,3.87,0,0,1,61.12,6.9,4.08,4.08,0,0,1,61.66,9a7.38,7.38,0,0,1-1.61,4.2A23.22,23.22,0,0,1,55.18,18l.11-.38h5.23l.43,0a.78.78,0,0,0,.28-.07L62,15.41l.81.09-.45,3.74a4.06,4.06,0,0,0-.67-.06l-.66,0H54.52Z" transform="translate(-1.35 -4.76)"/><path class="cls-1" d="M67,13.46a4.26,4.26,0,0,1,1.52-1.77,3.79,3.79,0,0,1,2.09-.63,4.29,4.29,0,0,1,2.08.5,3.75,3.75,0,0,1,1.45,1.37,3.67,3.67,0,0,1,.54,2,4.13,4.13,0,0,1-.62,2.2,4.71,4.71,0,0,1-1.64,1.62,4.34,4.34,0,0,1-2.23.6,4.8,4.8,0,0,1-2.49-.63A4.31,4.31,0,0,1,66,16.94a6.06,6.06,0,0,1-.59-2.77A9.49,9.49,0,0,1,66,10.81,9.09,9.09,0,0,1,67.64,8,9.48,9.48,0,0,1,70.17,6a11.14,11.14,0,0,1,3.28-1.19l.33,1a9.91,9.91,0,0,0-3.55,1.68A7.18,7.18,0,0,0,68,10.19,9.33,9.33,0,0,0,67.27,14a6.34,6.34,0,0,0,.37,2.28,3.35,3.35,0,0,0,1,1.5,2.54,2.54,0,0,0,1.62.52,2.22,2.22,0,0,0,1.79-.82,3.12,3.12,0,0,0,.7-2.12A3,3,0,0,0,72,13.25a2.61,2.61,0,0,0-2-.83,2.94,2.94,0,0,0-1.1.2,3.14,3.14,0,0,0-1,.59,4.27,4.27,0,0,0-.83,1Z" transform="translate(-1.35 -4.76)"/></g></g></svg>