<svg xmlns="http://www.w3.org/2000/svg" viewBox="0 0 90.61 7.09"><defs><style>.cls-1{fill:#8a8e6d;}</style></defs><g id="Layer_2" data-name="Layer 2"><g id="Layer_1-2" data-name="Layer 1"><path class="cls-1" d="M5.89,2.51l.26,1.86-.45,0L5.19,3.11l-.2,0H3.61c0,.06,0,.2,0,.43V6.86c0,.52,0,1,0,1.33s0,.59,0,.69l1,.13,0,.43H1.78l0-.43,1-.13c0-.1,0-.33,0-.69s0-.81,0-1.33V3.52a4,4,0,0,0,0-.43H1.35l-.19,0L.66,4.44.2,4.37.46,2.51l.26,0h4.9Z" transform="translate(-0.2 -2.46)"/><path class="cls-1" d="M7,9.44l0-.41.71-.15a.72.72,0,0,0,0-.26c0-.13,0-.32,0-.56s0-.53,0-.88V4.83c0-.36,0-.66,0-.9s0-.43,0-.56a.62.62,0,0,0,0-.25L6.94,3l0-.41H9.28L9.3,3l-.71.15a1.22,1.22,0,0,0,0,.21c0,.12,0,.3,0,.54s0,.56,0,1V7.18c0,.39,0,.7,0,1s0,.42,0,.53a1.41,1.41,0,0,0,0,.22L9.3,9l0,.41ZM8.41,6.22V5.58l.7,0h2.28l.67,0v.64l-.7,0H9.12ZM11.2,9.44l0-.41.71-.15a.65.65,0,0,0,0-.22c0-.11,0-.29,0-.53V3.87c0-.24,0-.42,0-.54a.58.58,0,0,0,0-.21L11.18,3l0-.41h2.35l0,.41-.71.15a.68.68,0,0,0,0,.21c0,.11,0,.29,0,.53V8.13c0,.24,0,.42,0,.53a.9.9,0,0,0,0,.22l.71.15,0,.41Z" transform="translate(-0.2 -2.46)"/><path class="cls-1" d="M19.72,9.5a4.79,4.79,0,0,0-.55-.05H14.75l0-.41.7-.15a.72.72,0,0,0,0-.26c0-.13,0-.32,0-.56s0-.54,0-.88V4.83c0-.35,0-.65,0-.89s0-.44,0-.57a.62.62,0,0,0,0-.25L14.73,3l0-.41h4.4l.42,0L19.78,4l-.49.07-.38-1-.18,0H16.65l-.33,0v.27c0,.14,0,.31,0,.49s0,.37,0,.53V7.78c0,.13,0,.27,0,.42s0,.28,0,.4v.24l.32,0h2.05l.27,0,.14,0,.61-1.09.48.09ZM18.48,7l-.15-.81a.61.61,0,0,0-.19,0h-1.6l-.39,0v-.6l.39,0h1.6l.19,0,.15-.82h.46V7Z" transform="translate(-0.2 -2.46)"/><path class="cls-1" d="M28.5,4.13,26.38,9.47h-.47L23.52,3.12,22.93,3l0-.41h2.09l0,.41-.59.14,1.94,5.27h-.14l1.92-5.16Zm1.61,5.34L27.76,3.12,27.18,3l0-.41h2.18l0,.41-.7.14,1.9,5.27h-.16l1.88-5.26L31.5,3l0-.41h2.09l0,.41-.59.15-2.5,6.35Z" transform="translate(-0.2 -2.46)"/><path class="cls-1" d="M39.33,9.5a5,5,0,0,0-.55-.05H34.36l0-.41.7-.15a2.07,2.07,0,0,0,0-.26c0-.13,0-.32,0-.56s0-.54,0-.88V4.83c0-.35,0-.65,0-.89s0-.44,0-.57a1.62,1.62,0,0,0,0-.25L34.34,3l0-.41h4.4l.42,0L39.39,4l-.5.07-.37-1-.19,0H36.25l-.32,0s0,.12,0,.27,0,.31,0,.49V8.2c0,.15,0,.28,0,.4s0,.2,0,.24l.32,0h2l.27,0,.15,0,.61-1.09.48.09ZM38.09,7l-.16-.81a.6.6,0,0,0-.18,0h-1.6l-.4,0v-.6l.4,0h1.6l.18,0,.16-.82h.45V7Z" transform="translate(-0.2 -2.46)"/><path class="cls-1" d="M40.8,2.56h2.72a4.25,4.25,0,0,1,2.87.89,3.07,3.07,0,0,1,1,2.47A3.47,3.47,0,0,1,47,7.75,3.31,3.31,0,0,1,45.62,9a4.05,4.05,0,0,1-1.94.45H40.8l0-.41.7-.15a5.55,5.55,0,0,0,.05-.61c0-.32,0-.69,0-1.09V4.83c0-.45,0-.83,0-1.15a4,4,0,0,0-.05-.56L40.78,3Zm1.6.6c0,.08,0,.17,0,.29s0,.27,0,.49V7.85c0,.2,0,.38,0,.53s0,.29,0,.4l.72.08a6.08,6.08,0,0,0,.61,0,2.67,2.67,0,0,0,2-.69,2.63,2.63,0,0,0,.68-1.94,4.3,4.3,0,0,0-.19-1.34,2.69,2.69,0,0,0-.56-1,2.55,2.55,0,0,0-1-.63,3.78,3.78,0,0,0-1.33-.22l-.48,0A3.35,3.35,0,0,0,42.4,3.16Z" transform="translate(-0.2 -2.46)"/><path class="cls-1" d="M48.73,2.56h2.72a4.29,4.29,0,0,1,2.87.89,3.1,3.1,0,0,1,1,2.47,3.47,3.47,0,0,1-.48,1.83A3.25,3.25,0,0,1,53.54,9a4.05,4.05,0,0,1-1.94.45H48.73l0-.41.71-.15c0-.08,0-.28,0-.61s0-.69,0-1.09V4.83c0-.45,0-.83,0-1.15a5,5,0,0,0,0-.56L48.7,3Zm1.59.6c0,.08,0,.17,0,.29s0,.27,0,.49V7.85c0,.2,0,.38,0,.53s0,.29,0,.4l.72.08a6.08,6.08,0,0,0,.61,0,2.67,2.67,0,0,0,2-.69,2.63,2.63,0,0,0,.68-1.94,4.3,4.3,0,0,0-.19-1.34,2.69,2.69,0,0,0-.56-1,2.51,2.51,0,0,0-.94-.63,3.86,3.86,0,0,0-1.33-.22l-.48,0A3.28,3.28,0,0,0,50.32,3.16Z" transform="translate(-0.2 -2.46)"/><path class="cls-1" d="M56.65,9.44l0-.41.7-.15a2.07,2.07,0,0,0,0-.26c0-.13,0-.32,0-.56s0-.53,0-.88V4.83c0-.36,0-.66,0-.9s0-.43,0-.56a1.62,1.62,0,0,0,0-.25L56.63,3l0-.41H59L59,3l-.71.15a1.22,1.22,0,0,0,0,.21c0,.12,0,.3,0,.54V8.13a5.24,5.24,0,0,0,0,.53,1.41,1.41,0,0,0,0,.22L59,9l0,.41Z" transform="translate(-0.2 -2.46)"/><path class="cls-1" d="M65.44,7.92V5c0-.48,0-.86,0-1.13s0-.46,0-.58a1.37,1.37,0,0,0,0-.21L64.59,3l0-.41h2.15l0,.41-.72.15s0,.09,0,.21a4.07,4.07,0,0,0,0,.59c0,.27,0,.65,0,1.12V8.7c0,.25,0,.51,0,.79h-.47L61.37,3.58h.15V7c0,.47,0,.85,0,1.12a5.59,5.59,0,0,0,0,.59c0,.11,0,.18,0,.21l.8.15,0,.41H60.18l0-.41.72-.15s0-.09,0-.21,0-.3,0-.58,0-.65,0-1.13V3.9c0-.23,0-.4,0-.52s0-.2,0-.26L60.14,3l0-.41h1.53l3.87,5.36Z" transform="translate(-0.2 -2.46)"/><path class="cls-1" d="M71.8,9.54a4.56,4.56,0,0,1-1.91-.38A3.16,3.16,0,0,1,68.53,8,3.54,3.54,0,0,1,68,6a3.63,3.63,0,0,1,.25-1.35A3.44,3.44,0,0,1,69,3.54a3.39,3.39,0,0,1,1.2-.79,4.18,4.18,0,0,1,1.64-.29,6.33,6.33,0,0,1,1,.08,4.18,4.18,0,0,1,1,.27l.08,1.5-.46.06-.34-1a1.39,1.39,0,0,0-.61-.25A4,4,0,0,0,71.75,3a2.76,2.76,0,0,0-1.55.39,2.33,2.33,0,0,0-.87,1.05,3.64,3.64,0,0,0-.27,1.4,3.66,3.66,0,0,0,.37,1.73,2.65,2.65,0,0,0,1,1.06A2.85,2.85,0,0,0,71.88,9a3.22,3.22,0,0,0,.83-.11,2.37,2.37,0,0,0,.8-.38l-.29.67V7.94c0-.27,0-.51,0-.72a3.52,3.52,0,0,0,0-.45l-.78-.12,0-.42h2.1l0,.4-.5.13v.8c0,.32,0,.57,0,.77s0,.38,0,.57A3.59,3.59,0,0,1,73,9.37,4.26,4.26,0,0,1,71.8,9.54Z" transform="translate(-0.2 -2.46)"/><path class="cls-1" d="M81.26,9.54a3.46,3.46,0,0,1-1.78-.44,3.19,3.19,0,0,1-1.22-1.25A3.75,3.75,0,0,1,77.82,6a3.62,3.62,0,0,1,.46-1.84,3.38,3.38,0,0,1,1.23-1.26,3.45,3.45,0,0,1,1.78-.46A3.2,3.2,0,0,1,83,2.9a3,3,0,0,1,1.15,1.24A3.79,3.79,0,0,1,84.56,6a3.78,3.78,0,0,1-.25,1.4,3.69,3.69,0,0,1-.7,1.14,3,3,0,0,1-1,.77A3.12,3.12,0,0,1,81.26,9.54ZM81.38,9a1.93,1.93,0,0,0,1.15-.34,2.18,2.18,0,0,0,.76-1,3.56,3.56,0,0,0,.28-1.44,4.45,4.45,0,0,0-.31-1.7,2.74,2.74,0,0,0-.84-1.14A2,2,0,0,0,81.15,3a2.06,2.06,0,0,0-1.67.76,3.25,3.25,0,0,0-.61,2.09,3.86,3.86,0,0,0,.32,1.63,2.63,2.63,0,0,0,.89,1.12A2.18,2.18,0,0,0,81.38,9Z" transform="translate(-0.2 -2.46)"/><path class="cls-1" d="M85.86,9.44l0-.41.66-.15s0-.11,0-.23,0-.28,0-.51V3.8c0-.21,0-.37,0-.48a1.54,1.54,0,0,0,0-.2L85.79,3l0-.41h4.36l.41,0L90.81,4l-.49.07-.39-1-.17,0H87.71l-.35,0v.19c0,.09,0,.21,0,.35V7.11c0,.43,0,.77,0,1s0,.43,0,.54a.88.88,0,0,0,0,.22l.95.13,0,.43Zm3.65-2.33-.15-.85-.21,0h-2V5.64l.3,0H88.8l.37,0a.75.75,0,0,0,.19,0l.15-.81H90v2.3Z" transform="translate(-0.2 -2.46)"/></g></g></svg>