<svg xmlns="http://www.w3.org/2000/svg" xmlns:xlink="http://www.w3.org/1999/xlink" viewBox="0 0 205.87 276.76"><defs><style>.cls-1{fill:#b69991;}.cls-2{clip-path:url(#clip-path);}.cls-3{fill:#f2f3eb;}</style><clipPath id="clip-path"><path class="cls-1" d="M205.73,138.76c-4.58,5.4-7.45,13.58-8.52,24.33-.35,3.4-.64,7.37-.93,11.57-1.44,20.15-4.13,57.41-18.61,57.41l-6.95-.23.12,6.42c.39,20.95-17.68,25-41.35,28-3.21.41-6.23.81-8.9,1.29-7.15,1.3-12.94,4.32-17.19,9a.64.64,0,0,1-.93,0c-4.25-4.65-10-7.67-17.19-9-2.67-.48-5.69-.88-8.91-1.29-23.66-3.07-41.74-7.09-41.34-28l.12-6.42-6.93.23c-14.51,0-17.19-37.26-18.62-57.28-.31-4.34-.6-8.31-.94-11.7C7.59,152.34,4.72,144.16.13,138.76a.63.63,0,0,1,0-.76c4.59-5.4,7.46-13.59,8.53-24.34.35-3.43.63-7.44.94-11.69,1.43-20,4.12-57.29,18.59-57.29l7,.24L35,38.49c-.4-21,17.68-25,41.34-28,3.22-.41,6.24-.8,8.91-1.29,7.14-1.3,12.94-4.32,17.19-9a.64.64,0,0,1,.93,0c4.25,4.64,10,7.66,17.19,9,2.67.49,5.69.88,8.9,1.29,23.67,3.08,41.74,7.09,41.35,28l-.12,6.43,6.93-.24c14.5,0,17.19,37.25,18.61,57.28.29,4,.59,8.22,1,11.7,1.07,10.75,3.94,18.94,8.52,24.34A.6.6,0,0,1,205.73,138.76Z"/></clipPath></defs><g id="Layer_2" data-name="Layer 2"><g id="Layer_1-2" data-name="Layer 1"><path class="cls-1" d="M205.73,138.76c-4.58,5.4-7.45,13.58-8.52,24.33-.35,3.4-.64,7.37-.93,11.57-1.44,20.15-4.13,57.41-18.61,57.41l-6.95-.23.12,6.42c.39,20.95-17.68,25-41.35,28-3.21.41-6.23.81-8.9,1.29-7.15,1.3-12.94,4.32-17.19,9a.64.64,0,0,1-.93,0c-4.25-4.65-10-7.67-17.19-9-2.67-.48-5.69-.88-8.91-1.29-23.66-3.07-41.74-7.09-41.34-28l.12-6.42-6.93.23c-14.51,0-17.19-37.26-18.62-57.28-.31-4.34-.6-8.31-.94-11.7C7.59,152.34,4.72,144.16.13,138.76a.63.63,0,0,1,0-.76c4.59-5.4,7.46-13.59,8.53-24.34.35-3.43.63-7.44.94-11.69,1.43-20,4.12-57.29,18.59-57.29l7,.24L35,38.49c-.4-21,17.68-25,41.34-28,3.22-.41,6.24-.8,8.91-1.29,7.14-1.3,12.94-4.32,17.19-9a.64.64,0,0,1,.93,0c4.25,4.64,10,7.66,17.19,9,2.67.49,5.69.88,8.9,1.29,23.67,3.08,41.74,7.09,41.35,28l-.12,6.43,6.93-.24c14.5,0,17.19,37.25,18.61,57.28.29,4,.59,8.22,1,11.7,1.07,10.75,3.94,18.94,8.52,24.34A.6.6,0,0,1,205.73,138.76Z"/><g class="cls-2"><path class="cls-3" d="M101.55,188.24H44.1c-1.56,0-1.57,0-1.68-1.53a49.12,49.12,0,0,1,7.47-30,48.1,48.1,0,0,1,20-18,46.85,46.85,0,0,1,20.82-4.8h21.68a46.79,46.79,0,0,1,26.81,8.15A48.57,48.57,0,0,1,159,169a50.09,50.09,0,0,1,1.94,17.51c-.1,1.74-.12,1.74-1.81,1.74Z"/><path class="cls-3" d="M130.78,100.61a29.13,29.13,0,1,1-28.94-29.44A29.31,29.31,0,0,1,130.78,100.61Z"/></g></g></g></svg>