<svg xmlns="http://www.w3.org/2000/svg" viewBox="0 0 302.77 377.13"><defs><style>.cls-1{fill:#f2f3eb;}</style></defs><g id="Layer_2" data-name="Layer 2"><g id="Layer_1-2" data-name="Layer 1"><path class="cls-1" d="M30.73,248.5c.85,1.05.5,2.07-.17,3.3a4.51,4.51,0,0,1-2-4.13A2.41,2.41,0,0,0,26.77,245c1.76,6.32,4.51,12.53.21,19.24a24.6,24.6,0,0,1,9.15-1.71c11,.24,19.61,6.5,21.94,15.69,1.53,6,.84,11.93-.57,17.89a40.31,40.31,0,0,0-.51,6.57c.31.09.5.19.56.16,1.3-.79,2.7-1.31,4.16-.4a3.29,3.29,0,0,1,1.68,3.9A6.14,6.14,0,0,1,60,310.43c-1,.5-.91.86-.16,1.42a15.39,15.39,0,0,0,9,3c1.22,0,2-.14,1.44-1.52a4.38,4.38,0,0,1,.6-4.69c1.55,1.2,2.34,2.42,1.4,4.07,0-1,0-2-1-2.71a2,2,0,0,0-.67,1.86c.09.69-.13,1.65,1.41,1.41,0,.4-.31,1,.8.7,1.77-.52,3.9-3.12,3.74-4.61-.08-.76-.62-.94-1.44-1a3.91,3.91,0,0,1-3-1.53c-.31-.4-.58-.93-.22-1.31s1-.06,1.56.11a6.12,6.12,0,0,1,2.5,2c.26-2.71-.19-3.38-2.82-4.44a3,3,0,0,1-.87-.5c-.62-.62-1.53-1.62-.86-2.08.89-.62,1.93,0,2.42,1,.23.45.81.77,1.27,1.19.75-1.13.42-2.78,2.35-3.26a1.15,1.15,0,0,1,1.53.89c-2-.38-2.79.09-2.85,1.85,0,1.93.7,3.75,1.35,5.78,1.22-.89,1.73-2.07,3-2.59.5-.2,1.1-.67,1.55-.35s.14,1-.13,1.45a3.7,3.7,0,0,1-2.87,1.65c-.82.14-1.56.23-1.62,1.1a6.19,6.19,0,0,1-2.75,4.49c.72.4,1.34-.08,1.91.08l0,0c-.75.69-1.32,1.68-2.82.94a1.42,1.42,0,0,0-.82.08c-5.83,1.81-10.47.2-14.49-3.26-.08-.08-.25-.09-.38-.13l.08.05a1.94,1.94,0,0,0-1.86-1c-.82.17-.46,1-.54,1.54a27.63,27.63,0,0,0,1,13.55,10,10,0,0,0,3.77,5.14c.25-.17.43-.23.43-.3.06-1.41-.11-2.88,2.18-3.37s5.17.23,6.43,1.67a5.68,5.68,0,0,1,1.45,3.08c.11.78.24,1.12,1.43.88,5.58-1.11,7.93-.14,10.3,4.22.61,1.12,1.06.31,1.53,0,3.81-2.26,8.28-.77,8.8,3a3.19,3.19,0,0,1-1.74,3.41c-.25-.62.36-.9.51-1.32a3.76,3.76,0,0,0-2.25-4.7A4.73,4.73,0,0,0,84,338.56c-2.38,2.47-2.41,5.18-1,7.94a17.11,17.11,0,0,0,8.9,7.63,34.75,34.75,0,0,0,17.87,2.3,3,3,0,0,0,2.66-1.55,9.33,9.33,0,0,1-1.15,4.28c4.11-.35,5.78-3,8.16-4.94-.91,1.66.57,3.11,0,4.8,3.62-.93,4.41-3.73,6.87-5.25-.64.86-1.27,1.72-1.94,2.56-.43.54-.41,1,.28,1.34a3.59,3.59,0,0,0,2.38.65c.63-.13.18-.55.07-.85-.7-1.94-.11-3,2.19-3.7a9.21,9.21,0,0,1,7.9,1,16,16,0,0,0-6.09-.56c-3.3.5-4,1.39-2.63,3.89.42.79.16,1.08-.82,1.11a3.43,3.43,0,0,1-2.06-.43,2.76,2.76,0,0,0-4,.33,3.59,3.59,0,0,1-1.49.68c-.51.14-1.08.53-1.61.14s-.09-.76,0-1.15a2,2,0,0,0-.37-2.16c-2.4,2-4.75,4.18-8.76,3.37,0-.7.7-.93,1.06-1.34s1-.84.67-1.36-1-.12-1.6-.06a41.9,41.9,0,0,1-10.79-.13c-6.75-1-12-3.89-15.69-8.56-1.39-1.73-1.77-3.68-2.2-5.85-2.3,1.21-4.3,1.1-5.87-.73-.25-.29-.58-.22-1-.2-4.29.2-5.29-.52-5.67-4a1.74,1.74,0,0,0-.18-.37,29.83,29.83,0,0,1-3.73.69,12,12,0,0,1-10.1-3.82c-3.28-3.53-4-7.66-4.59-11.87A28.75,28.75,0,0,1,51,309.92c-1.84.7-2.94,1.36-2.37,3a2.73,2.73,0,0,1-.86,2.8c-.66.69-1.24,2-2.37,1.62-.89-.34-.43-1.7-.12-2.59a5,5,0,0,1,.71-1.06c0,.69-.31,1.41.18,2.19a4.23,4.23,0,0,0,1.92-2.93c0-.26.17-.65-.27-.74s-.72.24-1,.53c.06-.65-.34-.68-.93-.45-.75.3-1.72.35-1.75,1.31-.06,2.1-1.94,3-4,3.75-.31.12-.65.34-1,.09s-.25-.67,0-1-.08-.59.73-.52a3.31,3.31,0,0,0,3.32-2,.45.45,0,0,0-.37-.7c-1.66-.19-3.49-.32-4.63.78a11.39,11.39,0,0,1-4.22,2.33c-.49.18-1.25.84-1.55,0-.2-.54.36-1.14,1.26-1.35,3.07-.72,5.47-2.83,9-2.65-1.52-.8-3.35-.76-4.47-1.87-.34-.34-1-.68-.45-1.16s.89.07,1.24.32a4.51,4.51,0,0,0,3.1,1,.9.9,0,0,1,.92.34c1,1.78,2.42.9,3.72.34,3.86-1.66,4.75-3.5,3.34-6.94-1.2.73-1.45,1.87-2.06,2.82-.82,1.29-2,2.83-3.68,2.5-1.34-.25-.63-2.06-.6-3.15,0-1.8.33-3.62,2.53-4.71l-.05,0c-.73,1.44-1.91,2.73-2,4.36a3.57,3.57,0,0,0,.56,2.54c2.1-.92,2.88-2.59,3.9-4.12.39-.57.61-1.49,1.74-1.3s.65,1.12.79,1.76c.9,3.95-.45,7.79-.81,11.67a26.75,26.75,0,0,0,1.66,12.47A12.48,12.48,0,0,0,64.54,337c3.27-.22,5.65-2.13,5.54-4.46a5.31,5.31,0,0,0-5.52-4.72c-1.21,0-2.41.12-2.88,1.17a2.11,2.11,0,0,0,.94,2.84c.33.21.63.45,1.28.93-2.77-.28-4.54-1.16-5.85-2.74a16.08,16.08,0,0,1-3.24-8.27,25.36,25.36,0,0,1,.59-11.32c.19-.61.09-2.48,1.82-.58.8.89,2.08.49,2.9-.11,1.58-1.14,2.44-2.63,2.08-4.38a2.31,2.31,0,0,0-2.66-2.08c-1.78.11-2,1.29-2.25,2.4-.1.42.6.88-.32,1.38a6.59,6.59,0,0,1-.93-4.14c-.07-4.87,1.24-9.64,1.63-14.46a27.93,27.93,0,0,0-3.1-14.92c-3.71-7.38-15.66-11.64-25-9.07a7.88,7.88,0,0,0-5.38,4c-1.74,3.54.6,6.84,5.26,7.41a6.68,6.68,0,0,0,1.73,0c2-.26,3.7-1.64,3.88-3.11.27-2.16-1.73-2.72-3.66-3.26,4.88-2.22,9.33-1.78,13.24,1.39,2.78,2.26,3,5.25.74,9.08,2.13.41,2.32.31,4.89-2.63a5.93,5.93,0,0,1,.79,3.81c-.82-.62-.09-1.47-1-2.06-1.84,1.27-3.86,2.34-6.5,1.31,2.89-2.75,3.37-5.73,1.34-8.15a10.12,10.12,0,0,0-10.51-2.93c1.19,1,2.27,2,2,3.48a4,4,0,0,1-1.57,2.43,8.35,8.35,0,0,1-8.81.27c-3-1.75-3.94-4.05-2.73-6.92a2.68,2.68,0,0,0-1.74.17,7.76,7.76,0,0,1-7.48-2.18c-1.84-1.75-1.72-3.78-.6-5.77a5.09,5.09,0,0,1,5-2.43c2.21.14,3.27,1,4.26,3.68a9.46,9.46,0,0,0,1.7-7.07c-.82-5.17-3.92-9.68-6.39-14.4-.75,1.37-1.49,2.63-.13,4,.89.91.61,2.12.5,3.22,0,.29-.1.62-.57.64s-.6-.29-.78-.53c-.68-.86-.62-1.87-.82-3.08C15,246,14.2,247,15.17,248.42a3.54,3.54,0,0,1,0,3.72,1.23,1.23,0,0,1-.71.59c-.52.1-.72-.31-.87-.63a5.16,5.16,0,0,1-.32-1c-.33-1.49,1-3-.11-4.52a6,6,0,0,1-3.91.88c-.26,0-.61-.13-.71-.29-.21-.34.19-.5.49-.64a6.06,6.06,0,0,1,2.3-.42c3.51-.09,3.73-.24,4.84-3.08a8.81,8.81,0,0,0-3.82.62c-.7.21-1.57.58-1.93,0-.52-.84.7-1,1.32-1.25A6.75,6.75,0,0,1,14,242c3,0,3.32-.35,2.6-2.9-.65.27-1.25.57-1.9.77a5.27,5.27,0,0,1-5.35-.94c-1.43-1.28-2.08-2.79-1.2-4.52a2.61,2.61,0,0,1,2.56-1.31A2.5,2.5,0,0,1,13,234.18c.37.57.52,1.12-.45,1.43l-.1-.08c.19-1-.45-1.57-1.62-1.7s-1.75.64-2,1.46c-.55,1.51.58,3.35,2.47,4.07a4.38,4.38,0,0,0,4.91-1.19c.24-.28.24-.7.9-.82,3.65,6,7.49,11.9,8.21,18.73a8.2,8.2,0,0,1-2.62,7,3.9,3.9,0,0,1-3.39,1.22,1.69,1.69,0,0,1-1.61-1.24c-.13-.65-.1-1.3,1-1.43.58.59-.89,1.55.51,1.95a1.89,1.89,0,0,0,1.64-.2,2.2,2.2,0,0,0,.79-2.27,2,2,0,0,0-.9-1.35,4.41,4.41,0,0,0-6,.37c-2.05,2.17-1.5,4.92,1.37,6.81a6.65,6.65,0,0,0,8.31-.5c3.06-2.84,4-6.29,4.17-9.91.21-4.24-1.24-8.21-3.19-12.07-1.45-2.86-3.11-5.65-4.65-8.48-.34-.61-1.27-1.44.58-1.53.86-2.9,2.58-.48,3.92-.41.19,0,.39.05.72.1-.6-3.58-4.81-3.86-7.8-5.65,1.25-.35,2.5-.11,3.11-.92.18-.24.39-.57.31-.79-.14-.4-.58-.11-.9-.1-2.24.06-4.87-1.29-5.71-2.89-.45-.86-.41-1.38,1-1.15a6.68,6.68,0,0,0,3.9-.51c-1.2-.89-2.78-1.15-3.75-2.1-.78-.77-1.22-1.43,0-2.19s1.1-1.65.49-2.66c-3.59,1.87-6.52,1.06-8.06-2.19A12.56,12.56,0,0,1,7.4,207.4c1.16,0,1.59.81,2.43,1a2.28,2.28,0,0,0,2.47-.69c.5-.7-.62-.75-1.06-1-2.33-1.39-3.19-3.21-2.7-5.51.69-3.21,2.87-5.6,6.25-7.23,1.24-.6,2.77-1.46,4.28-.19l-.36.37c-4.4.24-9,3.83-9.48,7.3-.27,2.26,1.31,4.36,4,5,1.54.37,1.07.81.34,1.4A4.48,4.48,0,0,1,9.89,209c-1.45-.25-1.4.37-1.26,1.14a8.23,8.23,0,0,0,2.17,4.34c.72.74,1.43,1.55,2.78,1.41a2.36,2.36,0,0,0,2.26-2c2.07,1,2.85,2.43,1.59,3.72-1.46,1.51-.36,2.14.92,2.89.29.17.64.28.92.46.6.41,2,.28,1.73,1.24s-1.51,1.14-2.63,1.18c-.79,0-1.58,0-2.37,0,.69,2.27,2.87,3.17,5.49,2.22.39-.14.75-.41,1.17-.12s.17.65.06,1a.71.71,0,0,1-.14.33c-2.24,2.08-.33,2.87,1.66,3.84a5.69,5.69,0,0,1,3,4.11c.09.38.28.88-.21,1.14s-.88-.16-1.26-.41a12.12,12.12,0,0,0-1.75-1c-.46-.2-1.11-.57-1.48.06s-1.23.81-.69,1.67c1.2,1.93,2.26,3.91,3.33,5.89.41.76.94.9,1.83.49a6.52,6.52,0,0,1,3.51-.72c.41.05.93,0,1.14.35s-.2.75-.52,1.06c-1,.9-2.38.69-3.61,1,1,2.18,2.41,2.6,4.71,1.45a11.76,11.76,0,0,1,4-1.2c.63-.06,1.47,0,1.69.5s-.61.7-1,1c-.22.14-.48.25-.72.37l1-1.17a7,7,0,0,0-5,1.21c.64.65,1.42.31,2.07.43-.53.51-1.4.13-2,.53,1.42,1.17,3.87.76,5.09,2.18h0a1.44,1.44,0,0,0-1.57-.15c-.4.35.61.52.59.94-.22.25-1.67-.63-.82.58A4.42,4.42,0,0,0,38,252.64c0-1.21-1.39-1.56-1.74-2.42a4.33,4.33,0,0,1,2.91,3.24,6,6,0,0,1-4.92-3.22,4.76,4.76,0,0,0-2.79-2.54c-.4-.13-.84-.34-.84.29-.49.13-1.2-.75-1.36-.06a2.12,2.12,0,0,0,1.22,2.73C31,249.86,30.62,249.17,30.73,248.5Zm46.66,90.35c-1,.76-2.24,1.4-1,2.51a3,3,0,0,0,3.86.11,4.53,4.53,0,0,0,1.22-1.21,3.92,3.92,0,0,0-.65-5.24,7.29,7.29,0,0,0-6.94-1.88c-2.46.55-3.7,1.91-4,3.89a2.57,2.57,0,0,0,2.56,3.25c2.33.18,2.5-1.07,2.26-2.66A8.61,8.61,0,0,0,77.39,338.85Zm-63-87.33c1-1.76,1-1.87-.06-3C13.56,249.47,13.64,250.38,14.38,251.52Zm13-8.17c2.36.22,2.5.16,3.34-1.08A4.59,4.59,0,0,0,27.39,243.35Z"/><path class="cls-1" d="M243.51,66.25c.47-.18,1.3,0,1.06-.83-.51-1.9-1.12-3.67-3.2-5-1.24-.79-2-2-3.38-2.8a3.81,3.81,0,0,0-4.15,0,5.12,5.12,0,0,1-4.87.46c-.67-.29-1.66-.53-1.45-1.32.17-.63,1.07-.7,1.79-.77a6.72,6.72,0,0,1,3.39.34,2.32,2.32,0,0,0,2.39.05,11.1,11.1,0,0,0-6.27-2.08,6,6,0,0,1-5.22-2.65c-.68-.87-.18-1.22.91-1.07,2.44.32,4.84.72,6.31,2.63.73.94,2,1.25,3.43,1.64-.42-1.29-1.78-2.09-1.94-3.32-.05-.36-.17-.75.22-1s.8.11,1.1.31c1.19.78,2.6,1.56,2.64,2.87.07,1.9,1.28,3,3.16,3.82A21.8,21.8,0,0,1,241.77,59c-.28-1.36-1.53-2.27-1-3.45.22-.48.21-1.22.9-1.3s.93.61,1.19,1.08a2.12,2.12,0,0,1,0,2.36c-.77,1.11-.5,2.06.37,3.09,1.31,1.54,2.4,3.2,2,5.2a.8.8,0,0,0,.65,1c.73.14.73-.42.79-.8.79-5.21.77-10.39-1.43-15.41a7.09,7.09,0,0,0-3.45-4c-.16.12-.25.15-.26.19-.15,1.42.19,3-2.35,3.39-3.05.41-5.49-.38-6.73-2.23a6.89,6.89,0,0,1-1.09-2.83c-.08-.5-.17-.79-1.07-.65-6.54,1-8.4.2-11-4.74-.78,0-1.14.62-1.72.91a5.9,5.9,0,0,1-5.69.09,4.18,4.18,0,0,1-2.41-4.73c.42-1.72,1.8-2.62,3.9-2.79,1.34-.1,1.53-.66,1.07-1.54a8,8,0,0,0-2.77-3.09,21.4,21.4,0,0,0-18.48-2.62c-.69.2-1.12,1.45-1.69.72-.42-.54,1-1.13,1.75-1.49,3.3-1.59,6.9-1.59,10.49-1,6.35,1.13,11.56,3.4,12.91,9.18-.33.37-.78.22-1.18.16-1.7-.26-3.2,0-4.14,1.26a3.44,3.44,0,0,0,.9,4.4,4.73,4.73,0,0,0,4.77.78,6.3,6.3,0,0,0,3.9-6.7c-.78-3.94-3.52-6.89-7.46-9.09-6.21-3.45-13.17-4.24-20.5-3.43a4.22,4.22,0,0,0-2.07.93c-.36-1.28.48-2.38.85-3.71-3.79.42-5.51,2.83-7.91,5.13.37-1.84-.34-3.19-.21-4.79-3.55.87-4.38,3.68-6.74,5.66-.11-1.08.75-1.45,1.15-2,1.58-2.09,1.15-2.79-2.33-3,1.3,1.88.95,3.42-1.4,4.4a9.1,9.1,0,0,1-8.61-1.08,12.5,12.5,0,0,0,6.67.75c3-.56,3.65-1.64,2.31-3.8-.62-1,.27-1.39.95-1.06,2.93,1.42,5.34.6,7.85-.71,1-.53,1.42.08,1.23.91a2.75,2.75,0,0,0,.22,2.38c2.36-2.06,4.69-4.17,8.66-3.44,0,.21.06.35,0,.42-.58.71-2.05,1.33-1.59,2.11s2,.12,2.95.06c7.62-.53,14.73.42,20.66,4.66,3.32,2.37,5.93,5.14,6.37,8.87.1.86.31,1.19,1.4.69a3.16,3.16,0,0,1,3.43.16,4.87,4.87,0,0,0,3.92,1.08,3.5,3.5,0,0,1,3.88,3.11c.17,1.15.35,1.58,2,1.16a11.84,11.84,0,0,1,11.21,2.52c3.6,3.19,4.72,7.15,5.34,11.25a27.5,27.5,0,0,1-.66,12.71c-.09.29-.81,1.08.52,1a1.63,1.63,0,0,1,.37.08c-.12.14-.23.29-.37.43-1.65,1.59-.52,3.34-.42,5,0,.21.91.26.38.71a1.21,1.21,0,0,1-.79.18.7.7,0,0,1-.73-.74c.26-2.27-.75-4.5-.18-6.8,1.41-5.74,1.64-11.5-.32-17.2a12.32,12.32,0,0,0-9.88-8.69,9.59,9.59,0,0,0-4.7.16c-2.66.78-3.92,2.27-3.71,4.38.24,2.36,2,4.05,4.69,4.43,1.41.2,2.84.25,3.54-1s.2-2.28-1.11-3.09l-1.27-.82c3,.32,4.79,1.22,6.09,2.87A16.15,16.15,0,0,1,247.78,55a27.26,27.26,0,0,1-.47,11.68c-.26.94-.44,2.4-2,.56a1.65,1.65,0,0,0-1.41-.31c-1.3.14.2-.61-.33-.7ZM225.13,38.56c1.08-.84,2.33-1.4,1.15-2.48a2.85,2.85,0,0,0-3.64-.32A4.29,4.29,0,0,0,221,37.35c-1,1.91-.48,3.65,1.06,5.22a7.57,7.57,0,0,0,7,1.64,4.53,4.53,0,0,0,3.73-3.89,2.53,2.53,0,0,0-2.42-3.16c-2.39-.33-2.44,1-2.44,2.43C226.94,39.29,226.32,38.63,225.13,38.56Zm5,14.77c-1.6-1.09-3-2.08-5.29-1.88C226.43,53.43,227.84,54,230.11,53.33Zm3,3.79c-1.4-.53-2.76-1-4.26-.45-.44.17-.21.52.12.68A3.49,3.49,0,0,0,233.16,57.12Zm.32-5.34c.25,1.52.64,2,2.29,2.83C235.28,52.78,235.15,52.61,233.48,51.78Z"/><path class="cls-1" d="M48.9,97.38c-1,0-1.83-.78-2.88-.28,2.39,4.15,2.25,7.09-.76,9.36s-6.82,4-12.95,1.24c1.46-.45,3-.78,3.5-2.09a2.33,2.33,0,0,0-.29-2.2c-1.27-2.06-4.61-2.82-7.29-1.54-1.87.89-3.69,1.95-3.66,4A6.54,6.54,0,0,0,29,112.24a20.48,20.48,0,0,0,12.86.65c9.2-2.31,14.43-7.34,15.76-15.1.67-3.93,1.69-7.82.9-11.83,1.69,4.85.57,9.63-.56,14.37-2.6,10.87-17.42,15.74-26.24,13.86-1.25-.27-2.47-.63-3.76-1,0,.16-.19.35-.13.46,3.39,5.63,1.45,11.21-.28,16.76-.48,1.54-.62,2.41,1.8,2.47a3,3,0,0,1,2.75,2.18c-1.57-.9-2.69-1.88-4.17-1.12-.37.19.56.38.61.73-.07,0-.24.12-.3.08-2.06-1.18-3-.37-3.67,1.24a19.68,19.68,0,0,1-2.3,4.15,1.42,1.42,0,0,0,.29,2.27c.95.8,1.65-.12,2.45-.33s1.25-1.52,2.19-.88c.77.53.16,1.56-.16,2.32a7.5,7.5,0,0,1-4.5,3.84c-1,.4-1.56.75-.52,1.58a2.85,2.85,0,0,1,.8,1.22c.17.43.44,1-.05,1.33s-.88-.17-1.3-.34c-2.13-.87-4.05-.05-5.24,2.29,1.19.25,2.45-.18,3.62.27.6.23,1.25.4,1.32,1s-.62.7-1.11.93-1.27.56-1.85.89c-1.21.69-2,1.31-.65,2.61s.59,2.61-1.45,4A2.49,2.49,0,0,0,13.83,161c-1.51-.16-2.25.86-3.05,1.69a6.25,6.25,0,0,0-1.54,2.49c-.25.79-.73,1.69-.45,2.38.34.87,1.66.09,2.48.38a14.84,14.84,0,0,1,1.77.63c.61.31,1.28.7,1.27,1.34s-1,.54-1.52.73c-2.74,1-4.09,3.73-2.92,6.25,1.55,3.33,4.6,5.27,8.77,6.11.15-.13.33-.23.31-.29-.84-3,.4-4.87,3.66-5.48,2.94-.55,6.44,1.22,7.2,3.64,1,3.26-1,6.19-5,7.05-5.31,1.12-10.09-.17-14.65-2.27,2.24.52,4.37,1.37,6.69,1.73a16.83,16.83,0,0,0,8.49-.52c2.53-.94,3.77-2.94,3.34-5.2-.34-1.8-2-3.17-4.3-3.47-3.21-.43-5.72,1.59-4.86,3.85.42,1.1,1.69,1.3,2.92,1.88-7.29.3-13.3-2.62-13.76-9.53-.12-1.84,1-3.24,2.93-4.22.4-.2,1.13-.31,1-.78s-.87-.71-1.53-.83c-1.27-.23-2.09.56-3.27,1.1a9.51,9.51,0,0,1,2-7.19c1.95-2.34,4-2.47,7-.64.77-1,1-2-.32-2.77s-.85-1.4-.08-2.14c.93-.9,2.37-1.24,3.63-2a4.86,4.86,0,0,0-3.56-.65c-1.57.17-1.61-.44-1.08-1.29a5.88,5.88,0,0,1,4.82-2.6c.52,0,1.47.43,1.55-.41.06-.62-.6-1-1.33-1.24a17.7,17.7,0,0,0-2.09-.27c3-1.84,7.32-2.18,8-5.85a15.47,15.47,0,0,1-2.33.77c-.74.12-2.4,1.82-2-.6-3.07-1.45-.27-2.82.33-3.94,2.37-4.39,5.09-8.68,6.08-13.45,1-4.93.92-9.82-2.87-14.14-2.93-3.33-7.37-3.36-10.49-.16a4,4,0,0,0,.81,6.31,4.19,4.19,0,0,0,4.05.38c1.33-.53,2.19-1.37,2.17-2.6a1.8,1.8,0,0,0-1.12-1.79,1.92,1.92,0,0,0-1.83.11c-.92.59.38,1.13,0,1.79-.95-.16-1.4-.62-1.19-1.34a2,2,0,0,1,1.94-1.43,3.79,3.79,0,0,1,3.13,1.31c2.79,2.91,3.08,6.15,1.9,9.59,0-2.75.39-5.56-1.65-8.18-1.18,2.83-3.29,4-5.84,3.53a5.31,5.31,0,0,1-4.2-5.54c.49-3.42,4.5-5.64,8.89-4.84,1.18.21,1.95.54,1.48-1-.8-2.49.71-4.32,3.07-5.71a8.23,8.23,0,0,1,7.77-.32C37.15,102.52,37.89,105,36,107c-1,1-.3,1.11.71,1.26,3.31.5,7.44-1.16,9.15-3.68s1.24-5.3-1.47-7.77A4.18,4.18,0,0,1,49,97.3Z"/><path class="cls-1" d="M173.88,358.28c3.83-.27,4-.83,1-4.7a6.24,6.24,0,0,1,2.36,2.09c.64.64,1.18,1.34,1.86,1.94A5,5,0,0,0,182,359c-.7-1.6,1.08-3.07,0-4.73,2.44,2,4.14,4.65,8.26,5.15-.7-1.25-1.35-2.38-1.11-3.64,2.55,1.31,5.4,1.28,8.14,1.09,6.77-.45,13.11-1.89,17.88-6.16,3-2.65,4.84-5.67,3.9-9.41a5.81,5.81,0,0,0-1.73-2.79,4.53,4.53,0,0,0-4.52-1.44c-2,.55-3.25,1.7-3.33,3.51,0,.35,0,.69,0,1.16-1.14-1.61-.6-3.62,1.23-4.93,2.15-1.54,4.3-1.35,8.07.78a7.1,7.1,0,0,1,4.08-4.69,8.92,8.92,0,0,1,6.09-.36c1.19.35,1.72.44,1.87-.86a5.07,5.07,0,0,1,2.94-3.91c3.71-1.94,6.93-.7,7.37,3.09,3.27-2.25,4.08-5.21,4.8-8.22s.44-6,.62-9c.54,4.68.38,9.32-1.57,13.81-1.48,3.4-3.61,5-6.93,5.25,0-.09,0-.23.08-.27,1.46-.89,2.34-2,1.4-3.46-.69-1.09-2.73-1.31-4.69-.62-2.66.94-4.21,3.5-3.41,5.64s4.11,3.65,7.16,3.24c4.72-.63,8-2.77,9.94-6.32a24.43,24.43,0,0,0,2.37-15c-.47-3.71-1.35-7.38-.72-11.13.09-.5-.15-1.16.68-1.33s1.27.42,1.61.95c1,1.63,1.87,3.4,4.19,4.53,1-3.31-.21-5.85-3.21-7.88.38-.88,1.72-.26,2.16-1.06a24.58,24.58,0,0,1-2.55-1.48c-1.1-.8-2-1.83-1.57-3.07.54-1.48,2.33-.69,3.71-1-.9-1.69-1.22-3.53-2.92-5,1.5-.44,3.5.75,4.14-1.12-5.58-1.8-6.2-2.29-6-4.83.92.5,1,1.39,1.65,2a5.34,5.34,0,0,0,4.57,1.9c.43,0,.9-.25,1.21.1s-.09.79-.3,1.13a7.58,7.58,0,0,1-.92,1c-.49.57-2.07.29-1.89,1.16a5,5,0,0,0,1.54,3.21c.42.34,1.24.66.76,1.28s-1.18.28-1.81.26c-.43,0-.85-.14-1.28-.16-1.53-.09-2,.47-1.33,1.59,1.07,1.74,3.06,2.35,5.43,2.63-.61,1.13-1.87,1.34-3.11,1.85,2.7,2.08,2.76,4.69,2.68,7.36,0,1.36-.75,1.32-1.87.74a6.32,6.32,0,0,1-2.55-2.55c-.52-.86-.7-1.92-1.83-2.52-1.77,3.5.8,7.21,5.18,7.61a1.49,1.49,0,0,0,1.54-.73,4.54,4.54,0,0,1,2.25-1.68c.54.38-.89,1,0,1.14a4.8,4.8,0,0,0,3.21-1.2c-.69,1.92-3,1.93-5.22,2.66,2.14.47,3.87.83,5.59,1.22s3,1.67,4.73,2.25a.75.75,0,0,1,.29.77c-.15.33-.63.21-.94.09-1.61-.63-3.43-1-4.52-2.29s-2.73-1.16-4.29-1.17c-1.07,0-.56.63-.37,1a6,6,0,0,0,2.79,2.13c.45.24,1,.48.66,1s-.93.16-1.34,0a5.05,5.05,0,0,1-3.49-2.91c-.13-.33-.17-.69-.3-1a2.31,2.31,0,0,0-2.57-1.17c-1.08.19-.51,1.17-.32,1.77a4.64,4.64,0,0,0,1.78,2.16c.41.32.54.79.16,1.11-.53.45-.88-.06-1.19-.33-1.5-1.25-2.75-2.6-2.18-4.51.4-1.33-.74-1.87-2.12-2.59.33,1.75.68,3.3.92,4.85a30.94,30.94,0,0,1-1.4,14.42,13.44,13.44,0,0,1-3.35,5.25c-3.39,3.44-7.2,4.43-12.46,3.15-1.05-.25-1.32-.15-1.45.77-.41,2.87-1.89,3.81-5.29,3.5-.52-.05-1-.17-1.38.22-1.59,1.78-3.54,1.77-5.82.62-.86,5.94-5.08,9.8-11.15,12.48s-12.55,2.73-19.18,1.84c-.08,1.32,1.14,1.8,1.65,2.61-2.43,1-2.82.82-8.57-2.92-.86.72-.39,1.53-.19,2.29.26,1-.54,1.35-1.27.9-2.53-1.56-5-2.08-8-.74-.95.42-1.4-.35-.78-1.26,1.25-1.85.77-2.66-1.65-3.41-2.8-.87-5.39-.18-8.38.85,3.84-2.3,7.64-2.61,10.18-1C174.72,355.1,174.88,355.94,173.88,358.28Zm53.5-20.73c-.16,1.6-.09,2.82,2,2.84,1.68,0,3.14-1.27,3-2.66a4.84,4.84,0,0,0-1-2.64c-1.36-1.75-3.47-2.19-5.83-2a6,6,0,0,0-5.3,3.64,3.52,3.52,0,0,0,1.22,4.51,3.06,3.06,0,0,0,4,.32c1.41-1.05.25-1.85-.75-2.66A5.76,5.76,0,0,0,227.38,337.55Z"/><path class="cls-1" d="M274.88,114.82l.28-1.29a3.23,3.23,0,0,0-.87.06c-9.72,4.1-26.78-2-29.3-12.8-1.34-5.7-2-11.33-.29-17,.88-3,.78-6,.78-9.28-2.15.92-4.23,1.7-5.78-.5-1.25-1.78-.62-4.23,1.73-6a9.09,9.09,0,0,0-1.14,2.91,2.61,2.61,0,0,0,2.46,3c1.52,0,2.36-.94,2.39-2.78,0-.27-.15-.57.4-.86,1.06,1.28.88,2.72.9,4.11.07,4.52-1,9-1.49,13.42a27.19,27.19,0,0,0,3.54,16.74c3.64,6.36,15.1,10.41,23.38,8.48,4.43-1,7.1-3.62,7.07-6.86s-5.15-6-8.93-4.56a3.39,3.39,0,0,0-2.54,3c0,1.35.66,1.93,3.43,2.93-5.26,2.1-9.18,1.71-12.8-1.25q-4.28-3.49-.68-9.38c-2.35-.19-3,.14-5,2.58-.9-1.45-1-1.75-.6-3.83.11.78.14,1.11.21,1.44s.16.54.3,1c1.14-.59,1.93-1.4,3.13-1.66a6.3,6.3,0,0,1,3.86.29,5,5,0,0,0-2.75,4.76,5.31,5.31,0,0,0,1.53,3.75,9.94,9.94,0,0,0,10,2.49c-2.2-2.41-2.38-3.75-.74-5.46s5.26-2.33,7.94-1.41c3.53,1.22,4.72,3.24,4.38,7.68a10.42,10.42,0,0,1,4.83-.4c4.26.83,6.6,4.17,5.12,7.42a5.58,5.58,0,0,1-5,3.11c-2.28,0-3.57-1-4.61-3.7-2.06,2.7-1.86,5.53-1.78,8.35-1.25-3.5-1-6.81,2-9.77a3.7,3.7,0,0,1,3.2-1.16,2,2,0,0,1,1.69,1.21c.32.74-.07,1.22-.92,1.5-.13-.09-.31-.15-.32-.22-.08-.63,1-1.59-.68-1.75a1.74,1.74,0,0,0-2.09,1.61c-.22,1.4.68,2.34,2.17,2.94a4.15,4.15,0,0,0,4.5-.79c2.22-1.91,1.95-4.74-.61-6.71a6.75,6.75,0,0,0-8.67,0,14.15,14.15,0,0,0-2.7,3.37c-.26.42-.13,1.08-.94,1.23Z"/><path class="cls-1" d="M54.59,44.68c2.3-4.52,8.43-6.1,13-4.77,1.49.43,1.72.23,1.84-1,.24-2.4,2.13-3.49,5.05-3.13a2.1,2.1,0,0,0,1.6-.19c2.68-1.75,2.7-1.73,5.62-.86C83.55,24,97.15,18.81,109.78,20.23c.8.09,1.87.69,2.33,0s-.61-1.21-1.17-1.73l-.57-.53c2.71-.93,3.51-.67,8.84,2.9.77-.66.47-1.42.21-2.12-.45-1.2.43-1.11,1.39-1,.07,0,.16,0,.2.05,2.2,1.77,4.52,2,7.28.69,1-.46,1.74.09,1.05,1.23-1.14,1.87-.62,2.68,1.81,3.43,2.65.81,5.08.2,7.63-.76-2.5,2.47-7.44,2.3-9.61.83-1-.7-1.54-1.49-1.23-2.6.13-.46,1.11-1,.27-1.34s-1.63.24-2.35.63a.81.81,0,0,0-.31,1.37,17,17,0,0,1,1.72,2.6c-2.21-1.68-3.19-4.36-6.64-5.32.31,1.66-.75,3.1-.14,4.69-2.15-2.06-3.89-4.44-7.84-5a13.91,13.91,0,0,1,1.26,4.51c-.77-1.66-2.48-1.75-4.22-1.85a36.35,36.35,0,0,0-14.64,1.78c-6,2.2-10.49,5.56-11.51,11.18a5.39,5.39,0,0,0,.64,3.6c1.83,3.34,4.51,4,8.23,2-1.62,2.67-4.34,2.83-8.67.53-3.35,5.22-5.29,6-11.92,4.57-1.4,4.82-3.27,6.21-7.77,5.8-2.11-.19-2.69-1-2.73-3.86-3.4,2.23-4.2,5.31-5,8.37s-.42,6.27-.62,9.4c-.45-5.11-.66-10.21,1.92-15.07,1.59-3,3.29-4.12,6.7-4.59,0,.1.1.27.06.3-2,1.3-2.62,2.63-1.6,3.66,1.34,1.35,3.15.94,4.78.47A5.18,5.18,0,0,0,71,43.92c-.29-1.93-2.67-3.61-5.54-3.78a12.8,12.8,0,0,0-9.38,3.33c-.49.42-.73,1-1.46,1.25Zm20.62-5c.34-1.57.12-2.55-1.66-2.67a3,3,0,0,0-3.26,2.29c-.22,2,1.52,4.12,3.89,4.78A7.55,7.55,0,0,0,81.78,42a3.9,3.9,0,0,0-.38-5.67c-1.38-1.19-3-1.4-4.2-.54-1.53,1.14-.15,1.9.86,2.81C76.86,38.53,76.28,39.08,75.21,39.72Z"/><path class="cls-1" d="M266.55,269.44a9.85,9.85,0,0,0-9.88,2.49,5.38,5.38,0,0,0,0,7.79c.26.24.89.33.64.77s-.71.34-1.14.38c-1.85.17-2.87-.14-5.24-1.63-.68.54,0,1.36-.67,2a4.64,4.64,0,0,1,.65-3.82c1,1.71,2.21,3.14,5.06,2.9-2.47-3.49-2.7-6.83,1-9.67s8-3.17,12.44-1.06c0,.25-.32.29-.59.35-1.8.41-3,1.31-2.83,2.87s1.59,2.67,3.59,3.14c3.85.9,9.19-2.87,7.7-6.3-1.59-3.63-4.45-5.58-10.53-6-9.3-.57-19.06,5-21.41,12.34-1.6,5-2.8,10-1.68,15.23a5.32,5.32,0,0,1-.06,1.08c-1.68-4.27-1-8.17-.2-12.06.22-1.15.48-2.3.76-3.45,2.65-10.75,18-15.4,26.1-13.63,1.43.32,2.73,1.61,4.48.67l1,1.35a7,7,0,0,0,6.75,3.35,6.22,6.22,0,0,0,5.31-3.43c.9-1.76.25-3.45-1.3-4.88a4.08,4.08,0,0,0-4.35-.66c-1.41.51-2.28,1.39-2.13,2.77.12,1,.54,1.9,2.06,1.75,1.7-.17.68-1.19.63-2.06,1.2.31,1.5.87,1.17,1.6a2.11,2.11,0,0,1-2.37,1.18,4.68,4.68,0,0,1-3.06-1.8c-2-2.33-2.42-4.41-1.38-8.53,0,1.21-.06,2.43,0,3.64a5.56,5.56,0,0,0,1.53,3.73c.62-1.1.93-2.26,2.36-2.81a5.6,5.6,0,0,1,4.94.09,4.91,4.91,0,0,1,2.84,4.83c-.18,2.93-5,6.28-9,5-.47-.15-1-.21-1.77-.37,1.34,3.92-.63,6.49-5,7.86a7.61,7.61,0,0,1-7.4-1.79C264.09,272.91,264.22,272.09,266.55,269.44Z"/><path class="cls-1" d="M271,250c-.21-.57.57-1.46-.34-1.69s-1.61.47-2.08,1c-.76.91-1.24,2-2.05,2.83s-2.62,2.2-3.38,1.56c-1-.88.73-1.95,1.69-2.76.48-.4,1.06-.73,1.91-1.31-2.19,0-3.89.11-5.06,1.43l-1.3-.34c-.72-1.35-1.95-.62-2.94-.4-1.74.38-3.38.63-4.83-.81,2.8.2,5.58,0,8.81.07-1.71-1.22-3.48-2.12-2.69-4.52,1.13,2.34,2.74,4.09,5.31,4.35a8.48,8.48,0,0,0,5.3-1.72,11,11,0,0,1-5-1.6c-.37-.24-.95-.56-.3-1a1.19,1.19,0,0,1,1.38,0c3.19,2.63,6.45,2.49,9.09-.53-1.18-.42-2.66,0-3.6-.88-.4-.36-1.23-.73-.58-1.27s.87.18,1.24.48a3.56,3.56,0,0,0,5.18-.73c1.11-1.83,2-3.75,3.18-5.56.54-.84-.25-1.13-.59-1.65-.5-.77-1.1-.31-1.64-.12a8.44,8.44,0,0,0-1.27.65c-.5.27-.76,1.08-1.48.78s-.37-1-.24-1.6a6.2,6.2,0,0,1,3.48-4.06c.84-.44,1.73-.82,2.71-1.29-.77-.88-1.72-1.64-1.83-2.75-.08-.7.09-1,1.08-.69,3.17.94,3.75.75,6-1.91-1.28-.06-2.46-.05-3.61-.19-.79-.09-1.6-.44-1.72-1.16s.82-.69,1.34-.95,1.36-.66,2-1.05c1-.62,1.54-1.18.46-2.27-1.36-1.37-.81-2.63,1.48-4.1,0,1.5,1.2,2.13,2.9,2.48a3,3,0,0,1-2.41-.41c-.45-.22-.72-1-1.36-.57s-.47,1.06-.3,1.65c.28,1,2.71,1.41,1,2.89a14.73,14.73,0,0,1-3.55,2c-.06,0-.08.1-.19.23a4.29,4.29,0,0,0,3.54.68c1.76-.28,1.44.44,1,1.23-.92,1.77-3.36,2.82-6.54,2.78.23,1.52,1.64,1.68,3.58,1.76-3,1.9-7.47,2.06-8,5.85.75-.26,1.36-.51,2-.67.94-.21,2.47-1.63,2.33.67,2.78,1,.49,2.19,0,3.09-2.57,4.69-5.35,9.31-6.55,14.41-.09.38-.32.48-.72.48h0a61.45,61.45,0,0,1,2.23-7.07c-1.53.36-1.91,1-1.89,2,0,.79.27,1.65-.5,2.34a3.71,3.71,0,0,0-.17-2.06C271.59,248.46,271.49,249.33,271,250Z"/><path class="cls-1" d="M54.64,44.72c-4,7-4.09,14.18-2.32,21.56.53,2.19-.18,4.42,0,6.64a.83.83,0,0,1-.78.93,1.45,1.45,0,0,1-1.51-.8c-.87-1.27-1.47-2.68-2.79-3.73-.39-.3-.7-.89-1.35-.69s-.37.82-.42,1.26c-.27,2.65,1.08,4.76,3.57,6.46-.54.63-1.51.37-2.2.87a31.76,31.76,0,0,1,2.91,1.91c1,.79,1.86,1.78,1.15,3s-2,.62-3.11.55a4.74,4.74,0,0,0-.76.11c1.32,1.4.92,3.37,2.69,4.55a.58.58,0,0,1,.19.62c-.2.34-.59.19-.93.1-1.33-.37-2.39-.23-2.93,1,5.15,1.26,6.42,2.28,5.91,4.9-.88-1-1.3-2.09-2.33-2.81A5.22,5.22,0,0,0,45.88,90c-1.66.18-1.48-.49-.9-1.31a8.76,8.76,0,0,1,.79-.83c.53-.54,2-.42,1.91-1.13a4.62,4.62,0,0,0-1.57-3.37c-.39-.3-1.1-.58-.82-1.11s1.13-.33,1.75-.39c1.05-.1,2.59.75,3.05-.41s-.86-1.88-1.87-2.56A4.55,4.55,0,0,0,45.69,78c-.42,0-1,.06-1.1-.37s.44-.77.86-.88c2-.5,1.74-1.15.64-2.35-1.7-1.84-1.39-4.1-1.25-6.26.06-1,.88-.76,1.57-.48a6.26,6.26,0,0,1,3.07,3.06c.42.72.63,1.56,1.57,2,1.77-3.33-.76-7-5.15-7.59-.27,0-.78,0-.81,0-.92,2.22-4.36.94-5.61,2.66a.44.44,0,0,1-.7,0,.38.38,0,0,1,0-.62,7.16,7.16,0,0,1,2.77-1.64c.63-.21,1.46,0,2.18-.82A18.68,18.68,0,0,1,35,62.21c-.42-.21-.88-.39-1.27-.63a.55.55,0,0,1-.23-.79c.26-.36.63-.09.94,0,1.49.45,3.14.87,4.06,1.91s2.4,1.36,3.91,1.47c.56,0,1.27.26,1.54-.29s-.21-.89-.6-1.24a5.89,5.89,0,0,0-2.63-1.46.74.74,0,0,1-.58-1.13c.29-.49.86-.22,1.31,0,1.81.79,3.6,1.61,3.74,3.53.1,1.37,1.5,1.45,2.61,1.71.69.17,1-.31.9-.88a3,3,0,0,0-2-2.71c-.86-.26-.66-.61-.69-1a.62.62,0,0,1,.41-.75c.64-.16.83.35,1.16.62,1.61,1.37,2.69,2.84,2,4.88-.41,1.26,1.26,1.51,2.36,2.64-.42-2-.83-3.46-1-5a31.47,31.47,0,0,1,1.41-14.92,6.35,6.35,0,0,1,2.25-3.49Z"/><path class="cls-1" d="M280.51,193.53c7.42.21,11.86,3,12.94,8a4.66,4.66,0,0,1-2.54,5.56c-.48.27-1.72.31-1.21,1.12a2.22,2.22,0,0,0,2.49.61,12.22,12.22,0,0,0,2-.95c.72,3.47-1,7.13-4,8.29a9.89,9.89,0,0,0,3.23-5.56c.11-.77,0-1.11-1.08-1a4.4,4.4,0,0,1-2.89-.51c-.68-.41-1.65-.79-1.59-1.54s1.11-.6,1.73-.84c2.46-1,3.89-3.18,3-5.45-1.25-3.39-4-5.7-8.4-6.66.55,3.06-.6,4.92-3.32,5.54-3,.68-6.3-.62-7.48-3-1.33-2.64-.08-5.66,2.93-7a11.16,11.16,0,0,1,4.34-1c11.5-.18,19.78,5.55,21.59,14.36.27,1.27.71,2.58-.33,3.87-.19-1.18-.38-2.36-.56-3.55-1.34-8.62-10.3-14.75-20.46-14-4.39.32-6.95,2.32-6.84,5.32.07,2,2.12,3.84,4.53,4.11,1.86.21,4.34-.86,4.84-2.09S283.09,194.64,280.51,193.53Z"/><path class="cls-1" d="M291.3,160.61c3.56,2.23,4.14,5.38,4.15,9-1.33-1-2.54-1.75-4.14-1.08-.75.31-1.28.74-.16,1.21,4.17,1.74,4,5.65,2.33,8.45a12.71,12.71,0,0,1-5.34,4.71c-2.17,1.12-4.73.25-7.14,1.29.2-.46.2-.63.29-.66,2.33-1,3.2-2.21,2.48-3.65s-3.69-2.3-5.81-1.67-3.44,2.06-3.49,3.83c-.07,2.19,1.18,3.86,3.67,4.72a17.48,17.48,0,0,0,9.75.18c7.85-1.8,13-7,14-13.93.13-1,.35-2,.6-3.46,1.75,6.6-3.94,14.62-11.85,17.17-4,1.29-8.15,2.08-12.47,1-3.2-.81-5.09-3.06-4.9-5.73s2.27-4.36,5.56-4.84c3.91-.58,6.37,1.76,5.73,5.43,4.32-.29,8.61-3.52,9.27-7,.46-2.42-1-4.47-3.93-5.34-1.32-.38-1-.79-.32-1.33a4.38,4.38,0,0,1,3.62-1.26c1.57.24,1.47-.42,1.33-1.25a8.54,8.54,0,0,0-2.48-4.6c-.37-.37-1.12-.65-.7-1.31Z"/><path class="cls-1" d="M153.3,373.44c.07.08.16.14.15.18-.5,1.4-1,3.34-2.67,3.5s-2-1.88-2.65-3.06c-.79-1.38-.81-3.06-1.74-4.28s-.31-2,.17-3a8.29,8.29,0,0,0-1.55-9.49c-4.09-4.63-9.91-6.79-16.8-7.27-1.15-.08-2.3-.16-3.46-.22-4.19-.24-5.38-.74-8-3.38-2.09,2.33,1.63,2.24,2.16,3.5a4.51,4.51,0,0,1-3-.79c-2.88-1.39-5.73-2-8.68-.18-.23.15-.47.31-.74.1-.45-.35-.11-.67.17-.9a7.2,7.2,0,0,1,6.19-1.3c1.55.3,2.68.51,3.29-1.06.16-.41,1.14-1.5,1.82-.21,1.44,2.74,4.33,3.28,7.46,3.29,6.43,0,12.23,1.43,17.26,4.76a12.17,12.17,0,0,1,5.14,6.53c.46,1.43.48,1.43,2,.6A11.75,11.75,0,0,0,151,376.24C152.2,375.54,152.42,374.3,153.3,373.44Z"/><path class="cls-1" d="M150.6,1.7c1.52-2.22,1.68-2.23,3.08-.25A30.3,30.3,0,0,1,156.28,7a4.71,4.71,0,0,1-.12,4,8.28,8.28,0,0,0,1.47,8.87c4.6,5.28,11.21,7.27,18.84,7.62a30.84,30.84,0,0,1,5.36.56,6.88,6.88,0,0,1,3.87,2.64c.6.72.76,1.18-.22,1.55-.55.21-.94.21-1.15-.35-1.09-2.88-4.09-3.28-7.08-3.29A33.72,33.72,0,0,1,161.65,25a15.48,15.48,0,0,1-7.81-9.27c-.43-1.25.32-2.91,1-4.21a4.82,4.82,0,0,0,.24-4.07,20.59,20.59,0,0,0-2.37-5.25C152.3,1.63,151.9.6,150.6,1.7Z"/><path class="cls-1" d="M232.05,64.38a4.06,4.06,0,0,1,.06,3.55c-.31.91-.75.86-1.42.23a3.11,3.11,0,0,1-.8-3.15,15.29,15.29,0,0,1,.57-1.69,5.94,5.94,0,0,0-4.13,3.23c-.62,1.35-.84,2.55,1.65,2.63l.21,0a3.18,3.18,0,0,1,2.45,2.25c.07.25.14.67-.41.63a4.29,4.29,0,0,1-2.89-1.38l-.72-.72c-.35,2.52.17,3.34,2.6,4.27a2.54,2.54,0,0,1,.38.16,2.85,2.85,0,0,1,1.61,2.17c0,.41-.4.42-.75.44a2.46,2.46,0,0,1-2.28-1.36c-.26-.33-.49-.68-.77-1.08-.95,1.19-.33,3.08-2.61,3.42-.81.12-1.36-.28-1.39-1,1.93.6,3.07.09,2.91-1.56a59.4,59.4,0,0,0-1.25-6.11c-1.4,1.2-2,2.5-3.55,3-.38.12-.81.41-1.18.13s-.13-.67,0-1a3.21,3.21,0,0,1,2.77-2c1.32-.17,2-.6,2.06-1.79.08-1.51,1.18-2.72,2.53-3.88-1.08-.34-1.79.23-2.59.28-.21,0-.41.13-.62.16a4.19,4.19,0,0,1-3.26-.48c-.35-.26-.53-.57-.15-.91a4.42,4.42,0,0,1,3.3-.86c-1,.43-2.11.49-2.64,1.3,2.15.88,4,.61,5.25-.71.1-.1.36-.22.41-.19,1.27.8,2.44.15,3.67-.1a14.64,14.64,0,0,1,12.23,3.05c.31.24.61.52.23.9l0,0A16.7,16.7,0,0,0,234,62.61c-1.75-.08-2.59.32-1.88,1.83-.45-.1-1-1-1.33,0a2.45,2.45,0,0,0,.53,3C232.36,66.49,231.88,65.39,232.05,64.38Z"/><path class="cls-1" d="M243.87,311.51c1.14,0,1,.59.9,1.2a7.13,7.13,0,0,1-2,3.84,2.22,2.22,0,0,0-.48,2.93c.85,1.39.15,2.57-.86,4-1.66-1.6-1.28-3.08-.34-4.64-2.38,1.25-5.23,1.92-5.28,4.79,0,1.17-1.31,2.05-2.47,2.78-.38.24-.77.64-1.32.36s-.27-.76-.09-1.1c.53-.95,1.14-1.87,1.81-2.95a5.14,5.14,0,0,0-3.62,1.74c-1.49,1.75-3.87,2.13-6.27,2.36-.94.09-1.21-.32-.67-.95,1.27-1.47,2.62-2.73,5.22-2.62a10.39,10.39,0,0,0,6.47-2.13,2.62,2.62,0,0,0-2.44.07,6.87,6.87,0,0,1-3.81.27c-.59-.08-1.38-.14-1.44-.84s.52-.8,1-1a5.44,5.44,0,0,1,4.35-.17c3.53,1.45,4.88,1.17,7.5-1.67a16.07,16.07,0,0,1-5.57.33c-.44-.07-.94-.1-1-.52s.4-.58.81-.71a8.78,8.78,0,0,1,3.85-.13c2.85.41,3.75.14,4.95-1.92.61-1,1.25-2.1.8-3.32ZM224,326.11c2.43-.19,4.16-.62,5.43-2.33A5.54,5.54,0,0,0,224,326.11Zm8.53-6a3.56,3.56,0,0,0-2.39-.57c-.74.09-2,.13-1.89.85s1.25.46,2,.43A3.84,3.84,0,0,0,232.54,320.15Zm.26,5.92a4.85,4.85,0,0,0,2.63-3.73C234,323.5,233,324.33,232.8,326.07Z"/><path class="cls-1" d="M73.17,58.07A3.13,3.13,0,0,1,70,57.89C66.73,56,65.83,57,63.07,59.13c-.87.68-1.64,1.5-2.54,2.21-1.33,1.07-1.59,2.55-2,4-.19.77.68.31.94.56l-.05-.05c.22,1,1.83,1,2.23,2-1.48-.59-3-1.53-4.2.24-.23.32-.64.09-.85-.17s-.44-.68.16-.84c1.1-.3.86-1,.94-1.67a7.73,7.73,0,0,1,2.16-4.51,2.14,2.14,0,0,0,.52-2.76c-.77-1.42-.26-2.71.87-4.08,1.53,1.53,1.37,3,.38,4.59,2.2-1.29,5.15-1.85,5.13-4.76,0-1.32,1.51-2.19,2.79-3,.31-.19.66-.51,1.13-.21s.23.63.09.95c-.32.7-.5,1.47-1.42,1.87-.32-.56.69-1,.12-1.68a3.26,3.26,0,0,0-2,2.92l2-1.3-.87,1.55a7.09,7.09,0,0,0,4-2c1.49-1.74,3.9-2.08,6.28-2.32.93-.09,1.21.34.68,1-1.25,1.46-2.58,2.76-5.17,2.67a9.81,9.81,0,0,0-6.26,2,1.86,1.86,0,0,0,2,0,5,5,0,0,1,2.71-.46c1,.12,2.57-.2,2.66.94S74.2,58,73.1,58.12c.22-.52,1.35-.51,1.14-1.36a5.14,5.14,0,0,0-4.12.47A4.28,4.28,0,0,0,73.17,58.07ZM78.5,51.4c-2.39.11-4.06.7-5.45,2.35C75.48,53.74,77.21,53.33,78.5,51.4Z"/><path class="cls-1" d="M59.52,65.87c-.34-.6.29-.86.68-1.14a15.18,15.18,0,0,1,12.64-2.48c2,.42,4,.87,6,1.31a3,3,0,0,0,3-.73c-.75,1.2-.75,1.2-7.06.48,2.11,1.36,3.08,2.92,3.21,4.8.07,1,1.1,1,1.9,1.13,1.88.42,3,1.33,2.94,3.08-2.35-.22-3.34-1.7-4.74-3.14-.85,2.26-1.58,4.31-1.32,6.48.14,1.22,1.06,1.67,2.94,1.18-.87,1.09-1.63,1.12-2.47.56-.57-.37-.68-1-1.06-1.49s.41-1.36-.9-1.36a2.34,2.34,0,0,0-2.44,1.37c-.13.33.22,1-.59.89s-.37-.75-.27-1.16a1.79,1.79,0,0,1,1.23-1.37c2.95-.62,3.23-2.5,3.38-4.45-1.26.35-3.12,0-3.23,1.81a1.23,1.23,0,0,1-.78.19c-.5-.08-.35-.44-.27-.71a3.15,3.15,0,0,1,3.12-2.29c1.41-.1,1.61-.67,1.42-1.66-.36-1.8-1.61-3.1-4.19-4.15-.61.12.81,1.7-1,1a2.93,2.93,0,0,0-.39,2.38,9.29,9.29,0,0,1,.45,1.91c-1.44-1.18-1.78-2.36-.94-4.41.55-1.34-.2-1.55-1.44-1.56a15.07,15.07,0,0,0-9,2.93l-.82.57Z"/><path class="cls-1" d="M18.71,194.14l.36-.37c.84-.13,1.53-1,2.81-.21-1.35.44-2.64.83-2.84,2.07a2.3,2.3,0,0,0,1.27,2.77,5.94,5.94,0,0,0,5.51.22c3.6-1.76,3.42-6-.34-7.87-3.09-1.52-6.42-1.17-9.68-.58-8.56,1.54-14,7-15,14.71a13.5,13.5,0,0,1-.57,2.5c-1.41-6.06,3.36-13.61,10.39-16.29,4.08-1.55,8.36-2.64,13-1.77,5,.94,7.41,4.9,5,8.33A7,7,0,0,1,21.37,200C18.31,199.19,17.38,197.14,18.71,194.14Z"/><path class="cls-1" d="M274.84,114.79c.42,1.19-.26,2.3-.45,3.43-.7,4.23.38,8.23,2.09,12.17A108.92,108.92,0,0,0,282.16,141c.28.47,1.13,1.25-.51,1.23-1.13,0,.42,2.36-1.84,1.3-.91-.43-1.91-.73-3-1.15.62,3.67,4.68,4.14,7.6,5.6-.38.66-1.07.36-1.55.51-.82.25-1.52.64-1.44,1.34s1.07.18,1.57.43,1.25-.11,1.32.62l.05,0a3.21,3.21,0,0,0-2.82.44,1.1,1.1,0,0,1-1,.13c-.47-.24-.32-.6-.19-.94s.1-.5.28-.66c1.86-1.66.78-2.41-1.22-3.27a5.72,5.72,0,0,1-3.59-4.54c0-.38-.28-.86.35-1.07s.75.22,1.08.42a12.07,12.07,0,0,0,1.76,1c.53.23,1.19.63,1.66-.08.34-.51,1.07-.88.51-1.69a39.33,39.33,0,0,1-2.34-4.13c-1.53-2.93-4.11-3.53-7.3-1.67.12-1.22.78-1.91,2.42-1.94,2.2,0,2-.78,1.55-2.11-1.3-4.23-2.86-8.47-1.82-12.92a6.34,6.34,0,0,1,1.23-2.94Z"/><path class="cls-1" d="M267.54,127.5a4.55,4.55,0,0,0-2.9-2.93c-.56-.23-.91-.73-.59-1.14s.93-.09,1.37.09a6,6,0,0,1,3.36,3.08,4.53,4.53,0,0,0,3.49,2.54c-.39-1.41-.93-2.78.31-4.09a3.63,3.63,0,0,0,1.41,4.53c.17.12.68,1.37-.83.84-1-.34-1.47.28-2.12.58a9.23,9.23,0,0,1-5,1.29c-.45,0-1.19-.14-.92-.71s.62,0,1,.06a6.17,6.17,0,0,0,4.85-1.32c-.41-.61-1.08-.34-1.58-.49.37-.28,1,0,1.34-.45a25.56,25.56,0,0,0-5.16-1.69,1.24,1.24,0,0,0-1.58.54c-.51.7-.55.62-1.6.74a3,3,0,0,0-1.23.66,3.92,3.92,0,0,0-1.26,2c-.43-2,1.19-2.82,2.34-4-2.33.65-4.62.12-6.86.32-.56,0-1.13.06-1.31-.34s.48-.62.89-.79c1.43-.58,2.82-.11,4.23.12.66.11,1.54.46,1.8-.38s-.7-.67-1.24-.85-1.16-.54-1-1,.94-.25,1.46-.14a4.23,4.23,0,0,1,2.55,1.24C263.81,127.28,265.58,127.31,267.54,127.5Z"/><path class="cls-1" d="M290.83,140c-3.2.52-1.69,2.25-2.17,3.3-1.39-1.23-1.44-2.73-.12-3.52a2,2,0,0,1,2-.15c.64.33.76,1,.31,1.38-1.16,1-.16,1.49.75,1.81a1.72,1.72,0,0,0,2.31-1.05c.77-1.68-.24-3.58-2.35-4.41a4.21,4.21,0,0,0-5,1.31l-.73.92c-2.57-4.65-5.76-8.88-6.85-13.81,2.12,3.52,3.54,7.29,6,10.72.59-2.35,1.61-4.68-.36-6.93-.28-.33-.36-.84.24-1s.76.22,1,.53c.78,1.2.68,2.55,1.05,3.82.08.27-.44.68.14.87a1,1,0,0,0,.94-.27c1-.79,2.42-.59,3.68-.72.34,0,.76-.05.92.29s-.23.62-.59.81a6.1,6.1,0,0,1-2.84.71c-3.29,0-3.44.16-3.13,2.92.5.2.79-.12,1.13-.3a5.62,5.62,0,0,1,5.49-.1,4,4,0,0,1,2.39,4.06,2.37,2.37,0,0,1-1.91,2.31,3,3,0,0,1-2.93-.64C289.09,141.89,289.85,141.1,290.83,140Z"/><path class="cls-1" d="M58.13,311.39c0,2.18.61,4.17,3.07,5.4.92.46.87,1.36,1.74,1.88,1.45.87,2.8,1.8,4.71,1.87l0-.05c.48,1.29,3,2.56,5.48,2.51a6.47,6.47,0,0,1,5.55,2.51c.23.28.54.58.3.95s-.73.28-1.14.23c-2.46-.33-4.86-.76-6.26-2.68-.74-1-2.12-1.13-3.69-1.85.88,1.3,1.57,2.25,2.18,3.23.25.41.43,1-.11,1.29s-.94-.14-1.33-.37c-1.29-.8-2.56-1.71-2.61-3.08,0-1.62-.94-2.58-2.62-3.3a20.79,20.79,0,0,1-2.63-1.66c.4,1.45,1.8,2.57.82,3.94-.24.33-.28.86-.88.86s-.59-.46-.76-.77a2.63,2.63,0,0,1-.2-2.86,2.21,2.21,0,0,0-.47-3.06,7.83,7.83,0,0,1-1.93-3.67c-.13-.49-.61-1.41.9-1.27Zm14.43,12.36a6.51,6.51,0,0,0,5.31,2.18C76.69,324.16,75.18,323.43,72.56,323.75Zm-5.87-1.21a4.39,4.39,0,0,0,2.64,3.25C69.08,324.36,68.31,323.46,66.69,322.54Z"/><path class="cls-1" d="M15.52,131.8c.48,0,1,.21,1-.48a4.75,4.75,0,0,1,.84-2.34.78.78,0,0,1,1-.36c.4.19.57.65.29.92-2.19,2.14-1.07,4.53-.9,6.84l.63.22q2.79-5.41,5.57-10.85c-1.24,4.88-4.08,9.24-6.62,13.66-.68-.07-.72-.48-.94-.75a4.17,4.17,0,0,0-4.7-1.29A3.53,3.53,0,0,0,9,141.32a1.85,1.85,0,0,0,2.5,1.57c1.36-.32,1.63-1,.62-1.94-.35-.32-.15-.8.26-1.1a1.71,1.71,0,0,1,1.61-.17c1.62.54,1.87,2,.53,3.74-.53-1.11.74-2.87-2.21-3.43,1.07,1.26,1.7,2.19.44,3.13a2.82,2.82,0,0,1-2.8.36,2.52,2.52,0,0,1-1.78-2.76A4.23,4.23,0,0,1,10.93,137a5.49,5.49,0,0,1,5.77.63c1.16-2.38-.52-3.95-3.95-3.79-.35,0-.69.19-1,.21-.65,0-1.22-.21-1.24-.73s.71-.45,1.17-.46A11.33,11.33,0,0,1,16.41,134l-.83-2.23Z"/><path class="cls-1" d="M256.76,82.73c-1.52-.3-3.31.58-3.89-.91s.72-2.53,2-3.43A18.14,18.14,0,0,1,257,77.22c-.6-.61-1.49-.47-2.19-.73C258.55,72,259,71,257.92,68.37c-1.53.45-2.13,1.65-3.18,2.61,0-.26-.11-.44,0-.57.77-1.36,1.92-3.12,3.67-2.71,1.57.35.82,2.33.7,3.61a5.33,5.33,0,0,1-1.88,3.83c-.89.74-.53,1,.46,1.28a5.22,5.22,0,0,1,1.13.51c.3.17.6.37.5.71s-.54.33-.88.35a5.39,5.39,0,0,0-4.15,2.24c-.32.44-.82.94-.38,1.46s1,.28,1.61.28c1,0,2.38-.63,3,.23s-1,1.09-1.33,1.79-.7,1.53-1,2.31c-.39,1.21,1.24.84,1.76,1.38a5.62,5.62,0,0,1,1.22,1.42c.2.4.26,1-.51.84-3.64-.52-5.05,1.62-6.61,3.7-.43-1.56.09-2.53,1.71-3.42a11.28,11.28,0,0,1,2.79-.92c.41-.1,1.18.16,1.12-.5,0-.5-.57-.78-1.17-.91a.49.49,0,0,0-.21,0c-4.35.78-1.58-.82-1.06-1.9A14.29,14.29,0,0,1,256.76,82.73Z"/><path class="cls-1" d="M231.05,315.3c-1.39,0-2.67-1-4.18-.3-.42.18-.67-.39-.65-.54.21-2.07-2.49-3.36-2.2-5.49.09-.6-1-.66-1.73-.79a3.26,3.26,0,0,1-2.86-2.12c-.09-.33-.52-.91.33-.95.47,0,1.31.09,1.19.7-.38,1.95,2.39,1,2.92,2.12.07.14.63-.17.67-.49.25-1.74,1.13-3.4,1-5.18s-1.06-2.2-2.94-1.64c1-1.47,2.25-1.33,3.11.3.34.64,0,1.42.73,2,.7-.27.69-.95,1.16-1.35s.85-1,1.52-.61a1.06,1.06,0,0,1,.3,1.71,2,2,0,0,1-.94.69c-3,.54-2.68,2.49-3,4.45,1.19-.65,1.68-1.71,2.92-1.94.44-.08,1-.48,1.35,0a.9.9,0,0,1-.07,1.17,3.72,3.72,0,0,1-2.94,1.59c-1.6,0-1.79.76-1.52,1.74a5.76,5.76,0,0,0,4.53,4.29c.47.11,1.19.07,1.25.71Z"/><path class="cls-1" d="M286.24,245.75c-.73-.09-.85-.71-1.45-1.07a2.48,2.48,0,0,0-.52,3c.29.58,0,1-.61,1.06s-.72-.45-.77-.85c-.11-.93-.26-2,.44-2.7,1.47-1.44.92-2.9.56-4.42-1.17,0-.84,1.1-1.62,1.37l.05,0c.4-1.63,1.68-2.94,2.25-4.49.73.13.73.63,1,.94a4.18,4.18,0,0,0,4.92,1.11c2-.82,3-2.72,2.32-4.26a1.85,1.85,0,0,0-2.39-1.26c-1.27.35-1.7,1-.69,2,.39.36.24.76-.18,1.09a1.63,1.63,0,0,1-1.6.17c-1.59-.51-1.88-1.89-.74-3.78.84,1-.69,2.84,2.14,3.39-.68-1.18-1.57-2-.36-2.94a2.88,2.88,0,0,1,2.78-.5,2.55,2.55,0,0,1,2,2.66c0,1.75-1,3-2.88,3.84a5.34,5.34,0,0,1-5.77-.7c-.94,1.89-.51,2.21,1.58,3.2a12.23,12.23,0,0,0,4.58,1.19c-2,.81-3.76.07-5.61-.43-.48.91.67,1.51.56,2.31Z"/><path class="cls-1" d="M86.4,343.63l3.5.13c-2.51.41-2.65.58-1.54,2.25,2.63,3.91,7.16,5.41,12.25,6a18.06,18.06,0,0,0,8.67-1c.78-.3,1.14-1.52,2.46-.44-4.3,3.5-9.43,3-14.52,1.89C91.64,351.29,87.34,348.83,86.4,343.63Z"/><path class="cls-1" d="M189.4,350.47a5.64,5.64,0,0,1,1.37-.16c.39.07,1.76-1.13,1.14.5a4.1,4.1,0,0,0,1.25.53c7.14,1.81,13.52.87,18.92-3.48,1.17-.95,2.22-2,2-3.5-.09-.52.2-.67.66-.6s.27.42.2.68a8.77,8.77,0,0,1-4,5.44,24.06,24.06,0,0,1-16.27,3.26A9.1,9.1,0,0,1,189.4,350.47Z"/><path class="cls-1" d="M46.38,301.91c-.21-1.32-2.5-.85-2.8-2.27,1.78-.43,3.75-.7,4.85-2.15.41-.54,1-1.09.6-1.75s-1.37-.41-2.14-.32a7.66,7.66,0,0,1-1.51.09c-1.16-.08-1.38-.48-.59-1.22a5.53,5.53,0,0,0,1.38-1.55c.5-1.17,1.48-2.52-1.05-3.14a2.21,2.21,0,0,1-1.36-1.51c-.16-.43-.14-1,.57-.85,3.52.63,4.9-1.32,6.31-3.28a1,1,0,0,1,.3-.21c.48,1.39.1,2.24-1.58,3.12a24.48,24.48,0,0,1-2.53.95c-.56.22-1.77-.19-1.55.73.18.76,1.19.91,2.13.84.52,0,1.2-.52,1.53.06s-.47.79-.81,1.14c-1.08,1.15-.68,2.72-2,3.78,1.55.46,3.58-.51,4,1.13s-1,2.59-2.43,3.46c-.62.38-1.34.65-2,1,.44.76,1.54.34,2.15.92a1.85,1.85,0,0,1-1.49,1Z"/><path class="cls-1" d="M183.87,346.46c-.56,2.23-2.76,2.86-5.07,3.17-2.91.38-5.89.44-8.8.83A21.62,21.62,0,0,0,155,359c-.28-.79.29-1.27.64-1.76,3.35-4.62,8.76-6.75,14.9-7.92a20.56,20.56,0,0,1,4.29-.38c3.42,0,6.54-.48,9.13-2.41Z"/><path class="cls-1" d="M119.46,30.11c.76-1.53,2.4-2.07,4.19-2.27,2.92-.33,5.9-.4,8.8-.8,5.65-.8,9.45-2.71,13.92-6.6-.86,1.82-2.62,3.06-4.49,4.16a28.74,28.74,0,0,1-15,3.93A14,14,0,0,0,119.46,30.11Z"/><path class="cls-1" d="M108.88,27.89c.29-.74,1.51-.6,1.92-1.33-7.3-2.66-13.88-1.46-20.11,2.25A4.9,4.9,0,0,1,93,26.92a24.61,24.61,0,0,1,15.3-2.55c.21,0,.41.1.62.15,1.58.36,3.41.95,3.59,2.17.09.6-2.24,1-3.64,1.17Z"/><path class="cls-1" d="M37.32,249.5a2.57,2.57,0,0,0,2-1.43,6.21,6.21,0,0,1,3-2.67c.25-.14.6-.48.89-.15s.15.71-.41.79a2.66,2.66,0,0,0-1.62.79c-.45.48-1.45.81-.89,1.67s1.53.83,2.47.48a8.68,8.68,0,0,1,5.24-.34,10.58,10.58,0,0,1,1.25.48c-2.43,2.17-5.17,0-7.83.66.88.51,1.66.92,2.38,1.39.33.21.65.54.41.91s-.73.19-1.13.11a5.14,5.14,0,0,1-3.17-1.67,2.8,2.8,0,0,0-2.55-1Z"/><path class="cls-1" d="M183.92,346.5c0-.56-.35-1.28.61-1.44a1.39,1.39,0,0,1,1.46.88c.46,1.34,1.39,1.21,2.73.9a8.06,8.06,0,0,1,6.13,1c.54.33,1.11.82.5,1.29-.38.29-1,.87-1.78-.16-1-1.31-4.14-1.27-6.65-.39-1.46.51-2.7,1.52-4.6,1.47,3.33-2.64,3.33-2.64,1.55-3.54Z"/><path class="cls-1" d="M108.84,27.86c-.31.46-.08.72.45.94a7.69,7.69,0,0,0,6.2.17c1.5-.61,2.91-1.48,4.8-1.6-.25.74-.94.89-1.47,1.13-1.32.6-1.84,1.36-.7,2.36.59.52.51,1.09.09,1.37a1.07,1.07,0,0,1-1.52-.53c-.61-1.65-1.84-1.41-3.44-1.09a7.87,7.87,0,0,1-5-.63c-.68-.33-1.55-.77-1.36-1.43s1.19-.69,2-.66Z"/><path class="cls-1" d="M51.35,106c5.06-7.94,5.54-16.3,3.53-24.91C58.73,85.64,56.61,100.51,51.35,106Z"/><path class="cls-1" d="M302.38,167.71c-1.92-7.91-8.62-13.89-13-20.82C295,153.31,301.19,159.45,302.38,167.71Z"/><path class="cls-1" d="M41.26,127A9.14,9.14,0,0,0,45,127a10.13,10.13,0,0,1,2.13-.22c.87,0,2.22.19,2.1.83-.17,1-1.27,0-2,.15a16.57,16.57,0,0,1-6.61-.18c1.51,1.43,3.39,2.2,2.9,4.08-.54-.79-.79-1.89-1.67-2a7.25,7.25,0,0,1-3.54-2,2.33,2.33,0,0,0,1.71-1.07,5.5,5.5,0,0,1,3.32-1.81c.39-.1,1-.23,1.13.16s-.21.81-.81.81A2.68,2.68,0,0,0,41.26,127Z"/><path class="cls-1" d="M247.51,296.59c-2.9-8.28-1.85-16.26,2.94-23.9a48,48,0,0,0-3.65,11.81C246.26,288.54,247.69,292.55,247.51,296.59Z"/><path class="cls-1" d="M248.44,80.67c-2.16,8.75-1.65,17.26,3.46,25.35C246,99.85,245.23,86.53,248.44,80.67Z"/><path class="cls-1" d="M289,230.66a10.29,10.29,0,0,1,2.74-4.45,63.87,63.87,0,0,0,7.94-11c1-1.69,1.51-3.5,2.31-5.23C300.63,218.06,294.5,224.23,289,230.66Z"/><path class="cls-1" d="M.62,167.64c1.56-8.19,7.57-14.41,13.06-20.85-.23,1.71-1.44,3.05-2.62,4.39-4.09,4.69-7.7,9.58-9.69,15.15C1.22,166.74,1.47,167.29.62,167.64Z"/><path class="cls-1" d="M258.16,65.15l1.2-2.18-.05,0c0,.52-.16,1.15.93,1a4.19,4.19,0,0,0,4.72-.75c1.52-1.4,3.47-2,5.65-2.7-.05,1.45-1.24,2-2.27,2.66-.12.08-.5.08-.35-.14.71-1.07-.08-.85-.63-.43A12.41,12.41,0,0,1,260.48,65c1.45.63,3.06.8,4.14,1.78.38.36,1.23.69.52,1.27-.52.43-1,.07-1.48-.26-1.63-1.18-4-1.28-5.54-2.63Z"/><path class="cls-1" d="M.45,209.78c1,3.82,3.27,7.18,5.5,10.55s5.52,6.19,7.22,9.78C7.57,223.88,1.62,217.79.45,209.78Z"/><path class="cls-1" d="M51.1,271.54c5.38,7.85,6.45,16.08,3.5,24.69C56.39,287.71,55.93,279.42,51.1,271.54Z"/><path class="cls-1" d="M243.93,311.48c-1.28.52-1.88-.45-2.63-.88-2.46-1.42-3.66-4-2.91-6a3.81,3.81,0,0,1,6.22-1.18c1,1,.18,2.34-.86,3.41a10.26,10.26,0,0,0,0-1.84,2,2,0,0,0-2-1.79,2.35,2.35,0,0,0-2.37,1.23c-1,1.66.3,4.85,2.4,5.61a2.08,2.08,0,0,0,2.5-.33c.3-.33.54-1,1.22-.28.46.47.3.79-.35,1.09a6.84,6.84,0,0,0-1.27.94Z"/><path class="cls-1" d="M59.06,43.78c-3.55,3.06-5,6.84-5.82,10.84s.52,7.94.88,12.27C50.69,60.74,51.84,47.38,59.06,43.78Z"/><path class="cls-1" d="M248.66,311.2c3.32,5.55,2.18,18.66-5.42,22.82C250.76,327,250.39,319.19,248.66,311.2Z"/><path class="cls-1" d="M284.28,150.84c1.78,0,3.51,1.2,3.71,2.49.12.81-.39.84-1.15.76a6.07,6.07,0,0,0-3.78.58c1.26.7,2.42,1.26,3.46,2s1.5,1.51.09,2.41c-1.13.73-1.13,1.66-.16,2.71a4.58,4.58,0,0,1,4.84-1.13s0,0,0,0c-1.47.48-3.58.08-4,2.06-.1.5-.73.08-1-.12-1.31-1-1.61-2.37-.53-3.47s.5-1.83-.64-2.49c-.59-.34-1.21-.63-1.84-.92s-1.41-.27-1.27-1a1.65,1.65,0,0,1,1.52-1.11c1.13-.13,2.29-.11,3.58-.16a4.73,4.73,0,0,0-2.85-2.62S284.28,150.84,284.28,150.84Z"/><path class="cls-1" d="M57.42,332.8c-5.61-3.46-7.47-14.69-4.13-21.8C51.69,318.63,51.27,326.12,57.42,332.8Z"/><path class="cls-1" d="M245.6,44.92c5.55,4.23,6.89,15.26,3.71,21.27C251,58.77,251.22,51.51,245.6,44.92Z"/><path class="cls-1" d="M298.55,165.09c-1.77-5.79-8-9.81-9.55-15.67C292.36,154.57,297.11,159.16,298.55,165.09Z"/><path class="cls-1" d="M5,164.32c1.44-5.65,6.2-10,9.27-15C12.74,155,7.1,158.92,5,164.32Z"/><path class="cls-1" d="M299.21,170.39c1.26,6.46-3.82,13.45-11.34,15.39,2.31-1.56,4.71-2.36,6.4-3.92a14.11,14.11,0,0,0,3.61-5.33A31.58,31.58,0,0,0,299.21,170.39Z"/><path class="cls-1" d="M288.6,228c1.36-5.17,6.32-8.81,8.72-13.54C295.77,219.54,291.44,223.47,288.6,228Z"/><path class="cls-1" d="M286.21,245.76l6.86,1.92a3.4,3.4,0,0,1-3,.12c-1.83-.47-2.5.39-2.89,1.49a2.35,2.35,0,0,0,.58,2.49c.44.47.21,1-.33,1.19-.81.33-1-.3-1.11-.71-.39-1.24-.93-2.53.12-3.71s-.11-1.88-.21-2.8Z"/><path class="cls-1" d="M195.87,28.52c-2.35,3.26-7.21,2.74-12.33-1.4C187.84,28.09,191.37,31.21,195.87,28.52Z"/><path class="cls-1" d="M15,185.59c-7-1.26-13.36-10.33-10.79-15.69C4.06,177.13,7.18,182.46,15,185.59Z"/><path class="cls-1" d="M31.25,128.42c-.48,1.13.55.82,1.24.85l0,0c1.32.43,2.67.82,3.95,1.32a4.24,4.24,0,0,1,1.7,1.33c-2.79-1.86-6-.78-9-1.26a5.42,5.42,0,0,1,1.84-5.37,2.62,2.62,0,0,1,.31,3.22c0-.61.24-1.24-.34-1.92-1.28.92-1.16,2-1.34,3.4A4.06,4.06,0,0,0,31.25,128.42Z"/><path class="cls-1" d="M290.58,129c-.1.3-.21.56.44.46.84-.12,1.7-.16,2.56-.2.26,0,.53.11.87.51L288.13,131c-.26-1.75,1.48-3.36.27-5.09-.82.2-.61.9-1.13,1.24-.28-.78.23-1.44.41-2.14.09-.34.18-.92.84-.85s.75.65.92,1.08a4.24,4.24,0,0,1-.66,3.84c.72.51,1.26-.23,1.86,0Z"/><path class="cls-1" d="M13.73,227.75c-2.72-4.38-6.8-8.16-8.44-13C7.79,219.25,12.39,222.8,13.73,227.75Z"/><path class="cls-1" d="M58.2,70.15c.41,3.17,1,4,2.69,3.88,1.82-.18,2.49-1.58,2.08-4.31a3.16,3.16,0,0,1-.45,4.69c-1.34,1.07-2.71,1-4.6-.16C56.84,73.58,56.88,72.06,58.2,70.15Z"/><path class="cls-1" d="M14.86,191.71c-8,3.08-11.1,8.46-11.12,15.31C2.29,200.8,6.88,193.58,14.86,191.71Z"/><path class="cls-1" d="M.74,170.07A18.47,18.47,0,0,0,9,184.74C3.87,182.93-.16,175.68.74,170.07Z"/><path class="cls-1" d="M15.58,131.75a10.55,10.55,0,0,0-5.9-1.62c-.5,0-.92,0-1-.37s.47-.47.87-.5a4.93,4.93,0,0,1,2.71.41c.71.38,1.08,0,1.6-.22.76-.38.06-.71-.06-1a4.19,4.19,0,0,1,0-3.58c.15-.32.29-.72.83-.62.69.12.7.69.87,1.1.07.17.69.89-.56.49-.48-.16-.77,1.15-.56,1.79.44,1.38.37,2.85,1.18,4.15Z"/><path class="cls-1" d="M258.12,65.11l-3.8,1.64c.42-1.85,3.08-3,2.32-5.13-.83-.16-.79.71-1.41.81-.33-.29,0-.52.17-.7.74-.65,1.36-2.12,2.3-1.71,1.09.48.5,1.91.14,2.88a12.47,12.47,0,0,1-1.4,2.18l1.72.07Z"/><path class="cls-1" d="M273,110.76c-3.55,3.37-10.38,2.43-15.79-.6,1.61.51,3.19,1.1,4.84,1.52a17.09,17.09,0,0,0,5.76.6A16.13,16.13,0,0,0,273,110.76Z"/><path class="cls-1" d="M28.59,267.41c3.42-4.21,11.05-3.55,16.06-.6C39.06,264.8,33.91,263.81,28.59,267.41Z"/><path class="cls-1" d="M238.18,330.21c-1.48-.5-2.81-.7-3.83.59s-.62,2.75.84,3.77,3.11,1,5.12.89c-2.38,1-5.26.3-6.54-1.3a2.79,2.79,0,0,1,.53-4.14A3,3,0,0,1,238.18,330.21Z"/><path class="cls-1" d="M62.06,335.36c4.3,0,6.38-1.33,6.16-3.51-.16-1.66-1.43-2.33-3.78-2a2.87,2.87,0,0,1,4,4C67.33,335.48,64.87,336.16,62.06,335.36Z"/><path class="cls-1" d="M30.14,110.72c4.5,2.52,9.12,1.73,13.76.34C39.34,113.81,33.35,113.68,30.14,110.72Z"/><path class="cls-1" d="M162,21.22a5.85,5.85,0,0,1-2.86-5.2c0-.36-.12-1,.72-.72a8.13,8.13,0,0,0,6.13-.64c-.87,1.32-2.3,1.54-4,1.36-2.23-.24-2.38-.1-1.83,1.67A11.52,11.52,0,0,0,162,21.22Z"/><path class="cls-1" d="M239,47.05a3.14,3.14,0,0,1-4.11.54c-1.64-1-1.66-2.41-1-3.8.85-1.77,3.52-2.59,6.39-2.08-4.88.86-6.56,2-6,4.1C234.83,47.4,236,47.79,239,47.05Z"/><path class="cls-1" d="M64.72,47.46c2.68.29,4-.3,4.14-1.93.25-2.05-1.89-3.39-5.82-3.65,2.16-.66,4.83,0,6,1.56a3,3,0,0,1-4.28,4Z"/><path class="cls-1" d="M66.26,60.88c-1.13-.08-3,.08-3-.79,0-1.08,1.88-.88,3-.86s2.74-.21,2.76.69C69.06,61.06,67.34,60.78,66.26,60.88Z"/><path class="cls-1" d="M32.49,129.27a11.62,11.62,0,0,0,2.58-3.13,5.28,5.28,0,0,1,3.26-2.38c.36-.12.91-.32,1,.21s0,.89-.75.89a2.63,2.63,0,0,0-2.83,2.1c-.29,1.78-1.76,2-3.32,2.27Z"/><path class="cls-1" d="M65.7,316.58c1,.24,2.8-.29,2.76.95,0,.94-1.8.59-2.75.64s-2.91.17-2.89-.78S64.64,316.74,65.7,316.58Z"/><path class="cls-1" d="M240.24,60.07a7,7,0,0,1-5.56.5c-.38-.09-.66-.33-.62-.63a.77.77,0,0,1,.54-.46C236.47,59.27,238.39,58.79,240.24,60.07Z"/><path class="cls-1" d="M67.65,320.54c2.19-1.77,4.51-2.12,6.5-1,.4.23.88.46.8.95s-.61.56-1.1.7a6.12,6.12,0,0,1-4-.18,6.15,6.15,0,0,0-2.25-.55Zm2-.45a4.79,4.79,0,0,0,4.15.49c.28-.1.18-.43-.07-.58a3.81,3.81,0,0,0-4-.14S69.7,320,69.64,320.09Z"/><path class="cls-1" d="M272.86,267c-4.4-2.63-8.76-2.22-13.53-.73C262.35,264.11,270.37,263.54,272.86,267Z"/><path class="cls-1" d="M289.42,249c1.24.31,2,.67,2.15,1.76a3,3,0,0,0,1.46,2.08c.48.3,1,.71.55,1.13-.66.59-1.12-.12-1.56-.41C290.28,252.43,290.16,250.68,289.42,249Z"/><path class="cls-1" d="M294.52,195.89c4,3.16,4.63,7.14,4.15,11.38A18,18,0,0,0,294.43,196Z"/><path class="cls-1" d="M292.23,125.44c.45-.88,1.36-2,2.25-1.69,1.11.45,0,1.62-.27,2.44-.51,1.48-2.17,2.05-3.63,2.76l.06.05c.48-1.23.62-2.56,1.66-3.62.24.68-.82,1.25-.17,2.06,1.13-.79,2-1.62,1.84-2.92C293.06,124.48,293,125.42,292.23,125.44Z"/><path class="cls-1" d="M232,311.39c-.24.95.09,2.72-1.31,2.66-1.67-.08-1.49-1.82-1.42-3,.06-.93.54-2.23,1.64-2.13S231.92,310.41,232,311.39Zm-1.43-1.6c-.72,1.46-1.14,2.61.09,3.81C231.77,312.34,231.74,311.21,230.61,309.79Z"/><path class="cls-1" d="M270.12,106c-.18-1.16.56-1.8,1.82-2.12a3.48,3.48,0,0,1,3.49.79c1,1,.91,2.11-.21,3.51,0-1.6.73-3.2-1.57-3.7C272,104.12,271,105,270.12,106Z"/><path class="cls-1" d="M27.87,108a2.19,2.19,0,0,1-.28-3.36,3.23,3.23,0,0,1,3.08-.91c1.41.23,2.44.86,2.42,2.28-1.07-1.13-2.18-2.2-4.12-1.45C27.19,105.29,27.81,106.64,27.87,108Z"/><path class="cls-1" d="M259.36,63c.15-1.95,2.2-2.41,3.87-3.08.78-.31.86.4.79.86-.18,1.15-1.27,1.76-2.26,2.41.05-.63.91-1.12.59-1.85-1.37.21-2,1.13-3,1.62Z"/><path class="cls-1" d="M269.76,271c.86,1.63,1.89,2.41,3.54,2,2-.5,1.64-1.93,1.44-3.66,1.17,1.5,1.16,2.58.15,3.52a3.44,3.44,0,0,1-3.53.63C270.28,273.19,269.31,272.75,269.76,271Z"/><path class="cls-1" d="M85.09,36.44c.71.71,1,1.59,2,2a1.64,1.64,0,0,0,2-.12c.61-.6.28-1.06-.59-1.3-.34-.1-.75-.19-.37-.58a.9.9,0,0,1,1-.13c.87.34,1.28.95,1,1.72a1.92,1.92,0,0,1-2.08,1.22A2.84,2.84,0,0,1,85.09,36.44Z"/><path class="cls-1" d="M215.12,340.68a1.55,1.55,0,0,1-2.26,0,1.16,1.16,0,0,1-.2-1.62,1.93,1.93,0,0,1,1.94-.86,2.92,2.92,0,0,1,3,3,11.92,11.92,0,0,0-1.14-1.6,2.22,2.22,0,0,0-2.24-.72c-.43.1-.78.34-.8.73C213.32,340.46,214.46,340.28,215.12,340.68Z"/><path class="cls-1" d="M84.33,341c-.1-1.61,1-2.58,2.84-2.91a1.84,1.84,0,0,1,2.27,1.19c.27.79-.18,1.35-1,1.72a.9.9,0,0,1-1.14-.19c-.37-.6.36-.42.68-.51.65-.18,1-.56.75-1.07-.33-.67-1.09-.71-1.83-.52C85.49,339.11,85,340.12,84.33,341Z"/><path class="cls-1" d="M25.12,184.83c.44-1.31,1-2.28-.22-3.05a1.23,1.23,0,0,0-1.18-.2c-.9.38.13,1.07-.41,1.62-1.14-.56-1.06-1.33-.35-2a1.92,1.92,0,0,1,2.63.15C26.84,182.39,26.94,183.46,25.12,184.83Z"/><path class="cls-1" d="M215.4,36.77c-.54.36-1.59.35-1.47,1.18,0,.37.41.61.84.71a2.12,2.12,0,0,0,2.08-.65,13.68,13.68,0,0,0,1.36-1.78,2.91,2.91,0,0,1-3.2,3.05,1.84,1.84,0,0,1-1.78-1.06,1.2,1.2,0,0,1,.49-1.57A1.09,1.09,0,0,1,215.4,36.77Z"/><path class="cls-1" d="M272.91,252.81c.76,2.4-.09,4.89.69,7.29a8.21,8.21,0,0,1,.34,2.2,8.47,8.47,0,0,1-1.4-6.52,29,29,0,0,0,.38-2.95Z"/><path class="cls-1" d="M9.44,252.62C9,253,9,254,8.07,253.63c-.62-.23-.14-.91,0-1.41.43-1.73,1.62-2.93,4-3.62-1,1.5-.65,3.29-2.78,4.1a3.21,3.21,0,0,0,1.26-2.89,4.18,4.18,0,0,0-1.92,2.38C8.5,252.68,8.71,253,9.44,252.62Z"/><path class="cls-1" d="M32.43,271.22c.13,1.38-.71,2-2,2.22a3.28,3.28,0,0,1-3.27-.89,1.92,1.92,0,0,1,.07-2.91c.22,1.32-.44,2.77,1.61,3.17A3.17,3.17,0,0,0,32.43,271.22Z"/><path class="cls-1" d="M140.55,365.05c-.59.63-.9,1.32.18,1.63,3,.85,2.94-1.48,4.07-2.89a3,3,0,0,1-2.44,3.65,2.35,2.35,0,0,1-2.84-1.06C139.11,365.64,139.5,365.21,140.55,365.05Z"/><path class="cls-1" d="M161.83,12.37c.73-.44,1.13-.92.32-1.47a2.14,2.14,0,0,0-2.7.08c-1,.73-1,1.87-1.76,2.7,0-1.38.22-2.7,1.82-3.46a2.69,2.69,0,0,1,3.41.61C163.51,11.57,163.43,12.28,161.83,12.37Z"/><path class="cls-1" d="M157.07,363.69c1.23,1.42,1.08,3.79,4.09,3,1-.26.87-1-.24-1.71,1.48,0,1.88.5,1.6,1.23A2.27,2.27,0,0,1,160,367.5C158.28,367.38,157.22,366.09,157.07,363.69Z"/><path class="cls-1" d="M277.6,184.43c-1.38-1.39-1-2.29,0-3.11A2,2,0,0,1,280,181c.91.59.88,1.36.12,2.13-1-.31.37-2-1.44-1.57C277.12,182,277.45,183.11,277.6,184.43Z"/><path class="cls-1" d="M231,315.33c3.94-.07,7.65-.72,10.72-2.93-1.74,2.41-6.71,3.71-10.68,2.89Z"/><path class="cls-1" d="M279.49,194.24c1,.82,1,1.62.1,2.18a2.13,2.13,0,0,1-2.65-.46c-1.11-1-1.05-2.05.34-3-.35,1.17-1,2.54,1,3C280,196.29,278.8,194.85,279.49,194.24Z"/><path class="cls-1" d="M145.66,13.87c-1.29-1.28-1-3.3-3.43-3.33-1,0-1.65.58-1.76,1.76-.73-1.08-.31-1.61.41-2a2.85,2.85,0,0,1,2.66-.1C145.16,10.92,145.55,12.18,145.66,13.87Z"/><path class="cls-1" d="M158.33,370.15c4.39.54,6.79-1.06,7.54-5C166.47,369,162.57,371.59,158.33,370.15Z"/><path class="cls-1" d="M23,194c.46.78-.61,1.78.89,1.86,1,0,1.63-1.09,1.51-2.73,1.34,1.12.8,2.06-.26,2.9a1.83,1.83,0,0,1-2.47.17C21.85,195.53,21.83,194.81,23,194Z"/><path class="cls-1" d="M282.27,242.19a26.59,26.59,0,0,1-3.85,7.44,22.36,22.36,0,0,1,3.9-7.4Z"/><path class="cls-1" d="M11,125.56l-1.78-1.34c-.32,1.36.74,2.15,1.6,3.47a5.11,5.11,0,0,1-2.79-4c-.13-.7.43-.79,1-.36A4.86,4.86,0,0,1,11,125.56Z"/><path class="cls-1" d="M12.57,235.61c0,.32-.33.75.21.93s.79-.14,1.07-.43c.75-.77.1-1.71.44-2.56,1.34,1.43,1.1,3-.51,3.58A1.59,1.59,0,0,1,12,236.9c-.53-.56-.48-1.09.46-1.37Z"/><path class="cls-1" d="M260.38,250.72l1.3.34a4.66,4.66,0,0,1-2.75,1.49c-.44.12-1,.42-1.33,0s.13-.76.5-1A3.44,3.44,0,0,1,260.38,250.72Z"/><path class="cls-1" d="M54.19,301a47.54,47.54,0,0,0,.13,6C53.05,305.31,53,303.42,54.19,301Z"/><path class="cls-1" d="M160.22,7c3.93-.66,6.38.59,7,3.66C166,8,163.53,7.05,160.22,7Z"/><path class="cls-1" d="M142.06,20.24a12.74,12.74,0,0,0,1.56-3.87c0-.34.25-.88.08-1-.59-.32-.61-.48,0-.7s.73.14.76.5A5.42,5.42,0,0,1,142.06,20.24Z"/><path class="cls-1" d="M159.25,362c.27.43,0,.7-.48.73-.68.05-.53-.44-.54-.74a6.05,6.05,0,0,1,2.47-5c-.52,1.92-2.14,3.31-1.43,5.08Z"/><path class="cls-1" d="M145.78,7.64A7.81,7.81,0,0,0,138,8.88C139.52,6.45,142.74,6,145.78,7.64Z"/><path class="cls-1" d="M49,97.3l1.85.79c.73-.65,0-1.58,1.11-2.17-.23,1.33-.46,2.65-.77,4.49a10.45,10.45,0,0,0-2.29-3Z"/><path class="cls-1" d="M150.12,8.23a7.4,7.4,0,0,1,.79-3.33.72.72,0,0,1,.7-.57c.43,0,.57.3.68.59.3.82.88,1.59.65,2.55-.7-.66-.44-1.64-1.34-2.23C150.84,6.07,150.77,7.09,150.12,8.23Z"/><path class="cls-1" d="M294.43,196c-2.11-1.49-4.39-2.78-6.66-4.1,2.68.86,5.13,2,6.75,4Z"/><path class="cls-1" d="M54.51,75.34c-1.08-1.69-.67-3.35.09-5C55.07,72,54.28,73.67,54.51,75.34Z"/><path class="cls-1" d="M142,362.09c.79-.8.16-1.6-.07-2.36s-.64-1.48-.84-2.26a5,5,0,0,1,2,4.63c0,.27,0,.62-.56.54-.4-.05-.64-.22-.52-.59Z"/><path class="cls-1" d="M248.53,75.28V70.37A4.11,4.11,0,0,1,248.53,75.28Z"/><path class="cls-1" d="M224.85,315.53a19.51,19.51,0,0,1-2.76,0c-.8-.12-2-.31-1.86-1.16s1.16-.93,2.05-.92c.56,0,1.11.1,1.9.18-1.2.4-2.45-.11-3.32.76C221.89,315.46,223.46,315.23,224.85,315.53Z"/><path class="cls-1" d="M144.05,369.83c-3.13,1.25-4.87,1-7.32-1.11C139.36,369.91,141.56,370.67,144.05,369.83Z"/><path class="cls-1" d="M248,306.77v-4.26A3.41,3.41,0,0,1,248,306.77Z"/><path class="cls-1" d="M76.68,313.8a5.33,5.33,0,0,1,2.82-.6c.82,0,1.72.19,1.91.89.23.85-.74,1-1.53,1.15-.14-.62,1.16-.49.85-1s-1.11-.44-1.74-.46-1.56,0-2.35,0Z"/><path class="cls-1" d="M159.27,362c2.15-.25,4.37-.73,5.76,1.29-1.73-1-3.85-.83-5.77-1.31Z"/><path class="cls-1" d="M142,362.05c-2.11.36-4.45.13-6.09,1.7,1.51-2.05,2.71-2.35,6-1.65Z"/><path class="cls-1" d="M152.67,369.56a11.82,11.82,0,0,1-.58,2c-.26.54-.17,1.53-1.15,1.44-.83-.08-.82-1-.92-1.62C151.14,372.27,151.14,372.27,152.67,369.56Z"/><path class="cls-1" d="M80.6,338c-2.43-3.85-4.2-4.25-7.84-2,.41-1.49,1.49-2.19,3.31-2.16C78.33,333.83,80.1,335.35,80.6,338Z"/><path class="cls-1" d="M230,41.36a3.59,3.59,0,0,1-4.14,2.12,4.12,4.12,0,0,1-3.77-3.8C223.78,42.49,225.65,43.91,230,41.36Z"/><path class="cls-1" d="M229.32,336c-4-2-5.44-1.71-7.51,1.27-.05-1.6,1.58-3.16,3.54-3.39A3.66,3.66,0,0,1,229.32,336Z"/><path class="cls-1" d="M72.74,40.94c4.3,2.58,5.52,2.35,8.39-1.27a4.18,4.18,0,0,1-3.86,3.78A4,4,0,0,1,72.74,40.94Z"/></g></g></svg>