<svg xmlns="http://www.w3.org/2000/svg" viewBox="0 0 155.92 96.17"><defs><style>.cls-1{fill:#f2f3eb;}</style></defs><g id="Layer_2" data-name="Layer 2"><g id="Layer_1-2" data-name="Layer 1"><path class="cls-1" d="M11.71,14.46v-4c0-.79,0-1.48,0-2.06s0-1.05,0-1.4a2.31,2.31,0,0,0-.08-.6L10,6l.06-1h4.68l.07,1-1.44.34c0,.06,0,.26,0,.6s-.05.81-.06,1.4,0,1.27,0,2.06v4.7c0,.64,0,1.23,0,1.76s0,1.07,0,1.6H12L3.08,7.68l1,0v5.06c0,.86,0,1.59,0,2.2s0,1.08.06,1.42A3.26,3.26,0,0,0,4.2,17l1.57.34-.06,1.05H1L.89,17.33,2.33,17a3.64,3.64,0,0,0,.07-.67c0-.36,0-.85,0-1.46s0-1.33,0-2.14V9.39c0-.53,0-1,0-1.45s0-.78-.06-1.06,0-.44,0-.5L.89,6,1,5H4.4l8.06,9.47Z" transform="translate(-0.89 -2.5)"/><path class="cls-1" d="M19.81,18.57A3.47,3.47,0,0,1,18,18.13a3.28,3.28,0,0,1-1.13-1.05,2.2,2.2,0,0,1-.39-1.18A1.87,1.87,0,0,1,17,14.56a3.59,3.59,0,0,1,1.59-.88l3.56-1.09v-.94a1.48,1.48,0,0,0-.32-.93A2.34,2.34,0,0,0,21,10a2.46,2.46,0,0,0-1.14-.28.8.8,0,0,0-.61.2,1.41,1.41,0,0,0-.21.76L19,11.92a2.74,2.74,0,0,1-1.7-.05,1,1,0,0,1-.68-.95,1.28,1.28,0,0,1,.41-.84,5.33,5.33,0,0,1,1-.83,10.7,10.7,0,0,1,1.31-.66,5.42,5.42,0,0,1,1.26-.34,4.72,4.72,0,0,1,3.05.91,3.08,3.08,0,0,1,1.15,2.45L24.74,15c0,.38,0,.7,0,.95a2.68,2.68,0,0,0,.13.61l1.48.27v.87L25,18.25c-.26.1-.5.18-.71.24a2.6,2.6,0,0,1-.59.08,1.17,1.17,0,0,1-1.15-.87l-.34-1,.44.09a6.84,6.84,0,0,1-1.44,1.31A2.7,2.7,0,0,1,19.81,18.57Zm1-1.83a1.7,1.7,0,0,0,.74-.16,1.81,1.81,0,0,0,.65-.5V13.8l-1.89.41a1.31,1.31,0,0,0-.79.39,1.05,1.05,0,0,0-.24.73,1.34,1.34,0,0,0,.45,1A1.48,1.48,0,0,0,20.79,16.74Z" transform="translate(-0.89 -2.5)"/><path class="cls-1" d="M35.33,18.66l-.53-.32,0-1.46-.07,0a3.83,3.83,0,0,1-1.34,1.35,3.05,3.05,0,0,1-1.47.39A4.34,4.34,0,0,1,29.69,18a4.44,4.44,0,0,1-1.63-1.7,5.11,5.11,0,0,1-.6-2.52,5.57,5.57,0,0,1,.45-2.29,5.19,5.19,0,0,1,1.25-1.73A5.63,5.63,0,0,1,30.9,8.65a5.31,5.31,0,0,1,1.94-.38,5.23,5.23,0,0,1,1,.11,2.69,2.69,0,0,1,.87.3c0-.27,0-.6,0-1l0-1.17c0-.4,0-.76,0-1.08s0-.55,0-.7l-1.74-.28,0-.91,4-1,.55.36c0,1-.08,1.83-.11,2.66s0,1.7,0,2.62l0,5.27c0,.77,0,1.41.07,1.92s.08.88.11,1.14l1.48.34v.91Zm-2.47-2a2.21,2.21,0,0,0,1-.25,2.65,2.65,0,0,0,.94-.85v-5a2.05,2.05,0,0,0-.87-.77,2.28,2.28,0,0,0-1-.23,2.35,2.35,0,0,0-1.93.93A4,4,0,0,0,30.22,13,4.1,4.1,0,0,0,31,15.69,2.37,2.37,0,0,0,32.86,16.63Z" transform="translate(-0.89 -2.5)"/><path class="cls-1" d="M39.64,18.38l-.07-1L41.1,17a2.7,2.7,0,0,0,0-.39c0-.2,0-.46.05-.79s0-.71,0-1.15l0-1.74c0-.47,0-.9,0-1.31s-.09-.78-.16-1.13l-1.53-.32V9.28l3.9-1,.52.38c0,.48-.08,1-.1,1.43s0,1,0,1.66v2.87q0,.84,0,1.53a4,4,0,0,0,.1.87l1.53.34-.07,1Zm2.9-12.21a1.7,1.7,0,0,1-1.28-.49,1.61,1.61,0,0,1-.48-1.17,1.66,1.66,0,0,1,.48-1.17,1.71,1.71,0,0,1,1.28-.5,1.65,1.65,0,0,1,1.26.5,1.72,1.72,0,0,1,.45,1.17,1.66,1.66,0,0,1-.45,1.17A1.64,1.64,0,0,1,42.54,6.17Z" transform="translate(-0.89 -2.5)"/><path class="cls-1" d="M50.83,18.47,46.7,9.78l-1.08-.37.07-1H51l.07,1-1.41.37,2.73,6ZM57,8.43l.07,1L56,9.78l-3.95,7.94-1.8,3.79a4.33,4.33,0,0,1-1.18,1.63,2.18,2.18,0,0,1-1.33.45,1.77,1.77,0,0,1-1.13-.34,1,1,0,0,1-.43-.85,1.15,1.15,0,0,1,.37-.83A2.34,2.34,0,0,1,47.65,21l2.49-.71-1.37,1.07,2.7-5,.27-.51,2.62-6L53,9.41l.07-1Z" transform="translate(-0.89 -2.5)"/><path class="cls-1" d="M61,18.57a3.42,3.42,0,0,1-1.77-.44,3.2,3.2,0,0,1-1.13-1.05,2.2,2.2,0,0,1-.39-1.18,1.9,1.9,0,0,1,.5-1.34,3.69,3.69,0,0,1,1.6-.88l3.56-1.09v-.94a1.54,1.54,0,0,0-.32-.93,2.34,2.34,0,0,0-.84-.71,2.46,2.46,0,0,0-1.14-.28.8.8,0,0,0-.61.2,1.49,1.49,0,0,0-.22.76l-.09,1.23a2.75,2.75,0,0,1-1.7-.05,1,1,0,0,1-.67-.95,1.28,1.28,0,0,1,.41-.84,5.05,5.05,0,0,1,1-.83,10.7,10.7,0,0,1,1.31-.66,5.42,5.42,0,0,1,1.26-.34,4.69,4.69,0,0,1,3,.91A3.06,3.06,0,0,1,66,11.61L66,15c0,.38,0,.7,0,.95a2.23,2.23,0,0,0,.13.61l1.48.27v.87l-1.35.57a7.33,7.33,0,0,1-.7.24,2.68,2.68,0,0,1-.6.08,1.17,1.17,0,0,1-1.14-.87l-.34-1,.43.09a6.57,6.57,0,0,1-1.43,1.31A2.7,2.7,0,0,1,61,18.57Zm1-1.83a1.7,1.7,0,0,0,.74-.16,1.9,1.9,0,0,0,.65-.5V13.8l-1.89.41a1.31,1.31,0,0,0-.79.39,1.05,1.05,0,0,0-.24.73,1.34,1.34,0,0,0,.45,1A1.46,1.46,0,0,0,62,16.74Z" transform="translate(-0.89 -2.5)"/><path class="cls-1" d="M68.35,18.38l-.06-1L69.7,17a6.41,6.41,0,0,0,.07-.8c0-.4,0-.88,0-1.45s0-1.17,0-1.79V10.14c0-.51,0-1.05,0-1.59s0-1.08,0-1.59,0-1,0-1.37,0-.71,0-.92L68,4.44l0-.89,4-1,.57.36c0,.48,0,.94-.06,1.39s0,.93,0,1.47,0,1.13,0,1.81,0,1.48,0,2.41l.06,0A5.11,5.11,0,0,1,74,8.67a3.77,3.77,0,0,1,1.75-.42,3.2,3.2,0,0,1,1.7.47,3.24,3.24,0,0,1,1.22,1.38,4.89,4.89,0,0,1,.46,2.24v2.37c0,.52,0,1,0,1.45a7,7,0,0,0,.07.88l1.42.36-.07,1H75.2l-.07-1,1.3-.36a2.73,2.73,0,0,0,.07-.53c0-.23,0-.49,0-.8s0-.61,0-.93v-2.1a3.17,3.17,0,0,0-.29-1.45,1.89,1.89,0,0,0-1.74-1.09,2.57,2.57,0,0,0-1.18.29,2.93,2.93,0,0,0-1,.83v3.38c0,.61,0,1.13,0,1.56a3.27,3.27,0,0,0,.1.84l1.39.36-.07,1Z" transform="translate(-0.89 -2.5)"/><path class="cls-1" d="M93.87,18.59A9,9,0,0,1,90,17.81a6,6,0,0,1-2.65-2.26,6.52,6.52,0,0,1-1-3.63A7.26,7.26,0,0,1,87,9a6.59,6.59,0,0,1,1.61-2.25A7.18,7.18,0,0,1,91.1,5.29a9.64,9.64,0,0,1,3.23-.51,10.41,10.41,0,0,1,2,.21,7.34,7.34,0,0,1,1.76.54l.11,3.15L97,8.75l-.7-2.07a3,3,0,0,0-1.06-.39,5.85,5.85,0,0,0-1.11-.12,4.31,4.31,0,0,0-2.48.67,4,4,0,0,0-1.48,1.82,6.83,6.83,0,0,0-.49,2.69,7.18,7.18,0,0,0,.63,3.14,4.71,4.71,0,0,0,1.68,2,4.26,4.26,0,0,0,2.37.68,4.65,4.65,0,0,0,1-.12,3.19,3.19,0,0,0,1-.42l-.46,1.25V15.46c0-.38,0-.75,0-1.13s0-.66-.07-.85l-1.6-.3.07-1.1h5.27l.07,1.05-1.09.32a3.86,3.86,0,0,0,0,.64c0,.32,0,.67,0,1.05s0,.63,0,1,0,.76,0,1.25a8,8,0,0,1-2.21.91A9.93,9.93,0,0,1,93.87,18.59Z" transform="translate(-0.89 -2.5)"/><path class="cls-1" d="M104.62,18.57a3.47,3.47,0,0,1-1.77-.44,3.28,3.28,0,0,1-1.13-1.05,2.2,2.2,0,0,1-.39-1.18,1.9,1.9,0,0,1,.5-1.34,3.69,3.69,0,0,1,1.6-.88L107,12.59v-.94a1.48,1.48,0,0,0-.32-.93,2.34,2.34,0,0,0-.84-.71,2.46,2.46,0,0,0-1.14-.28.8.8,0,0,0-.61.2,1.41,1.41,0,0,0-.21.76l-.09,1.23a2.74,2.74,0,0,1-1.7-.05,1,1,0,0,1-.68-.95,1.28,1.28,0,0,1,.41-.84,5.33,5.33,0,0,1,1-.83,10.7,10.7,0,0,1,1.31-.66,5.42,5.42,0,0,1,1.26-.34,4.72,4.72,0,0,1,3,.91,3.08,3.08,0,0,1,1.15,2.45L109.55,15c0,.38,0,.7,0,.95a2.68,2.68,0,0,0,.13.61l1.48.27v.87l-1.34.57c-.26.1-.5.18-.71.24a2.61,2.61,0,0,1-.6.08,1.17,1.17,0,0,1-1.14-.87l-.34-1,.44.09a6.84,6.84,0,0,1-1.44,1.31A2.7,2.7,0,0,1,104.62,18.57Zm1-1.83a1.7,1.7,0,0,0,.74-.16,1.81,1.81,0,0,0,.65-.5V13.8l-1.89.41a1.31,1.31,0,0,0-.79.39,1.05,1.05,0,0,0-.24.73,1.34,1.34,0,0,0,.45,1A1.46,1.46,0,0,0,105.6,16.74Z" transform="translate(-0.89 -2.5)"/><path class="cls-1" d="M116.4,18.47l-4.14-8.69-1.07-.37.07-1h5.34l.07,1-1.42.37,2.74,6Zm6.18-10,.07,1-1.07.37-4,7.94-1.8,3.79a4.44,4.44,0,0,1-1.18,1.63,2.19,2.19,0,0,1-1.34.45,1.81,1.81,0,0,1-1.13-.34,1.06,1.06,0,0,1-.42-.85,1.15,1.15,0,0,1,.37-.83,2.34,2.34,0,0,1,1.09-.58l2.49-.71-1.37,1.07,2.7-5,.27-.51,2.62-6-1.41-.37.07-1Z" transform="translate(-0.89 -2.5)"/><path class="cls-1" d="M126.6,18.57a3.42,3.42,0,0,1-1.77-.44,3.2,3.2,0,0,1-1.13-1.05,2.2,2.2,0,0,1-.39-1.18,1.9,1.9,0,0,1,.5-1.34,3.69,3.69,0,0,1,1.6-.88L129,12.59v-.94a1.54,1.54,0,0,0-.32-.93,2.34,2.34,0,0,0-.84-.71,2.46,2.46,0,0,0-1.14-.28.78.78,0,0,0-.61.2,1.39,1.39,0,0,0-.22.76l-.09,1.23a2.75,2.75,0,0,1-1.7-.05,1,1,0,0,1-.67-.95,1.28,1.28,0,0,1,.41-.84,5.05,5.05,0,0,1,1-.83,10,10,0,0,1,1.31-.66,5.42,5.42,0,0,1,1.26-.34,4.69,4.69,0,0,1,3,.91,3.06,3.06,0,0,1,1.16,2.45L131.53,15c0,.38,0,.7,0,.95a2.23,2.23,0,0,0,.13.61l1.48.27v.87l-1.35.57c-.26.1-.49.18-.7.24a2.68,2.68,0,0,1-.6.08,1.15,1.15,0,0,1-1.14-.87l-.34-1,.43.09A6.57,6.57,0,0,1,128,18.1,2.7,2.7,0,0,1,126.6,18.57Zm1-1.83a1.73,1.73,0,0,0,.74-.16,1.9,1.9,0,0,0,.65-.5V13.8l-1.89.41a1.31,1.31,0,0,0-.79.39,1.05,1.05,0,0,0-.24.73,1.37,1.37,0,0,0,.44,1A1.5,1.5,0,0,0,127.58,16.74Z" transform="translate(-0.89 -2.5)"/><path class="cls-1" d="M141.73,16.63a2.88,2.88,0,0,1-1.22,1.43,3.49,3.49,0,0,1-1.86.53,3.57,3.57,0,0,1-2.5-.89,3.46,3.46,0,0,1-1-2.69l.07-5.21h-1.6V9.14l3.54-2.92h.66l0,3,0,5.48a2,2,0,0,0,.48,1.49,1.81,1.81,0,0,0,1.34.47,2.2,2.2,0,0,0,.88-.18,2.48,2.48,0,0,0,.74-.48ZM136.62,9.8V8.46h4.47V9.8Z" transform="translate(-0.89 -2.5)"/><path class="cls-1" d="M142.14,18.38l-.07-1,1.42-.36a3.34,3.34,0,0,0,0-.39c0-.2,0-.46.05-.79s0-.71,0-1.15l0-1.74c0-.47,0-.9,0-1.31a9.31,9.31,0,0,0-.16-1.13L142,10.21V9.28l3.67-1,.5.36L146,10.49l.07,0a4.51,4.51,0,0,1,1.35-1.73,2.39,2.39,0,0,1,1.37-.46,1.65,1.65,0,0,1,1,.32,1.15,1.15,0,0,1,.42,1,1.26,1.26,0,0,1-.45,1,1.73,1.73,0,0,1-1.1.36,2.24,2.24,0,0,1-.91-.18,3.3,3.3,0,0,1-.87-.62l.55.07a4.24,4.24,0,0,0-.71.7,4.75,4.75,0,0,0-.61,1l0,1.9c0,.5,0,1,0,1.4s0,.81,0,1.12,0,.53,0,.65l2,.32-.07,1Z" transform="translate(-0.89 -2.5)"/><path class="cls-1" d="M151,18.38l-.07-1,1.53-.34a3.34,3.34,0,0,0,0-.39c0-.2,0-.46.05-.79s0-.71,0-1.15l0-1.74c0-.47,0-.9,0-1.31a9.31,9.31,0,0,0-.16-1.13l-1.53-.32V9.28l3.9-1,.53.38c0,.48-.08,1-.11,1.43s0,1,0,1.66v2.87q0,.84,0,1.53a3.78,3.78,0,0,0,.11.87l1.52.34-.06,1Zm2.89-12.21a1.67,1.67,0,0,1-1.27-.49,1.61,1.61,0,0,1-.48-1.17,1.68,1.68,0,0,1,1.75-1.67,1.63,1.63,0,0,1,1.26.5,1.73,1.73,0,0,1,.46,1.17,1.67,1.67,0,0,1-.46,1.17A1.63,1.63,0,0,1,153.89,6.17Z" transform="translate(-0.89 -2.5)"/><path class="cls-1" d="M50.13,44.28l.37,2.62-.65.08-.71-1.86-.28,0H47.48l-.58,0c0,.09,0,.29,0,.61s0,.7,0,1.12v3.62c0,.73,0,1.35,0,1.87s0,.85,0,1l1.4.18,0,.62h-4l0-.62,1.38-.18c0-.13,0-.46,0-1s0-1.14,0-1.87V45.7c0-.32,0-.52,0-.61l-.56,0H43.69l-.26,0L42.71,47l-.64-.1.36-2.62.37,0,.34,0H49.4l.34,0Z" transform="translate(-0.89 -2.5)"/><path class="cls-1" d="M51.36,54.09l0-.55,1-.25a5.05,5.05,0,0,0,0-.54c0-.24,0-.57,0-1V46.82c0-.45,0-.88,0-1.3s0-.78,0-1.09v-.57l-1.23-.17,0-.46,2.13-.65.26.22c0,.34,0,.69,0,1s0,.72,0,1.12,0,.84,0,1.34,0,1.07,0,1.71l.05,0a4.29,4.29,0,0,1,1.14-.9,2.7,2.7,0,0,1,1.2-.26,2.3,2.3,0,0,1,1.11.29,2.33,2.33,0,0,1,.88.93,3.45,3.45,0,0,1,.35,1.65v1.81q0,.62,0,1.08a6.61,6.61,0,0,0,.07.66l1,.25,0,.55h-3.1l0-.55,1-.25c0-.09,0-.19,0-.31s0-.27,0-.48,0-.47,0-.8V49.8a2.45,2.45,0,0,0-.26-1.2,1.55,1.55,0,0,0-.66-.66,1.74,1.74,0,0,0-.84-.21,2.13,2.13,0,0,0-1.08.29,2.86,2.86,0,0,0-.87.8v2.53c0,.53,0,1,0,1.3s0,.55,0,.64l1,.25,0,.55Z" transform="translate(-0.89 -2.5)"/><path class="cls-1" d="M63.81,54.22a3.48,3.48,0,0,1-1.68-.41,3.09,3.09,0,0,1-1.21-1.22,3.91,3.91,0,0,1-.44-1.91,4.25,4.25,0,0,1,.46-2,3.41,3.41,0,0,1,1.23-1.32,2.92,2.92,0,0,1,1.64-.44,2.49,2.49,0,0,1,2,.83,3.56,3.56,0,0,1,.71,2.4v.29H61.31v-.7h4.23l-.17.16v-.29A2.34,2.34,0,0,0,64.92,48a1.55,1.55,0,0,0-1.24-.54,1.76,1.76,0,0,0-1,.29,2,2,0,0,0-.74.87,3.34,3.34,0,0,0-.28,1.46v.17a3.19,3.19,0,0,0,.68,2.19,2.2,2.2,0,0,0,1.74.78A2.39,2.39,0,0,0,65.19,53a2.85,2.85,0,0,0,.9-.77l.4.35a3.13,3.13,0,0,1-1.15,1.23A2.91,2.91,0,0,1,63.81,54.22Z" transform="translate(-0.89 -2.5)"/><path class="cls-1" d="M74,54.24a6.29,6.29,0,0,1-1.47-.18,4.29,4.29,0,0,1-1.22-.44l-.08-2.06.61-.06.43,1.41a3.49,3.49,0,0,0,.92.41,3.71,3.71,0,0,0,1.08.15,2.15,2.15,0,0,0,1.35-.41,1.54,1.54,0,0,0,.17-2.13,3.07,3.07,0,0,0-.9-.69c-.37-.2-.77-.4-1.18-.59A10.24,10.24,0,0,1,72.52,49a3.18,3.18,0,0,1-.91-.88,2.23,2.23,0,0,1-.36-1.29,2.29,2.29,0,0,1,.44-1.38,3,3,0,0,1,1.2-.93,4.2,4.2,0,0,1,1.75-.34,7.39,7.39,0,0,1,.84,0c.26,0,.5.07.73.12a3.83,3.83,0,0,1,.6.2l.12,2-.62.06-.44-1.32a2.46,2.46,0,0,0-1.41-.35,2.19,2.19,0,0,0-1.42.43,1.38,1.38,0,0,0-.53,1.11,1.52,1.52,0,0,0,.36,1,3.15,3.15,0,0,0,.91.72c.37.21.77.41,1.18.6a8.92,8.92,0,0,1,1.18.65,3.37,3.37,0,0,1,.91.85,2,2,0,0,1,.36,1.23,2.38,2.38,0,0,1-.44,1.4,3,3,0,0,1-1.21,1A4.33,4.33,0,0,1,74,54.24Z" transform="translate(-0.89 -2.5)"/><path class="cls-1" d="M82.32,54.22a3.7,3.7,0,0,1-1.85-.46,3.22,3.22,0,0,1-1.22-1.31,4.11,4.11,0,0,1-.43-1.92,3.81,3.81,0,0,1,.47-1.91,3.47,3.47,0,0,1,1.29-1.29,3.54,3.54,0,0,1,1.79-.46,3.4,3.4,0,0,1,1.76.44,3.12,3.12,0,0,1,1.17,1.27,4.28,4.28,0,0,1,.41,1.9,3.94,3.94,0,0,1-.45,1.89A3.51,3.51,0,0,1,84,53.71,3,3,0,0,1,82.32,54.22Zm.17-.7a1.63,1.63,0,0,0,1.05-.36,2.57,2.57,0,0,0,.7-1,3.76,3.76,0,0,0,.26-1.43,4,4,0,0,0-.62-2.31,2,2,0,0,0-1.66-.89,1.9,1.9,0,0,0-1.56.77,3.33,3.33,0,0,0-.59,2.05A4.06,4.06,0,0,0,80.38,52a2.58,2.58,0,0,0,.87,1.11A2,2,0,0,0,82.49,53.52Z" transform="translate(-0.89 -2.5)"/><path class="cls-1" d="M87,54.09l0-.55,1-.25c0-.09,0-.2,0-.32s0-.31,0-.54,0-.54,0-.93l0-1.3c0-.37,0-.76,0-1.15s-.06-.68-.08-.86L86.89,48v-.5l2-.56.23.25-.09.86,0,0a4.38,4.38,0,0,1,1.17-.9,2.63,2.63,0,0,1,1.19-.26,2.19,2.19,0,0,1,1.11.29,2.15,2.15,0,0,1,.88.91,3.16,3.16,0,0,1,.35,1.6v1.88c0,.41,0,.77,0,1.09s0,.54.06.65l1,.25,0,.55H91.8l0-.55,1-.25c0-.09,0-.19,0-.31s0-.27,0-.48,0-.47,0-.8V49.79a2.29,2.29,0,0,0-.28-1.23,1.68,1.68,0,0,0-.69-.64,1.83,1.83,0,0,0-.79-.19A2.13,2.13,0,0,0,90,48a2.72,2.72,0,0,0-.86.8v2.53c0,.54,0,1,0,1.28s0,.53,0,.66l1,.25,0,.55Z" transform="translate(-0.89 -2.5)"/><path class="cls-1" d="M102.78,54.22a3.65,3.65,0,0,1-1.85-.46,3.09,3.09,0,0,1-1.22-1.31,4.12,4.12,0,0,1-.44-1.92,3.71,3.71,0,0,1,.48-1.91A3.37,3.37,0,0,1,101,47.33a3.57,3.57,0,0,1,1.8-.46,3.46,3.46,0,0,1,1.76.44,3.17,3.17,0,0,1,1.16,1.27,4.15,4.15,0,0,1,.41,1.9,4.05,4.05,0,0,1-.44,1.89,3.59,3.59,0,0,1-1.22,1.34A3.07,3.07,0,0,1,102.78,54.22Zm.16-.7a1.63,1.63,0,0,0,1-.36,2.47,2.47,0,0,0,.7-1,3.58,3.58,0,0,0,.26-1.43,4,4,0,0,0-.62-2.31,1.94,1.94,0,0,0-1.65-.89,1.9,1.9,0,0,0-1.56.77,3.26,3.26,0,0,0-.6,2.05,4.06,4.06,0,0,0,.31,1.66,2.58,2.58,0,0,0,.87,1.11A2,2,0,0,0,102.94,53.52Z" transform="translate(-0.89 -2.5)"/><path class="cls-1" d="M107.31,47.8v-.49L108.5,47h2.91v.77Zm3.62,6.29h-3.42l0-.55,1-.25c0-.09,0-.19,0-.31s0-.27,0-.45V51.05l0-3.25v-2a4.53,4.53,0,0,1,.32-1.78,2.53,2.53,0,0,1,.88-1.13A2.29,2.29,0,0,1,111,42.5a1.82,1.82,0,0,1,1,.28.83.83,0,0,1,.44.7.42.42,0,0,1-.14.32.44.44,0,0,1-.33.13,1,1,0,0,1-.75-.35l-.71-.68.32.1a1.1,1.1,0,0,0-1,.64,3.58,3.58,0,0,0-.36,1.76V47l0,.77,0,3.08c0,.47,0,.93,0,1.38s0,.8,0,1l1.36.2Z" transform="translate(-0.89 -2.5)"/><path class="cls-1" d="M113.52,48.54a.92.92,0,0,1-.66-.24.81.81,0,0,1-.25-.62.8.8,0,0,1,.11-.44.84.84,0,0,1,.32-.3,1,1,0,0,1,.46-.11.93.93,0,0,1,.67.24.88.88,0,0,1,0,1.23A.92.92,0,0,1,113.52,48.54Zm0,5.71a.89.89,0,0,1-.66-.25.87.87,0,0,1-.25-.63.82.82,0,0,1,.11-.44.79.79,0,0,1,.32-.31,1,1,0,0,1,.46-.11.9.9,0,0,1,.67.25.89.89,0,0,1,0,1.24A.88.88,0,0,1,113.52,54.25Z" transform="translate(-0.89 -2.5)"/><path class="cls-1" d="M27.91,64.74H30.6l3.49,8.12h-.23l3.5-8.12h2.47l0,.58-1,.2c0,.18,0,.49,0,.94l0,1.35.05,3.08c0,.57,0,1,0,1.41s0,.67,0,.89,0,.38,0,.52l1,.2,0,.58H36.73l0-.58,1-.2a4.18,4.18,0,0,0,0-.5V72.5c0-.31,0-.75,0-1.3l0-6H38l-4,9.32h-.45l-4-9.35h.27v5.63c0,1,0,1.64,0,2.07s0,.69,0,.8l1.13.22,0,.58H27.7l-.05-.58,1.13-.22c0-.09,0-.23,0-.43s0-.48,0-.83,0-.79,0-1.31l.05-3.32c0-.43,0-.87,0-1.3s0-.75,0-1l-1-.22Z" transform="translate(-0.89 -2.5)"/><path class="cls-1" d="M41.49,74.49l0-.55,1-.25a1.7,1.7,0,0,0,0-.3c0-.14,0-.34,0-.58s0-.55,0-.91V70.59c0-.39,0-.78,0-1.16s-.06-.66-.08-.84l-1.06-.23v-.5l2-.56.19.22-.08,1.41h0a3.59,3.59,0,0,1,1-1.32,1.81,1.81,0,0,1,1-.34.92.92,0,0,1,.6.19.6.6,0,0,1,.24.51.61.61,0,0,1-.25.53,1.05,1.05,0,0,1-.64.18,1.13,1.13,0,0,1-.54-.13,2.56,2.56,0,0,1-.48-.33l.25.12a2.8,2.8,0,0,0-.61.59,4.66,4.66,0,0,0-.55,1l0,1.61c0,.24,0,.51,0,.8s0,.55,0,.8,0,.45,0,.59l1.44.22,0,.58Z" transform="translate(-0.89 -2.5)"/><path class="cls-1" d="M48.2,74.65a.91.91,0,0,1-.66-.25.82.82,0,0,1-.25-.63.93.93,0,0,1,.11-.44,1,1,0,0,1,.78-.42.9.9,0,0,1,.67.25.87.87,0,0,1-.65,1.49Z" transform="translate(-0.89 -2.5)"/><path class="cls-1" d="M54.11,74.49l0-.58.94-.22s0-.13,0-.26,0-.35,0-.68,0-.79,0-1.38l0-3.57c0-.59,0-1,0-1.35s0-.52,0-.64a1,1,0,0,0,0-.24l-1-.25,0-.58h3.35a3.78,3.78,0,0,1,2.43.72,2.52,2.52,0,0,1,.89,2.07,2.65,2.65,0,0,1-.47,1.6,3,3,0,0,1-1.24,1,4,4,0,0,1-1.67.36,5.39,5.39,0,0,1-.72,0L56,70.39v-.82a6.61,6.61,0,0,0,.72.16,3.86,3.86,0,0,0,.58,0,2.47,2.47,0,0,0,1.61-.48,1.9,1.9,0,0,0,.58-1.54A2.2,2.2,0,0,0,58.85,66a2.28,2.28,0,0,0-1.57-.57h-1v.47c0,.24,0,.53,0,.87s0,.68,0,1l0,3.57c0,.59,0,1,0,1.37s0,.53,0,.66,0,.21,0,.26l1.38.21,0,.62Z" transform="translate(-0.89 -2.5)"/><path class="cls-1" d="M64.54,74.62a2.43,2.43,0,0,1-1.12-.25,2.1,2.1,0,0,1-.81-.65,1.39,1.39,0,0,1-.3-.86,1.19,1.19,0,0,1,.37-.89,3.12,3.12,0,0,1,1.21-.64l2.51-.88v-.91a1.28,1.28,0,0,0-.26-.78,1.81,1.81,0,0,0-.69-.55,2.38,2.38,0,0,0-1-.2.77.77,0,0,0-.61.19,1.36,1.36,0,0,0-.19.74l0,.6a1.46,1.46,0,0,1-.91,0,.56.56,0,0,1-.39-.54.85.85,0,0,1,.23-.54,3.19,3.19,0,0,1,.6-.51,3.88,3.88,0,0,1,.81-.42,3.52,3.52,0,0,1,.9-.24,2.69,2.69,0,0,1,1.86.63,2.13,2.13,0,0,1,.73,1.66l0,2.92c0,.18,0,.37,0,.59a1.67,1.67,0,0,0,.07.45l1,.2v.45l-.75.27c-.14,0-.27.1-.39.13a1.26,1.26,0,0,1-.29.05c-.32,0-.52-.18-.6-.55l-.15-.63h.22a4.58,4.58,0,0,1-1.06.9A2.06,2.06,0,0,1,64.54,74.62Zm.34-.83a1.68,1.68,0,0,0,.79-.2A2.66,2.66,0,0,0,66.4,73V71.2l-2.08.58a1,1,0,0,0-.57.32.93.93,0,0,0-.18.58,1,1,0,0,0,.4.76A1.37,1.37,0,0,0,64.88,73.79Z" transform="translate(-0.89 -2.5)"/><path class="cls-1" d="M69.63,74.49l0-.55,1-.25a1.7,1.7,0,0,0,0-.3c0-.14,0-.34,0-.58s0-.55,0-.91V70.59c0-.39,0-.78,0-1.16s-.06-.66-.08-.84l-1.06-.23v-.5l2-.56.2.22-.08,1.41h0a3.59,3.59,0,0,1,1-1.32,1.81,1.81,0,0,1,1-.34.92.92,0,0,1,.6.19.6.6,0,0,1,.24.51.61.61,0,0,1-.25.53,1.05,1.05,0,0,1-.64.18,1.13,1.13,0,0,1-.54-.13,2.56,2.56,0,0,1-.48-.33l.25.12a2.8,2.8,0,0,0-.61.59,4.66,4.66,0,0,0-.55,1l0,1.61c0,.24,0,.51,0,.8s0,.55,0,.8,0,.45,0,.59l1.44.22,0,.58Z" transform="translate(-0.89 -2.5)"/><path class="cls-1" d="M78.55,74.62a3.55,3.55,0,0,1-1.69-.41A3.13,3.13,0,0,1,75.66,73a3.8,3.8,0,0,1-.45-1.91,4.25,4.25,0,0,1,.47-2,3.32,3.32,0,0,1,1.22-1.32,3,3,0,0,1,1.65-.44,2.47,2.47,0,0,1,1.94.83,3.56,3.56,0,0,1,.71,2.4v.29H76v-.7h4.23l-.16.16V70a2.28,2.28,0,0,0-.46-1.54,1.54,1.54,0,0,0-1.24-.54,1.76,1.76,0,0,0-1,.29,2.07,2.07,0,0,0-.74.87,3.34,3.34,0,0,0-.28,1.46v.17a3.24,3.24,0,0,0,.68,2.19,2.2,2.2,0,0,0,1.74.78,2.36,2.36,0,0,0,1.06-.23,2.94,2.94,0,0,0,.9-.76l.4.34a3.06,3.06,0,0,1-1.15,1.23A2.9,2.9,0,0,1,78.55,74.62Z" transform="translate(-0.89 -2.5)"/><path class="cls-1" d="M82.43,74.49l0-.55,1-.25a2.88,2.88,0,0,0,0-.32c0-.13,0-.31,0-.54s0-.54,0-.93V70.6c0-.37,0-.76,0-1.15s0-.68-.07-.86l-1.06-.23v-.5l2-.56.23.25-.08.86.05,0a4.51,4.51,0,0,1,1.16-.9,2.7,2.7,0,0,1,1.2-.26,2.24,2.24,0,0,1,2,1.2,3.27,3.27,0,0,1,.35,1.6V72c0,.41,0,.77,0,1.09a6,6,0,0,0,.07.65l1,.25,0,.55h-3.1l0-.55,1-.25c0-.09,0-.19,0-.31s0-.27,0-.48,0-.47,0-.8V70.19A2.28,2.28,0,0,0,87.94,69a1.62,1.62,0,0,0-.69-.64,1.79,1.79,0,0,0-.78-.19,2.13,2.13,0,0,0-1.08.29,2.67,2.67,0,0,0-.87.81v2.52c0,.54,0,1,0,1.28s0,.53,0,.66l1,.25,0,.55Z" transform="translate(-0.89 -2.5)"/><path class="cls-1" d="M96.41,73.56a2.34,2.34,0,0,1-3.5.45,2.37,2.37,0,0,1-.63-1.8l0-4H91.16v-.3l2-1.88h.25l0,1.8,0,4.13a2,2,0,0,0,.39,1.36,1.36,1.36,0,0,0,1.09.45,1.67,1.67,0,0,0,.74-.16,1.81,1.81,0,0,0,.6-.42Zm-3.55-5.38v-.76h3v.76Z" transform="translate(-0.89 -2.5)"/><path class="cls-1" d="M100.46,64.74h2.69l3.49,8.12h-.24l3.51-8.12h2.47l0,.58-1,.2c0,.18,0,.49,0,.94l0,1.35,0,3.08c0,.57,0,1,0,1.41s0,.67,0,.89,0,.38,0,.52l1,.2,0,.58h-3.23l0-.58,1-.2c0-.17,0-.33,0-.5V72.5c0-.31,0-.75,0-1.3l0-6h.33l-4,9.32H106l-4-9.35h.27v5.63c0,1,0,1.64,0,2.07s0,.69,0,.8l1.13.22,0,.58h-3.15l0-.58,1.12-.22c0-.09,0-.23,0-.43s0-.48,0-.83,0-.79,0-1.31l0-3.32c0-.43,0-.87,0-1.3s0-.75,0-1l-1-.22Z" transform="translate(-0.89 -2.5)"/><path class="cls-1" d="M116.73,74.62a2.46,2.46,0,0,1-1.12-.25,2.1,2.1,0,0,1-.81-.65,1.44,1.44,0,0,1-.29-.86,1.21,1.21,0,0,1,.36-.89,3.2,3.2,0,0,1,1.21-.64l2.51-.88v-.91a1.28,1.28,0,0,0-.26-.78,1.81,1.81,0,0,0-.69-.55,2.32,2.32,0,0,0-1-.2.74.74,0,0,0-.6.19,1.27,1.27,0,0,0-.19.74l0,.6a1.47,1.47,0,0,1-.91,0,.56.56,0,0,1-.38-.54.84.84,0,0,1,.22-.54,3.19,3.19,0,0,1,.6-.51,3.88,3.88,0,0,1,.81-.42,3.71,3.71,0,0,1,.91-.24,2.72,2.72,0,0,1,1.86.63,2.17,2.17,0,0,1,.73,1.66l0,2.92c0,.18,0,.37,0,.59a1.58,1.58,0,0,0,.08.45l1,.2v.45l-.75.27c-.14,0-.27.1-.39.13a1.18,1.18,0,0,1-.29.05c-.32,0-.52-.18-.59-.55l-.15-.63h.21a4.35,4.35,0,0,1-1,.9A2.13,2.13,0,0,1,116.73,74.62Zm.35-.83a1.68,1.68,0,0,0,.79-.2,2.49,2.49,0,0,0,.72-.61V71.2l-2.08.58a1.11,1.11,0,0,0-.57.32,1,1,0,0,0,.23,1.34A1.35,1.35,0,0,0,117.08,73.79Z" transform="translate(-0.89 -2.5)"/><path class="cls-1" d="M121.79,74.49l0-.55,1-.25c0-.09,0-.2,0-.32s0-.31,0-.54,0-.54,0-.93l0-1.3c0-.37,0-.76,0-1.15s-.06-.68-.08-.86l-1.06-.23v-.5l2-.56.24.25-.09.86.05,0a4.51,4.51,0,0,1,1.16-.9,2.7,2.7,0,0,1,1.2-.26,2.19,2.19,0,0,1,1.11.29,2.15,2.15,0,0,1,.88.91,3.27,3.27,0,0,1,.35,1.6V72c0,.41,0,.77,0,1.09s.05.54.07.65l1,.25,0,.55h-3.11l0-.55,1-.25c0-.09,0-.19,0-.31a4.64,4.64,0,0,0,0-.48c0-.2,0-.47,0-.8V70.19a2.38,2.38,0,0,0-.28-1.23,1.68,1.68,0,0,0-.69-.64,1.83,1.83,0,0,0-.79-.19,2.13,2.13,0,0,0-1.08.29,2.64,2.64,0,0,0-.86.81v2.52c0,.54,0,1,0,1.28s0,.53,0,.66l1,.25,0,.55Z" transform="translate(-0.89 -2.5)"/><path class="cls-1" d="M11.46,95a2.46,2.46,0,0,1-1.12-.25,2.2,2.2,0,0,1-.81-.65,1.44,1.44,0,0,1-.29-.86,1.21,1.21,0,0,1,.36-.89,3.2,3.2,0,0,1,1.21-.64l2.51-.88v-.91a1.28,1.28,0,0,0-.26-.78,1.72,1.72,0,0,0-.69-.55,2.32,2.32,0,0,0-1-.2.74.74,0,0,0-.6.19,1.27,1.27,0,0,0-.19.74l0,.6a1.39,1.39,0,0,1-.91,0,.54.54,0,0,1-.38-.53.84.84,0,0,1,.22-.54,3.19,3.19,0,0,1,.6-.51,3.88,3.88,0,0,1,.81-.42,3.71,3.71,0,0,1,.91-.24,2.72,2.72,0,0,1,1.86.63A2.17,2.17,0,0,1,14.4,90l0,2.92c0,.18,0,.37,0,.59a1.58,1.58,0,0,0,.08.45l1,.2v.45l-.75.27-.39.13a1.18,1.18,0,0,1-.29,0c-.32,0-.52-.18-.59-.55l-.15-.63.21,0a4.2,4.2,0,0,1-1.05.91A2.13,2.13,0,0,1,11.46,95Zm.35-.83a1.68,1.68,0,0,0,.79-.2,2.49,2.49,0,0,0,.72-.61V91.6l-2.08.58a1.11,1.11,0,0,0-.57.32,1,1,0,0,0-.17.58,1,1,0,0,0,.4.76A1.35,1.35,0,0,0,11.81,94.19Z" transform="translate(-0.89 -2.5)"/><path class="cls-1" d="M16.52,94.89l0-.55,1-.25a2.88,2.88,0,0,0,0-.32c0-.13,0-.31,0-.54s0-.54,0-.93l0-1.3c0-.37,0-.76-.05-1.15s-.05-.68-.07-.86l-1.06-.23v-.5l2-.56.24.25-.09.86.05,0a4.51,4.51,0,0,1,1.16-.9,2.7,2.7,0,0,1,1.2-.26A2.19,2.19,0,0,1,22.1,88a2.15,2.15,0,0,1,.88.91,3.27,3.27,0,0,1,.35,1.6v1.88c0,.41,0,.77,0,1.09s.05.54.07.65l1,.25,0,.55H21.32l0-.55,1-.25c0-.09,0-.19,0-.31a4.64,4.64,0,0,0,0-.48c0-.2,0-.47,0-.8V90.59A2.38,2.38,0,0,0,22,89.36a1.68,1.68,0,0,0-.69-.64,1.83,1.83,0,0,0-.79-.19,2.13,2.13,0,0,0-1.08.29,2.72,2.72,0,0,0-.86.8v2.53c0,.54,0,1,0,1.28s0,.53,0,.66l1,.25,0,.55Z" transform="translate(-0.89 -2.5)"/><path class="cls-1" d="M31.28,95.05l-.18-.2,0-1.09h-.05a3.67,3.67,0,0,1-1.06,1,2.3,2.3,0,0,1-1.12.28,3.19,3.19,0,0,1-1.7-.44A3.07,3.07,0,0,1,26,93.35a3.62,3.62,0,0,1-.43-1.77A4.27,4.27,0,0,1,25.89,90a3.75,3.75,0,0,1,.79-1.25,3.6,3.6,0,0,1,1.14-.81,3.31,3.31,0,0,1,1.35-.29,4.12,4.12,0,0,1,1,.13,2.24,2.24,0,0,1,.89.43c0-.2,0-.47,0-.81s0-.7,0-1.07,0-.7,0-1,0-.47,0-.56l-1.31-.25,0-.5,2.22-.65.27.22c0,.68,0,1.36-.05,2v2l0,3.81c0,.57,0,1.06,0,1.47s0,.71.06.87l1,.27v.5Zm-2.09-1a2.12,2.12,0,0,0,1-.22A3.12,3.12,0,0,0,31.1,93V89.49a2,2,0,0,0-.87-.89,2.29,2.29,0,0,0-1.06-.27,2.05,2.05,0,0,0-1.73.81,3.22,3.22,0,0,0-.62,2.06,2.94,2.94,0,0,0,.69,2.09A2.23,2.23,0,0,0,29.19,94Z" transform="translate(-0.89 -2.5)"/><path class="cls-1" d="M37.92,85.14h2.69l3.49,8.12h-.23l3.5-8.12h2.47l0,.58-1,.2c0,.18,0,.49,0,.94s0,.9,0,1.35l0,3.07c0,.58,0,1,0,1.42s0,.67,0,.88,0,.39,0,.53l1,.2,0,.58H46.74l-.05-.58,1-.2c0-.17,0-.34,0-.5V92.9c0-.31,0-.75,0-1.3l0-6H48l-4,9.32H43.5l-4-9.35h.27v5.63c0,1,0,1.64,0,2.07s0,.69,0,.8l1.13.22,0,.58H37.71l-.05-.58,1.13-.22a3.94,3.94,0,0,0,0-.43c0-.2,0-.48,0-.83s0-.79,0-1.31l0-3.32c0-.43,0-.87,0-1.3s0-.75,0-1l-1-.22Z" transform="translate(-0.89 -2.5)"/><path class="cls-1" d="M51.5,94.89l0-.55,1-.25a1.8,1.8,0,0,0,0-.3c0-.14,0-.34,0-.58s0-.55,0-.91V91c0-.39,0-.78,0-1.16s0-.66-.08-.84l-1.06-.23v-.5l2-.56.2.21-.09,1.42h.05a3.59,3.59,0,0,1,1-1.32,1.81,1.81,0,0,1,.95-.34,1,1,0,0,1,.6.18.63.63,0,0,1,.24.52.63.63,0,0,1-.24.53,1.11,1.11,0,0,1-.65.18A1.13,1.13,0,0,1,55,89a2.21,2.21,0,0,1-.47-.33l.24.11a3.12,3.12,0,0,0-.61.6,4.66,4.66,0,0,0-.55,1l0,1.61c0,.24,0,.51,0,.8s0,.55,0,.8,0,.45,0,.59l1.44.22,0,.58Z" transform="translate(-0.89 -2.5)"/><path class="cls-1" d="M59.87,95a5.37,5.37,0,0,1-1.19-.14,4.84,4.84,0,0,1-1-.37l-.08-1.73h.75L58.64,94a2.17,2.17,0,0,0,1.35.42,1.52,1.52,0,0,0,.94-.29.94.94,0,0,0,.38-.79,1.09,1.09,0,0,0-.33-.8,4.33,4.33,0,0,0-1.24-.73,6.17,6.17,0,0,1-1.64-1A1.73,1.73,0,0,1,58,88.6a2.23,2.23,0,0,1,.93-.69,3.7,3.7,0,0,1,1.38-.24,7.07,7.07,0,0,1,.91.06,3.39,3.39,0,0,1,.78.2l.19,1.68h-.7L61,88.5a1.34,1.34,0,0,0-.4-.16,2,2,0,0,0-.51-.06,1.5,1.5,0,0,0-1,.28.89.89,0,0,0-.37.75,1.07,1.07,0,0,0,.38.84,7.49,7.49,0,0,0,1.35.79,5.1,5.1,0,0,1,1.53,1,1.71,1.71,0,0,1-.31,2.54A3,3,0,0,1,59.87,95Z" transform="translate(-0.89 -2.5)"/><path class="cls-1" d="M65,95.05a.89.89,0,0,1-.66-.25.88.88,0,0,1-.14-1.07.92.92,0,0,1,.32-.3.9.9,0,0,1,.46-.12.86.86,0,0,1,.66.25.89.89,0,0,1,0,1.24A.84.84,0,0,1,65,95.05Z" transform="translate(-0.89 -2.5)"/><path class="cls-1" d="M70.88,94.89l0-.58,1-.22a2.07,2.07,0,0,0,0-.26c0-.12,0-.35,0-.68s0-.79,0-1.38V88.2c0-.59,0-1,0-1.35s0-.52,0-.65a1,1,0,0,0,0-.23l-1-.25,0-.58h3.35a3.73,3.73,0,0,1,2.42.72,2.51,2.51,0,0,1,.9,2.07,2.75,2.75,0,0,1-.47,1.6,3.08,3.08,0,0,1-1.25,1,3.88,3.88,0,0,1-1.67.36,5.58,5.58,0,0,1-.72,0l-.62-.09V90a6.61,6.61,0,0,0,.72.16,3.82,3.82,0,0,0,.57,0,2.48,2.48,0,0,0,1.62-.48,1.92,1.92,0,0,0,.58-1.54,2.24,2.24,0,0,0-.64-1.76,2.28,2.28,0,0,0-1.57-.57h-1c0,.07,0,.22,0,.47s0,.53,0,.87,0,.68,0,1l0,3.57c0,.59,0,1,0,1.37s0,.53,0,.66,0,.21,0,.26l1.38.21,0,.62Z" transform="translate(-0.89 -2.5)"/><path class="cls-1" d="M81.3,95a2.46,2.46,0,0,1-1.12-.25,2.16,2.16,0,0,1-.8-.65,1.39,1.39,0,0,1-.3-.86,1.21,1.21,0,0,1,.36-.89,3.25,3.25,0,0,1,1.22-.64l2.5-.88v-.91a1.27,1.27,0,0,0-.25-.78,1.87,1.87,0,0,0-.69-.55,2.38,2.38,0,0,0-1-.2.77.77,0,0,0-.61.19,1.36,1.36,0,0,0-.19.74l0,.6a1.42,1.42,0,0,1-.92,0,.54.54,0,0,1-.38-.53.85.85,0,0,1,.23-.54,3.1,3.1,0,0,1,.59-.51,3.73,3.73,0,0,1,.82-.42,3.52,3.52,0,0,1,.9-.24,2.69,2.69,0,0,1,1.86.63A2.13,2.13,0,0,1,84.24,90l0,2.92c0,.18,0,.37,0,.59a1.58,1.58,0,0,0,.08.45l1,.2v.45l-.74.27-.39.13a1.35,1.35,0,0,1-.29,0c-.33,0-.52-.18-.6-.55l-.15-.63.21,0a4.2,4.2,0,0,1-1,.91A2.1,2.1,0,0,1,81.3,95Zm.35-.83a1.68,1.68,0,0,0,.79-.2,2.49,2.49,0,0,0,.72-.61V91.6l-2.07.58a1.11,1.11,0,0,0-.58.32,1,1,0,0,0-.17.58,1,1,0,0,0,.4.76A1.35,1.35,0,0,0,81.65,94.19Z" transform="translate(-0.89 -2.5)"/><path class="cls-1" d="M86.4,94.89l0-.55,1-.25a1.8,1.8,0,0,0,0-.3c0-.14,0-.34,0-.58s0-.55,0-.91V91c0-.39,0-.78,0-1.16s-.05-.66-.07-.84l-1.06-.23v-.5l2-.56.2.21-.08,1.42h0a3.49,3.49,0,0,1,1-1.32,1.8,1.8,0,0,1,.94-.34,1,1,0,0,1,.61.18.63.63,0,0,1,.24.52.61.61,0,0,1-.25.53,1.07,1.07,0,0,1-.65.18,1.19,1.19,0,0,1-.54-.13,2.21,2.21,0,0,1-.47-.33l.25.11a3.12,3.12,0,0,0-.61.6,4.24,4.24,0,0,0-.55,1V91.9c0,.24,0,.51,0,.8s0,.55,0,.8,0,.45,0,.59l1.45.22,0,.58Z" transform="translate(-0.89 -2.5)"/><path class="cls-1" d="M95.31,95a3.38,3.38,0,0,1-1.68-.42,3,3,0,0,1-1.2-1.21A3.8,3.8,0,0,1,92,91.48a4.25,4.25,0,0,1,.46-2,3.41,3.41,0,0,1,1.23-1.32,2.92,2.92,0,0,1,1.64-.44,2.49,2.49,0,0,1,2,.83A3.56,3.56,0,0,1,98,90.9v.29H92.81v-.7H97l-.16.16v-.3a2.33,2.33,0,0,0-.46-1.53,1.55,1.55,0,0,0-1.24-.54,1.76,1.76,0,0,0-1,.29,2,2,0,0,0-.74.87,3.34,3.34,0,0,0-.28,1.46v.17a3.19,3.19,0,0,0,.68,2.19,2.2,2.2,0,0,0,1.74.78,2.39,2.39,0,0,0,1.06-.23,2.85,2.85,0,0,0,.9-.77l.4.35a3.06,3.06,0,0,1-1.15,1.23A2.91,2.91,0,0,1,95.31,95Z" transform="translate(-0.89 -2.5)"/><path class="cls-1" d="M99.2,94.89l0-.55,1-.25c0-.09,0-.2,0-.32s0-.31,0-.54,0-.54,0-.93V91c0-.37,0-.76,0-1.15s0-.68-.07-.86l-1.07-.23v-.5l2-.56.23.25-.08.86,0,0a4.35,4.35,0,0,1,1.16-.9,2.64,2.64,0,0,1,1.2-.26,2.25,2.25,0,0,1,1.11.29,2.27,2.27,0,0,1,.88.91,3.27,3.27,0,0,1,.35,1.6v1.88c0,.41,0,.77,0,1.09a4.15,4.15,0,0,0,.07.65l1,.25,0,.55H104l0-.55,1-.25c0-.09,0-.19,0-.31s0-.27,0-.48V90.59a2.29,2.29,0,0,0-.28-1.23,1.68,1.68,0,0,0-.69-.64,1.79,1.79,0,0,0-.79-.19,2.19,2.19,0,0,0-1.08.29,2.72,2.72,0,0,0-.86.8v2.53c0,.54,0,1,0,1.28s0,.53,0,.66l1,.25,0,.55Z" transform="translate(-0.89 -2.5)"/><path class="cls-1" d="M113.18,94a2.32,2.32,0,0,1-.85.77,2.26,2.26,0,0,1-1.06.27,2.29,2.29,0,0,1-1.6-.59,2.37,2.37,0,0,1-.63-1.8l0-4h-1.16v-.3l2-1.88h.25l0,1.8,0,4.13a2,2,0,0,0,.39,1.36,1.36,1.36,0,0,0,1.09.45,1.7,1.7,0,0,0,.74-.16,1.92,1.92,0,0,0,.6-.42Zm-3.55-5.38v-.77h3v.77Z" transform="translate(-0.89 -2.5)"/><path class="cls-1" d="M123.87,95l-.42,0-.46,0h-5.86l0-.58,1-.22c0-.06,0-.17,0-.36s0-.44,0-.78V87.08c0-.33,0-.59,0-.78a1.19,1.19,0,0,0,0-.34l-1-.24,0-.58h3.67l0,.62-1.38.2a.84.84,0,0,0,0,.3c0,.17,0,.43,0,.77s0,.78,0,1.33v3.32c0,.56,0,1,0,1.49s0,.71,0,.82l.45,0,.52,0h1.44l.63,0a5.35,5.35,0,0,0,.55,0l.85-1.57.68.15Z" transform="translate(-0.89 -2.5)"/><path class="cls-1" d="M127.87,95a2.46,2.46,0,0,1-1.12-.25,2.2,2.2,0,0,1-.81-.65,1.44,1.44,0,0,1-.29-.86,1.21,1.21,0,0,1,.36-.89,3.2,3.2,0,0,1,1.21-.64l2.51-.88v-.91a1.28,1.28,0,0,0-.26-.78,1.72,1.72,0,0,0-.69-.55,2.32,2.32,0,0,0-1-.2.73.73,0,0,0-.6.19,1.27,1.27,0,0,0-.19.74l0,.6a1.39,1.39,0,0,1-.91,0,.54.54,0,0,1-.38-.53.84.84,0,0,1,.22-.54,3.19,3.19,0,0,1,.6-.51,3.88,3.88,0,0,1,.81-.42,3.71,3.71,0,0,1,.91-.24,2.72,2.72,0,0,1,1.86.63,2.17,2.17,0,0,1,.73,1.66l0,2.92c0,.18,0,.37,0,.59a1.58,1.58,0,0,0,.08.45l1,.2v.45l-.75.27c-.14,0-.27.1-.39.13a1.18,1.18,0,0,1-.29,0c-.32,0-.52-.18-.59-.55l-.15-.63.21,0a4.2,4.2,0,0,1-1.05.91A2.13,2.13,0,0,1,127.87,95Zm.35-.83A1.68,1.68,0,0,0,129,94a2.49,2.49,0,0,0,.72-.61V91.6l-2.08.58a1.11,1.11,0,0,0-.57.32,1,1,0,0,0-.17.58,1,1,0,0,0,.4.76A1.35,1.35,0,0,0,128.22,94.19Z" transform="translate(-0.89 -2.5)"/><path class="cls-1" d="M138.73,95.05l-.19-.2,0-1.09h-.05a3.52,3.52,0,0,1-1,1,2.3,2.3,0,0,1-1.12.28,3.19,3.19,0,0,1-1.7-.44,3.1,3.1,0,0,1-1.17-1.21,3.62,3.62,0,0,1-.42-1.77,4.27,4.27,0,0,1,.28-1.58,3.75,3.75,0,0,1,.79-1.25,3.65,3.65,0,0,1,1.15-.81,3.24,3.24,0,0,1,1.35-.29,4.17,4.17,0,0,1,1,.13,2.2,2.2,0,0,1,.88.43V87.4c0-.34,0-.7,0-1.07s0-.7,0-1v-.56l-1.32-.25,0-.5,2.23-.65.26.22c0,.68,0,1.36,0,2s0,1.34,0,2l0,3.81c0,.57,0,1.06.05,1.47s0,.71,0,.87l1.05.27v.5Zm-2.09-1a2.11,2.11,0,0,0,1-.22,3,3,0,0,0,.92-.81V89.49a2,2,0,0,0-.87-.89,2.25,2.25,0,0,0-1-.27,2.08,2.08,0,0,0-1.74.81,3.28,3.28,0,0,0-.62,2.06,2.9,2.9,0,0,0,.7,2.09A2.2,2.2,0,0,0,136.64,94Z" transform="translate(-0.89 -2.5)"/><path class="cls-1" d="M144.84,95,142,88.58l-.78-.23.05-.55h2.94l0,.55-1,.23,2.37,5.33ZM149,87.8l.05.55-.78.23-2.79,6-1.34,2.76a3.27,3.27,0,0,1-.73,1,1.45,1.45,0,0,1-.92.3,1.08,1.08,0,0,1-.62-.17.57.57,0,0,1-.24-.48.64.64,0,0,1,.17-.41,1.27,1.27,0,0,1,.54-.32l1.43-.43-.66.85,1.79-3.5.18-.29,2.26-5.34-1-.23,0-.55Z" transform="translate(-0.89 -2.5)"/></g></g></svg>