<svg xmlns="http://www.w3.org/2000/svg" xmlns:xlink="http://www.w3.org/1999/xlink" viewBox="0 0 225.02 239.66"><defs><style>.cls-1,.cls-2{fill:#f2f3eb;}.cls-1,.cls-5{stroke:#b69991;stroke-miterlimit:10;stroke-width:2px;}.cls-3{clip-path:url(#clip-path);}.cls-4{fill:#8a8e6d;}.cls-5{fill:none;}</style><clipPath id="clip-path"><rect class="cls-1" x="1" y="1" width="223.02" height="237.66" rx="33.64"/></clipPath></defs><g id="Layer_2" data-name="Layer 2"><g id="Layer_1-2" data-name="Layer 1"><rect class="cls-2" x="1" y="1" width="223.02" height="237.66" rx="33.64"/><g class="cls-3"><path class="cls-4" d="M112.4,171.79H55c-1.56,0-1.57,0-1.67-1.53a49.08,49.08,0,0,1,7.46-30,48.13,48.13,0,0,1,20-18,46.73,46.73,0,0,1,20.82-4.81q10.85,0,21.68,0a46.8,46.8,0,0,1,26.81,8.16,48.53,48.53,0,0,1,19.78,26.94,50.06,50.06,0,0,1,1.94,17.51c-.1,1.73-.12,1.73-1.81,1.73Z"/><path class="cls-4" d="M141.63,84.15a29.13,29.13,0,1,1-28.94-29.44A29.33,29.33,0,0,1,141.63,84.15Z"/></g><rect class="cls-5" x="1" y="1" width="223.02" height="237.66" rx="33.64"/></g></g></svg>