<svg xmlns="http://www.w3.org/2000/svg" viewBox="0 0 229.81 44.78"><defs><style>.cls-1{fill:#f2f3eb;}</style></defs><g id="Layer_2" data-name="Layer 2"><g id="Layer_1-2" data-name="Layer 1"><path class="cls-1" d="M6,31.46a7.92,7.92,0,0,0,4.13-1.21,18.75,18.75,0,0,0,3.92-3.19,38.49,38.49,0,0,0,3.71-4.57q1.81-2.56,3.49-5.33c1.12-1.84,2.21-3.66,3.26-5.48s2.07-3.47,3-5A42.47,42.47,0,0,1,30.4,2.8,8,8,0,0,1,33,.58c.09,0,.17,0,.25.13s.1.18,0,.2A17.14,17.14,0,0,0,31.4,5.56a30,30,0,0,0-.75,4.77c-.13,1.61-.18,3.21-.17,4.8s0,3.15-.1,4.69a27.45,27.45,0,0,1-.6,4.48,13.84,13.84,0,0,1-1.68,4.17,67.65,67.65,0,0,0,4.52-6.1q2.07-3.15,3.92-6.2c1.23-2,2.42-4,3.55-5.82a47.88,47.88,0,0,1,3.38-4.83A17.48,17.48,0,0,1,46.92,2.2,6.32,6.32,0,0,1,50.63,1a3.2,3.2,0,0,1,1.85.59,1.76,1.76,0,0,1,.85,1.53,3.36,3.36,0,0,1-.1.69,3.29,3.29,0,0,1-.29.72,2.4,2.4,0,0,1-.46.58.91.91,0,0,1-.64.25,1.17,1.17,0,0,1-.59-.21,1.06,1.06,0,0,1-.45-.91,1.12,1.12,0,0,1,.5-1,1.3,1.3,0,0,0,.58-1,.7.7,0,0,0-.44-.66,1.75,1.75,0,0,0-.89-.17A6.14,6.14,0,0,0,46.92,3a21.28,21.28,0,0,0-3.45,3.71A62.3,62.3,0,0,0,40,12q-1.78,3-3.78,6.21c-1.33,2.14-2.77,4.29-4.32,6.43a52.55,52.55,0,0,1-5.1,6l-.87.87-.75,0a7.93,7.93,0,0,0,1.62-3.57,30.12,30.12,0,0,0,.5-4.62c.05-1.67.07-3.43,0-5.28a41.28,41.28,0,0,1,.29-5.55,25.27,25.27,0,0,1,1.24-5.39,14,14,0,0,1,2.87-4.77,11.14,11.14,0,0,0-2,2.41C29,5.8,28.16,7.08,27.29,8.55s-1.81,3.06-2.8,4.79-2,3.46-3.14,5.19-2.24,3.4-3.44,5a35.24,35.24,0,0,1-3.74,4.26,18.81,18.81,0,0,1-4,3,8.49,8.49,0,0,1-4.15,1.12,7.29,7.29,0,0,1-2.41-.39,5.4,5.4,0,0,1-1.93-1.14A5.16,5.16,0,0,1,.46,28.51,6.12,6.12,0,0,1,0,26.06a5.2,5.2,0,0,1,.46-2.18,5.65,5.65,0,0,1,3-2.94A5.34,5.34,0,0,1,5.6,20.5,5,5,0,0,1,9,21.44a3.28,3.28,0,0,1,1.23,2,3,3,0,0,1-.46,2.05,1.88,1.88,0,0,1-1.68.94,1.22,1.22,0,0,1-.73-.23A.91.91,0,0,1,7,25.48a.85.85,0,0,1,.38-.72,1.51,1.51,0,0,1,.91-.27,1,1,0,0,0,1-.54,1.35,1.35,0,0,0,0-1.19,2.85,2.85,0,0,0-1.17-1.18A4.54,4.54,0,0,0,5.73,21a4.88,4.88,0,0,0-1.87.38,5.29,5.29,0,0,0-1.64,1A5.37,5.37,0,0,0,1,24.07a4.78,4.78,0,0,0-.46,2.12,4.88,4.88,0,0,0,.48,2.18A5.43,5.43,0,0,0,2.3,30a5.55,5.55,0,0,0,1.75,1A5.43,5.43,0,0,0,6,31.46Z"/><path class="cls-1" d="M43.62,18.05a3,3,0,0,1,2.3.79,2.58,2.58,0,0,1,.69,1.91l1.7-2.7h2.61L45,27.81a3,3,0,0,0-.58,2.24c.16.55.47.83.91.83a3.48,3.48,0,0,0,2.2-1.19q1.24-1.17,3.4-3.5L52,25c.35-.37.65-.71.89-1s.59-.65.83-1h.79l-3.25,3.78a36.08,36.08,0,0,1-2.49,2.65,11.07,11.07,0,0,1-2,1.56,3.26,3.26,0,0,1-1.7.52,2.08,2.08,0,0,1-1.8-1,3.45,3.45,0,0,1-.44-2.57,13.89,13.89,0,0,1-2.32,2.66,4.19,4.19,0,0,1-2.83,1.08,2.86,2.86,0,0,1-2-.77,3.7,3.7,0,0,1-1.06-2,6.89,6.89,0,0,1,.11-2.83,9,9,0,0,1,1.47-3.19,13.34,13.34,0,0,1,3.46-3.55A7.05,7.05,0,0,1,43.62,18.05Zm.41.54a4.08,4.08,0,0,0-2.65,1.14A13.72,13.72,0,0,0,38.76,23a13.54,13.54,0,0,0-1.35,3A8.81,8.81,0,0,0,37,28.49a3.82,3.82,0,0,0,.35,1.76,1.1,1.1,0,0,0,1,.67,2.46,2.46,0,0,0,1.49-.62,10.28,10.28,0,0,0,1.62-1.66,28.28,28.28,0,0,0,1.68-2.37c.57-.88,1.14-1.78,1.72-2.7a6.37,6.37,0,0,0,.9-2,4,4,0,0,0,0-1.56,1.73,1.73,0,0,0-.63-1A1.76,1.76,0,0,0,44,18.59Z"/><path class="cls-1" d="M60.88,18.05a3,3,0,0,1,2.31.79,2.58,2.58,0,0,1,.68,1.91L72.25,7.1h2.62L62.25,27.81a3,3,0,0,0-.58,2.24c.17.55.47.83.91.83a3.48,3.48,0,0,0,2.2-1.19q1.25-1.17,3.41-3.5c.38-.44.75-.85,1.1-1.23s.64-.71.89-1,.58-.65.83-1h.79l-3.26,3.78a36.08,36.08,0,0,1-2.49,2.65,11.05,11.05,0,0,1-2,1.56,3.28,3.28,0,0,1-1.7.52,2.1,2.1,0,0,1-1.81-1,3.41,3.41,0,0,1-.43-2.57,13.92,13.92,0,0,1-2.33,2.66A4.19,4.19,0,0,1,55,31.67a2.89,2.89,0,0,1-2.06-.77,3.68,3.68,0,0,1-1-2,6.7,6.7,0,0,1,.1-2.83,9.19,9.19,0,0,1,1.47-3.19,13.22,13.22,0,0,1,3.47-3.55A7,7,0,0,1,60.88,18.05Zm.42.54a4.1,4.1,0,0,0-2.66,1.14A13.71,13.71,0,0,0,56,23a13.54,13.54,0,0,0-1.35,3,8.86,8.86,0,0,0-.44,2.53,3.82,3.82,0,0,0,.35,1.76,1.11,1.11,0,0,0,1,.67,2.51,2.51,0,0,0,1.5-.62,10.69,10.69,0,0,0,1.61-1.66,24.3,24.3,0,0,0,1.68-2.37c.57-.88,1.15-1.78,1.73-2.7a6.11,6.11,0,0,0,.89-2,3.78,3.78,0,0,0,0-1.56,1.71,1.71,0,0,0-.62-1A1.8,1.8,0,0,0,61.3,18.59Z"/><path class="cls-1" d="M70.92,31.5A2.05,2.05,0,0,1,69.47,31a2.68,2.68,0,0,1-.77-1.47,5,5,0,0,1,.11-2.14,9.17,9.17,0,0,1,1.12-2.57l4.19-6.73h2.62L70.8,27.81a3,3,0,0,0-.58,2.24c.17.55.47.83.91.83a3.48,3.48,0,0,0,2.2-1.19q1.24-1.17,3.41-3.5c.38-.44.75-.85,1.09-1.23s.65-.71.9-1,.58-.65.83-1h.79q-1.87,2.16-3.26,3.78a36.08,36.08,0,0,1-2.49,2.65,11.42,11.42,0,0,1-2,1.56A3.29,3.29,0,0,1,70.92,31.5Zm5.15-18a1.42,1.42,0,0,1,.42-1,1.35,1.35,0,0,1,1-.43,1.45,1.45,0,0,1,1,2.49,1.45,1.45,0,0,1-1,.41,1.42,1.42,0,0,1-1.45-1.45Z"/><path class="cls-1" d="M72.5,44.78a3.25,3.25,0,0,1-2.41-.89,2.93,2.93,0,0,1-.87-2.1A3.93,3.93,0,0,1,70,39.45a8.46,8.46,0,0,1,2.1-2,20,20,0,0,1,3.23-1.83c1.26-.58,2.67-1.16,4.22-1.74a18.85,18.85,0,0,0,2.57-1.12l3.82-6.35a40.49,40.49,0,0,1-3.74,3.85,4.35,4.35,0,0,1-2.74,1.25A2.05,2.05,0,0,1,78,31a2.68,2.68,0,0,1-.77-1.47,5,5,0,0,1,.11-2.14,8.89,8.89,0,0,1,1.12-2.57l4.19-6.73h2.61l-5.93,9.76a3,3,0,0,0-.58,2.24c.16.55.47.83.91.83a3.48,3.48,0,0,0,2.2-1.19q1.25-1.17,3.4-3.5l1.5-1.66,1-1.12,3.2-5.36h2.61L86,30.5A30.83,30.83,0,0,0,93.58,23h.79a31.43,31.43,0,0,1-4.56,5.36,29.94,29.94,0,0,1-4.57,3.48l-1.78,3c-.61,1-1.3,2.16-2.06,3.32a25,25,0,0,1-2.51,3.24,14.24,14.24,0,0,1-3,2.47A6.48,6.48,0,0,1,72.5,44.78Zm9-11a12,12,0,0,1-1.54.63c-1.52.58-2.9,1.14-4.13,1.7a20.79,20.79,0,0,0-3.13,1.7,7.62,7.62,0,0,0-2,1.85A3.49,3.49,0,0,0,70,41.75a2.26,2.26,0,0,0,.25,1.12,2.42,2.42,0,0,0,.62.75,2.39,2.39,0,0,0,.81.41,2.73,2.73,0,0,0,.81.13,3.37,3.37,0,0,0,2.14-.87,14.1,14.1,0,0,0,2.09-2.22c.7-.9,1.39-1.9,2.08-3l2-3.22Z"/><path class="cls-1" d="M100.64,18.05a3,3,0,0,1,2.3.79,2.58,2.58,0,0,1,.69,1.91l1.7-2.7h2.61L102,27.81a3,3,0,0,0-.58,2.24c.16.55.47.83.91.83a3.48,3.48,0,0,0,2.2-1.19c.83-.78,2-2,3.4-3.5L109,25c.35-.37.65-.71.9-1s.58-.65.83-1h.78l-3.25,3.78a36.08,36.08,0,0,1-2.49,2.65,11.42,11.42,0,0,1-2,1.56,3.32,3.32,0,0,1-1.71.52,2.08,2.08,0,0,1-1.8-1,3.45,3.45,0,0,1-.44-2.57,13.89,13.89,0,0,1-2.32,2.66,4.19,4.19,0,0,1-2.82,1.08,2.89,2.89,0,0,1-2.06-.77,3.7,3.7,0,0,1-1.06-2,6.89,6.89,0,0,1,.11-2.83,9,9,0,0,1,1.47-3.19,13.22,13.22,0,0,1,3.47-3.55A7,7,0,0,1,100.64,18.05Zm.41.54a4.08,4.08,0,0,0-2.65,1.14A13.72,13.72,0,0,0,95.78,23a13.48,13.48,0,0,0-1.34,3A8.52,8.52,0,0,0,94,28.49a3.82,3.82,0,0,0,.35,1.76,1.11,1.11,0,0,0,1,.67,2.46,2.46,0,0,0,1.49-.62,10.28,10.28,0,0,0,1.62-1.66,28.28,28.28,0,0,0,1.68-2.37c.57-.88,1.14-1.78,1.72-2.7a6.37,6.37,0,0,0,.9-2,3.78,3.78,0,0,0,0-1.56,1.76,1.76,0,0,0-.62-1A1.81,1.81,0,0,0,101.05,18.59Z"/><path class="cls-1" d="M105.37,31.5,120.52,7.1h2.61l-10,15.56c.31-.39.69-.84,1.14-1.37a18.65,18.65,0,0,1,1.46-1.49,11.3,11.3,0,0,1,1.59-1.23,3.14,3.14,0,0,1,1.62-.52,2.52,2.52,0,0,1,1.37.4,2.29,2.29,0,0,1,.92,1.16,3.62,3.62,0,0,1,.08,1.91,7.94,7.94,0,0,1-1.12,2.63L118,27.81a3,3,0,0,0-.59,2.24c.17.55.48.83.92.83a3.5,3.5,0,0,0,2.2-1.19q1.24-1.17,3.4-3.5c.39-.44.75-.85,1.1-1.23s.64-.71.89-1,.58-.65.83-1h.79l-3.26,3.78a32.23,32.23,0,0,1-2.49,2.65,11.05,11.05,0,0,1-2,1.56,3.28,3.28,0,0,1-1.7.52,2.11,2.11,0,0,1-1.35-.48,2.56,2.56,0,0,1-.85-1.35,4.66,4.66,0,0,1,0-2.11,8.8,8.8,0,0,1,1.2-2.78l1.87-3a2.93,2.93,0,0,0,.62-2.24c-.16-.56-.44-.83-.83-.83a2.72,2.72,0,0,0-1.57.81,17.47,17.47,0,0,0-2,2.07c-.72.84-1.46,1.77-2.22,2.78s-1.46,2-2.11,2.95-1.23,1.81-1.72,2.57-.85,1.31-1,1.64Z"/><path class="cls-1" d="M145.56,31.88a4.41,4.41,0,0,1-1,.71,2.58,2.58,0,0,1-1.17.26,3.79,3.79,0,0,1-1.82-.43,5.42,5.42,0,0,1-1.49-1.15,4.78,4.78,0,0,1-1,.3,5.35,5.35,0,0,1-1.08.1,5.08,5.08,0,0,1-2.29-.46,3.54,3.54,0,0,1-1.4-1.16,3.06,3.06,0,0,1-.53-1.62,4,4,0,0,1,.35-1.78A5.36,5.36,0,0,1,135.4,25a6.71,6.71,0,0,1,2.08-1.3,9.21,9.21,0,0,1,.16-1.67,6.15,6.15,0,0,1,.54-1.65,3.87,3.87,0,0,1,1-1.27,2.5,2.5,0,0,1,1.59-.5,2.17,2.17,0,0,1,1.51.53,1.65,1.65,0,0,1,.48,1.47,1.9,1.9,0,0,1-.42,1,3.85,3.85,0,0,1-.91.83,7.15,7.15,0,0,1-1.23.65,14.43,14.43,0,0,1-1.39.5,17.14,17.14,0,0,0,.22,1.81c.11.63.25,1.25.42,1.87a16.72,16.72,0,0,0,.6,1.77,10.38,10.38,0,0,0,.81,1.56A5.2,5.2,0,0,0,142.39,29a5,5,0,0,0,.73-1.79,1.06,1.06,0,0,0-.36-1.16,1.82,1.82,0,0,0-.33,0,1.25,1.25,0,0,0-.35.08,1.19,1.19,0,0,0-.73.63.78.78,0,0,0,.05.82l-.21.06a1.31,1.31,0,0,1-.21-.65,1.62,1.62,0,0,1,.08-.66,1.55,1.55,0,0,1,.33-.55,1.45,1.45,0,0,1,.52-.35,2.17,2.17,0,0,1,.82-.11l.83,0a2.29,2.29,0,0,0,1.08-.15c.24-.12.38-.25.42-.41a.56.56,0,0,0-.25-.56l.14-.12a.76.76,0,0,1,.34.93,1.49,1.49,0,0,1-.45.75,1.46,1.46,0,0,1-1.09.35,3.66,3.66,0,0,1-.57-.05,1.28,1.28,0,0,1,.21.49,2.15,2.15,0,0,1,0,.72,5,5,0,0,1-.73,1.87A5.45,5.45,0,0,1,141,30.78a5.38,5.38,0,0,0,.52.64,3.94,3.94,0,0,0,.61.55,3.89,3.89,0,0,0,.73.38,2.48,2.48,0,0,0,.82.14,2.75,2.75,0,0,0,.91-.17,2.67,2.67,0,0,0,.86-.55Zm-5.65-.82a7.45,7.45,0,0,1-1-1.53,13.06,13.06,0,0,1-.74-1.76,14.29,14.29,0,0,1-.68-3.7,4.39,4.39,0,0,0-1.26,1.17,5,5,0,0,0-.78,1.53,5.09,5.09,0,0,0-.24,1.62,3.33,3.33,0,0,0,.36,1.48,2.64,2.64,0,0,0,1,1.07,3.4,3.4,0,0,0,1.76.41,4.09,4.09,0,0,0,.8-.08A4.5,4.5,0,0,0,139.91,31.06Zm-1.1-7.83A5,5,0,0,0,141.06,22a2.36,2.36,0,0,0,.73-1.45,1.81,1.81,0,0,0-.29-1.19,1,1,0,0,0-.83-.47,1.25,1.25,0,0,0-.76.24,2,2,0,0,0-.55.66,3.94,3.94,0,0,0-.36,1,6.62,6.62,0,0,0-.17,1.25l0,.59C138.8,22.81,138.8,23,138.81,23.23Z"/><path class="cls-1" d="M165.85,23.7a1.06,1.06,0,0,0,1-.5,1.2,1.2,0,0,0,0-1.12A2.67,2.67,0,0,0,165.69,21a4.94,4.94,0,0,0-2.41-.5,5.64,5.64,0,0,0-2.18.42A5.47,5.47,0,0,0,159.31,22a5.72,5.72,0,0,0-1.22,1.8,6,6,0,0,0-.46,2.35,4.65,4.65,0,0,0,.52,2.18,5.74,5.74,0,0,0,3.07,2.71,5.18,5.18,0,0,0,1.85.38,7.38,7.38,0,0,0,3.26-.67A8.86,8.86,0,0,0,168.82,29a14.5,14.5,0,0,0,2-2.49c.6-.93,1.18-1.87,1.76-2.82s1.2-1.89,1.85-2.8a12.41,12.41,0,0,1,2.18-2.37c.08-.08.09-.16,0-.23a.22.22,0,0,0-.27,0,14.5,14.5,0,0,1-2.86,1.39,8.66,8.66,0,0,1-2.78.44A5.5,5.5,0,0,1,166,17.56a6.08,6.08,0,0,1-.88-2.68,7.52,7.52,0,0,1,.44-3.18,9.58,9.58,0,0,1-4.25-2,4.92,4.92,0,0,1-1.64-4,4.86,4.86,0,0,1,.54-2.26,5.35,5.35,0,0,1,1.49-1.83,7.41,7.41,0,0,1,2.22-1.2A8.3,8.3,0,0,1,166.6,0,9.39,9.39,0,0,1,171,1.08a.23.23,0,0,1,.14.31c0,.15-.19.16-.43,0a9.49,9.49,0,0,0-2-.73,8.77,8.77,0,0,0-1.95-.22,7.72,7.72,0,0,0-2.51.41A6.85,6.85,0,0,0,162.16,2a5.5,5.5,0,0,0-1.39,1.66,4.18,4.18,0,0,0-.52,2,4.83,4.83,0,0,0,1.49,3.73,8,8,0,0,0,4,1.83A20.5,20.5,0,0,1,168,7.72a21.24,21.24,0,0,1,3.49-3.55,19.36,19.36,0,0,1,4.46-2.72A12.57,12.57,0,0,1,181.08.37a4.37,4.37,0,0,1,3.45,1.23,3,3,0,0,1,.5,3.05,6.6,6.6,0,0,1-1.52,2.57,11.21,11.21,0,0,1-2.47,2A17.75,17.75,0,0,1,178,10.65a22.79,22.79,0,0,1-3.34.93,24.08,24.08,0,0,1-3.3.43,24.54,24.54,0,0,1-3,0,11.08,11.08,0,0,0-.62,3.32,5.22,5.22,0,0,0,.46,2.34,2.94,2.94,0,0,0,1.3,1.37,4.11,4.11,0,0,0,1.89.44,7.34,7.34,0,0,0,3-.69A17.13,17.13,0,0,0,177,17.29c.83-.6,1.63-1.21,2.39-1.83a13.77,13.77,0,0,1,2.26-1.52c.06,0,.13,0,.23,0s.12.14.06.22a17,17,0,0,0-1.74,2.06c-.55.76-1.07,1.51-1.54,2.26s-.88,1.44-1.24,2.07-.66,1.15-.91,1.54q-1.5,2.32-2.91,4.13a18.06,18.06,0,0,1-3,3.05,12.23,12.23,0,0,1-3.38,1.91,11.86,11.86,0,0,1-4.09.66,6.72,6.72,0,0,1-2.26-.39,5.67,5.67,0,0,1-1.93-1.14,6,6,0,0,1-1.35-1.83,5.65,5.65,0,0,1-.52-2.45,6,6,0,0,1,.48-2.4,6.26,6.26,0,0,1,1.29-1.95,5.79,5.79,0,0,1,1.93-1.31,6,6,0,0,1,2.4-.48,5.26,5.26,0,0,1,3.37.89,3.18,3.18,0,0,1,1.22,2,2.79,2.79,0,0,1-.46,2,1.92,1.92,0,0,1-1.68.89,1.19,1.19,0,0,1-.72-.23.89.89,0,0,1-.32-.77.85.85,0,0,1,.38-.72A1.51,1.51,0,0,1,165.85,23.7Zm2.78-12.16a16.74,16.74,0,0,0,4.15-.23A25.77,25.77,0,0,0,177.6,10a17.07,17.07,0,0,0,4.25-2.26,6.48,6.48,0,0,0,2.47-3.22A2.75,2.75,0,0,0,184,1.93,2.9,2.9,0,0,0,181.54.87a6.56,6.56,0,0,0-2.53.56,15.64,15.64,0,0,0-2.64,1.45,21.71,21.71,0,0,0-2.55,2.06c-.83.77-1.59,1.56-2.28,2.34a22.64,22.64,0,0,0-1.79,2.31A13.17,13.17,0,0,0,168.63,11.54Z"/><path class="cls-1" d="M185.9,18.05a3,3,0,0,1,2.3.79,2.58,2.58,0,0,1,.68,1.91l1.71-2.7h2.61l-5.93,9.76a3,3,0,0,0-.58,2.24c.16.55.46.83.91.83a3.5,3.5,0,0,0,2.2-1.19q1.24-1.17,3.4-3.5c.39-.44.75-.85,1.1-1.23s.64-.71.89-1,.58-.65.83-1h.79l-3.26,3.78a32.23,32.23,0,0,1-2.49,2.65,11.05,11.05,0,0,1-2,1.56,3.28,3.28,0,0,1-1.7.52,2.07,2.07,0,0,1-1.8-1,3.41,3.41,0,0,1-.44-2.57,13.89,13.89,0,0,1-2.32,2.66A4.21,4.21,0,0,1,180,31.67,2.86,2.86,0,0,1,178,30.9a3.7,3.7,0,0,1-1.06-2,6.87,6.87,0,0,1,.1-2.83,9.22,9.22,0,0,1,1.48-3.19,13.19,13.19,0,0,1,3.46-3.55A7.05,7.05,0,0,1,185.9,18.05Zm.41.54a4.08,4.08,0,0,0-2.65,1.14A13.72,13.72,0,0,0,181,23a13.54,13.54,0,0,0-1.35,3,8.81,8.81,0,0,0-.43,2.53,3.7,3.7,0,0,0,.35,1.76,1.09,1.09,0,0,0,1,.67,2.49,2.49,0,0,0,1.49-.62,10.71,10.71,0,0,0,1.62-1.66,28.28,28.28,0,0,0,1.68-2.37c.57-.88,1.14-1.78,1.72-2.7a6.11,6.11,0,0,0,.89-2,3.8,3.8,0,0,0,.05-1.56,1.73,1.73,0,0,0-.63-1A1.8,1.8,0,0,0,186.31,18.59Z"/><path class="cls-1" d="M195.94,31.5a2,2,0,0,1-1.45-.54,2.61,2.61,0,0,1-.77-1.47,5.11,5.11,0,0,1,.1-2.14,9.47,9.47,0,0,1,1.12-2.57l11-17.68h2.62L195.81,27.81a3,3,0,0,0-.58,2.24c.17.55.47.83.92.83a3.5,3.5,0,0,0,2.2-1.19q1.25-1.17,3.4-3.5c.39-.44.75-.85,1.1-1.23s.64-.71.89-1,.58-.65.83-1h.79l-3.26,3.78a32.23,32.23,0,0,1-2.49,2.65,11.05,11.05,0,0,1-2,1.56A3.28,3.28,0,0,1,195.94,31.5Z"/><path class="cls-1" d="M204.45,31.5A2.08,2.08,0,0,1,203,31a2.66,2.66,0,0,1-.76-1.47,5,5,0,0,1,.1-2.14,9.17,9.17,0,0,1,1.12-2.57l4.19-6.73h2.62l-5.94,9.76a3,3,0,0,0-.58,2.24c.17.55.47.83.91.83a3.48,3.48,0,0,0,2.2-1.19c.84-.78,2-2,3.41-3.5.39-.44.75-.85,1.1-1.23s.64-.71.89-1,.58-.65.83-1h.79l-3.26,3.78a36.08,36.08,0,0,1-2.49,2.65,11.05,11.05,0,0,1-2,1.56A3.28,3.28,0,0,1,204.45,31.5Zm5.14-18a1.42,1.42,0,0,1,.42-1,1.36,1.36,0,0,1,1-.43,1.39,1.39,0,0,1,1,.43,1.43,1.43,0,0,1,0,2.06,1.45,1.45,0,0,1-1,.41,1.42,1.42,0,0,1-1.46-1.45Z"/><path class="cls-1" d="M207.64,31.5,222.79,7.1h2.62l-10,15.56c.3-.39.68-.84,1.14-1.37A18.52,18.52,0,0,1,218,19.8a10.83,10.83,0,0,1,1.6-1.23,3.09,3.09,0,0,1,1.62-.52,2.57,2.57,0,0,1,1.37.4,2.33,2.33,0,0,1,.91,1.16,3.62,3.62,0,0,1,.08,1.91,7.94,7.94,0,0,1-1.12,2.63l-2.24,3.66a3,3,0,0,0-.58,2.24c.16.55.47.83.91.83a3.48,3.48,0,0,0,2.2-1.19c.83-.78,2-2,3.4-3.5l1.1-1.23c.35-.37.65-.71.9-1s.58-.65.83-1h.79q-1.87,2.16-3.26,3.78a36.08,36.08,0,0,1-2.49,2.65,11.42,11.42,0,0,1-2,1.56,3.32,3.32,0,0,1-1.71.52A2.1,2.1,0,0,1,219,31a2.45,2.45,0,0,1-.85-1.35,4.4,4.4,0,0,1,0-2.11,8.37,8.37,0,0,1,1.2-2.78l1.87-3a3,3,0,0,0,.62-2.24c-.17-.56-.44-.83-.83-.83a2.74,2.74,0,0,0-1.58.81,17.46,17.46,0,0,0-2,2.07c-.72.84-1.46,1.77-2.22,2.78s-1.47,2-2.12,2.95-1.22,1.81-1.72,2.57-.85,1.31-1,1.64Z"/></g></g></svg>