<svg xmlns="http://www.w3.org/2000/svg" xmlns:xlink="http://www.w3.org/1999/xlink" viewBox="0 0 355.4 699.97"><defs><style>.cls-1{fill:#8a8e6d;}.cls-2{clip-path:url(#clip-path);}.cls-3{opacity:0.25;}</style><clipPath id="clip-path" transform="translate(29.35 199.49)"><path class="cls-1" d="M303.18,52.81V468a32.52,32.52,0,0,1-32.52,32.52H32.52A32.52,32.52,0,0,1,0,468V52.81A32.52,32.52,0,0,1,32.52,20.29h86.71a32.37,32.37,0,0,0,64.72,0h86.71A32.52,32.52,0,0,1,303.18,52.81Z"/></clipPath></defs><g id="Layer_2" data-name="Layer 2"><g id="Layer_1-2" data-name="Layer 1"><path class="cls-1" d="M303.18,52.81V468a32.52,32.52,0,0,1-32.52,32.52H32.52A32.52,32.52,0,0,1,0,468V52.81A32.52,32.52,0,0,1,32.52,20.29h86.71a32.37,32.37,0,0,0,64.72,0h86.71A32.52,32.52,0,0,1,303.18,52.81Z" transform="translate(29.35 199.49)"/><g class="cls-2"><image class="cls-3" width="1240" height="1748" transform="matrix(0.29, 0, 0, -0.29, 0, 500.99)" xlink:href="C:%5CUsers%5CACER%5CDownloads%5CElegant%20Save%20The%20Date%20Wedding%20Invitation.png"/></g><path class="cls-1" d="M157.81,6.74a2.17,2.17,0,0,0-3.73-.65c1.15-2.73-1.24-4.43-2.1-6.09-.85,1.66-3.29,3.36-2.15,6.09a2.16,2.16,0,0,0-3.72.65c-.83,2.17.92,7.33,4.4,11.14a.17.17,0,0,0,.29-.15c-1.53-5.56-.31-7.93,1.18-7.84s2.69,3.35,1,7.82c-.06.16.17.28.29.15C156.69,14.07,158.63,8.9,157.81,6.74Z" transform="translate(29.35 199.49)"/><path class="cls-1" d="M149,21.09c-5.57,1.52-7.93.3-7.85-1.19s3.36-2.69,7.83-.95c.16.06.28-.17.15-.29-3.79-3.46-9-5.41-11.12-4.59a2.17,2.17,0,0,0-.65,3.73c-2.74-1.14-4.44,1.25-6.09,2.1,1.65.85,3.35,3.29,6.09,2.15a2.17,2.17,0,0,0,.65,3.73c2.17.82,7.33-.92,11.14-4.4C149.3,21.26,149.19,21,149,21.09Z" transform="translate(29.35 199.49)"/><path class="cls-1" d="M157.07,33.84c.83-2.16-.92-7.33-4.4-11.13a.17.17,0,0,0-.29.14c1.53,5.57.31,7.94-1.18,7.85s-2.69-3.35-.95-7.82a.17.17,0,0,0-.29-.16c-3.47,3.79-5.41,9-4.59,11.12a2.16,2.16,0,0,0,3.73.65c-1.15,2.74,1.25,4.44,2.1,6.1.85-1.66,3.29-3.36,2.15-6.1A2.16,2.16,0,0,0,157.07,33.84Z" transform="translate(29.35 199.49)"/><path class="cls-1" d="M171.88,20.69c-1.65-.86-3.35-3.3-6.09-2.15a2.17,2.17,0,0,0-.65-3.73c-2.17-.83-7.33.92-11.14,4.4a.17.17,0,0,0,.15.29c5.57-1.53,7.93-.3,7.85,1.19s-3.36,2.68-7.83.94c-.16-.06-.28.17-.15.29,3.79,3.47,9,5.42,11.12,4.59a2.16,2.16,0,0,0,.65-3.72C168.53,23.93,170.23,21.54,171.88,20.69Z" transform="translate(29.35 199.49)"/><path class="cls-1" d="M143,28.54a1.52,1.52,0,0,0,2.11-.24,41.7,41.7,0,0,0,3.25-5.12,52.47,52.47,0,0,0-5.12,3.25A1.54,1.54,0,0,0,143,28.54Z" transform="translate(29.35 199.49)"/><path class="cls-1" d="M157.73,28.67a1.36,1.36,0,1,0,1.87-1.87,41.7,41.7,0,0,0-5.12-3.25A52.47,52.47,0,0,0,157.73,28.67Z" transform="translate(29.35 199.49)"/><path class="cls-1" d="M160.21,12a1.53,1.53,0,0,0-2.11.25,41.49,41.49,0,0,0-3.25,5.11A52.64,52.64,0,0,0,160,14.16,1.54,1.54,0,0,0,160.21,12Z" transform="translate(29.35 199.49)"/><path class="cls-1" d="M145.45,11.92a1.52,1.52,0,0,0-2.11-.24,1.53,1.53,0,0,0,.24,2.11A40.59,40.59,0,0,0,148.7,17,52.16,52.16,0,0,0,145.45,11.92Z" transform="translate(29.35 199.49)"/><circle class="cls-1" cx="180.94" cy="219.78" r="1.96"/></g></g></svg>