<svg xmlns="http://www.w3.org/2000/svg" viewBox="0 0 307.44 62.23"><defs><style>.cls-1{fill:#8a8e6d;}</style></defs><g id="Layer_2" data-name="Layer 2"><g id="Layer_1-2" data-name="Layer 1"><path class="cls-1" d="M123.74,35.58a42.88,42.88,0,0,1-4.43,3.66A65.75,65.75,0,0,1,106,46.76,61.59,61.59,0,0,1,96.25,50a57.32,57.32,0,0,1-11.46,1.65,55.45,55.45,0,0,1-12.44-.83A60.33,60.33,0,0,1,60,47.16c-2-.89-3.93-1.8-5.79-2.87l-5.4-3-1.34-.73L46.14,40l-2.62-1.26c-1.72-.86-3.56-1.49-5.3-2.23s-3.56-1.17-5.29-1.74-3.46-1-5.16-1.26L25.25,33c-.83-.15-1.65-.17-2.46-.28a40.08,40.08,0,0,0-4.69-.28,35,35,0,0,0-8.14.94,22.67,22.67,0,0,0-5.9,2.31,20.63,20.63,0,0,0-1.92,1.38A12.47,12.47,0,0,0,.88,38.34c-.57.79-.88,1.2-.88,1.2l.66-1.35a13.27,13.27,0,0,1,2.83-3.25,21.44,21.44,0,0,1,5.9-3.3c2.44-1-1.06-3.22,2.15-3.56a41,41,0,0,1,8.34.3c1.75.43,4.86,1.13,5.75,1.22l2.71.29c1.85.16.48-1.79,2.4-1.47a22.84,22.84,0,0,1,8.75,2.92,32.7,32.7,0,0,0,5.87,3.21c1.87.85,3.94,1.62,5.68,2.63l5.48,2.89c1.74,1,3.57,1.78,5.39,2.6a56.75,56.75,0,0,0,11.33,3.54,59.23,59.23,0,0,0,11.45,1.16,66,66,0,0,0,10.82-.92,76.83,76.83,0,0,0,9.55-2.31,84.82,84.82,0,0,0,13.73-5.71C122,36.75,123.74,35.58,123.74,35.58Z"/><path class="cls-1" d="M183.7,35.06a41.59,41.59,0,0,0,4.44,3.67,65.51,65.51,0,0,0,13.28,7.51,61.8,61.8,0,0,0,9.77,3.25,57.53,57.53,0,0,0,11.47,1.65,55.35,55.35,0,0,0,12.43-.82,61.7,61.7,0,0,0,12.36-3.67c2-.9,3.92-1.81,5.78-2.88l5.41-3,1.34-.73,1.32-.62,2.62-1.26c1.73-.86,3.57-1.48,5.31-2.22s3.55-1.18,5.28-1.75c1.76-.42,3.46-1,5.17-1.26l2.52-.45c.82-.15,1.65-.17,2.45-.28a40.2,40.2,0,0,1,4.69-.28,35,35,0,0,1,8.14.95,22.42,22.42,0,0,1,5.91,2.3,22.06,22.06,0,0,1,1.92,1.38,12.24,12.24,0,0,1,1.25,1.23l.88,1.21-.66-1.36A13.46,13.46,0,0,0,304,34.42a21,21,0,0,0-5.9-3.29c-2.44-1,1.06-3.23-2.14-3.57a41.18,41.18,0,0,0-8.35.31c-1.75.42-4.85,1.12-5.75,1.21l-2.71.29c-1.84.16-.48-1.79-2.4-1.47A23,23,0,0,0,268,30.82,33.54,33.54,0,0,1,262.08,34c-1.87.84-3.93,1.62-5.68,2.62l-5.47,2.89c-1.75,1-3.58,1.78-5.39,2.6a57.16,57.16,0,0,1-11.33,3.54,59.33,59.33,0,0,1-11.46,1.16,66.14,66.14,0,0,1-10.82-.92,76.66,76.66,0,0,1-9.54-2.31,84.6,84.6,0,0,1-13.74-5.71C185.44,36.23,183.7,35.06,183.7,35.06Z"/><path class="cls-1" d="M158.27,16.94A14.68,14.68,0,0,0,174,31.47a57.62,57.62,0,0,0,9.41-.75,56.78,56.78,0,0,1,9.62-.79,27.11,27.11,0,0,1,3.8.26,19.89,19.89,0,0,1,3.49.78,3,3,0,0,0-1.12-2.92,6.52,6.52,0,0,0-3.41-1.36c.7-1.34.78-2.25.28-2.75-1.59-1.05-4.39.33-5.28.74a4.07,4.07,0,0,1,.74-1.61,1,1,0,0,0,.25-1.14c-.16-1-2.08-1.32-6.61,2.51-5.23,4.41-16,6.58-20.78,2.49a13,13,0,0,1-4.87-9.24v-2c.33-3.54,1.29-6.3,3.37-8.38a8.66,8.66,0,0,1,6.87-2.87A7.67,7.67,0,0,1,173,5.66a3.35,3.35,0,0,1,1.51,3,1.77,1.77,0,0,1-3.25,1c-.43-.81-.88-1.24-1.5-.74-1.24.67-1.81,5.53,2,5.53a5.39,5.39,0,0,0,3.74-1.63,4.55,4.55,0,0,0,1.25-4.41q-.49-5-4.12-6.36a14.12,14.12,0,0,0-7.11-.88,2,2,0,0,0-2-1c-.83,0-1.58.67-2.25,2a21,21,0,0,0-2.41,7A51.33,51.33,0,0,0,158.27,16.94Z"/><path class="cls-1" d="M173,29.19l-.35-.09.25.09Z"/><path class="cls-1" d="M164.67,1.63s6.2-3.67,12.65,0c0,0,.4.6-.5.73,0,0,5.86,3.78,1.77,10.72a1,1,0,0,1-1.15.37c-.76-.27-1.28-1.67-1-2.89s-.75-6.37-3.83-6.94S164.67,1.63,164.67,1.63Z"/><path class="cls-1" d="M174.84,29.81s1.42-4.28-3.47-4.71-8.86-2.11-8.86-6.32,5.88-3.22,5.32,0a1.81,1.81,0,0,1-2.33,1.36A2,2,0,0,0,167,22.89c2.31.56,2.39-1.22,2.39-1.22a1.58,1.58,0,0,1,1.7,2s5.65.63,5,5.5Z"/><path class="cls-1" d="M156.58,16.94a14.68,14.68,0,0,1-15.77,14.53,57.71,57.71,0,0,1-9.41-.75,56.6,56.6,0,0,0-9.62-.79,27,27,0,0,0-3.79.26,19.89,19.89,0,0,0-3.49.78,3,3,0,0,1,1.12-2.92A6.46,6.46,0,0,1,119,26.69c-.71-1.34-.79-2.25-.29-2.75,1.6-1.05,4.39.33,5.28.74a3.94,3.94,0,0,0-.74-1.61,1,1,0,0,1-.25-1.14c.16-1,2.09-1.32,6.62,2.51,5.22,4.41,15.94,6.58,20.78,2.49a13.12,13.12,0,0,0,4.87-9.24v-2c-.33-3.54-1.28-6.3-3.37-8.38a8.66,8.66,0,0,0-6.87-2.87,7.67,7.67,0,0,0-3.24,1.25,3.35,3.35,0,0,0-1.51,3,1.77,1.77,0,0,0,3.26,1c.42-.81.88-1.24,1.49-.74,1.24.67,1.81,5.53-2,5.53a5.39,5.39,0,0,1-3.74-1.63,4.57,4.57,0,0,1-1.25-4.41c.33-3.33,1.71-5.45,4.12-6.36a14.18,14.18,0,0,1,7.12-.88,2,2,0,0,1,2-1c.83,0,1.59.67,2.25,2a21,21,0,0,1,2.41,7A50.07,50.07,0,0,1,156.58,16.94Z"/><path class="cls-1" d="M141.9,29.19l.36-.09-.26.09Z"/><path class="cls-1" d="M150.18,1.63S144-2,137.54,1.63c0,0-.41.6.49.73,0,0-5.85,3.78-1.76,10.72a.94.94,0,0,0,1.14.37c.77-.27,1.29-1.67,1-2.89s.74-6.37,3.83-6.94S150.18,1.63,150.18,1.63Z"/><path class="cls-1" d="M140,29.81s-1.43-4.28,3.47-4.71,8.86-2.11,8.86-6.32-5.89-3.22-5.33,0a1.82,1.82,0,0,0,2.33,1.36,2,2,0,0,1-1.44,2.75c-2.32.56-2.4-1.22-2.4-1.22a1.58,1.58,0,0,0-1.69,2s-5.66.63-5,5.5Z"/><path class="cls-1" d="M158.27,45.29A14.69,14.69,0,0,1,174,30.75a57.63,57.63,0,0,1,9.41.76,56.78,56.78,0,0,0,9.62.79,27.11,27.11,0,0,0,3.8-.26,21.87,21.87,0,0,0,3.49-.78,3,3,0,0,1-1.12,2.91,6.53,6.53,0,0,1-3.41,1.37c.7,1.34.78,2.25.28,2.75-1.59,1.05-4.39-.34-5.28-.75a4.12,4.12,0,0,0,.74,1.62,1,1,0,0,1,.25,1.13c-.16,1-2.08,1.33-6.61-2.5-5.23-4.41-16-6.58-20.78-2.5a13.06,13.06,0,0,0-4.87,9.24v2c.33,3.54,1.29,6.3,3.37,8.38a8.64,8.64,0,0,0,6.87,2.88A7.8,7.8,0,0,0,173,56.57a3.37,3.37,0,0,0,1.51-3,1.77,1.77,0,0,0-3.25-1c-.43.82-.88,1.24-1.5.75-1.24-.68-1.81-5.53,2-5.53a5.37,5.37,0,0,1,3.74,1.62,4.56,4.56,0,0,1,1.25,4.41c-.33,3.33-1.7,5.46-4.12,6.37a14,14,0,0,1-7.11.87,2,2,0,0,1-2,1c-.83,0-1.58-.66-2.25-2a20.89,20.89,0,0,1-2.41-7A51.43,51.43,0,0,1,158.27,45.29Z"/><path class="cls-1" d="M173,33l-.35.09.25-.09Z"/><path class="cls-1" d="M164.67,60.59s6.2,3.68,12.65,0c0,0,.4-.6-.5-.72,0,0,5.86-3.78,1.77-10.72a1,1,0,0,0-1.15-.37c-.76.26-1.28,1.67-1,2.89s-.75,6.36-3.83,6.94S164.67,60.59,164.67,60.59Z"/><path class="cls-1" d="M174.84,32.42s1.42,4.27-3.47,4.71-8.86,2.1-8.86,6.32,5.88,3.22,5.32,0a1.82,1.82,0,0,0-2.33-1.37A2,2,0,0,1,167,39.33c2.31-.55,2.39,1.23,2.39,1.23a1.59,1.59,0,0,0,1.7-2s5.65-.63,5-5.5Z"/><path class="cls-1" d="M156.58,45.29a14.69,14.69,0,0,0-15.77-14.54,57.72,57.72,0,0,0-9.41.76,56.6,56.6,0,0,1-9.62.79A27,27,0,0,1,118,32a21.87,21.87,0,0,1-3.49-.78,3,3,0,0,0,1.12,2.91A6.47,6.47,0,0,0,119,35.54c-.71,1.34-.79,2.25-.29,2.75,1.6,1.05,4.39-.34,5.28-.75a4,4,0,0,1-.74,1.62,1,1,0,0,0-.25,1.13c.16,1,2.09,1.33,6.62-2.5,5.22-4.41,15.94-6.58,20.78-2.5a13.14,13.14,0,0,1,4.87,9.24v2c-.33,3.54-1.28,6.3-3.37,8.38a8.64,8.64,0,0,1-6.87,2.88,7.8,7.8,0,0,1-3.24-1.25,3.37,3.37,0,0,1-1.51-3,1.77,1.77,0,0,1,3.26-1c.42.82.88,1.24,1.49.75,1.24-.68,1.81-5.53-2-5.53a5.37,5.37,0,0,0-3.74,1.62,4.58,4.58,0,0,0-1.25,4.41c.33,3.33,1.71,5.46,4.12,6.37a14.06,14.06,0,0,0,7.12.87,2,2,0,0,0,2,1c.83,0,1.59-.66,2.25-2a20.89,20.89,0,0,0,2.41-7A50.17,50.17,0,0,0,156.58,45.29Z"/><path class="cls-1" d="M141.9,33l.36.09L142,33Z"/><path class="cls-1" d="M150.18,60.59s-6.2,3.68-12.64,0c0,0-.41-.6.49-.72,0,0-5.85-3.78-1.76-10.72a.94.94,0,0,1,1.14-.37c.77.26,1.29,1.67,1,2.89s.74,6.36,3.83,6.94S150.18,60.59,150.18,60.59Z"/><path class="cls-1" d="M140,32.42s-1.43,4.27,3.47,4.71,8.86,2.1,8.86,6.32-5.89,3.22-5.33,0a1.82,1.82,0,0,1,2.33-1.37,2,2,0,0,0-1.44-2.75c-2.32-.55-2.4,1.23-2.4,1.23a1.58,1.58,0,0,1-1.69-2s-5.66-.63-5-5.5Z"/><path class="cls-1" d="M157.42,39.85c0-4.42-4.69-9.11-9.11-9.11,4.42,0,9.11-4.7,9.11-9.12,0,4.42,4.7,9.12,9.12,9.12C162.12,30.74,157.42,35.43,157.42,39.85Z"/></g></g></svg>