<svg xmlns="http://www.w3.org/2000/svg" viewBox="0 0 70.04 70.04"><defs><style>.cls-1{fill:#8a8e6d;}.cls-2{fill:#f2f3eb;}</style></defs><g id="Layer_2" data-name="Layer 2"><g id="Layer_1-2" data-name="Layer 1"><rect class="cls-1" width="70.04" height="70.04" rx="11.44"/><path class="cls-2" d="M27,56.6a4.94,4.94,0,0,1-1.12-.13,3.59,3.59,0,0,1-.92-.33l-.06-1.56.46,0,.33,1.07a3.09,3.09,0,0,0,.69.31,3,3,0,0,0,.82.11,1.57,1.57,0,0,0,1-.31,1,1,0,0,0,.4-.87,1.08,1.08,0,0,0-.27-.75,2.49,2.49,0,0,0-.68-.52c-.28-.15-.58-.3-.89-.44a8.67,8.67,0,0,1-.9-.5,2.42,2.42,0,0,1-.69-.66,1.71,1.71,0,0,1-.27-1,1.66,1.66,0,0,1,.34-1,2.18,2.18,0,0,1,.91-.71A3.2,3.2,0,0,1,27.45,49a6.19,6.19,0,0,1,.63,0l.56.1a2.37,2.37,0,0,1,.45.15l.09,1.5-.46.05-.34-1a1.86,1.86,0,0,0-1.07-.26,1.63,1.63,0,0,0-1.07.32,1,1,0,0,0-.4.85,1.13,1.13,0,0,0,.27.77,2.39,2.39,0,0,0,.69.55c.28.16.58.31.89.45a7.56,7.56,0,0,1,.89.49,2.43,2.43,0,0,1,.7.65,1.55,1.55,0,0,1,.27.93,1.72,1.72,0,0,1-.34,1.06,2.22,2.22,0,0,1-.91.73A3.34,3.34,0,0,1,27,56.6Z"/><path class="cls-2" d="M33.15,56.59a2.6,2.6,0,0,1-1.27-.32,2.28,2.28,0,0,1-.91-.91,2.91,2.91,0,0,1-.34-1.45A3.14,3.14,0,0,1,31,52.36a2.5,2.5,0,0,1,.93-1A2.21,2.21,0,0,1,33.15,51a1.92,1.92,0,0,1,1.48.63,2.69,2.69,0,0,1,.54,1.82v.21H31.26v-.52h3.2l-.12.12v-.22A1.78,1.78,0,0,0,34,51.89a1.17,1.17,0,0,0-.94-.41,1.38,1.38,0,0,0-.72.22,1.6,1.6,0,0,0-.56.66,2.62,2.62,0,0,0-.21,1.11v.13a2.48,2.48,0,0,0,.51,1.66,1.7,1.7,0,0,0,1.32.59,1.79,1.79,0,0,0,.81-.18,2.22,2.22,0,0,0,.68-.58l.3.27a2.46,2.46,0,0,1-.87.93A2.25,2.25,0,0,1,33.15,56.59Z"/><path class="cls-2" d="M38.72,56.59a2.55,2.55,0,0,1-1.25-.32,2.32,2.32,0,0,1-.93-.91,2.92,2.92,0,0,1-.34-1.46,3,3,0,0,1,.36-1.48,2.77,2.77,0,0,1,1-1,2.94,2.94,0,0,1,2.31-.25,1.21,1.21,0,0,1,.54.35.68.68,0,0,1,.18.44.42.42,0,0,1-.1.3.41.41,0,0,1-.32.12.69.69,0,0,1-.34-.07,1.6,1.6,0,0,1-.34-.3l-.57-.61.39.13a1.7,1.7,0,0,0-1,.09,1.8,1.8,0,0,0-.83.75,2.65,2.65,0,0,0-.32,1.37,2.17,2.17,0,0,0,.52,1.57,1.75,1.75,0,0,0,1.31.56,1.83,1.83,0,0,0,.86-.18,2.14,2.14,0,0,0,.66-.57l.32.27a2.5,2.5,0,0,1-.87.92A2.36,2.36,0,0,1,38.72,56.59Z"/><path class="cls-2" d="M43.35,56.59a4,4,0,0,1-.9-.11,3,3,0,0,1-.77-.28l-.07-1.31h.57l.24.91a1.65,1.65,0,0,0,1,.31,1.11,1.11,0,0,0,.71-.22.69.69,0,0,0,.29-.6.82.82,0,0,0-.25-.6,3.19,3.19,0,0,0-.94-.55A4.66,4.66,0,0,1,42,53.39a1.19,1.19,0,0,1-.36-.9,1.29,1.29,0,0,1,.25-.77,1.73,1.73,0,0,1,.71-.51,2.61,2.61,0,0,1,1-.19,5.34,5.34,0,0,1,.69,0,2.11,2.11,0,0,1,.59.15l.14,1.27h-.53l-.31-.84a1,1,0,0,0-.3-.12,1.6,1.6,0,0,0-.39-.05,1.17,1.17,0,0,0-.73.22.66.66,0,0,0-.28.56.82.82,0,0,0,.29.64,5.43,5.43,0,0,0,1,.6,4.07,4.07,0,0,1,1.16.74,1.31,1.31,0,0,1-.24,1.93A2.27,2.27,0,0,1,43.35,56.59Z"/><path class="cls-2" d="M35.26,40.42a10.33,10.33,0,0,1-5.67-1.57,10.57,10.57,0,0,1-3.88-4.41,14.73,14.73,0,0,1-1.41-6.62A15.48,15.48,0,0,1,25.73,21a11.14,11.14,0,0,1,3.92-4.58,10.13,10.13,0,0,1,5.69-1.66,9.55,9.55,0,0,1,5.39,1.55,10.46,10.46,0,0,1,3.67,4.38,15.37,15.37,0,0,1,1.34,6.64A15.48,15.48,0,0,1,44.34,34a12.19,12.19,0,0,1-3.78,4.71A8.75,8.75,0,0,1,35.26,40.42Zm.33-2.8a3.48,3.48,0,0,0,2.53-1,6.67,6.67,0,0,0,1.59-3.07,20.31,20.31,0,0,0,.55-5.16,18.53,18.53,0,0,0-1.48-8.11q-1.48-3-3.86-3a4.11,4.11,0,0,0-3.63,2.42q-1.38,2.41-1.38,7.09a19.42,19.42,0,0,0,.74,5.7,9.19,9.19,0,0,0,2,3.8A3.91,3.91,0,0,0,35.59,37.62Z"/></g></g></svg>