<svg xmlns="http://www.w3.org/2000/svg" viewBox="0 0 236.82 208.93"><defs><style>.cls-1{fill:#f2f3eb;}.cls-2{fill:#b69991;}</style></defs><g id="Layer_2" data-name="Layer 2"><g id="Layer_1-2" data-name="Layer 1"><path class="cls-1" d="M78.71,33.6a11.14,11.14,0,0,0,6.33-2A33.8,33.8,0,0,0,91,26.33a13,13,0,0,1-3.89-6.94,9.82,9.82,0,0,1,0-3.93A9.43,9.43,0,0,1,88.47,12a8,8,0,0,1,2.58-2.47,6.55,6.55,0,0,1,3.47-.94,7.91,7.91,0,0,1,4.19,1.23,11.29,11.29,0,0,1,3.17,3.11q1.92-2.28,4-4.41a40.37,40.37,0,0,1,4.25-3.86,27.19,27.19,0,0,1,4.63-2.95A19.51,19.51,0,0,1,119.8,0c.09,0,.16,0,.2.14s0,.19,0,.22a18.35,18.35,0,0,0-2,2.82c-.73,1.2-1.49,2.58-2.26,4.13s-1.58,3.22-2.4,5-1.62,3.58-2.4,5.41-1.53,3.64-2.26,5.44-1.41,3.46-2,5a16,16,0,0,0,3.14-1.69,15.15,15.15,0,0,0,2.85-2.56l.5.37A16,16,0,0,1,110,27.13,15.74,15.74,0,0,1,106.32,29c-.37.95-.7,1.81-1,2.59s-.55,1.47-.8,2.08l-3.84,0c.22-.52.44-1.1.67-1.74s.49-1.31.8-2a15.72,15.72,0,0,1-5.74-.57,13.84,13.84,0,0,1-5-2.58c-1,1.07-2,2.05-3,2.95A20.74,20.74,0,0,1,85.31,32a16.37,16.37,0,0,1-3.19,1.54,10.14,10.14,0,0,1-3.36.57,7.26,7.26,0,0,1-2.49-.44,6.48,6.48,0,0,1-2.13-1.25,6.59,6.59,0,0,1-1.49-2,6.22,6.22,0,0,1-.57-2.7,5.74,5.74,0,0,1,.46-2.19,6.25,6.25,0,0,1,1.28-2,6.89,6.89,0,0,1,1.94-1.42,6.71,6.71,0,0,1,6.2.48,3.59,3.59,0,0,1,1.34,2.27,3.27,3.27,0,0,1-.5,2.26,2.1,2.1,0,0,1-1.85,1,1.36,1.36,0,0,1-.8-.25,1,1,0,0,1-.34-.85.92.92,0,0,1,.41-.8,1.65,1.65,0,0,1,1-.3,1.13,1.13,0,0,0,1.12-.59,1.45,1.45,0,0,0,0-1.3A3.12,3.12,0,0,0,81,22.72a5.08,5.08,0,0,0-2.65-.59,5.62,5.62,0,0,0-4,1.71,6.62,6.62,0,0,0-1.21,1.83,5.3,5.3,0,0,0-.46,2.13,5.06,5.06,0,0,0,.57,2.4A6.31,6.31,0,0,0,74.73,32a6.45,6.45,0,0,0,2,1.17A5.74,5.74,0,0,0,78.71,33.6ZM92.19,25c1.53-1.73,3-3.59,4.53-5.57s3-3.93,4.66-5.85a10.59,10.59,0,0,0-3-3.11,7,7,0,0,0-4-1.19,3.84,3.84,0,0,0-2.28.8,6.87,6.87,0,0,0-1.88,2.13,9.6,9.6,0,0,0-1,6.62,13.54,13.54,0,0,0,1.14,3.41A14.08,14.08,0,0,0,92.19,25Zm.41.46a11.68,11.68,0,0,0,4.51,2.95,12.66,12.66,0,0,0,5.37.71l.45-1c.16-.35.31-.71.46-1.08a14.75,14.75,0,0,0,.57-3.2,16.43,16.43,0,0,0-.11-3.36,20.08,20.08,0,0,0-.76-3.29,14.27,14.27,0,0,0-1.35-3Q99.42,17,97.17,19.91C95.68,21.85,94.16,23.68,92.6,25.42Zm11.75-.78q1.05-2.37,2.19-4.89c.76-1.67,1.55-3.32,2.36-4.93s1.62-3.17,2.44-4.66,1.63-2.86,2.4-4.1A31.08,31.08,0,0,1,116,2.91a8.39,8.39,0,0,1,2-1.85,16.87,16.87,0,0,0-4.3,1.83,30.24,30.24,0,0,0-4,2.88,44.25,44.25,0,0,0-3.79,3.63q-1.84,2-3.63,4.14a15.62,15.62,0,0,1,2,5.32A17,17,0,0,1,104.35,24.64Z"/><path class="cls-1" d="M106.22,33.65,122.91,6.77h2.87l-11,17.14c.33-.42.75-.93,1.25-1.51s1-1.12,1.6-1.64a12.13,12.13,0,0,1,1.76-1.35,3.38,3.38,0,0,1,1.78-.57,2.71,2.71,0,0,1,2.2.87,2.6,2.6,0,0,1,.64,2,3.9,3.9,0,0,1-1.17,2.22,5.77,5.77,0,0,1-3.22,1.48,2.13,2.13,0,0,1,1,1.79,4.41,4.41,0,0,1-.55,2.42,3.37,3.37,0,0,0-.64,2.49c.18.59.52.89,1,.89a3.84,3.84,0,0,0,2.43-1.3q1.36-1.31,3.74-3.86c.43-.49.83-.94,1.21-1.35s.71-.79,1-1.12.64-.72.91-1h.87L127,28.44a39.55,39.55,0,0,1-2.74,2.92,13.76,13.76,0,0,1-2.17,1.72,3.68,3.68,0,0,1-1.87.57,2.93,2.93,0,0,1-1.42-.35,2.44,2.44,0,0,1-1-1,3,3,0,0,1-.36-1.51,4.69,4.69,0,0,1,.5-2,3.57,3.57,0,0,0,.39-1.42,3.63,3.63,0,0,0-.16-1.23,2,2,0,0,0-.55-.89,1.65,1.65,0,0,0-.87-.44.14.14,0,0,1-.09-.2c0-.11.12-.16.27-.16a5.53,5.53,0,0,0,3.2-.74,4.59,4.59,0,0,0,1.67-1.71,2.3,2.3,0,0,0,.25-1.74,1,1,0,0,0-1.09-.8,3,3,0,0,0-1.74.89A20.49,20.49,0,0,0,117,22.7c-.79.93-1.61,1.95-2.45,3.06S113,28,112.23,29s-1.34,2-1.89,2.83-.93,1.44-1.15,1.81Z"/><path class="cls-1" d="M137.48,18.84a3.29,3.29,0,0,1,2.54.87,2.84,2.84,0,0,1,.75,2.1l1.88-3h2.88L139,29.58a3.33,3.33,0,0,0-.64,2.47c.18.61.52.91,1,.91a3.8,3.8,0,0,0,2.42-1.3q1.36-1.31,3.75-3.86c.42-.49.83-.94,1.21-1.35s.71-.79,1-1.12.64-.72.92-1h.86q-2.06,2.37-3.58,4.16a39.45,39.45,0,0,1-2.75,2.92A13.32,13.32,0,0,1,141,33.08a3.65,3.65,0,0,1-1.87.57,2.32,2.32,0,0,1-2-1.1,3.83,3.83,0,0,1-.48-2.83,15,15,0,0,1-2.56,2.92A4.62,4.62,0,0,1,131,33.83a3.14,3.14,0,0,1-2.26-.85,4,4,0,0,1-1.16-2.21,7.37,7.37,0,0,1,.11-3.11,10.15,10.15,0,0,1,1.62-3.52,14.55,14.55,0,0,1,3.82-3.91A7.71,7.71,0,0,1,137.48,18.84Zm.46.59A4.49,4.49,0,0,0,135,20.69a14.64,14.64,0,0,0-2.88,3.59,15,15,0,0,0-1.49,3.26,9.83,9.83,0,0,0-.48,2.79,4.17,4.17,0,0,0,.39,2,1.23,1.23,0,0,0,1.12.73,2.66,2.66,0,0,0,1.64-.69,11.58,11.58,0,0,0,1.79-1.83c.61-.76,1.22-1.63,1.85-2.6s1.26-2,1.9-3a7.24,7.24,0,0,0,1-2.24,4.2,4.2,0,0,0,0-1.72,1.89,1.89,0,0,0-.68-1.12A2,2,0,0,0,137.94,19.43Z"/><path class="cls-1" d="M156.5,18.84a3.29,3.29,0,0,1,2.53.87,2.81,2.81,0,0,1,.76,2.1l9.23-15h2.88L158,29.58a3.33,3.33,0,0,0-.64,2.47c.19.61.52.91,1,.91a3.8,3.8,0,0,0,2.42-1.3c.92-.87,2.16-2.16,3.75-3.86.43-.49.83-.94,1.21-1.35s.71-.79,1-1.12.64-.72.92-1h.87c-1.38,1.58-2.57,3-3.59,4.16s-1.94,2.16-2.74,2.92A13.78,13.78,0,0,1,160,33.08a3.65,3.65,0,0,1-1.87.57,2.33,2.33,0,0,1-2-1.1,3.83,3.83,0,0,1-.48-2.83,15,15,0,0,1-2.56,2.92,4.62,4.62,0,0,1-3.1,1.19,3.15,3.15,0,0,1-2.27-.85,4,4,0,0,1-1.16-2.21,7.54,7.54,0,0,1,.11-3.11,10,10,0,0,1,1.63-3.52,14.38,14.38,0,0,1,3.81-3.91A7.72,7.72,0,0,1,156.5,18.84Zm.45.59A4.49,4.49,0,0,0,154,20.69a14.64,14.64,0,0,0-2.88,3.59,15,15,0,0,0-1.49,3.26,9.83,9.83,0,0,0-.48,2.79,4.17,4.17,0,0,0,.39,2,1.23,1.23,0,0,0,1.12.73,2.71,2.71,0,0,0,1.65-.69,12,12,0,0,0,1.78-1.83,29.85,29.85,0,0,0,1.85-2.6c.62-1,1.26-2,1.9-3a7.24,7.24,0,0,0,1-2.24A4.22,4.22,0,0,0,158.9,21a2,2,0,0,0-.69-1.12A2,2,0,0,0,157,19.43Z"/><path class="cls-1" d="M2.21,175.64l0-.72,1.06-.24a5.45,5.45,0,0,0,0-.78c0-.45,0-1,0-1.78v-3c0-.51,0-.94,0-1.31s0-.67,0-.88a2.32,2.32,0,0,0,0-.4l-1.07-.24.06-.72H6.13l0,.72-1.06.24a2,2,0,0,0-.06.39c0,.21,0,.5,0,.86s0,.81,0,1.34v3c0,.74,0,1.33,0,1.78s0,.7,0,.78l1,.24,0,.72Zm5.43,0,0-.72,1-.17c-.08-.12-.17-.25-.27-.38a4.13,4.13,0,0,0-.38-.46l-2.47-2.86h-.7v-.68l.86-.21,3.52-3.64-1.06-.21.05-.72h3.46l.05.76-1,.17-4,3.73,0-.58,3.27,3.73.54.62c.15.18.28.32.39.43a2.91,2.91,0,0,1,.26.29l.88.17v.73Z"/><path class="cls-1" d="M20.29,175.73c-.32,0-.64-.06-1-.07l-.89,0H12.55l-.05-.72,1.08-.24a1.7,1.7,0,0,0,.05-.41q0-.32,0-.87c0-.37,0-.79,0-1.28v-3c0-.51,0-.94,0-1.31s0-.67,0-.88a1.58,1.58,0,0,0-.05-.4l-1.08-.24.05-.72H18.6l.7,0,.68,0,.36,2.35-.82.12-.6-1.46-.34-.05H15.9a3.52,3.52,0,0,0-.49.05s0,.18,0,.39,0,.45,0,.73,0,.57,0,.88v4.3c0,.27,0,.53,0,.78s0,.46,0,.65,0,.32,0,.4l.54,0c.19,0,.42,0,.68,0h2.06l.36,0,.23,0,.91-1.64.82.15Zm-2-3.58L18.12,171a1.65,1.65,0,0,0-.33-.05l-.53,0H16.08l-.5,0-.51,0v-1l.51,0h1.68l.53,0h.33l.19-1.19h.78v3.36Z"/><path class="cls-1" d="M22.23,165.59h4.33a6.36,6.36,0,0,1,4.24,1.29,4.5,4.5,0,0,1,1.53,3.63A4.85,4.85,0,0,1,29.65,175a6.17,6.17,0,0,1-2.9.66H22.23l-.06-.72,1.07-.24a4.57,4.57,0,0,0,.07-.88c0-.48,0-1.05,0-1.68v-3c0-.7,0-1.28,0-1.76a3.87,3.87,0,0,0-.07-.83l-1.07-.24Zm2.87,1c0,.09,0,.23,0,.42s0,.46,0,.8,0,.78,0,1.33v3c0,.33,0,.65,0,.95s0,.59,0,.84,0,.46,0,.62c.33.05.64.08.92.11a7.57,7.57,0,0,0,.81,0,3.39,3.39,0,0,0,2.58-.92,3.86,3.86,0,0,0,.88-2.76,6.58,6.58,0,0,0-.27-2,3.76,3.76,0,0,0-.8-1.42,3.27,3.27,0,0,0-1.25-.85,4.46,4.46,0,0,0-1.65-.28c-.19,0-.4,0-.61,0A5.57,5.57,0,0,0,25.1,166.59Z"/><path class="cls-1" d="M34,175.64l-.05-.72,1.06-.24a1.29,1.29,0,0,0,0-.41c0-.21,0-.5,0-.87s0-.79,0-1.28v-3c0-.51,0-.94,0-1.31s0-.67,0-.88a1.21,1.21,0,0,0,0-.4L34,166.31l.05-.72H38l0,.72-1.06.24a1.79,1.79,0,0,0-.06.38c0,.2,0,.49,0,.85s0,.82,0,1.36v3c0,.52,0,1,0,1.32s0,.64,0,.85a2.1,2.1,0,0,0,.06.39l1.06.24,0,.72Z"/><path class="cls-1" d="M38.73,175.64l0-.72.85-.24L43.06,166l1.13-.67,3.79,9.4.87.24-.05.72H45l0-.72,1.06-.24-1-2.44-.19-.55L43,167.24l.43-.12-1.66,4.57-.19.51-.87,2.48,1.06.24,0,.72Zm2.5-3.08v-1l.85,0,1.29,0,1.3,0,.84,0v1h-1l-1.11,0-1.08,0Z"/><path class="cls-1" d="M49.71,165.59h3.15l3.59,8h-.36l3.43-8h3l.05.72-1.08.22c0,.14,0,.42,0,.83s0,.89,0,1.43l.09,3.1c0,.54,0,1,0,1.38s0,.69,0,.93,0,.39,0,.48l1.06.24,0,.72H58.83l0-.72,1.06-.24a3.87,3.87,0,0,0,0-.42v-.82c0-.35,0-.8,0-1.36l0-6h.54l-4.12,9.6h-.74l-4.35-9.62h.64v5.84c0,.94,0,1.61,0,2s0,.66,0,.76l1.18.24,0,.72H49.47l-.06-.72,1.19-.24a4,4,0,0,0,0-.46c0-.23,0-.52,0-.86s0-.75,0-1.19l.06-3.36c0-.56,0-1,0-1.42v-.84l-1.07-.24Z"/><path class="cls-1" d="M63.57,175.64l0-.72.86-.24L67.9,166l1.13-.67,3.79,9.4.87.24,0,.72h-3.8l0-.72,1.06-.24-1-2.44-.18-.55-1.84-4.45.43-.12-1.66,4.57-.19.51-.87,2.48,1.06.24,0,.72Zm2.5-3.08v-1l.85,0,1.29,0,1.3,0,.84,0v1h-1l-1.12,0-1.08,0Z"/><path class="cls-1" d="M82.35,173v-3.44c0-.64,0-1.17,0-1.59s0-.74,0-1a1.21,1.21,0,0,0,0-.4l-1.16-.24,0-.72h3.37l0,.72-1.07.24s0,.18,0,.4,0,.55,0,1,0,1,0,1.59v5c0,.39,0,.78,0,1.18h-.86l-6.49-8.3h.55v4.21c0,.66,0,1.21,0,1.65s0,.77,0,1,0,.37,0,.42l1.18.24-.05.72H74.43l-.05-.72,1.06-.24a1.82,1.82,0,0,0,0-.42c0-.23,0-.57,0-1s0-1,0-1.63V168.9c0-.46,0-.85,0-1.18s0-.6,0-.79a1.62,1.62,0,0,0,0-.38l-1.06-.24.05-.72h2.46L82.78,173Z"/><path class="cls-1" d="M89.49,165.59h3.15l3.6,8h-.36l3.42-8h3l0,.72-1.08.22c0,.14,0,.42,0,.83s0,.89,0,1.43l.09,3.1c0,.54,0,1,0,1.38s0,.69,0,.93,0,.39,0,.48l1.06.24,0,.72H98.62l-.05-.72,1.06-.24a3.87,3.87,0,0,0,0-.42v-.82c0-.35,0-.8,0-1.36l0-6h.54L96,175.69h-.74l-4.35-9.62h.64v5.84c0,.94,0,1.61,0,2s0,.66,0,.76l1.18.24,0,.72h-3.5l0-.72,1.18-.24a3.38,3.38,0,0,0,0-.46c0-.23,0-.52,0-.86s0-.75,0-1.19l0-3.36c0-.56,0-1,0-1.42s0-.67,0-.84l-1.06-.24Z"/><path class="cls-1" d="M111.84,175.73c-.32,0-.64-.06-1-.07l-.89,0H104.1l0-.72,1.08-.24a1.7,1.7,0,0,0,.05-.41c0-.21,0-.5,0-.87s0-.79,0-1.28v-3c0-.51,0-.94,0-1.31s0-.67,0-.88a1.58,1.58,0,0,0-.05-.4l-1.08-.24,0-.72h6l.7,0,.69,0,.36,2.35-.82.12-.6-1.46-.35-.05h-2.67a3.52,3.52,0,0,0-.49.05s0,.18,0,.39,0,.45,0,.73,0,.57,0,.88v4.3c0,.27,0,.53,0,.78s0,.46,0,.65,0,.32,0,.4l.54,0c.19,0,.41,0,.67,0h2.07l.36,0,.23,0,.9-1.64.83.15Zm-2-3.58-.19-1.15a1.53,1.53,0,0,0-.32-.05l-.53,0h-1.18l-.5,0-.52,0v-1l.52,0h1.68l.53,0h.32l.19-1.19h.79v3.36Z"/><path class="cls-1" d="M113.91,165.59h3.15l3.59,8h-.36l3.43-8h3l0,.72-1.08.22c0,.14,0,.42,0,.83s0,.89,0,1.43l.08,3.1c0,.54,0,1,0,1.38s0,.69.05.93,0,.39,0,.48l1.06.24,0,.72H123l0-.72,1.06-.24a2.31,2.31,0,0,0,0-.42v-.82c0-.35,0-.8,0-1.36l0-6h.55l-4.13,9.6h-.73l-4.35-9.62H116l0,5.84c0,.94,0,1.61,0,2s0,.66,0,.76l1.18.24,0,.72h-3.49l0-.72,1.18-.24a4,4,0,0,0,0-.46c0-.23,0-.52,0-.86s0-.75,0-1.19l0-3.36c0-.56,0-1,0-1.42s0-.67,0-.84l-1.06-.24Z"/><path class="cls-1" d="M128.6,175.64l0-.72,1-.24a1.1,1.1,0,0,0,.05-.33c0-.18,0-.44,0-.8s0-.8,0-1.35V169c0-.54,0-1,0-1.31s0-.6,0-.78a1.18,1.18,0,0,0,0-.33l-1.06-.24.05-.72h3.85a4.54,4.54,0,0,1,2.81.75,2.55,2.55,0,0,1,1,2.16,2.85,2.85,0,0,1-.49,1.66,3.37,3.37,0,0,1-1.36,1.13,4.68,4.68,0,0,1-2,.4,4.63,4.63,0,0,1-.65,0l-.61-.08v-1a5.15,5.15,0,0,0,.62.16,3.08,3.08,0,0,0,.61.06,2.06,2.06,0,0,0,1.49-.51,2.08,2.08,0,0,0,.53-1.54,2.05,2.05,0,0,0-2.19-2.32h-.77c0,.07,0,.23,0,.47s0,.53,0,.89,0,.75,0,1.2l0,3.23c0,.55,0,1,0,1.34s0,.62,0,.79a2.37,2.37,0,0,0,0,.34l1.4.22-.05.75Z"/><path class="cls-1" d="M145.31,175.73c-.32,0-.64-.06-1-.07l-.89,0h-5.89l0-.72,1.08-.24a1.7,1.7,0,0,0,.05-.41c0-.21,0-.5,0-.87s0-.79,0-1.28v-3c0-.51,0-.94,0-1.31s0-.67,0-.88a1.58,1.58,0,0,0-.05-.4l-1.08-.24,0-.72h6l.71,0,.68,0,.36,2.35-.82.12-.6-1.46-.34-.05h-2.68a3.52,3.52,0,0,0-.49.05s0,.18,0,.39,0,.45,0,.73,0,.57,0,.88v4.3c0,.27,0,.53,0,.78s0,.46,0,.65,0,.32,0,.4l.54,0c.19,0,.41,0,.67,0h2.07l.36,0,.23,0,.91-1.64.82.15Zm-2-3.58-.19-1.15a1.42,1.42,0,0,0-.32-.05l-.53,0H141.1l-.5,0-.51,0v-1l.51,0h1.68l.53,0h.32l.19-1.19h.79v3.36Z"/><path class="cls-1" d="M154.62,175.73a6,6,0,0,0-.66,0l-.71,0h-6l0-.72,1.06-.24a4.14,4.14,0,0,0,0-.42c0-.22,0-.51,0-.88s0-.79,0-1.26v-4.28c0-.36,0-.65,0-.87a1.5,1.5,0,0,0-.05-.4l-1.06-.26,0-.72h4.31l.06.76-1.43.22a1.11,1.11,0,0,0,0,.36c0,.2,0,.49,0,.85s0,.82,0,1.36v3c0,.61,0,1.13,0,1.56s0,.71,0,.85l.53.05.65,0h1.07a6.45,6.45,0,0,0,.67,0,3.73,3.73,0,0,0,.52-.06l.93-1.73.86.19Z"/><path class="cls-1" d="M155.43,175.64l0-.72.86-.24,3.51-8.73,1.13-.67,3.78,9.4.88.24-.06.72h-3.8l-.05-.72,1.06-.24-1-2.44-.19-.55-1.83-4.45.43-.12-1.67,4.57-.18.51-.88,2.48,1.06.24,0,.72Zm2.5-3.08v-1l.84,0,1.3,0,1.3,0,.84,0v1h-1l-1.11,0-1.08,0Z"/><path class="cls-1" d="M166.26,175.64l0-.72,1.06-.24a1.52,1.52,0,0,0,.06-.41c0-.21,0-.5,0-.87s0-.79,0-1.28v-3c0-.51,0-.94,0-1.31s0-.67,0-.88a1.41,1.41,0,0,0-.06-.4l-1.06-.24,0-.72h3.94l.05.72-1.06.24a1.79,1.79,0,0,0-.06.38c0,.2,0,.49,0,.85s0,.82,0,1.36v3c0,.52,0,1,0,1.32s0,.64,0,.85a2.1,2.1,0,0,0,.06.39l1.06.24-.05.72Z"/><path class="cls-1" d="M182.63,168.35l-3,7.34h-.79l-3.67-9.14-.85-.24,0-.72H178l.05.72-.87.24,2.77,7.23h-.51l2.62-6.83Zm2.45,7.34-3.65-9.14-.87-.24.05-.72h3.77l.05.72-1,.24,2.77,7.23h-.48l2.65-7.23-1.2-.24.06-.72h3.25l.05.72-.87.24-3.75,9.14Z"/><path class="cls-1" d="M189.87,175.64l0-.72.86-.24,3.51-8.73,1.13-.67,3.78,9.4.87.24-.05.72h-3.8l0-.72,1.06-.24-1-2.44-.18-.55-1.84-4.45.43-.12-1.66,4.57-.19.51-.87,2.48,1.06.24,0,.72Zm2.5-3.08v-1l.85,0,1.29,0,1.31,0,.83,0v1h-1l-1.12,0-1.07,0Z"/><path class="cls-1" d="M208.65,173v-3.44c0-.64,0-1.17,0-1.59s0-.74,0-1a1.21,1.21,0,0,0,0-.4l-1.16-.24.05-.72h3.37l.05.72-1.07.24s0,.18,0,.4,0,.55,0,1,0,1,0,1.59v5c0,.39,0,.78,0,1.18h-.86l-6.49-8.3h.55v4.21c0,.66,0,1.21,0,1.65s0,.77,0,1,0,.37,0,.42l1.18.24,0,.72h-3.42l0-.72,1.06-.24a1.82,1.82,0,0,0,0-.42c0-.23,0-.57,0-1s0-1,0-1.63V168.9c0-.46,0-.85,0-1.18s0-.6,0-.79a1.62,1.62,0,0,0,0-.38l-1.06-.24,0-.72h2.46l5.89,7.36Z"/><path class="cls-1" d="M212.35,175.64l0-.72,1.06-.24a1.29,1.29,0,0,0,0-.41c0-.21,0-.5,0-.87s0-.79,0-1.28v-3c0-.51,0-.94,0-1.31s0-.67,0-.88a1.21,1.21,0,0,0,0-.4l-1.06-.24,0-.72h3.94l.05.72-1.06.24a1.79,1.79,0,0,0-.06.38c0,.2,0,.49,0,.85s0,.82,0,1.36v3c0,.52,0,1,0,1.32s0,.64,0,.85a2.1,2.1,0,0,0,.06.39l1.06.24-.05.72Z"/><path class="cls-1" d="M226.19,165.52l.39,2.85-.85.08-.71-1.93a1.63,1.63,0,0,0-.33-.05h-1.84c0,.09,0,.31,0,.64s0,.74,0,1.2v3.44c0,.69,0,1.31,0,1.84s0,.89,0,1.08l1.47.21-.05.75h-4.66l0-.75,1.45-.21c0-.19,0-.55,0-1.08s0-1.15,0-1.84v-4.64c0-.33,0-.55,0-.64h-1.86a1.63,1.63,0,0,0-.33.05l-.69,2-.85-.11.36-2.86c.14,0,.28,0,.43,0l.49,0h6.66l.5,0C225.92,165.54,226.06,165.54,226.19,165.52Z"/><path class="cls-1" d="M226.29,175.64l0-.72.85-.24,3.51-8.73,1.13-.67,3.78,9.4.88.24,0,.72h-3.8l-.06-.72,1.07-.24-1-2.44-.19-.55-1.83-4.45.43-.12-1.66,4.57-.19.51-.87,2.48,1.06.24,0,.72Zm2.5-3.08v-1l.85,0,1.29,0,1.3,0,.84,0v1h-1l-1.11,0-1.08,0Z"/><path class="cls-1" d="M19.52,185.58a1.08,1.08,0,0,0,0,.22c0,.13,0,.32,0,.56v5.38a4,4,0,0,1-.22,1.44,1.84,1.84,0,0,1-.63.89,1.57,1.57,0,0,1-1,.3,1.62,1.62,0,0,1-.89-.24.68.68,0,0,1-.38-.57.37.37,0,0,1,.11-.27.45.45,0,0,1,.31-.11.57.57,0,0,1,.28.08.85.85,0,0,1,.28.21l.56.57-.35-.12a.74.74,0,0,0,.58-.1,1,1,0,0,0,.34-.53,3.78,3.78,0,0,0,.1-1v-5.88c0-.24,0-.43,0-.57a2.06,2.06,0,0,0,0-.27l-.8-.16,0-.42h2.41l0,.42Z"/><path class="cls-1" d="M23.09,192.06a1.77,1.77,0,0,1-.8-.18,1.55,1.55,0,0,1-.57-.46,1,1,0,0,1-.21-.62.82.82,0,0,1,.26-.63,2.33,2.33,0,0,1,.86-.46l1.79-.62v-.66a.91.91,0,0,0-.18-.55,1.21,1.21,0,0,0-.5-.39,1.52,1.52,0,0,0-.69-.15.61.61,0,0,0-.44.13,1,1,0,0,0-.13.54l0,.42a1,1,0,0,1-.65,0,.4.4,0,0,1-.27-.39.59.59,0,0,1,.16-.38,2,2,0,0,1,.43-.36,3.19,3.19,0,0,1,.58-.31,2.88,2.88,0,0,1,.64-.17,1.93,1.93,0,0,1,1.33.45,1.56,1.56,0,0,1,.52,1.19l0,2.08c0,.13,0,.27,0,.42a1.4,1.4,0,0,0,.06.33l.74.14v.32l-.53.19-.28.09a.59.59,0,0,1-.21,0,.41.41,0,0,1-.42-.39l-.11-.45h.16a3.44,3.44,0,0,1-.76.64A1.43,1.43,0,0,1,23.09,192.06Zm.25-.59a1.19,1.19,0,0,0,.56-.14,2.07,2.07,0,0,0,.52-.44v-1.27l-1.48.41a.77.77,0,0,0-.41.23.69.69,0,0,0-.12.41.73.73,0,0,0,.28.55A1,1,0,0,0,23.34,191.47Z"/><path class="cls-1" d="M26.67,192l0-.4.77-.16c0-.09,0-.22,0-.38s0-.4,0-.71v-3.6c0-.33,0-.64,0-.93s0-.54,0-.74v-.37l-.88-.12,0-.33,1.54-.47.19.16,0,1c0,.33,0,.7,0,1.1s0,.9,0,1.47v1.95c0,.44,0,.85,0,1.22s0,.62,0,.74l.77.16,0,.4Z"/><path class="cls-1" d="M31.74,192.06a1.77,1.77,0,0,1-.8-.18,1.55,1.55,0,0,1-.57-.46,1,1,0,0,1-.22-.62.86.86,0,0,1,.26-.63,2.47,2.47,0,0,1,.87-.46l1.79-.62v-.66a.86.86,0,0,0-.19-.55,1.12,1.12,0,0,0-.49-.39,1.57,1.57,0,0,0-.7-.15.59.59,0,0,0-.43.13,1.08,1.08,0,0,0-.14.54l0,.42a1,1,0,0,1-.65,0,.4.4,0,0,1-.27-.39.59.59,0,0,1,.16-.38,1.92,1.92,0,0,1,.42-.36,4,4,0,0,1,.58-.31,3,3,0,0,1,.65-.17,2,2,0,0,1,1.33.45,1.56,1.56,0,0,1,.52,1.19l0,2.08c0,.13,0,.27,0,.42a1,1,0,0,0,.06.33l.74.14v.32l-.53.19-.28.09a.59.59,0,0,1-.21,0q-.34,0-.42-.39l-.11-.45h.15a3.2,3.2,0,0,1-.75.64A1.46,1.46,0,0,1,31.74,192.06Zm.25-.59a1.22,1.22,0,0,0,.56-.14,2.07,2.07,0,0,0,.52-.44v-1.27l-1.48.41a.77.77,0,0,0-.41.23.69.69,0,0,0-.13.41.74.74,0,0,0,.29.55A1,1,0,0,0,32,191.47Z"/><path class="cls-1" d="M35.35,192l0-.39.74-.17c0-.07,0-.14,0-.24s0-.21,0-.38,0-.39,0-.66v-.93c0-.27,0-.54,0-.82s0-.48,0-.61l-.76-.17v-.35l1.45-.41.16.18-.06.62h0a3.14,3.14,0,0,1,.83-.64,1.86,1.86,0,0,1,.85-.19,1.58,1.58,0,0,1,.79.21,1.52,1.52,0,0,1,.63.65,2.29,2.29,0,0,1,.25,1.14v1.34q0,.43,0,.78c0,.23,0,.39,0,.47l.74.17,0,.39H38.78l0-.39.69-.17a1.5,1.5,0,0,0,0-.22,3,3,0,0,0,0-.35c0-.14,0-.33,0-.57V188.9a1.69,1.69,0,0,0-.2-.88,1.33,1.33,0,0,0-.49-.46,1.38,1.38,0,0,0-.57-.13,1.61,1.61,0,0,0-.77.2,2,2,0,0,0-.61.58V190c0,.39,0,.69,0,.91s0,.38,0,.48l.74.17,0,.39Z"/><path class="cls-1" d="M45.86,185.58a1.08,1.08,0,0,0,0,.22c0,.13,0,.32,0,.56s0,.56,0,1v4.42a4.29,4.29,0,0,1-.21,1.44,1.84,1.84,0,0,1-.63.89,1.6,1.6,0,0,1-1,.3,1.65,1.65,0,0,1-.89-.24.7.7,0,0,1-.38-.57.34.34,0,0,1,.12-.27.43.43,0,0,1,.31-.11.57.57,0,0,1,.28.08,1,1,0,0,1,.28.21l.55.57-.34-.12a.75.75,0,0,0,.58-.1,1,1,0,0,0,.33-.53,3.73,3.73,0,0,0,.11-1v-5.88c0-.24,0-.43,0-.57a.75.75,0,0,0,0-.27l-.79-.16,0-.42h2.42l0,.42Z"/><path class="cls-1" d="M50,192.06a2.43,2.43,0,0,1-1.2-.3,2.16,2.16,0,0,1-.86-.86,2.76,2.76,0,0,1-.32-1.36,3,3,0,0,1,.34-1.47,2.47,2.47,0,0,1,.87-.94,2.13,2.13,0,0,1,1.17-.32,1.81,1.81,0,0,1,1.39.59,2.54,2.54,0,0,1,.51,1.72v.2H48.2v-.49h3l-.12.11v-.21a1.66,1.66,0,0,0-.33-1.1,1.11,1.11,0,0,0-.88-.38,1.23,1.23,0,0,0-.68.21,1.49,1.49,0,0,0-.53.62,2.44,2.44,0,0,0-.2,1v.12A2.26,2.26,0,0,0,49,190.8a1.56,1.56,0,0,0,1.24.56,1.7,1.7,0,0,0,.76-.16,2.27,2.27,0,0,0,.64-.55l.28.25a2.26,2.26,0,0,1-.82.88A2.18,2.18,0,0,1,50,192.06Z"/><path class="cls-1" d="M52.76,192l0-.39.74-.17c0-.07,0-.14,0-.24s0-.21,0-.38v-1.59c0-.27,0-.54,0-.82s0-.48-.06-.61l-.76-.17v-.35l1.45-.41.16.18-.05.62h0a3.14,3.14,0,0,1,.83-.64,1.89,1.89,0,0,1,.85-.19,1.65,1.65,0,0,1,.8.21,1.56,1.56,0,0,1,.62.65,2.29,2.29,0,0,1,.25,1.14v1.34q0,.43,0,.78c0,.23,0,.39,0,.47l.74.17,0,.39H56.18l0-.39.68-.17,0-.22c0-.09,0-.2,0-.35s0-.33,0-.57V188.9a1.69,1.69,0,0,0-.2-.88,1.26,1.26,0,0,0-.49-.46,1.34,1.34,0,0,0-.56-.13,1.62,1.62,0,0,0-.78.2,2,2,0,0,0-.61.58V190c0,.39,0,.69,0,.91s0,.38,0,.48l.73.17,0,.39Z"/><path class="cls-1" d="M63.29,192.08l-.13-.14v-.78h0a2.62,2.62,0,0,1-.75.69,1.69,1.69,0,0,1-.8.2,2.3,2.3,0,0,1-1.21-.32,2.21,2.21,0,0,1-.83-.86,2.61,2.61,0,0,1-.3-1.26,3,3,0,0,1,.2-1.13,2.54,2.54,0,0,1,.56-.89,2.61,2.61,0,0,1,.82-.58,2.24,2.24,0,0,1,1-.21,3.06,3.06,0,0,1,.74.09,1.82,1.82,0,0,1,.64.31c0-.14,0-.33,0-.58s0-.5,0-.76,0-.5,0-.71,0-.34,0-.4l-.93-.18,0-.35,1.59-.47.19.16q0,.74,0,1.44c0,.47,0,1,0,1.46v2.73c0,.4,0,.75,0,1s0,.51,0,.63l.75.19v.35Zm-1.5-.72a1.49,1.49,0,0,0,.71-.16,2.34,2.34,0,0,0,.66-.57v-2.51a1.56,1.56,0,0,0-.62-.65,1.73,1.73,0,0,0-.76-.18,1.46,1.46,0,0,0-1.23.57,2.32,2.32,0,0,0-.45,1.47,2.14,2.14,0,0,0,.5,1.5A1.59,1.59,0,0,0,61.79,191.36Z"/><path class="cls-1" d="M66.37,192.08a.68.68,0,0,1-.47-.17.62.62,0,0,1-.18-.46.55.55,0,0,1,.08-.31.61.61,0,0,1,.23-.22.73.73,0,0,1,.33-.08.64.64,0,0,1,.47.18.58.58,0,0,1,.18.43.62.62,0,0,1-.18.46A.65.65,0,0,1,66.37,192.08Z"/><path class="cls-1" d="M72.56,192.07a4.68,4.68,0,0,1-1-.12,3.55,3.55,0,0,1-.88-.32l0-1.47.43,0,.31,1a2.56,2.56,0,0,0,.65.3,2.76,2.76,0,0,0,.77.11,1.5,1.5,0,0,0,1-.3,1.1,1.1,0,0,0,.12-1.52,2.17,2.17,0,0,0-.64-.49q-.4-.22-.84-.42a6.76,6.76,0,0,1-.84-.47,2.31,2.31,0,0,1-.66-.62,1.6,1.6,0,0,1-.25-.92,1.64,1.64,0,0,1,.31-1,2.13,2.13,0,0,1,.86-.66,2.94,2.94,0,0,1,1.25-.25,5.41,5.41,0,0,1,.59,0,4.18,4.18,0,0,1,.53.09,3.62,3.62,0,0,1,.43.14l.08,1.41-.44.05-.32-1a1.8,1.8,0,0,0-1-.25,1.58,1.58,0,0,0-1,.31,1,1,0,0,0-.38.8,1.08,1.08,0,0,0,.25.73,2.34,2.34,0,0,0,.66.52q.39.21.84.42a8.52,8.52,0,0,1,.84.46,2.53,2.53,0,0,1,.65.61,1.47,1.47,0,0,1,.25.88,1.69,1.69,0,0,1-.31,1,2.06,2.06,0,0,1-.87.68A2.92,2.92,0,0,1,72.56,192.07Z"/><path class="cls-1" d="M80.73,191.21l.74.19v.35l-1.41.33-.13-.14v-.72h0a2.21,2.21,0,0,1-.71.65,1.51,1.51,0,0,1-.76.19,1.92,1.92,0,0,1-1.32-.48,1.82,1.82,0,0,1-.53-1.43v-1c0-.24,0-.47,0-.69s0-.45,0-.66l-.8-.17v-.35l1.47-.41.16.18c0,.25,0,.5,0,.76s0,.54,0,.83l0,1.37a1.4,1.4,0,0,0,.37,1.11,1.36,1.36,0,0,0,.93.32,1.47,1.47,0,0,0,.68-.18,1.59,1.59,0,0,0,.63-.61v-1.42c0-.17,0-.35,0-.52s0-.35,0-.51a3.58,3.58,0,0,0,0-.4l-.86-.17v-.35l1.52-.41.15.16c0,.24,0,.44,0,.61s0,.34,0,.5v1.35a11.69,11.69,0,0,0,0,1.17C80.7,190.89,80.72,191.09,80.73,191.21Z"/><path class="cls-1" d="M86.36,192.08l-.13-.14,0-.78h0a2.62,2.62,0,0,1-.75.69,1.72,1.72,0,0,1-.8.2,2.36,2.36,0,0,1-1.22-.32,2.29,2.29,0,0,1-.83-.86,2.61,2.61,0,0,1-.3-1.26,3.15,3.15,0,0,1,.2-1.13,2.72,2.72,0,0,1,.57-.89,2.68,2.68,0,0,1,.81-.58,2.32,2.32,0,0,1,1-.21,3.18,3.18,0,0,1,.74.09,1.69,1.69,0,0,1,.63.31v-.58c0-.24,0-.5,0-.76s0-.5,0-.71v-.4l-.94-.18,0-.35,1.59-.47.19.16q0,.74,0,1.44c0,.47,0,1,0,1.46v2.73c0,.4,0,.75,0,1s0,.51,0,.63l.75.19v.35Zm-1.49-.72a1.51,1.51,0,0,0,.71-.16,2.32,2.32,0,0,0,.65-.57v-2.51a1.45,1.45,0,0,0-.62-.65,1.72,1.72,0,0,0-.75-.18,1.49,1.49,0,0,0-1.24.57,2.38,2.38,0,0,0-.44,1.47,2.09,2.09,0,0,0,.5,1.5A1.59,1.59,0,0,0,84.87,191.36Z"/><path class="cls-1" d="M88.51,192l0-.4.79-.16a1.39,1.39,0,0,0,0-.15c0-.07,0-.19,0-.37v-1.51c0-.36,0-.68,0-1s0-.5-.05-.63l-.79-.17v-.35l1.54-.41.13.15c0,.24,0,.48,0,.71s0,.51,0,.83V190c0,.39,0,.7,0,.94s0,.38,0,.45l.79.16,0,.4Zm1.18-6.57a.67.67,0,0,1-.46-.18.6.6,0,0,1,0-.89.68.68,0,0,1,.46-.19.62.62,0,0,1,.45.19.58.58,0,0,1,.19.44.58.58,0,0,1-.19.45A.61.61,0,0,1,89.69,185.39Z"/><path class="cls-1" d="M91.66,192l0-.39.73-.17s0-.11,0-.22,0-.24,0-.41,0-.39,0-.65v-.94c0-.28,0-.55,0-.82s0-.47-.06-.6l-.75-.17v-.35l1.44-.41.14.16-.06,1h0a2.46,2.46,0,0,1,.73-.94,1.22,1.22,0,0,1,.68-.25A.73.73,0,0,1,95,187a.45.45,0,0,1,.17.37.44.44,0,0,1-.18.38.72.72,0,0,1-.46.13.85.85,0,0,1-.38-.09,1.72,1.72,0,0,1-.34-.24l.18.08a2,2,0,0,0-.44.43,3.2,3.2,0,0,0-.39.67v1.15c0,.18,0,.37,0,.57s0,.4,0,.58,0,.31,0,.42l1,.15,0,.41Z"/><path class="cls-1" d="M95.81,192l0-.39.74-.17c0-.07,0-.14,0-.22s0-.2,0-.36v-1.64a4.86,4.86,0,0,0,0-.54c0-.18,0-.36,0-.52s0-.28,0-.36l-.76-.17v-.35l1.45-.41.16.18,0,.64h0a2.47,2.47,0,0,1,.76-.65,1.75,1.75,0,0,1,.79-.2,1.58,1.58,0,0,1,.8.22,1.78,1.78,0,0,1,.65.68,2.44,2.44,0,0,1,.26,1.19v1.25c0,.29,0,.55,0,.78s0,.38,0,.47l.72.17,0,.39H99.17l0-.39.65-.17c0-.07,0-.14,0-.22a3,3,0,0,0,0-.35c0-.14,0-.33,0-.57l0-1.36a1.76,1.76,0,0,0-.17-.85,1,1,0,0,0-.44-.47,1.19,1.19,0,0,0-.58-.15,1.52,1.52,0,0,0-.73.18,1.66,1.66,0,0,0-.61.6V190c0,.39,0,.69,0,.91s0,.38,0,.48l.71.17,0,.39Zm6.59,0,0-.39.68-.17c0-.07,0-.14,0-.22s0-.2,0-.35,0-.33,0-.57V188.9a1.76,1.76,0,0,0-.18-.87,1.17,1.17,0,0,0-.48-.46,1.15,1.15,0,0,0-.55-.14,1.46,1.46,0,0,0-.8.22,2,2,0,0,0-.66.68l-.19-.43a2.7,2.7,0,0,1,.87-.83,2,2,0,0,1,1-.26,1.77,1.77,0,0,1,.87.23,1.67,1.67,0,0,1,.63.66,2.21,2.21,0,0,1,.24,1.08v1.37c0,.29,0,.55,0,.78a3.39,3.39,0,0,0,0,.47l.73.17,0,.39Z"/><path class="cls-1" d="M107.34,192.06a1.8,1.8,0,0,1-.8-.18,1.55,1.55,0,0,1-.57-.46,1,1,0,0,1-.21-.62.82.82,0,0,1,.26-.63,2.33,2.33,0,0,1,.86-.46l1.79-.62v-.66a.91.91,0,0,0-.18-.55,1.25,1.25,0,0,0-.49-.39,1.6,1.6,0,0,0-.7-.15.61.61,0,0,0-.44.13,1,1,0,0,0-.13.54l0,.42a1,1,0,0,1-.65,0,.4.4,0,0,1-.27-.39.59.59,0,0,1,.16-.38,2,2,0,0,1,.43-.36A3.19,3.19,0,0,1,107,187a2.88,2.88,0,0,1,.64-.17,1.93,1.93,0,0,1,1.33.45,1.56,1.56,0,0,1,.52,1.19l0,2.08a3.1,3.1,0,0,0,0,.42,1.08,1.08,0,0,0,0,.33l.75.14v.32l-.54.19-.28.09a.58.58,0,0,1-.2,0,.42.42,0,0,1-.43-.39l-.11-.45h.16a3,3,0,0,1-.76.64A1.43,1.43,0,0,1,107.34,192.06Zm.25-.59a1.26,1.26,0,0,0,.57-.14,2,2,0,0,0,.51-.44v-1.27l-1.48.41a.77.77,0,0,0-.41.23.69.69,0,0,0-.12.41.73.73,0,0,0,.28.55A1,1,0,0,0,107.59,191.47Z"/><path class="cls-1" d="M111,192l0-.39.74-.17c0-.07,0-.14,0-.24s0-.21,0-.38v-.66l0-.93c0-.27,0-.54,0-.82s0-.48-.06-.61l-.76-.17v-.35l1.45-.41.17.18-.06.62h0a3.14,3.14,0,0,1,.83-.64,1.89,1.89,0,0,1,.85-.19,1.61,1.61,0,0,1,1.43.86,2.41,2.41,0,0,1,.24,1.14v1.34q0,.43,0,.78a2.73,2.73,0,0,0,0,.47l.73.17,0,.39h-2.22l0-.39.68-.17,0-.22c0-.09,0-.2,0-.35V188.9a1.69,1.69,0,0,0-.2-.88,1.26,1.26,0,0,0-.49-.46,1.34,1.34,0,0,0-.56-.13,1.55,1.55,0,0,0-.77.2,1.9,1.9,0,0,0-.62.58V190c0,.39,0,.69,0,.91s0,.38,0,.48l.73.17,0,.39Z"/><path class="cls-1" d="M125.15,190.42v-2.9c0-.49,0-.87,0-1.14s0-.47,0-.59a.62.62,0,0,0,0-.21l-.79-.15,0-.42h2.18l0,.42-.72.15a1.32,1.32,0,0,1,0,.21c0,.12,0,.32,0,.59s0,.66,0,1.14v3.69c0,.26,0,.53,0,.8h-.48L121,186h.15v3.41c0,.49,0,.86,0,1.14a5.38,5.38,0,0,0,0,.59c0,.12,0,.19,0,.22l.81.15,0,.41h-2.2l0-.41.73-.15a1.8,1.8,0,0,0,0-.21c0-.12,0-.31,0-.59s0-.66,0-1.15V187.3c0-.4,0-.71,0-.94s0-.4,0-.52,0-.21,0-.26l-.73-.15,0-.42h1.55l3.91,5.41Z"/><path class="cls-1" d="M130.05,192.06a2.59,2.59,0,0,1-1.32-.33,2.3,2.3,0,0,1-.87-.93,3,3,0,0,1-.31-1.37,2.75,2.75,0,0,1,.34-1.37,2.46,2.46,0,0,1,.92-.92,2.54,2.54,0,0,1,1.28-.33,2.39,2.39,0,0,1,1.25.32,2.09,2.09,0,0,1,.83.91,2.92,2.92,0,0,1,.3,1.35,2.86,2.86,0,0,1-.32,1.35,2.52,2.52,0,0,1-.87,1A2.21,2.21,0,0,1,130.05,192.06Zm.12-.5a1.12,1.12,0,0,0,.75-.26,1.72,1.72,0,0,0,.5-.71,2.73,2.73,0,0,0,.19-1,2.78,2.78,0,0,0-.45-1.65,1.38,1.38,0,0,0-1.18-.63,1.32,1.32,0,0,0-1.11.55,2.27,2.27,0,0,0-.43,1.46,2.89,2.89,0,0,0,.23,1.18,1.92,1.92,0,0,0,.61.8A1.47,1.47,0,0,0,130.17,191.56Z"/><path class="cls-1" d="M134.11,192.08a.68.68,0,0,1-.47-.17.59.59,0,0,1-.19-.46.56.56,0,0,1,.09-.31.61.61,0,0,1,.23-.22.69.69,0,0,1,.32-.08.65.65,0,0,1,.48.18.57.57,0,0,1,.17.43.61.61,0,0,1-.17.46A.67.67,0,0,1,134.11,192.08Z"/><path class="cls-1" d="M137.81,189.71c0,.4,0,.72,0,1s0,.42,0,.53a1.81,1.81,0,0,0,0,.22l.94.15,0,.39h-2.66l0-.39.91-.15s0-.15,0-.3,0-.34,0-.58,0-.51,0-.83v-2.54c0-.2,0-.4,0-.61s0-.4,0-.6l-1,.22,0-.45,1.85-.83c0,.21,0,.47,0,.79s0,.74,0,1.29Z"/><path class="cls-1" d="M139.78,193.93l-.15-.3a2,2,0,0,0,.65-.47,1.09,1.09,0,0,0,.25-.7.48.48,0,0,0-.06-.26.8.8,0,0,0-.13-.19l-.15-.16a.86.86,0,0,1-.14-.18.6.6,0,0,1-.06-.29.55.55,0,0,1,.17-.37.57.57,0,0,1,.42-.17.61.61,0,0,1,.35.11.75.75,0,0,1,.26.32,1.31,1.31,0,0,1,.09.52,2,2,0,0,1-.2.86,2.69,2.69,0,0,1-.54.77A2.12,2.12,0,0,1,139.78,193.93Z"/><path class="cls-1" d="M144.79,192l0-.41.73-.15a3.73,3.73,0,0,0,0-.52c0-.28,0-.68,0-1.2v-2.37c0-.36,0-.67,0-.91s0-.44,0-.57a1.44,1.44,0,0,0,0-.25l-.73-.15,0-.42h2.34l0,.42-.72.15a1.08,1.08,0,0,0,0,.22c0,.12,0,.3,0,.55v3.33c0,.52,0,.92,0,1.2s0,.45,0,.52l.76.15,0,.41Zm3.65,0,0-.41.74-.12a2.42,2.42,0,0,0-.22-.28,3.88,3.88,0,0,0-.26-.31l-1.92-2.14h-.5v-.41l.66-.17,2.44-2.54-.72-.15,0-.42h2.18l0,.44-.66.12-2.92,2.79.06-.3,2.25,2.46c.12.13.23.24.32.35l.27.3a2.06,2.06,0,0,0,.21.21l.6.16V192Z"/><path class="cls-1" d="M153.15,192.06a1.8,1.8,0,0,1-.8-.18,1.55,1.55,0,0,1-.57-.46,1,1,0,0,1-.21-.62.82.82,0,0,1,.26-.63,2.33,2.33,0,0,1,.86-.46l1.79-.62v-.66a.91.91,0,0,0-.18-.55,1.25,1.25,0,0,0-.49-.39,1.6,1.6,0,0,0-.7-.15.61.61,0,0,0-.44.13,1,1,0,0,0-.13.54l0,.42a1,1,0,0,1-.65,0,.4.4,0,0,1-.27-.39.59.59,0,0,1,.16-.38,2,2,0,0,1,.43-.36,3.19,3.19,0,0,1,.58-.31,2.88,2.88,0,0,1,.64-.17,1.93,1.93,0,0,1,1.33.45,1.56,1.56,0,0,1,.52,1.19l0,2.08c0,.13,0,.27,0,.42a1.4,1.4,0,0,0,.06.33l.74.14v.32l-.53.19-.28.09a.58.58,0,0,1-.2,0,.42.42,0,0,1-.43-.39l-.11-.45h.16a3,3,0,0,1-.76.64A1.43,1.43,0,0,1,153.15,192.06Zm.25-.59a1.26,1.26,0,0,0,.57-.14,2,2,0,0,0,.51-.44v-1.27L153,190a.77.77,0,0,0-.41.23.69.69,0,0,0-.12.41.73.73,0,0,0,.28.55A1,1,0,0,0,153.4,191.47Z"/><path class="cls-1" d="M156.79,192l0-.39.73-.17a1,1,0,0,0,0-.22c0-.1,0-.24,0-.41s0-.39,0-.65v-.94c0-.28,0-.55,0-.82s0-.47-.06-.6l-.75-.17v-.35l1.44-.41.14.16-.06,1h0a2.46,2.46,0,0,1,.73-.94,1.22,1.22,0,0,1,.68-.25.73.73,0,0,1,.43.13.43.43,0,0,1,.17.37.46.46,0,0,1-.17.38.77.77,0,0,1-.47.13.85.85,0,0,1-.38-.09,2.08,2.08,0,0,1-.34-.24l.18.08a2,2,0,0,0-.44.43,3.2,3.2,0,0,0-.39.67v1.15l0,.57c0,.21,0,.4,0,.58s0,.31,0,.42l1,.15,0,.41Z"/><path class="cls-1" d="M163.15,192.06a2.43,2.43,0,0,1-1.2-.3,2.1,2.1,0,0,1-.86-.86,2.76,2.76,0,0,1-.32-1.36,3.07,3.07,0,0,1,.33-1.47,2.5,2.5,0,0,1,.88-.94,2.11,2.11,0,0,1,1.17-.32,1.81,1.81,0,0,1,1.39.59,2.54,2.54,0,0,1,.51,1.72v.2h-3.69v-.49h3l-.11.11v-.21a1.66,1.66,0,0,0-.33-1.1,1.11,1.11,0,0,0-.88-.38,1.21,1.21,0,0,0-.68.21,1.42,1.42,0,0,0-.53.62,2.3,2.3,0,0,0-.2,1v.12a2.31,2.31,0,0,0,.48,1.56,1.6,1.6,0,0,0,1.25.56,1.73,1.73,0,0,0,.76-.16,2.27,2.27,0,0,0,.64-.55l.28.25a2.26,2.26,0,0,1-.82.88A2.18,2.18,0,0,1,163.15,192.06Z"/><path class="cls-1" d="M169.5,191.3a1.66,1.66,0,0,1-.6.55,1.63,1.63,0,0,1-.76.2,1.57,1.57,0,0,1-1.14-.43,1.68,1.68,0,0,1-.45-1.28l0-2.88h-.83v-.21l1.4-1.34h.17l0,1.28v2.95a1.41,1.41,0,0,0,.28,1,.94.94,0,0,0,.77.32,1.32,1.32,0,0,0,.53-.11,1.66,1.66,0,0,0,.43-.3ZM167,187.46v-.54h2.16v.54Z"/><path class="cls-1" d="M174.33,192.07a4.75,4.75,0,0,1-1-.12,3.32,3.32,0,0,1-.87-.32l-.06-1.47.43,0,.31,1a2.56,2.56,0,0,0,.65.3,2.76,2.76,0,0,0,.77.11,1.5,1.5,0,0,0,1-.3,1.1,1.1,0,0,0,.12-1.52,2.17,2.17,0,0,0-.64-.49q-.41-.22-.84-.42a6.76,6.76,0,0,1-.84-.47,2.31,2.31,0,0,1-.66-.62,1.6,1.6,0,0,1-.25-.92,1.71,1.71,0,0,1,.31-1,2.13,2.13,0,0,1,.86-.66,2.94,2.94,0,0,1,1.25-.25,5.74,5.74,0,0,1,.6,0,4.34,4.34,0,0,1,.52.09,3.62,3.62,0,0,1,.43.14l.08,1.41-.44.05-.32-1a1.8,1.8,0,0,0-1-.25,1.58,1.58,0,0,0-1,.31,1,1,0,0,0-.38.8,1.08,1.08,0,0,0,.25.73,2.34,2.34,0,0,0,.66.52q.39.21.84.42a8.52,8.52,0,0,1,.84.46,2.53,2.53,0,0,1,.65.61,1.48,1.48,0,0,1,.26.88,1.7,1.7,0,0,1-.32,1,2.09,2.09,0,0,1-.86.68A3,3,0,0,1,174.33,192.07Z"/><path class="cls-1" d="M180.18,192.06a2.44,2.44,0,0,1-1.21-.3,2.16,2.16,0,0,1-.86-.86,2.76,2.76,0,0,1-.32-1.36,3,3,0,0,1,.34-1.47,2.47,2.47,0,0,1,.87-.94,2.16,2.16,0,0,1,1.18-.32,1.81,1.81,0,0,1,1.38.59,2.54,2.54,0,0,1,.51,1.72v.2h-3.68v-.49h3l-.12.11v-.21a1.66,1.66,0,0,0-.33-1.1,1.1,1.1,0,0,0-.88-.38,1.23,1.23,0,0,0-.68.21,1.49,1.49,0,0,0-.53.62,2.44,2.44,0,0,0-.2,1v.12a2.26,2.26,0,0,0,.49,1.56,1.58,1.58,0,0,0,1.24.56,1.67,1.67,0,0,0,.76-.16,2.27,2.27,0,0,0,.64-.55l.28.25a2.31,2.31,0,0,1-.81.88A2.24,2.24,0,0,1,180.18,192.06Z"/><path class="cls-1" d="M183,192l0-.39.73-.17c0-.07,0-.14,0-.22s0-.2,0-.36,0-.4,0-.7v-.94a4.86,4.86,0,0,0,0-.54c0-.18,0-.36,0-.52a2.06,2.06,0,0,0-.05-.36l-.75-.17v-.35l1.44-.41.17.18-.06.64h0a2.47,2.47,0,0,1,.76-.65,1.79,1.79,0,0,1,.8-.2,1.58,1.58,0,0,1,.79.22,1.71,1.71,0,0,1,.65.68,2.44,2.44,0,0,1,.26,1.19v1.25c0,.29,0,.55,0,.78s0,.38,0,.47l.73.17,0,.39h-2.17l0-.39.65-.17,0-.22c0-.09,0-.2,0-.35s0-.33,0-.57V188.9a1.89,1.89,0,0,0-.17-.85,1.08,1.08,0,0,0-.45-.47,1.17,1.17,0,0,0-.58-.15,1.55,1.55,0,0,0-.73.18,1.73,1.73,0,0,0-.61.6V190c0,.39,0,.69,0,.91s0,.38,0,.48l.71.17,0,.39Zm6.6,0,0-.39.68-.17c0-.07,0-.14,0-.22s0-.2,0-.35,0-.33,0-.57V188.9a1.75,1.75,0,0,0-.19-.87,1.21,1.21,0,0,0-.47-.46,1.19,1.19,0,0,0-.56-.14,1.48,1.48,0,0,0-.8.22,2.05,2.05,0,0,0-.66.68l-.19-.43a2.72,2.72,0,0,1,.88-.83,2,2,0,0,1,1-.26,1.71,1.71,0,0,1,.87.23,1.55,1.55,0,0,1,.63.66,2.21,2.21,0,0,1,.24,1.08v1.37c0,.29,0,.55,0,.78a3.39,3.39,0,0,0,0,.47l.73.17,0,.39Z"/><path class="cls-1" d="M194.5,192.06a1.77,1.77,0,0,1-.8-.18,1.67,1.67,0,0,1-.58-.46,1,1,0,0,1-.21-.62.86.86,0,0,1,.26-.63,2.3,2.3,0,0,1,.87-.46l1.78-.62v-.66a.91.91,0,0,0-.18-.55,1.18,1.18,0,0,0-.49-.39,1.6,1.6,0,0,0-.7-.15.58.58,0,0,0-.43.13,1,1,0,0,0-.14.54l0,.42a1,1,0,0,1-.65,0,.41.41,0,0,1-.28-.39.65.65,0,0,1,.16-.38,2,2,0,0,1,.43-.36,3.56,3.56,0,0,1,.58-.31,3,3,0,0,1,.65-.17,1.92,1.92,0,0,1,1.32.45,1.52,1.52,0,0,1,.52,1.19l0,2.08c0,.13,0,.27,0,.42a1.53,1.53,0,0,0,0,.33l.75.14v.32l-.53.19-.28.09a.68.68,0,0,1-.21,0c-.23,0-.37-.13-.43-.39l-.1-.45H196a3.2,3.2,0,0,1-.75.64A1.46,1.46,0,0,1,194.5,192.06Zm.25-.59a1.25,1.25,0,0,0,.56-.14,1.87,1.87,0,0,0,.51-.44v-1.27l-1.48.41a.73.73,0,0,0-.4.23.63.63,0,0,0-.13.41.71.71,0,0,0,.29.55A1,1,0,0,0,194.75,191.47Z"/><path class="cls-1" d="M198.11,192l0-.39.73-.17c0-.07,0-.14,0-.24s0-.21,0-.38,0-.39,0-.66v-.93c0-.27,0-.54,0-.82s0-.48-.05-.61l-.76-.17v-.35l1.44-.41.17.18-.06.62h0a3.31,3.31,0,0,1,.83-.64,1.9,1.9,0,0,1,.86-.19,1.61,1.61,0,0,1,.79.21,1.65,1.65,0,0,1,.63.65,2.4,2.4,0,0,1,.25,1.14v1.34c0,.29,0,.55,0,.78a4.43,4.43,0,0,0,0,.47l.73.17,0,.39h-2.22l0-.39.69-.17c0-.07,0-.14,0-.22a3,3,0,0,0,0-.35V188.9a1.59,1.59,0,0,0-.2-.88,1.2,1.2,0,0,0-.49-.46,1.3,1.3,0,0,0-.56-.13,1.58,1.58,0,0,0-.77.2,2,2,0,0,0-.62.58V190c0,.39,0,.69,0,.91s0,.38,0,.48l.74.17,0,.39Z"/><path class="cls-1" d="M206.83,194.67a3.27,3.27,0,0,1-1.66-.37,1.07,1.07,0,0,1-.62-.94,1.19,1.19,0,0,1,.29-.76,3.86,3.86,0,0,1,1-.74l.42.12a2,2,0,0,0-.64.54,1.13,1.13,0,0,0-.22.68.86.86,0,0,0,.39.75,1.75,1.75,0,0,0,1.06.28,2.21,2.21,0,0,0,1.29-.35,1,1,0,0,0,.49-.9.73.73,0,0,0-.31-.64,2.17,2.17,0,0,0-1-.26l-1.21-.09-.2-.05a1.07,1.07,0,0,1-.68-.23.67.67,0,0,1-.29-.55.88.88,0,0,1,.28-.61,2.67,2.67,0,0,1,.8-.55l.15.25a2.15,2.15,0,0,0-.36.3.39.39,0,0,0-.12.25.4.4,0,0,0,.17.31,1,1,0,0,0,.46.16l1.46.14a2.43,2.43,0,0,1,1.21.4,1.12,1.12,0,0,1,.42.95,1.48,1.48,0,0,1-.34,1,2.36,2.36,0,0,1-.93.69A3.27,3.27,0,0,1,206.83,194.67Zm.11-4.2a2.51,2.51,0,0,1-1.08-.22,1.66,1.66,0,0,1-.74-.61,1.49,1.49,0,0,1-.27-.87,1.87,1.87,0,0,1,.27-1,2,2,0,0,1,.74-.69,2.21,2.21,0,0,1,1-.26,2.39,2.39,0,0,1,1.06.23,1.87,1.87,0,0,1,.72.64,1.76,1.76,0,0,1,.26.93,1.73,1.73,0,0,1-.27.95,1.84,1.84,0,0,1-.72.66A2.13,2.13,0,0,1,206.94,190.47Zm.05-.41a1,1,0,0,0,.83-.36,1.5,1.5,0,0,0,.3-1,1.66,1.66,0,0,0-.34-1.1,1.08,1.08,0,0,0-.88-.4,1,1,0,0,0-.85.38,1.49,1.49,0,0,0-.33,1,1.52,1.52,0,0,0,.35,1A1.18,1.18,0,0,0,207,190.06Zm2.69-2.44-1.36-.09-.46-.45,1.82-.17Z"/><path class="cls-1" d="M212.63,194.67a3.25,3.25,0,0,1-1.65-.37,1.05,1.05,0,0,1-.62-.94,1.19,1.19,0,0,1,.29-.76,3.78,3.78,0,0,1,1-.74l.43.12a1.93,1.93,0,0,0-.64.54,1.14,1.14,0,0,0-.23.68.86.86,0,0,0,.39.75,1.79,1.79,0,0,0,1.07.28,2.16,2.16,0,0,0,1.28-.35,1,1,0,0,0,.5-.9.76.76,0,0,0-.31-.64,2.22,2.22,0,0,0-1-.26l-1.21-.09-.2-.05a1.07,1.07,0,0,1-.68-.23.69.69,0,0,1-.29-.55.88.88,0,0,1,.28-.61,2.6,2.6,0,0,1,.81-.55l.14.25a3.51,3.51,0,0,0-.36.3.42.42,0,0,0-.11.25.38.38,0,0,0,.16.31,1.08,1.08,0,0,0,.47.16l1.45.14a2.4,2.4,0,0,1,1.21.4,1.1,1.1,0,0,1,.43.95,1.49,1.49,0,0,1-.35,1,2.29,2.29,0,0,1-.93.69A3.27,3.27,0,0,1,212.63,194.67Zm.11-4.2a2.5,2.5,0,0,1-1.07-.22,1.75,1.75,0,0,1-.75-.61,1.49,1.49,0,0,1-.27-.87,1.88,1.88,0,0,1,.28-1,2,2,0,0,1,.74-.69,2.15,2.15,0,0,1,1.05-.26,2.38,2.38,0,0,1,1.05.23,1.8,1.8,0,0,1,.72.64,1.68,1.68,0,0,1,.26.93,1.72,1.72,0,0,1-.26.95,1.91,1.91,0,0,1-.72.66A2.2,2.2,0,0,1,212.74,190.47Zm.06-.41a1,1,0,0,0,.82-.36,1.5,1.5,0,0,0,.3-1,1.72,1.72,0,0,0-.33-1.1,1.1,1.1,0,0,0-.89-.4,1.06,1.06,0,0,0-.85.38,1.49,1.49,0,0,0-.33,1,1.57,1.57,0,0,0,.35,1A1.19,1.19,0,0,0,212.8,190.06Zm2.69-2.44-1.36-.09-.47-.45,1.83-.17Z"/><path class="cls-1" d="M216.07,192l0-.4.79-.16a1.39,1.39,0,0,0,0-.15c0-.07,0-.19,0-.37v-1.51c0-.36,0-.68,0-1s0-.5,0-.63l-.79-.17v-.35l1.54-.41.13.15c0,.24,0,.48,0,.71s0,.51,0,.83V190c0,.39,0,.7,0,.94s0,.38,0,.45l.79.16,0,.4Zm1.18-6.57a.69.69,0,0,1-.46-.18.6.6,0,0,1,0-.89.7.7,0,0,1,.46-.19.62.62,0,0,1,.45.19.58.58,0,0,1,.19.44.58.58,0,0,1-.19.45A.61.61,0,0,1,217.25,185.39Z"/><path class="cls-1" d="M219.27,193.93l-.16-.3a1.92,1.92,0,0,0,.66-.47,1.08,1.08,0,0,0,.24-.7.48.48,0,0,0,0-.26.8.8,0,0,0-.13-.19l-.15-.16a.62.62,0,0,1-.14-.18.6.6,0,0,1-.06-.29.55.55,0,0,1,.17-.37.57.57,0,0,1,.42-.17.61.61,0,0,1,.35.11.83.83,0,0,1,.26.32,1.31,1.31,0,0,1,.09.52,2.11,2.11,0,0,1-.2.86,2.69,2.69,0,0,1-.54.77A2.12,2.12,0,0,1,219.27,193.93Z"/><path class="cls-1" d="M44.91,206.63a4.31,4.31,0,0,1-1-.13,3,3,0,0,1-.87-.31l-.06-1.47.44-.05.31,1a2.28,2.28,0,0,0,.65.3,2.71,2.71,0,0,0,.77.1,1.54,1.54,0,0,0,1-.29,1,1,0,0,0,.38-.82,1.08,1.08,0,0,0-.25-.71,2.41,2.41,0,0,0-.65-.49q-.39-.21-.84-.42a6.72,6.72,0,0,1-.84-.46,2.3,2.3,0,0,1-.65-.63,1.59,1.59,0,0,1-.26-.92,1.62,1.62,0,0,1,.32-1,2.09,2.09,0,0,1,.86-.67,3,3,0,0,1,1.24-.24,5.74,5.74,0,0,1,.6,0,4,4,0,0,1,.52.09,2.17,2.17,0,0,1,.43.14l.09,1.41-.44,0-.32-.95a1.76,1.76,0,0,0-1-.25,1.54,1.54,0,0,0-1,.31,1,1,0,0,0-.38.79,1.11,1.11,0,0,0,.26.74,2.41,2.41,0,0,0,.65.51c.27.15.55.29.84.43a6.72,6.72,0,0,1,.84.46,2.24,2.24,0,0,1,.65.61,1.48,1.48,0,0,1,.26.88,1.65,1.65,0,0,1-.32,1,2.13,2.13,0,0,1-.86.69A3.15,3.15,0,0,1,44.91,206.63Z"/><path class="cls-1" d="M50.75,206.62a2.4,2.4,0,0,1-1.2-.3,2.18,2.18,0,0,1-.86-.87,2.63,2.63,0,0,1-.32-1.36,3,3,0,0,1,.33-1.46,2.35,2.35,0,0,1,.88-.94,2.11,2.11,0,0,1,1.17-.32,1.77,1.77,0,0,1,1.38.59,2.54,2.54,0,0,1,.51,1.72v.2H49v-.5h3l-.12.12v-.21a1.7,1.7,0,0,0-.32-1.1,1.12,1.12,0,0,0-.89-.38,1.34,1.34,0,0,0-.68.2,1.5,1.5,0,0,0-.52.63,2.26,2.26,0,0,0-.21,1v.12a2.31,2.31,0,0,0,.49,1.56,1.58,1.58,0,0,0,1.24.56,1.67,1.67,0,0,0,.76-.17,2,2,0,0,0,.64-.54l.29.24a2.34,2.34,0,0,1-.82.88A2.14,2.14,0,0,1,50.75,206.62Z"/><path class="cls-1" d="M57.1,205.86a1.7,1.7,0,0,1-.61.55,1.55,1.55,0,0,1-.75.19,1.61,1.61,0,0,1-1.14-.42,1.69,1.69,0,0,1-.45-1.28l0-2.88h-.83v-.21l1.4-1.34h.18l0,1.28,0,2.95a1.5,1.5,0,0,0,.28,1A1,1,0,0,0,56,206a1.36,1.36,0,0,0,.53-.11,1.62,1.62,0,0,0,.43-.31ZM54.56,202v-.55h2.17V202Z"/><path class="cls-1" d="M57.39,206.52l0-.4.79-.17a.49.49,0,0,0,0-.15,3,3,0,0,0,0-.36c0-.18,0-.44,0-.77v-.74c0-.36,0-.68,0-1s0-.51,0-.63l-.79-.17v-.36l1.54-.4.13.14c0,.25,0,.49,0,.72s0,.51,0,.82v1.5c0,.38,0,.7,0,.93s0,.39,0,.45l.8.17,0,.4ZM58.58,200a.65.65,0,0,1-.46-.18.56.56,0,0,1-.2-.45.59.59,0,0,1,.2-.45.67.67,0,0,1,.91,0,.61.61,0,0,1,.19.45.58.58,0,0,1-.19.45A.64.64,0,0,1,58.58,200Z"/><path class="cls-1" d="M62.46,206.62a1.8,1.8,0,0,1-.8-.18,1.55,1.55,0,0,1-.57-.46,1,1,0,0,1-.21-.62.82.82,0,0,1,.26-.63,2.33,2.33,0,0,1,.86-.46l1.79-.63V203a1,1,0,0,0-.18-.56,1.37,1.37,0,0,0-.49-.39,1.75,1.75,0,0,0-.7-.14A.61.61,0,0,0,62,202a1,1,0,0,0-.13.53l0,.43a1,1,0,0,1-.65,0,.38.38,0,0,1-.27-.38.57.57,0,0,1,.16-.38,2,2,0,0,1,.43-.37,2.65,2.65,0,0,1,.58-.3,2.88,2.88,0,0,1,.64-.17,1.93,1.93,0,0,1,1.33.45,1.53,1.53,0,0,1,.52,1.18l0,2.09a3.25,3.25,0,0,0,0,.42,1,1,0,0,0,0,.32l.75.15v.32l-.54.19-.28.09-.2,0a.42.42,0,0,1-.43-.39l-.11-.45.16,0a2.9,2.9,0,0,1-.76.65A1.43,1.43,0,0,1,62.46,206.62Zm.25-.6a1.15,1.15,0,0,0,.57-.14,1.69,1.69,0,0,0,.51-.44v-1.26l-1.48.41a.71.71,0,0,0-.41.23.66.66,0,0,0-.12.41.73.73,0,0,0,.28.55A1,1,0,0,0,62.71,206Z"/><path class="cls-1" d="M66.63,206.21c0-.27,0-.51,0-.7s0-.36,0-.53v-2.77c0-.25,0-.52,0-.83v-.92c0-.3,0-.57,0-.79s0-.38,0-.45l-.87-.11,0-.34,1.52-.46.19.16c0,.33,0,.66,0,1s0,.72,0,1.16,0,1,0,1.63h0a2.35,2.35,0,0,1,.75-.66,2,2,0,0,1,1-.24A2.09,2.09,0,0,1,71,202.48a2.66,2.66,0,0,1,.3,1.32,2.71,2.71,0,0,1-.4,1.48,2.93,2.93,0,0,1-1.05,1,2.9,2.9,0,0,1-1.39.35,4.19,4.19,0,0,1-1-.12A4.31,4.31,0,0,1,66.63,206.21Zm2.08-.13a1.56,1.56,0,0,0,1.22-.55,2.37,2.37,0,0,0,.5-1.56,1.9,1.9,0,0,0-.47-1.45,1.62,1.62,0,0,0-1.19-.48,1.68,1.68,0,0,0-1.39.73v2.93A2.23,2.23,0,0,0,68,206,2.35,2.35,0,0,0,68.71,206.08Z"/><path class="cls-1" d="M77,205.76l.75.19v.36l-1.41.33-.13-.14v-.72l0,0a2.24,2.24,0,0,1-.71.66,1.64,1.64,0,0,1-.76.18,1.91,1.91,0,0,1-1.32-.47,1.83,1.83,0,0,1-.53-1.43v-1c0-.24,0-.47,0-.7s0-.44,0-.65l-.81-.17v-.36l1.47-.4.17.18c0,.24,0,.5,0,.76s0,.54,0,.83v1.37a1.41,1.41,0,0,0,.36,1.1,1.32,1.32,0,0,0,.93.32,1.52,1.52,0,0,0,1.32-.78v-1.42c0-.17,0-.35,0-.53s0-.34,0-.5a3.88,3.88,0,0,0,0-.4l-.87-.17v-.36l1.53-.4.14.16c0,.23,0,.44,0,.61s0,.33,0,.49V204c0,.51,0,.89,0,1.17S77,205.64,77,205.76Z"/><path class="cls-1" d="M82.66,206.64l-.13-.14v-.78h0a2.43,2.43,0,0,1-.75.68,1.61,1.61,0,0,1-.8.2,2.33,2.33,0,0,1-1.22-.31,2.28,2.28,0,0,1-.83-.86,2.62,2.62,0,0,1-.3-1.27,3.19,3.19,0,0,1,.2-1.13,2.66,2.66,0,0,1,.57-.89,2.87,2.87,0,0,1,.81-.58,2.48,2.48,0,0,1,1-.2,3.18,3.18,0,0,1,.74.09,1.55,1.55,0,0,1,.63.31v-.58c0-.25,0-.5,0-.77s0-.5,0-.7v-.4l-.94-.18,0-.36,1.58-.46.19.16q0,.74,0,1.44v4.18q0,.61,0,1c0,.3,0,.5,0,.62l.74.19v.36Zm-1.49-.72a1.57,1.57,0,0,0,.7-.16,2.24,2.24,0,0,0,.66-.58v-2.51a1.48,1.48,0,0,0-.62-.64,1.74,1.74,0,0,0-.75-.19,1.47,1.47,0,0,0-1.24.58,2.3,2.3,0,0,0-.44,1.47,2.09,2.09,0,0,0,.49,1.49A1.58,1.58,0,0,0,81.17,205.92Z"/><path class="cls-1" d="M84.81,206.52l0-.4.8-.17s0-.08,0-.15,0-.18,0-.36v-1.51c0-.36,0-.68,0-1s0-.51,0-.63l-.79-.17v-.36l1.54-.4.13.14c0,.25,0,.49,0,.72s0,.51,0,.82v1.5c0,.38,0,.7,0,.93s0,.39,0,.45l.79.17,0,.4ZM86,200a.67.67,0,0,1-.46-.18.59.59,0,0,1-.2-.45.62.62,0,0,1,.2-.45.67.67,0,0,1,.46-.18.63.63,0,0,1,.45.18.61.61,0,0,1,.19.45.58.58,0,0,1-.19.45A.63.63,0,0,1,86,200Z"/><path class="cls-1" d="M88,208.49l-.16-.3a1.7,1.7,0,0,0,.65-.48,1,1,0,0,0,.25-.69.68.68,0,0,0,0-.27,1.18,1.18,0,0,0-.13-.18l-.16-.16a.83.83,0,0,1-.13-.18.62.62,0,0,1-.06-.29.52.52,0,0,1,.16-.37.62.62,0,0,1,.78-.06.68.68,0,0,1,.25.32,1.13,1.13,0,0,1,.1.51,2.07,2.07,0,0,1-.2.86,3,3,0,0,1-.54.78A2.21,2.21,0,0,1,88,208.49Z"/><path class="cls-1" d="M94.64,200.14a1.08,1.08,0,0,0,0,.22c0,.13,0,.31,0,.55s0,.56,0,1v4.42a4,4,0,0,1-.22,1.44,1.76,1.76,0,0,1-.63.89,1.57,1.57,0,0,1-1,.3,1.55,1.55,0,0,1-.89-.25.69.69,0,0,1-.38-.56.37.37,0,0,1,.11-.27.46.46,0,0,1,.32-.11.72.72,0,0,1,.28.07,1,1,0,0,1,.27.22l.56.56-.34-.11a.72.72,0,0,0,.57-.11.87.87,0,0,0,.34-.53,3.65,3.65,0,0,0,.11-1v-5c0-.36,0-.66,0-.9s0-.43,0-.57a.72.72,0,0,0,0-.26L92.9,200l0-.41h2.42l0,.41Z"/><path class="cls-1" d="M98.22,206.62a1.74,1.74,0,0,1-.8-.18,1.67,1.67,0,0,1-.58-.46,1,1,0,0,1-.21-.62.86.86,0,0,1,.26-.63,2.33,2.33,0,0,1,.86-.46l1.79-.63V203a1,1,0,0,0-.18-.56,1.37,1.37,0,0,0-.49-.39,1.75,1.75,0,0,0-.7-.14.58.58,0,0,0-.43.13,1,1,0,0,0-.14.53l0,.43a1,1,0,0,1-.65,0,.38.38,0,0,1-.28-.38.63.63,0,0,1,.16-.38,2,2,0,0,1,.43-.37,2.89,2.89,0,0,1,.58-.3,2.83,2.83,0,0,1,.65-.17,1.92,1.92,0,0,1,1.32.45,1.5,1.5,0,0,1,.52,1.18l0,2.09c0,.12,0,.26,0,.42a1.42,1.42,0,0,0,0,.32l.75.15v.32l-.54.19-.27.09-.21,0c-.23,0-.37-.13-.43-.39l-.1-.45.15,0a3,3,0,0,1-.75.65A1.46,1.46,0,0,1,98.22,206.62Zm.25-.6a1.14,1.14,0,0,0,.56-.14,1.58,1.58,0,0,0,.51-.44v-1.26l-1.48.41a.74.74,0,0,0-.41.23.66.66,0,0,0-.12.41.73.73,0,0,0,.28.55A1,1,0,0,0,98.47,206Z"/><path class="cls-1" d="M101.89,206.52l0-.39.68-.18c0-.07,0-.19,0-.35s0-.39,0-.65,0-.59,0-1v-1.78c0-.3,0-.61,0-.94s0-.63,0-.92,0-.54,0-.74,0-.33,0-.39l-.88-.11,0-.34,1.53-.46.2.16c0,.27,0,.54,0,.81s0,.54,0,.82,0,.56,0,.86v3.9c0,.21,0,.39,0,.54s0,.27,0,.36,0,.15,0,.19l.73.18,0,.39Zm5,0H105.7c-.14-.2-.25-.34-.32-.43s-.15-.17-.23-.24L103.46,204h-.34v-.23l.49-.15,1.6-1.63-.78-.14,0-.41h2.31l0,.41L106,202l-2.15,2,.2-.39,1.61,1.71a4.7,4.7,0,0,0,.33.35c.13.13.25.25.36.34l.55.12Z"/><path class="cls-1" d="M109.28,206.62a1.77,1.77,0,0,1-.8-.18,1.55,1.55,0,0,1-.57-.46,1,1,0,0,1-.22-.62.86.86,0,0,1,.26-.63,2.47,2.47,0,0,1,.87-.46l1.79-.63V203a.9.9,0,0,0-.19-.56,1.29,1.29,0,0,0-.49-.39,1.71,1.71,0,0,0-.7-.14.59.59,0,0,0-.43.13,1.06,1.06,0,0,0-.14.53l0,.43a1,1,0,0,1-.65,0,.38.38,0,0,1-.27-.38.57.57,0,0,1,.16-.38,1.94,1.94,0,0,1,.42-.37,3.19,3.19,0,0,1,.58-.3,3,3,0,0,1,.65-.17,2,2,0,0,1,1.33.45,1.53,1.53,0,0,1,.52,1.18l0,2.09c0,.12,0,.26,0,.42a1,1,0,0,0,.06.32l.74.15v.32l-.53.19-.28.09a1,1,0,0,1-.21,0q-.34,0-.42-.39l-.11-.45.15,0a3,3,0,0,1-.75.65A1.46,1.46,0,0,1,109.28,206.62Zm.25-.6a1.11,1.11,0,0,0,.56-.14,1.72,1.72,0,0,0,.52-.44v-1.26l-1.48.41a.71.71,0,0,0-.41.23.67.67,0,0,0-.13.41.74.74,0,0,0,.29.55A1,1,0,0,0,109.53,206Z"/><path class="cls-1" d="M112.92,206.52l0-.39.74-.18s0-.11,0-.21,0-.24,0-.41v-1.59c0-.28,0-.55,0-.83s0-.47,0-.59l-.76-.17v-.36l1.45-.4.14.16-.06,1h0a2.63,2.63,0,0,1,.73-.94,1.27,1.27,0,0,1,.68-.24.69.69,0,0,1,.43.13.49.49,0,0,1,0,.75.81.81,0,0,1-.46.13.75.75,0,0,1-.38-.1,1.36,1.36,0,0,1-.34-.23l.18.08a1.91,1.91,0,0,0-.44.42,3.58,3.58,0,0,0-.39.68v1.15c0,.17,0,.36,0,.57s0,.39,0,.57a4.19,4.19,0,0,0,0,.42l1,.16,0,.41Z"/><path class="cls-1" d="M120.63,205.86a1.75,1.75,0,0,1-.6.55,1.7,1.7,0,0,1-1.9-.23,1.69,1.69,0,0,1-.45-1.28l0-2.88h-.83v-.21l1.39-1.34h.18l0,1.28v2.95a1.5,1.5,0,0,0,.27,1,1,1,0,0,0,.78.32,1.32,1.32,0,0,0,.53-.11,1.62,1.62,0,0,0,.43-.31ZM118.09,202v-.55h2.17V202Z"/><path class="cls-1" d="M122.86,206.62a1.74,1.74,0,0,1-.8-.18,1.58,1.58,0,0,1-.58-.46,1,1,0,0,1-.21-.62.86.86,0,0,1,.26-.63,2.3,2.3,0,0,1,.87-.46l1.78-.63V203a1,1,0,0,0-.18-.56,1.37,1.37,0,0,0-.49-.39,1.75,1.75,0,0,0-.7-.14.58.58,0,0,0-.43.13,1,1,0,0,0-.14.53l0,.43a1,1,0,0,1-.65,0,.38.38,0,0,1-.28-.38.63.63,0,0,1,.16-.38,2,2,0,0,1,.43-.37,2.89,2.89,0,0,1,.58-.3,2.83,2.83,0,0,1,.65-.17,1.92,1.92,0,0,1,1.32.45A1.5,1.5,0,0,1,125,203l0,2.09c0,.12,0,.26,0,.42a1.42,1.42,0,0,0,0,.32l.75.15v.32l-.54.19-.27.09-.21,0c-.23,0-.37-.13-.43-.39l-.1-.45.15,0a3,3,0,0,1-.75.65A1.46,1.46,0,0,1,122.86,206.62Zm.25-.6a1.14,1.14,0,0,0,.56-.14,1.58,1.58,0,0,0,.51-.44v-1.26l-1.48.41a.74.74,0,0,0-.41.23.66.66,0,0,0-.12.41.73.73,0,0,0,.28.55A1,1,0,0,0,123.11,206Z"/><path class="cls-1" d="M131,206.63a4.31,4.31,0,0,1-1.05-.13,3,3,0,0,1-.87-.31l-.06-1.47.44-.05.31,1a2.41,2.41,0,0,0,.65.3,2.71,2.71,0,0,0,.77.1,1.52,1.52,0,0,0,1-.29,1,1,0,0,0,.38-.82,1.08,1.08,0,0,0-.25-.71,2.41,2.41,0,0,0-.65-.49q-.39-.21-.84-.42a8.52,8.52,0,0,1-.84-.46,2.3,2.3,0,0,1-.65-.63,1.58,1.58,0,0,1-.25-.92,1.61,1.61,0,0,1,.31-1,2.15,2.15,0,0,1,.86-.67,3,3,0,0,1,1.24-.24,5.6,5.6,0,0,1,.6,0,3.74,3.74,0,0,1,.52.09,2.17,2.17,0,0,1,.43.14l.09,1.41-.44,0-.32-.95a1.76,1.76,0,0,0-1-.25,1.54,1.54,0,0,0-1,.31,1,1,0,0,0-.37.79,1.11,1.11,0,0,0,.25.74,2.41,2.41,0,0,0,.65.51c.27.15.55.29.84.43a6.72,6.72,0,0,1,.84.46,2.28,2.28,0,0,1,.66.61,1.47,1.47,0,0,1,.25.88,1.64,1.64,0,0,1-.31,1,2.16,2.16,0,0,1-.87.69A3.15,3.15,0,0,1,131,206.63Z"/><path class="cls-1" d="M136.8,206.62a2.43,2.43,0,0,1-1.2-.3,2.18,2.18,0,0,1-.86-.87,2.74,2.74,0,0,1-.32-1.36,3,3,0,0,1,.33-1.46,2.35,2.35,0,0,1,.88-.94,2.11,2.11,0,0,1,1.17-.32,1.79,1.79,0,0,1,1.39.59,2.54,2.54,0,0,1,.51,1.72v.2H135v-.5h3l-.12.12v-.21a1.64,1.64,0,0,0-.32-1.1,1.11,1.11,0,0,0-.88-.38,1.34,1.34,0,0,0-.69.2,1.5,1.5,0,0,0-.52.63,2.27,2.27,0,0,0-.2,1v.12a2.31,2.31,0,0,0,.48,1.56,1.6,1.6,0,0,0,1.25.56,1.66,1.66,0,0,0,.75-.17,2,2,0,0,0,.64-.54l.29.24a2.26,2.26,0,0,1-.82.88A2.11,2.11,0,0,1,136.8,206.62Z"/><path class="cls-1" d="M139.54,206.52l0-.4.77-.17a1.74,1.74,0,0,0,0-.38c0-.16,0-.4,0-.7s0-.7,0-1.18v-1.48c0-.3,0-.61,0-.94s0-.64,0-.93,0-.54,0-.74,0-.33,0-.38l-.87-.11,0-.34,1.54-.46.19.16c0,.34,0,.67,0,1s0,.7,0,1.11V204c0,.44,0,.85,0,1.22s0,.61,0,.73l.77.17,0,.4Z"/><path class="cls-1" d="M144.61,206.62a1.74,1.74,0,0,1-.8-.18,1.58,1.58,0,0,1-.58-.46,1,1,0,0,1-.21-.62.86.86,0,0,1,.26-.63,2.3,2.3,0,0,1,.87-.46l1.78-.63V203a1,1,0,0,0-.18-.56,1.37,1.37,0,0,0-.49-.39,1.75,1.75,0,0,0-.7-.14.58.58,0,0,0-.43.13,1,1,0,0,0-.14.53l0,.43a1,1,0,0,1-.65,0,.38.38,0,0,1-.28-.38.63.63,0,0,1,.16-.38,2,2,0,0,1,.43-.37,2.89,2.89,0,0,1,.58-.3,2.83,2.83,0,0,1,.65-.17,1.92,1.92,0,0,1,1.32.45,1.5,1.5,0,0,1,.52,1.18l0,2.09c0,.12,0,.26,0,.42a1.42,1.42,0,0,0,.05.32l.75.15v.32l-.54.19-.27.09-.21,0c-.23,0-.37-.13-.43-.39l-.1-.45.15,0a3,3,0,0,1-.75.65A1.46,1.46,0,0,1,144.61,206.62Zm.25-.6a1.14,1.14,0,0,0,.56-.14,1.58,1.58,0,0,0,.51-.44v-1.26l-1.48.41a.74.74,0,0,0-.41.23.66.66,0,0,0-.12.41.73.73,0,0,0,.28.55A1,1,0,0,0,144.86,206Z"/><path class="cls-1" d="M151.8,205.86a1.7,1.7,0,0,1-.61.55,1.55,1.55,0,0,1-.75.19,1.61,1.61,0,0,1-1.14-.42,1.69,1.69,0,0,1-.45-1.28l0-2.88h-.83v-.21l1.4-1.34h.18l0,1.28,0,2.95a1.5,1.5,0,0,0,.28,1,1,1,0,0,0,.78.32,1.36,1.36,0,0,0,.53-.11,1.62,1.62,0,0,0,.43-.31ZM149.26,202v-.55h2.17V202Z"/><path class="cls-1" d="M154,206.62a1.74,1.74,0,0,1-.8-.18,1.5,1.5,0,0,1-.58-.46,1,1,0,0,1-.21-.62.82.82,0,0,1,.26-.63,2.33,2.33,0,0,1,.86-.46l1.79-.63V203a1,1,0,0,0-.18-.56,1.37,1.37,0,0,0-.49-.39,1.75,1.75,0,0,0-.7-.14.61.61,0,0,0-.44.13,1,1,0,0,0-.13.53l0,.43a1,1,0,0,1-.66,0,.38.38,0,0,1-.27-.38.57.57,0,0,1,.16-.38,2,2,0,0,1,.43-.37,3,3,0,0,1,1.22-.47,1.93,1.93,0,0,1,1.33.45,1.53,1.53,0,0,1,.52,1.18l0,2.09a3.25,3.25,0,0,0,0,.42,1.42,1.42,0,0,0,0,.32l.75.15v.32l-.54.19-.28.09-.2,0c-.23,0-.37-.13-.43-.39l-.11-.45.16,0a3,3,0,0,1-.75.65A1.49,1.49,0,0,1,154,206.62Zm.24-.6a1.15,1.15,0,0,0,.57-.14,1.69,1.69,0,0,0,.51-.44v-1.26l-1.48.41a.71.71,0,0,0-.41.23.66.66,0,0,0-.12.41.73.73,0,0,0,.28.55A1,1,0,0,0,154.27,206Z"/><path class="cls-1" d="M157.64,206.52l0-.39.74-.18c0-.06,0-.14,0-.23s0-.22,0-.38v-.67l0-.92c0-.27,0-.54,0-.82s0-.49-.06-.61l-.76-.17v-.36l1.45-.4.17.18-.06.62h0a2.94,2.94,0,0,1,.83-.64,1.89,1.89,0,0,1,.85-.19,1.65,1.65,0,0,1,.8.21,1.58,1.58,0,0,1,.63.65,2.35,2.35,0,0,1,.24,1.14v1.34q0,.43,0,.78a2.58,2.58,0,0,0,0,.46l.73.18,0,.39h-2.22l0-.39.68-.18c0-.06,0-.13,0-.22s0-.19,0-.34v-1.94a1.65,1.65,0,0,0-.2-.87,1.13,1.13,0,0,0-.49-.46,1.32,1.32,0,0,0-.56-.14,1.46,1.46,0,0,0-.77.21,1.9,1.9,0,0,0-.62.58v1.8c0,.38,0,.69,0,.91s0,.38,0,.47l.73.18,0,.39Z"/><path class="cls-1" d="M164.11,208.49l-.16-.3a1.7,1.7,0,0,0,.65-.48,1,1,0,0,0,.25-.69.68.68,0,0,0,0-.27,1.18,1.18,0,0,0-.13-.18,1.21,1.21,0,0,0-.16-.16.83.83,0,0,1-.13-.18.62.62,0,0,1-.06-.29.49.49,0,0,1,.17-.37.54.54,0,0,1,.42-.17.56.56,0,0,1,.35.11.77.77,0,0,1,.26.32,1.29,1.29,0,0,1,.09.51,2.07,2.07,0,0,1-.2.86,2.79,2.79,0,0,1-.54.78A2.12,2.12,0,0,1,164.11,208.49Z"/><path class="cls-1" d="M170.89,204.27c0,.4,0,.71,0,.95s0,.42,0,.54,0,.19,0,.22l.94.15,0,.39H169.2l0-.39.91-.15s0-.15,0-.3,0-.34,0-.58,0-.51,0-.83v-2.55c0-.19,0-.39,0-.6s0-.41,0-.6l-1,.22,0-.45,1.85-.83c0,.21,0,.47,0,.78s0,.75,0,1.29Z"/><path class="cls-1" d="M173,206.54l-.05-.35a21,21,0,0,0,1.83-1.81,6,6,0,0,0,1-1.41,3,3,0,0,0,.3-1.28,1.55,1.55,0,0,0-.38-1.09,1.3,1.3,0,0,0-1-.42,1.87,1.87,0,0,0-1.64,1l-.28-.2a2.36,2.36,0,0,1,.85-1.08,2.14,2.14,0,0,1,1.28-.4,2.33,2.33,0,0,1,1.11.26,1.88,1.88,0,0,1,.75.7,2,2,0,0,1,.27,1.05,3.72,3.72,0,0,1-.8,2.1,11.69,11.69,0,0,1-2.43,2.36l.06-.19h2.82a.34.34,0,0,0,.14,0l.4-1,.4.05-.22,1.86-.33,0h-4Z"/><path class="cls-1" d="M182.55,202.4a2.17,2.17,0,0,1-.76.88,1.91,1.91,0,0,1-1.06.32,2.18,2.18,0,0,1-1-.25,2,2,0,0,1-.72-.69,1.85,1.85,0,0,1-.27-1,2.18,2.18,0,0,1,.29-1.07,2.3,2.3,0,0,1,.8-.81,2.17,2.17,0,0,1,1.16-.32,2.41,2.41,0,0,1,1.24.32,2.12,2.12,0,0,1,.82.88,3.12,3.12,0,0,1,.29,1.38,4.62,4.62,0,0,1-2.37,4.08,5.13,5.13,0,0,1-1.62.58l-.18-.47a4.89,4.89,0,0,0,1.76-.85A3.52,3.52,0,0,0,182,204a4.52,4.52,0,0,0,.37-1.89,3.51,3.51,0,0,0-.17-1.14,1.63,1.63,0,0,0-.51-.74,1.28,1.28,0,0,0-.82-.27,1.11,1.11,0,0,0-.89.41,1.56,1.56,0,0,0-.36,1.07,1.52,1.52,0,0,0,.4,1.07,1.39,1.39,0,0,0,1,.41,1.45,1.45,0,0,0,.55-.1,1.66,1.66,0,0,0,.49-.3,2.07,2.07,0,0,0,.42-.5Z"/><path class="cls-1" d="M186.91,202.79l0-.13a2.46,2.46,0,0,1,1.51.51,1.56,1.56,0,0,1,.56,1.25,1.8,1.8,0,0,1-.38,1.11,2.63,2.63,0,0,1-1,.8,3,3,0,0,1-1.32.3,3,3,0,0,1-.84-.11,1.38,1.38,0,0,1-.57-.29.62.62,0,0,1-.2-.44.4.4,0,0,1,.12-.29.38.38,0,0,1,.28-.12.76.76,0,0,1,.32.06,2,2,0,0,1,.36.25l.71.59-.62-.16A2.44,2.44,0,0,0,187,206a1.73,1.73,0,0,0,.81-.54,1.4,1.4,0,0,0,.29-.91,1.36,1.36,0,0,0-.42-1,1.65,1.65,0,0,0-1.15-.39h-.34l-.37,0-.05-.47a2.73,2.73,0,0,0,1.39-.47,1.21,1.21,0,0,0,.46-1,1,1,0,0,0-.34-.8,1.45,1.45,0,0,0-.94-.29,1.84,1.84,0,0,0-1.47.74l-.28-.21a2.09,2.09,0,0,1,.82-.9,2.29,2.29,0,0,1,1.21-.34,1.94,1.94,0,0,1,1.33.43,1.38,1.38,0,0,1,.5,1.1,1.56,1.56,0,0,1-.42,1.08A2.52,2.52,0,0,1,186.91,202.79Z"/><path class="cls-1" d="M193.06,206.63a2.42,2.42,0,0,1-1.45-.45,2.8,2.8,0,0,1-1-1.26,4.64,4.64,0,0,1-.34-1.86,4.54,4.54,0,0,1,.36-1.86,3.1,3.1,0,0,1,1-1.27,2.33,2.33,0,0,1,1.42-.47,2.16,2.16,0,0,1,1.36.45,2.92,2.92,0,0,1,.93,1.25,5.25,5.25,0,0,1,0,3.69,3.28,3.28,0,0,1-1,1.3A2.11,2.11,0,0,1,193.06,206.63Zm.05-.51a1.18,1.18,0,0,0,.86-.36,2.43,2.43,0,0,0,.58-1,4.76,4.76,0,0,0,.21-1.48,5.14,5.14,0,0,0-.48-2.43A1.44,1.44,0,0,0,193,200a1.41,1.41,0,0,0-1.26.76,4.15,4.15,0,0,0-.46,2.14,5.85,5.85,0,0,0,.23,1.71,2.61,2.61,0,0,0,.64,1.14A1.35,1.35,0,0,0,193.11,206.12Z"/><path class="cls-1" d="M118.86,152.26l-.43-.53c-.5-.61-12.2-15.08-12.2-25.25a12.66,12.66,0,0,1,25.31,0c0,11.36-11.72,24.71-12.22,25.27Z"/><path class="cls-2" d="M118.88,120a6.18,6.18,0,1,0,6.17,6.17A6.18,6.18,0,0,0,118.88,120Z"/><path class="cls-1" d="M49.9,61.71h3.15l3.59,8h-.36l3.43-8h3l0,.72-1.08.22c0,.14,0,.42,0,.83s0,.89,0,1.43l.09,3.1c0,.54,0,1,0,1.38s0,.69.05.93,0,.39,0,.48L63,71l0,.72H59L59,71,60,70.8a3.87,3.87,0,0,0,0-.42v-.82c0-.35,0-.8,0-1.36l0-6h.55l-4.13,9.6h-.74l-4.34-9.62H52L52,68v2c0,.41,0,.66,0,.76L53.2,71l-.05.72H49.66l0-.72,1.18-.24a4,4,0,0,0,0-.46c0-.23,0-.51,0-.86s0-.75,0-1.19l0-3.36c0-.56,0-1,0-1.42s0-.67,0-.84l-1.06-.24Z"/><path class="cls-1" d="M64.52,71.76l0-.72,1.06-.24a1.7,1.7,0,0,0,0-.41q0-.31,0-.87V64c0-.37,0-.67,0-.88a1.58,1.58,0,0,0,0-.4l-1.06-.24,0-.72h3.94l.05.72-1.06.24a1,1,0,0,0-.06.38c0,.2,0,.49,0,.85s0,.82,0,1.36v3c0,.52,0,1,0,1.32s0,.64,0,.85a1.08,1.08,0,0,0,.06.39l1.06.24-.05.72Z"/><path class="cls-1" d="M77.92,69.08V65.63c0-.64,0-1.17,0-1.59s0-.74,0-1a1.58,1.58,0,0,0-.05-.4l-1.16-.24,0-.72h3.37l0,.72-1.08.24s0,.18,0,.4,0,.55,0,1,0,.95,0,1.59v5c0,.39,0,.78,0,1.18h-.86l-6.49-8.3h.55v4.21c0,.66,0,1.21,0,1.65s0,.77,0,1,0,.37,0,.42l1.18.24,0,.72H70L70,71,71,70.8a1.82,1.82,0,0,0,0-.42c0-.23,0-.57,0-1s0-1,0-1.63V65c0-.46,0-.85,0-1.18s0-.6,0-.79a1.62,1.62,0,0,0,0-.38L70,62.43l0-.72h2.46l5.89,7.37Z"/><path class="cls-1" d="M87.24,71.92a6.69,6.69,0,0,1-2.85-.58,4.58,4.58,0,0,1-2-1.7,5.06,5.06,0,0,1-.73-2.77,5.35,5.35,0,0,1,.41-2.1,5.1,5.1,0,0,1,1.16-1.69A5.28,5.28,0,0,1,85.05,62a6.88,6.88,0,0,1,2.43-.4A9,9,0,0,1,89,61.7a5.93,5.93,0,0,1,1.36.41l.09,2.29-.84.07-.51-1.54a2.27,2.27,0,0,0-.84-.32,5.21,5.21,0,0,0-.93-.09,3.59,3.59,0,0,0-2,.52,3.1,3.1,0,0,0-1.16,1.43,5.26,5.26,0,0,0-.38,2,5.38,5.38,0,0,0,.5,2.4,3.46,3.46,0,0,0,3.23,2,4,4,0,0,0,.92-.12,2.62,2.62,0,0,0,.9-.39l-.38.94v-1.8c0-.33,0-.64,0-.92a5.81,5.81,0,0,0-.06-.65l-1.18-.21,0-.74h3.63l.05.71-.79.22c0,.07,0,.22,0,.44s0,.49,0,.79,0,.62,0,.88,0,.57,0,.89a6.2,6.2,0,0,1-1.63.69A7.27,7.27,0,0,1,87.24,71.92Z"/><path class="cls-1" d="M98.38,71.92a6.69,6.69,0,0,1-2.85-.58,4.5,4.5,0,0,1-2-1.7,5,5,0,0,1-.73-2.77,5.35,5.35,0,0,1,.41-2.1,5,5,0,0,1,1.16-1.69A5.18,5.18,0,0,1,96.2,62a6.79,6.79,0,0,1,2.42-.4,9.14,9.14,0,0,1,1.52.14,6.09,6.09,0,0,1,1.36.41l.09,2.29-.84.07-.52-1.54a2.27,2.27,0,0,0-.84-.32,5.19,5.19,0,0,0-.92-.09,3.56,3.56,0,0,0-2,.52,3.12,3.12,0,0,0-1.17,1.43,5.26,5.26,0,0,0-.37,2,5.38,5.38,0,0,0,.49,2.4,3.65,3.65,0,0,0,1.35,1.52,3.57,3.57,0,0,0,1.89.51,4.08,4.08,0,0,0,.92-.12,2.8,2.8,0,0,0,.9-.39l-.38.94v-1.8c0-.33,0-.64,0-.92a6.41,6.41,0,0,0,0-.65l-1.18-.21,0-.74h3.63l.05.71-.78.22a2.58,2.58,0,0,0,0,.44c0,.23,0,.49,0,.79s0,.62,0,.88,0,.57,0,.89a6.13,6.13,0,0,1-1.64.69A7.21,7.21,0,0,1,98.38,71.92Z"/><path class="cls-1" d="M103.86,61.71h3.92l0,.72-1.06.26c0,.07,0,.2,0,.38s0,.46,0,.8,0,.8,0,1.39v2.36a4.37,4.37,0,0,0,.34,1.72,2.11,2.11,0,0,0,.89,1,2.76,2.76,0,0,0,1.36.32,2.54,2.54,0,0,0,1.32-.33,2.08,2.08,0,0,0,.84-1,4.68,4.68,0,0,0,.29-1.79v-2c0-.54,0-1,0-1.43s0-.74,0-1a3.14,3.14,0,0,0,0-.45l-1.2-.26,0-.72H114l.05.72-1.06.26a2.75,2.75,0,0,0,0,.37c0,.21,0,.52,0,.92s0,.93,0,1.58v2.11A5.14,5.14,0,0,1,112.4,70a3.37,3.37,0,0,1-1.35,1.42,4,4,0,0,1-2,.47,4.18,4.18,0,0,1-3-1.06,4.06,4.06,0,0,1-1.08-3V65.26c0-.59,0-1.06,0-1.42s0-.64,0-.83a2.16,2.16,0,0,0,0-.32l-1.06-.26Z"/><path class="cls-1" d="M115.26,75,115,74.4a3,3,0,0,0,1.17-.8,1.54,1.54,0,0,0,.39-1,1,1,0,0,0-.11-.49,1.75,1.75,0,0,0-.28-.33l-.32-.29a1.23,1.23,0,0,1-.28-.35,1.1,1.1,0,0,1-.11-.51,1,1,0,0,1,.34-.76,1.17,1.17,0,0,1,.84-.32,1.3,1.3,0,0,1,.65.18,1.23,1.23,0,0,1,.5.57,2.3,2.3,0,0,1,.19,1,3.65,3.65,0,0,1-.32,1.48,4,4,0,0,1-.92,1.29A4.46,4.46,0,0,1,115.26,75Z"/><path class="cls-1" d="M128.93,69c0,.61,0,1,0,1.26s0,.41,0,.52l1.06.26,0,.7H125.9l-.05-.7,1.42-.26c0-.11,0-.28,0-.52V63.46l.29.1-3.47,4.62,0-.35h6.36V69h-7.58l-.14-.65,5.4-6.73H129c0,.41,0,.84,0,1.29s0,.9,0,1.37Z"/><path class="cls-1" d="M138.19,62.67a1.53,1.53,0,0,0-.06.37c0,.21,0,.5,0,.86s0,.81,0,1.34v6.32a5,5,0,0,1-.36,2,2.83,2.83,0,0,1-1,1.26,2.67,2.67,0,0,1-1.55.44,2.77,2.77,0,0,1-1.47-.38,1.06,1.06,0,0,1-.61-.91.69.69,0,0,1,.19-.51.71.71,0,0,1,.52-.19,1.44,1.44,0,0,1,.5.1,1.68,1.68,0,0,1,.5.36l1,1-.7-.26a1,1,0,0,0,.75-.12,1.11,1.11,0,0,0,.4-.7,6.56,6.56,0,0,0,.12-1.42v-7c0-.48,0-.89,0-1.25s0-.64,0-.87a1.94,1.94,0,0,0,0-.43l-1.18-.24,0-.72h4.06l.05.72Z"/><path class="cls-1" d="M139.88,71.76l0-.72.86-.24,3.51-8.73,1.13-.67,3.78,9.4L150,71l-.05.72h-3.8L146.1,71l1.06-.24-1-2.44-.19-.55-1.84-4.45.43-.12-1.66,4.57-.19.51-.87,2.48,1.06.24,0,.72Zm2.5-3.08v-1l.85,0,1.29,0,1.31,0,.83,0v1h-1l-1.12,0-1.07,0Z"/><path class="cls-1" d="M158.67,69.08V65.63c0-.64,0-1.17,0-1.59s0-.74,0-1a1.21,1.21,0,0,0-.05-.4l-1.16-.24,0-.72h3.37l.06.72-1.08.24s0,.18,0,.4,0,.55,0,1,0,.95,0,1.59v5c0,.39,0,.78,0,1.18h-.86l-6.49-8.3h.55v4.21c0,.66,0,1.21,0,1.65s0,.77,0,1,0,.37,0,.42l1.19.24-.06.72h-3.42l-.05-.72,1.06-.24a1.82,1.82,0,0,0,.05-.42c0-.23,0-.57,0-1s0-1,0-1.63V65c0-.46,0-.85,0-1.18s0-.6,0-.79a1.62,1.62,0,0,0-.05-.38l-1.06-.24.05-.72h2.46l5.89,7.37Z"/><path class="cls-1" d="M162.31,61.71h3.92l.05.72-1.06.26c0,.07,0,.2,0,.38s0,.46,0,.8,0,.8,0,1.39v2.36a4.37,4.37,0,0,0,.34,1.72,2.11,2.11,0,0,0,.89,1,2.79,2.79,0,0,0,1.36.32,2.54,2.54,0,0,0,1.32-.33,2.08,2.08,0,0,0,.84-1,4.68,4.68,0,0,0,.29-1.79v-2c0-.54,0-1,0-1.43s0-.74,0-1a2.1,2.1,0,0,0,0-.45l-1.2-.26.05-.72h3.47l.06.72-1.07.26a2.75,2.75,0,0,0,0,.37c0,.21,0,.52,0,.92v3.69a5.13,5.13,0,0,1-.49,2.36,3.37,3.37,0,0,1-1.35,1.42,4,4,0,0,1-2,.47,4.18,4.18,0,0,1-3-1.06,4.06,4.06,0,0,1-1.08-3V65.26c0-.59,0-1.06,0-1.42l0-.83a2.16,2.16,0,0,0,0-.32l-1.06-.26Z"/><path class="cls-1" d="M172.89,71.76l0-.72.86-.24,3.51-8.73,1.13-.67,3.78,9.4L183,71l0,.72h-3.8l0-.72,1.06-.24-1-2.44-.18-.55-1.84-4.45.43-.12-1.66,4.57-.19.51-.87,2.48,1.06.24,0,.72Zm2.5-3.08v-1l.85,0,1.29,0,1.3,0,.84,0v1h-1l-1.12,0-1.08,0Z"/><path class="cls-1" d="M183.78,71.76l0-.72,1.06-.25c0-.08,0-.21,0-.39s0-.38,0-.62,0-.49,0-.76V63.94q0-.55,0-.87a1.58,1.58,0,0,0-.05-.4l-1.08-.24,0-.72h4a4.47,4.47,0,0,1,2.61.63,2.14,2.14,0,0,1,.87,1.87,2.49,2.49,0,0,1-.48,1.5,3.26,3.26,0,0,1-1.33,1,4.73,4.73,0,0,1-1.94.37h-1.08V66.3h.89a2.22,2.22,0,0,0,1.56-.53,1.88,1.88,0,0,0,.56-1.45,1.73,1.73,0,0,0-.48-1.33,2,2,0,0,0-1.4-.46h-.89a.78.78,0,0,0,0,.19c0,.09,0,.23,0,.42v5.1c0,.43,0,.82,0,1.16s0,.63,0,.86,0,.41,0,.53l1,.25,0,.72Zm8.37.17a3.52,3.52,0,0,1-1.44-.28,3.35,3.35,0,0,1-1.2-.94A10,10,0,0,1,188.37,69l-1.09-2.1,1.45-.34,1.92,2.75a10.32,10.32,0,0,0,.81,1,2.75,2.75,0,0,0,1.57.89l0,.67-.42,0Z"/><path class="cls-1" d="M193.71,71.76l-.05-.72,1.06-.24a1.29,1.29,0,0,0,.05-.41c0-.21,0-.5,0-.87s0-.79,0-1.28v-3c0-.51,0-.94,0-1.31s0-.67,0-.88a1.21,1.21,0,0,0-.05-.4l-1.06-.24.05-.72h3.94l0,.72-1.06.24a1.79,1.79,0,0,0-.06.38c0,.2,0,.49,0,.85s0,.82,0,1.36v3c0,.52,0,1,0,1.32s0,.64,0,.85a2,2,0,0,0,.06.39l1.06.24,0,.72Z"/><path class="cls-1" d="M202.56,71.8l-.05-.71A26.6,26.6,0,0,0,205,68.7a8.52,8.52,0,0,0,1.37-2,4.24,4.24,0,0,0,.42-1.78,2.1,2.1,0,0,0-.51-1.47,1.77,1.77,0,0,0-1.39-.55,2.49,2.49,0,0,0-2.21,1.33l-.57-.39a3.68,3.68,0,0,1,1.33-1.7,3.7,3.7,0,0,1,3.67-.23A2.71,2.71,0,0,1,208.27,63a3,3,0,0,1,.41,1.58,4.92,4.92,0,0,1-1.16,2.93,14.51,14.51,0,0,1-3.38,3l0-.24h3.39l.41,0,.33-.05.55-1.35.82.08-.46,2.86a5.51,5.51,0,0,0-.61,0l-.67,0h-4.72Z"/><path class="cls-1" d="M215.37,71.92a3.94,3.94,0,0,1-2.22-.65,4.13,4.13,0,0,1-1.49-1.79,6.9,6.9,0,0,1,0-5.4,4.46,4.46,0,0,1,1.53-1.85,3.71,3.71,0,0,1,2.19-.67,3.61,3.61,0,0,1,2.1.63A4.18,4.18,0,0,1,218.93,64a6.39,6.39,0,0,1,.52,2.67,6.46,6.46,0,0,1-.54,2.69,4.69,4.69,0,0,1-1.47,1.89A3.3,3.3,0,0,1,215.37,71.92Zm.12-1a1.52,1.52,0,0,0,1.1-.44,3.08,3.08,0,0,0,.72-1.31,7.55,7.55,0,0,0,.25-2.1,7.36,7.36,0,0,0-.64-3.36,1.89,1.89,0,0,0-1.67-1.24,1.79,1.79,0,0,0-1.6,1,6.06,6.06,0,0,0-.59,2.95,7.94,7.94,0,0,0,.31,2.36,3.78,3.78,0,0,0,.85,1.57A1.74,1.74,0,0,0,215.49,70.92Z"/><path class="cls-1" d="M221,71.8l-.05-.71a25.19,25.19,0,0,0,2.52-2.39,8.22,8.22,0,0,0,1.37-2,4.24,4.24,0,0,0,.42-1.78,2.1,2.1,0,0,0-.5-1.47,1.79,1.79,0,0,0-1.4-.55,2.48,2.48,0,0,0-2.2,1.33l-.57-.39a3.68,3.68,0,0,1,1.33-1.7,3.7,3.7,0,0,1,3.67-.23A2.77,2.77,0,0,1,226.73,63a3,3,0,0,1,.4,1.58A4.9,4.9,0,0,1,226,67.5a14.51,14.51,0,0,1-3.38,3l0-.24H226l.41,0,.33-.05.54-1.35.83.08-.47,2.86a5.32,5.32,0,0,0-.6,0l-.67,0h-4.73Z"/><path class="cls-1" d="M231.26,67.48a4.2,4.2,0,0,1,1.21-1.27,2.51,2.51,0,0,1,1.46-.49,2.78,2.78,0,0,1,1.47.38,2.78,2.78,0,0,1,1.42,2.5,3.1,3.1,0,0,1-.46,1.66,3.38,3.38,0,0,1-1.25,1.21,3.47,3.47,0,0,1-1.76.45,3.55,3.55,0,0,1-1.89-.5,3.36,3.36,0,0,1-1.27-1.37,4.38,4.38,0,0,1-.45-2,6.3,6.3,0,0,1,1.66-4.33,7.08,7.08,0,0,1,2-1.48,8.4,8.4,0,0,1,2.57-.8l.28.86a7.31,7.31,0,0,0-2.58,1.16,4.65,4.65,0,0,0-1.54,1.92,6.8,6.8,0,0,0-.51,2.74,4.47,4.47,0,0,0,.24,1.53,2.41,2.41,0,0,0,.65,1,1.52,1.52,0,0,0,1,.38,1.4,1.4,0,0,0,1.13-.55,2.18,2.18,0,0,0,.44-1.39,2.21,2.21,0,0,0-.49-1.51,1.62,1.62,0,0,0-1.29-.56,2.08,2.08,0,0,0-.78.15,2,2,0,0,0-.67.41,3.45,3.45,0,0,0-.54.6Z"/><path class="cls-1" d="M49.57,85.07l0-.42.67-.15a1.06,1.06,0,0,0,0-.18c0-.09,0-.26,0-.49V80.29c0-.41,0-.73,0-1s0-.37,0-.46,0-.14,0-.16l-.73-.18,0-.42h2.39a2.7,2.7,0,0,1,1.73.52,1.76,1.76,0,0,1,.64,1.47A1.91,1.91,0,0,1,54,81.25a2.13,2.13,0,0,1-.89.73,2.76,2.76,0,0,1-1.19.26,4.12,4.12,0,0,1-.51,0l-.45-.07v-.58a3.78,3.78,0,0,0,.52.11,2.83,2.83,0,0,0,.41,0A1.75,1.75,0,0,0,53,81.36a1.38,1.38,0,0,0,.41-1.1,1.49,1.49,0,0,0-1.57-1.66h-.72v.33c0,.18,0,.38,0,.62s0,.49,0,.74v2.55c0,.43,0,.75,0,1s0,.38,0,.47a1.58,1.58,0,0,1,0,.19l1,.15,0,.44Z"/><path class="cls-1" d="M60.06,84.31l.74.19v.36l-1.41.33L59.26,85l0-.72h0a2.14,2.14,0,0,1-.71.66,1.61,1.61,0,0,1-.76.18,1.91,1.91,0,0,1-1.31-.47,1.83,1.83,0,0,1-.54-1.44v-1c0-.23,0-.47,0-.69s0-.44,0-.66l-.8-.16v-.36l1.47-.4.16.18c0,.24,0,.49,0,.75s0,.54,0,.83v1.38a1.41,1.41,0,0,0,.36,1.1,1.36,1.36,0,0,0,.93.32,1.47,1.47,0,0,0,.68-.18,1.63,1.63,0,0,0,.63-.6v-2c0-.18,0-.35,0-.5a3.79,3.79,0,0,0,0-.41l-.86-.16v-.36l1.53-.4.14.15c0,.24,0,.44,0,.61s0,.34,0,.5v1.36c0,.5,0,.89,0,1.16S60.05,84.19,60.06,84.31Z"/><path class="cls-1" d="M61.62,85.07l0-.39.67-.18a2.67,2.67,0,0,0,0-.36c0-.16,0-.38,0-.65s0-.59,0-1V80.76c0-.3,0-.62,0-.94s0-.63,0-.92,0-.54,0-.74,0-.33,0-.39l-.87-.12,0-.33,1.53-.46.2.15c0,.28,0,.55,0,.82s0,.54,0,.82,0,.56,0,.86v3.9c0,.21,0,.38,0,.53s0,.27,0,.36a1.82,1.82,0,0,1,0,.2l.73.18,0,.39Zm5,0H65.44l-.33-.43-.23-.25L63.2,82.57h-.35v-.24l.49-.14L65,80.55l-.78-.14,0-.4H66.5l0,.4-.79.14-2.15,2,.2-.39,1.61,1.72.33.34.36.35.55.12Z"/><path class="cls-1" d="M71.88,84.31l.75.19v.36l-1.41.33L71.09,85v-.72h0a2.22,2.22,0,0,1-.7.66,1.68,1.68,0,0,1-.77.18,1.91,1.91,0,0,1-1.31-.47,1.83,1.83,0,0,1-.54-1.44v-1c0-.23,0-.47,0-.69s0-.44,0-.66l-.81-.16v-.36l1.47-.4.17.18,0,.75c0,.27,0,.54,0,.83v1.38a1.41,1.41,0,0,0,.36,1.1,1.36,1.36,0,0,0,.93.32,1.54,1.54,0,0,0,.69-.18,1.68,1.68,0,0,0,.62-.6v-2c0-.18,0-.35,0-.5a3.79,3.79,0,0,0,0-.41l-.86-.16v-.36l1.53-.4.14.15c0,.24,0,.44,0,.61v1.86c0,.5,0,.89,0,1.16S71.87,84.19,71.88,84.31Z"/><path class="cls-1" d="M73.35,85.07l0-.4.78-.17a3.32,3.32,0,0,0,0-.38c0-.17,0-.4,0-.7V79.81c0-.32,0-.63,0-.93s0-.53,0-.74v-.37l-.88-.12,0-.33,1.54-.46.19.15,0,1c0,.33,0,.7,0,1.11v3.41c0,.45,0,.85,0,1.23s0,.61,0,.73l.77.17,0,.4Z"/><path class="cls-1" d="M81.75,85.17a2.36,2.36,0,0,1-1.45-.45,2.77,2.77,0,0,1-1-1.25A4.71,4.71,0,0,1,79,81.61a4.54,4.54,0,0,1,.36-1.86,3.1,3.1,0,0,1,1-1.27A2.27,2.27,0,0,1,81.77,78a2.18,2.18,0,0,1,1.36.45,2.89,2.89,0,0,1,.93,1.24,4.81,4.81,0,0,1,.33,1.85,4.71,4.71,0,0,1-.34,1.84,3.32,3.32,0,0,1-1,1.31A2.17,2.17,0,0,1,81.75,85.17Zm0-.5a1.2,1.2,0,0,0,.86-.36,2.5,2.5,0,0,0,.58-1,4.78,4.78,0,0,0,.21-1.49A5.12,5.12,0,0,0,83,79.41a1.42,1.42,0,0,0-1.28-.89,1.39,1.39,0,0,0-1.26.76A4.12,4.12,0,0,0,80,81.42a5.85,5.85,0,0,0,.23,1.71,2.57,2.57,0,0,0,.64,1.13A1.32,1.32,0,0,0,81.8,84.67Z"/><path class="cls-1" d="M88.19,85.17a2.79,2.79,0,0,1-1.2-.23,1.9,1.9,0,0,1-.79-.65,1.69,1.69,0,0,1,.18-2.09,2.44,2.44,0,0,1,1.24-.66l.43.13a2.42,2.42,0,0,0-1,.73,1.43,1.43,0,0,0-.3.87,1.35,1.35,0,0,0,.4,1,1.58,1.58,0,0,0,1.19.41,1.55,1.55,0,0,0,1-.3,1.05,1.05,0,0,0,.37-.86,1.17,1.17,0,0,0-.25-.77,2.15,2.15,0,0,0-.66-.51c-.27-.14-.55-.27-.86-.4a6.2,6.2,0,0,1-.85-.44,2,2,0,0,1-.66-.61,1.63,1.63,0,0,1-.25-.94,1.57,1.57,0,0,1,.28-.93,1.94,1.94,0,0,1,.76-.65A2.54,2.54,0,0,1,88.3,78a2.26,2.26,0,0,1,1,.22,1.85,1.85,0,0,1,.73.62,1.49,1.49,0,0,1,.26.88A1.85,1.85,0,0,1,90,80.82a2.65,2.65,0,0,1-.91.77l-.28-.16a2.61,2.61,0,0,0,.56-.75,2,2,0,0,0,.17-.82,1.43,1.43,0,0,0-.34-1,1.28,1.28,0,0,0-1-.38,1.24,1.24,0,0,0-.85.3,1,1,0,0,0-.35.83,1.2,1.2,0,0,0,.25.78,2.18,2.18,0,0,0,.66.52c.28.14.56.28.86.41a7.66,7.66,0,0,1,.86.43,2.23,2.23,0,0,1,.67.58,1.47,1.47,0,0,1,.26.89,1.83,1.83,0,0,1-.29,1,2,2,0,0,1-.83.7A2.88,2.88,0,0,1,88.19,85.17Z"/><path class="cls-1" d="M92.62,85.19a.66.66,0,0,1-.47-.18.61.61,0,0,1-.18-.45.69.69,0,0,1,.08-.32.66.66,0,0,1,.23-.21.63.63,0,0,1,.33-.09.61.61,0,0,1,.47.18.6.6,0,0,1,.18.44.61.61,0,0,1-.18.45A.6.6,0,0,1,92.62,85.19Z"/><path class="cls-1" d="M97,85.17a2.33,2.33,0,0,1-1.44-.45,2.86,2.86,0,0,1-1-1.25,4.71,4.71,0,0,1-.34-1.86,4.54,4.54,0,0,1,.36-1.86,3.19,3.19,0,0,1,1-1.27A2.3,2.3,0,0,1,97.07,78a2.2,2.2,0,0,1,1.36.45,3,3,0,0,1,.92,1.24,4.81,4.81,0,0,1,.33,1.85,4.71,4.71,0,0,1-.34,1.84,3.32,3.32,0,0,1-1,1.31A2.15,2.15,0,0,1,97,85.17Zm0-.5a1.18,1.18,0,0,0,.86-.36,2.39,2.39,0,0,0,.58-1,4.5,4.5,0,0,0,.22-1.49,5.12,5.12,0,0,0-.48-2.42A1.43,1.43,0,0,0,97,78.52a1.4,1.4,0,0,0-1.26.76,4.23,4.23,0,0,0-.46,2.14,5.85,5.85,0,0,0,.23,1.71,2.57,2.57,0,0,0,.64,1.13A1.33,1.33,0,0,0,97.09,84.67Z"/><path class="cls-1" d="M103.77,85.17a2.36,2.36,0,0,1-1.45-.45,2.84,2.84,0,0,1-1-1.25,4.71,4.71,0,0,1-.34-1.86,4.54,4.54,0,0,1,.36-1.86,3.1,3.1,0,0,1,1-1.27,2.27,2.27,0,0,1,1.42-.47,2.21,2.21,0,0,1,1.37.45,3,3,0,0,1,.92,1.24,4.81,4.81,0,0,1,.33,1.85,4.71,4.71,0,0,1-.34,1.84,3.32,3.32,0,0,1-.95,1.31A2.15,2.15,0,0,1,103.77,85.17Zm0-.5a1.18,1.18,0,0,0,.86-.36,2.39,2.39,0,0,0,.58-1,4.77,4.77,0,0,0,.22-1.49,5.12,5.12,0,0,0-.48-2.42,1.43,1.43,0,0,0-1.29-.89,1.39,1.39,0,0,0-1.26.76,4.23,4.23,0,0,0-.46,2.14,5.85,5.85,0,0,0,.23,1.71,2.57,2.57,0,0,0,.64,1.13A1.32,1.32,0,0,0,103.82,84.67Z"/><path class="cls-1" d="M115.08,79.7l-2.14,5.4h-.47l-2.42-6.42-.59-.15,0-.42h2.12l0,.42-.59.14L113,84h-.15l2-5.22Zm1.63,5.4-2.37-6.42-.6-.15,0-.42H116l0,.42-.71.14L117.22,84h-.17L119,78.68l-.84-.15,0-.42h2.12l0,.42-.6.15-2.52,6.42Z"/><path class="cls-1" d="M121,85.07l0-.42.71-.15a.72.72,0,0,0,0-.26c0-.14,0-.32,0-.56V79.5c0-.24,0-.43,0-.57a.62.62,0,0,0,0-.25l-.71-.15,0-.42h2.33l0,.42-.72.15a1.23,1.23,0,0,0,0,.22c0,.11,0,.29,0,.54s0,.56,0,1v2.37c0,.4,0,.72,0,1s0,.43,0,.54a1.23,1.23,0,0,0,0,.22l.72.15,0,.42Z"/><path class="cls-1" d="M125.24,84.5a5.21,5.21,0,0,0,0-.55c0-.31,0-.69,0-1.17V80.41c0-.52,0-.93,0-1.24a4,4,0,0,0,0-.53l-.73-.1,0-.43h2.67a2.93,2.93,0,0,1,1.73.44,1.42,1.42,0,0,1,.6,1.24,1.44,1.44,0,0,1-.5,1.1,2.16,2.16,0,0,1-1.29.52l-.2-.08a3,3,0,0,1,1.74.47,1.52,1.52,0,0,1,.6,1.28,1.66,1.66,0,0,1-.79,1.44,3.64,3.64,0,0,1-2.12.55h-2.44l0-.42Zm.9-1.53c0,.36,0,.68,0,1s0,.47,0,.54l.43,0,.42,0a2.61,2.61,0,0,0,1.49-.34,1.18,1.18,0,0,0,.48-1,1.23,1.23,0,0,0-.51-1.07,2.61,2.61,0,0,0-1.51-.36h-.71a1.23,1.23,0,0,0-.29,0v-.57l.46,0h.48a2.07,2.07,0,0,0,1.28-.35,1.2,1.2,0,0,0,.45-1,1.12,1.12,0,0,0-.42-1,1.85,1.85,0,0,0-1.17-.33h-.89c0,.06,0,.24,0,.55V83Z"/><path class="cls-1" d="M133.68,83v-.71l2.43-.32v.71Z"/><path class="cls-1" d="M142,85.17a4.68,4.68,0,0,1-1-.12,3.34,3.34,0,0,1-.87-.31L140,83.27l.43,0,.31,1a2.93,2.93,0,0,0,.65.29,2.76,2.76,0,0,0,.77.11,1.5,1.5,0,0,0,1-.3,1,1,0,0,0,.37-.81,1,1,0,0,0-.25-.71,2.35,2.35,0,0,0-.64-.49l-.84-.42a6.72,6.72,0,0,1-.84-.46,2.21,2.21,0,0,1-.66-.63,1.76,1.76,0,0,1,.06-1.9,2.07,2.07,0,0,1,.86-.67,3.1,3.1,0,0,1,1.25-.24,5.41,5.41,0,0,1,.59,0l.53.08a2.41,2.41,0,0,1,.43.15l.08,1.41-.44,0-.32-.94a1.72,1.72,0,0,0-1-.25,1.52,1.52,0,0,0-1,.31,1,1,0,0,0-.38.79,1.06,1.06,0,0,0,.25.73,2.34,2.34,0,0,0,.66.52c.26.14.54.29.84.42a8.6,8.6,0,0,1,.84.47,2.37,2.37,0,0,1,.65.61,1.44,1.44,0,0,1,.25.87,1.65,1.65,0,0,1-.31,1,2.2,2.2,0,0,1-.86.69A3.16,3.16,0,0,1,142,85.17Z"/><path class="cls-1" d="M147.81,85.16a2.53,2.53,0,0,1-1.2-.29,2.25,2.25,0,0,1-.86-.87,2.76,2.76,0,0,1-.32-1.36,2.89,2.89,0,0,1,.34-1.46,2.4,2.4,0,0,1,.87-.94,2.14,2.14,0,0,1,1.17-.33,1.79,1.79,0,0,1,1.39.6,2.52,2.52,0,0,1,.51,1.72v.2H146v-.5h3l-.12.12v-.22a1.61,1.61,0,0,0-.33-1.09,1.09,1.09,0,0,0-.88-.39,1.23,1.23,0,0,0-.68.21,1.55,1.55,0,0,0-.53.62,2.49,2.49,0,0,0-.2,1v.11a2.29,2.29,0,0,0,.49,1.57,1.55,1.55,0,0,0,1.24.55,1.7,1.7,0,0,0,.76-.16,2,2,0,0,0,.64-.55l.28.25a2.19,2.19,0,0,1-.82.88A2.08,2.08,0,0,1,147.81,85.16Z"/><path class="cls-1" d="M150.55,85.07l0-.4.77-.17c0-.09,0-.21,0-.38s0-.4,0-.7V79.81c0-.32,0-.63,0-.93s0-.53,0-.74,0-.32,0-.37l-.88-.12,0-.33,1.54-.46.19.15,0,1c0,.33,0,.7,0,1.11s0,.89,0,1.46v2c0,.45,0,.85,0,1.23s0,.61,0,.73l.77.17,0,.4Z"/><path class="cls-1" d="M156.17,85.16a2.55,2.55,0,0,1-1.21-.29,2.16,2.16,0,0,1-.85-.87,2.66,2.66,0,0,1-.33-1.36,3,3,0,0,1,.34-1.46,2.4,2.4,0,0,1,.87-.94,2.17,2.17,0,0,1,1.18-.33,1.78,1.78,0,0,1,1.38.6,2.52,2.52,0,0,1,.51,1.72v.2h-3.68v-.5h3l-.12.12v-.22a1.61,1.61,0,0,0-.33-1.09,1.08,1.08,0,0,0-.88-.39,1.23,1.23,0,0,0-.68.21,1.55,1.55,0,0,0-.53.62,2.49,2.49,0,0,0-.2,1v.11a2.29,2.29,0,0,0,.49,1.57,1.57,1.57,0,0,0,1.24.55,1.67,1.67,0,0,0,.76-.16,2,2,0,0,0,.64-.55l.28.25a2.24,2.24,0,0,1-.81.88A2.13,2.13,0,0,1,156.17,85.16Z"/><path class="cls-1" d="M160.86,85.16a3.47,3.47,0,0,1-.85-.1,3.28,3.28,0,0,1-.73-.26l-.06-1.24h.54l.22.86a1.59,1.59,0,0,0,1,.29,1.11,1.11,0,0,0,.67-.2.67.67,0,0,0,.28-.57.78.78,0,0,0-.24-.57,3.22,3.22,0,0,0-.89-.52,4.14,4.14,0,0,1-1.16-.7,1.12,1.12,0,0,1-.34-.85,1.17,1.17,0,0,1,.23-.72,1.56,1.56,0,0,1,.67-.49,2.48,2.48,0,0,1,1-.18,4.87,4.87,0,0,1,.65,0,2.4,2.4,0,0,1,.56.14l.13,1.2H162l-.29-.79a1.1,1.1,0,0,0-.29-.12,2,2,0,0,0-.37,0,1.1,1.1,0,0,0-.68.2.65.65,0,0,0-.26.54.77.77,0,0,0,.27.6,4.94,4.94,0,0,0,1,.56,3.65,3.65,0,0,1,1.09.7,1.22,1.22,0,0,1-.22,1.82A2.18,2.18,0,0,1,160.86,85.16Z"/><path class="cls-1" d="M165.61,85.16a1.91,1.91,0,0,1-.8-.17,1.69,1.69,0,0,1-.58-.47,1,1,0,0,1-.21-.61.87.87,0,0,1,.26-.64,2.17,2.17,0,0,1,.87-.45l1.78-.63v-.65a.94.94,0,0,0-.18-.56,1.37,1.37,0,0,0-.49-.39,1.75,1.75,0,0,0-.7-.14.54.54,0,0,0-.43.13.94.94,0,0,0-.14.53l0,.43a1,1,0,0,1-.65,0,.38.38,0,0,1-.28-.38.61.61,0,0,1,.16-.38,2,2,0,0,1,.43-.37,2.89,2.89,0,0,1,.58-.3,3,3,0,0,1,.65-.18,1.93,1.93,0,0,1,1.32.46,1.5,1.5,0,0,1,.52,1.18l0,2.08c0,.13,0,.27,0,.43a1.42,1.42,0,0,0,.05.32l.75.14v.32L168,85l-.28.1-.21,0c-.23,0-.37-.13-.43-.39l-.1-.45h.15a3.27,3.27,0,0,1-.75.65A1.55,1.55,0,0,1,165.61,85.16Zm.25-.59a1.25,1.25,0,0,0,.56-.14,1.71,1.71,0,0,0,.51-.44V82.72l-1.48.42a.63.63,0,0,0-.4.23.59.59,0,0,0-.13.41.74.74,0,0,0,.28.54A1,1,0,0,0,165.86,84.57Z"/><path class="cls-1" d="M169.17,85.07l0-.4.79-.17a.49.49,0,0,0,0-.15c0-.07,0-.19,0-.37s0-.43,0-.76v-.75c0-.35,0-.68,0-1s0-.51,0-.64l-.8-.16v-.36l1.54-.4.13.14c0,.25,0,.48,0,.72s0,.51,0,.82v1.49c0,.39,0,.7,0,.94s0,.39,0,.45l.8.17,0,.4Zm1.19-6.58a.69.69,0,0,1-.46-.17.61.61,0,0,1,0-.9.67.67,0,0,1,.91,0,.63.63,0,0,1,0,.9A.68.68,0,0,1,170.36,78.49Z"/><path class="cls-1" d="M12.23,56.53A1.25,1.25,0,0,0,11,57.77v3.44a1.24,1.24,0,0,0,2.48,0V57.77A1.24,1.24,0,0,0,12.23,56.53Z"/><path class="cls-1" d="M25,56.53a1.24,1.24,0,0,0-1.24,1.24v3.44a1.24,1.24,0,1,0,2.48,0V57.77A1.25,1.25,0,0,0,25,56.53Z"/><path class="cls-1" d="M37.24,66.11V63.36a3.15,3.15,0,0,0-3.15-3.15H27.68v1a2.67,2.67,0,1,1-5.34,0v-1H14.9v1a2.67,2.67,0,1,1-5.33,0v-1H3.15A3.15,3.15,0,0,0,0,63.36v2.75Z"/><path class="cls-1" d="M0,67.54V81.91a3.16,3.16,0,0,0,3.15,3.16H34.09a3.16,3.16,0,0,0,3.15-3.16V67.54Z"/><path class="cls-2" d="M5,70.53a.49.49,0,0,0-.49.49V72.5A.49.49,0,0,0,5,73H6.44a.49.49,0,0,0,.49-.49V71a.49.49,0,0,0-.49-.49Z"/><path class="cls-2" d="M10.12,70.53a.49.49,0,0,0-.49.49V72.5a.49.49,0,0,0,.49.49h1.49a.49.49,0,0,0,.49-.49V71a.49.49,0,0,0-.49-.49Z"/><path class="cls-2" d="M15.29,70.53a.49.49,0,0,0-.49.49V72.5a.49.49,0,0,0,.49.49h1.49a.49.49,0,0,0,.49-.49V71a.49.49,0,0,0-.49-.49Z"/><path class="cls-2" d="M20.46,70.53A.49.49,0,0,0,20,71V72.5a.49.49,0,0,0,.49.49H22a.49.49,0,0,0,.49-.49V71a.49.49,0,0,0-.49-.49Z"/><path class="cls-2" d="M25.64,70.53a.49.49,0,0,0-.49.49V72.5a.49.49,0,0,0,.49.49h1.48a.49.49,0,0,0,.49-.49V71a.49.49,0,0,0-.49-.49Z"/><path class="cls-2" d="M30.81,70.53a.49.49,0,0,0-.49.49V72.5a.49.49,0,0,0,.49.49h1.48a.49.49,0,0,0,.49-.49V71a.49.49,0,0,0-.49-.49Z"/><path class="cls-2" d="M5,74.85a.49.49,0,0,0-.49.49v1.48a.49.49,0,0,0,.49.49H6.44a.49.49,0,0,0,.49-.49V75.34a.49.49,0,0,0-.49-.49Z"/><path class="cls-2" d="M10.12,74.85a.49.49,0,0,0-.49.49v1.48a.49.49,0,0,0,.49.49h1.49a.49.49,0,0,0,.49-.49V75.34a.49.49,0,0,0-.49-.49Z"/><path class="cls-2" d="M15.29,74.85a.49.49,0,0,0-.49.49v1.48a.49.49,0,0,0,.49.49h1.49a.49.49,0,0,0,.49-.49V75.34a.49.49,0,0,0-.49-.49Z"/><path class="cls-2" d="M20.46,74.85a.49.49,0,0,0-.49.49v1.48a.49.49,0,0,0,.49.49H22a.49.49,0,0,0,.49-.49V75.34a.49.49,0,0,0-.49-.49Z"/><path class="cls-2" d="M25.64,74.85a.49.49,0,0,0-.49.49v1.48a.49.49,0,0,0,.49.49h1.48a.49.49,0,0,0,.49-.49V75.34a.49.49,0,0,0-.49-.49Z"/><path class="cls-2" d="M30.81,74.85a.49.49,0,0,0-.49.49v1.48a.49.49,0,0,0,.49.49h1.48a.49.49,0,0,0,.49-.49V75.34a.49.49,0,0,0-.49-.49Z"/><path class="cls-2" d="M5,79.17a.49.49,0,0,0-.49.49v1.49a.49.49,0,0,0,.49.49H6.44a.49.49,0,0,0,.49-.49V79.66a.49.49,0,0,0-.49-.49Z"/><path class="cls-2" d="M10.12,79.17a.49.49,0,0,0-.49.49v1.49a.49.49,0,0,0,.49.49h1.49a.49.49,0,0,0,.49-.49V79.66a.49.49,0,0,0-.49-.49Z"/><path class="cls-2" d="M15.29,79.17a.49.49,0,0,0-.49.49v1.49a.49.49,0,0,0,.49.49h1.49a.49.49,0,0,0,.49-.49V79.66a.49.49,0,0,0-.49-.49Z"/><path class="cls-2" d="M20.46,79.17a.49.49,0,0,0-.49.49v1.49a.49.49,0,0,0,.49.49H22a.49.49,0,0,0,.49-.49V79.66a.49.49,0,0,0-.49-.49Z"/><path class="cls-2" d="M25.64,79.17a.49.49,0,0,0-.49.49v1.49a.49.49,0,0,0,.49.49h1.48a.49.49,0,0,0,.49-.49V79.66a.49.49,0,0,0-.49-.49Z"/><path class="cls-2" d="M30.81,79.17a.49.49,0,0,0-.49.49v1.49a.49.49,0,0,0,.49.49h1.48a.49.49,0,0,0,.49-.49V79.66a.49.49,0,0,0-.49-.49Z"/></g></g></svg>