<svg xmlns="http://www.w3.org/2000/svg" viewBox="0 0 236.82 209.1"><defs><style>.cls-1{fill:#f2f3eb;}.cls-2{fill:#b69991;}</style></defs><g id="Layer_2" data-name="Layer 2"><g id="Layer_1-2" data-name="Layer 1"><path class="cls-1" d="M89.22,15.68a4.76,4.76,0,0,1,3.06.95,8.48,8.48,0,0,0,2.34-2.46A10.19,10.19,0,0,0,96,11a9.35,9.35,0,0,0,.12-3.5,6.63,6.63,0,0,0-1.46-3.24,29.53,29.53,0,0,0-4.07,5.41c-1.25,2.09-2.48,4.24-3.68,6.47s-2.45,4.42-3.73,6.58a35.32,35.32,0,0,1-4.27,5.83,20.15,20.15,0,0,1-5.23,4.15A13.49,13.49,0,0,1,67,34.23a7.33,7.33,0,0,1-2.49-.43,6.19,6.19,0,0,1-2.12-1.26,6.43,6.43,0,0,1-1.49-2,6.15,6.15,0,0,1-.57-2.7,5.22,5.22,0,0,1,.46-2.14,6.12,6.12,0,0,1,5.71-3.75,5.78,5.78,0,0,1,3.7,1,3.49,3.49,0,0,1,1.35,2.19,3.14,3.14,0,0,1-.5,2.2,2.13,2.13,0,0,1-1.86,1,1.31,1.31,0,0,1-.8-.25,1,1,0,0,1-.34-.85,1,1,0,0,1,.41-.8,1.74,1.74,0,0,1,1-.29,1.17,1.17,0,0,0,1.12-.55,1.33,1.33,0,0,0,0-1.24,3,3,0,0,0-1.28-1.23,5.33,5.33,0,0,0-2.65-.55,5.87,5.87,0,0,0-2.2.43,5.77,5.77,0,0,0-1.8,1.17,5.49,5.49,0,0,0-1.21,1.74A4.94,4.94,0,0,0,61,28a5.06,5.06,0,0,0,.57,2.4A6.22,6.22,0,0,0,63,32.2a6.5,6.5,0,0,0,1.94,1.16,5.61,5.61,0,0,0,2,.41,7.86,7.86,0,0,0,4.84-1.69,23.33,23.33,0,0,0,4.32-4.38,62.91,62.91,0,0,0,4.09-6.08q2-3.39,4.11-6.79c1.4-2.27,2.87-4.43,4.39-6.47A27.39,27.39,0,0,1,93.66,3.2a10.7,10.7,0,0,0-3.59-1.94A16.91,16.91,0,0,0,84.61.5a24.79,24.79,0,0,0-5.72.71A17.91,17.91,0,0,0,73.5,3.43a13.09,13.09,0,0,0-4,3.84,9.7,9.7,0,0,0-1.58,5.57,7.88,7.88,0,0,0,.44,2.65,6.5,6.5,0,0,0,1.23,2.15,5.71,5.71,0,0,0,2,1.44,6.23,6.23,0,0,0,2.58.53,5.35,5.35,0,0,0,2.65-.69A9.16,9.16,0,0,0,79,17.21,9.64,9.64,0,0,0,80.56,15a7.63,7.63,0,0,0,.76-2.38,8.37,8.37,0,0,0,0-2.45,5.28,5.28,0,0,0-.71-1.94,4,4,0,0,0-1.3-1.28,3.53,3.53,0,0,0-1.79-.46A4.14,4.14,0,0,0,75,7.22a5.24,5.24,0,0,0-1.67,2.06,7.11,7.11,0,0,0-.61,2.92,9.34,9.34,0,0,0,.61,3.38c.06.16,0,.26-.13.3s-.31-.08-.46-.39a7.15,7.15,0,0,1-.8-3.38,7.57,7.57,0,0,1,.71-3.18A6.23,6.23,0,0,1,74.6,6.58a4.69,4.69,0,0,1,2.88-.91,4.32,4.32,0,0,1,2.15.54A4.62,4.62,0,0,1,81.2,7.72a6.44,6.44,0,0,1,.87,2.22,8.18,8.18,0,0,1,.07,2.67,9.32,9.32,0,0,1-.82,2.59,9.18,9.18,0,0,1-1.72,2.46,8.68,8.68,0,0,1-2.51,1.83,7.25,7.25,0,0,1-3.22.71,8.74,8.74,0,0,1-3.2-.59A8.51,8.51,0,0,1,68.06,18a7.13,7.13,0,0,1-1.73-2.33,6.54,6.54,0,0,1-.64-2.86,9.46,9.46,0,0,1,1.69-5.6,14.24,14.24,0,0,1,4.38-4,21.32,21.32,0,0,1,6-2.42A27.44,27.44,0,0,1,84.2,0a30.34,30.34,0,0,1,5.46.53A15.82,15.82,0,0,1,94.8,2.38a12.7,12.7,0,0,1,4.39-2c.12,0,.19,0,.2.14s0,.2-.07.23A13.68,13.68,0,0,0,95.8,3a8.52,8.52,0,0,1,3.13,3.77A7.43,7.43,0,0,1,99.37,11a8.3,8.3,0,0,1-2,3.91,10.17,10.17,0,0,1-4.18,2.74,6.12,6.12,0,0,1,.8,3.63,14.2,14.2,0,0,1-1,4.37,16.87,16.87,0,0,0-.8,2.71A9.78,9.78,0,0,0,92,30.94a3.69,3.69,0,0,0,.48,1.87,1.43,1.43,0,0,0,1.34.73,2.68,2.68,0,0,0,1.33-.38,7.67,7.67,0,0,0,1.44-1.1c.5-.47,1-1,1.62-1.67l1.92-2.1c.52-.55,1-1.06,1.39-1.53s.77-.88,1.08-1.21.68-.76,1-1.1h.87c-1.37,1.59-2.58,3-3.61,4.21s-2,2.23-2.84,3.06a12.5,12.5,0,0,1-2.4,1.87,4.46,4.46,0,0,1-2.26.64,3.54,3.54,0,0,1-2.24-.75,4.27,4.27,0,0,1-1.39-2.15A8.5,8.5,0,0,1,89.41,28a15.29,15.29,0,0,1,1.18-4.39,17.85,17.85,0,0,0,.83-2.76,5.87,5.87,0,0,0,0-2.63,5.86,5.86,0,0,1-.77.14l-.87.09a2.44,2.44,0,0,1-1.76-.37A1.31,1.31,0,0,1,87.49,17a1.24,1.24,0,0,1,.41-.91A1.77,1.77,0,0,1,89.22,15.68Zm-.13.68a1.25,1.25,0,0,0-.78.21.59.59,0,0,0-.28.48.67.67,0,0,0,.28.5,1.35,1.35,0,0,0,.87.23,4,4,0,0,0,1-.14,6.45,6.45,0,0,0,.94-.32,2.22,2.22,0,0,0-.89-.73A2.88,2.88,0,0,0,89.09,16.36Z"/><path class="cls-1" d="M113.49,22.26a3.81,3.81,0,0,1-1.17,1.41,10.69,10.69,0,0,1-2,1.28,22.89,22.89,0,0,1-2.53,1.1c-.92.34-1.83.64-2.74.91a7.64,7.64,0,0,0-.35,2.31,5.11,5.11,0,0,0,.37,1.88,3,3,0,0,0,1,1.25,2.32,2.32,0,0,0,1.44.46,5.74,5.74,0,0,0,1.92-.37,10,10,0,0,0,2.42-1.32A30.71,30.71,0,0,0,115,28.54c1.19-1.11,2.56-2.54,4.12-4.27h.82a55.83,55.83,0,0,1-4.21,4.57,27.88,27.88,0,0,1-3.54,2.92,13.7,13.7,0,0,1-3,1.58,7.15,7.15,0,0,1-2.42.48,4.79,4.79,0,0,1-2.88-.85,4.74,4.74,0,0,1-1.71-2.21,6.23,6.23,0,0,1-.28-3.11,8.38,8.38,0,0,1,1.49-3.52,15,15,0,0,1,3.77-3.91,7.07,7.07,0,0,1,4-1.39,3.46,3.46,0,0,1,1.21.21,2.24,2.24,0,0,1,1,.63,1.9,1.9,0,0,1,.46,1.08A3.24,3.24,0,0,1,113.49,22.26Zm-8.27,4A16.59,16.59,0,0,0,110,24.09a5.28,5.28,0,0,0,2.19-2.75,1.73,1.73,0,0,0,0-1.44,1,1,0,0,0-.82-.48,2.82,2.82,0,0,0-1.76.78,11.87,11.87,0,0,0-1.79,1.87,22.55,22.55,0,0,0-1.53,2.27A15.88,15.88,0,0,0,105.22,26.28Z"/><path class="cls-1" d="M124.59,18.6a3.15,3.15,0,0,1,1-.64,2.76,2.76,0,0,1,.91-.18c.52,0,.83.17.92.5a.44.44,0,0,1-.16.48,1.1,1.1,0,0,1-.8.25h-.37a1.13,1.13,0,0,1-.41-.09c-.33-.09-.59.09-.78.55a6.31,6.31,0,0,0-.36,1.76c-.06.72-.09,1.47-.09,2.26s0,1.49,0,2.1a7.83,7.83,0,0,1-1.14,4.53c.76-.67,1.61-1.46,2.54-2.38s2-2,3.08-3.29h.83a49.82,49.82,0,0,1-5.08,5.37,22.74,22.74,0,0,1-4.07,3,7.4,7.4,0,0,1-1.91.87,7.49,7.49,0,0,1-2.24.32,4.12,4.12,0,0,1-3.07-1,3.43,3.43,0,0,1-1-2.17,3.37,3.37,0,0,1,.55-2.17,1.93,1.93,0,0,1,1.69-1A1.3,1.3,0,0,1,116,29.11a1.46,1.46,0,0,1-.48,1,1.38,1.38,0,0,1-.94.39,1.3,1.3,0,0,1-.73-.21,1.94,1.94,0,0,1-.55-.52,2.37,2.37,0,0,0-.18,1.28,2.52,2.52,0,0,0,.48,1.16,2.79,2.79,0,0,0,1,.85,3.23,3.23,0,0,0,1.46.32,3.74,3.74,0,0,0,2.12-.69,7.86,7.86,0,0,0,1.88-1.78,11.51,11.51,0,0,0,1.44-2.51,11.18,11.18,0,0,0,.77-2.88,13.28,13.28,0,0,1,.83-3.34A9.66,9.66,0,0,1,124.28,20c-.83.7-1.67,1.48-2.52,2.33s-1.57,1.59-2.15,2.2h-.86c.36-.43.78-.9,1.25-1.42s1-1,1.51-1.55l1.6-1.56C123.64,19.45,124.14,19,124.59,18.6Z"/><path class="cls-1" d="M138.85,22.26a3.87,3.87,0,0,1-1.16,1.41,11.38,11.38,0,0,1-2,1.28,23.07,23.07,0,0,1-2.54,1.1c-.91.34-1.83.64-2.74.91a7.31,7.31,0,0,0-.34,2.31,4.92,4.92,0,0,0,.36,1.88,3,3,0,0,0,1,1.25,2.32,2.32,0,0,0,1.44.46,5.74,5.74,0,0,0,1.92-.37,10,10,0,0,0,2.42-1.32,29.66,29.66,0,0,0,3.16-2.63c1.19-1.11,2.56-2.54,4.11-4.27h.82a54.15,54.15,0,0,1-4.2,4.57,27.88,27.88,0,0,1-3.54,2.92,14.18,14.18,0,0,1-2.95,1.58,7.2,7.2,0,0,1-2.42.48,4.79,4.79,0,0,1-2.88-.85,4.69,4.69,0,0,1-1.72-2.21,6.12,6.12,0,0,1-.27-3.11,8.36,8.36,0,0,1,1.48-3.52,15.06,15.06,0,0,1,3.78-3.91,7,7,0,0,1,4-1.39,3.56,3.56,0,0,1,1.22.21,2.24,2.24,0,0,1,1,.63,1.89,1.89,0,0,1,.45,1.08A3,3,0,0,1,138.85,22.26Zm-8.27,4a16.67,16.67,0,0,0,4.76-2.19,5.39,5.39,0,0,0,2.19-2.75,1.72,1.72,0,0,0-.05-1.44.94.94,0,0,0-.82-.48,2.84,2.84,0,0,0-1.76.78,11.83,11.83,0,0,0-1.78,1.87,19.62,19.62,0,0,0-1.53,2.27A14.82,14.82,0,0,0,130.58,26.28Z"/><path class="cls-1" d="M144,24.5l10.42-11.93h2.88l-7.5,12.15c.79-1,1.5-1.82,2.13-2.53a17.5,17.5,0,0,1,1.74-1.78,6,6,0,0,1,1.53-1.05,3.47,3.47,0,0,1,1.5-.35,2.75,2.75,0,0,1,1.51.44,2.51,2.51,0,0,1,1,1.28,4,4,0,0,1,.09,2.1,8.74,8.74,0,0,1-1.23,2.9l-2.47,4a3.28,3.28,0,0,0-.64,2.47c.18.61.52.91,1,.91a3.8,3.8,0,0,0,2.42-1.3c.92-.87,2.17-2.15,3.75-3.86.43-.49.83-.94,1.21-1.35s.71-.78,1-1.12.64-.71.91-1.05h.87l-3.59,4.16a39.92,39.92,0,0,1-2.74,2.93,13.07,13.07,0,0,1-2.17,1.71,3.68,3.68,0,0,1-1.88.57,2.34,2.34,0,0,1-1.48-.53,2.86,2.86,0,0,1-.94-1.48,5.06,5.06,0,0,1,0-2.33,9.57,9.57,0,0,1,1.33-3.06l2.05-3.34a3.28,3.28,0,0,0,.69-2.47c-.18-.61-.49-.91-.91-.91A3.81,3.81,0,0,0,154,21.12q-1.4,1.41-3.31,3.74-.92,1.09-4.25,6.29t-9,14.1h-2.88L154,14.17,144.89,24.5Z"/><path class="cls-1" d="M171,18.6a3.12,3.12,0,0,1,1-.64,2.77,2.77,0,0,1,.92-.18c.52,0,.82.17.91.5a.44.44,0,0,1-.16.48,1.08,1.08,0,0,1-.8.25h-.36a1.09,1.09,0,0,1-.41-.09c-.34-.09-.6.09-.78.55a6.28,6.28,0,0,0-.37,1.76c-.06.72-.09,1.47-.09,2.26s0,1.49.05,2.1a7.76,7.76,0,0,1-1.15,4.53c.77-.67,1.61-1.46,2.54-2.38s2-2,3.09-3.29h.82a50.87,50.87,0,0,1-5.07,5.37,23.1,23.1,0,0,1-4.07,3,7.62,7.62,0,0,1-1.92.87,7.44,7.44,0,0,1-2.24.32,4.11,4.11,0,0,1-3.06-1,3.43,3.43,0,0,1-1-2.17,3.37,3.37,0,0,1,.54-2.17,1.94,1.94,0,0,1,1.7-1,1.28,1.28,0,0,1,1,.41,1.25,1.25,0,0,1,.34,1,1.46,1.46,0,0,1-.48,1,1.38,1.38,0,0,1-.94.39,1.32,1.32,0,0,1-.73-.21,2.08,2.08,0,0,1-.55-.52,2.37,2.37,0,0,0-.18,1.28,2.52,2.52,0,0,0,.48,1.16,2.79,2.79,0,0,0,1,.85,3.27,3.27,0,0,0,1.46.32,3.79,3.79,0,0,0,2.13-.69,7.83,7.83,0,0,0,1.87-1.78,11.51,11.51,0,0,0,1.44-2.51,10.82,10.82,0,0,0,.78-2.88,12.87,12.87,0,0,1,.82-3.34A10.06,10.06,0,0,1,170.71,20c-.82.7-1.66,1.48-2.51,2.33s-1.58,1.59-2.15,2.2h-.87c.36-.43.78-.9,1.26-1.42s1-1,1.5-1.55l1.6-1.56C170.08,19.45,170.57,19,171,18.6Z"/><path class="cls-1" d="M175.19,33.82a2.27,2.27,0,0,1-1.6-.59,3,3,0,0,1-.85-1.63,5.32,5.32,0,0,1,.12-2.35,10,10,0,0,1,1.23-2.83L178.71,19h2.88l-6.54,10.74a3.33,3.33,0,0,0-.64,2.47c.18.61.52.91,1,.91a3.83,3.83,0,0,0,2.42-1.3c.91-.87,2.16-2.15,3.75-3.86.42-.49.82-.94,1.21-1.35s.7-.78,1-1.12.64-.71.91-1.05h.87L182,28.61a39.92,39.92,0,0,1-2.74,2.93,13.07,13.07,0,0,1-2.17,1.71A3.65,3.65,0,0,1,175.19,33.82ZM180.85,14a1.58,1.58,0,0,1,.46-1.11,1.48,1.48,0,0,1,1.14-.49,1.5,1.5,0,0,1,1.12.49,1.57,1.57,0,0,1,0,2.26,1.58,1.58,0,0,1-1.12.45,1.56,1.56,0,0,1-1.14-.45A1.59,1.59,0,0,1,180.85,14Z"/><path class="cls-1" d="M2.21,175.82l0-.72,1.06-.24a5.51,5.51,0,0,0,0-.79c0-.44,0-1,0-1.78v-3c0-.5,0-.94,0-1.31s0-.66,0-.88a2,2,0,0,0,0-.39l-1.07-.24.06-.72H6.13l0,.72-1.06.24a1.67,1.67,0,0,0-.06.38c0,.21,0,.5,0,.86s0,.82,0,1.34v3c0,.74,0,1.34,0,1.78s0,.71,0,.79l1,.24,0,.72Zm5.43,0,0-.72,1-.17a4.56,4.56,0,0,0-.27-.39,4.14,4.14,0,0,0-.38-.45l-2.47-2.86h-.7v-.69l.86-.2,3.52-3.65-1.06-.2.05-.72h3.46l.05.75-1,.17-4,3.73,0-.58,3.27,3.73c.21.24.4.45.54.63s.28.32.39.43a3,3,0,0,1,.26.28l.88.17v.74Z"/><path class="cls-1" d="M20.29,175.9c-.32,0-.64-.06-1-.07H12.55l-.05-.72,1.08-.24a1.89,1.89,0,0,0,.05-.41c0-.22,0-.51,0-.88s0-.79,0-1.28v-3c0-.5,0-.94,0-1.31s0-.66,0-.88a1.4,1.4,0,0,0-.05-.39l-1.08-.24.05-.72H18.6l.7,0,.68,0,.36,2.34-.82.12-.6-1.45-.34-.05-.36,0H15.9a3.6,3.6,0,0,0-.49,0c0,.06,0,.19,0,.39s0,.45,0,.73,0,.58,0,.88V173c0,.28,0,.54,0,.78s0,.46,0,.65,0,.32,0,.4l.54,0,.68,0h2.06l.36,0,.23,0,.91-1.65.82.16Zm-2-3.58-.19-1.14a1.14,1.14,0,0,0-.33-.05,4.19,4.19,0,0,0-.53,0H16.08a4.35,4.35,0,0,0-.5,0l-.51,0v-1l.51,0h2.21l.33,0,.19-1.18h.78v3.35Z"/><path class="cls-1" d="M22.23,165.77h4.33a6.36,6.36,0,0,1,4.24,1.29,4.48,4.48,0,0,1,1.53,3.62,4.88,4.88,0,0,1-2.68,4.48,6.17,6.17,0,0,1-2.9.66H22.23l-.06-.72,1.07-.24a4.77,4.77,0,0,0,.07-.88c0-.49,0-1,0-1.69v-3c0-.7,0-1.28,0-1.75a3.78,3.78,0,0,0-.07-.83l-1.07-.24Zm2.87,1c0,.09,0,.23,0,.43s0,.46,0,.79,0,.78,0,1.33v3c0,.33,0,.65,0,1s0,.59,0,.84,0,.45,0,.61c.33.05.64.09.92.11a7.65,7.65,0,0,0,.81.05,3.4,3.4,0,0,0,2.58-.93,3.82,3.82,0,0,0,.88-2.75,6.61,6.61,0,0,0-.27-2,3.84,3.84,0,0,0-.8-1.42,3.27,3.27,0,0,0-1.25-.85,4.46,4.46,0,0,0-1.65-.28l-.61,0A4,4,0,0,0,25.1,166.76Z"/><path class="cls-1" d="M34,175.82,34,175.1l1.06-.24a1.4,1.4,0,0,0,0-.41c0-.22,0-.51,0-.88s0-.79,0-1.28v-3c0-.5,0-.94,0-1.31s0-.66,0-.88a1.08,1.08,0,0,0,0-.39L34,166.49l.05-.72H38l0,.72-1.06.24a1.65,1.65,0,0,0-.06.37c0,.21,0,.49,0,.86s0,.81,0,1.35v3c0,.52,0,1,0,1.33s0,.64,0,.84a2.27,2.27,0,0,0,.06.4l1.06.24,0,.72Z"/><path class="cls-1" d="M38.73,175.82l0-.72.85-.24,3.51-8.73,1.13-.67,3.79,9.4.87.24-.05.72H45l0-.72,1.06-.24-1-2.45-.19-.55L43,167.41l.43-.12-1.66,4.57-.19.52-.87,2.48,1.06.24,0,.72Zm2.5-3.09v-1l.85,0h2.59l.84,0v1l-1,0-1.11,0-1.08,0Z"/><path class="cls-1" d="M49.71,165.77h3.15l3.59,8h-.36l3.43-8h3l.05.72-1.08.22c0,.13,0,.41,0,.82s0,.89,0,1.44l.09,3.1c0,.53,0,1,0,1.38s0,.69,0,.92,0,.4,0,.49l1.06.24,0,.72H58.83l0-.72,1.06-.24a4.1,4.1,0,0,0,0-.43v-.81c0-.35,0-.81,0-1.37l0-6h.54l-4.12,9.61h-.74l-4.35-9.62h.64v5.83c0,.94,0,1.61,0,2s0,.65,0,.76l1.18.24,0,.72H49.47l-.06-.72,1.19-.24a4.17,4.17,0,0,0,0-.46q0-.35,0-.87c0-.35,0-.74,0-1.19l.06-3.35c0-.56,0-1,0-1.43v-.83l-1.07-.24Z"/><path class="cls-1" d="M63.57,175.82l0-.72.86-.24,3.5-8.73,1.13-.67,3.79,9.4.87.24,0,.72h-3.8l0-.72,1.06-.24-1-2.45-.18-.55-1.84-4.45.43-.12-1.66,4.57-.19.52-.87,2.48,1.06.24,0,.72Zm2.5-3.09v-1l.85,0h2.59l.84,0v1l-1,0-1.12,0-1.08,0Z"/><path class="cls-1" d="M82.35,173.13v-3.44c0-.64,0-1.17,0-1.6s0-.74,0-1a1.16,1.16,0,0,0,0-.4l-1.16-.24,0-.72h3.37l0,.72-1.07.24s0,.18,0,.4,0,.54,0,1,0,1,0,1.6v5c0,.39,0,.79,0,1.18h-.86l-6.49-8.3h.55v4.21c0,.67,0,1.22,0,1.66s0,.77,0,1,0,.36,0,.42l1.18.24-.05.72H74.43l-.05-.72,1.06-.24a1.94,1.94,0,0,0,0-.43c0-.23,0-.56,0-1s0-1,0-1.64v-2.72c0-.46,0-.85,0-1.18s0-.59,0-.79a1.5,1.5,0,0,0,0-.37l-1.06-.24.05-.72h2.46l5.89,7.36Z"/><path class="cls-1" d="M89.49,165.77h3.15l3.6,8h-.36l3.42-8h3l0,.72-1.08.22c0,.13,0,.41,0,.82s0,.89,0,1.44l.09,3.1c0,.53,0,1,0,1.38s0,.69,0,.92,0,.4,0,.49l1.06.24,0,.72H98.62l-.05-.72,1.06-.24a4.1,4.1,0,0,0,0-.43v-.81c0-.35,0-.81,0-1.37l0-6h.54L96,175.87h-.74l-4.35-9.62h.64v5.83c0,.94,0,1.61,0,2s0,.65,0,.76l1.18.24,0,.72h-3.5l0-.72,1.18-.24a3.52,3.52,0,0,0,0-.46c0-.23,0-.52,0-.87s0-.74,0-1.19l0-3.35c0-.56,0-1,0-1.43s0-.66,0-.83l-1.06-.24Z"/><path class="cls-1" d="M111.84,175.9c-.32,0-.64-.06-1-.07H104.1l0-.72,1.08-.24a1.89,1.89,0,0,0,.05-.41c0-.22,0-.51,0-.88s0-.79,0-1.28v-3c0-.5,0-.94,0-1.31s0-.66,0-.88a1.4,1.4,0,0,0-.05-.39l-1.08-.24,0-.72h6l.7,0,.69,0,.36,2.34-.82.12-.6-1.45-.35-.05-.35,0h-2.32a3.6,3.6,0,0,0-.49,0c0,.06,0,.19,0,.39s0,.45,0,.73,0,.58,0,.88V173c0,.28,0,.54,0,.78s0,.46,0,.65,0,.32,0,.4l.54,0,.67,0h2.07l.36,0,.23,0,.9-1.65.83.16Zm-2-3.58-.19-1.14a1.06,1.06,0,0,0-.32-.05,4.27,4.27,0,0,0-.53,0h-1.18a4.26,4.26,0,0,0-.5,0l-.52,0v-1l.52,0h2.21l.32,0,.19-1.18h.79v3.35Z"/><path class="cls-1" d="M113.91,165.77h3.15l3.59,8h-.36l3.43-8h3l0,.72-1.08.22c0,.13,0,.41,0,.82s0,.89,0,1.44l.08,3.1c0,.53,0,1,0,1.38s0,.69.05.92,0,.4,0,.49l1.06.24,0,.72H123l0-.72,1.06-.24a2.44,2.44,0,0,0,0-.43v-.81c0-.35,0-.81,0-1.37l0-6h.55l-4.13,9.61h-.73l-4.35-9.62H116l0,5.83c0,.94,0,1.61,0,2s0,.65,0,.76l1.18.24,0,.72h-3.49l0-.72,1.18-.24a4.17,4.17,0,0,0,0-.46q0-.35,0-.87c0-.35,0-.74,0-1.19l0-3.35c0-.56,0-1,0-1.43s0-.66,0-.83l-1.06-.24Z"/><path class="cls-1" d="M128.6,175.82l0-.72,1-.24a1.27,1.27,0,0,0,.05-.34c0-.17,0-.44,0-.79s0-.81,0-1.35v-3.24c0-.54,0-1,0-1.31s0-.6,0-.78a1.08,1.08,0,0,0,0-.32l-1.06-.24.05-.72h3.85a4.54,4.54,0,0,1,2.81.74,2.56,2.56,0,0,1,1,2.17,2.87,2.87,0,0,1-.49,1.66,3.35,3.35,0,0,1-1.36,1.12,4.53,4.53,0,0,1-2,.4c-.22,0-.44,0-.65,0s-.42-.05-.61-.09v-1a5.15,5.15,0,0,0,.62.16,3.08,3.08,0,0,0,.61.06,1.82,1.82,0,0,0,2-2,2,2,0,0,0-2.19-2.31h-.77c0,.07,0,.22,0,.46s0,.54,0,.89,0,.75,0,1.2l0,3.24c0,.54,0,1,0,1.34s0,.61,0,.79a2.37,2.37,0,0,0,0,.33l1.4.22-.05.76Z"/><path class="cls-1" d="M145.31,175.9c-.32,0-.64-.06-1-.07h-6.78l0-.72,1.08-.24a1.89,1.89,0,0,0,.05-.41c0-.22,0-.51,0-.88s0-.79,0-1.28v-3c0-.5,0-.94,0-1.31s0-.66,0-.88a1.4,1.4,0,0,0-.05-.39l-1.08-.24,0-.72h6l.71,0,.68,0,.36,2.34-.82.12-.6-1.45-.34-.05-.36,0h-2.32a3.6,3.6,0,0,0-.49,0c0,.06,0,.19,0,.39s0,.45,0,.73,0,.58,0,.88V173c0,.28,0,.54,0,.78s0,.46,0,.65,0,.32,0,.4l.54,0,.67,0h2.07l.36,0,.23,0,.91-1.65.82.16Zm-2-3.58-.19-1.14a1,1,0,0,0-.32-.05,4.27,4.27,0,0,0-.53,0H141.1a4.26,4.26,0,0,0-.5,0l-.51,0v-1l.51,0h2.21l.32,0,.19-1.18h.79v3.35Z"/><path class="cls-1" d="M154.62,175.9l-.66-.05-.71,0h-6l0-.72,1.06-.24q0-.09,0-.42c0-.22,0-.52,0-.88s0-.79,0-1.27V168c0-.36,0-.65,0-.88a1.58,1.58,0,0,0-.05-.4l-1.06-.25,0-.72h4.31l.06.75-1.43.22a1.24,1.24,0,0,0,0,.36c0,.21,0,.49,0,.86s0,.81,0,1.35v3c0,.62,0,1.14,0,1.57s0,.71,0,.84a4.53,4.53,0,0,0,.53.05,6.43,6.43,0,0,0,.65,0h1.07l.67,0,.52-.06.93-1.73.86.19Z"/><path class="cls-1" d="M155.43,175.82l0-.72.86-.24,3.51-8.73,1.13-.67,3.78,9.4.88.24-.06.72h-3.8l-.05-.72,1.06-.24-1-2.45-.19-.55-1.83-4.45.43-.12-1.67,4.57-.18.52-.88,2.48,1.06.24,0,.72Zm2.5-3.09v-1l.84,0h2.6l.84,0v1l-1,0-1.11,0-1.08,0Z"/><path class="cls-1" d="M166.26,175.82l0-.72,1.06-.24a1.69,1.69,0,0,0,.06-.41c0-.22,0-.51,0-.88s0-.79,0-1.28v-3c0-.5,0-.94,0-1.31s0-.66,0-.88a1.25,1.25,0,0,0-.06-.39l-1.06-.24,0-.72h3.94l.05.72-1.06.24a1.65,1.65,0,0,0-.06.37c0,.21,0,.49,0,.86s0,.81,0,1.35v3c0,.52,0,1,0,1.33s0,.64,0,.84a2.27,2.27,0,0,0,.06.4l1.06.24-.05.72Z"/><path class="cls-1" d="M182.63,168.52l-3,7.35h-.79l-3.67-9.14-.85-.24,0-.72H178l.05.72-.87.24L180,174h-.51l2.62-6.83Zm2.45,7.35-3.65-9.14-.87-.24.05-.72h3.77l.05.72-1,.24,2.77,7.22h-.48l2.65-7.22-1.2-.24.06-.72h3.25l.05.72-.87.24-3.75,9.14Z"/><path class="cls-1" d="M189.87,175.82l0-.72.86-.24,3.51-8.73,1.13-.67,3.78,9.4.87.24-.05.72h-3.8l0-.72,1.06-.24-1-2.45-.18-.55-1.84-4.45.43-.12-1.66,4.57-.19.52-.87,2.48,1.06.24,0,.72Zm2.5-3.09v-1l.85,0h2.6l.83,0v1l-1,0-1.12,0-1.07,0Z"/><path class="cls-1" d="M208.65,173.13v-3.44c0-.64,0-1.17,0-1.6s0-.74,0-1a1.16,1.16,0,0,0,0-.4l-1.16-.24.05-.72h3.37l.05.72-1.07.24s0,.18,0,.4,0,.54,0,1,0,1,0,1.6v5c0,.39,0,.79,0,1.18h-.86l-6.49-8.3h.55v4.21c0,.67,0,1.22,0,1.66s0,.77,0,1,0,.36,0,.42l1.18.24,0,.72h-3.42l0-.72,1.06-.24a1.94,1.94,0,0,0,0-.43c0-.23,0-.56,0-1s0-1,0-1.64v-2.72c0-.46,0-.85,0-1.18s0-.59,0-.79a1.5,1.5,0,0,0,0-.37l-1.06-.24,0-.72h2.46l5.89,7.36Z"/><path class="cls-1" d="M212.35,175.82l0-.72,1.06-.24a1.4,1.4,0,0,0,0-.41c0-.22,0-.51,0-.88s0-.79,0-1.28v-3c0-.5,0-.94,0-1.31s0-.66,0-.88a1.08,1.08,0,0,0,0-.39l-1.06-.24,0-.72h3.94l.05.72-1.06.24a1.65,1.65,0,0,0-.06.37c0,.21,0,.49,0,.86s0,.81,0,1.35v3c0,.52,0,1,0,1.33s0,.64,0,.84a2.27,2.27,0,0,0,.06.4l1.06.24-.05.72Z"/><path class="cls-1" d="M226.19,165.7l.39,2.84-.85.09-.71-1.94a1.66,1.66,0,0,0-.33,0h-1.38l-.46,0c0,.09,0,.3,0,.64s0,.74,0,1.2v3.43c0,.7,0,1.31,0,1.84s0,.89,0,1.09l1.47.2-.05.76h-4.66l0-.76,1.45-.2c0-.2,0-.56,0-1.09s0-1.14,0-1.84V167.3c0-.34,0-.55,0-.64l-.44,0h-1.42a1.66,1.66,0,0,0-.33,0l-.69,2-.85-.1.36-2.86.43,0,.49,0,.51,0h5.65l.5,0,.5,0Z"/><path class="cls-1" d="M226.29,175.82l0-.72.85-.24,3.51-8.73,1.13-.67,3.78,9.4.88.24,0,.72h-3.8l-.06-.72,1.07-.24-1-2.45-.19-.55-1.83-4.45.43-.12-1.66,4.57-.19.52-.87,2.48,1.06.24,0,.72Zm2.5-3.09v-1l.85,0h2.59l.84,0v1l-1,0-1.11,0-1.08,0Z"/><path class="cls-1" d="M19.52,185.75a1.25,1.25,0,0,0,0,.23c0,.13,0,.31,0,.55v5.38a4.14,4.14,0,0,1-.22,1.45,1.94,1.94,0,0,1-.63.89,1.75,1.75,0,0,1-1.85.05.67.67,0,0,1-.38-.56.37.37,0,0,1,.11-.27.41.41,0,0,1,.31-.11.55.55,0,0,1,.28.07,1.28,1.28,0,0,1,.28.21l.56.57-.35-.12a.74.74,0,0,0,.58-.1.91.91,0,0,0,.34-.53,3.78,3.78,0,0,0,.1-1V186.6c0-.24,0-.43,0-.57a1.64,1.64,0,0,0,0-.26l-.8-.17,0-.42h2.41l0,.42Z"/><path class="cls-1" d="M23.09,192.23a1.91,1.91,0,0,1-.8-.17,1.57,1.57,0,0,1-.57-.47,1,1,0,0,1-.21-.61.83.83,0,0,1,.26-.64,2.19,2.19,0,0,1,.86-.45l1.79-.63v-.65a.94.94,0,0,0-.18-.56,1.41,1.41,0,0,0-.5-.39,1.67,1.67,0,0,0-.69-.14.56.56,0,0,0-.44.13,1,1,0,0,0-.13.53l0,.43a1,1,0,0,1-.65,0,.38.38,0,0,1-.27-.38.56.56,0,0,1,.16-.38,2,2,0,0,1,.43-.37,2.65,2.65,0,0,1,.58-.3,2.42,2.42,0,0,1,.64-.17,1.93,1.93,0,0,1,1.33.45,1.53,1.53,0,0,1,.52,1.18l0,2.09c0,.12,0,.26,0,.42a1.29,1.29,0,0,0,.06.32l.74.14v.32l-.53.19-.28.1-.21,0a.41.41,0,0,1-.42-.39l-.11-.45h.16a3.52,3.52,0,0,1-.76.65A1.52,1.52,0,0,1,23.09,192.23Zm.25-.59a1.19,1.19,0,0,0,.56-.14,1.88,1.88,0,0,0,.52-.44v-1.27l-1.48.42a.66.66,0,0,0-.41.23.65.65,0,0,0-.12.41.71.71,0,0,0,.28.54A1,1,0,0,0,23.34,191.64Z"/><path class="cls-1" d="M26.67,192.14l0-.4.77-.17c0-.09,0-.21,0-.38s0-.4,0-.7v-3.61c0-.32,0-.63,0-.92s0-.54,0-.75v-.37l-.88-.12,0-.33,1.54-.46.19.15,0,1c0,.33,0,.7,0,1.11s0,.89,0,1.46v2c0,.44,0,.84,0,1.22s0,.61,0,.73l.77.17,0,.4Z"/><path class="cls-1" d="M31.74,192.23a1.91,1.91,0,0,1-.8-.17,1.57,1.57,0,0,1-.57-.47,1,1,0,0,1-.22-.61.87.87,0,0,1,.26-.64,2.32,2.32,0,0,1,.87-.45l1.79-.63v-.65a.88.88,0,0,0-.19-.56,1.29,1.29,0,0,0-.49-.39,1.71,1.71,0,0,0-.7-.14.55.55,0,0,0-.43.13,1,1,0,0,0-.14.53l0,.43a1,1,0,0,1-.65,0,.38.38,0,0,1-.27-.38.56.56,0,0,1,.16-.38,1.94,1.94,0,0,1,.42-.37,3.19,3.19,0,0,1,.58-.3A2.5,2.5,0,0,1,32,187a2,2,0,0,1,1.33.45,1.53,1.53,0,0,1,.52,1.18l0,2.09c0,.12,0,.26,0,.42a1,1,0,0,0,.06.32l.74.14v.32l-.53.19-.28.1-.21,0q-.34,0-.42-.39l-.11-.45h.15a3.27,3.27,0,0,1-.75.65A1.55,1.55,0,0,1,31.74,192.23Zm.25-.59a1.22,1.22,0,0,0,.56-.14,1.88,1.88,0,0,0,.52-.44v-1.27l-1.48.42a.66.66,0,0,0-.41.23.65.65,0,0,0-.13.41.72.72,0,0,0,.29.54A.93.93,0,0,0,32,191.64Z"/><path class="cls-1" d="M35.35,192.14l0-.39.74-.18c0-.06,0-.14,0-.23s0-.22,0-.39,0-.38,0-.66v-.92c0-.27,0-.55,0-.83s0-.48,0-.61l-.76-.16v-.36l1.45-.4.16.18-.06.61h0a3.14,3.14,0,0,1,.83-.64,2,2,0,0,1,.85-.18,1.58,1.58,0,0,1,1.42.85,2.31,2.31,0,0,1,.25,1.15v1.34q0,.43,0,.78c0,.23,0,.38,0,.46l.74.18,0,.39H38.78l0-.39.69-.18a1.38,1.38,0,0,0,0-.22,2.82,2.82,0,0,0,0-.34c0-.15,0-.34,0-.58v-1.36a1.71,1.71,0,0,0-.2-.88,1.23,1.23,0,0,0-.49-.45,1.4,1.4,0,0,0-.57-.14,1.51,1.51,0,0,0-.77.21,2.06,2.06,0,0,0-.61.57v1.8c0,.39,0,.7,0,.92s0,.38,0,.47l.74.18,0,.39Z"/><path class="cls-1" d="M45.86,185.75a1.25,1.25,0,0,0,0,.23c0,.13,0,.31,0,.55s0,.56,0,1v4.41a4.4,4.4,0,0,1-.21,1.45,1.94,1.94,0,0,1-.63.89,1.77,1.77,0,0,1-1.86.05.69.69,0,0,1-.38-.56.34.34,0,0,1,.12-.27.39.39,0,0,1,.31-.11.55.55,0,0,1,.28.07,1.57,1.57,0,0,1,.28.21l.55.57-.34-.12a.75.75,0,0,0,.58-.1.9.9,0,0,0,.33-.53,3.73,3.73,0,0,0,.11-1V186.6c0-.24,0-.43,0-.57a.64.64,0,0,0,0-.26l-.79-.17,0-.42h2.42l0,.42Z"/><path class="cls-1" d="M50,192.23a2.53,2.53,0,0,1-1.2-.29,2.25,2.25,0,0,1-.86-.87,2.76,2.76,0,0,1-.32-1.36,2.89,2.89,0,0,1,.34-1.46,2.4,2.4,0,0,1,.87-.94A2.05,2.05,0,0,1,50,187a1.75,1.75,0,0,1,1.39.59,2.52,2.52,0,0,1,.51,1.72v.2H48.2V189h3l-.12.12v-.22a1.63,1.63,0,0,0-.33-1.09,1.09,1.09,0,0,0-.88-.39,1.23,1.23,0,0,0-.68.21,1.55,1.55,0,0,0-.53.62,2.49,2.49,0,0,0-.2,1.05v.11A2.29,2.29,0,0,0,49,191a1.55,1.55,0,0,0,1.24.55,1.7,1.7,0,0,0,.76-.16,2,2,0,0,0,.64-.55l.28.25a2.19,2.19,0,0,1-.82.88A2.08,2.08,0,0,1,50,192.23Z"/><path class="cls-1" d="M52.76,192.14l0-.39.74-.18c0-.06,0-.14,0-.23s0-.22,0-.39v-1.58c0-.27,0-.55,0-.83s0-.48-.06-.61l-.76-.16v-.36l1.45-.4.16.18-.05.61h0a3.14,3.14,0,0,1,.83-.64,2,2,0,0,1,.85-.18,1.55,1.55,0,0,1,1.42.85,2.31,2.31,0,0,1,.25,1.15v1.34q0,.43,0,.78c0,.23,0,.38,0,.46l.74.18,0,.39H56.18l0-.39.68-.18c0-.06,0-.14,0-.22s0-.2,0-.34,0-.34,0-.58v-1.36a1.71,1.71,0,0,0-.2-.88,1.17,1.17,0,0,0-.49-.45,1.36,1.36,0,0,0-.56-.14,1.52,1.52,0,0,0-.78.21,2.06,2.06,0,0,0-.61.57v1.8c0,.39,0,.7,0,.92s0,.38,0,.47l.73.18,0,.39Z"/><path class="cls-1" d="M63.29,192.26l-.13-.14v-.79h0a2.36,2.36,0,0,1-.75.69,1.69,1.69,0,0,1-.8.2,2.29,2.29,0,0,1-1.21-.31,2.24,2.24,0,0,1-.83-.87,2.58,2.58,0,0,1-.3-1.26,3,3,0,0,1,.2-1.13,2.64,2.64,0,0,1,.56-.89,2.61,2.61,0,0,1,.82-.58,2.24,2.24,0,0,1,1-.21,2.64,2.64,0,0,1,.74.1,1.53,1.53,0,0,1,.64.31c0-.15,0-.34,0-.58s0-.5,0-.77,0-.5,0-.7,0-.34,0-.41l-.93-.17,0-.36,1.59-.46.19.15q0,.73,0,1.44c0,.47,0,1,0,1.47v2.72q0,.6,0,1c0,.29,0,.5,0,.62l.75.19v.36Zm-1.5-.73a1.61,1.61,0,0,0,.71-.15,2.24,2.24,0,0,0,.66-.58v-2.51a1.6,1.6,0,0,0-.62-.64,1.61,1.61,0,0,0-.76-.19,1.46,1.46,0,0,0-1.23.57,2.35,2.35,0,0,0-.45,1.48,2.1,2.1,0,0,0,.5,1.49A1.55,1.55,0,0,0,61.79,191.53Z"/><path class="cls-1" d="M66.37,192.26a.64.64,0,0,1-.47-.18.61.61,0,0,1-.18-.45.53.53,0,0,1,.08-.31.49.49,0,0,1,.23-.22.63.63,0,0,1,.33-.09.64.64,0,0,1,.47.18.6.6,0,0,1,.18.44.61.61,0,0,1-.18.45A.62.62,0,0,1,66.37,192.26Z"/><path class="cls-1" d="M72.56,192.25a4.7,4.7,0,0,1-1-.13,3.57,3.57,0,0,1-.88-.31l0-1.47.43-.05.31,1a2.93,2.93,0,0,0,.65.29,2.43,2.43,0,0,0,.77.11,1.5,1.5,0,0,0,1-.3,1,1,0,0,0,.37-.81,1,1,0,0,0-.25-.71,2.35,2.35,0,0,0-.64-.49l-.84-.42a6.72,6.72,0,0,1-.84-.46,2.21,2.21,0,0,1-.66-.63,1.76,1.76,0,0,1,.06-1.9,2.07,2.07,0,0,1,.86-.67,3.1,3.1,0,0,1,1.25-.24,5.41,5.41,0,0,1,.59,0l.53.08a2.41,2.41,0,0,1,.43.15l.08,1.41-.44,0-.32-.94a1.72,1.72,0,0,0-1-.25,1.52,1.52,0,0,0-1,.31,1,1,0,0,0-.38.79,1.06,1.06,0,0,0,.25.73,2.34,2.34,0,0,0,.66.52c.26.14.54.29.84.43a6.85,6.85,0,0,1,.84.46,2.37,2.37,0,0,1,.65.61,1.44,1.44,0,0,1,.25.87,1.65,1.65,0,0,1-.31,1,2.16,2.16,0,0,1-.87.69A3.08,3.08,0,0,1,72.56,192.25Z"/><path class="cls-1" d="M80.73,191.38l.74.19v.36l-1.41.33-.13-.14v-.73h0a2.14,2.14,0,0,1-.71.66,1.61,1.61,0,0,1-.76.18,2,2,0,0,1-1.32-.47,1.86,1.86,0,0,1-.53-1.44v-1c0-.23,0-.46,0-.69s0-.44,0-.66l-.8-.16v-.36l1.47-.4.16.18c0,.24,0,.49,0,.76s0,.53,0,.82l0,1.38a1.21,1.21,0,0,0,1.3,1.42,1.47,1.47,0,0,0,.68-.18,1.63,1.63,0,0,0,.63-.6v-1.42c0-.18,0-.35,0-.53s0-.35,0-.5a3.79,3.79,0,0,0,0-.41l-.86-.16v-.36l1.52-.4.15.15c0,.24,0,.44,0,.61s0,.34,0,.5v1.36a11.59,11.59,0,0,0,0,1.16C80.7,191.07,80.72,191.26,80.73,191.38Z"/><path class="cls-1" d="M86.36,192.26l-.13-.14,0-.79h0a2.36,2.36,0,0,1-.75.69,1.72,1.72,0,0,1-.8.2,2.36,2.36,0,0,1-1.22-.31,2.32,2.32,0,0,1-.83-.87,2.58,2.58,0,0,1-.3-1.26,3.15,3.15,0,0,1,.2-1.13,2.83,2.83,0,0,1,.57-.89,2.68,2.68,0,0,1,.81-.58,2.32,2.32,0,0,1,1-.21,2.74,2.74,0,0,1,.74.1,1.44,1.44,0,0,1,.63.31v-.58c0-.25,0-.5,0-.77s0-.5,0-.7v-.41l-.94-.17,0-.36,1.59-.46.19.15q0,.73,0,1.44c0,.47,0,1,0,1.47v2.72q0,.6,0,1c0,.29,0,.5,0,.62l.75.19v.36Zm-1.49-.73a1.64,1.64,0,0,0,.71-.15,2.22,2.22,0,0,0,.65-.58v-2.51a1.48,1.48,0,0,0-.62-.64,1.61,1.61,0,0,0-.75-.19,1.49,1.49,0,0,0-1.24.57,2.41,2.41,0,0,0-.44,1.48,2.05,2.05,0,0,0,.5,1.49A1.55,1.55,0,0,0,84.87,191.53Z"/><path class="cls-1" d="M88.51,192.14l0-.4.79-.17a1.39,1.39,0,0,0,0-.15c0-.07,0-.19,0-.37v-1.51c0-.35,0-.68,0-1s0-.51-.05-.64l-.79-.16v-.36L90,187l.13.14c0,.25,0,.48,0,.72s0,.51,0,.82v1.49c0,.39,0,.7,0,.94s0,.39,0,.45l.79.17,0,.4Zm1.18-6.58a.71.71,0,0,1-.46-.17.61.61,0,0,1,0-.9.67.67,0,0,1,.46-.18.61.61,0,0,1,.45.18.63.63,0,0,1,0,.9A.64.64,0,0,1,89.69,185.56Z"/><path class="cls-1" d="M91.66,192.14l0-.39.73-.18s0-.11,0-.21,0-.24,0-.42,0-.39,0-.65v-.94c0-.27,0-.55,0-.82s0-.47-.06-.6l-.75-.16v-.36L93,187l.14.15-.06,1h0a2.54,2.54,0,0,1,.73-.94,1.27,1.27,0,0,1,.68-.24.67.67,0,0,1,.43.13.44.44,0,0,1,.17.37.42.42,0,0,1-.18.37.72.72,0,0,1-.46.13.85.85,0,0,1-.38-.09,1.16,1.16,0,0,1-.34-.24l.18.09a1.91,1.91,0,0,0-.44.42,3.29,3.29,0,0,0-.39.68V190c0,.17,0,.36,0,.57l0,.57c0,.18,0,.32,0,.42l1,.15,0,.42Z"/><path class="cls-1" d="M95.81,192.14l0-.39.74-.18c0-.06,0-.13,0-.21s0-.2,0-.37v-1.64a4.68,4.68,0,0,0,0-.53c0-.19,0-.36,0-.53s0-.28,0-.36l-.76-.16v-.36l1.45-.4.16.18,0,.64h0a2.38,2.38,0,0,1,.76-.66,1.73,1.73,0,0,1,.79-.19,1.58,1.58,0,0,1,.8.22,1.71,1.71,0,0,1,.65.68,2.4,2.4,0,0,1,.26,1.18v1.26c0,.29,0,.55,0,.77s0,.38,0,.47l.72.18,0,.39H99.17l0-.39.65-.18c0-.06,0-.14,0-.22a2.82,2.82,0,0,0,0-.34c0-.15,0-.34,0-.58l0-1.36a1.76,1.76,0,0,0-.17-.85,1.12,1.12,0,0,0-.44-.47,1.19,1.19,0,0,0-.58-.15,1.42,1.42,0,0,0-.73.19,1.7,1.7,0,0,0-.61.59v1.8c0,.39,0,.7,0,.92s0,.38,0,.47l.71.18,0,.39Zm6.59,0,0-.39.68-.18c0-.06,0-.14,0-.22s0-.2,0-.34,0-.34,0-.58v-1.36a1.75,1.75,0,0,0-.18-.86,1.2,1.2,0,0,0-.48-.47,1.28,1.28,0,0,0-.55-.14,1.46,1.46,0,0,0-.8.22,2.05,2.05,0,0,0-.66.68l-.19-.42a2.74,2.74,0,0,1,.87-.84,2,2,0,0,1,1-.25,1.76,1.76,0,0,1,.87.22,1.67,1.67,0,0,1,.63.66,2.27,2.27,0,0,1,.24,1.08v1.38c0,.29,0,.55,0,.77a3.24,3.24,0,0,0,0,.47l.73.18,0,.39Z"/><path class="cls-1" d="M107.34,192.23a1.94,1.94,0,0,1-.8-.17,1.57,1.57,0,0,1-.57-.47,1,1,0,0,1-.21-.61.83.83,0,0,1,.26-.64,2.19,2.19,0,0,1,.86-.45l1.79-.63v-.65a.94.94,0,0,0-.18-.56,1.46,1.46,0,0,0-.49-.39,1.75,1.75,0,0,0-.7-.14.56.56,0,0,0-.44.13,1,1,0,0,0-.13.53l0,.43a1,1,0,0,1-.65,0,.38.38,0,0,1-.27-.38.56.56,0,0,1,.16-.38,2,2,0,0,1,.43-.37,2.65,2.65,0,0,1,.58-.3,2.42,2.42,0,0,1,.64-.17,1.93,1.93,0,0,1,1.33.45,1.53,1.53,0,0,1,.52,1.18l0,2.09a3.25,3.25,0,0,0,0,.42,1,1,0,0,0,0,.32l.75.14v.32l-.54.19-.28.1-.2,0a.42.42,0,0,1-.43-.39l-.11-.45h.16a3.1,3.1,0,0,1-.76.65A1.52,1.52,0,0,1,107.34,192.23Zm.25-.59a1.26,1.26,0,0,0,.57-.14,1.85,1.85,0,0,0,.51-.44v-1.27l-1.48.42a.66.66,0,0,0-.41.23.65.65,0,0,0-.12.41.71.71,0,0,0,.28.54A1,1,0,0,0,107.59,191.64Z"/><path class="cls-1" d="M111,192.14l0-.39.74-.18c0-.06,0-.14,0-.23s0-.22,0-.39v-.66l0-.92c0-.27,0-.55,0-.83s0-.48-.06-.61l-.76-.16v-.36l1.45-.4.17.18-.06.61h0a3.14,3.14,0,0,1,.83-.64,2,2,0,0,1,.85-.18,1.64,1.64,0,0,1,.8.2,1.71,1.71,0,0,1,.63.65,2.42,2.42,0,0,1,.24,1.15v1.34q0,.43,0,.78a2.58,2.58,0,0,0,0,.46l.73.18,0,.39h-2.22l0-.39.68-.18c0-.06,0-.14,0-.22s0-.2,0-.34v-1.94a1.71,1.71,0,0,0-.2-.88,1.17,1.17,0,0,0-.49-.45,1.36,1.36,0,0,0-.56-.14,1.46,1.46,0,0,0-.77.21,2,2,0,0,0-.62.57v1.8c0,.39,0,.7,0,.92s0,.38,0,.47l.73.18,0,.39Z"/><path class="cls-1" d="M125.15,190.6v-2.9c0-.49,0-.87,0-1.15s0-.47,0-.59a.67.67,0,0,0,0-.21l-.79-.15,0-.42h2.18l0,.42-.72.15a1.24,1.24,0,0,1,0,.21c0,.12,0,.32,0,.6s0,.65,0,1.14v3.69c0,.25,0,.52,0,.8h-.48l-4.25-6h.15v3.41c0,.48,0,.86,0,1.13a5.62,5.62,0,0,0,0,.6c0,.12,0,.19,0,.21l.81.15,0,.42h-2.2l0-.42.73-.15a1.37,1.37,0,0,0,0-.21c0-.11,0-.31,0-.58s0-.66,0-1.15v-2.16c0-.39,0-.71,0-.93s0-.41,0-.53,0-.2,0-.26l-.73-.15,0-.42h1.55l3.91,5.42Z"/><path class="cls-1" d="M130.05,192.23a2.59,2.59,0,0,1-1.32-.33,2.3,2.3,0,0,1-.87-.93,3,3,0,0,1-.31-1.37,2.72,2.72,0,0,1,.34-1.36,2.39,2.39,0,0,1,.92-.92,2.54,2.54,0,0,1,1.28-.33,2.3,2.3,0,0,1,1.25.32,2.07,2.07,0,0,1,.83.9,2.93,2.93,0,0,1,.3,1.36,2.82,2.82,0,0,1-.32,1.34,2.52,2.52,0,0,1-.87,1A2.21,2.21,0,0,1,130.05,192.23Zm.12-.49a1.18,1.18,0,0,0,.75-.26,1.82,1.82,0,0,0,.5-.72,2.67,2.67,0,0,0,.19-1,2.83,2.83,0,0,0-.45-1.66,1.38,1.38,0,0,0-1.18-.63,1.32,1.32,0,0,0-1.11.55,2.3,2.3,0,0,0-.43,1.46,2.94,2.94,0,0,0,.23,1.19,1.89,1.89,0,0,0,.61.79A1.48,1.48,0,0,0,130.17,191.74Z"/><path class="cls-1" d="M134.11,192.26a.64.64,0,0,1-.47-.18.58.58,0,0,1-.19-.45.54.54,0,0,1,.09-.31.49.49,0,0,1,.23-.22.59.59,0,0,1,.32-.09.65.65,0,0,1,.48.18.6.6,0,0,1,.17.44.6.6,0,0,1-.17.45A.63.63,0,0,1,134.11,192.26Z"/><path class="cls-1" d="M137.81,189.89c0,.39,0,.71,0,1s0,.42,0,.54a1.8,1.8,0,0,0,0,.21l.94.16,0,.39h-2.66l0-.39.91-.16s0-.14,0-.29,0-.35,0-.58,0-.52,0-.83v-2.55c0-.2,0-.4,0-.6s0-.41,0-.61l-1,.23,0-.45,1.85-.83q0,.3,0,.78c0,.32,0,.75,0,1.29Z"/><path class="cls-1" d="M139.78,194.11l-.15-.3a2.16,2.16,0,0,0,.65-.48,1.06,1.06,0,0,0,.25-.69.54.54,0,0,0-.06-.27.59.59,0,0,0-.13-.18l-.15-.16a1.33,1.33,0,0,1-.14-.19.57.57,0,0,1,.11-.66.57.57,0,0,1,.42-.17.55.55,0,0,1,.35.12.7.7,0,0,1,.26.32,1.26,1.26,0,0,1,.09.51,1.93,1.93,0,0,1-.2.86,2.6,2.6,0,0,1-.54.78A2.26,2.26,0,0,1,139.78,194.11Z"/><path class="cls-1" d="M144.79,192.14l0-.42.73-.15a3.6,3.6,0,0,0,0-.52c0-.28,0-.68,0-1.2v-2.37c0-.36,0-.66,0-.91s0-.43,0-.57a1.83,1.83,0,0,0,0-.25l-.73-.15,0-.42h2.34l0,.42-.72.15a1.23,1.23,0,0,0,0,.22c0,.12,0,.31,0,.55v3.33c0,.52,0,.92,0,1.2s0,.46,0,.52l.76.15,0,.42Zm3.65,0,0-.42.74-.11a2.47,2.47,0,0,0-.22-.29l-.26-.31-1.92-2.14h-.5v-.4l.66-.18,2.44-2.54-.72-.15,0-.42h2.18l0,.44-.66.12-2.92,2.8.06-.31,2.25,2.46.32.36.27.29.21.22.6.15v.43Z"/><path class="cls-1" d="M153.15,192.23a1.94,1.94,0,0,1-.8-.17,1.57,1.57,0,0,1-.57-.47,1,1,0,0,1-.21-.61.83.83,0,0,1,.26-.64,2.19,2.19,0,0,1,.86-.45l1.79-.63v-.65a.94.94,0,0,0-.18-.56,1.46,1.46,0,0,0-.49-.39,1.75,1.75,0,0,0-.7-.14.56.56,0,0,0-.44.13,1,1,0,0,0-.13.53l0,.43a1,1,0,0,1-.65,0,.38.38,0,0,1-.27-.38.56.56,0,0,1,.16-.38,2,2,0,0,1,.43-.37,2.65,2.65,0,0,1,.58-.3,2.42,2.42,0,0,1,.64-.17,1.93,1.93,0,0,1,1.33.45,1.53,1.53,0,0,1,.52,1.18l0,2.09c0,.12,0,.26,0,.42a1.29,1.29,0,0,0,.06.32l.74.14v.32l-.53.19-.28.1-.2,0a.42.42,0,0,1-.43-.39l-.11-.45h.16a3.1,3.1,0,0,1-.76.65A1.52,1.52,0,0,1,153.15,192.23Zm.25-.59a1.26,1.26,0,0,0,.57-.14,1.85,1.85,0,0,0,.51-.44v-1.27l-1.48.42a.66.66,0,0,0-.41.23.65.65,0,0,0-.12.41.71.71,0,0,0,.28.54A1,1,0,0,0,153.4,191.64Z"/><path class="cls-1" d="M156.79,192.14l0-.39.73-.18a.91.91,0,0,0,0-.21c0-.11,0-.24,0-.42s0-.39,0-.65v-.94c0-.27,0-.55,0-.82s0-.47-.06-.6l-.75-.16v-.36l1.44-.4.14.15-.06,1h0a2.54,2.54,0,0,1,.73-.94,1.27,1.27,0,0,1,.68-.24.67.67,0,0,1,.43.13.41.41,0,0,1,.17.37.44.44,0,0,1-.17.37.77.77,0,0,1-.47.13.85.85,0,0,1-.38-.09,1.31,1.31,0,0,1-.34-.24l.18.09a1.91,1.91,0,0,0-.44.42,3.29,3.29,0,0,0-.39.68V190q0,.26,0,.57c0,.2,0,.39,0,.57s0,.32,0,.42l1,.15,0,.42Z"/><path class="cls-1" d="M163.15,192.23a2.53,2.53,0,0,1-1.2-.29,2.18,2.18,0,0,1-.86-.87,2.76,2.76,0,0,1-.32-1.36,3,3,0,0,1,.33-1.46,2.42,2.42,0,0,1,.88-.94,2,2,0,0,1,1.17-.32,1.75,1.75,0,0,1,1.39.59,2.52,2.52,0,0,1,.51,1.72v.2h-3.69V189h3l-.11.12v-.22a1.63,1.63,0,0,0-.33-1.09,1.09,1.09,0,0,0-.88-.39,1.21,1.21,0,0,0-.68.21,1.48,1.48,0,0,0-.53.62,2.34,2.34,0,0,0-.2,1.05v.11a2.34,2.34,0,0,0,.48,1.57,1.59,1.59,0,0,0,1.25.55,1.73,1.73,0,0,0,.76-.16,2,2,0,0,0,.64-.55l.28.25a2.19,2.19,0,0,1-.82.88A2.08,2.08,0,0,1,163.15,192.23Z"/><path class="cls-1" d="M169.5,191.48a1.75,1.75,0,0,1-.6.55,1.61,1.61,0,0,1-.76.19,1.57,1.57,0,0,1-1.14-.43,1.67,1.67,0,0,1-.45-1.27l0-2.88h-.83v-.22l1.4-1.34h.17l0,1.28v2.95a1.45,1.45,0,0,0,.28,1,1,1,0,0,0,.77.32,1.18,1.18,0,0,0,.53-.12,1.28,1.28,0,0,0,.43-.3ZM167,187.64v-.55h2.16v.55Z"/><path class="cls-1" d="M174.33,192.25a4.77,4.77,0,0,1-1-.13,3.34,3.34,0,0,1-.87-.31l-.06-1.47.43-.05.31,1a2.93,2.93,0,0,0,.65.29,2.43,2.43,0,0,0,.77.11,1.5,1.5,0,0,0,1-.3,1,1,0,0,0,.37-.81,1,1,0,0,0-.25-.71,2.35,2.35,0,0,0-.64-.49l-.84-.42a6.72,6.72,0,0,1-.84-.46,2.21,2.21,0,0,1-.66-.63,1.58,1.58,0,0,1-.25-.92,1.66,1.66,0,0,1,.31-1,2.07,2.07,0,0,1,.86-.67,3.1,3.1,0,0,1,1.25-.24,5.74,5.74,0,0,1,.6,0l.52.08a2.41,2.41,0,0,1,.43.15l.08,1.41-.44,0-.32-.94a1.72,1.72,0,0,0-1-.25,1.52,1.52,0,0,0-1,.31,1,1,0,0,0-.38.79,1.06,1.06,0,0,0,.25.73,2.34,2.34,0,0,0,.66.52c.26.14.54.29.84.43a6.85,6.85,0,0,1,.84.46,2.37,2.37,0,0,1,.65.61,1.45,1.45,0,0,1,.26.87,1.66,1.66,0,0,1-.32,1,2.2,2.2,0,0,1-.86.69A3.16,3.16,0,0,1,174.33,192.25Z"/><path class="cls-1" d="M180.18,192.23a2.55,2.55,0,0,1-1.21-.29,2.25,2.25,0,0,1-.86-.87,2.76,2.76,0,0,1-.32-1.36,2.89,2.89,0,0,1,.34-1.46,2.4,2.4,0,0,1,.87-.94,2.08,2.08,0,0,1,1.18-.32,1.74,1.74,0,0,1,1.38.59,2.52,2.52,0,0,1,.51,1.72v.2h-3.68V189h3l-.12.12v-.22a1.63,1.63,0,0,0-.33-1.09,1.08,1.08,0,0,0-.88-.39,1.23,1.23,0,0,0-.68.21,1.55,1.55,0,0,0-.53.62,2.49,2.49,0,0,0-.2,1.05v.11a2.29,2.29,0,0,0,.49,1.57,1.57,1.57,0,0,0,1.24.55,1.67,1.67,0,0,0,.76-.16,2,2,0,0,0,.64-.55l.28.25a2.24,2.24,0,0,1-.81.88A2.13,2.13,0,0,1,180.18,192.23Z"/><path class="cls-1" d="M183,192.14l0-.39.73-.18c0-.06,0-.13,0-.21s0-.2,0-.37,0-.4,0-.7v-.94a4.68,4.68,0,0,0,0-.53c0-.19,0-.36,0-.53a2.06,2.06,0,0,0-.05-.36l-.75-.16v-.36l1.44-.4.17.18-.06.64h0a2.38,2.38,0,0,1,.76-.66,1.77,1.77,0,0,1,.8-.19,1.58,1.58,0,0,1,.79.22,1.65,1.65,0,0,1,.65.68,2.4,2.4,0,0,1,.26,1.18v1.26c0,.29,0,.55,0,.77s0,.38,0,.47l.73.18,0,.39h-2.17l0-.39.65-.18c0-.06,0-.14,0-.22s0-.2,0-.34,0-.34,0-.58v-1.36a1.89,1.89,0,0,0-.17-.85,1.2,1.2,0,0,0-.45-.47,1.17,1.17,0,0,0-.58-.15,1.45,1.45,0,0,0-.73.19,1.79,1.79,0,0,0-.61.59v1.8c0,.39,0,.7,0,.92s0,.38,0,.47l.71.18,0,.39Zm6.6,0,0-.39.68-.18c0-.06,0-.14,0-.22s0-.2,0-.34,0-.34,0-.58v-1.36a1.74,1.74,0,0,0-.19-.86,1.24,1.24,0,0,0-.47-.47,1.32,1.32,0,0,0-.56-.14,1.48,1.48,0,0,0-.8.22,2.15,2.15,0,0,0-.66.68l-.19-.42a2.76,2.76,0,0,1,.88-.84,2,2,0,0,1,1-.25,1.71,1.71,0,0,1,.87.22,1.55,1.55,0,0,1,.63.66A2.27,2.27,0,0,1,191,189v1.38c0,.29,0,.55,0,.77a3.24,3.24,0,0,0,0,.47l.73.18,0,.39Z"/><path class="cls-1" d="M194.5,192.23a1.91,1.91,0,0,1-.8-.17,1.69,1.69,0,0,1-.58-.47,1,1,0,0,1-.21-.61.87.87,0,0,1,.26-.64,2.17,2.17,0,0,1,.87-.45l1.78-.63v-.65a.94.94,0,0,0-.18-.56,1.37,1.37,0,0,0-.49-.39,1.75,1.75,0,0,0-.7-.14.54.54,0,0,0-.43.13.94.94,0,0,0-.14.53l0,.43a1,1,0,0,1-.65,0,.39.39,0,0,1-.28-.38.61.61,0,0,1,.16-.38,2,2,0,0,1,.43-.37,2.89,2.89,0,0,1,.58-.3,2.5,2.5,0,0,1,.65-.17,1.92,1.92,0,0,1,1.32.45,1.5,1.5,0,0,1,.52,1.18l0,2.09c0,.12,0,.26,0,.42a1.42,1.42,0,0,0,0,.32l.75.14v.32l-.53.19-.28.1-.21,0c-.23,0-.37-.13-.43-.39l-.1-.45H196a3.27,3.27,0,0,1-.75.65A1.55,1.55,0,0,1,194.5,192.23Zm.25-.59a1.25,1.25,0,0,0,.56-.14,1.71,1.71,0,0,0,.51-.44v-1.27l-1.48.42a.63.63,0,0,0-.4.23.59.59,0,0,0-.13.41.69.69,0,0,0,.29.54A.91.91,0,0,0,194.75,191.64Z"/><path class="cls-1" d="M198.11,192.14l0-.39.73-.18c0-.06,0-.14,0-.23s0-.22,0-.39,0-.38,0-.66v-.92c0-.27,0-.55,0-.83s0-.48-.05-.61l-.76-.16v-.36l1.44-.4.17.18-.06.61h0a3.31,3.31,0,0,1,.83-.64,2,2,0,0,1,.86-.18,1.6,1.6,0,0,1,.79.2,1.71,1.71,0,0,1,.63.65A2.42,2.42,0,0,1,203,189v1.34c0,.29,0,.55,0,.78a4.15,4.15,0,0,0,0,.46l.73.18,0,.39h-2.22l0-.39.69-.18c0-.06,0-.14,0-.22a2.82,2.82,0,0,0,0-.34v-1.94a1.62,1.62,0,0,0-.2-.88,1.11,1.11,0,0,0-.49-.45,1.32,1.32,0,0,0-.56-.14,1.49,1.49,0,0,0-.77.21,2.09,2.09,0,0,0-.62.57v1.8c0,.39,0,.7,0,.92s0,.38,0,.47l.74.18,0,.39Z"/><path class="cls-1" d="M206.83,194.84a3.27,3.27,0,0,1-1.66-.36,1.08,1.08,0,0,1-.62-.94,1.17,1.17,0,0,1,.29-.76,3.85,3.85,0,0,1,1-.75l.42.12a2.06,2.06,0,0,0-.64.55,1.1,1.1,0,0,0-.22.67.88.88,0,0,0,.39.76,1.83,1.83,0,0,0,1.06.27,2.21,2.21,0,0,0,1.29-.34,1,1,0,0,0,.49-.9.71.71,0,0,0-.31-.64,2,2,0,0,0-1-.26l-1.21-.1-.2,0a1,1,0,0,1-.68-.24.65.65,0,0,1-.29-.55.9.9,0,0,1,.28-.61,2.87,2.87,0,0,1,.8-.55l.15.25a1.74,1.74,0,0,0-.36.31.39.39,0,0,0-.12.25.36.36,0,0,0,.17.3.92.92,0,0,0,.46.16l1.46.14a2.54,2.54,0,0,1,1.21.4,1.13,1.13,0,0,1,.42,1,1.51,1.51,0,0,1-.34,1,2.25,2.25,0,0,1-.93.68A3.27,3.27,0,0,1,206.83,194.84Zm.11-4.19a2.67,2.67,0,0,1-1.08-.22,1.73,1.73,0,0,1-.74-.61,1.52,1.52,0,0,1-.27-.88,1.84,1.84,0,0,1,.27-1,1.92,1.92,0,0,1,.74-.7,2.2,2.2,0,0,1,1-.25,2.27,2.27,0,0,1,1.06.23,1.79,1.79,0,0,1,.72.64,1.71,1.71,0,0,1,.26.93,1.69,1.69,0,0,1-.27.94,1.84,1.84,0,0,1-.72.66A2,2,0,0,1,206.94,190.65Zm.05-.42a1,1,0,0,0,.83-.36,1.46,1.46,0,0,0,.3-1,1.64,1.64,0,0,0-.34-1.09,1.09,1.09,0,0,0-.88-.41,1.06,1.06,0,0,0-.85.39,1.47,1.47,0,0,0-.33,1,1.51,1.51,0,0,0,.35,1A1.15,1.15,0,0,0,207,190.23Zm2.69-2.44-1.36-.08-.46-.45,1.82-.18Z"/><path class="cls-1" d="M212.63,194.84a3.26,3.26,0,0,1-1.65-.36,1.06,1.06,0,0,1-.62-.94,1.17,1.17,0,0,1,.29-.76,3.77,3.77,0,0,1,1-.75l.43.12a2,2,0,0,0-.64.55,1.11,1.11,0,0,0-.23.67.88.88,0,0,0,.39.76,1.86,1.86,0,0,0,1.07.27,2.16,2.16,0,0,0,1.28-.34,1.06,1.06,0,0,0,.5-.9.73.73,0,0,0-.31-.64,2.09,2.09,0,0,0-1-.26l-1.21-.1-.2,0a1,1,0,0,1-.68-.24.68.68,0,0,1-.29-.55.9.9,0,0,1,.28-.61,2.79,2.79,0,0,1,.81-.55l.14.25a2.52,2.52,0,0,0-.36.31.42.42,0,0,0-.11.25.35.35,0,0,0,.16.3,1,1,0,0,0,.47.16l1.45.14a2.5,2.5,0,0,1,1.21.4,1.11,1.11,0,0,1,.43,1,1.52,1.52,0,0,1-.35,1,2.19,2.19,0,0,1-.93.68A3.27,3.27,0,0,1,212.63,194.84Zm.11-4.19a2.66,2.66,0,0,1-1.07-.22,1.82,1.82,0,0,1-.75-.61,1.52,1.52,0,0,1-.27-.88,1.85,1.85,0,0,1,.28-1,1.92,1.92,0,0,1,.74-.7,2.14,2.14,0,0,1,1.05-.25,2.25,2.25,0,0,1,1.05.23,1.73,1.73,0,0,1,.72.64,1.63,1.63,0,0,1,.26.93,1.69,1.69,0,0,1-.26.94,1.91,1.91,0,0,1-.72.66A2.09,2.09,0,0,1,212.74,190.65Zm.06-.42a1,1,0,0,0,.82-.36,1.46,1.46,0,0,0,.3-1,1.69,1.69,0,0,0-.33-1.09,1.11,1.11,0,0,0-.89-.41,1.07,1.07,0,0,0-.85.39,1.47,1.47,0,0,0-.33,1,1.56,1.56,0,0,0,.35,1A1.16,1.16,0,0,0,212.8,190.23Zm2.69-2.44-1.36-.08-.47-.45,1.83-.18Z"/><path class="cls-1" d="M216.07,192.14l0-.4.79-.17a1.39,1.39,0,0,0,0-.15c0-.07,0-.19,0-.37v-1.51c0-.35,0-.68,0-1s0-.51,0-.64l-.79-.16v-.36l1.54-.4.13.14c0,.25,0,.48,0,.72s0,.51,0,.82v1.49c0,.39,0,.7,0,.94s0,.39,0,.45l.79.17,0,.4Zm1.18-6.58a.73.73,0,0,1-.46-.17.61.61,0,0,1,0-.9.69.69,0,0,1,.46-.18.61.61,0,0,1,.45.18.63.63,0,0,1,0,.9A.64.64,0,0,1,217.25,185.56Z"/><path class="cls-1" d="M219.27,194.11l-.16-.3a2.08,2.08,0,0,0,.66-.48,1.05,1.05,0,0,0,.24-.69.54.54,0,0,0,0-.27.59.59,0,0,0-.13-.18l-.15-.16a.85.85,0,0,1-.14-.19.57.57,0,0,1,.11-.66.57.57,0,0,1,.42-.17.55.55,0,0,1,.35.12.77.77,0,0,1,.26.32,1.26,1.26,0,0,1,.09.51,2.07,2.07,0,0,1-.2.86,2.6,2.6,0,0,1-.54.78A2.26,2.26,0,0,1,219.27,194.11Z"/><path class="cls-1" d="M44.91,206.8a4.83,4.83,0,0,1-1-.12,3.32,3.32,0,0,1-.87-.32l-.06-1.47.44,0,.31,1a2.28,2.28,0,0,0,.65.3,2.7,2.7,0,0,0,.77.11,1.49,1.49,0,0,0,1-.3,1,1,0,0,0,.38-.82,1,1,0,0,0-.25-.7,2.22,2.22,0,0,0-.65-.49c-.26-.15-.54-.28-.84-.42a6.76,6.76,0,0,1-.84-.47,2.26,2.26,0,0,1-.65-.62,1.71,1.71,0,0,1,.06-1.9,2,2,0,0,1,.86-.67,2.86,2.86,0,0,1,1.24-.25,5.74,5.74,0,0,1,.6,0,4,4,0,0,1,.52.09,3.11,3.11,0,0,1,.43.14l.09,1.41-.44.05-.32-1a1.84,1.84,0,0,0-1-.25,1.6,1.6,0,0,0-1,.31,1,1,0,0,0-.38.8,1.09,1.09,0,0,0,.26.73,2.44,2.44,0,0,0,.65.52l.84.42a6.72,6.72,0,0,1,.84.46,2.38,2.38,0,0,1,.65.61,1.48,1.48,0,0,1,.26.88,1.7,1.7,0,0,1-.32,1,2,2,0,0,1-.86.68A3,3,0,0,1,44.91,206.8Z"/><path class="cls-1" d="M50.75,206.79a2.4,2.4,0,0,1-1.2-.3,2.1,2.1,0,0,1-.86-.86,2.66,2.66,0,0,1-.32-1.36,3.07,3.07,0,0,1,.33-1.47,2.42,2.42,0,0,1,.88-.94,2.11,2.11,0,0,1,1.17-.32,1.81,1.81,0,0,1,1.38.59,2.54,2.54,0,0,1,.51,1.72v.2H49v-.49h3l-.12.11v-.21a1.67,1.67,0,0,0-.32-1.09,1.1,1.1,0,0,0-.89-.39,1.26,1.26,0,0,0-.68.21,1.47,1.47,0,0,0-.52.62,2.29,2.29,0,0,0-.21,1V204a2.31,2.31,0,0,0,.49,1.56,1.55,1.55,0,0,0,1.24.56,1.67,1.67,0,0,0,.76-.16,2.14,2.14,0,0,0,.64-.55l.29.25a2.42,2.42,0,0,1-.82.88A2.13,2.13,0,0,1,50.75,206.79Z"/><path class="cls-1" d="M57.1,206a1.61,1.61,0,0,1-.61.55,1.64,1.64,0,0,1-1.89-.23,1.68,1.68,0,0,1-.45-1.28l0-2.88h-.83V202l1.4-1.34h.18l0,1.28,0,3a1.46,1.46,0,0,0,.28,1,1,1,0,0,0,.78.32,1.2,1.2,0,0,0,.53-.11,1.84,1.84,0,0,0,.43-.3Zm-2.54-3.84v-.54h2.17v.54Z"/><path class="cls-1" d="M57.39,206.7l0-.41.79-.16a.49.49,0,0,0,0-.15,3.35,3.35,0,0,0,0-.37c0-.18,0-.43,0-.76v-.75c0-.35,0-.68,0-1s0-.5,0-.63l-.79-.17V202l1.54-.4.13.14c0,.24,0,.48,0,.71s0,.51,0,.83v1.49c0,.39,0,.7,0,.94s0,.38,0,.45l.8.16,0,.41Zm1.19-6.58a.65.65,0,0,1-.46-.18.56.56,0,0,1-.2-.45.55.55,0,0,1,.2-.44.67.67,0,0,1,.91,0,.58.58,0,0,1,.19.44.58.58,0,0,1-.19.45A.64.64,0,0,1,58.58,200.12Z"/><path class="cls-1" d="M62.46,206.79a1.8,1.8,0,0,1-.8-.18,1.55,1.55,0,0,1-.57-.46,1,1,0,0,1-.21-.62.82.82,0,0,1,.26-.63,2.33,2.33,0,0,1,.86-.46l1.79-.62v-.65a.91.91,0,0,0-.18-.56,1.18,1.18,0,0,0-.49-.39,1.59,1.59,0,0,0-.7-.14.56.56,0,0,0-.44.13.93.93,0,0,0-.13.53l0,.43a1.09,1.09,0,0,1-.65,0,.4.4,0,0,1-.27-.39.59.59,0,0,1,.16-.38,2,2,0,0,1,.43-.36,3.19,3.19,0,0,1,.58-.31,2.88,2.88,0,0,1,.64-.17A1.93,1.93,0,0,1,64,202a1.56,1.56,0,0,1,.52,1.19l0,2.08a3.1,3.1,0,0,0,0,.42,1,1,0,0,0,0,.33l.75.14v.32l-.54.19-.28.09a.58.58,0,0,1-.2,0,.42.42,0,0,1-.43-.39L63.8,206H64a3,3,0,0,1-.76.64A1.43,1.43,0,0,1,62.46,206.79Zm.25-.59a1.26,1.26,0,0,0,.57-.14,2,2,0,0,0,.51-.44v-1.27l-1.48.41a.71.71,0,0,0-.41.24.63.63,0,0,0-.12.4.73.73,0,0,0,.28.55A1,1,0,0,0,62.71,206.2Z"/><path class="cls-1" d="M66.63,206.39c0-.28,0-.51,0-.7s0-.37,0-.53v-2.78c0-.24,0-.52,0-.83v-.91c0-.31,0-.57,0-.8s0-.37,0-.44l-.87-.12,0-.33,1.52-.46.19.15c0,.33,0,.67,0,1s0,.72,0,1.16,0,1,0,1.63h0a2.45,2.45,0,0,1,.75-.65,1.86,1.86,0,0,1,1-.25,2.14,2.14,0,0,1,1.09.29,2.1,2.1,0,0,1,.8.82,3,3,0,0,1-.1,2.8,2.77,2.77,0,0,1-1.05,1,2.9,2.9,0,0,1-1.39.35,4.19,4.19,0,0,1-1-.12A4.34,4.34,0,0,1,66.63,206.39Zm2.08-.13a1.57,1.57,0,0,0,1.22-.56,2.36,2.36,0,0,0,.5-1.55A1.88,1.88,0,0,0,70,202.7a1.62,1.62,0,0,0-1.19-.48,1.73,1.73,0,0,0-.76.18,1.69,1.69,0,0,0-.63.54v2.94a2.23,2.23,0,0,0,.58.28A2.67,2.67,0,0,0,68.71,206.26Z"/><path class="cls-1" d="M77,205.94l.75.19v.35l-1.41.33-.13-.14V206h0a2.32,2.32,0,0,1-.71.65,1.53,1.53,0,0,1-.76.19,1.92,1.92,0,0,1-1.32-.48,1.82,1.82,0,0,1-.53-1.43v-1c0-.24,0-.47,0-.69s0-.45,0-.66l-.81-.17V202l1.47-.4.17.17c0,.25,0,.5,0,.76s0,.54,0,.83v1.38a1.43,1.43,0,0,0,.36,1.1,1.36,1.36,0,0,0,.93.32,1.54,1.54,0,0,0,.69-.18,1.59,1.59,0,0,0,.63-.61v-1.42c0-.17,0-.35,0-.52s0-.35,0-.51a3.88,3.88,0,0,0,0-.4l-.87-.17V202l1.53-.4.14.15c0,.24,0,.44,0,.61s0,.34,0,.5v1.35a11.69,11.69,0,0,0,0,1.17C77,205.62,77,205.82,77,205.94Z"/><path class="cls-1" d="M82.66,206.81l-.13-.14v-.78h0a2.62,2.62,0,0,1-.75.69,1.72,1.72,0,0,1-.8.2,2.34,2.34,0,0,1-1.22-.32,2.21,2.21,0,0,1-.83-.86,2.61,2.61,0,0,1-.3-1.26,3.15,3.15,0,0,1,.2-1.13,2.57,2.57,0,0,1,.57-.89,2.68,2.68,0,0,1,.81-.58,2.32,2.32,0,0,1,1-.21,2.74,2.74,0,0,1,.74.1,1.54,1.54,0,0,1,.63.3v-.58c0-.24,0-.5,0-.76s0-.5,0-.71v-.4l-.94-.18,0-.35,1.58-.46.19.15q0,.74,0,1.44v4.19q0,.6,0,1c0,.29,0,.5,0,.62l.74.19v.35Zm-1.49-.72a1.45,1.45,0,0,0,.7-.16,2.34,2.34,0,0,0,.66-.57v-2.51a1.38,1.38,0,0,0-.62-.64,1.61,1.61,0,0,0-.75-.19,1.49,1.49,0,0,0-1.24.57,2.33,2.33,0,0,0-.44,1.48,2.11,2.11,0,0,0,.49,1.49A1.61,1.61,0,0,0,81.17,206.09Z"/><path class="cls-1" d="M84.81,206.7l0-.41.8-.16s0-.08,0-.15,0-.19,0-.37V204.1c0-.35,0-.68,0-1s0-.5,0-.63l-.79-.17V202l1.54-.4.13.14c0,.24,0,.48,0,.71s0,.51,0,.83v1.49c0,.39,0,.7,0,.94s0,.38,0,.45l.79.16,0,.41ZM86,200.12a.67.67,0,0,1-.46-.18.6.6,0,0,1,0-.89.67.67,0,0,1,.46-.18.63.63,0,0,1,.45.18.58.58,0,0,1,.19.44.58.58,0,0,1-.19.45A.63.63,0,0,1,86,200.12Z"/><path class="cls-1" d="M88,208.66l-.16-.29a1.93,1.93,0,0,0,.65-.48,1,1,0,0,0,.25-.7.6.6,0,0,0,0-.26,1.27,1.27,0,0,0-.13-.19c0-.05-.1-.11-.16-.16a.83.83,0,0,1-.13-.18.58.58,0,0,1-.06-.28.54.54,0,0,1,.16-.38.6.6,0,0,1,.43-.17.63.63,0,0,1,.35.11.73.73,0,0,1,.25.32,1.15,1.15,0,0,1,.1.52,2.11,2.11,0,0,1-.2.86,3,3,0,0,1-.54.77A2.21,2.21,0,0,1,88,208.66Z"/><path class="cls-1" d="M94.64,200.31a1.11,1.11,0,0,0,0,.23c0,.12,0,.31,0,.55s0,.56,0,1v4.42a4.14,4.14,0,0,1-.22,1.45,1.73,1.73,0,0,1-.63.88,1.57,1.57,0,0,1-1,.3,1.62,1.62,0,0,1-.89-.24.69.69,0,0,1-.38-.57.37.37,0,0,1,.11-.27.46.46,0,0,1,.32-.1.58.58,0,0,1,.28.07,1,1,0,0,1,.27.21l.56.57-.34-.12a.72.72,0,0,0,.57-.1.93.93,0,0,0,.34-.53,3.73,3.73,0,0,0,.11-1v-5c0-.35,0-.65,0-.89s0-.43,0-.57a.75.75,0,0,0,0-.27l-.79-.16,0-.42h2.42l0,.42Z"/><path class="cls-1" d="M98.22,206.79a1.74,1.74,0,0,1-.8-.18,1.67,1.67,0,0,1-.58-.46,1,1,0,0,1-.21-.62.86.86,0,0,1,.26-.63,2.33,2.33,0,0,1,.86-.46l1.79-.62v-.65a.91.91,0,0,0-.18-.56,1.18,1.18,0,0,0-.49-.39,1.59,1.59,0,0,0-.7-.14.54.54,0,0,0-.43.13.91.91,0,0,0-.14.53l0,.43a1.08,1.08,0,0,1-.65,0,.4.4,0,0,1-.28-.39.65.65,0,0,1,.16-.38,2,2,0,0,1,.43-.36,3.56,3.56,0,0,1,.58-.31,2.83,2.83,0,0,1,.65-.17,1.92,1.92,0,0,1,1.32.45,1.52,1.52,0,0,1,.52,1.19l0,2.08c0,.13,0,.27,0,.42a1.43,1.43,0,0,0,0,.33l.75.14v.32l-.54.19-.27.09a.68.68,0,0,1-.21,0c-.23,0-.37-.13-.43-.39l-.1-.45h.15a3.2,3.2,0,0,1-.75.64A1.46,1.46,0,0,1,98.22,206.79Zm.25-.59a1.25,1.25,0,0,0,.56-.14,1.87,1.87,0,0,0,.51-.44v-1.27l-1.48.41a.75.75,0,0,0-.41.24.63.63,0,0,0-.12.4.73.73,0,0,0,.28.55A1,1,0,0,0,98.47,206.2Z"/><path class="cls-1" d="M101.89,206.7l0-.4.68-.17c0-.07,0-.19,0-.36s0-.38,0-.65,0-.59,0-1v-1.78c0-.3,0-.61,0-.93s0-.63,0-.93,0-.54,0-.74,0-.33,0-.38l-.88-.12,0-.33,1.53-.46.2.15c0,.28,0,.55,0,.82s0,.54,0,.81,0,.57,0,.86V205c0,.2,0,.38,0,.53s0,.27,0,.36,0,.16,0,.2l.73.17,0,.4Zm5,0H105.7c-.14-.2-.25-.34-.32-.43l-.23-.25-1.69-1.82h-.34V204l.49-.14,1.6-1.64-.78-.14,0-.4h2.31l0,.4-.78.14-2.15,2,.2-.39,1.61,1.72c.08.09.19.21.33.34s.25.25.36.34l.55.12Z"/><path class="cls-1" d="M109.28,206.79a1.77,1.77,0,0,1-.8-.18,1.55,1.55,0,0,1-.57-.46,1,1,0,0,1-.22-.62.86.86,0,0,1,.26-.63,2.47,2.47,0,0,1,.87-.46l1.79-.62v-.65a.86.86,0,0,0-.19-.56,1.12,1.12,0,0,0-.49-.39,1.56,1.56,0,0,0-.7-.14.55.55,0,0,0-.43.13,1,1,0,0,0-.14.53l0,.43a1.09,1.09,0,0,1-.65,0,.4.4,0,0,1-.27-.39.59.59,0,0,1,.16-.38,1.92,1.92,0,0,1,.42-.36,4,4,0,0,1,.58-.31,3,3,0,0,1,.65-.17,2,2,0,0,1,1.33.45,1.56,1.56,0,0,1,.52,1.19l0,2.08c0,.13,0,.27,0,.42a1,1,0,0,0,.06.33l.74.14v.32l-.53.19-.28.09a.59.59,0,0,1-.21,0q-.34,0-.42-.39l-.11-.45h.15a3.2,3.2,0,0,1-.75.64A1.46,1.46,0,0,1,109.28,206.79Zm.25-.59a1.22,1.22,0,0,0,.56-.14,2.07,2.07,0,0,0,.52-.44v-1.27l-1.48.41a.71.71,0,0,0-.41.24.64.64,0,0,0-.13.4.74.74,0,0,0,.29.55A.93.93,0,0,0,109.53,206.2Z"/><path class="cls-1" d="M112.92,206.7l0-.4.74-.17s0-.11,0-.22,0-.24,0-.41v-1.59c0-.28,0-.55,0-.82s0-.47,0-.6l-.76-.17V202l1.45-.4.14.15-.06,1h0a2.46,2.46,0,0,1,.73-.94,1.22,1.22,0,0,1,.68-.25.75.75,0,0,1,.43.13.45.45,0,0,1,.17.37.44.44,0,0,1-.18.38.74.74,0,0,1-.46.13.85.85,0,0,1-.38-.09,1.72,1.72,0,0,1-.34-.24l.18.08a2.22,2.22,0,0,0-.44.43,3.48,3.48,0,0,0-.39.67v1.15c0,.18,0,.37,0,.57s0,.4,0,.58,0,.31,0,.42l1,.15,0,.42Z"/><path class="cls-1" d="M120.63,206a1.66,1.66,0,0,1-.6.55,1.63,1.63,0,0,1-.76.2,1.57,1.57,0,0,1-1.14-.43,1.68,1.68,0,0,1-.45-1.28l0-2.88h-.83V202l1.39-1.34h.18l0,1.28v3a1.46,1.46,0,0,0,.27,1,1,1,0,0,0,.78.32,1.17,1.17,0,0,0,.53-.11,1.84,1.84,0,0,0,.43-.3Zm-2.54-3.84v-.54h2.17v.54Z"/><path class="cls-1" d="M122.86,206.79a1.74,1.74,0,0,1-.8-.18,1.58,1.58,0,0,1-.58-.46,1,1,0,0,1-.21-.62.86.86,0,0,1,.26-.63,2.3,2.3,0,0,1,.87-.46l1.78-.62v-.65a.91.91,0,0,0-.18-.56,1.18,1.18,0,0,0-.49-.39,1.59,1.59,0,0,0-.7-.14.54.54,0,0,0-.43.13.91.91,0,0,0-.14.53l0,.43a1.08,1.08,0,0,1-.65,0,.4.4,0,0,1-.28-.39.65.65,0,0,1,.16-.38,2,2,0,0,1,.43-.36,3.56,3.56,0,0,1,.58-.31,2.83,2.83,0,0,1,.65-.17,1.92,1.92,0,0,1,1.32.45,1.52,1.52,0,0,1,.52,1.19l0,2.08c0,.13,0,.27,0,.42a1.43,1.43,0,0,0,0,.33l.75.14v.32l-.54.19-.27.09a.68.68,0,0,1-.21,0c-.23,0-.37-.13-.43-.39l-.1-.45h.15a3.2,3.2,0,0,1-.75.64A1.46,1.46,0,0,1,122.86,206.79Zm.25-.59a1.25,1.25,0,0,0,.56-.14,1.87,1.87,0,0,0,.51-.44v-1.27l-1.48.41a.75.75,0,0,0-.41.24.63.63,0,0,0-.12.4.73.73,0,0,0,.28.55A1,1,0,0,0,123.11,206.2Z"/><path class="cls-1" d="M131,206.8a4.83,4.83,0,0,1-1.05-.12,3.32,3.32,0,0,1-.87-.32l-.06-1.47.44,0,.31,1a2.41,2.41,0,0,0,.65.3,2.7,2.7,0,0,0,.77.11,1.47,1.47,0,0,0,1-.3,1,1,0,0,0,.38-.82,1,1,0,0,0-.25-.7,2.22,2.22,0,0,0-.65-.49c-.26-.15-.54-.28-.84-.42a8.6,8.6,0,0,1-.84-.47,2.26,2.26,0,0,1-.65-.62,1.76,1.76,0,0,1,.06-1.9,2.07,2.07,0,0,1,.86-.67,2.89,2.89,0,0,1,1.24-.25,5.6,5.6,0,0,1,.6,0,3.74,3.74,0,0,1,.52.09,3.11,3.11,0,0,1,.43.14l.09,1.41-.44.05-.32-1a1.84,1.84,0,0,0-1-.25,1.6,1.6,0,0,0-1,.31,1,1,0,0,0-.37.8,1.08,1.08,0,0,0,.25.73,2.44,2.44,0,0,0,.65.52l.84.42a6.72,6.72,0,0,1,.84.46,2.42,2.42,0,0,1,.66.61,1.47,1.47,0,0,1,.25.88,1.69,1.69,0,0,1-.31,1,2.06,2.06,0,0,1-.87.68A3,3,0,0,1,131,206.8Z"/><path class="cls-1" d="M136.8,206.79a2.43,2.43,0,0,1-1.2-.3,2.1,2.1,0,0,1-.86-.86,2.76,2.76,0,0,1-.32-1.36,3.07,3.07,0,0,1,.33-1.47,2.42,2.42,0,0,1,.88-.94,2.11,2.11,0,0,1,1.17-.32,1.83,1.83,0,0,1,1.39.59,2.54,2.54,0,0,1,.51,1.72v.2H135v-.49h3l-.12.11v-.21a1.61,1.61,0,0,0-.32-1.09,1.09,1.09,0,0,0-.88-.39,1.27,1.27,0,0,0-.69.21,1.47,1.47,0,0,0-.52.62,2.3,2.3,0,0,0-.2,1V204a2.31,2.31,0,0,0,.48,1.56,1.57,1.57,0,0,0,1.25.56,1.65,1.65,0,0,0,.75-.16,2.14,2.14,0,0,0,.64-.55l.29.25a2.34,2.34,0,0,1-.82.88A2.11,2.11,0,0,1,136.8,206.79Z"/><path class="cls-1" d="M139.54,206.7l0-.41.77-.16a1.87,1.87,0,0,0,0-.38c0-.17,0-.4,0-.71s0-.69,0-1.18v-1.48c0-.3,0-.61,0-.94s0-.64,0-.93,0-.54,0-.74,0-.32,0-.37l-.87-.12,0-.33,1.54-.46.19.15c0,.34,0,.68,0,1s0,.7,0,1.1v3.42c0,.44,0,.85,0,1.22s0,.62,0,.74l.77.16,0,.41Z"/><path class="cls-1" d="M144.61,206.79a1.74,1.74,0,0,1-.8-.18,1.58,1.58,0,0,1-.58-.46,1,1,0,0,1-.21-.62.86.86,0,0,1,.26-.63,2.3,2.3,0,0,1,.87-.46l1.78-.62v-.65a.91.91,0,0,0-.18-.56,1.18,1.18,0,0,0-.49-.39,1.59,1.59,0,0,0-.7-.14.54.54,0,0,0-.43.13.91.91,0,0,0-.14.53l0,.43a1.08,1.08,0,0,1-.65,0,.4.4,0,0,1-.28-.39.65.65,0,0,1,.16-.38,2,2,0,0,1,.43-.36,3.56,3.56,0,0,1,.58-.31,2.83,2.83,0,0,1,.65-.17,1.92,1.92,0,0,1,1.32.45,1.52,1.52,0,0,1,.52,1.19l0,2.08c0,.13,0,.27,0,.42a1.43,1.43,0,0,0,.05.33l.75.14v.32l-.54.19-.27.09a.68.68,0,0,1-.21,0c-.23,0-.37-.13-.43-.39L146,206h.15a3.2,3.2,0,0,1-.75.64A1.46,1.46,0,0,1,144.61,206.79Zm.25-.59a1.25,1.25,0,0,0,.56-.14,1.87,1.87,0,0,0,.51-.44v-1.27l-1.48.41a.75.75,0,0,0-.41.24.63.63,0,0,0-.12.4.73.73,0,0,0,.28.55A1,1,0,0,0,144.86,206.2Z"/><path class="cls-1" d="M151.8,206a1.61,1.61,0,0,1-.61.55,1.64,1.64,0,0,1-1.89-.23,1.68,1.68,0,0,1-.45-1.28l0-2.88h-.83V202l1.4-1.34h.18l0,1.28,0,3a1.46,1.46,0,0,0,.28,1,1,1,0,0,0,.78.32,1.2,1.2,0,0,0,.53-.11,1.84,1.84,0,0,0,.43-.3Zm-2.54-3.84v-.54h2.17v.54Z"/><path class="cls-1" d="M154,206.79a1.74,1.74,0,0,1-.8-.18,1.5,1.5,0,0,1-.58-.46,1,1,0,0,1-.21-.62.82.82,0,0,1,.26-.63,2.33,2.33,0,0,1,.86-.46l1.79-.62v-.65a.91.91,0,0,0-.18-.56,1.18,1.18,0,0,0-.49-.39,1.59,1.59,0,0,0-.7-.14.56.56,0,0,0-.44.13.93.93,0,0,0-.13.53l0,.43a1.11,1.11,0,0,1-.66,0,.4.4,0,0,1-.27-.39.59.59,0,0,1,.16-.38,2,2,0,0,1,.43-.36,3.56,3.56,0,0,1,.58-.31,2.88,2.88,0,0,1,.64-.17,1.93,1.93,0,0,1,1.33.45,1.56,1.56,0,0,1,.52,1.19l0,2.08a3.1,3.1,0,0,0,0,.42,1.43,1.43,0,0,0,0,.33l.75.14v.32l-.54.19-.28.09a.58.58,0,0,1-.2,0c-.23,0-.37-.13-.43-.39l-.11-.45h.16a3.2,3.2,0,0,1-.75.64A1.49,1.49,0,0,1,154,206.79Zm.24-.59a1.26,1.26,0,0,0,.57-.14,2,2,0,0,0,.51-.44v-1.27l-1.48.41a.71.71,0,0,0-.41.24.63.63,0,0,0-.12.4.73.73,0,0,0,.28.55A1,1,0,0,0,154.27,206.2Z"/><path class="cls-1" d="M157.64,206.7l0-.4.74-.17c0-.07,0-.14,0-.23s0-.22,0-.39v-.66l0-.93c0-.26,0-.54,0-.82s0-.48-.06-.61l-.76-.17V202l1.45-.4.17.17-.06.62h0a3.14,3.14,0,0,1,.83-.64,2,2,0,0,1,.85-.19,1.61,1.61,0,0,1,1.43.86,2.41,2.41,0,0,1,.24,1.14v1.34c0,.29,0,.56,0,.79a2.71,2.71,0,0,0,0,.46l.73.17,0,.4h-2.22l0-.4.68-.17,0-.22c0-.09,0-.2,0-.35v-1.93a1.69,1.69,0,0,0-.2-.88,1.26,1.26,0,0,0-.49-.46,1.3,1.3,0,0,0-.56-.13,1.46,1.46,0,0,0-.77.21,1.87,1.87,0,0,0-.62.57v1.8c0,.39,0,.69,0,.91s0,.38,0,.48l.73.17,0,.4Z"/><path class="cls-1" d="M164.11,208.66l-.16-.29a1.93,1.93,0,0,0,.65-.48,1,1,0,0,0,.25-.7.6.6,0,0,0,0-.26,1.27,1.27,0,0,0-.13-.19c0-.05-.1-.11-.16-.16a.83.83,0,0,1-.13-.18.58.58,0,0,1-.06-.28.51.51,0,0,1,.17-.38.57.57,0,0,1,.42-.17.63.63,0,0,1,.35.11.83.83,0,0,1,.26.32,1.31,1.31,0,0,1,.09.52,2.11,2.11,0,0,1-.2.86,2.75,2.75,0,0,1-.54.77A2.12,2.12,0,0,1,164.11,208.66Z"/><path class="cls-1" d="M170.89,204.44c0,.4,0,.72,0,1s0,.42,0,.53,0,.19,0,.22l.94.15,0,.4H169.2l0-.4.91-.15c0-.05,0-.15,0-.3s0-.34,0-.58,0-.51,0-.83V201.9c0-.2,0-.4,0-.61s0-.4,0-.6l-1,.22,0-.45,1.85-.83c0,.21,0,.47,0,.79s0,.74,0,1.29Z"/><path class="cls-1" d="M173,206.72l-.05-.36a21.08,21.08,0,0,0,1.83-1.8,6.07,6.07,0,0,0,1-1.42,3,3,0,0,0,.3-1.28,1.57,1.57,0,0,0-.38-1.09,1.33,1.33,0,0,0-1-.41,1.87,1.87,0,0,0-1.64,1l-.28-.2a2.44,2.44,0,0,1,.85-1.09,2.21,2.21,0,0,1,1.28-.4,2.33,2.33,0,0,1,1.11.26,1.88,1.88,0,0,1,.75.7,2,2,0,0,1,.27,1.06,3.72,3.72,0,0,1-.8,2.1,11.67,11.67,0,0,1-2.43,2.35l.06-.19h2.82l.14,0,.4-1,.4,0-.22,1.86-.33,0h-3.6Z"/><path class="cls-1" d="M182.55,202.57a2.11,2.11,0,0,1-.76.88,1.91,1.91,0,0,1-1.06.32,2.07,2.07,0,0,1-1-.25,1.91,1.91,0,0,1-.72-.69,1.84,1.84,0,0,1-.27-1,2.12,2.12,0,0,1,.29-1.07,2.33,2.33,0,0,1,.8-.82,2.17,2.17,0,0,1,1.16-.32,2.41,2.41,0,0,1,1.24.32,2.14,2.14,0,0,1,.82.89,3.06,3.06,0,0,1,.29,1.38,4.55,4.55,0,0,1-1.11,3,4.52,4.52,0,0,1-1.26,1,5.13,5.13,0,0,1-1.62.58l-.18-.47a5.05,5.05,0,0,0,1.76-.84,3.55,3.55,0,0,0,1.1-1.39,4.51,4.51,0,0,0,.37-1.88,3.47,3.47,0,0,0-.17-1.14,1.73,1.73,0,0,0-.51-.75,1.28,1.28,0,0,0-.82-.27,1.14,1.14,0,0,0-.89.41,1.56,1.56,0,0,0-.36,1.07,1.51,1.51,0,0,0,.4,1.07,1.36,1.36,0,0,0,1,.41,1.45,1.45,0,0,0,.55-.1,1.33,1.33,0,0,0,.49-.3,1.89,1.89,0,0,0,.42-.5Z"/><path class="cls-1" d="M186.91,203l0-.13a2.59,2.59,0,0,1,1.51.51,1.56,1.56,0,0,1,.56,1.26,1.84,1.84,0,0,1-.38,1.11,2.73,2.73,0,0,1-1,.8,3.1,3.1,0,0,1-1.32.29,3,3,0,0,1-.84-.1,1.39,1.39,0,0,1-.57-.3.6.6,0,0,1-.2-.44.41.41,0,0,1,.4-.4.76.76,0,0,1,.32.06,1.57,1.57,0,0,1,.36.25l.71.59-.62-.17a2.45,2.45,0,0,0,1.16-.07,1.75,1.75,0,0,0,.81-.55,1.4,1.4,0,0,0,.29-.91,1.36,1.36,0,0,0-.42-1,1.65,1.65,0,0,0-1.15-.39h-.34l-.37,0-.05-.48a2.64,2.64,0,0,0,1.39-.47,1.19,1.19,0,0,0,.46-1,1,1,0,0,0-.34-.81,1.44,1.44,0,0,0-.94-.28,1.93,1.93,0,0,0-.79.17,1.89,1.89,0,0,0-.68.56l-.28-.2a2.12,2.12,0,0,1,.82-.91,2.38,2.38,0,0,1,1.21-.34,2,2,0,0,1,1.33.43,1.4,1.4,0,0,1,.5,1.1,1.59,1.59,0,0,1-.42,1.09A2.51,2.51,0,0,1,186.91,203Z"/><path class="cls-1" d="M193.06,206.8a2.42,2.42,0,0,1-1.45-.45,2.83,2.83,0,0,1-1-1.25,4.71,4.71,0,0,1-.34-1.86,4.47,4.47,0,0,1,.36-1.86,3.2,3.2,0,0,1,1-1.28,2.33,2.33,0,0,1,1.42-.47,2.22,2.22,0,0,1,1.36.45,3,3,0,0,1,.93,1.25,4.78,4.78,0,0,1,.33,1.85,4.71,4.71,0,0,1-.34,1.84,3.21,3.21,0,0,1-1,1.3A2.11,2.11,0,0,1,193.06,206.8Zm.05-.51a1.21,1.21,0,0,0,.86-.35,2.47,2.47,0,0,0,.58-1,4.72,4.72,0,0,0,.21-1.48,5.16,5.16,0,0,0-.48-2.43,1.44,1.44,0,0,0-1.28-.89,1.4,1.4,0,0,0-1.26.77,4.12,4.12,0,0,0-.46,2.14,5.83,5.83,0,0,0,.23,1.7,2.61,2.61,0,0,0,.64,1.14A1.31,1.31,0,0,0,193.11,206.29Z"/><path class="cls-1" d="M118.86,152.44l-.43-.53c-.5-.61-12.2-15.09-12.2-25.25a12.66,12.66,0,1,1,25.31,0c0,11.35-11.72,24.7-12.22,25.27Z"/><path class="cls-2" d="M118.88,120.14a6.17,6.17,0,1,0,6.17,6.17A6.17,6.17,0,0,0,118.88,120.14Z"/><path class="cls-1" d="M49.9,61.89h3.15l3.59,8h-.36l3.43-8h3l0,.72-1.08.22c0,.13,0,.41,0,.82s0,.89,0,1.44l.09,3.1c0,.53,0,1,0,1.38s0,.69.05.92,0,.4,0,.49l1.06.24,0,.72H59L59,71.22,60,71a4.1,4.1,0,0,0,0-.43v-.81c0-.35,0-.81,0-1.36l0-6h.55L56.42,72h-.74l-4.34-9.62H52l0,5.83v2c0,.4,0,.66,0,.76l1.18.24-.05.72H49.66l0-.72L50.79,71a4.17,4.17,0,0,0,0-.46q0-.34,0-.87c0-.35,0-.74,0-1.19l0-3.35c0-.56,0-1,0-1.43s0-.66,0-.83l-1.06-.24Z"/><path class="cls-1" d="M64.52,71.94l0-.72L65.53,71a1.89,1.89,0,0,0,0-.41c0-.22,0-.51,0-.88V64.12c0-.37,0-.66,0-.88a1.4,1.4,0,0,0,0-.39l-1.06-.24,0-.72h3.94l.05.72-1.06.24a.94.94,0,0,0-.06.37c0,.21,0,.49,0,.86s0,.81,0,1.35v3c0,.52,0,1,0,1.33s0,.64,0,.84a1.21,1.21,0,0,0,.06.4l1.06.24-.05.72Z"/><path class="cls-1" d="M77.92,69.25V65.81c0-.64,0-1.17,0-1.6s0-.74,0-1a1.5,1.5,0,0,0-.05-.4l-1.16-.24,0-.72h3.37l0,.72-1.08.24s0,.18,0,.4,0,.54,0,1,0,1,0,1.6v5c0,.39,0,.79,0,1.18h-.86l-6.49-8.3h.55v4.21c0,.67,0,1.22,0,1.66s0,.77,0,1,0,.36,0,.42l1.18.24,0,.72H70l0-.72L71,71a1.94,1.94,0,0,0,0-.43c0-.23,0-.56,0-1s0-1,0-1.64V65.19c0-.46,0-.85,0-1.18s0-.59,0-.79a1.5,1.5,0,0,0,0-.37L70,62.61l0-.72h2.46l5.89,7.36Z"/><path class="cls-1" d="M87.24,72.09a6.84,6.84,0,0,1-2.85-.57,4.61,4.61,0,0,1-2-1.71A5,5,0,0,1,81.67,67a5.42,5.42,0,0,1,.41-2.1,5.16,5.16,0,0,1,1.16-1.68,5.3,5.3,0,0,1,1.81-1.13,7.12,7.12,0,0,1,2.43-.4,8.13,8.13,0,0,1,1.51.15,6,6,0,0,1,1.36.4l.09,2.29-.84.07-.51-1.54a2.26,2.26,0,0,0-.84-.31,4.47,4.47,0,0,0-.93-.1,3.67,3.67,0,0,0-2,.52,3.15,3.15,0,0,0-1.16,1.43,5.33,5.33,0,0,0-.38,2,5.39,5.39,0,0,0,.5,2.41,3.47,3.47,0,0,0,3.23,2,4,4,0,0,0,.92-.11,2.63,2.63,0,0,0,.9-.4l-.38.94V69.75c0-.34,0-.64,0-.93a6.35,6.35,0,0,0-.06-.65L87.68,68l0-.73h3.63l.05.7-.79.22c0,.07,0,.22,0,.45s0,.49,0,.79,0,.61,0,.88,0,.56,0,.88a5.6,5.6,0,0,1-1.63.69A6.82,6.82,0,0,1,87.24,72.09Z"/><path class="cls-1" d="M98.38,72.09a6.84,6.84,0,0,1-2.85-.57,4.52,4.52,0,0,1-2-1.71A5,5,0,0,1,92.82,67a5.42,5.42,0,0,1,.41-2.1,5,5,0,0,1,1.16-1.68,5.2,5.2,0,0,1,1.81-1.13,7,7,0,0,1,2.42-.4,8.23,8.23,0,0,1,1.52.15,6.11,6.11,0,0,1,1.36.4l.09,2.29-.84.07-.52-1.54a2.26,2.26,0,0,0-.84-.31,4.45,4.45,0,0,0-.92-.1,3.65,3.65,0,0,0-2,.52,3.17,3.17,0,0,0-1.17,1.43,5.33,5.33,0,0,0-.37,2,5.4,5.4,0,0,0,.49,2.41,3.62,3.62,0,0,0,1.35,1.51,3.57,3.57,0,0,0,1.89.51,4,4,0,0,0,.92-.11,2.81,2.81,0,0,0,.9-.4l-.38.94V69.75c0-.34,0-.64,0-.93s0-.5,0-.65L98.83,68l0-.73h3.63l.05.7-.78.22a2.67,2.67,0,0,0,0,.45c0,.23,0,.49,0,.79s0,.61,0,.88,0,.56,0,.88a5.55,5.55,0,0,1-1.64.69A6.77,6.77,0,0,1,98.38,72.09Z"/><path class="cls-1" d="M103.86,61.89h3.92l0,.72-1.06.25q0,.11,0,.39c0,.19,0,.45,0,.79s0,.81,0,1.39v2.36a4.37,4.37,0,0,0,.34,1.72,2.14,2.14,0,0,0,.89,1,2.76,2.76,0,0,0,1.36.31,2.63,2.63,0,0,0,1.32-.32,2.13,2.13,0,0,0,.84-1,4.77,4.77,0,0,0,.29-1.8v-2c0-.55,0-1,0-1.44s0-.74,0-1a3.15,3.15,0,0,0,0-.46l-1.2-.25,0-.72H114l.05.72-1.06.25a3,3,0,0,0,0,.37q0,.32,0,.93c0,.4,0,.93,0,1.58v2.1a5.21,5.21,0,0,1-.48,2.37,3.35,3.35,0,0,1-1.35,1.41,4,4,0,0,1-2,.47A4.14,4.14,0,0,1,106,71,4,4,0,0,1,105,68V65.43c0-.58,0-1.05,0-1.42s0-.64,0-.82a2.39,2.39,0,0,0,0-.33l-1.06-.25Z"/><path class="cls-1" d="M115.26,75.14l-.27-.57a3.1,3.1,0,0,0,1.17-.79,1.57,1.57,0,0,0,.39-1,1,1,0,0,0-.11-.49,1.43,1.43,0,0,0-.28-.32l-.32-.29a1.6,1.6,0,0,1-.28-.35,1.14,1.14,0,0,1-.11-.52,1,1,0,0,1,.34-.76,1.17,1.17,0,0,1,.84-.32,1.3,1.3,0,0,1,.65.18,1.2,1.2,0,0,1,.5.58,2.28,2.28,0,0,1,.19,1,3.64,3.64,0,0,1-.32,1.47,4,4,0,0,1-.92,1.29A4.65,4.65,0,0,1,115.26,75.14Z"/><path class="cls-1" d="M128.93,69.2c0,.6,0,1,0,1.26s0,.4,0,.52l1.06.25,0,.71H125.9l-.05-.71,1.42-.25c0-.12,0-.29,0-.52V63.63l.29.11-3.47,4.62,0-.36h6.36v1.2h-7.58l-.14-.65,5.4-6.73H129c0,.41,0,.84,0,1.28s0,.9,0,1.37Z"/><path class="cls-1" d="M138.19,62.85a1.31,1.31,0,0,0-.06.36q0,.32,0,.87c0,.36,0,.81,0,1.33v6.32a5,5,0,0,1-.36,2,2.92,2.92,0,0,1-1,1.27,2.67,2.67,0,0,1-1.55.43,2.77,2.77,0,0,1-1.47-.37,1.09,1.09,0,0,1-.61-.91.69.69,0,0,1,.19-.52.75.75,0,0,1,.52-.18,1.24,1.24,0,0,1,.5.1,1.68,1.68,0,0,1,.5.36l1,1-.7-.26a1,1,0,0,0,.75-.12,1.06,1.06,0,0,0,.4-.7,6.5,6.5,0,0,0,.12-1.42v-7c0-.48,0-.9,0-1.25s0-.65,0-.88a1.73,1.73,0,0,0,0-.42l-1.18-.24,0-.72h4.06l.05.72Z"/><path class="cls-1" d="M139.88,71.94l0-.72.86-.24,3.51-8.73,1.13-.67,3.78,9.4.87.24-.05.72h-3.8l-.05-.72,1.06-.24-1-2.45L146,68l-1.84-4.45.43-.12L142.93,68l-.19.52L141.87,71l1.06.24,0,.72Zm2.5-3.09v-1l.85,0h2.6l.83,0v1l-1,0-1.12,0-1.07,0Z"/><path class="cls-1" d="M158.67,69.25V65.81c0-.64,0-1.17,0-1.6s0-.74,0-1a1.16,1.16,0,0,0-.05-.4l-1.16-.24,0-.72h3.37l.06.72-1.08.24s0,.18,0,.4,0,.54,0,1,0,1,0,1.6v5c0,.39,0,.79,0,1.18h-.86l-6.49-8.3h.55v4.21c0,.67,0,1.22,0,1.66s0,.77,0,1,0,.36,0,.42l1.19.24-.06.72h-3.42l-.05-.72,1.06-.24a1.94,1.94,0,0,0,.05-.43c0-.23,0-.56,0-1s0-1,0-1.64V65.19c0-.46,0-.85,0-1.18s0-.59,0-.79a1.5,1.5,0,0,0-.05-.37l-1.06-.24.05-.72h2.46l5.89,7.36Z"/><path class="cls-1" d="M162.31,61.89h3.92l.05.72-1.06.25q0,.11,0,.39c0,.19,0,.45,0,.79s0,.81,0,1.39v2.36a4.37,4.37,0,0,0,.34,1.72,2.14,2.14,0,0,0,.89,1,2.79,2.79,0,0,0,1.36.31,2.63,2.63,0,0,0,1.32-.32,2.13,2.13,0,0,0,.84-1,4.77,4.77,0,0,0,.29-1.8v-2c0-.55,0-1,0-1.44s0-.74,0-1a2.13,2.13,0,0,0,0-.46l-1.2-.25.05-.72h3.47l.06.72-1.07.25a3,3,0,0,0,0,.37q0,.32,0,.93v3.68a5.2,5.2,0,0,1-.49,2.37,3.35,3.35,0,0,1-1.35,1.41,4,4,0,0,1-2,.47,4.14,4.14,0,0,1-3-1.06,4,4,0,0,1-1.08-3V65.43c0-.58,0-1.05,0-1.42l0-.82a2.39,2.39,0,0,0,0-.33l-1.06-.25Z"/><path class="cls-1" d="M172.89,71.94l0-.72.86-.24,3.51-8.73,1.13-.67,3.78,9.4.87.24,0,.72h-3.8l0-.72,1.06-.24-1-2.45L179,68l-1.84-4.45.43-.12L175.94,68l-.19.52L174.88,71l1.06.24,0,.72Zm2.5-3.09v-1l.85,0h2.59l.84,0v1l-1,0-1.12,0-1.08,0Z"/><path class="cls-1" d="M183.78,71.94l0-.72,1.06-.26c0-.08,0-.21,0-.38s0-.39,0-.63,0-.49,0-.75V64.11q0-.54,0-.87a1.4,1.4,0,0,0-.05-.39l-1.08-.24,0-.72h4a4.47,4.47,0,0,1,2.61.62,2.16,2.16,0,0,1,.87,1.88,2.44,2.44,0,0,1-.48,1.49,3.18,3.18,0,0,1-1.33,1,4.73,4.73,0,0,1-1.94.38h-1.08v-.83h.89a2.17,2.17,0,0,0,1.56-.53,1.86,1.86,0,0,0,.56-1.45,1.75,1.75,0,0,0-.48-1.33,2,2,0,0,0-1.4-.45h-.89a.71.71,0,0,0,0,.19c0,.09,0,.23,0,.42v5.09c0,.43,0,.82,0,1.16s0,.64,0,.87,0,.41,0,.52l1,.26,0,.72Zm8.37.17a3.7,3.7,0,0,1-1.44-.28,3.38,3.38,0,0,1-1.2-1,10.22,10.22,0,0,1-1.14-1.75L187.28,67l1.45-.34,1.92,2.76a10.06,10.06,0,0,0,.81,1,3.09,3.09,0,0,0,.75.6,2.75,2.75,0,0,0,.82.29l0,.67-.42,0Z"/><path class="cls-1" d="M193.71,71.94l-.05-.72,1.06-.24a1.4,1.4,0,0,0,.05-.41c0-.22,0-.51,0-.88s0-.79,0-1.28v-3c0-.5,0-.94,0-1.31s0-.66,0-.88a1.08,1.08,0,0,0-.05-.39l-1.06-.24.05-.72h3.94l0,.72-1.06.24a1.65,1.65,0,0,0-.06.37c0,.21,0,.49,0,.86s0,.81,0,1.35v3c0,.52,0,1,0,1.33s0,.64,0,.84a2.27,2.27,0,0,0,.06.4l1.06.24,0,.72Z"/><path class="cls-1" d="M202.56,72l-.05-.7a26.55,26.55,0,0,0,2.53-2.4,8.31,8.31,0,0,0,1.37-2,4.21,4.21,0,0,0,.42-1.78,2.08,2.08,0,0,0-.51-1.46,1.78,1.78,0,0,0-1.39-.56,2.5,2.5,0,0,0-2.21,1.34l-.57-.4a3.73,3.73,0,0,1,1.33-1.7,3.7,3.7,0,0,1,3.67-.23,2.71,2.71,0,0,1,1.12,1,3,3,0,0,1,.41,1.59,4.89,4.89,0,0,1-1.16,2.92,14.29,14.29,0,0,1-3.38,3l0-.24h3.39a2.49,2.49,0,0,0,.41,0,1.63,1.63,0,0,0,.33,0l.55-1.35.82.09L209.21,72l-.61,0h-5.39Z"/><path class="cls-1" d="M215.37,72.09a3.93,3.93,0,0,1-2.22-.64,4.21,4.21,0,0,1-1.49-1.8,6.25,6.25,0,0,1-.54-2.68,6.32,6.32,0,0,1,.56-2.72,4.52,4.52,0,0,1,1.53-1.85,3.78,3.78,0,0,1,2.19-.67,3.55,3.55,0,0,1,2.1.64,4.12,4.12,0,0,1,1.43,1.78,6.33,6.33,0,0,1,.52,2.67,6.42,6.42,0,0,1-.54,2.68,4.79,4.79,0,0,1-1.47,1.9A3.35,3.35,0,0,1,215.37,72.09Zm.12-1a1.53,1.53,0,0,0,1.1-.45,3,3,0,0,0,.72-1.31,9.06,9.06,0,0,0-.39-5.46,1.89,1.89,0,0,0-1.67-1.24,1.78,1.78,0,0,0-1.6,1,6,6,0,0,0-.59,2.94,7.94,7.94,0,0,0,.31,2.36,3.72,3.72,0,0,0,.85,1.57A1.75,1.75,0,0,0,215.49,71.1Z"/><path class="cls-1" d="M221,72l-.05-.7a25.15,25.15,0,0,0,2.52-2.4,8,8,0,0,0,1.37-2,4.21,4.21,0,0,0,.42-1.78,2.07,2.07,0,0,0-.5-1.46,1.8,1.8,0,0,0-1.4-.56,2.49,2.49,0,0,0-2.2,1.34l-.57-.4a3.73,3.73,0,0,1,1.33-1.7,3.7,3.7,0,0,1,3.67-.23,2.77,2.77,0,0,1,1.12,1,3,3,0,0,1,.4,1.59A4.87,4.87,0,0,1,226,67.67a14.29,14.29,0,0,1-3.38,3l0-.24H226a2.49,2.49,0,0,0,.41,0,1.75,1.75,0,0,0,.33,0l.54-1.35.83.09L227.66,72l-.6,0h-5.4Z"/><path class="cls-1" d="M231.26,67.66a4.24,4.24,0,0,1,1.21-1.28,2.58,2.58,0,0,1,1.46-.49,2.87,2.87,0,0,1,1.47.38,2.81,2.81,0,0,1,1.42,2.5,3.16,3.16,0,0,1-.46,1.67,3.38,3.38,0,0,1-1.25,1.21,3.78,3.78,0,0,1-3.65-.06,3.3,3.3,0,0,1-1.27-1.37,4.37,4.37,0,0,1-.45-2,6.56,6.56,0,0,1,.42-2.34,6.34,6.34,0,0,1,1.24-2,7.11,7.11,0,0,1,2-1.49,8.39,8.39,0,0,1,2.57-.79l.28.85a7.49,7.49,0,0,0-2.58,1.16,4.68,4.68,0,0,0-1.54,1.93,6.77,6.77,0,0,0-.51,2.74,4.47,4.47,0,0,0,.24,1.53,2.37,2.37,0,0,0,.65,1,1.47,1.47,0,0,0,1,.38,1.37,1.37,0,0,0,1.13-.55,2.13,2.13,0,0,0,.44-1.38,2.21,2.21,0,0,0-.49-1.51,1.6,1.6,0,0,0-1.29-.57,2.08,2.08,0,0,0-.78.15,2.2,2.2,0,0,0-.67.41,3.52,3.52,0,0,0-.54.61Z"/><path class="cls-1" d="M49.57,85.24l0-.41.67-.16a1.06,1.06,0,0,0,0-.18c0-.09,0-.25,0-.49V80.47c0-.42,0-.74,0-1s0-.38,0-.46,0-.15,0-.17l-.73-.18,0-.41h2.39a2.7,2.7,0,0,1,1.73.51,1.79,1.79,0,0,1,.64,1.48A1.9,1.9,0,0,1,54,81.42a2.15,2.15,0,0,1-.89.74,2.76,2.76,0,0,1-1.19.25,4.12,4.12,0,0,1-.51,0l-.45-.06v-.58l.52.11a2.83,2.83,0,0,0,.41,0A1.75,1.75,0,0,0,53,81.53a1.35,1.35,0,0,0,.41-1.1A1.56,1.56,0,0,0,53,79.18a1.6,1.6,0,0,0-1.11-.41h-.72v.34c0,.17,0,.38,0,.62s0,.49,0,.74V83c0,.43,0,.76,0,1s0,.39,0,.48a1.53,1.53,0,0,1,0,.18l1,.15,0,.44Z"/><path class="cls-1" d="M60.06,84.48l.74.19V85l-1.41.33-.13-.14,0-.72,0,0a2.14,2.14,0,0,1-.71.66,1.61,1.61,0,0,1-.76.19,1.87,1.87,0,0,1-1.31-.48,1.79,1.79,0,0,1-.54-1.43v-1c0-.24,0-.47,0-.7s0-.44,0-.65l-.8-.17v-.35l1.47-.41.16.18c0,.25,0,.5,0,.76s0,.54,0,.83v1.37a1.41,1.41,0,0,0,.36,1.1,1.32,1.32,0,0,0,.93.32,1.52,1.52,0,0,0,1.31-.78v-2c0-.17,0-.34,0-.5a3.58,3.58,0,0,0,0-.4l-.86-.17v-.35l1.53-.41.14.16c0,.23,0,.44,0,.61s0,.33,0,.49v1.36c0,.51,0,.9,0,1.17S60.05,84.37,60.06,84.48Z"/><path class="cls-1" d="M61.62,85.24l0-.39.67-.18a2.61,2.61,0,0,0,0-.35c0-.17,0-.38,0-.65s0-.59,0-1V80.93c0-.3,0-.61,0-.94s0-.63,0-.92,0-.54,0-.74,0-.33,0-.38l-.87-.12,0-.33L62.9,77l.2.16c0,.27,0,.55,0,.81s0,.54,0,.82,0,.56,0,.86v3.9c0,.21,0,.39,0,.54s0,.27,0,.36a1.58,1.58,0,0,1,0,.19l.73.18,0,.39Zm5,0H65.44l-.33-.42-.23-.25L63.2,82.74h-.35v-.23l.49-.15L65,80.73l-.78-.14,0-.41H66.5l0,.41-.79.14-2.15,2,.2-.39L65.4,84l.33.35c.14.13.25.25.36.34l.55.12Z"/><path class="cls-1" d="M71.88,84.48l.75.19V85l-1.41.33-.13-.14V84.5l0,0a2.22,2.22,0,0,1-.7.66,1.69,1.69,0,0,1-.77.19,1.87,1.87,0,0,1-1.31-.48,1.79,1.79,0,0,1-.54-1.43v-1c0-.24,0-.47,0-.7s0-.44,0-.65l-.81-.17v-.35l1.47-.41.17.18,0,.76c0,.26,0,.54,0,.83v1.37a1.41,1.41,0,0,0,.36,1.1,1.32,1.32,0,0,0,.93.32,1.67,1.67,0,0,0,.69-.17,1.64,1.64,0,0,0,.62-.61v-2c0-.17,0-.34,0-.5a3.58,3.58,0,0,0,0-.4l-.86-.17v-.35l1.53-.41.14.16c0,.23,0,.44,0,.61v1.85q0,.76,0,1.17C71.86,84.17,71.87,84.37,71.88,84.48Z"/><path class="cls-1" d="M73.35,85.24l0-.4.78-.17a3.18,3.18,0,0,0,0-.38c0-.16,0-.4,0-.7V80c0-.33,0-.64,0-.93s0-.54,0-.74V78l-.88-.12,0-.33L74.75,77l.19.16,0,1c0,.34,0,.7,0,1.11v3.42c0,.44,0,.85,0,1.22s0,.61,0,.73l.77.17,0,.4Z"/><path class="cls-1" d="M81.75,85.35a2.42,2.42,0,0,1-1.45-.45,2.8,2.8,0,0,1-1-1.26A4.64,4.64,0,0,1,79,81.78a4.54,4.54,0,0,1,.36-1.86,3.17,3.17,0,0,1,1-1.27,2.33,2.33,0,0,1,1.42-.47,2.18,2.18,0,0,1,1.36.45,2.92,2.92,0,0,1,.93,1.25,5.25,5.25,0,0,1,0,3.69,3.21,3.21,0,0,1-1,1.3A2.13,2.13,0,0,1,81.75,85.35Zm0-.51a1.2,1.2,0,0,0,.86-.36,2.36,2.36,0,0,0,.58-1A4.76,4.76,0,0,0,83.45,82,5.14,5.14,0,0,0,83,79.58a1.44,1.44,0,0,0-1.28-.89,1.4,1.4,0,0,0-1.26.77A4.08,4.08,0,0,0,80,81.59a5.85,5.85,0,0,0,.23,1.71,2.61,2.61,0,0,0,.64,1.14A1.31,1.31,0,0,0,81.8,84.84Z"/><path class="cls-1" d="M88.19,85.35a2.79,2.79,0,0,1-1.2-.24,1.88,1.88,0,0,1-.79-.64,1.62,1.62,0,0,1-.28-.93,1.58,1.58,0,0,1,.46-1.17,2.59,2.59,0,0,1,1.24-.66l.43.13a2.61,2.61,0,0,0-1,.73,1.43,1.43,0,0,0-.3.87,1.33,1.33,0,0,0,.4,1,1.58,1.58,0,0,0,1.19.42,1.55,1.55,0,0,0,1-.31,1,1,0,0,0,.37-.85,1.15,1.15,0,0,0-.25-.77,2,2,0,0,0-.66-.52c-.27-.14-.55-.27-.86-.4a6.15,6.15,0,0,1-.85-.43,2.08,2.08,0,0,1-.66-.62,1.78,1.78,0,0,1,0-1.87,1.92,1.92,0,0,1,.76-.64,2.4,2.4,0,0,1,1.07-.24,2.26,2.26,0,0,1,1,.23,1.83,1.83,0,0,1,.73.61,1.52,1.52,0,0,1,.26.88A1.88,1.88,0,0,1,90,81a2.63,2.63,0,0,1-.91.76l-.28-.15a2.79,2.79,0,0,0,.56-.76,2,2,0,0,0,.17-.82,1.4,1.4,0,0,0-.34-1A1.44,1.44,0,0,0,87.35,79a1,1,0,0,0-.35.83,1.16,1.16,0,0,0,.25.78,2,2,0,0,0,.66.52c.28.15.56.28.86.41s.59.28.86.43a2.26,2.26,0,0,1,.67.59,1.42,1.42,0,0,1,.26.88,1.84,1.84,0,0,1-.29,1,2.1,2.1,0,0,1-.83.69A2.88,2.88,0,0,1,88.19,85.35Z"/><path class="cls-1" d="M92.62,85.36a.66.66,0,0,1-.47-.18.6.6,0,0,1-.18-.45.62.62,0,0,1,.08-.31.69.69,0,0,1,.23-.22.62.62,0,0,1,.33-.08.64.64,0,0,1,.47.17.6.6,0,0,1,.18.44.6.6,0,0,1-.18.45A.6.6,0,0,1,92.62,85.36Z"/><path class="cls-1" d="M97,85.35a2.39,2.39,0,0,1-1.44-.45,2.89,2.89,0,0,1-1-1.26,4.64,4.64,0,0,1-.34-1.86,4.54,4.54,0,0,1,.36-1.86,3.26,3.26,0,0,1,1-1.27,2.36,2.36,0,0,1,1.43-.47,2.2,2.2,0,0,1,1.36.45,3,3,0,0,1,.92,1.25,5.25,5.25,0,0,1,0,3.69,3.21,3.21,0,0,1-1,1.3A2.11,2.11,0,0,1,97,85.35Zm0-.51a1.18,1.18,0,0,0,.86-.36,2.26,2.26,0,0,0,.58-1A4.47,4.47,0,0,0,98.75,82a5.14,5.14,0,0,0-.48-2.43A1.45,1.45,0,0,0,97,78.69a1.41,1.41,0,0,0-1.26.77,4.18,4.18,0,0,0-.46,2.13,5.85,5.85,0,0,0,.23,1.71,2.61,2.61,0,0,0,.64,1.14A1.32,1.32,0,0,0,97.09,84.84Z"/><path class="cls-1" d="M103.77,85.35a2.42,2.42,0,0,1-1.45-.45,2.87,2.87,0,0,1-1-1.26,4.64,4.64,0,0,1-.34-1.86,4.54,4.54,0,0,1,.36-1.86,3.17,3.17,0,0,1,1-1.27,2.33,2.33,0,0,1,1.42-.47,2.21,2.21,0,0,1,1.37.45,3,3,0,0,1,.92,1.25,5.25,5.25,0,0,1,0,3.69,3.21,3.21,0,0,1-.95,1.3A2.11,2.11,0,0,1,103.77,85.35Zm0-.51a1.18,1.18,0,0,0,.86-.36,2.26,2.26,0,0,0,.58-1,4.75,4.75,0,0,0,.22-1.48,5.14,5.14,0,0,0-.48-2.43,1.45,1.45,0,0,0-1.29-.89,1.4,1.4,0,0,0-1.26.77,4.18,4.18,0,0,0-.46,2.13,5.85,5.85,0,0,0,.23,1.71,2.61,2.61,0,0,0,.64,1.14A1.31,1.31,0,0,0,103.82,84.84Z"/><path class="cls-1" d="M115.08,79.88l-2.14,5.4h-.47l-2.42-6.42-.59-.16,0-.41h2.12l0,.41-.59.14,2,5.34h-.15l2-5.23Zm1.63,5.4-2.37-6.42-.6-.16,0-.41H116l0,.41-.71.14,1.92,5.34h-.17L119,78.86l-.84-.16,0-.41h2.12l0,.41-.6.16-2.52,6.42Z"/><path class="cls-1" d="M121,85.24l0-.41.71-.16a.68.68,0,0,0,0-.26c0-.13,0-.32,0-.56V79.67c0-.24,0-.43,0-.56a.58.58,0,0,0,0-.25L121,78.7l0-.41h2.33l0,.41-.72.16a.93.93,0,0,0,0,.21c0,.12,0,.3,0,.54s0,.57,0,1V83c0,.39,0,.71,0,1s0,.42,0,.53a1.23,1.23,0,0,0,0,.22l.72.16,0,.41Z"/><path class="cls-1" d="M125.24,84.67a5,5,0,0,0,0-.55c0-.3,0-.69,0-1.16V80.59c0-.52,0-.94,0-1.25a4.39,4.39,0,0,0,0-.53l-.73-.1,0-.42h2.67a2.93,2.93,0,0,1,1.73.43,1.52,1.52,0,0,1,.1,2.34,2.16,2.16,0,0,1-1.29.52l-.2-.08a2.9,2.9,0,0,1,1.74.48,1.5,1.5,0,0,1,.6,1.27,1.69,1.69,0,0,1-.79,1.45,3.72,3.72,0,0,1-2.12.54h-2.44l0-.41Zm.9-1.52c0,.35,0,.67,0,1s0,.47,0,.53l.43,0,.42,0a2.7,2.7,0,0,0,1.49-.33,1.2,1.2,0,0,0,.48-1,1.22,1.22,0,0,0-.51-1.07,2.6,2.6,0,0,0-1.51-.37h-.71a1.23,1.23,0,0,0-.29,0v-.57l.46,0,.48,0a2,2,0,0,0,1.28-.36,1.2,1.2,0,0,0,.45-1,1.15,1.15,0,0,0-.42-1,1.85,1.85,0,0,0-1.17-.33h-.89c0,.06,0,.24,0,.55v3.83Z"/><path class="cls-1" d="M133.68,83.15v-.72l2.43-.31v.71Z"/><path class="cls-1" d="M142,85.35a4.17,4.17,0,0,1-1-.13,3,3,0,0,1-.87-.31L140,83.44l.43,0,.31,1a2.56,2.56,0,0,0,.65.3,2.76,2.76,0,0,0,.77.1,1.49,1.49,0,0,0,1-.29,1.1,1.1,0,0,0,.12-1.52,2.37,2.37,0,0,0-.64-.5l-.84-.42a5.64,5.64,0,0,1-.84-.46,2.21,2.21,0,0,1-.66-.63,1.57,1.57,0,0,1-.25-.91,1.62,1.62,0,0,1,.31-1,2.24,2.24,0,0,1,.86-.67,3.1,3.1,0,0,1,1.25-.24,5.41,5.41,0,0,1,.59,0,4.18,4.18,0,0,1,.53.09,3.62,3.62,0,0,1,.43.14l.08,1.41-.44,0-.32-1a1.72,1.72,0,0,0-1-.25,1.52,1.52,0,0,0-1,.31,1,1,0,0,0-.38.79,1.11,1.11,0,0,0,.25.74,2.32,2.32,0,0,0,.66.51c.26.15.54.29.84.43a8.52,8.52,0,0,1,.84.46,2.37,2.37,0,0,1,.65.61,1.47,1.47,0,0,1,.25.88,1.64,1.64,0,0,1-.31,1,2.11,2.11,0,0,1-.86.69A3,3,0,0,1,142,85.35Z"/><path class="cls-1" d="M147.81,85.34a2.43,2.43,0,0,1-1.2-.3,2.29,2.29,0,0,1-.86-.86,2.8,2.8,0,0,1-.32-1.37,3,3,0,0,1,.34-1.46,2.4,2.4,0,0,1,.87-.94,2.13,2.13,0,0,1,1.17-.32,1.78,1.78,0,0,1,1.39.59,2.54,2.54,0,0,1,.51,1.72v.2H146v-.5h3l-.12.12V82a1.64,1.64,0,0,0-.33-1.1,1.11,1.11,0,0,0-.88-.38,1.31,1.31,0,0,0-.68.2,1.52,1.52,0,0,0-.53.63,2.41,2.41,0,0,0-.2,1v.12a2.26,2.26,0,0,0,.49,1.56,1.56,1.56,0,0,0,1.24.56,1.7,1.7,0,0,0,.76-.17,2.07,2.07,0,0,0,.64-.54l.28.25a2.23,2.23,0,0,1-.82.87A2.09,2.09,0,0,1,147.81,85.34Z"/><path class="cls-1" d="M150.55,85.24l0-.4.77-.17c0-.08,0-.21,0-.38s0-.4,0-.7V80c0-.33,0-.64,0-.93s0-.54,0-.74,0-.33,0-.37l-.88-.12,0-.33L152,77l.19.16,0,1c0,.34,0,.7,0,1.11s0,.9,0,1.46v2c0,.44,0,.85,0,1.22s0,.61,0,.73l.77.17,0,.4Z"/><path class="cls-1" d="M156.17,85.34A2.44,2.44,0,0,1,155,85a2.2,2.2,0,0,1-.85-.86,2.7,2.7,0,0,1-.33-1.37,3.06,3.06,0,0,1,.34-1.46,2.4,2.4,0,0,1,.87-.94,2.16,2.16,0,0,1,1.18-.32,1.77,1.77,0,0,1,1.38.59,2.54,2.54,0,0,1,.51,1.72v.2h-3.68v-.5h3l-.12.12V82a1.64,1.64,0,0,0-.33-1.1,1.1,1.1,0,0,0-.88-.38,1.31,1.31,0,0,0-.68.2,1.52,1.52,0,0,0-.53.63,2.41,2.41,0,0,0-.2,1v.12a2.26,2.26,0,0,0,.49,1.56,1.58,1.58,0,0,0,1.24.56,1.67,1.67,0,0,0,.76-.17,2.07,2.07,0,0,0,.64-.54l.28.25a2.28,2.28,0,0,1-.81.87A2.14,2.14,0,0,1,156.17,85.34Z"/><path class="cls-1" d="M160.86,85.34a4,4,0,0,1-.85-.1,3.27,3.27,0,0,1-.73-.27l-.06-1.23h.54l.22.85a1.53,1.53,0,0,0,1,.3,1.05,1.05,0,0,0,.67-.21.66.66,0,0,0,.28-.56.78.78,0,0,0-.24-.57,3,3,0,0,0-.89-.52,4.37,4.37,0,0,1-1.16-.71,1.12,1.12,0,0,1-.34-.85,1.21,1.21,0,0,1,.23-.72,1.55,1.55,0,0,1,.67-.48,2.48,2.48,0,0,1,1-.18,3.63,3.63,0,0,1,.65,0,2.4,2.4,0,0,1,.56.14l.13,1.19H162l-.29-.79a1.1,1.1,0,0,0-.29-.11,1.4,1.4,0,0,0-.37,0,1,1,0,0,0-.68.2.61.61,0,0,0-.26.53.74.74,0,0,0,.27.6,4.94,4.94,0,0,0,1,.56,3.64,3.64,0,0,1,1.09.71,1.17,1.17,0,0,1,.31.81,1.21,1.21,0,0,1-.53,1A2.12,2.12,0,0,1,160.86,85.34Z"/><path class="cls-1" d="M165.61,85.34a1.77,1.77,0,0,1-.8-.18,1.67,1.67,0,0,1-.58-.46,1,1,0,0,1-.21-.62.86.86,0,0,1,.26-.63,2.3,2.3,0,0,1,.87-.46l1.78-.63v-.65a.91.91,0,0,0-.18-.55,1.29,1.29,0,0,0-.49-.4,1.75,1.75,0,0,0-.7-.14.58.58,0,0,0-.43.13,1,1,0,0,0-.14.54l0,.42a1,1,0,0,1-.65,0,.38.38,0,0,1-.28-.38.63.63,0,0,1,.16-.38,2,2,0,0,1,.43-.37,2.89,2.89,0,0,1,.58-.3,3,3,0,0,1,.65-.17,1.92,1.92,0,0,1,1.32.45,1.5,1.5,0,0,1,.52,1.18l0,2.09c0,.13,0,.27,0,.42a1.42,1.42,0,0,0,.05.32l.75.15V85l-.53.19-.28.09a.68.68,0,0,1-.21,0c-.23,0-.37-.13-.43-.39l-.1-.45.15,0a3,3,0,0,1-.75.65A1.46,1.46,0,0,1,165.61,85.34Zm.25-.59a1.15,1.15,0,0,0,.56-.15,1.58,1.58,0,0,0,.51-.44V82.9l-1.48.41a.73.73,0,0,0-.4.23.63.63,0,0,0-.13.41.76.76,0,0,0,.28.55A1,1,0,0,0,165.86,84.75Z"/><path class="cls-1" d="M169.17,85.24l0-.4.79-.17a.46.46,0,0,0,0-.14c0-.07,0-.19,0-.37s0-.43,0-.77v-.74c0-.36,0-.68,0-1s0-.51,0-.63l-.8-.17v-.35l1.54-.41.13.14c0,.25,0,.49,0,.72s0,.51,0,.82v1.5c0,.38,0,.7,0,.93s0,.39,0,.45l.8.17,0,.4Zm1.19-6.57a.65.65,0,0,1-.46-.18.56.56,0,0,1-.2-.45.55.55,0,0,1,.2-.44.62.62,0,0,1,.46-.19A.65.65,0,0,1,171,78a.62.62,0,0,1-.19.45A.64.64,0,0,1,170.36,78.67Z"/><path class="cls-1" d="M12.23,56.71A1.24,1.24,0,0,0,11,58v3.44a1.24,1.24,0,1,0,2.48,0V58A1.23,1.23,0,0,0,12.23,56.71Z"/><path class="cls-1" d="M25,56.71A1.23,1.23,0,0,0,23.77,58v3.44a1.24,1.24,0,1,0,2.48,0V58A1.24,1.24,0,0,0,25,56.71Z"/><path class="cls-1" d="M37.24,66.29V63.53a3.15,3.15,0,0,0-3.15-3.15H27.68v1a2.67,2.67,0,0,1-5.34,0v-1H14.9v1a2.67,2.67,0,0,1-5.33,0v-1H3.15A3.15,3.15,0,0,0,0,63.53v2.76Z"/><path class="cls-1" d="M0,67.71V82.09a3.15,3.15,0,0,0,3.15,3.15H34.09a3.15,3.15,0,0,0,3.15-3.15V67.71Z"/><path class="cls-2" d="M5,70.7a.49.49,0,0,0-.49.49v1.49a.49.49,0,0,0,.49.49H6.44a.49.49,0,0,0,.49-.49V71.19a.49.49,0,0,0-.49-.49Z"/><path class="cls-2" d="M10.12,70.7a.49.49,0,0,0-.49.49v1.49a.49.49,0,0,0,.49.49h1.49a.49.49,0,0,0,.49-.49V71.19a.49.49,0,0,0-.49-.49Z"/><path class="cls-2" d="M15.29,70.7a.49.49,0,0,0-.49.49v1.49a.49.49,0,0,0,.49.49h1.49a.49.49,0,0,0,.49-.49V71.19a.49.49,0,0,0-.49-.49Z"/><path class="cls-2" d="M20.46,70.7a.49.49,0,0,0-.49.49v1.49a.49.49,0,0,0,.49.49H22a.49.49,0,0,0,.49-.49V71.19A.49.49,0,0,0,22,70.7Z"/><path class="cls-2" d="M25.64,70.7a.49.49,0,0,0-.49.49v1.49a.49.49,0,0,0,.49.49h1.48a.49.49,0,0,0,.49-.49V71.19a.49.49,0,0,0-.49-.49Z"/><path class="cls-2" d="M30.81,70.7a.49.49,0,0,0-.49.49v1.49a.49.49,0,0,0,.49.49h1.48a.49.49,0,0,0,.49-.49V71.19a.49.49,0,0,0-.49-.49Z"/><path class="cls-2" d="M5,75a.49.49,0,0,0-.49.49V77a.49.49,0,0,0,.49.49H6.44A.49.49,0,0,0,6.93,77V75.52A.49.49,0,0,0,6.44,75Z"/><path class="cls-2" d="M10.12,75a.49.49,0,0,0-.49.49V77a.49.49,0,0,0,.49.49h1.49A.49.49,0,0,0,12.1,77V75.52a.49.49,0,0,0-.49-.49Z"/><path class="cls-2" d="M15.29,75a.49.49,0,0,0-.49.49V77a.49.49,0,0,0,.49.49h1.49a.49.49,0,0,0,.49-.49V75.52a.49.49,0,0,0-.49-.49Z"/><path class="cls-2" d="M20.46,75a.49.49,0,0,0-.49.49V77a.49.49,0,0,0,.49.49H22a.49.49,0,0,0,.49-.49V75.52A.49.49,0,0,0,22,75Z"/><path class="cls-2" d="M25.64,75a.49.49,0,0,0-.49.49V77a.49.49,0,0,0,.49.49h1.48a.49.49,0,0,0,.49-.49V75.52a.49.49,0,0,0-.49-.49Z"/><path class="cls-2" d="M30.81,75a.49.49,0,0,0-.49.49V77a.49.49,0,0,0,.49.49h1.48a.49.49,0,0,0,.49-.49V75.52a.49.49,0,0,0-.49-.49Z"/><path class="cls-2" d="M5,79.35a.49.49,0,0,0-.49.49v1.48a.49.49,0,0,0,.49.49H6.44a.49.49,0,0,0,.49-.49V79.84a.49.49,0,0,0-.49-.49Z"/><path class="cls-2" d="M10.12,79.35a.49.49,0,0,0-.49.49v1.48a.49.49,0,0,0,.49.49h1.49a.49.49,0,0,0,.49-.49V79.84a.49.49,0,0,0-.49-.49Z"/><path class="cls-2" d="M15.29,79.35a.49.49,0,0,0-.49.49v1.48a.49.49,0,0,0,.49.49h1.49a.49.49,0,0,0,.49-.49V79.84a.49.49,0,0,0-.49-.49Z"/><path class="cls-2" d="M20.46,79.35a.49.49,0,0,0-.49.49v1.48a.49.49,0,0,0,.49.49H22a.49.49,0,0,0,.49-.49V79.84a.49.49,0,0,0-.49-.49Z"/><path class="cls-2" d="M25.64,79.35a.49.49,0,0,0-.49.49v1.48a.49.49,0,0,0,.49.49h1.48a.49.49,0,0,0,.49-.49V79.84a.49.49,0,0,0-.49-.49Z"/><path class="cls-2" d="M30.81,79.35a.49.49,0,0,0-.49.49v1.48a.49.49,0,0,0,.49.49h1.48a.49.49,0,0,0,.49-.49V79.84a.49.49,0,0,0-.49-.49Z"/></g></g></svg>