<svg xmlns="http://www.w3.org/2000/svg" viewBox="0 0 335.43 67.42"><defs><style>.cls-1{fill:#f2f3eb;}</style></defs><g id="Layer_2" data-name="Layer 2"><g id="Layer_1-2" data-name="Layer 1"><path class="cls-1" d="M203,62.84a19.62,19.62,0,0,1-4.62,3.36,12,12,0,0,1-5.52,1.22,18.36,18.36,0,0,1-8.62-2,25.69,25.69,0,0,1-7-5.44,24.55,24.55,0,0,1-4.57,1.4,26.32,26.32,0,0,1-5.12.49,24.4,24.4,0,0,1-10.82-2.15,16.85,16.85,0,0,1-6.64-5.53,14.3,14.3,0,0,1-2.47-7.63,18.66,18.66,0,0,1,1.66-8.43,24.71,24.71,0,0,1,5.75-7.9,30.87,30.87,0,0,1,9.83-6.15,44.31,44.31,0,0,1,.76-7.9,28.77,28.77,0,0,1,2.56-7.81,17.39,17.39,0,0,1,4.8-6A11.69,11.69,0,0,1,180.51,0a10.14,10.14,0,0,1,7.13,2.51,7.76,7.76,0,0,1,2.29,6.92,9,9,0,0,1-2,4.66A19,19,0,0,1,183.65,18a33.52,33.52,0,0,1-5.84,3.1,68.08,68.08,0,0,1-6.55,2.33,82.1,82.1,0,0,0,1,8.57,88.73,88.73,0,0,0,2,8.8,74.56,74.56,0,0,0,2.87,8.39A44.26,44.26,0,0,0,181,56.55a24.93,24.93,0,0,0,7.13-7.49,24.48,24.48,0,0,0,3.46-8.48c.42-2.64-.15-4.46-1.71-5.48a9.26,9.26,0,0,0-1.57-.05,5.36,5.36,0,0,0-1.66.41,5.67,5.67,0,0,0-3.46,3,3.8,3.8,0,0,0,.23,3.86l-1,.27a6.33,6.33,0,0,1-1-3,8.25,8.25,0,0,1,.41-3.1,7.22,7.22,0,0,1,1.52-2.6,6.39,6.39,0,0,1,2.47-1.66,10.24,10.24,0,0,1,3.86-.54l4,.18a10.58,10.58,0,0,0,5.12-.68,3.3,3.3,0,0,0,2-1.93,2.83,2.83,0,0,0-1.16-2.69l.63-.54q2.33,1.35,1.61,4.4a7.48,7.48,0,0,1-2.11,3.55q-1.66,1.66-5.16,1.66a13.64,13.64,0,0,1-2.69-.27,5.84,5.84,0,0,1,1,2.33,11.34,11.34,0,0,1,0,3.41,23.54,23.54,0,0,1-3.46,8.8,25.38,25.38,0,0,1-7.68,7.81,22.9,22.9,0,0,0,2.43,3A19.62,19.62,0,0,0,187,63.24a14.07,14.07,0,0,0,3.41,1.8,11.18,11.18,0,0,0,3.9.67,12.34,12.34,0,0,0,4.27-.81,11.86,11.86,0,0,0,4.08-2.6ZM176.38,59a38,38,0,0,1-4.72-7.23,61,61,0,0,1-3.45-8.35A64.7,64.7,0,0,1,166,34.56a65.81,65.81,0,0,1-1-8.62,20.94,20.94,0,0,0-6,5.52,24.47,24.47,0,0,0-3.68,7.23,23.57,23.57,0,0,0-1.13,7.68,15.75,15.75,0,0,0,1.71,7,12.43,12.43,0,0,0,4.85,5.07,16.05,16.05,0,0,0,8.35,1.93,18.48,18.48,0,0,0,3.77-.36A22.45,22.45,0,0,0,176.38,59Zm-5.21-37q7.37-2.32,10.64-5.88t3.45-6.86a8.57,8.57,0,0,0-1.39-5.61,4.64,4.64,0,0,0-3.9-2.2,5.86,5.86,0,0,0-3.59,1.12,9.27,9.27,0,0,0-2.61,3.1,18.8,18.8,0,0,0-1.7,4.66,34.52,34.52,0,0,0-.81,5.93c-.06.9-.1,1.82-.13,2.78S171.11,21,171.17,22Z"/><rect class="cls-1" y="29.49" width="116" height="1"/><rect class="cls-1" x="219.43" y="29.49" width="116" height="1"/></g></g></svg>