<svg xmlns="http://www.w3.org/2000/svg" viewBox="0 0 139.78 96.17"><defs><style>.cls-1{fill:#f2f3eb;}</style></defs><g id="Layer_2" data-name="Layer 2"><g id="Layer_1-2" data-name="Layer 1"><path class="cls-1" d="M23.92,18.59a9,9,0,0,1-3.83-.78,6,6,0,0,1-2.65-2.26,6.52,6.52,0,0,1-1-3.63A7.26,7.26,0,0,1,17.05,9a6.59,6.59,0,0,1,1.61-2.25,7.18,7.18,0,0,1,2.49-1.47,9.64,9.64,0,0,1,3.23-.51A10.41,10.41,0,0,1,26.43,5a7.34,7.34,0,0,1,1.76.54l.11,3.15L27,8.75l-.7-2.07a3,3,0,0,0-1.06-.39,5.85,5.85,0,0,0-1.11-.12,4.31,4.31,0,0,0-2.48.67,4,4,0,0,0-1.48,1.82,6.83,6.83,0,0,0-.49,2.69,7.18,7.18,0,0,0,.63,3.14,4.71,4.71,0,0,0,1.68,2,4.26,4.26,0,0,0,2.37.68,4.65,4.65,0,0,0,1-.12,3.19,3.19,0,0,0,1-.42l-.46,1.25V15.46c0-.38,0-.75,0-1.13s0-.66-.07-.85l-1.6-.3.07-1.1h5.27l.07,1.05-1.09.32a3.86,3.86,0,0,0,0,.64c0,.32,0,.67,0,1.05s0,.63,0,1,0,.76,0,1.25a8,8,0,0,1-2.21.91A9.93,9.93,0,0,1,23.92,18.59Z" transform="translate(-1.08 -2.5)"/><path class="cls-1" d="M34.67,18.57a3.47,3.47,0,0,1-1.77-.44,3.28,3.28,0,0,1-1.13-1.05,2.2,2.2,0,0,1-.39-1.18,1.87,1.87,0,0,1,.51-1.34,3.59,3.59,0,0,1,1.59-.88L37,12.59v-.94a1.48,1.48,0,0,0-.32-.93,2.34,2.34,0,0,0-.84-.71,2.46,2.46,0,0,0-1.14-.28.8.8,0,0,0-.61.2,1.41,1.41,0,0,0-.21.76l-.09,1.23a2.74,2.74,0,0,1-1.7-.05,1,1,0,0,1-.68-.95,1.28,1.28,0,0,1,.41-.84,5.33,5.33,0,0,1,1-.83,10.7,10.7,0,0,1,1.31-.66,5.42,5.42,0,0,1,1.26-.34,4.72,4.72,0,0,1,3.05.91,3.08,3.08,0,0,1,1.15,2.45L39.6,15c0,.38,0,.7,0,.95a2.68,2.68,0,0,0,.13.61l1.48.27v.87l-1.34.57c-.26.1-.5.18-.71.24a2.6,2.6,0,0,1-.59.08,1.17,1.17,0,0,1-1.15-.87l-.34-1,.44.09a6.84,6.84,0,0,1-1.44,1.31A2.7,2.7,0,0,1,34.67,18.57Zm1-1.83a1.7,1.7,0,0,0,.74-.16,1.81,1.81,0,0,0,.65-.5V13.8l-1.89.41a1.31,1.31,0,0,0-.79.39,1.05,1.05,0,0,0-.24.73,1.34,1.34,0,0,0,.45,1A1.48,1.48,0,0,0,35.65,16.74Z" transform="translate(-1.08 -2.5)"/><path class="cls-1" d="M41.93,18.38l-.07-1L43.34,17a4.89,4.89,0,0,0,.07-.8c0-.4,0-.88.05-1.45s0-1.17,0-1.79V10.12c0-.53,0-1.07,0-1.63s0-1.08,0-1.59,0-.94,0-1.33,0-.69,0-.9l-1.69-.23,0-.89,4-1,.58.36-.06,1.89c0,.61,0,1.3,0,2.06s0,1.69,0,2.79l0,3.47c0,1,0,1.88,0,2.63s0,1.2.08,1.34l1.49.34,0,1Z" transform="translate(-1.08 -2.5)"/><path class="cls-1" d="M48.45,18.38l-.06-1L49.92,17a3.34,3.34,0,0,0,0-.39c0-.2,0-.46,0-.79s0-.71,0-1.15l0-1.74c0-.47,0-.9,0-1.31a9.31,9.31,0,0,0-.16-1.13l-1.53-.32V9.28l3.9-1,.53.38c0,.48-.08,1-.11,1.43s0,1,0,1.66v2.87q0,.84,0,1.53a3.78,3.78,0,0,0,.11.87l1.52.34-.06,1Zm2.9-12.21a1.67,1.67,0,0,1-1.27-.49,1.61,1.61,0,0,1-.48-1.17,1.68,1.68,0,0,1,1.75-1.67,1.63,1.63,0,0,1,1.26.5,1.72,1.72,0,0,1,.45,1.17,1.66,1.66,0,0,1-.45,1.17A1.63,1.63,0,0,1,51.35,6.17Z" transform="translate(-1.08 -2.5)"/><path class="cls-1" d="M55.07,18.38l-.07-1L56.42,17a6.41,6.41,0,0,0,.07-.8c0-.4,0-.88,0-1.45s0-1.17,0-1.79V10.14c0-.51,0-1.05,0-1.59s0-1.08,0-1.59,0-1,0-1.37,0-.71-.05-.92l-1.69-.23,0-.89,3.95-1,.57.36c0,.48,0,.94-.06,1.39s0,.93-.05,1.47,0,1.13,0,1.81S59.06,9,59,9.94l.07,0a5.11,5.11,0,0,1,1.56-1.29,3.77,3.77,0,0,1,1.75-.42,3.2,3.2,0,0,1,1.7.47,3.24,3.24,0,0,1,1.22,1.38,4.89,4.89,0,0,1,.46,2.24v2.37c0,.52,0,1,0,1.45a8.64,8.64,0,0,0,.08.88l1.42.36-.07,1H61.92l-.07-1,1.3-.36a2.73,2.73,0,0,0,.07-.53c0-.23,0-.49,0-.8s0-.61,0-.93v-2.1A3.17,3.17,0,0,0,63,11.23a1.89,1.89,0,0,0-1.74-1.09,2.54,2.54,0,0,0-1.18.29,2.83,2.83,0,0,0-1,.83v3.38q0,.91,0,1.56a3.61,3.61,0,0,0,.11.84l1.39.36-.07,1Z" transform="translate(-1.08 -2.5)"/><path class="cls-1" d="M73.13,18.38l-.07-1.05L74.4,17a1.59,1.59,0,0,0,.07-.5c0-.27,0-.65,0-1.13s0-1,0-1.72l0-4c0-.64,0-1.19,0-1.66s0-.85,0-1.13a1.63,1.63,0,0,0-.07-.49L73,6l.07-1h5.47a6.62,6.62,0,0,1,4,1,3.42,3.42,0,0,1,1.34,2.9,3.93,3.93,0,0,1-.66,2.24,4.52,4.52,0,0,1-1.86,1.54,6.66,6.66,0,0,1-2.82.56,7.26,7.26,0,0,1-.83-.05l-.77-.11V11.58a4.24,4.24,0,0,0,.74.22,4.36,4.36,0,0,0,.84.08,2.42,2.42,0,0,0,1.84-.69,2.8,2.8,0,0,0,.65-2,3,3,0,0,0-.79-2.29,3,3,0,0,0-2.09-.73h-.82c0,.11,0,.32,0,.62s0,.7,0,1.17,0,1,0,1.68l0,4c0,.67,0,1.24,0,1.72s0,.85.06,1.12,0,.43,0,.49l1.85.32-.07,1.09Z" transform="translate(-1.08 -2.5)"/><path class="cls-1" d="M95.7,16.47l1.48.34v.91l-3.58.94-.53-.32,0-1.53-.07,0a4.06,4.06,0,0,1-1.41,1.4,3.13,3.13,0,0,1-1.54.4,3.59,3.59,0,0,1-2.62-1,4,4,0,0,1-1-3V12.63q0-.45,0-1c0-.36-.05-.73-.08-1.11l-1.55-.32V9.28l3.81-1,.55.38c0,.46-.06,1-.08,1.6s0,1.23,0,1.87l0,2.13a2.46,2.46,0,0,0,.57,1.81,2.06,2.06,0,0,0,1.5.56,2.27,2.27,0,0,0,1-.27,2.41,2.41,0,0,0,.93-.92V13c0-.32,0-.62,0-.91s0-.57,0-.84,0-.51-.08-.74l-1.66-.32V9.28l3.87-1,.53.36c0,.34,0,.67,0,1s0,.69,0,1.07,0,.8,0,1.28v1.75c0,.52,0,1,0,1.5A11.09,11.09,0,0,0,95.7,16.47Z" transform="translate(-1.08 -2.5)"/><path class="cls-1" d="M105.83,16.63a2.88,2.88,0,0,1-1.22,1.43,3.49,3.49,0,0,1-1.86.53,3.57,3.57,0,0,1-2.5-.89,3.46,3.46,0,0,1-1-2.69l.07-5.21h-1.6V9.14l3.54-2.92H102l0,3,0,5.48a2,2,0,0,0,.48,1.49,1.82,1.82,0,0,0,1.35.47,2.19,2.19,0,0,0,.87-.18,2.53,2.53,0,0,0,.75-.48ZM100.72,9.8V8.46h4.47V9.8Z" transform="translate(-1.08 -2.5)"/><path class="cls-1" d="M106.24,18.38l-.07-1,1.42-.36a3.34,3.34,0,0,0,0-.39c0-.2,0-.46.05-.79s0-.71,0-1.15l0-1.74c0-.47,0-.9,0-1.31a7.69,7.69,0,0,0-.16-1.13l-1.46-.32V9.28l3.67-1,.51.36-.09,1.83.06,0a4.51,4.51,0,0,1,1.35-1.73,2.42,2.42,0,0,1,1.37-.46,1.65,1.65,0,0,1,1,.32,1.13,1.13,0,0,1,.43,1,1.27,1.27,0,0,1-.46,1,1.71,1.71,0,0,1-1.1.36,2.27,2.27,0,0,1-.91-.18,3.3,3.3,0,0,1-.87-.62l.55.07a3.86,3.86,0,0,0-.7.7,4.78,4.78,0,0,0-.62,1l0,1.9c0,.5,0,1,0,1.4s0,.81,0,1.12,0,.53,0,.65l2,.32-.06,1Z" transform="translate(-1.08 -2.5)"/><path class="cls-1" d="M118.52,18.57a3.47,3.47,0,0,1-1.77-.44,3.28,3.28,0,0,1-1.13-1.05,2.2,2.2,0,0,1-.39-1.18,1.87,1.87,0,0,1,.51-1.34,3.59,3.59,0,0,1,1.59-.88l3.56-1.09v-.94a1.48,1.48,0,0,0-.32-.93,2.34,2.34,0,0,0-.84-.71,2.46,2.46,0,0,0-1.14-.28.8.8,0,0,0-.61.2,1.41,1.41,0,0,0-.21.76l-.09,1.23a2.74,2.74,0,0,1-1.7-.05,1,1,0,0,1-.68-.95,1.28,1.28,0,0,1,.41-.84,5.33,5.33,0,0,1,1-.83,10.7,10.7,0,0,1,1.31-.66,5.42,5.42,0,0,1,1.26-.34,4.72,4.72,0,0,1,3.05.91,3.08,3.08,0,0,1,1.15,2.45L123.45,15c0,.38,0,.7,0,.95a2.68,2.68,0,0,0,.13.61l1.48.27v.87l-1.34.57c-.26.1-.5.18-.71.24a2.6,2.6,0,0,1-.59.08,1.15,1.15,0,0,1-1.14-.87l-.35-1,.44.09A6.84,6.84,0,0,1,120,18.1,2.7,2.7,0,0,1,118.52,18.57Zm1-1.83a1.7,1.7,0,0,0,.74-.16,1.81,1.81,0,0,0,.65-.5V13.8l-1.89.41a1.34,1.34,0,0,0-.79.39,1.05,1.05,0,0,0-.24.73,1.34,1.34,0,0,0,.45,1A1.48,1.48,0,0,0,119.5,16.74Z" transform="translate(-1.08 -2.5)"/><path class="cls-1" d="M42,44.28l.36,2.62-.65.08L41,45.12l-.28,0H39.32l-.58,0c0,.09,0,.29,0,.61s0,.7,0,1.12v3.62c0,.73,0,1.35,0,1.87s0,.85,0,1l1.39.18,0,.62h-4l0-.62,1.37-.18c0-.13,0-.46,0-1s0-1.14,0-1.87V45.7c0-.32,0-.52,0-.61l-.55,0H35.54l-.27,0L34.56,47l-.65-.1.36-2.62.38,0,.34,0h6.26l.34,0Z" transform="translate(-1.08 -2.5)"/><path class="cls-1" d="M43.21,54.09l0-.55,1-.25a3.31,3.31,0,0,0,0-.54c0-.24,0-.57,0-1s0-1,0-1.64V48c0-.37,0-.78,0-1.22s0-.88,0-1.3,0-.78,0-1.09,0-.49,0-.57L43,43.69l0-.46,2.12-.65.27.22,0,1c0,.35,0,.72,0,1.12s0,.84,0,1.34,0,1.07,0,1.71l0,0a4.17,4.17,0,0,1,1.15-.9,2.63,2.63,0,0,1,1.19-.26,2.3,2.3,0,0,1,1.11.29,2.27,2.27,0,0,1,.88.93A3.34,3.34,0,0,1,50,49.74v1.81c0,.41,0,.77,0,1.08s0,.54.06.66l1,.25,0,.55H48L48,53.54l1-.25c0-.09,0-.19,0-.31s0-.27,0-.48,0-.47,0-.8V49.8a2.45,2.45,0,0,0-.26-1.2,1.59,1.59,0,0,0-.65-.66,1.81,1.81,0,0,0-.85-.21,2.13,2.13,0,0,0-1.08.29,2.72,2.72,0,0,0-.86.8v2.53c0,.53,0,1,0,1.3s0,.55,0,.64l1,.25,0,.55Z" transform="translate(-1.08 -2.5)"/><path class="cls-1" d="M55.66,54.22A3.55,3.55,0,0,1,54,53.81a3.13,3.13,0,0,1-1.2-1.22,3.8,3.8,0,0,1-.45-1.91,4.25,4.25,0,0,1,.46-2A3.41,3.41,0,0,1,54,47.31a2.93,2.93,0,0,1,1.65-.44,2.47,2.47,0,0,1,1.94.83,3.56,3.56,0,0,1,.71,2.4v.29H53.15v-.7h4.23l-.16.16v-.29A2.34,2.34,0,0,0,56.76,48a1.54,1.54,0,0,0-1.24-.54,1.76,1.76,0,0,0-1,.29,2,2,0,0,0-.74.87,3.34,3.34,0,0,0-.28,1.46v.17a3.19,3.19,0,0,0,.68,2.19,2.2,2.2,0,0,0,1.74.78A2.39,2.39,0,0,0,57,53a2.85,2.85,0,0,0,.9-.77l.4.35a3.06,3.06,0,0,1-1.15,1.23A2.9,2.9,0,0,1,55.66,54.22Z" transform="translate(-1.08 -2.5)"/><path class="cls-1" d="M65.83,54.24a6.42,6.42,0,0,1-1.47-.18,4.29,4.29,0,0,1-1.22-.44l-.08-2.06.62-.06.43,1.41a3.42,3.42,0,0,0,.91.41,3.71,3.71,0,0,0,1.08.15,2.15,2.15,0,0,0,1.35-.41A1.39,1.39,0,0,0,68,51.91a1.42,1.42,0,0,0-.35-1,3.26,3.26,0,0,0-.91-.69c-.37-.2-.76-.4-1.18-.59A11.14,11.14,0,0,1,64.36,49a3.18,3.18,0,0,1-.91-.88,2.23,2.23,0,0,1-.36-1.29,2.29,2.29,0,0,1,.44-1.38,3,3,0,0,1,1.21-.93,4.19,4.19,0,0,1,1.74-.34,7.39,7.39,0,0,1,.84,0c.26,0,.5.07.73.12a4,4,0,0,1,.61.2l.11,2-.61.06-.45-1.32a2.41,2.41,0,0,0-1.41-.35,2.14,2.14,0,0,0-1.41.43,1.35,1.35,0,0,0-.53,1.11,1.52,1.52,0,0,0,.35,1,3.07,3.07,0,0,0,.92.72q.56.31,1.17.6a8.92,8.92,0,0,1,1.18.65,3.42,3.42,0,0,1,.92.85,2.1,2.1,0,0,1,.35,1.23,2.31,2.31,0,0,1-.44,1.4,2.93,2.93,0,0,1-1.21,1A4.27,4.27,0,0,1,65.83,54.24Z" transform="translate(-1.08 -2.5)"/><path class="cls-1" d="M74.17,54.22a3.65,3.65,0,0,1-1.85-.46,3.09,3.09,0,0,1-1.22-1.31,4.12,4.12,0,0,1-.44-1.92,3.71,3.71,0,0,1,.48-1.91,3.37,3.37,0,0,1,1.28-1.29,3.57,3.57,0,0,1,1.8-.46,3.46,3.46,0,0,1,1.76.44,3.1,3.1,0,0,1,1.16,1.27,4.15,4.15,0,0,1,.41,1.9,4.05,4.05,0,0,1-.44,1.89,3.59,3.59,0,0,1-1.22,1.34A3.07,3.07,0,0,1,74.17,54.22Zm.16-.7a1.63,1.63,0,0,0,1-.36,2.47,2.47,0,0,0,.7-1,3.58,3.58,0,0,0,.26-1.43,4,4,0,0,0-.62-2.31,1.94,1.94,0,0,0-1.65-.89,1.9,1.9,0,0,0-1.56.77,3.26,3.26,0,0,0-.6,2.05A3.9,3.9,0,0,0,72.23,52a2.56,2.56,0,0,0,.86,1.11A2,2,0,0,0,74.33,53.52Z" transform="translate(-1.08 -2.5)"/><path class="cls-1" d="M78.85,54.09l0-.55,1-.25c0-.09,0-.2,0-.32s0-.31,0-.54,0-.54,0-.93V50.2c0-.37,0-.76,0-1.15s-.05-.68-.07-.86L78.73,48v-.5l2-.56.23.25-.08.86,0,0a4.35,4.35,0,0,1,1.16-.9,2.63,2.63,0,0,1,1.19-.26,2.24,2.24,0,0,1,2,1.2,3.27,3.27,0,0,1,.35,1.6v1.88c0,.41,0,.77,0,1.09a4.15,4.15,0,0,0,.07.65l1,.25,0,.55h-3.1l0-.55,1-.25c0-.09,0-.19,0-.31s0-.27,0-.48,0-.47,0-.8V49.79a2.29,2.29,0,0,0-.28-1.23,1.68,1.68,0,0,0-.69-.64,1.79,1.79,0,0,0-.79-.19A2.19,2.19,0,0,0,81.8,48a2.72,2.72,0,0,0-.86.8v2.53c0,.54,0,1,0,1.28s0,.53,0,.66l1,.25,0,.55Z" transform="translate(-1.08 -2.5)"/><path class="cls-1" d="M94.62,54.22a3.65,3.65,0,0,1-1.85-.46,3.15,3.15,0,0,1-1.22-1.31,4.11,4.11,0,0,1-.43-1.92,3.71,3.71,0,0,1,.47-1.91,3.4,3.4,0,0,1,1.29-1.29,3.54,3.54,0,0,1,1.79-.46,3.43,3.43,0,0,1,1.76.44,3.1,3.1,0,0,1,1.16,1.27,4.15,4.15,0,0,1,.42,1.9,3.94,3.94,0,0,1-.45,1.89,3.59,3.59,0,0,1-1.22,1.34A3.07,3.07,0,0,1,94.62,54.22Zm.17-.7a1.6,1.6,0,0,0,1-.36,2.49,2.49,0,0,0,.71-1,3.76,3.76,0,0,0,.26-1.43,3.9,3.9,0,0,0-.63-2.31,1.92,1.92,0,0,0-1.65-.89A1.9,1.9,0,0,0,93,48.3a3.26,3.26,0,0,0-.6,2.05A4.06,4.06,0,0,0,92.68,52a2.64,2.64,0,0,0,.86,1.11A2.05,2.05,0,0,0,94.79,53.52Z" transform="translate(-1.08 -2.5)"/><path class="cls-1" d="M99.15,47.8v-.49l1.2-.28h2.9v.77Zm3.62,6.29H99.35l0-.55,1-.25c0-.09,0-.19,0-.31V45.8a4.54,4.54,0,0,1,.31-1.78,2.6,2.6,0,0,1,.88-1.13,2.29,2.29,0,0,1,1.33-.39,1.87,1.87,0,0,1,1,.28.84.84,0,0,1,.43.7.44.44,0,0,1-.13.32.45.45,0,0,1-.34.13,1,1,0,0,1-.74-.35l-.72-.68.32.1a1.11,1.11,0,0,0-1,.64,3.71,3.71,0,0,0-.35,1.76v2.4l0,3.08c0,.47,0,.93,0,1.38s0,.8,0,1l1.37.2Z" transform="translate(-1.08 -2.5)"/><path class="cls-1" d="M105.36,48.54a.92.92,0,0,1-.65-.24.79.79,0,0,1-.26-.62.9.9,0,0,1,.11-.44.8.8,0,0,1,.33-.3,1,1,0,0,1,.46-.11.92.92,0,0,1,.66.24.88.88,0,0,1,0,1.23A.9.9,0,0,1,105.36,48.54Zm0,5.71a.88.88,0,0,1-.65-.25.84.84,0,0,1-.26-.63.93.93,0,0,1,.11-.44.76.76,0,0,1,.33-.31,1,1,0,0,1,.46-.11.89.89,0,0,1,.66.25A.89.89,0,0,1,106,54,.87.87,0,0,1,105.36,54.25Z" transform="translate(-1.08 -2.5)"/><path class="cls-1" d="M19.76,64.74h2.69l3.48,8.12H25.7l3.5-8.12h2.48l0,.58-1,.2c0,.18,0,.49,0,.94s0,.9,0,1.35l.05,3.08q0,.85,0,1.41c0,.38,0,.67,0,.89s0,.38,0,.52l1,.2,0,.58H28.57l-.05-.58,1-.2c0-.17,0-.33,0-.5V72.5c0-.31,0-.75,0-1.3l0-6h.34l-4,9.32h-.45l-4-9.35h.26v5.63c0,1,0,1.64,0,2.07s0,.69,0,.8l1.12.22,0,.58H19.54l-.05-.58,1.13-.22a3.94,3.94,0,0,0,0-.43c0-.2,0-.48,0-.83s0-.79,0-1.31l0-3.32c0-.43,0-.87,0-1.3s0-.75,0-1l-1-.22Z" transform="translate(-1.08 -2.5)"/><path class="cls-1" d="M33.34,74.49l0-.55,1-.25a2.86,2.86,0,0,0,0-.3c0-.14,0-.34,0-.58s0-.55,0-.91V70.59c0-.39,0-.78,0-1.16s-.05-.66-.07-.84l-1.07-.23v-.5l2-.56.2.22-.09,1.41h0a3.69,3.69,0,0,1,1-1.32,1.83,1.83,0,0,1,.95-.34,1,1,0,0,1,.61.19.6.6,0,0,1,.24.51.63.63,0,0,1-.25.53,1.09,1.09,0,0,1-.65.18,1.13,1.13,0,0,1-.54-.13,2.21,2.21,0,0,1-.47-.33l.25.12a2.83,2.83,0,0,0-.62.59,4.66,4.66,0,0,0-.55,1l0,1.61c0,.24,0,.51,0,.8s0,.55,0,.8,0,.45,0,.59l1.45.22,0,.58Z" transform="translate(-1.08 -2.5)"/><path class="cls-1" d="M40,74.65a.88.88,0,0,1-.65-.25.88.88,0,0,1-.14-1.07.78.78,0,0,1,.32-.3.9.9,0,0,1,.46-.12.89.89,0,0,1,.66.25.89.89,0,0,1,0,1.24A.87.87,0,0,1,40,74.65Z" transform="translate(-1.08 -2.5)"/><path class="cls-1" d="M46,74.49l0-.58.95-.22a2.07,2.07,0,0,0,0-.26c0-.12,0-.35,0-.68s0-.79,0-1.38l0-3.57c0-.59,0-1,0-1.35s0-.52,0-.64a1.62,1.62,0,0,0,0-.24l-1-.25,0-.58h3.36a3.77,3.77,0,0,1,2.42.72,2.52,2.52,0,0,1,.9,2.07,2.66,2.66,0,0,1-.48,1.6,3,3,0,0,1-1.24,1,3.92,3.92,0,0,1-1.67.36,5.48,5.48,0,0,1-.72,0l-.62-.09v-.82a5.72,5.72,0,0,0,.72.16,3.64,3.64,0,0,0,.57,0,2.45,2.45,0,0,0,1.61-.48,1.87,1.87,0,0,0,.58-1.54A2.2,2.2,0,0,0,50.69,66a2.26,2.26,0,0,0-1.57-.57h-1c0,.07,0,.23,0,.47s0,.53,0,.87,0,.68,0,1l0,3.57c0,.59,0,1,0,1.37s0,.53,0,.66,0,.21,0,.26l1.38.21,0,.62Z" transform="translate(-1.08 -2.5)"/><path class="cls-1" d="M56.38,74.62a2.46,2.46,0,0,1-1.12-.25,2.1,2.1,0,0,1-.81-.65,1.39,1.39,0,0,1-.3-.86,1.22,1.22,0,0,1,.37-.89,3.2,3.2,0,0,1,1.21-.64l2.51-.88v-.91a1.28,1.28,0,0,0-.26-.78,1.81,1.81,0,0,0-.69-.55,2.35,2.35,0,0,0-1-.2.73.73,0,0,0-.6.19,1.27,1.27,0,0,0-.19.74l0,.6a1.46,1.46,0,0,1-.91,0,.55.55,0,0,1-.38-.54.84.84,0,0,1,.22-.54,3.19,3.19,0,0,1,.6-.51,3.88,3.88,0,0,1,.81-.42,3.71,3.71,0,0,1,.91-.24,2.72,2.72,0,0,1,1.86.63,2.17,2.17,0,0,1,.73,1.66l0,2.92c0,.18,0,.37,0,.59a2.22,2.22,0,0,0,.07.45l1,.2v.45l-.75.27c-.14,0-.27.1-.39.13a1.18,1.18,0,0,1-.29.05c-.32,0-.52-.18-.6-.55l-.15-.63h.22a4.55,4.55,0,0,1-1,.9A2.13,2.13,0,0,1,56.38,74.62Zm.35-.83a1.72,1.72,0,0,0,.79-.2,2.49,2.49,0,0,0,.72-.61V71.2l-2.08.58a1.11,1.11,0,0,0-.57.32.93.93,0,0,0-.17.58,1,1,0,0,0,.39.76A1.37,1.37,0,0,0,56.73,73.79Z" transform="translate(-1.08 -2.5)"/><path class="cls-1" d="M61.48,74.49l0-.55,1-.25a2.86,2.86,0,0,0,0-.3c0-.14,0-.34,0-.58s0-.55,0-.91V70.59c0-.39,0-.78,0-1.16s0-.66-.07-.84l-1.07-.23v-.5l2-.56.2.22-.09,1.41h.05a3.69,3.69,0,0,1,1-1.32,1.83,1.83,0,0,1,1-.34,1,1,0,0,1,.61.19.6.6,0,0,1,.24.51.63.63,0,0,1-.25.53,1.09,1.09,0,0,1-.65.18,1.13,1.13,0,0,1-.54-.13,2.21,2.21,0,0,1-.47-.33l.25.12a2.83,2.83,0,0,0-.62.59,4.66,4.66,0,0,0-.55,1l0,1.61c0,.24,0,.51,0,.8s0,.55,0,.8,0,.45,0,.59l1.44.22,0,.58Z" transform="translate(-1.08 -2.5)"/><path class="cls-1" d="M70.39,74.62a3.48,3.48,0,0,1-1.68-.41A3.09,3.09,0,0,1,67.5,73a3.8,3.8,0,0,1-.45-1.91,4.25,4.25,0,0,1,.47-2,3.41,3.41,0,0,1,1.23-1.32,3,3,0,0,1,1.64-.44,2.46,2.46,0,0,1,1.94.83,3.51,3.51,0,0,1,.72,2.4v.29H67.88v-.7h4.24l-.17.16V70a2.28,2.28,0,0,0-.46-1.54,1.52,1.52,0,0,0-1.23-.54,1.82,1.82,0,0,0-1,.29,2.07,2.07,0,0,0-.74.87,3.49,3.49,0,0,0-.28,1.46v.17A3.24,3.24,0,0,0,69,72.86a2.23,2.23,0,0,0,1.75.78,2.43,2.43,0,0,0,1.06-.23,2.8,2.8,0,0,0,.89-.76l.4.34a3.11,3.11,0,0,1-1.14,1.23A2.94,2.94,0,0,1,70.39,74.62Z" transform="translate(-1.08 -2.5)"/><path class="cls-1" d="M74.27,74.49l0-.55,1-.25c0-.09,0-.2,0-.32s0-.31,0-.54,0-.54,0-.93l0-1.3c0-.37,0-.76,0-1.15s-.06-.68-.08-.86l-1.06-.23v-.5l2-.56.24.25-.09.86,0,0a4.38,4.38,0,0,1,1.17-.9,2.63,2.63,0,0,1,1.19-.26,2.19,2.19,0,0,1,1.11.29,2.15,2.15,0,0,1,.88.91,3.16,3.16,0,0,1,.35,1.6V72c0,.41,0,.77,0,1.09s0,.54.07.65l1,.25,0,.55H79.07l0-.55,1-.25c0-.09,0-.19,0-.31s0-.27,0-.48,0-.47,0-.8V70.19A2.29,2.29,0,0,0,79.79,69a1.68,1.68,0,0,0-.69-.64,1.83,1.83,0,0,0-.79-.19,2.13,2.13,0,0,0-1.08.29,2.64,2.64,0,0,0-.86.81v2.52c0,.54,0,1,0,1.28s0,.53,0,.66l1,.25,0,.55Z" transform="translate(-1.08 -2.5)"/><path class="cls-1" d="M88.25,73.56a2.29,2.29,0,0,1-1.91,1A2.25,2.25,0,0,1,84.75,74a2.37,2.37,0,0,1-.63-1.8l0-4H83v-.3L85,66h.25l0,1.8v4.13a2,2,0,0,0,.39,1.36,1.35,1.35,0,0,0,1.08.45,1.67,1.67,0,0,0,.74-.16,2,2,0,0,0,.61-.42ZM84.7,68.18v-.76h3v.76Z" transform="translate(-1.08 -2.5)"/><path class="cls-1" d="M92.3,64.74H95l3.49,8.12h-.23l3.5-8.12h2.47l0,.58-1,.2c0,.18,0,.49,0,.94s0,.9,0,1.35l0,3.08q0,.85,0,1.41c0,.38,0,.67,0,.89s0,.38,0,.52l1,.2,0,.58h-3.24l-.05-.58,1-.2c0-.17,0-.33,0-.5V72.5c0-.31,0-.75,0-1.3l0-6h.33l-4,9.32h-.45l-4-9.35h.27v5.63c0,1,0,1.64,0,2.07s0,.69,0,.8l1.13.22-.05.58H92.09l0-.58,1.13-.22a3.94,3.94,0,0,0,0-.43c0-.2,0-.48,0-.83s0-.79,0-1.31l0-3.32c0-.43,0-.87,0-1.3s0-.75,0-1l-1-.22Z" transform="translate(-1.08 -2.5)"/><path class="cls-1" d="M108.57,74.62a2.46,2.46,0,0,1-1.12-.25,2.15,2.15,0,0,1-.8-.65,1.39,1.39,0,0,1-.3-.86,1.21,1.21,0,0,1,.36-.89,3.25,3.25,0,0,1,1.22-.64l2.5-.88v-.91a1.27,1.27,0,0,0-.25-.78,2,2,0,0,0-.69-.55,2.38,2.38,0,0,0-1-.2.77.77,0,0,0-.61.19,1.36,1.36,0,0,0-.19.74l0,.6a1.5,1.5,0,0,1-.92,0,.56.56,0,0,1-.38-.54.85.85,0,0,1,.23-.54,3.44,3.44,0,0,1,.59-.51,3.73,3.73,0,0,1,.82-.42,3.52,3.52,0,0,1,.9-.24,2.69,2.69,0,0,1,1.86.63,2.13,2.13,0,0,1,.73,1.66l0,2.92c0,.18,0,.37,0,.59a2.05,2.05,0,0,0,.08.45l1,.2v.45l-.74.27-.39.13a1.35,1.35,0,0,1-.29.05c-.32,0-.52-.18-.6-.55l-.15-.63h.22a4.58,4.58,0,0,1-1.06.9A2.1,2.1,0,0,1,108.57,74.62Zm.35-.83a1.68,1.68,0,0,0,.79-.2,2.49,2.49,0,0,0,.72-.61V71.2l-2.07.58a1,1,0,0,0-.57.32.93.93,0,0,0-.18.58,1,1,0,0,0,.4.76A1.35,1.35,0,0,0,108.92,73.79Z" transform="translate(-1.08 -2.5)"/><path class="cls-1" d="M113.64,74.49l0-.55,1-.25c0-.09,0-.2,0-.32s0-.31,0-.54V71.9l0-1.3c0-.37,0-.76,0-1.15s0-.68-.08-.86l-1.06-.23v-.5l2-.56.23.25-.08.86,0,0a4.2,4.2,0,0,1,1.16-.9,2.63,2.63,0,0,1,1.19-.26,2.24,2.24,0,0,1,2,1.2,3.27,3.27,0,0,1,.34,1.6V72c0,.41,0,.77,0,1.09s0,.54.06.65l1,.25,0,.55h-3.1l0-.55,1-.25a2.36,2.36,0,0,0,0-.31c0-.11,0-.27,0-.48s0-.47,0-.8V70.19a2.29,2.29,0,0,0-.28-1.23,1.68,1.68,0,0,0-.69-.64,1.79,1.79,0,0,0-.79-.19,2.13,2.13,0,0,0-1.08.29,2.64,2.64,0,0,0-.86.81v2.52c0,.54,0,1,0,1.28s0,.53,0,.66l1,.25,0,.55Z" transform="translate(-1.08 -2.5)"/><path class="cls-1" d="M3.3,95a2.46,2.46,0,0,1-1.12-.25,2.25,2.25,0,0,1-.8-.65,1.39,1.39,0,0,1-.3-.86,1.21,1.21,0,0,1,.36-.89,3.25,3.25,0,0,1,1.22-.64l2.5-.88v-.91a1.27,1.27,0,0,0-.25-.78,1.87,1.87,0,0,0-.69-.55,2.38,2.38,0,0,0-1-.2.77.77,0,0,0-.61.19,1.36,1.36,0,0,0-.19.74l0,.6a1.42,1.42,0,0,1-.92,0,.54.54,0,0,1-.38-.53.85.85,0,0,1,.23-.54,3.44,3.44,0,0,1,.59-.51,3.73,3.73,0,0,1,.82-.42,3.52,3.52,0,0,1,.9-.24,2.69,2.69,0,0,1,1.86.63A2.13,2.13,0,0,1,6.24,90l0,2.92c0,.18,0,.37,0,.59a2.05,2.05,0,0,0,.08.45l1,.2v.45l-.74.27L6.22,95a1.35,1.35,0,0,1-.29,0c-.32,0-.52-.18-.6-.55l-.15-.63.22,0a4.41,4.41,0,0,1-1.06.91A2.1,2.1,0,0,1,3.3,95Zm.35-.83a1.68,1.68,0,0,0,.79-.2,2.49,2.49,0,0,0,.72-.61V91.6l-2.07.58a1,1,0,0,0-.57.32.91.91,0,0,0-.18.58,1,1,0,0,0,.4.76A1.35,1.35,0,0,0,3.65,94.19Z" transform="translate(-1.08 -2.5)"/><path class="cls-1" d="M8.37,94.89l0-.55,1-.25c0-.09,0-.2,0-.32s0-.31,0-.54,0-.54,0-.93l0-1.3c0-.37,0-.76,0-1.15s-.05-.68-.08-.86l-1.06-.23v-.5l2-.56.23.25-.08.86.05,0a4.2,4.2,0,0,1,1.16-.9,2.63,2.63,0,0,1,1.19-.26,2.24,2.24,0,0,1,2,1.2,3.27,3.27,0,0,1,.34,1.6v1.88c0,.41,0,.77,0,1.09s0,.54.06.65l1,.25,0,.55h-3.1l0-.55,1-.25a2.36,2.36,0,0,0,0-.31c0-.11,0-.27,0-.48s0-.47,0-.8V90.59a2.29,2.29,0,0,0-.28-1.23,1.68,1.68,0,0,0-.69-.64,1.79,1.79,0,0,0-.79-.19,2.13,2.13,0,0,0-1.08.29,2.72,2.72,0,0,0-.86.8v2.53c0,.54,0,1,0,1.28s0,.53,0,.66l1,.25,0,.55Z" transform="translate(-1.08 -2.5)"/><path class="cls-1" d="M23.13,95.05l-.19-.2,0-1.09h-.05a3.65,3.65,0,0,1-1.05,1,2.33,2.33,0,0,1-1.12.28A3.23,3.23,0,0,1,19,94.56a3.07,3.07,0,0,1-1.16-1.21,3.62,3.62,0,0,1-.42-1.77A4.27,4.27,0,0,1,17.73,90a3.72,3.72,0,0,1,1.93-2.06A3.32,3.32,0,0,1,21,87.65a4.17,4.17,0,0,1,1,.13,2.26,2.26,0,0,1,.88.43V87.4c0-.34,0-.7,0-1.07s0-.7,0-1,0-.47,0-.56l-1.31-.25,0-.5,2.22-.65.27.22c0,.68,0,1.36,0,2s0,1.34,0,2l0,3.81c0,.57,0,1.06,0,1.47s0,.71.06.87l1.05.27v.5ZM21,94a2.12,2.12,0,0,0,1-.22,3.12,3.12,0,0,0,.92-.81V89.49a2,2,0,0,0-.87-.89A2.28,2.28,0,0,0,21,88.33a2.08,2.08,0,0,0-1.74.81,3.28,3.28,0,0,0-.62,2.06,2.9,2.9,0,0,0,.7,2.09A2.19,2.19,0,0,0,21,94Z" transform="translate(-1.08 -2.5)"/><path class="cls-1" d="M29.77,85.14h2.69l3.48,8.12h-.23l3.5-8.12h2.48l0,.58-1,.2c0,.18,0,.49,0,.94s0,.9,0,1.35l.05,3.07c0,.58,0,1,0,1.42s0,.67,0,.88,0,.39,0,.53l1,.2,0,.58H38.58l0-.58,1-.2c0-.17,0-.34,0-.5V92.9c0-.31,0-.75,0-1.3l0-6h.33l-4,9.32h-.45l-4-9.35h.26v5.63c0,1,0,1.64,0,2.07s0,.69,0,.8l1.12.22,0,.58H29.55l-.05-.58,1.13-.22a3.94,3.94,0,0,0,0-.43c0-.2,0-.48,0-.83s0-.79,0-1.31l.05-3.32c0-.43,0-.87,0-1.3s0-.75,0-1l-1-.22Z" transform="translate(-1.08 -2.5)"/><path class="cls-1" d="M43.35,94.89l0-.55,1-.25c0-.06,0-.15,0-.3s0-.34,0-.58,0-.55,0-.91V91c0-.39,0-.78,0-1.16s-.05-.66-.07-.84l-1.07-.23v-.5l2-.56.2.21-.08,1.42h0a3.58,3.58,0,0,1,1-1.32,1.83,1.83,0,0,1,1-.34,1,1,0,0,1,.61.18.69.69,0,0,1,0,1,1.09,1.09,0,0,1-.65.18,1.13,1.13,0,0,1-.54-.13,2.21,2.21,0,0,1-.47-.33l.25.11a3.15,3.15,0,0,0-.62.6,4.23,4.23,0,0,0-.54,1V91.9c0,.24,0,.51,0,.8s0,.55,0,.8,0,.45,0,.59l1.45.22,0,.58Z" transform="translate(-1.08 -2.5)"/><path class="cls-1" d="M51.71,95a5.28,5.28,0,0,1-1.18-.14,4.46,4.46,0,0,1-1-.37l-.09-1.73h.75L50.49,94a2.12,2.12,0,0,0,1.34.42,1.55,1.55,0,0,0,1-.29,1,1,0,0,0,.38-.79,1.09,1.09,0,0,0-.33-.8,4.58,4.58,0,0,0-1.25-.73,6.08,6.08,0,0,1-1.63-1,1.57,1.57,0,0,1-.48-1.19,1.59,1.59,0,0,1,.33-1,2.36,2.36,0,0,1,.93-.69,3.7,3.7,0,0,1,1.38-.24,7.22,7.22,0,0,1,.92.06,3.53,3.53,0,0,1,.78.2L54,89.61h-.7l-.41-1.11a1.45,1.45,0,0,0-.4-.16,2.12,2.12,0,0,0-.52-.06,1.5,1.5,0,0,0-1,.28.92.92,0,0,0-.37.75,1.05,1.05,0,0,0,.39.84,7,7,0,0,0,1.34.79,5.1,5.1,0,0,1,1.53,1,1.64,1.64,0,0,1,.43,1.14,1.68,1.68,0,0,1-.74,1.4A3,3,0,0,1,51.71,95Z" transform="translate(-1.08 -2.5)"/><path class="cls-1" d="M56.81,95.05a.91.91,0,0,1-.66-.25.82.82,0,0,1-.25-.63.93.93,0,0,1,.11-.44.87.87,0,0,1,.33-.3,1,1,0,0,1,1.12.13.87.87,0,0,1-.65,1.49Z" transform="translate(-1.08 -2.5)"/><path class="cls-1" d="M62.72,94.89l0-.58.94-.22a1.58,1.58,0,0,0,0-.26c0-.12,0-.35,0-.68s0-.79,0-1.38l0-3.57c0-.59,0-1,0-1.35s0-.52,0-.65a1.62,1.62,0,0,0,0-.23l-1-.25,0-.58H66a3.78,3.78,0,0,1,2.43.72,2.5,2.5,0,0,1,.89,2.07,2.68,2.68,0,0,1-.47,1.6,3,3,0,0,1-1.24,1,3.92,3.92,0,0,1-1.67.36,5.39,5.39,0,0,1-.72,0l-.63-.09V90a6.24,6.24,0,0,0,.73.16,3.64,3.64,0,0,0,.57,0,2.47,2.47,0,0,0,1.61-.48,1.89,1.89,0,0,0,.58-1.54,2.2,2.2,0,0,0-.64-1.76,2.28,2.28,0,0,0-1.57-.57h-1c0,.07,0,.22,0,.47s0,.53,0,.87,0,.68,0,1l0,3.57c0,.59,0,1,0,1.37s0,.53,0,.66,0,.21,0,.26l1.37.21,0,.62Z" transform="translate(-1.08 -2.5)"/><path class="cls-1" d="M73.15,95A2.43,2.43,0,0,1,72,94.77a2.2,2.2,0,0,1-.81-.65,1.39,1.39,0,0,1-.3-.86,1.19,1.19,0,0,1,.37-.89,3.12,3.12,0,0,1,1.21-.64L75,90.85v-.91a1.28,1.28,0,0,0-.26-.78,1.72,1.72,0,0,0-.69-.55,2.38,2.38,0,0,0-1-.2.77.77,0,0,0-.61.19,1.45,1.45,0,0,0-.19.74l0,.6a1.39,1.39,0,0,1-.91,0,.53.53,0,0,1-.38-.53.84.84,0,0,1,.22-.54,3.19,3.19,0,0,1,.6-.51,3.88,3.88,0,0,1,.81-.42,3.64,3.64,0,0,1,.9-.24,2.69,2.69,0,0,1,1.86.63A2.13,2.13,0,0,1,76.08,90l0,2.92c0,.18,0,.37,0,.59a1.67,1.67,0,0,0,.07.45l1,.2v.45l-.75.27c-.14,0-.27.1-.39.13a1.26,1.26,0,0,1-.29,0c-.32,0-.52-.18-.6-.55L75,93.84l.22,0a4.41,4.41,0,0,1-1.06.91A2.06,2.06,0,0,1,73.15,95Zm.34-.83a1.68,1.68,0,0,0,.79-.2,2.66,2.66,0,0,0,.73-.61V91.6l-2.08.58a1,1,0,0,0-.57.32.91.91,0,0,0-.18.58,1,1,0,0,0,.4.76A1.37,1.37,0,0,0,73.49,94.19Z" transform="translate(-1.08 -2.5)"/><path class="cls-1" d="M78.24,94.89l0-.55,1-.25a1.8,1.8,0,0,0,0-.3c0-.14,0-.34,0-.58s0-.55,0-.91V91c0-.39,0-.78,0-1.16s-.06-.66-.08-.84l-1.06-.23v-.5l2-.56.19.21-.08,1.42h0a3.59,3.59,0,0,1,1-1.32,1.81,1.81,0,0,1,1-.34,1,1,0,0,1,.6.18.63.63,0,0,1,.24.52.61.61,0,0,1-.25.53,1.05,1.05,0,0,1-.64.18,1.13,1.13,0,0,1-.54-.13,2.56,2.56,0,0,1-.48-.33l.25.11a3.12,3.12,0,0,0-.61.6,4.66,4.66,0,0,0-.55,1l0,1.61c0,.24,0,.51,0,.8s0,.55,0,.8,0,.45,0,.59l1.44.22,0,.58Z" transform="translate(-1.08 -2.5)"/><path class="cls-1" d="M87.16,95a3.44,3.44,0,0,1-1.69-.42,3,3,0,0,1-1.2-1.21,3.8,3.8,0,0,1-.45-1.91,4.25,4.25,0,0,1,.47-2,3.47,3.47,0,0,1,1.22-1.32,2.93,2.93,0,0,1,1.65-.44,2.47,2.47,0,0,1,1.94.83,3.51,3.51,0,0,1,.71,2.4v.29H84.65v-.7h4.23l-.16.16v-.3a2.27,2.27,0,0,0-.46-1.53A1.52,1.52,0,0,0,87,88.28a1.76,1.76,0,0,0-1,.29,2.07,2.07,0,0,0-.74.87,3.34,3.34,0,0,0-.28,1.46v.17a3.24,3.24,0,0,0,.68,2.19,2.21,2.21,0,0,0,1.74.78,2.44,2.44,0,0,0,1.07-.23,2.83,2.83,0,0,0,.89-.77l.4.35a3.11,3.11,0,0,1-1.14,1.23A3,3,0,0,1,87.16,95Z" transform="translate(-1.08 -2.5)"/><path class="cls-1" d="M91,94.89l0-.55,1-.25a2.88,2.88,0,0,0,0-.32c0-.13,0-.31,0-.54s0-.54,0-.93V91c0-.37,0-.76,0-1.15s0-.68-.07-.86l-1.06-.23v-.5l2-.56.23.25-.08.86.05,0a4.51,4.51,0,0,1,1.16-.9,2.7,2.7,0,0,1,1.2-.26,2.19,2.19,0,0,1,1.11.29,2.15,2.15,0,0,1,.88.91,3.27,3.27,0,0,1,.35,1.6v1.88c0,.41,0,.77,0,1.09a6,6,0,0,0,.07.65l1,.25,0,.55h-3.1l0-.55,1-.25c0-.09,0-.19,0-.31s0-.27,0-.48,0-.47,0-.8V90.59a2.28,2.28,0,0,0-.29-1.23,1.6,1.6,0,0,0-.68-.64,1.86,1.86,0,0,0-.79-.19,2.13,2.13,0,0,0-1.08.29,2.86,2.86,0,0,0-.87.8v2.53c0,.54,0,1,0,1.28s0,.53,0,.66l1,.25,0,.55Z" transform="translate(-1.08 -2.5)"/><path class="cls-1" d="M105,94a2.34,2.34,0,0,1-3.5.45,2.37,2.37,0,0,1-.63-1.8l0-4H99.77v-.3l2-1.88H102l0,1.8,0,4.13a2,2,0,0,0,.39,1.36,1.37,1.37,0,0,0,1.09.45,1.67,1.67,0,0,0,.74-.16,2,2,0,0,0,.61-.42Zm-3.55-5.38v-.77h3v.77Z" transform="translate(-1.08 -2.5)"/><path class="cls-1" d="M115.71,95l-.41,0-.47,0H109l0-.58,1-.22c0-.06,0-.17,0-.36s0-.44,0-.78,0-.76,0-1.27v-4.6c0-.33,0-.59,0-.78a1.19,1.19,0,0,0,0-.34l-1-.24,0-.58h3.67l0,.62-1.37.2s0,.13,0,.3,0,.43,0,.77,0,.78,0,1.33v3.32c0,.56,0,1,0,1.49s0,.71,0,.82l.44,0,.52,0h1.44l.63,0a5.35,5.35,0,0,0,.55,0l.85-1.57.68.15Z" transform="translate(-1.08 -2.5)"/><path class="cls-1" d="M119.71,95a2.46,2.46,0,0,1-1.12-.25,2.25,2.25,0,0,1-.8-.65,1.39,1.39,0,0,1-.3-.86,1.21,1.21,0,0,1,.36-.89,3.25,3.25,0,0,1,1.22-.64l2.5-.88v-.91a1.27,1.27,0,0,0-.25-.78,1.87,1.87,0,0,0-.69-.55,2.38,2.38,0,0,0-1-.2.77.77,0,0,0-.61.19,1.36,1.36,0,0,0-.19.74l0,.6a1.42,1.42,0,0,1-.92,0,.54.54,0,0,1-.38-.53.85.85,0,0,1,.23-.54,3.44,3.44,0,0,1,.59-.51,3.73,3.73,0,0,1,.82-.42,3.52,3.52,0,0,1,.9-.24,2.69,2.69,0,0,1,1.86.63,2.13,2.13,0,0,1,.73,1.66l0,2.92c0,.18,0,.37,0,.59a2.05,2.05,0,0,0,.08.45l1,.2v.45l-.74.27-.39.13a1.35,1.35,0,0,1-.29,0c-.32,0-.52-.18-.6-.55l-.15-.63.22,0a4.41,4.41,0,0,1-1.06.91A2.1,2.1,0,0,1,119.71,95Zm.35-.83a1.68,1.68,0,0,0,.79-.2,2.49,2.49,0,0,0,.72-.61V91.6l-2.07.58a1,1,0,0,0-.57.32.91.91,0,0,0-.18.58,1,1,0,0,0,.4.76A1.35,1.35,0,0,0,120.06,94.19Z" transform="translate(-1.08 -2.5)"/><path class="cls-1" d="M130.57,95.05l-.18-.2V93.76h-.05a3.52,3.52,0,0,1-1,1,2.3,2.3,0,0,1-1.12.28,3.19,3.19,0,0,1-1.7-.44,3.07,3.07,0,0,1-1.16-1.21,3.52,3.52,0,0,1-.43-1.77,4.27,4.27,0,0,1,.29-1.58,3.73,3.73,0,0,1,.78-1.25,3.65,3.65,0,0,1,1.15-.81,3.31,3.31,0,0,1,1.35-.29,4.12,4.12,0,0,1,1,.13,2.24,2.24,0,0,1,.89.43c0-.2,0-.47,0-.81s0-.7,0-1.07,0-.7,0-1,0-.47,0-.56L129,84.53l0-.5,2.23-.65.26.22c0,.68,0,1.36,0,2s0,1.34,0,2v3.81c0,.57,0,1.06,0,1.47s0,.71.06.87l1,.27v.5Zm-2.09-1a2.18,2.18,0,0,0,1-.22,3.12,3.12,0,0,0,.92-.81V89.49a2,2,0,0,0-.87-.89,2.29,2.29,0,0,0-1.06-.27,2.05,2.05,0,0,0-1.73.81,3.22,3.22,0,0,0-.63,2.06,3,3,0,0,0,.7,2.09A2.23,2.23,0,0,0,128.48,94Z" transform="translate(-1.08 -2.5)"/><path class="cls-1" d="M136.68,95l-2.89-6.37-.78-.23.05-.55H136l0,.55-1,.23,2.38,5.33Zm4.13-7.15.05.55-.78.23-2.79,6L136,97.33a3.12,3.12,0,0,1-.73,1,1.44,1.44,0,0,1-.91.3,1.09,1.09,0,0,1-.63-.17.57.57,0,0,1-.24-.48.61.61,0,0,1,.18-.41,1.16,1.16,0,0,1,.54-.32l1.42-.43-.66.85,1.79-3.5.19-.29,2.25-5.34-1-.23,0-.55Z" transform="translate(-1.08 -2.5)"/></g></g></svg>