<svg xmlns="http://www.w3.org/2000/svg" viewBox="0 0 319.6 37.36"><defs><style>.cls-1{fill:#f2f3eb;}</style></defs><g id="Layer_2" data-name="Layer 2"><g id="Layer_1-2" data-name="Layer 1"><path class="cls-1" d="M6.53,34.12a8,8,0,0,0,3.8-.95,14.06,14.06,0,0,0,3.35-2.54,27,27,0,0,0,3-3.69q1.41-2.1,2.76-4.35T22.26,18a39.29,39.29,0,0,1,3.17-4.39,24.92,24.92,0,0,1,3.76-3.65,14.57,14.57,0,0,1,4.61-2.4c.12,0,.19,0,.2.13s0,.2-.06.23A14.86,14.86,0,0,0,30,11a30,30,0,0,0-3,4c-.9,1.44-1.74,2.94-2.52,4.48S22.85,22.58,22,24.08a28.2,28.2,0,0,1-2.72,4,20.59,20.59,0,0,1-3.45,3.35,15.78,15.78,0,0,1-4.12,2.27,13.44,13.44,0,0,1-4.79.84,8.31,8.31,0,0,1-2.65-.43A6.73,6.73,0,0,1,2.07,32.9a6.07,6.07,0,0,1-1.51-2A6.15,6.15,0,0,1,0,28.26a5.23,5.23,0,0,1,.45-2.11A6.23,6.23,0,0,1,3.62,23a6,6,0,0,1,2.46-.49,5.62,5.62,0,0,1,3.64,1,3.39,3.39,0,0,1,1.33,2.16,3,3,0,0,1-.5,2.16,2.07,2.07,0,0,1-1.82,1,1.34,1.34,0,0,1-.79-.24,1,1,0,0,1-.33-.84.9.9,0,0,1,.4-.78,1.62,1.62,0,0,1,1-.3A1.11,1.11,0,0,0,10.1,26a1.27,1.27,0,0,0,0-1.21,2.91,2.91,0,0,0-1.26-1.22A5.29,5.29,0,0,0,6.21,23a5.76,5.76,0,0,0-3.94,1.58,5.64,5.64,0,0,0-1.19,1.71,5.13,5.13,0,0,0,.11,4.43,6.19,6.19,0,0,0,1.42,1.8,6.32,6.32,0,0,0,1.91,1.15A5.68,5.68,0,0,0,6.53,34.12ZM18.14.22a24.72,24.72,0,0,1,6.28.66q2.76.69,5.24,1.55T34.52,4a17.35,17.35,0,0,0,5,.72,10.08,10.08,0,0,0,3-.45A14.82,14.82,0,0,0,45.19,3.2a12.58,12.58,0,0,0,2-1.29,8.9,8.9,0,0,0,1.08-1,.16.16,0,0,1,.2,0c.08,0,.1.07.07.14a9.9,9.9,0,0,1-1.67,2.25,13.17,13.17,0,0,1-2.47,2,15.27,15.27,0,0,1-3,1.44A10.21,10.21,0,0,1,38,7.29a14.6,14.6,0,0,1-4.57-.79q-2.4-.78-5-1.73C26.7,4.14,24.9,3.56,23,3a21.07,21.07,0,0,0-5.87-.81,13.57,13.57,0,0,0-3.36.42A9.37,9.37,0,0,0,10.85,4a7.08,7.08,0,0,0-2.12,2.3,6.52,6.52,0,0,0-.81,3.33,6.67,6.67,0,0,0,.56,2.85,6,6,0,0,0,1.47,2,5.58,5.58,0,0,0,2,1.15,6.86,6.86,0,0,0,2.14.36,5.52,5.52,0,0,0,2.65-.67A9.09,9.09,0,0,0,19,13.57a10.14,10.14,0,0,0,1.65-2.23A6.72,6.72,0,0,0,21.42,9c0-.39.17-.58.41-.58a.38.38,0,0,1,.31.18.56.56,0,0,1,.09.45,8.26,8.26,0,0,1-.85,2.54A9.43,9.43,0,0,1,19.6,14,9,9,0,0,1,17,15.82a7.34,7.34,0,0,1-3.22.7,7.1,7.1,0,0,1-2.48-.45,6.53,6.53,0,0,1-2.18-1.33,6.34,6.34,0,0,1-1.55-2.18,7.19,7.19,0,0,1-.59-3,7.85,7.85,0,0,1,.81-3.47,9.74,9.74,0,0,1,2.25-3A11.28,11.28,0,0,1,13.59,1,12.4,12.4,0,0,1,18.14.22Z"/><path class="cls-1" d="M22.5,34.16,38.93,7.7h2.84L31,24.57c.32-.42.74-.91,1.23-1.48a20.13,20.13,0,0,1,1.58-1.62,11.91,11.91,0,0,1,1.73-1.33,3.36,3.36,0,0,1,1.76-.56,2.66,2.66,0,0,1,1.48.43,2.43,2.43,0,0,1,1,1.26,3.88,3.88,0,0,1,.09,2.07,8.66,8.66,0,0,1-1.21,2.85l-2.43,4a3.26,3.26,0,0,0-.63,2.43q.27.9,1,.9a3.75,3.75,0,0,0,2.38-1.29q1.35-1.28,3.69-3.8c.42-.48.82-.92,1.19-1.33s.7-.77,1-1.1.63-.71.9-1h.86L43,29a36.52,36.52,0,0,1-2.7,2.88,12.85,12.85,0,0,1-2.13,1.69,3.66,3.66,0,0,1-1.85.56,2.25,2.25,0,0,1-1.46-.52,2.71,2.71,0,0,1-.92-1.46,4.89,4.89,0,0,1,0-2.29,9.35,9.35,0,0,1,1.3-3l2-3.29a3.19,3.19,0,0,0,.67-2.43q-.27-.9-.9-.9a3,3,0,0,0-1.71.88,20.64,20.64,0,0,0-2.2,2.25c-.79.92-1.59,1.92-2.41,3s-1.59,2.16-2.3,3.19-1.33,2-1.87,2.79-.91,1.42-1.12,1.78Z"/><path class="cls-1" d="M55.4,22.77a3.87,3.87,0,0,1-1.14,1.4,11.63,11.63,0,0,1-2,1.26,23.19,23.19,0,0,1-2.5,1.08q-1.35.49-2.7.9a7.32,7.32,0,0,0-.34,2.27,5,5,0,0,0,.36,1.85,3,3,0,0,0,.95,1.24,2.28,2.28,0,0,0,1.41.45,5.8,5.8,0,0,0,1.89-.36,10.21,10.21,0,0,0,2.39-1.31A28.78,28.78,0,0,0,56.84,29c1.17-1.09,2.53-2.5,4.06-4.21h.81a50.86,50.86,0,0,1-4.15,4.5,27.26,27.26,0,0,1-3.48,2.89,13.94,13.94,0,0,1-2.91,1.55,7.15,7.15,0,0,1-2.38.47A4.81,4.81,0,0,1,46,33.33a4.73,4.73,0,0,1-1.69-2.18A6.17,6.17,0,0,1,44,28.08a8.3,8.3,0,0,1,1.47-3.46,14.89,14.89,0,0,1,3.71-3.85,7,7,0,0,1,3.94-1.37,3.58,3.58,0,0,1,1.19.2,2.4,2.4,0,0,1,1,.63,1.92,1.92,0,0,1,.45,1.06A3.12,3.12,0,0,1,55.4,22.77Zm-8.14,4a16,16,0,0,0,4.68-2.16,5.22,5.22,0,0,0,2.16-2.7,1.69,1.69,0,0,0-.05-1.41.94.94,0,0,0-.81-.48,2.81,2.81,0,0,0-1.73.77,11.44,11.44,0,0,0-1.75,1.84,21.32,21.32,0,0,0-1.51,2.23A16.3,16.3,0,0,0,47.26,26.73Z"/><path class="cls-1" d="M79.53,25.7a1.13,1.13,0,0,0,1.1-.54,1.29,1.29,0,0,0,0-1.22,2.9,2.9,0,0,0-1.26-1.21,5.29,5.29,0,0,0-2.61-.54,6.16,6.16,0,0,0-2.36.45,5.91,5.91,0,0,0-3.27,3.22,6.32,6.32,0,0,0-.49,2.54,4.87,4.87,0,0,0,.56,2.36,6,6,0,0,0,1.42,1.8,6.2,6.2,0,0,0,1.91,1.15,5.58,5.58,0,0,0,2,.41,8.17,8.17,0,0,0,3.54-.72,9.78,9.78,0,0,0,2.7-1.92,16.19,16.19,0,0,0,2.16-2.7c.64-1,1.28-2,1.91-3.06s1.3-2,2-3a13.54,13.54,0,0,1,2.37-2.56.16.16,0,0,0,0-.25.24.24,0,0,0-.29,0,16.47,16.47,0,0,1-3.11,1.51,9.46,9.46,0,0,1-3,.47A6,6,0,0,1,79.64,19a6.58,6.58,0,0,1-.94-2.91,8,8,0,0,1,.47-3.44,10.45,10.45,0,0,1-4.61-2.14,5.35,5.35,0,0,1-1.78-4.34,5.29,5.29,0,0,1,.58-2.45,5.94,5.94,0,0,1,1.62-2A8,8,0,0,1,77.39.47a9.17,9.17,0,0,1,3-.47,10.54,10.54,0,0,1,2.32.27,10.09,10.09,0,0,1,2.4.9.25.25,0,0,1,.16.34c0,.16-.2.17-.47,0A9.91,9.91,0,0,0,82.59.74,9.78,9.78,0,0,0,80.47.5,8.17,8.17,0,0,0,77.75,1a7.46,7.46,0,0,0-2.23,1.21A5.87,5.87,0,0,0,74,4a4.52,4.52,0,0,0-.57,2.21,5.22,5.22,0,0,0,1.62,4.05,8.5,8.5,0,0,0,4.32,2,22.42,22.42,0,0,1,2.46-3.83,23.25,23.25,0,0,1,3.78-3.85,20.92,20.92,0,0,1,4.84-2.94A13.54,13.54,0,0,1,96.05.4a4.74,4.74,0,0,1,3.73,1.33A3.22,3.22,0,0,1,100.32,5a7.18,7.18,0,0,1-1.64,2.79A12.93,12.93,0,0,1,96,10a18.9,18.9,0,0,1-3.33,1.57,24.19,24.19,0,0,1-3.62,1,26.84,26.84,0,0,1-3.58.47,26.49,26.49,0,0,1-3.2,0,11.85,11.85,0,0,0-.67,3.6,5.83,5.83,0,0,0,.49,2.55,3.19,3.19,0,0,0,1.42,1.48,4.39,4.39,0,0,0,2,.47,7.86,7.86,0,0,0,3.2-.74,17.91,17.91,0,0,0,2.83-1.66c.9-.65,1.76-1.31,2.59-2a13.86,13.86,0,0,1,2.45-1.65c.06-.06.14,0,.25,0s.13.15.07.24a19.11,19.11,0,0,0-1.89,2.23c-.6.83-1.16,1.64-1.67,2.45s-1,1.56-1.35,2.25-.72,1.25-1,1.67q-1.62,2.52-3.15,4.48a19.61,19.61,0,0,1-3.24,3.31A13.25,13.25,0,0,1,81,33.85a12.74,12.74,0,0,1-4.43.72,7.41,7.41,0,0,1-2.46-.43A6.37,6.37,0,0,1,72,32.9a6.22,6.22,0,0,1-1.46-2A6,6,0,0,1,70,28.26a6.67,6.67,0,0,1,.51-2.61,6.82,6.82,0,0,1,1.4-2.11A6.39,6.39,0,0,1,74,22.12a6.68,6.68,0,0,1,2.61-.52,5.71,5.71,0,0,1,3.65,1,3.44,3.44,0,0,1,1.33,2.16,3,3,0,0,1-.5,2.16,2.06,2.06,0,0,1-1.82,1,1.28,1.28,0,0,1-.79-.25,1,1,0,0,1-.34-.83.94.94,0,0,1,.41-.79A1.68,1.68,0,0,1,79.53,25.7Zm3-13.19a17.86,17.86,0,0,0,4.51-.25,27.51,27.51,0,0,0,5.22-1.37,18.77,18.77,0,0,0,4.61-2.45A7.06,7.06,0,0,0,99.56,5a3,3,0,0,0-.34-2.86A3.18,3.18,0,0,0,96.54,1a7.11,7.11,0,0,0-2.74.6,16.23,16.23,0,0,0-2.86,1.58,22.55,22.55,0,0,0-2.77,2.23A34.64,34.64,0,0,0,85.69,7.9a23.44,23.44,0,0,0-1.93,2.5A15.27,15.27,0,0,0,82.54,12.51Z"/><path class="cls-1" d="M109.77,24.93c-1.62,1.62-2.92,2.44-3.91,2.44a2.4,2.4,0,0,1-1.37-.37,2.3,2.3,0,0,1-.86-.92,3,3,0,0,1-.34-1.26,3.33,3.33,0,0,1,.18-1.33,48.28,48.28,0,0,0-4.12,5.16q-1.95,2.81-3.66,5.51H92.85l6.44-10.58a8.61,8.61,0,0,0,1.08-2.43q.18-.9-.45-.9a3.68,3.68,0,0,0-2,1.22Q96.59,22.69,94.43,25h-.86a45.31,45.31,0,0,1,4-4.07,4.43,4.43,0,0,1,2.75-1.33A1.61,1.61,0,0,1,101.94,21c.24.93,0,2.34-.85,4.23.75-.9,1.59-1.86,2.54-2.88a25,25,0,0,1,2.72-2.56h2.12a11,11,0,0,0-2.27,2.52,6.86,6.86,0,0,0-1,2.23,2.38,2.38,0,0,0,.09,1.57,1,1,0,0,0,1,.61,1.81,1.81,0,0,0,1.15-.5,14.44,14.44,0,0,0,1.37-1.26Z"/><path class="cls-1" d="M116.43,19.58a3.73,3.73,0,0,1,1.89.47,3.6,3.6,0,0,1,1.29,1.28,5,5,0,0,1,.61,1.92,6.37,6.37,0,0,1-.18,2.31,2.16,2.16,0,0,0,.65.34,3.08,3.08,0,0,0,1.1.16,2.47,2.47,0,0,0,1.13-.32,2.58,2.58,0,0,0,1-.81h.9A4.59,4.59,0,0,1,123,26.4a4.69,4.69,0,0,1-1.64.33,4.12,4.12,0,0,1-.88-.15,3,3,0,0,1-.7-.3,12.39,12.39,0,0,1-1.31,2.64,16.26,16.26,0,0,1-2.07,2.61,13.25,13.25,0,0,1-2.49,2,5.12,5.12,0,0,1-2.68.81,4.12,4.12,0,0,1-2.57-.83,4.66,4.66,0,0,1-1.55-2.18,6.43,6.43,0,0,1-.22-3.07,8.14,8.14,0,0,1,1.46-3.46A14.4,14.4,0,0,1,112.14,21,7.6,7.6,0,0,1,116.43,19.58Zm.45.58A4.47,4.47,0,0,0,114,21.4a14.77,14.77,0,0,0-2.83,3.53,11.08,11.08,0,0,0-1.33,3.2,7.52,7.52,0,0,0-.16,2.7,3.68,3.68,0,0,0,.79,1.87,1.86,1.86,0,0,0,1.42.7,4,4,0,0,0,2.27-.79,11.49,11.49,0,0,0,2.16-1.94,14.22,14.22,0,0,0,1.76-2.47,13.25,13.25,0,0,0,1.06-2.37l-.1-.06a.27.27,0,0,1-.08-.07,2.59,2.59,0,0,1-.84-1.19,3.09,3.09,0,0,1-.13-1.26,1.93,1.93,0,0,1,.38-1,1,1,0,0,1,.67-.45,3.06,3.06,0,0,0-.94-1.19A2.08,2.08,0,0,0,116.88,20.16Z"/><path class="cls-1" d="M131.65,19.58a3.73,3.73,0,0,1,1.89.47,3.49,3.49,0,0,1,1.28,1.28,4.88,4.88,0,0,1,.61,1.92,6.16,6.16,0,0,1-.18,2.31,2.29,2.29,0,0,0,.65.34,3.12,3.12,0,0,0,1.1.16,2.47,2.47,0,0,0,1.13-.32,2.58,2.58,0,0,0,1-.81h.9a4.52,4.52,0,0,1-1.78,1.47,4.65,4.65,0,0,1-1.64.33,4.35,4.35,0,0,1-.88-.15,3.14,3.14,0,0,1-.7-.3,12.31,12.31,0,0,1-1.3,2.64,16.26,16.26,0,0,1-2.07,2.61,13.3,13.3,0,0,1-2.5,2,5.12,5.12,0,0,1-2.68.81,4.09,4.09,0,0,1-2.56-.83,4.68,4.68,0,0,1-1.56-2.18,6.43,6.43,0,0,1-.22-3.07,8.14,8.14,0,0,1,1.46-3.46A14.4,14.4,0,0,1,127.35,21,7.63,7.63,0,0,1,131.65,19.58Zm.45.58a4.47,4.47,0,0,0-2.88,1.24,14.78,14.78,0,0,0-2.84,3.53,11.08,11.08,0,0,0-1.33,3.2,7.5,7.5,0,0,0-.15,2.7,3.68,3.68,0,0,0,.78,1.87,1.86,1.86,0,0,0,1.42.7,4,4,0,0,0,2.27-.79,11.49,11.49,0,0,0,2.16-1.94,14.22,14.22,0,0,0,1.76-2.47,12,12,0,0,0,1.06-2.37l-.09-.06-.09-.07a2.57,2.57,0,0,1-.83-1.19,3.1,3.1,0,0,1-.14-1.26,2,2,0,0,1,.38-1,1.05,1.05,0,0,1,.68-.45,3.08,3.08,0,0,0-.95-1.19A2.06,2.06,0,0,0,132.1,20.16Z"/><path class="cls-1" d="M153.48,23.58a3.19,3.19,0,0,0,.67-2.43q-.27-.9-.9-.9a3.21,3.21,0,0,0-1.8.86,17.65,17.65,0,0,0-2.27,2.2c-.8.9-1.61,1.9-2.45,3s-1.63,2.15-2.35,3.17-1.35,2-1.91,2.81-.95,1.48-1.19,1.87h-2.84l6.44-10.58A8.61,8.61,0,0,0,146,21.15q.18-.9-.45-.9a3.68,3.68,0,0,0-2,1.22Q142.18,22.69,140,25h-.86a45.31,45.31,0,0,1,4-4.07,4.43,4.43,0,0,1,2.75-1.33A1.61,1.61,0,0,1,147.53,21c.24.93,0,2.34-.85,4.23.78-1,1.48-1.79,2.09-2.49A20.92,20.92,0,0,1,150.48,21a6.55,6.55,0,0,1,1.51-1,3.41,3.41,0,0,1,1.49-.34,2.76,2.76,0,0,1,1.35.34,2.35,2.35,0,0,1,1,1,3.38,3.38,0,0,1,.31,1.71,6.37,6.37,0,0,1-.67,2.36,44.2,44.2,0,0,1,3.71-4.11,4.22,4.22,0,0,1,2.9-1.33,2.7,2.7,0,0,1,1.49.43,2.43,2.43,0,0,1,1,1.26,3.88,3.88,0,0,1,.09,2.07,8.71,8.71,0,0,1-1.22,2.85l-2.43,4a3.26,3.26,0,0,0-.63,2.43q.27.9,1,.9a3.77,3.77,0,0,0,2.39-1.29q1.35-1.28,3.69-3.8c.42-.48.82-.92,1.19-1.33s.7-.77,1-1.1.63-.71.9-1h.86L167.81,29a36.52,36.52,0,0,1-2.7,2.88A12.88,12.88,0,0,1,163,33.6a3.63,3.63,0,0,1-1.84.56,2.25,2.25,0,0,1-1.46-.52,2.73,2.73,0,0,1-.93-1.46,4.89,4.89,0,0,1,0-2.29,9.4,9.4,0,0,1,1.31-3l2-3.29a3.21,3.21,0,0,0,.68-2.43q-.27-.9-.9-.9a3.21,3.21,0,0,0-1.8.86,18.34,18.34,0,0,0-2.28,2.2c-.79.9-1.61,1.9-2.45,3s-1.62,2.15-2.34,3.17-1.36,2-1.91,2.81-1,1.48-1.19,1.87H147Z"/><path class="cls-1" d="M210.19,35.06a10.05,10.05,0,0,1-2.32,1.69,6.11,6.11,0,0,1-2.77.61,9.12,9.12,0,0,1-4.32-1,12.77,12.77,0,0,1-3.51-2.72,12.82,12.82,0,0,1-2.3.7,13.15,13.15,0,0,1-2.56.25A12.22,12.22,0,0,1,187,33.49a8.55,8.55,0,0,1-3.33-2.77,7.26,7.26,0,0,1-1.23-3.83,9.35,9.35,0,0,1,.83-4.23,12.42,12.42,0,0,1,2.88-4,15.76,15.76,0,0,1,4.93-3.08,22.78,22.78,0,0,1,.38-4,14.66,14.66,0,0,1,1.28-3.92,8.75,8.75,0,0,1,2.41-3,5.85,5.85,0,0,1,3.76-1.19,5.1,5.1,0,0,1,3.58,1.26,3.9,3.9,0,0,1,1.15,3.46,4.57,4.57,0,0,1-1,2.34,9.78,9.78,0,0,1-2.16,2,16.89,16.89,0,0,1-2.93,1.55,33,33,0,0,1-3.29,1.17,42.6,42.6,0,0,0,.52,4.3q.39,2.23,1,4.41a39.29,39.29,0,0,0,1.44,4.21,23.66,23.66,0,0,0,1.91,3.69,12.45,12.45,0,0,0,3.58-3.76,12.18,12.18,0,0,0,1.74-4.25,2.52,2.52,0,0,0-.86-2.75,5.25,5.25,0,0,0-.79,0,3.36,3.36,0,0,0-2.56,1.69,1.88,1.88,0,0,0,.11,1.93l-.5.14a3.17,3.17,0,0,1-.49-1.53,4.21,4.21,0,0,1,.2-1.55,3.6,3.6,0,0,1,.77-1.31,3.12,3.12,0,0,1,1.24-.83,5.11,5.11,0,0,1,1.93-.27l2,.09a5.27,5.27,0,0,0,2.57-.34,1.67,1.67,0,0,0,1-1,1.42,1.42,0,0,0-.59-1.35l.32-.27a1.81,1.81,0,0,1,.81,2.21,3.83,3.83,0,0,1-1.06,1.78,3.56,3.56,0,0,1-2.59.83,6.88,6.88,0,0,1-1.35-.14,3,3,0,0,1,.5,1.17,5.39,5.39,0,0,1,0,1.71,11.75,11.75,0,0,1-1.74,4.42,12.65,12.65,0,0,1-3.84,3.91A11,11,0,0,0,200.69,34a9.78,9.78,0,0,0,1.46,1.28,7,7,0,0,0,1.71.9,5.57,5.57,0,0,0,2,.34,6.21,6.21,0,0,0,2.14-.4,6,6,0,0,0,2-1.31Zm-13.37-1.93a18.74,18.74,0,0,1-2.36-3.63,29.65,29.65,0,0,1-1.74-4.18,32.79,32.79,0,0,1-1.12-4.44,32.38,32.38,0,0,1-.5-4.32,10.66,10.66,0,0,0-3,2.77A12.14,12.14,0,0,0,186.27,23a11.76,11.76,0,0,0-.57,3.85,7.93,7.93,0,0,0,.86,3.49A6.24,6.24,0,0,0,189,32.83a8,8,0,0,0,4.18,1,9.62,9.62,0,0,0,1.89-.18A11.76,11.76,0,0,0,196.82,33.13Zm-2.61-18.55a12.12,12.12,0,0,0,5.33-2.95,5.62,5.62,0,0,0,1.73-3.44,4.33,4.33,0,0,0-.69-2.81,2.33,2.33,0,0,0-2-1.1,2.92,2.92,0,0,0-1.8.56,4.6,4.6,0,0,0-1.31,1.55,9.28,9.28,0,0,0-.85,2.34,17.3,17.3,0,0,0-.41,3c0,.45-.05.92-.06,1.4A14.73,14.73,0,0,0,194.21,14.58Z"/><path class="cls-1" d="M227.43,34.12a7.76,7.76,0,0,0,4.77-1.67,23,23,0,0,0,4.25-4.32,61.06,61.06,0,0,0,4-6c1.32-2.22,2.67-4.44,4.05-6.68s2.82-4.36,4.32-6.37A27.14,27.14,0,0,1,253.71,4a10.63,10.63,0,0,0-3.53-1.92,17,17,0,0,0-5.38-.74,24,24,0,0,0-5.63.7,17.63,17.63,0,0,0-5.31,2.18A13,13,0,0,0,229.92,8a9.6,9.6,0,0,0-1.55,5.49,7.68,7.68,0,0,0,.43,2.61A6.41,6.41,0,0,0,230,18.23,5.67,5.67,0,0,0,232,19.65a6.16,6.16,0,0,0,2.54.51,5.28,5.28,0,0,0,2.61-.67,8.64,8.64,0,0,0,2.16-1.69,9.2,9.2,0,0,0,1.55-2.23,7.07,7.07,0,0,0,.75-2.34,8.1,8.1,0,0,0,0-2.41,5.12,5.12,0,0,0-.7-1.91,3.76,3.76,0,0,0-1.28-1.26,3.41,3.41,0,0,0-1.76-.45,4.06,4.06,0,0,0-2.45.77,5,5,0,0,0-1.64,2,6.92,6.92,0,0,0-.61,2.88,9.12,9.12,0,0,0,.61,3.33.2.2,0,0,1-.14.3q-.22.06-.45-.39a7.21,7.21,0,0,1-.79-3.33,7.52,7.52,0,0,1,.7-3.13,6.1,6.1,0,0,1,1.89-2.31,4.65,4.65,0,0,1,2.84-.9,4.17,4.17,0,0,1,2.11.54,4.39,4.39,0,0,1,1.55,1.48,6.11,6.11,0,0,1,.86,2.18,8,8,0,0,1,.07,2.64,9,9,0,0,1-.81,2.54,9.15,9.15,0,0,1-1.69,2.43,8.58,8.58,0,0,1-2.48,1.8,7,7,0,0,1-3.17.7,8.52,8.52,0,0,1-3.15-.59,8.3,8.3,0,0,1-2.56-1.55,7,7,0,0,1-1.72-2.29,6.53,6.53,0,0,1-.63-2.82A9.31,9.31,0,0,1,227.83,8a14,14,0,0,1,4.32-4,21,21,0,0,1,5.9-2.39,27,27,0,0,1,6.34-.79,30.19,30.19,0,0,1,5.38.52,15.86,15.86,0,0,1,5.07,1.83,12.57,12.57,0,0,1,4.32-1.94.14.14,0,0,1,.2.13c0,.13,0,.2-.07.23a13.8,13.8,0,0,0-3.46,2.21,8.37,8.37,0,0,1,3,3.57,7.47,7.47,0,0,1,.54,4.08,7.93,7.93,0,0,1-1.73,3.78,9.81,9.81,0,0,1-3.8,2.79,9.85,9.85,0,0,1,1.68,1.51,8.28,8.28,0,0,1,1.33,2,7.59,7.59,0,0,1,.7,2.45,9.07,9.07,0,0,1-.2,3,8.43,8.43,0,0,1-1.92,3.94,10.35,10.35,0,0,1-3,2.32,12,12,0,0,1-3.13,1.1,14.14,14.14,0,0,1-2.43.29,5.8,5.8,0,0,1-3.75-1.17,3.73,3.73,0,0,1-1.47-3.06,4.87,4.87,0,0,1,.41-2.05,4.49,4.49,0,0,1,1.08-1.48,4.61,4.61,0,0,1,1.55-.93,5.25,5.25,0,0,1,1.78-.31,3.48,3.48,0,0,1,2.52.79,2.4,2.4,0,0,1,.13,3.51,2.8,2.8,0,0,1-2.16.79.27.27,0,0,1-.22-.16c-.06-.11,0-.17.31-.21a1.81,1.81,0,0,0,1.42-.76,2.15,2.15,0,0,0-.22-2.84,2.5,2.5,0,0,0-1.87-.63,4.2,4.2,0,0,0-1.51.28,3.94,3.94,0,0,0-1.33.8,4.08,4.08,0,0,0-.94,1.36,4.48,4.48,0,0,0-.36,1.84A3.35,3.35,0,0,0,243.47,33,4.71,4.71,0,0,0,246.69,34a5.38,5.38,0,0,0,2.32-.57,8.19,8.19,0,0,0,2.22-1.57,11.27,11.27,0,0,0,1.85-2.43,9.88,9.88,0,0,0,1.12-3.08,9.35,9.35,0,0,0-.09-4.48,8.26,8.26,0,0,0-1.75-3.36,7,7,0,0,1-1.35.34,8.73,8.73,0,0,1-1.44.11,2.14,2.14,0,0,1-1.46-.42,1.28,1.28,0,0,1-.48-1,1.2,1.2,0,0,1,.45-.9,2,2,0,0,1,1.35-.41,5,5,0,0,1,1.33.23,9.69,9.69,0,0,1,1.69.67,8.56,8.56,0,0,0,2.23-2.43,10.3,10.3,0,0,0,1.3-3.17,8.56,8.56,0,0,0,.09-3.42A6.89,6.89,0,0,0,254.65,5a29.89,29.89,0,0,0-4,5.33c-1.23,2.05-2.44,4.18-3.62,6.37s-2.41,4.35-3.67,6.48a35.26,35.26,0,0,1-4.21,5.74A19.93,19.93,0,0,1,234,33a13.33,13.33,0,0,1-6.53,1.56,7.3,7.3,0,0,1-2.45-.43,6.13,6.13,0,0,1-3.56-3.22,6.15,6.15,0,0,1-.56-2.66,5.23,5.23,0,0,1,.45-2.11,6.23,6.23,0,0,1,3.17-3.2,5.94,5.94,0,0,1,2.46-.49,5.64,5.64,0,0,1,3.64,1A3.39,3.39,0,0,1,232,25.59a3,3,0,0,1-.5,2.16,2.07,2.07,0,0,1-1.82,1,1.34,1.34,0,0,1-.79-.24,1,1,0,0,1-.33-.84.9.9,0,0,1,.4-.78,1.62,1.62,0,0,1,1-.3A1.11,1.11,0,0,0,231,26a1.27,1.27,0,0,0,0-1.21,2.91,2.91,0,0,0-1.26-1.22,5.29,5.29,0,0,0-2.61-.54,5.76,5.76,0,0,0-3.94,1.58A5.64,5.64,0,0,0,222,26.33a5.13,5.13,0,0,0,.11,4.43,6.19,6.19,0,0,0,1.42,1.8,6.32,6.32,0,0,0,1.91,1.15A5.63,5.63,0,0,0,227.43,34.12ZM251.5,17.78a5.07,5.07,0,0,0-1-.59,2.92,2.92,0,0,0-1.13-.22,1.23,1.23,0,0,0-.87.18.62.62,0,0,0-.3.49.65.65,0,0,0,.27.5,1.34,1.34,0,0,0,.86.22,3.78,3.78,0,0,0,1.15-.18A10,10,0,0,0,251.5,17.78Z"/><path class="cls-1" d="M276.57,24.93c-1.62,1.62-2.92,2.44-3.91,2.44a2.45,2.45,0,0,1-1.38-.37,2.34,2.34,0,0,1-.85-.92,3,3,0,0,1-.34-1.26,3.33,3.33,0,0,1,.18-1.33,48.28,48.28,0,0,0-4.12,5.16q-1.95,2.81-3.66,5.51h-2.84l6.44-10.58a8.61,8.61,0,0,0,1.08-2.43q.18-.9-.45-.9a3.68,3.68,0,0,0-2,1.22q-1.31,1.22-3.46,3.51h-.86a45.31,45.31,0,0,1,4-4.07,4.43,4.43,0,0,1,2.75-1.33A1.61,1.61,0,0,1,268.74,21c.24.93,0,2.34-.85,4.23.75-.9,1.59-1.86,2.54-2.88a24.14,24.14,0,0,1,2.72-2.56h2.12A11,11,0,0,0,273,22.28a6.86,6.86,0,0,0-1,2.23,2.38,2.38,0,0,0,.09,1.57,1,1,0,0,0,1,.61,1.81,1.81,0,0,0,1.15-.5,14.44,14.44,0,0,0,1.37-1.26Z"/><path class="cls-1" d="M275.4,34.16a2.21,2.21,0,0,1-1.57-.58A2.87,2.87,0,0,1,273,32a5.32,5.32,0,0,1,.11-2.32,10,10,0,0,1,1.21-2.79l4.55-7.29h2.83l-6.43,10.58a3.26,3.26,0,0,0-.63,2.43q.27.9,1,.9A3.75,3.75,0,0,0,278,32.2q1.35-1.28,3.69-3.8c.42-.48.82-.92,1.2-1.33s.7-.77,1-1.1.63-.71.91-1h.85L282.09,29q-1.51,1.75-2.7,2.88a13.3,13.3,0,0,1-2.14,1.69A3.66,3.66,0,0,1,275.4,34.16ZM281,14.63a1.57,1.57,0,0,1,.45-1.11,1.6,1.6,0,0,1,2.71,1.11,1.47,1.47,0,0,1-.48,1.12,1.61,1.61,0,0,1-2.23,0A1.52,1.52,0,0,1,281,14.63Z"/><path class="cls-1" d="M292.46,19.58a3.26,3.26,0,0,1,2.5.85,2.8,2.8,0,0,1,.74,2.07l9.09-14.8h2.84L294,30.16a3.26,3.26,0,0,0-.63,2.43q.27.9,1,.9a3.75,3.75,0,0,0,2.38-1.29q1.35-1.28,3.69-3.8c.42-.48.82-.92,1.19-1.33s.7-.77,1-1.1.63-.71.9-1h.86L300.76,29a36.52,36.52,0,0,1-2.7,2.88,12.85,12.85,0,0,1-2.13,1.69,3.66,3.66,0,0,1-1.85.56,2.28,2.28,0,0,1-2-1.08,3.77,3.77,0,0,1-.47-2.79,15,15,0,0,1-2.52,2.88,4.55,4.55,0,0,1-3.06,1.17,3.14,3.14,0,0,1-2.23-.83,4,4,0,0,1-1.15-2.18,7.37,7.37,0,0,1,.12-3.07,9.89,9.89,0,0,1,1.59-3.46A14.55,14.55,0,0,1,288.16,21,7.65,7.65,0,0,1,292.46,19.58Zm.45.58A4.47,4.47,0,0,0,290,21.4a14.78,14.78,0,0,0-2.84,3.53,15.08,15.08,0,0,0-1.46,3.22,9.78,9.78,0,0,0-.47,2.75,4.15,4.15,0,0,0,.38,1.91,1.2,1.2,0,0,0,1.1.72,2.66,2.66,0,0,0,1.62-.67,11.2,11.2,0,0,0,1.76-1.8,29.17,29.17,0,0,0,1.82-2.57c.62-1,1.24-1.94,1.87-2.93a6.93,6.93,0,0,0,1-2.2,4.06,4.06,0,0,0,0-1.69,1.88,1.88,0,0,0-.67-1.1A2,2,0,0,0,292.91,20.16Z"/><path class="cls-1" d="M313.3,22.77a3.81,3.81,0,0,1-1.15,1.4,10.89,10.89,0,0,1-2,1.26,22.35,22.35,0,0,1-2.5,1.08q-1.35.49-2.7.9a7.29,7.29,0,0,0-.33,2.27,4.76,4.76,0,0,0,.36,1.85,3,3,0,0,0,.94,1.24,2.33,2.33,0,0,0,1.42.45,5.8,5.8,0,0,0,1.89-.36,10.17,10.17,0,0,0,2.38-1.31A28.76,28.76,0,0,0,314.74,29c1.17-1.09,2.52-2.5,4.05-4.21h.81a52.47,52.47,0,0,1-4.14,4.5A26.61,26.61,0,0,1,312,32.14a13.65,13.65,0,0,1-2.9,1.55,7.21,7.21,0,0,1-2.39.47,4.78,4.78,0,0,1-2.83-.83,4.67,4.67,0,0,1-1.69-2.18,6,6,0,0,1-.27-3.07,8.14,8.14,0,0,1,1.46-3.46,14.75,14.75,0,0,1,3.72-3.85A7,7,0,0,1,311,19.4a3.68,3.68,0,0,1,1.2.2,2.36,2.36,0,0,1,.94.63,1.79,1.79,0,0,1,.45,1.06A3,3,0,0,1,313.3,22.77Zm-8.15,4a16,16,0,0,0,4.68-2.16,5.22,5.22,0,0,0,2.16-2.7,1.7,1.7,0,0,0,0-1.41.94.94,0,0,0-.81-.48,2.78,2.78,0,0,0-1.73.77,11.49,11.49,0,0,0-1.76,1.84,23,23,0,0,0-1.51,2.23A16.3,16.3,0,0,0,305.15,26.73Z"/></g></g></svg>